<svg xmlns="http://www.w3.org/2000/svg" xmlns:xlink="http://www.w3.org/1999/xlink" viewBox="0 0 284.85 894.16"><defs><style>.cls-1{fill:url(#linear-gradient);}.cls-2{fill:url(#linear-gradient-2);}.cls-3{opacity:0.2;fill:url(#linear-gradient-3);}</style><linearGradient id="linear-gradient" x1="946.58" y1="424.28" x2="1224.64" y2="424.28" gradientTransform="matrix(-1, 0, 0, 1, 1224.64, 0)" gradientUnits="userSpaceOnUse"><stop offset="0" stop-color="#c66665"/><stop offset="1" stop-color="#d4b6b5"/></linearGradient><linearGradient id="linear-gradient-2" x1="1355.12" y1="459.15" x2="855.98" y2="804.7" gradientTransform="matrix(-1, 0, 0, 1, 1224.64, 0)" gradientUnits="userSpaceOnUse"><stop offset="0" stop-color="#5f5f5f"/><stop offset="0.65" stop-color="#968e8d"/><stop offset="1" stop-color="#aea2a1"/></linearGradient><linearGradient id="linear-gradient-3" x1="1404.41" y1="1094.06" x2="946.64" y2="372.18" xlink:href="#linear-gradient-2"/></defs><g id="Layer_2" data-name="Layer 2"><g id="Layer_1-2" data-name="Layer 1"><path class="cls-1" d="M0,0V759.33l29.54,89.23L125,817C101.8,747,107.21,661,116.84,569.65c6.46-61.31,14.81-125.07,17.68-188.1,4.53-98.79-4.38-195.78-55.07-278.77C52.38,58.43,25.72,24.93,0,0Z"/><path class="cls-2" d="M0,213.86V885.1c174.71,47,312-95.26,280.28-271.84C245.6,420,86.45,394.05,0,213.86Z"/><path class="cls-3" d="M0,441.31v444c6.73,1.38,14.09,2.72,22,3.89l1,.15a386.4,386.4,0,0,0,40.81,3.8l1.28,0q6.68.24,13.54.22h.15c54.24-1,104.08-23.57,141.32-60.61-.06-81.13-40.54-178.47-103.24-263.13a641.39,641.39,0,0,0-72.5-82.34C28,471.69,13.26,456.34,0,441.31Z"/></g></g></svg>