<svg xmlns="http://www.w3.org/2000/svg" xmlns:xlink="http://www.w3.org/1999/xlink" viewBox="0 0 284.85 894.16"><defs><style>.cls-1{fill:url(#linear-gradient);}.cls-2{fill:url(#linear-gradient-2);}.cls-3{opacity:0.2;fill:url(#linear-gradient-3);}</style><linearGradient id="linear-gradient" x1="6.79" y1="424.28" x2="284.85" y2="424.28" gradientUnits="userSpaceOnUse"><stop offset="0" stop-color="#c66665"/><stop offset="1" stop-color="#d4b6b5"/></linearGradient><linearGradient id="linear-gradient-2" x1="415.33" y1="459.15" x2="-83.81" y2="804.7" gradientUnits="userSpaceOnUse"><stop offset="0" stop-color="#5f5f5f"/><stop offset="0.65" stop-color="#968e8d"/><stop offset="1" stop-color="#aea2a1"/></linearGradient><linearGradient id="linear-gradient-3" x1="464.62" y1="1094.06" x2="6.85" y2="372.18" xlink:href="#linear-gradient-2"/></defs><g id="Layer_2" data-name="Layer 2"><g id="Layer_1-2" data-name="Layer 1"><path class="cls-1" d="M284.85,0V759.33l-29.54,89.23L159.89,817C183.05,747,177.64,661,168,569.65c-6.45-61.31-14.81-125.07-17.68-188.1-4.53-98.79,4.39-195.78,55.07-278.77C232.47,58.43,259.13,24.93,284.85,0Z"/><path class="cls-2" d="M284.85,213.86V885.1c-174.71,47-312-95.26-280.28-271.84C39.26,420,198.41,394.05,284.85,213.86Z"/><path class="cls-3" d="M284.85,441.31v444c-6.73,1.38-14.09,2.72-21.94,3.89l-1,.15a385.89,385.89,0,0,1-40.81,3.8l-1.28,0q-6.67.24-13.54.22h-.14c-54.25-1-104.09-23.57-141.32-60.61,0-81.13,40.54-178.47,103.23-263.13a641.39,641.39,0,0,1,72.5-82.34C256.88,471.69,271.59,456.34,284.85,441.31Z"/></g></g></svg>