<svg xmlns="http://www.w3.org/2000/svg" xmlns:xlink="http://www.w3.org/1999/xlink" viewBox="0 0 1660.82 356.5"><defs><style>.cls-1{opacity:0.5;}.cls-2{fill:url(#linear-gradient);}.cls-3{fill:url(#linear-gradient-2);}.cls-4{fill:url(#linear-gradient-3);}.cls-5{fill:url(#linear-gradient-4);}.cls-6{fill:url(#linear-gradient-5);}.cls-7{fill:url(#linear-gradient-6);}.cls-10,.cls-11,.cls-12,.cls-13,.cls-14,.cls-15,.cls-16,.cls-25,.cls-26,.cls-27,.cls-28,.cls-29,.cls-30,.cls-31,.cls-32,.cls-33,.cls-8,.cls-9{fill:none;stroke-miterlimit:10;stroke-width:4px;}.cls-8{stroke:url(#linear-gradient-7);}.cls-9{stroke:url(#linear-gradient-8);}.cls-10{stroke:url(#linear-gradient-9);}.cls-11{stroke:url(#linear-gradient-10);}.cls-12{stroke:url(#linear-gradient-11);}.cls-13{stroke:url(#linear-gradient-12);}.cls-14{stroke:url(#linear-gradient-13);}.cls-15{stroke:url(#linear-gradient-14);}.cls-16{stroke:url(#linear-gradient-15);}.cls-17{fill:url(#linear-gradient-16);}.cls-18{fill:url(#linear-gradient-17);}.cls-19{fill:url(#linear-gradient-18);}.cls-20{fill:url(#linear-gradient-19);}.cls-21{fill:url(#linear-gradient-20);}.cls-22{fill:url(#linear-gradient-21);}.cls-23{fill:url(#linear-gradient-22);}.cls-24{fill:url(#linear-gradient-23);}.cls-25{stroke:url(#linear-gradient-24);}.cls-26{stroke:url(#linear-gradient-25);}.cls-27{stroke:url(#linear-gradient-26);}.cls-28{stroke:url(#linear-gradient-27);}.cls-29{stroke:url(#linear-gradient-28);}.cls-30{stroke:url(#linear-gradient-29);}.cls-31{stroke:url(#linear-gradient-30);}.cls-32{stroke:url(#linear-gradient-31);}.cls-33{stroke:url(#linear-gradient-32);}</style><linearGradient id="linear-gradient" x1="545.05" y1="20.4" x2="585.88" y2="20.4" gradientUnits="userSpaceOnUse"><stop offset="0" stop-color="#cb7675"/><stop offset="1" stop-color="#cb7675"/></linearGradient><linearGradient id="linear-gradient-2" x1="764.01" y1="23.65" x2="804.85" y2="23.65" xlink:href="#linear-gradient"/><linearGradient id="linear-gradient-3" x1="704.6" y1="116.39" x2="745.44" y2="116.39" xlink:href="#linear-gradient"/><linearGradient id="linear-gradient-4" x1="594.26" y1="117.06" x2="635.03" y2="117.06" xlink:href="#linear-gradient"/><linearGradient id="linear-gradient-5" x1="483.86" y1="109.32" x2="524.7" y2="109.32" xlink:href="#linear-gradient"/><linearGradient id="linear-gradient-6" x1="650.99" y1="209.89" x2="691.82" y2="209.89" xlink:href="#linear-gradient"/><linearGradient id="linear-gradient-7" x1="430.77" y1="275.61" x2="470.39" y2="275.61" xlink:href="#linear-gradient"/><linearGradient id="linear-gradient-8" x1="378.74" y1="277.87" x2="418.37" y2="277.87" xlink:href="#linear-gradient"/><linearGradient id="linear-gradient-9" x1="299.01" y1="336.68" x2="338.64" y2="336.68" xlink:href="#linear-gradient"/><linearGradient id="linear-gradient-10" x1="205.7" y1="301.62" x2="245.33" y2="301.62" xlink:href="#linear-gradient"/><linearGradient id="linear-gradient-11" x1="183.65" y1="201.53" x2="223.28" y2="201.53" xlink:href="#linear-gradient"/><linearGradient id="linear-gradient-12" x1="380.44" y1="169.3" x2="420.07" y2="169.3" xlink:href="#linear-gradient"/><linearGradient id="linear-gradient-13" x1="88.65" y1="168.17" x2="128.27" y2="168.17" xlink:href="#linear-gradient"/><linearGradient id="linear-gradient-14" x1="16.26" y1="233.77" x2="55.89" y2="233.77" xlink:href="#linear-gradient"/><linearGradient id="linear-gradient-15" x1="512.14" y1="216.48" x2="551.76" y2="216.48" xlink:href="#linear-gradient"/><linearGradient id="linear-gradient-16" x1="1074.93" y1="20.38" x2="1115.77" y2="20.38" xlink:href="#linear-gradient"/><linearGradient id="linear-gradient-17" x1="855.96" y1="23.65" x2="896.8" y2="23.65" xlink:href="#linear-gradient"/><linearGradient id="linear-gradient-18" x1="915.38" y1="116.39" x2="956.22" y2="116.39" xlink:href="#linear-gradient"/><linearGradient id="linear-gradient-19" x1="1025.78" y1="117.06" x2="1066.56" y2="117.06" xlink:href="#linear-gradient"/><linearGradient id="linear-gradient-20" x1="1136.12" y1="109.34" x2="1176.96" y2="109.34" xlink:href="#linear-gradient"/><linearGradient id="linear-gradient-21" x1="968.99" y1="209.89" x2="1009.82" y2="209.89" xlink:href="#linear-gradient"/><linearGradient id="linear-gradient-22" x1="49.37" y1="202.93" x2="1611.45" y2="202.93" xlink:href="#linear-gradient"/><linearGradient id="linear-gradient-23" x1="0" y1="160.65" x2="1660.82" y2="160.65" xlink:href="#linear-gradient"/><linearGradient id="linear-gradient-24" x1="1190.42" y1="275.61" x2="1230.05" y2="275.61" xlink:href="#linear-gradient"/><linearGradient id="linear-gradient-25" x1="1242.45" y1="277.87" x2="1282.07" y2="277.87" xlink:href="#linear-gradient"/><linearGradient id="linear-gradient-26" x1="810.59" y1="114.46" x2="850.22" y2="114.46" xlink:href="#linear-gradient"/><linearGradient id="linear-gradient-27" x1="1415.49" y1="301.62" x2="1455.11" y2="301.62" xlink:href="#linear-gradient"/><linearGradient id="linear-gradient-28" x1="1437.54" y1="201.53" x2="1477.17" y2="201.53" xlink:href="#linear-gradient"/><linearGradient id="linear-gradient-29" x1="1240.75" y1="169.3" x2="1280.38" y2="169.3" xlink:href="#linear-gradient"/><linearGradient id="linear-gradient-30" x1="1532.54" y1="168.17" x2="1572.17" y2="168.17" xlink:href="#linear-gradient"/><linearGradient id="linear-gradient-31" x1="1604.93" y1="233.77" x2="1644.55" y2="233.77" xlink:href="#linear-gradient"/><linearGradient id="linear-gradient-32" x1="1109.05" y1="216.48" x2="1148.68" y2="216.48" xlink:href="#linear-gradient"/></defs><g id="Layer_2" data-name="Layer 2"><g id="Layer_1-2" data-name="Layer 1"><g class="cls-1"><path class="cls-2" d="M565.47,40.8a18.75,18.75,0,0,0,13.63-5.89,18.7,18.7,0,1,0-27.26,0,18.71,18.71,0,0,0,13.63,5.9Zm0,0A20.4,20.4,0,0,1,550.6,6.4,20.38,20.38,0,0,1,565.47,0a20.41,20.41,0,0,1,19.16,13.33,20.26,20.26,0,0,1,1.23,7.94A20.43,20.43,0,0,1,565.47,40.8Z"/><path class="cls-3" d="M803.61,16.6a20.67,20.67,0,0,0-4.3-6.93,20.49,20.49,0,0,0-14.88-6.4,20.53,20.53,0,0,0-14.86,6.39,20.15,20.15,0,0,0-4.3,6.94,20.37,20.37,0,0,0,5.19,21.92,20.35,20.35,0,0,0,13,5.51A18.55,18.55,0,0,1,777,42.51a18.62,18.62,0,0,1-10.1-10.7,18.69,18.69,0,0,1,17.54-25,18.71,18.71,0,0,1,18.66,17.77,18.55,18.55,0,0,1-5,13.63,18.94,18.94,0,0,1-6.19,4.34A18.45,18.45,0,0,1,785.44,44a20.36,20.36,0,0,0,13-5.51,20.42,20.42,0,0,0,5.19-21.92Z"/><path class="cls-4" d="M744.19,109.35a20.45,20.45,0,0,0-4.29-6.93,20.75,20.75,0,0,0-6.76-4.73,20.5,20.5,0,0,0-16.23,0,20.82,20.82,0,0,0-6.76,4.72,20.55,20.55,0,0,0-5.54,14.88,20.54,20.54,0,0,0,6.44,14,20.3,20.3,0,0,0,13,5.53,19.4,19.4,0,0,1-6.49-1.52,18.89,18.89,0,0,1-6.17-4.35,18.66,18.66,0,0,1,26.37-26.37,18.61,18.61,0,0,1-5.31,30.72,19.23,19.23,0,0,1-6.49,1.52,20.45,20.45,0,0,0,19.45-19.5A20.69,20.69,0,0,0,744.19,109.35Z"/><path class="cls-5" d="M629.16,130.69a18.9,18.9,0,0,1-6.36,3.92,18.67,18.67,0,1,1-7.27-36.21,19,19,0,0,1,7.27,1.1,18.74,18.74,0,0,1,6.36,3.92A18.6,18.6,0,0,1,635,116.1a20.43,20.43,0,0,0-19.5-19.44,20.63,20.63,0,0,0-7.94,1.23,20.48,20.48,0,0,0-11.66,27.29,21.13,21.13,0,0,0,4.73,6.75A20.41,20.41,0,0,0,635,118a18.6,18.6,0,0,1-5.87,12.68Z"/><path class="cls-6" d="M523.45,102.27a20.53,20.53,0,0,0-4.3-6.92,20.46,20.46,0,0,0-23-4.73,20.38,20.38,0,0,0-5.86,33.58,20.32,20.32,0,0,0,13,5.5,18.54,18.54,0,0,1-6.49-1.51,18.57,18.57,0,0,1-11.21-18,18.88,18.88,0,0,1,5.92-12.74,18.66,18.66,0,0,1,26.36,26.38,19.31,19.31,0,0,1-6.18,4.34,18.77,18.77,0,0,1-6.43,1.51,20.34,20.34,0,0,0,13-5.5,20.44,20.44,0,0,0,5.19-21.93Z"/><path class="cls-7" d="M685.38,195a20.41,20.41,0,0,0-13-5.51,18.65,18.65,0,0,1,6.5,1.52,19.2,19.2,0,0,1,6.19,4.34,18.53,18.53,0,0,1,3.9,6.36,18.66,18.66,0,0,1-4.8,20,18.66,18.66,0,0,1-26.38-26.37A19.2,19.2,0,0,1,664,191a18.66,18.66,0,0,1,6.44-1.52A20.4,20.4,0,0,0,651,209a20.38,20.38,0,0,0,12.28,19.6,20.87,20.87,0,0,0,8.11,1.67,20.51,20.51,0,0,0,8.11-1.67,20.81,20.81,0,0,0,6.77-4.72,20.41,20.41,0,0,0-.9-28.86Z"/><circle class="cls-8" cx="450.58" cy="275.61" r="17.81"/><circle class="cls-9" cx="398.56" cy="277.87" r="17.81"/><circle class="cls-10" cx="318.82" cy="336.68" r="17.81"/><circle class="cls-11" cx="225.52" cy="301.62" r="17.81"/><circle class="cls-12" cx="203.46" cy="201.53" r="17.81"/><circle class="cls-13" cx="400.25" cy="169.3" r="17.81"/><circle class="cls-14" cx="108.46" cy="168.17" r="17.81"/><circle class="cls-15" cx="36.08" cy="233.77" r="17.81"/><circle class="cls-16" cx="531.95" cy="216.48" r="17.81"/><path class="cls-17" d="M1114.52,13.33A20.46,20.46,0,0,0,1095.35,0a20.4,20.4,0,0,0-14.87,6.41A20.36,20.36,0,0,0,1075,21.27a20.56,20.56,0,0,0,6.42,14,20.31,20.31,0,0,0,13,5.51,18.5,18.5,0,0,1-6.44-1.52,18.77,18.77,0,0,1-6.19-4.33,19,19,0,0,1-3.92-6.37,18.67,18.67,0,1,1,36.2-7.27,18.6,18.6,0,0,1-5,13.64,19,19,0,0,1-6.17,4.33,18.66,18.66,0,0,1-6.44,1.52,20.44,20.44,0,0,0,19.39-19.49A20.8,20.8,0,0,0,1114.52,13.33Z"/><path class="cls-18" d="M895.56,16.6A20.48,20.48,0,0,0,876.38,3.27a20.44,20.44,0,0,0-14.86,6.4,20.38,20.38,0,0,0-4.31,6.93A20.77,20.77,0,0,0,856,24.54,20.42,20.42,0,0,0,875.37,44a18.39,18.39,0,0,1-6.43-1.52,18.64,18.64,0,1,1,26.08-18,18.5,18.5,0,0,1-1.1,7.27A18.67,18.67,0,0,1,877.39,44a20.31,20.31,0,0,0,13-5.51,20.56,20.56,0,0,0,6.44-14A20.77,20.77,0,0,0,895.56,16.6Z"/><path class="cls-19" d="M955,109.35a20.19,20.19,0,0,0-4.3-6.95,20.41,20.41,0,1,0-28.84,28.85,20.26,20.26,0,0,0,13,5.53,18.76,18.76,0,0,1-12.68-5.86,19,19,0,0,1-3.92-6.36,18.69,18.69,0,1,1,31.18,6.35,19.1,19.1,0,0,1-6.17,4.35,19.46,19.46,0,0,1-6.5,1.52,20.3,20.3,0,0,0,13-5.53,20.33,20.33,0,0,0,5.19-21.9Z"/><path class="cls-20" d="M1064.88,108.94a20.85,20.85,0,0,0-4.73-6.75,20.37,20.37,0,0,0-28.84.89,20.38,20.38,0,0,0-5.53,13,18.72,18.72,0,0,1,5.87-12.68,18.56,18.56,0,0,1,13.64-5,18.67,18.67,0,1,1-7.28,36.21,18.65,18.65,0,0,1-10.71-10.11,19.29,19.29,0,0,1-1.52-6.49,20.39,20.39,0,0,0,34.37,13.92,20.46,20.46,0,0,0,4.73-23Z"/><path class="cls-21" d="M1164,128.19a18.93,18.93,0,0,0,6.18-4.35,18.58,18.58,0,0,0,3.92-6.36,18.63,18.63,0,0,0-4.81-20,18.66,18.66,0,0,0-30.29,20,18.88,18.88,0,0,0,3.92,6.37,18.7,18.7,0,0,0,21.08,4.34Zm-21.42-4a20.34,20.34,0,0,1-.89-28.84,20.4,20.4,0,0,1,35.27,14.86,20.41,20.41,0,0,1-34.38,14Z"/><path class="cls-22" d="M1003.4,195a20.38,20.38,0,0,0-13-5.51,18.6,18.6,0,0,1,6.43,1.52,19.2,19.2,0,0,1,6.19,4.34A18.66,18.66,0,1,1,970.78,209a18.64,18.64,0,0,1,5-13.63A19.2,19.2,0,0,1,982,191a18.6,18.6,0,0,1,6.49-1.52,20.4,20.4,0,0,0-13.92,34.37,20.47,20.47,0,0,0,14.88,6.39,20.94,20.94,0,0,0,8.11-1.67A20.41,20.41,0,0,0,1003.4,195Z"/><path class="cls-23" d="M1611.45,191.64a61.56,61.56,0,0,1-29.9,35.78,65.48,65.48,0,0,1-11.09,4.44,74.36,74.36,0,0,1-11.72,2.43c-2,.16-4,.45-6,.48l-3,.13-3,0c-1,0-2,0-3-.1s-2-.24-3-.39c-2-.32-3.93-.74-5.87-1.25a69,69,0,0,1-21.73-9.86,64.56,64.56,0,0,1-16.82-16.95,70.41,70.41,0,0,1-5.88-10.44c-.83-1.82-1.58-3.7-2.33-5.52a45.82,45.82,0,0,0-2.65-5.29,39.23,39.23,0,0,0-17.07-15.84,34.3,34.3,0,0,0-11.27-3.28,30.75,30.75,0,0,0-11.65,1,39.19,39.19,0,0,0-10.67,4.93,55.2,55.2,0,0,0-9.19,7.42,45.42,45.42,0,0,0-7.26,9.27,34.43,34.43,0,0,0-.52,33.75,37.56,37.56,0,0,0,16.71,16,42.07,42.07,0,0,0,11.16,3.58,44.2,44.2,0,0,0,11.71.52,15.19,15.19,0,0,1,11.57,3.8,14.49,14.49,0,0,1,3.64,5.06,13.59,13.59,0,0,1,1.1,6.16,11.29,11.29,0,0,1-1.82,6,13,13,0,0,1-4.71,4.16,23.35,23.35,0,0,1-5.79,2.13,31.67,31.67,0,0,1-6,.75,39.51,39.51,0,0,1-9,.33,44.17,44.17,0,0,1-8.89-1.49,41.78,41.78,0,0,1-8.44-3.2,42.92,42.92,0,0,1-6.7-4.1,82.68,82.68,0,0,1-6,13,80.67,80.67,0,0,1-8.82,12.75,62.4,62.4,0,0,1-11.39,10.57,55,55,0,0,1-6.67,4.1c-1.18.55-2.33,1.18-3.54,1.63l-1.82.74-1.85.63a50.09,50.09,0,0,1-7.59,1.88l-3.85.51c-1.29.14-2.56.38-3.86.42l-3.88.23a15.55,15.55,0,0,1-1.93,0h-2c-2.58.06-5.17-.25-7.76-.45a63.92,63.92,0,0,1-15.13-3.67,15.08,15.08,0,0,1-1.82-.74l-1.79-.79c-.36-.16-.72-.35-1.06-.54-.83-.44-1.64-.81-2.41-1.29a36.46,36.46,0,0,1-5.18-3.57,81.24,81.24,0,0,1-6.07,15.06,51.53,51.53,0,0,1-10.8,14.27,30.23,30.23,0,0,1-7.62,5,23.76,23.76,0,0,1-8.91,2.2,12.43,12.43,0,0,1-4.73-.74,10.87,10.87,0,0,1-4-2.66,13.86,13.86,0,0,1-3.73-8.62,15,15,0,0,1,2.46-9,14.61,14.61,0,0,1,3.2-3.5c1.14-.92,2.24-1.81,3.31-2.8a62.9,62.9,0,0,0,11.2-13.1,26.23,26.23,0,0,0,3.34-7.71c.09-.7.25-1.33.31-2l.17-2.17c.06-.71.06-1.43.09-2.15s0-1.44,0-2.16a42.51,42.51,0,0,0-.94-8.52,28.23,28.23,0,0,0-1.15-4.07c-.24-.67-.51-1.32-.8-1.94a14.18,14.18,0,0,0-1-1.75l-.08-.1,0-.1c-.22-.42-.53-1-.85-1.45s-.67-1-1-1.46a35.36,35.36,0,0,0-2.33-2.73,42.85,42.85,0,0,0-5.43-4.8,54.51,54.51,0,0,0-6.09-4,29,29,0,0,0-6.55-2.91,29.45,29.45,0,0,0-14.14-.71c-.6.12-1.18.25-1.75.41s-1.15.31-1.72.49l-3.58,1.08a70.47,70.47,0,0,1-7.28,2,80,80,0,0,1-30,1.4c-9.31-1.59-18.41-4.83-26.07-10.71a64,64,0,0,1-2,6.1,61.72,61.72,0,0,1-3.62,7.62,48.18,48.18,0,0,1-10.55,13.16,38.44,38.44,0,0,1-7,4.84,30.1,30.1,0,0,1-8.06,3.05,17.54,17.54,0,0,1-4.47.32,13.11,13.11,0,0,1-4.47-1.11,12.34,12.34,0,0,1-6.13-6.67,16.72,16.72,0,0,1-1-8.85,12.6,12.6,0,0,1,1.47-4.35,6.42,6.42,0,0,1,.65-1,7.18,7.18,0,0,1,.81-.94,11.86,11.86,0,0,1,.93-.8l.71-.59a40.9,40.9,0,0,0,9.7-12.52,38.58,38.58,0,0,0,4-15.27,40.15,40.15,0,0,0-2.43-15.63c-.43-1.26-1-2.46-1.55-3.68s-1.2-2.35-1.91-3.48a39.82,39.82,0,0,0-4.78-6.33,40.72,40.72,0,0,0-5.94-5.27,42,42,0,0,0-6.87-4c-.61-.28-1.23-.51-1.84-.77l-.92-.38-1-.32-1.89-.62c-.68-.21-1.35-.4-2-.63a65.68,65.68,0,0,1-7.81-3.21,64.33,64.33,0,0,1-14-9.34,58.83,58.83,0,0,1-5.94-6l-2.72-3.21a18.82,18.82,0,0,1-1.27-1.67l-1.23-1.71-1.22-1.71c-.4-.57-.75-1.18-1.12-1.77-.71-1.22-1.48-2.39-2.16-3.62l-1.94-3.73c-.65-1.24-1.14-2.56-1.72-3.83a84.88,84.88,0,0,1-5-16,74.47,74.47,0,0,1-1.57-16.79c0-.64,0-1.19,0-1.78s.07-1.26.13-1.87c.1-1,.23-2.06.39-3.09a58.64,58.64,0,0,0-7.36-9.69,52,52,0,0,0-9.69-8.1,46.52,46.52,0,0,0-11.37-5.3,47.78,47.78,0,0,0-12.42-1.84h-.4c-8.32.29-16.62,2.48-23.31,7.27a39.08,39.08,0,0,0-14.3,20.14c-.31,1-.59,2-.83,3q-.16.77-.3,1.5l-.22,1.58a59.51,59.51,0,0,0-.6,6.35,45.53,45.53,0,0,0,1.18,12.55,39.39,39.39,0,0,0,13,21,46.51,46.51,0,0,0,10.58,6.84c1,.45,1.92.87,2.89,1.23l.71.26.42.15.43.16c.55.2,1.07.44,1.61.69a22.22,22.22,0,0,1,5.81,3.93,13.77,13.77,0,0,1,3.83,6.21,13.21,13.21,0,0,1-.1,7.3,13.43,13.43,0,0,1-3.7,6.3,15.8,15.8,0,0,1-6.26,3.55,17.78,17.78,0,0,1-7.09.85,13,13,0,0,1-3.6-.83c-1-.4-2.06-.81-3.08-1.25-4.07-1.74-8-3.71-11.88-5.83-1-.52-1.93-1.07-2.88-1.62l-.72-.42-.36-.22-.22-.14-.17-.12-1.39-1c-1.81-1.3-3.55-2.68-5.24-4.15a72.33,72.33,0,0,1-8-8.18l-1.39,1.48c-.45.47-.9,1-1.34,1.43l-1.46,1.3c-1,.87-1.94,1.76-3,2.6l-3.11,2.39a84.41,84.41,0,0,1-13.39,8A106.57,106.57,0,0,1,951,185.13c-2.47.75-5,1.46-7.5,2.05s-5,1.1-7.7,1.49l-1.77.25v-.19c-1.36,0-2.68,0-4,0-1.89-.09-3.76-.28-5.62-.54a70.2,70.2,0,0,1-11-2.41,71.92,71.92,0,0,1-20.18-9.86,74.31,74.31,0,0,1-26.93-35.29c-.36-.86-.61-1.78-.89-2.67l-.83-2.69-.68-2.73-.35-1.36-.26-1.39a71,71,0,0,1-1.38-11.18c-.05-.94-.05-1.89-.06-2.83l0-1.43,0-.73c0-.23,0-.47.07-.85.14-.88.27-1.78.36-2.65a11.14,11.14,0,0,0,.1-1.21v-.09l-.22-.58a63.56,63.56,0,0,0-4.91-9.48,60.08,60.08,0,0,0-6.47-8.52,49,49,0,0,0-8-7,12.13,12.13,0,0,0-1.19-.7,24,24,0,0,0-22.37,0,11.89,11.89,0,0,0-1.18.7,49,49,0,0,0-8,7,60.77,60.77,0,0,0-6.46,8.52,63.62,63.62,0,0,0-4.92,9.48l-.22.58v.09c0,.35.06.79.11,1.21.08.87.21,1.77.36,2.65,0,.38.05.62.07.85l0,.73,0,1.43c0,.94,0,1.89-.06,2.83a69.87,69.87,0,0,1-1.39,11.18l-.26,1.39L797,132.5l-.68,2.73-.82,2.69c-.29.89-.54,1.81-.9,2.67a74.29,74.29,0,0,1-26.92,35.29,72,72,0,0,1-20.19,9.86,70.08,70.08,0,0,1-11,2.41c-1.87.26-3.73.45-5.63.54-1.33.07-2.64.08-4,0v.19l-1.78-.25c-2.66-.39-5.16-.88-7.69-1.49s-5-1.3-7.51-2.05a105.93,105.93,0,0,1-14.47-5.73,84.86,84.86,0,0,1-13.39-8L678.89,169c-1-.84-2-1.73-2.94-2.6l-1.47-1.3c-.45-.47-.9-1-1.34-1.43l-1.39-1.48a73.27,73.27,0,0,1-8.06,8.18c-1.69,1.47-3.42,2.85-5.23,4.15l-1.39,1-.17.12-.22.14-.36.22-.72.42c-1,.55-1.91,1.1-2.88,1.62-3.86,2.12-7.81,4.09-11.87,5.83-1,.44-2,.85-3.1,1.25a12.9,12.9,0,0,1-3.6.83,17.73,17.73,0,0,1-7.08-.85,15.9,15.9,0,0,1-6.27-3.55A14.28,14.28,0,0,1,617,168a13.86,13.86,0,0,1,3.83-6.21,22.27,22.27,0,0,1,5.82-3.93c.53-.25,1.05-.49,1.6-.69l.44-.16.41-.15.71-.26c1-.36,1.94-.78,2.9-1.23a46.51,46.51,0,0,0,10.58-6.84,39.53,39.53,0,0,0,13-21,46.3,46.3,0,0,0,1.17-12.55,59.54,59.54,0,0,0-.61-6.35l-.21-1.58c-.09-.49-.19-1-.31-1.5-.23-1-.52-2-.82-3a39.13,39.13,0,0,0-14.3-20.14c-6.7-4.79-15-7-23.31-7.27h-.41A47.84,47.84,0,0,0,605.1,76.9a46.45,46.45,0,0,0-11.36,5.3,51.4,51.4,0,0,0-9.69,8.1,58.64,58.64,0,0,0-7.36,9.69c.16,1,.29,2.05.39,3.09.06.61.1,1.23.13,1.87s0,1.14,0,1.78a74.48,74.48,0,0,1-1.58,16.79,84.15,84.15,0,0,1-5,16c-.58,1.27-1.07,2.59-1.72,3.83L567,147.1c-.68,1.23-1.44,2.4-2.15,3.62-.38.59-.71,1.2-1.13,1.77l-1.21,1.71-1.23,1.71a18.93,18.93,0,0,1-1.28,1.67l-2.71,3.21a60,60,0,0,1-6,6,64,64,0,0,1-14,9.34,66.37,66.37,0,0,1-7.81,3.21c-.65.23-1.33.42-2,.63l-1.9.62-.95.32-.93.38c-.6.26-1.22.49-1.83.77a41.56,41.56,0,0,0-6.87,4,40.21,40.21,0,0,0-5.94,5.27,39.29,39.29,0,0,0-4.79,6.33c-.71,1.13-1.3,2.31-1.91,3.48a39.13,39.13,0,0,0-1.53,3.68,39.79,39.79,0,0,0-2.44,15.63,38.24,38.24,0,0,0,4,15.27,40.6,40.6,0,0,0,9.7,12.52l.71.59a11.71,11.71,0,0,1,.92.8,7.18,7.18,0,0,1,.81.94,7.37,7.37,0,0,1,.67,1,12.79,12.79,0,0,1,1.46,4.35,16.82,16.82,0,0,1-1,8.85,12.38,12.38,0,0,1-6.13,6.67,13.23,13.23,0,0,1-4.47,1.11,17.5,17.5,0,0,1-4.47-.32,30.3,30.3,0,0,1-8.07-3.05,38.36,38.36,0,0,1-7-4.84A48.22,48.22,0,0,1,475,251.14a61.66,61.66,0,0,1-3.61-7.62,64,64,0,0,1-2-6.1c-7.67,5.88-16.76,9.12-26.07,10.71a80,80,0,0,1-30-1.4,70.65,70.65,0,0,1-7.29-2l-3.57-1.08c-.58-.18-1.14-.36-1.72-.49s-1.16-.29-1.75-.41a29.45,29.45,0,0,0-14.14.71,28.79,28.79,0,0,0-6.55,2.91,53.61,53.61,0,0,0-6.09,4,44.37,44.37,0,0,0-5.44,4.8,35.36,35.36,0,0,0-2.33,2.73c-.36.48-.7.95-1,1.46a14.57,14.57,0,0,0-.85,1.45l-.05.1-.07.1a14.18,14.18,0,0,0-1,1.75,19.71,19.71,0,0,0-.8,1.94,28.26,28.26,0,0,0-1.16,4.07,42.5,42.5,0,0,0-.92,8.52c0,.72,0,1.43,0,2.16s0,1.44.08,2.15l.18,2.17c.06.71.21,1.34.3,2a26.77,26.77,0,0,0,3.34,7.71,63,63,0,0,0,11.21,13.1c1.07,1,2.17,1.88,3.31,2.8a14.82,14.82,0,0,1,3.2,3.5,15,15,0,0,1,2.45,9,14,14,0,0,1-3.71,8.62,10.86,10.86,0,0,1-4.07,2.66,12.41,12.41,0,0,1-4.72.74,23.71,23.71,0,0,1-8.91-2.2,30.06,30.06,0,0,1-7.62-5,51.14,51.14,0,0,1-10.8-14.27,82,82,0,0,1-6.08-15.06,35.81,35.81,0,0,1-5.17,3.57c-.59.36-1.19.66-1.79,1s-1.21.64-1.84.91l-1.64.73a15.08,15.08,0,0,1-1.82.74,63.72,63.72,0,0,1-15.12,3.67c-2.59.2-5.18.51-7.77.45h-1.95a15.71,15.71,0,0,1-1.94,0l-3.87-.23c-1.31,0-2.58-.28-3.86-.42l-3.85-.51a49.8,49.8,0,0,1-7.59-1.88l-1.85-.63-1.81-.74c-1.23-.45-2.37-1.08-3.56-1.63a54.86,54.86,0,0,1-6.66-4.1,62.45,62.45,0,0,1-11.4-10.57A81.34,81.34,0,0,1,244.37,275a83.54,83.54,0,0,1-6-13,43.39,43.39,0,0,1-6.7,4.1,42.24,42.24,0,0,1-8.44,3.2,44,44,0,0,1-8.9,1.49,39.53,39.53,0,0,1-9-.33,31.67,31.67,0,0,1-6-.75,23.28,23.28,0,0,1-5.78-2.13,12.8,12.8,0,0,1-4.71-4.16,11.39,11.39,0,0,1-1.83-6,13.73,13.73,0,0,1,1.1-6.16,14.52,14.52,0,0,1,3.65-5.06,15.16,15.16,0,0,1,11.56-3.8,44.26,44.26,0,0,0,11.72-.52,42.18,42.18,0,0,0,11.16-3.58,37.54,37.54,0,0,0,16.7-16,34.43,34.43,0,0,0-.52-33.75,44.74,44.74,0,0,0-7.26-9.27,55.12,55.12,0,0,0-9.18-7.42,39.19,39.19,0,0,0-10.67-4.93,30.8,30.8,0,0,0-11.66-1,34.24,34.24,0,0,0-11.26,3.28,39.2,39.2,0,0,0-17.08,15.84,44.21,44.21,0,0,0-2.64,5.29c-.76,1.82-1.51,3.7-2.33,5.52a70.47,70.47,0,0,1-5.89,10.44,64.52,64.52,0,0,1-16.81,16.95,69.17,69.17,0,0,1-21.74,9.86q-2.9.76-5.87,1.25c-1,.15-2,.3-3,.39s-2,.07-3,.1l-3,0-3-.13c-2,0-4-.32-6-.48a74.24,74.24,0,0,1-11.71-2.43,64.82,64.82,0,0,1-11.09-4.44,61.52,61.52,0,0,1-29.9-35.78,61.5,61.5,0,0,0,30,35.57,66.23,66.23,0,0,0,11.08,4.36,72.24,72.24,0,0,0,11.67,2.35c7.89.79,16,1,23.62-1.26a70.39,70.39,0,0,0,11.19-4,65.32,65.32,0,0,0,10.33-5.87,63.87,63.87,0,0,0,16.6-16.83,71.57,71.57,0,0,0,5.78-10.37c.81-1.82,1.54-3.64,2.3-5.51a45.06,45.06,0,0,1,2.68-5.39A40.09,40.09,0,0,1,192,168.44,35.16,35.16,0,0,1,203.52,165a31.86,31.86,0,0,1,12,1,40.33,40.33,0,0,1,10.94,5,56,56,0,0,1,9.4,7.53,46.58,46.58,0,0,1,7.46,9.46,35.59,35.59,0,0,1,.66,34.87,38.85,38.85,0,0,1-17.2,16.59,43.91,43.91,0,0,1-11.51,3.73,45.75,45.75,0,0,1-12.09.59,13.72,13.72,0,0,0-10.46,3.47,12.67,12.67,0,0,0-4.23,10.07,10.62,10.62,0,0,0,.45,2.76,8.69,8.69,0,0,0,1.16,2.49,11.44,11.44,0,0,0,4.18,3.64,25.87,25.87,0,0,0,11.15,2.66h.07l.07,0a39.59,39.59,0,0,0,8.65.27,42.23,42.23,0,0,0,8.57-1.47,40.8,40.8,0,0,0,8.11-3.11,43.6,43.6,0,0,0,7.35-4.65l1-.72.39,1.14a84.76,84.76,0,0,0,14.94,26.26,61.28,61.28,0,0,0,11.09,10.26,52.22,52.22,0,0,0,6.45,3.91c1.14.52,2.24,1.15,3.41,1.58l1.75.71,1.79.61a50.49,50.49,0,0,0,7.3,1.79l3.78.48c1.25.14,2.51.36,3.77.4l3.8.22a15,15,0,0,0,1.9,0l1.89,0a70.67,70.67,0,0,0,7.56-.45,61.77,61.77,0,0,0,14.65-3.58,17.61,17.61,0,0,0,1.74-.71l.87-.39c.6-.27,1.57-.74,2.15-1s1.37-.7,2-1.1a30.63,30.63,0,0,0,6-4.34l1.27-1.18.45,1.64a77.26,77.26,0,0,0,6.39,16.11A48.74,48.74,0,0,0,355,325.23a27.18,27.18,0,0,0,7.09,4.61,21.41,21.41,0,0,0,8.08,2,9.39,9.39,0,0,0,7.19-2.75,11.87,11.87,0,0,0,3.09-7.26,12.6,12.6,0,0,0-2.13-7.68,12.37,12.37,0,0,0-2.71-3c-1.15-.91-2.35-1.88-3.43-2.88a65.64,65.64,0,0,1-11.66-13.58,28.67,28.67,0,0,1-3.63-8.4c-.11-.77-.3-1.56-.36-2.31l-.18-2.25c-.06-.73-.06-1.48-.09-2.24s0-1.49,0-2.24a44.63,44.63,0,0,1,1-9,30.83,30.83,0,0,1,1.24-4.39c.26-.71.55-1.43.87-2.13a15.28,15.28,0,0,1,1.1-2,15.85,15.85,0,0,1,1-1.7c.36-.55.73-1.07,1.13-1.59a33.09,33.09,0,0,1,2.48-2.93,47.25,47.25,0,0,1,5.71-5.08,57.45,57.45,0,0,1,6.35-4.18,31.66,31.66,0,0,1,22.36-3.93c.63.12,1.25.25,1.88.42s1.24.35,1.86.54l3.56,1.07a72.09,72.09,0,0,0,7.1,1.9,77.7,77.7,0,0,0,29.09,1.31,66.37,66.37,0,0,0,14-4c1.1-.52,2.23-1,3.31-1.53s2.16-1.09,3.19-1.74l1.54-1c.51-.32,1-.67,1.49-1a29.1,29.1,0,0,0,2.78-2.16l1.69-1.52.51,2.19a52.86,52.86,0,0,0,2.43,7.64,58.37,58.37,0,0,0,3.47,7.27,46.08,46.08,0,0,0,10,12.44,36.42,36.42,0,0,0,6.54,4.48,27.13,27.13,0,0,0,7.32,2.76,14.32,14.32,0,0,0,3.74.26,10,10,0,0,0,3.49-.86,9.58,9.58,0,0,0,4.72-5.22,14,14,0,0,0,.83-7.35,10.25,10.25,0,0,0-1.14-3.41,4.42,4.42,0,0,0-.48-.71,3.25,3.25,0,0,0-.54-.62,4.78,4.78,0,0,0-.63-.55c-.36-.29-.58-.48-.87-.73a43.51,43.51,0,0,1-10.41-13.37,41.3,41.3,0,0,1-4.3-16.41,43.39,43.39,0,0,1,2.58-16.78c.46-1.34,1.05-2.63,1.63-3.93s1.29-2.54,2.05-3.74a40.55,40.55,0,0,1,5.14-6.81,42.85,42.85,0,0,1,6.37-5.67,45.22,45.22,0,0,1,7.38-4.27c.65-.3,1.32-.55,2-.82l1-.41,1-.33,2-.67c.63-.21,1.28-.39,1.92-.62a61.64,61.64,0,0,0,7.43-3,60.92,60.92,0,0,0,13.36-8.91,56.7,56.7,0,0,0,5.68-5.71l2.61-3.09a18.79,18.79,0,0,0,1.21-1.61l1.19-1.65,1.17-1.64c.39-.55.71-1.15,1.07-1.71.69-1.16,1.42-2.3,2.08-3.47l1.85-3.59c.62-1.2,1.1-2.47,1.67-3.7a82.08,82.08,0,0,0,4.75-15.44c.26-1.32.52-2.65.7-4s.37-2.67.5-4a61.64,61.64,0,0,0,.32-8v-.15c0-.5,0-1.11,0-1.68h0c-.07-1.28-.22-2.54-.38-3.8l-.26-2,.26-.46a61.24,61.24,0,0,1,8-10.65,54.73,54.73,0,0,1,10.24-8.59,50.17,50.17,0,0,1,12.16-5.69A50.82,50.82,0,0,1,616,72v-.16l1.57,0a51.87,51.87,0,0,1,13.29,2A40.72,40.72,0,0,1,643,79.79a36.75,36.75,0,0,1,5.18,4.4,38.78,38.78,0,0,1,4.34,5.22,45.54,45.54,0,0,1,6,12.11c.33,1.07.64,2.17.9,3.27.13.56.23,1.11.33,1.71l.25,1.66a63.43,63.43,0,0,1,.62,6.65,48.56,48.56,0,0,1-1.25,13.41,42.78,42.78,0,0,1-14,22.7,49.92,49.92,0,0,1-11.3,7.31c-1,.48-2.06.92-3.13,1.33l-.83.29-.34.12-.35.13c-.46.19-.93.39-1.39.61a19,19,0,0,0-5,3.35,10.56,10.56,0,0,0-3,4.76,10.42,10.42,0,0,0,.1,5.59,10.58,10.58,0,0,0,2.84,4.85,12.89,12.89,0,0,0,5,2.8,14.62,14.62,0,0,0,5.8.71,10.35,10.35,0,0,0,2.76-.63c1-.39,2-.78,3-1.22a128.22,128.22,0,0,0,11.59-5.7c.94-.52,1.88-1,2.8-1.59l.7-.4.34-.2.13-.08.16-.11,1.26-.91q2.6-1.89,5-4a69.79,69.79,0,0,0,8.83-9.2l1.17-1.47,1.35,1.42,2.56,2.72,1.27,1.35,1.4,1.25c.94.82,1.84,1.68,2.81,2.47l3,2.27a79.7,79.7,0,0,0,12.88,7.69,100.94,100.94,0,0,0,14,5.53c2.42.73,4.85,1.43,7.29,2s4.89,1.07,7.27,1.41h0a42.07,42.07,0,0,0,5.27,0c1.77-.09,3.55-.26,5.33-.52a65.53,65.53,0,0,0,10.48-2.31,68.5,68.5,0,0,0,19.24-9.4,71,71,0,0,0,25.66-33.71,25.29,25.29,0,0,0,.86-2.54l.79-2.58.65-2.62.32-1.3.26-1.31a68.68,68.68,0,0,0,1.32-10.67c0-.89,0-1.78,0-2.68l0-1.31-.07-1.18c-.14-.92-.27-1.85-.39-2.8,0-.49-.1-1-.11-1.55,0-.13,0-.32,0-.5a3.89,3.89,0,0,1,.1-.54c.05-.12.07-.19.09-.25l.26-.67a65.37,65.37,0,0,1,5.19-10,62.69,62.69,0,0,1,6.84-9,51,51,0,0,1,8.57-7.48,42,42,0,0,1,10.26-5.1,34,34,0,0,1,4.22-1.1l.22.13h0a6.7,6.7,0,0,0,.71.35c.19.07.37.14.58.2a8.3,8.3,0,0,0,1.93.3l.12,0a42.06,42.06,0,0,1,10.54,5.2,51.46,51.46,0,0,1,8.58,7.48,62.69,62.69,0,0,1,6.84,9,67.19,67.19,0,0,1,5.19,10l.26.67a2.15,2.15,0,0,0,.08.25,2.82,2.82,0,0,1,.1.54c0,.18,0,.37,0,.5,0,.59-.07,1.06-.12,1.55-.11,1-.24,1.88-.39,2.8l-.07,1.18v1.31c0,.9,0,1.79,0,2.68a67.49,67.49,0,0,0,1.32,10.67l.26,1.31.31,1.3.65,2.62.8,2.58c.26.85.51,1.72.85,2.54a71.09,71.09,0,0,0,25.67,33.71,68.58,68.58,0,0,0,19.23,9.4,66,66,0,0,0,10.48,2.31c1.78.26,3.56.43,5.34.52a41.91,41.91,0,0,0,5.26,0h0c2.39-.34,4.88-.83,7.28-1.41s4.87-1.26,7.28-2a100.44,100.44,0,0,0,14-5.53,79.37,79.37,0,0,0,12.89-7.69l3-2.27c1-.79,1.86-1.65,2.8-2.47l1.41-1.25,1.27-1.35,2.56-2.72,1.34-1.42,1.17,1.47a70.52,70.52,0,0,0,8.84,9.2c1.62,1.39,3.28,2.72,5,4l1.27.91.14.11.13.08.35.2.69.4c.93.55,1.87,1.07,2.81,1.59,3.77,2.09,7.65,4,11.58,5.7,1,.44,2,.83,3,1.22a10.26,10.26,0,0,0,2.76.63,14.64,14.64,0,0,0,5.8-.71,13,13,0,0,0,5-2.8,10.48,10.48,0,0,0,2.83-4.85,10.23,10.23,0,0,0,.1-5.59,10.54,10.54,0,0,0-3-4.76,18.93,18.93,0,0,0-5-3.35c-.46-.22-.92-.42-1.38-.61l-.35-.13-.35-.12-.82-.29c-1.07-.41-2.11-.85-3.14-1.33a50.08,50.08,0,0,1-11.29-7.31,42.73,42.73,0,0,1-14-22.7,48.94,48.94,0,0,1-1.24-13.41,63.43,63.43,0,0,1,.62-6.65l.25-1.66c.1-.6.2-1.15.33-1.71.26-1.1.56-2.2.89-3.27a45.27,45.27,0,0,1,6-12.11,38,38,0,0,1,4.33-5.22,37.33,37.33,0,0,1,5.18-4.4A40.77,40.77,0,0,1,1030,74a51.8,51.8,0,0,1,13.28-2l1.58,0V72a45.67,45.67,0,0,1,23.92,7.58A54.66,54.66,0,0,1,1079,88.21a60.74,60.74,0,0,1,8,10.65l.28.46-.23,1.43c-.15,1-.26,1.92-.33,2.89,0,.49-.07,1-.09,1.45s-.05,1.18-.05,1.68l0,.06,0,.09a63.47,63.47,0,0,0,.32,8c.13,1.35.28,2.68.51,4s.43,2.66.69,4a82.11,82.11,0,0,0,4.76,15.44c.56,1.23,1,2.5,1.66,3.7l1.85,3.59c.67,1.17,1.39,2.31,2.09,3.47.36.56.68,1.16,1.07,1.71l1.17,1.64,1.18,1.65a18.91,18.91,0,0,0,1.22,1.61l2.6,3.09a58.88,58.88,0,0,0,5.68,5.71,60.65,60.65,0,0,0,20.8,12c.63.23,1.28.41,1.92.62l2,.67,1,.33,1,.41c.65.27,1.32.52,2,.82a45.56,45.56,0,0,1,7.37,4.27,42.92,42.92,0,0,1,6.38,5.67,41,41,0,0,1,5.13,6.81c.77,1.2,1.4,2.48,2,3.74s1.18,2.59,1.64,3.93a43.38,43.38,0,0,1,2.57,16.78,41.28,41.28,0,0,1-4.29,16.41,43.67,43.67,0,0,1-10.41,13.37c-.29.25-.51.44-.87.73a4.87,4.87,0,0,0-.64.55,2.89,2.89,0,0,0-.53.62,3.85,3.85,0,0,0-.48.71,10,10,0,0,0-1.14,3.41,14.07,14.07,0,0,0,.82,7.35,9.6,9.6,0,0,0,4.73,5.22,9.84,9.84,0,0,0,3.49.86,14.35,14.35,0,0,0,3.74-.26,27.25,27.25,0,0,0,7.32-2.76,36.7,36.7,0,0,0,6.53-4.48,46.3,46.3,0,0,0,10-12.44,61.35,61.35,0,0,0,3.47-7.27,54.13,54.13,0,0,0,2.43-7.64l.5-2.19,1.7,1.52a30.23,30.23,0,0,0,2.77,2.16c.49.35,1,.7,1.49,1l1.55,1c1,.65,2.12,1.16,3.18,1.74s2.21,1,3.31,1.53a66.37,66.37,0,0,0,14,4,77.76,77.76,0,0,0,29.1-1.31,72.09,72.09,0,0,0,7.1-1.9l3.55-1.07c.63-.19,1.23-.4,1.87-.54s1.24-.3,1.88-.42a31.85,31.85,0,0,1,15.33.8,32.65,32.65,0,0,1,7,3.13,56.28,56.28,0,0,1,6.33,4.18,45.78,45.78,0,0,1,5.71,5.08,35,35,0,0,1,2.49,2.93c.39.52.77,1,1.13,1.59a15.85,15.85,0,0,1,1,1.7,15.28,15.28,0,0,1,1.1,2c.31.7.6,1.42.86,2.13a32.24,32.24,0,0,1,1.25,4.39,45.35,45.35,0,0,1,.95,9c0,.75,0,1.49,0,2.24s0,1.51-.09,2.24l-.19,2.25c-.06.75-.23,1.54-.36,2.31a28.41,28.41,0,0,1-3.63,8.4,65.29,65.29,0,0,1-11.65,13.58c-1.09,1-2.29,2-3.43,2.88a12.41,12.41,0,0,0-2.72,3,12.66,12.66,0,0,0-2.12,7.68,11.76,11.76,0,0,0,3.09,7.26,9.37,9.37,0,0,0,7.19,2.75,21.41,21.41,0,0,0,8.08-2,27.13,27.13,0,0,0,7.08-4.61,48.58,48.58,0,0,0,10.39-13.68,77.82,77.82,0,0,0,6.39-16.11l.45-1.64,1.27,1.18a30.87,30.87,0,0,0,6,4.34c.65.4,1.33.75,2,1.1s1.55.77,2.15,1l.88.39a17.44,17.44,0,0,0,1.73.71,61.77,61.77,0,0,0,14.65,3.58,70.83,70.83,0,0,0,7.56.45l1.9,0a14.87,14.87,0,0,0,1.89,0l3.8-.22c1.26,0,2.52-.26,3.78-.4l3.77-.48a50.49,50.49,0,0,0,7.3-1.79l1.8-.61,1.75-.71c1.17-.43,2.27-1.06,3.41-1.58a52.22,52.22,0,0,0,6.45-3.91,61.61,61.61,0,0,0,11.09-10.26,80.81,80.81,0,0,0,8.66-12.46,82.77,82.77,0,0,0,6.28-13.8l.39-1.14,1,.72a43.51,43.51,0,0,0,7.34,4.65,41.27,41.27,0,0,0,8.11,3.11,42.32,42.32,0,0,0,8.58,1.47,39.61,39.61,0,0,0,8.65-.27l.07,0h.07a25.91,25.91,0,0,0,11.15-2.66,11.52,11.52,0,0,0,4.18-3.64,8.41,8.41,0,0,0,1.15-2.49,10.21,10.21,0,0,0,.45-2.76,12.66,12.66,0,0,0-4.22-10.07,13.74,13.74,0,0,0-10.47-3.47,45.79,45.79,0,0,1-12.09-.59,44,44,0,0,1-11.51-3.73,38.78,38.78,0,0,1-17.19-16.59,35.64,35.64,0,0,1,.65-34.87,46.58,46.58,0,0,1,7.46-9.46,56.76,56.76,0,0,1,9.4-7.53,40.39,40.39,0,0,1,11-5,31.81,31.81,0,0,1,12-1,35,35,0,0,1,11.54,3.41,40.06,40.06,0,0,1,17.37,16.23,43.55,43.55,0,0,1,2.67,5.39c.77,1.87,1.49,3.69,2.3,5.51a71.63,71.63,0,0,0,5.79,10.37,63.72,63.72,0,0,0,16.6,16.83,65.67,65.67,0,0,0,10.32,5.87,70.39,70.39,0,0,0,11.19,4c7.67,2.25,15.73,2.05,23.63,1.26a72.45,72.45,0,0,0,11.67-2.35,66.57,66.57,0,0,0,11.08-4.36A61.54,61.54,0,0,0,1611.45,191.64Z"/><path class="cls-24" d="M1660.82,199.62l-.12.06a27.83,27.83,0,0,1-6.19,1.75,42.78,42.78,0,0,1-6.39.6,57.57,57.57,0,0,1-12.77-1.25l-3.14-.7-3.08-.9-1.54-.44-1.51-.55-3-1.1c-2-.78-3.93-1.69-5.9-2.53l-5.71-2.92,5.73,2.89c2,.82,3.91,1.72,5.91,2.5l3,1.07,1.51.55,1.54.43,3.08.89,3.14.68a58.5,58.5,0,0,0,12.73,1.2,45.11,45.11,0,0,0,6.36-.66,26.15,26.15,0,0,0,6-1.72l-9.58-25.14c-1.29.14-2.58.36-3.88.43l-2,.06c-.34,0-.68,0-1,0l-1-.07c-.68-.06-1.36-.09-2-.16l-2-.36a33.71,33.71,0,0,1-3.93-1.1,27.08,27.08,0,0,1-7.2-3.83,24.86,24.86,0,0,1-5.79-5.79,56.78,56.78,0,0,1-6.94-11,41.38,41.38,0,0,1-3.74-12.51,35.94,35.94,0,0,1,.7-13,34,34,0,0,1,5-11.31l-29.64-.49a15,15,0,0,0-3.3,6.06,33.57,33.57,0,0,0-1.23,7.13,47.48,47.48,0,0,0,1.2,14.45,55.61,55.61,0,0,0,2.17,7,62,62,0,0,1,2.13,7.08,49.86,49.86,0,0,1,1.33,14.76,35.92,35.92,0,0,1-4,14.29,34.41,34.41,0,0,1-4.12,6.22,39.91,39.91,0,0,1-5.31,5.25,57.18,57.18,0,0,1-6,4.31,46.56,46.56,0,0,1-6.66,3.34,38.62,38.62,0,0,1-7.15,2.11,36.71,36.71,0,0,1-7.47.55,36.18,36.18,0,0,1-14.43-3.66,37.6,37.6,0,0,1-6.37-3.92,17.84,17.84,0,0,1-1.48-1.23l-1.24-1.39-1.24-1.4-1.18-1.45c-.39-.47-.79-.95-1.15-1.44l-1.09-1.52c-.75-1-1.37-2.07-2-3.11s-1.21-2.18-1.83-3.27l-.78-1.69a17.46,17.46,0,0,1-.74-1.72l-.67-1.75-.56-1.79-.27-.9-.21-.91c-.14-.61-.3-1.21-.42-1.82a36.84,36.84,0,0,1-.6-7.48,39.66,39.66,0,0,1,3.25-14.56,56.32,56.32,0,0,1,7.68-12.74c1.54-1.95,3.18-3.8,4.9-5.59.9-.89,1.65-1.77,2.41-2.65.34-.46.64-.95,1-1.43a15.64,15.64,0,0,0,.77-1.53,3.59,3.59,0,0,0,.27-.8l.22-.81a15.65,15.65,0,0,0,.2-1.66,9.8,9.8,0,0,0-.58-3.3,11.73,11.73,0,0,0-1.56-3,14.55,14.55,0,0,0-2.17-2.5,25.18,25.18,0,0,0-6.72-1.82,21.31,21.31,0,0,0-7,.46c-4.61,1.1-8.72,3.85-12.23,7.11a57.77,57.77,0,0,0-9,11.35,83.46,83.46,0,0,0-6.58,13l-.36.92-.88-.35A96.76,96.76,0,0,0,1467.2,142a78.07,78.07,0,0,0-9.76-1.06,76.13,76.13,0,0,0-9.79.24,65.16,65.16,0,0,0-18.93,4.7,60.37,60.37,0,0,0-8.68,4.48,44.56,44.56,0,0,0-7.63,5.9l-.07.07-.08.06a65.57,65.57,0,0,0-7.83,7.2,77.34,77.34,0,0,0-6.74,8.3,68.41,68.41,0,0,0-5.39,9.21l-1.1,2.43c-.36.81-.64,1.65-1,2.47a33.79,33.79,0,0,0-1.55,5.05c-1.46,6.88-1,14.11.45,21.08a85.73,85.73,0,0,0,2.79,10.34,84.82,84.82,0,0,0,4,9.92l0,.14,0,.12a48.31,48.31,0,0,1,1.36,13.48,35.73,35.73,0,0,1-1,6.78,27.52,27.52,0,0,1-2.61,6.4,21.28,21.28,0,0,1-4.34,5.45l-4.9,4.52a35.75,35.75,0,0,1-11.9,6.66,47.15,47.15,0,0,1-13.36,2.33,56,56,0,0,1-13.47-1.16,40.89,40.89,0,0,1-6.56-1.92,20.69,20.69,0,0,1-3.18-1.55,19.05,19.05,0,0,1-2.77-2.21,25.44,25.44,0,0,1-6.94-11.91,65.52,65.52,0,0,0-5.12-12.77,63.33,63.33,0,0,0-7.94-11.21,65.08,65.08,0,0,0-10.35-9.05,62.92,62.92,0,0,0-12.19-6.32,61.79,61.79,0,0,0-13.34-3.21c-2.28-.16-4.56-.4-6.88-.38s-4.61.09-6.91.26a79.43,79.43,0,0,0-13.64,2.27c-2.22.58-4.44,1.28-6.59,2.07-1.1.38-2.08.84-3.25,1.26-.6.2-1.19.46-1.8.61l-1.82.45a37,37,0,0,1-14.54-.47,44.75,44.75,0,0,1-7-2,32.29,32.29,0,0,1-6.55-3.38,46.36,46.36,0,0,1-10.35-10.15,53.46,53.46,0,0,1-6.63-12.82c-.79-2.29-1.67-4.35-2.51-6.5a30.72,30.72,0,0,0-1.45-3.13c-.52-1-1-2.06-1.55-3.08l-1.77-2.93c-.32-.48-.58-1-.91-1.46l-1-1.39c-.69-.91-1.31-1.88-2-2.73l-2.24-2.61a53.15,53.15,0,0,0-10.48-8.74l-1.44-.93-1.5-.81c-1-.58-2-1-3-1.53-.51-.25-1-.44-1.58-.65a15.89,15.89,0,0,0-1.57-.61,25.38,25.38,0,0,0-3.11-.94,57,57,0,0,1-13.07-2,44.94,44.94,0,0,1-12.34-5.45,42.05,42.05,0,0,1-16.57-20.9c-.39-1.07-.74-2.14-1-3.23-.15-.57-.29-1.12-.41-1.7s-.17-1.14-.26-1.7c-.13-1.1-.31-2.2-.4-3.31l-.25-3.34a53.33,53.33,0,0,1,1-13.39,44.67,44.67,0,0,1,4.71-12.66,43.69,43.69,0,0,1,8.4-10.58A48,48,0,0,1,1136,70.67c1-.51,2-1,3.06-1.41.54-.21,1.06-.43,1.61-.62l.84-.29a6.06,6.06,0,0,0,.63-.23,12.41,12.41,0,0,0,4.69-3.33,10,10,0,0,0,2.24-5.1,14.35,14.35,0,0,0-.51-5.81,10.38,10.38,0,0,0-2.95-4.8,11.68,11.68,0,0,0-5.06-2.62,13.55,13.55,0,0,0-5.81-.07,14.64,14.64,0,0,0-2.82.88c-1,.43-2,.87-2.92,1.33-3.89,1.85-7.68,3.9-11.39,6.12-.93.55-1.84,1.11-2.75,1.69l-.68.43a6.87,6.87,0,0,0-.58.44q-.6.45-1.23,1c-1.68,1.33-3.3,2.74-4.84,4.21a72,72,0,0,0-8.48,9.57L1098,73.49l-1.36-1.34L1094,69.57l-1.33-1.3-1.45-1.19c-1-.77-1.91-1.58-2.89-2.34l-3.07-2.11a77.09,77.09,0,0,0-13.2-7A97.72,97.72,0,0,0,1057.82,51c-2.42-.58-4.88-1.11-7.36-1.52s-4.93-.72-7.31-.89h-.07a48.13,48.13,0,0,0-6.94.36,66.1,66.1,0,0,0-7,1.23,67.44,67.44,0,0,0-13.33,4.55c-1.08.46-2.09,1.07-3.15,1.59l-1.56.81c-.51.29-1,.61-1.51.91-1,.62-2,1.22-3,1.87L1003.77,62c-.46.34-1,.66-1.41,1.05L1001,64.17c-.88.75-1.79,1.51-2.67,2.29l-2.5,2.48-1.26,1.26c-.42.41-.78.88-1.17,1.32A59.8,59.8,0,0,0,989,77c-.66,1-1.37,1.9-2,2.88l-1.8,3c-.29.52-.6,1-.88,1.53l-.77,1.58c-.5,1.07-1,2.11-1.53,3.18-.85,2.19-1.79,4.35-2.44,6.62a67.64,67.64,0,0,0-2.88,13.79c-.11,1.17-.19,2.35-.27,3.52s-.09,2.35-.09,3.53a49.37,49.37,0,0,0,.43,6.94l0,.16v.11c0,.28,0,.64,0,1l.07,1c.06.68.13,1.34.22,2l0,.45-.18.41A68.33,68.33,0,0,1,970.08,141a58.56,58.56,0,0,1-9.4,10.51,44.86,44.86,0,0,1-12,7.55,44,44,0,0,1-6.82,2.17,43.45,43.45,0,0,1-5.44.78v.17l-1.71,0a53.08,53.08,0,0,1-13.3-1.51A40.77,40.77,0,0,1,909,155.43a37.85,37.85,0,0,1-5.35-4.17,40,40,0,0,1-4.56-5,45.22,45.22,0,0,1-6.47-11.8c-.39-1.05-.76-2.11-1.06-3.21s-.56-2.27-.74-3.32-.42-2.17-.55-3.27-.27-2.21-.37-3.33a49,49,0,0,1,.61-13.39A41.94,41.94,0,0,1,895,95.25a44,44,0,0,1,3.72-5.64,49.86,49.86,0,0,1,4.52-5,52.38,52.38,0,0,1,10.86-7.86c1-.52,2-1,3-1.49.52-.23,1-.45,1.59-.67a14.17,14.17,0,0,0,1.34-.57A20.32,20.32,0,0,0,925,70.67,11.37,11.37,0,0,0,928.12,66a10,10,0,0,0,.07-5.43,10.79,10.79,0,0,0-2.61-4.89,11.38,11.38,0,0,0-4.82-2.86A15.05,15.05,0,0,0,915,52a12,12,0,0,0-2.75.5c-.81.26-1.84.77-2.79,1.2-3.86,1.8-7.64,3.82-11.33,6-.92.54-1.83,1.1-2.74,1.67l-1.36.85-.67.43-.26.19-.3.25c-1.63,1.24-3.31,2.63-4.89,4s-3.12,2.88-4.6,4.4-2.92,3.12-4.16,4.7l-1.29,1.63-1.44-1.56c-1.75-1.88-3.45-3.83-5.24-5.67L868.39,68,867,66.66c-.48-.43-1-.82-1.49-1.23l-3-2.43c-1-.81-2.08-1.49-3.12-2.23-2.06-1.54-4.33-2.73-6.51-4.07A68.64,68.64,0,0,0,838.73,51l-1.84-.51L835,50.1c-.8-.17-1.61-.3-2.42-.43-.73-.29-1.47-.56-2.21-.8-.74.25-1.47.51-2.2.8-.81.13-1.62.26-2.41.43l-1.87.39-1.83.51a68.64,68.64,0,0,0-14.17,5.7c-2.19,1.34-4.46,2.53-6.51,4.07-1,.74-2.13,1.42-3.12,2.23l-3,2.43c-.5.41-1,.8-1.49,1.23L792.43,68l-2.81,2.64c-1.79,1.84-3.48,3.79-5.23,5.67l-1.45,1.56-1.27-1.63c-1.26-1.58-2.72-3.18-4.18-4.7s-3-3-4.6-4.4-3.25-2.79-4.88-4l-.31-.25-.26-.19-.66-.43-1.36-.85c-.91-.57-1.82-1.13-2.75-1.67-3.69-2.18-7.46-4.2-11.32-6-1-.43-2-.94-2.79-1.2a12,12,0,0,0-2.75-.5,14.94,14.94,0,0,0-5.74.84,11.3,11.3,0,0,0-4.83,2.86,10.91,10.91,0,0,0-2.62,4.89,9.9,9.9,0,0,0,.09,5.43,11.32,11.32,0,0,0,3.09,4.65A20.32,20.32,0,0,0,740.72,74c.45.21.9.41,1.35.57s1.07.44,1.59.67c1,.46,2,1,3,1.49a51.85,51.85,0,0,1,10.86,7.86,50,50,0,0,1,4.53,5,43.88,43.88,0,0,1,3.71,5.64,42.23,42.23,0,0,1,4.53,12.69,49,49,0,0,1,.61,13.39c-.1,1.12-.25,2.22-.38,3.33s-.37,2.18-.55,3.27a29.17,29.17,0,0,1-.74,3.32c-.3,1.1-.66,2.16-1,3.21a45,45,0,0,1-6.48,11.8,39.79,39.79,0,0,1-9.9,9.17,40.82,40.82,0,0,1-12.4,5.29,53,53,0,0,1-13.3,1.51l-1.71,0V162a43.29,43.29,0,0,1-5.43-.78,44.09,44.09,0,0,1-6.83-2.17,45,45,0,0,1-12-7.55,59.33,59.33,0,0,1-9.4-10.51,68.9,68.9,0,0,1-6.88-12.26l-.17-.41,0-.45c.09-.68.16-1.34.22-2l.07-1c0-.32,0-.68,0-1v-.11l0-.16a52.59,52.59,0,0,0,.42-6.94c0-1.18,0-2.36-.09-3.53s-.16-2.35-.28-3.52a68.3,68.3,0,0,0-2.87-13.79c-.65-2.27-1.59-4.43-2.45-6.62-.47-1.07-1-2.11-1.53-3.18l-.77-1.58c-.27-.52-.59-1-.88-1.53l-1.79-3c-.65-1-1.36-1.92-2-2.88a59.7,59.7,0,0,0-4.39-5.52c-.39-.44-.75-.91-1.17-1.32L665,68.94l-2.51-2.48c-.88-.78-1.79-1.54-2.68-2.29L658.46,63c-.45-.39-1-.71-1.42-1.05l-2.86-2.07c-1-.65-2-1.25-3-1.87-.49-.3-1-.62-1.5-.91l-1.56-.81c-1.06-.52-2.07-1.13-3.16-1.59a67,67,0,0,0-13.33-4.55A65.91,65.91,0,0,0,624.68,49a48.2,48.2,0,0,0-6.94-.36h-.07c-2.39.17-4.89.47-7.32.89s-4.93.94-7.36,1.52a98.51,98.51,0,0,0-14.26,4.64,77.46,77.46,0,0,0-13.2,7l-3.06,2.11c-1,.76-1.93,1.57-2.9,2.34l-1.44,1.19-1.33,1.3-2.65,2.58-1.36,1.34L561.72,72a72.66,72.66,0,0,0-8.47-9.57c-1.55-1.47-3.17-2.88-4.85-4.21-.41-.34-.82-.66-1.22-1a6.87,6.87,0,0,0-.58-.44l-.68-.43c-.91-.58-1.82-1.14-2.75-1.69-3.72-2.22-7.5-4.27-11.39-6.12-1-.46-2-.9-2.93-1.33a14.64,14.64,0,0,0-2.82-.88,13.55,13.55,0,0,0-5.81.07,11.74,11.74,0,0,0-5.06,2.62,10.55,10.55,0,0,0-2.95,4.8,14.34,14.34,0,0,0-.5,5.81,9.86,9.86,0,0,0,2.24,5.1,12.45,12.45,0,0,0,4.68,3.33c.22.09.44.17.64.23l.84.29c.55.19,1.07.41,1.6.62,1,.44,2.07.9,3.07,1.41a47.69,47.69,0,0,1,11.07,7.66,43.21,43.21,0,0,1,8.4,10.58A44.69,44.69,0,0,1,549,101.57,52.86,52.86,0,0,1,550,115l-.24,3.34c-.09,1.11-.28,2.21-.41,3.31-.09.56-.13,1.08-.26,1.7s-.26,1.13-.4,1.7c-.31,1.09-.65,2.16-1,3.23A42,42,0,0,1,531,149.14a45,45,0,0,1-12.33,5.45,57.07,57.07,0,0,1-13.07,2,24.87,24.87,0,0,0-3.11.94,15.15,15.15,0,0,0-1.58.61c-.52.21-1.07.4-1.57.65-1,.49-2.07.95-3.05,1.53l-1.49.81-1.45.93a53.15,53.15,0,0,0-10.48,8.74l-2.24,2.61c-.74.85-1.36,1.82-2.06,2.73l-1,1.39c-.33.46-.59,1-.9,1.46l-1.79,2.93c-.55,1-1,2.06-1.55,3.08a28.64,28.64,0,0,0-1.44,3.13c-.84,2.15-1.72,4.21-2.52,6.5a53.42,53.42,0,0,1-6.62,12.82,46.57,46.57,0,0,1-10.35,10.15,32.29,32.29,0,0,1-6.55,3.38,44.43,44.43,0,0,1-7,2,37.07,37.07,0,0,1-14.55.47l-1.82-.45c-.61-.15-1.2-.41-1.79-.61-1.17-.42-2.16-.88-3.26-1.26-2.15-.79-4.36-1.49-6.59-2.07a79.16,79.16,0,0,0-13.63-2.27c-2.3-.17-4.6-.27-6.92-.26s-4.59.22-6.88.38a61.57,61.57,0,0,0-13.33,3.21,62.92,62.92,0,0,0-12.19,6.32,65.08,65.08,0,0,0-10.35,9.05,62.82,62.82,0,0,0-7.94,11.21,65.52,65.52,0,0,0-5.12,12.77,25.44,25.44,0,0,1-6.94,11.91,19.15,19.15,0,0,1-2.78,2.21,20.69,20.69,0,0,1-3.18,1.55,40.77,40.77,0,0,1-6.55,1.92,56,56,0,0,1-13.48,1.16A47.28,47.28,0,0,1,288.24,276a35.94,35.94,0,0,1-11.9-6.66l-4.9-4.52a21.72,21.72,0,0,1-4.34-5.45,27.93,27.93,0,0,1-2.6-6.4,35,35,0,0,1-1-6.78,48.31,48.31,0,0,1,1.36-13.48l0-.12.06-.14a91.43,91.43,0,0,0,6.78-20.26c1.39-7,1.89-14.2.43-21.08a32.62,32.62,0,0,0-1.54-5.05c-.34-.82-.61-1.66-1-2.47l-1.1-2.43a69.49,69.49,0,0,0-5.39-9.21,79.84,79.84,0,0,0-6.74-8.3,64.9,64.9,0,0,0-7.84-7.2l-.07-.06-.07-.07a45,45,0,0,0-7.64-5.9,60.26,60.26,0,0,0-8.67-4.48,65.16,65.16,0,0,0-18.93-4.7,76.17,76.17,0,0,0-9.79-.24,77.87,77.87,0,0,0-9.76,1.06,96.57,96.57,0,0,0-18.93,5.28l-.88.35-.36-.92a83.46,83.46,0,0,0-6.58-13,58.14,58.14,0,0,0-9-11.35c-3.51-3.26-7.62-6-12.23-7.11a21.33,21.33,0,0,0-7-.46,25.08,25.08,0,0,0-6.72,1.82,14.13,14.13,0,0,0-2.17,2.5,11.47,11.47,0,0,0-1.57,3,10,10,0,0,0-.57,3.3,15.65,15.65,0,0,0,.2,1.66l.23.81a2.8,2.8,0,0,0,.27.8,10.89,10.89,0,0,0,.76,1.53c.31.48.62,1,.95,1.43.77.88,1.52,1.76,2.42,2.65,1.72,1.79,3.35,3.64,4.9,5.59A57.06,57.06,0,0,1,145,152.68a39.86,39.86,0,0,1,3.25,14.56,37.58,37.58,0,0,1-.61,7.48c-.11.61-.27,1.21-.42,1.82l-.2.91-.27.9-.57,1.79-.66,1.75c-.22.59-.47,1.16-.74,1.72L144,185.3c-.62,1.09-1.16,2.22-1.82,3.27s-1.31,2.11-2.06,3.11L139,193.2c-.36.49-.77,1-1.16,1.44l-1.17,1.45-1.24,1.4-1.25,1.39a17.75,17.75,0,0,1-1.47,1.23,38.08,38.08,0,0,1-6.38,3.92,34.91,34.91,0,0,1-21.88,3.11A38.59,38.59,0,0,1,97.27,205a46.45,46.45,0,0,1-6.65-3.34,57.31,57.31,0,0,1-6.06-4.31,41.15,41.15,0,0,1-5.31-5.25,34.94,34.94,0,0,1-4.12-6.22,36.07,36.07,0,0,1-3.94-14.29,49.2,49.2,0,0,1,1.33-14.76,58.28,58.28,0,0,1,2.14-7.08,57.22,57.22,0,0,0,2.15-7A47.16,47.16,0,0,0,78,128.36a32.36,32.36,0,0,0-1.23-7.13,14.89,14.89,0,0,0-3.3-6.06l-29.64.49a34.06,34.06,0,0,1,5,11.31,36.38,36.38,0,0,1,.69,13,41.39,41.39,0,0,1-3.75,12.51,56.57,56.57,0,0,1-6.95,11,25.23,25.23,0,0,1-5.77,5.76,27.23,27.23,0,0,1-7.2,3.83,16.33,16.33,0,0,1-1.95.61,16.36,16.36,0,0,1-2,.49l-2,.36c-.68.07-1.36.1-2,.16l-1,.07c-.33,0-.68,0-1,0l-2-.06c-1.32-.07-2.6-.29-3.89-.43L.33,199.47a26.08,26.08,0,0,0,6,1.72,45,45,0,0,0,6.36.66,58.35,58.35,0,0,0,12.72-1.2l3.14-.68,3.08-.89,1.55-.43,1.5-.55,3-1.07c2-.78,3.93-1.68,5.91-2.5l5.73-2.89-5.72,2.92c-2,.84-3.9,1.75-5.9,2.53l-3,1.1-1.5.55-1.55.44-3.08.9-3.14.7A57.54,57.54,0,0,1,12.7,202a43,43,0,0,1-6.4-.6,27.75,27.75,0,0,1-6.18-1.75L0,199.62l0-.12L9.59,174l.05-.15.18,0c1.33.14,2.66.36,4,.43l2,0c.33,0,.66,0,1,0l1-.09c.66-.06,1.33-.09,2-.17l2-.37a13,13,0,0,0,2-.47c.65-.21,1.3-.34,1.92-.61a26.92,26.92,0,0,0,7.06-3.8,25.19,25.19,0,0,0,5.62-5.67l0,0a56.91,56.91,0,0,0,6.83-10.94,41.26,41.26,0,0,0,3.65-12.32,35.9,35.9,0,0,0-.74-12.78,32.94,32.94,0,0,0-5.31-11.62l-.44-.6.73,0,30.54-.62h.19l.13.13A15.8,15.8,0,0,1,77.65,121a34.17,34.17,0,0,1,1.3,7.33A48.46,48.46,0,0,1,77.78,143a56.18,56.18,0,0,1-2.17,7.08,59,59,0,0,0-2.08,7,48.69,48.69,0,0,0-1.25,14.43,35.07,35.07,0,0,0,3.88,13.84,33.57,33.57,0,0,0,4,6,41.13,41.13,0,0,0,5.16,5.06,58.57,58.57,0,0,0,5.93,4.18,42.6,42.6,0,0,0,6.49,3.22,36.3,36.3,0,0,0,6.92,2,33.49,33.49,0,0,0,21-3.06,35.91,35.91,0,0,0,6.12-3.79c.46-.36.95-.77,1.33-1.13l1.22-1.35,1.2-1.36,1.12-1.41a48.33,48.33,0,0,0,7.38-12.41l.63-1.69.52-1.72.27-.87.2-.87c.13-.59.29-1.17.39-1.76a35.79,35.79,0,0,0,.56-7.16,38.28,38.28,0,0,0-3.18-14A55,55,0,0,0,136,141c-1.5-1.89-3.11-3.71-4.8-5.45-.85-.82-1.71-1.81-2.56-2.77-.37-.52-.72-1.07-1.08-1.62a15.83,15.83,0,0,1-.87-1.75,4.21,4.21,0,0,1-.33-.94l-.26-1a16.65,16.65,0,0,1-.25-2,11.59,11.59,0,0,1,.65-3.91,13.24,13.24,0,0,1,1.78-3.47,16.41,16.41,0,0,1,2.56-2.93l.1-.09.12,0a27.47,27.47,0,0,1,7.36-2,22.64,22.64,0,0,1,7.65.49,23.73,23.73,0,0,1,7,2.94,36.07,36.07,0,0,1,6,4.59,60.19,60.19,0,0,1,9.37,11.69,84.16,84.16,0,0,1,6.4,12.46,99.45,99.45,0,0,1,18.42-5.12,83.94,83.94,0,0,1,10-1.1,82.58,82.58,0,0,1,10.07.22,67.67,67.67,0,0,1,19.53,4.8,66.14,66.14,0,0,1,9,4.61,48,48,0,0,1,8,6.15,67,67,0,0,1,8.09,7.4,81.08,81.08,0,0,1,7,8.52,60.81,60.81,0,0,1,9.38,19.91c1.58,7.32,1.05,14.84-.37,22a91.65,91.65,0,0,1-2.85,10.61,85.8,85.8,0,0,1-4,10.07A46.46,46.46,0,0,0,265.8,246a31.66,31.66,0,0,0,1,6.3,25.2,25.2,0,0,0,2.37,5.84A20,20,0,0,0,273,263l4.87,4.47A33.46,33.46,0,0,0,289,273.65a49.84,49.84,0,0,0,25.55,1,39.57,39.57,0,0,0,6.15-1.8,20.24,20.24,0,0,0,2.76-1.36,17.79,17.79,0,0,0,2.4-1.91,23.07,23.07,0,0,0,6.2-10.75,61,61,0,0,1,24.37-34.54,65.22,65.22,0,0,1,12.75-6.65,64.34,64.34,0,0,1,14-3.4c2.38-.17,4.78-.43,7.17-.42s4.77.09,7.14.26a81.4,81.4,0,0,1,14.12,2.32,71.45,71.45,0,0,1,6.85,2.14c1.11.37,2.27.89,3.31,1.27.52.16,1,.39,1.55.52l1.59.39a34.57,34.57,0,0,0,13.42-.49,43.59,43.59,0,0,0,6.52-1.94,29.17,29.17,0,0,0,5.93-3.07,42.86,42.86,0,0,0,9.64-9.51,50.41,50.41,0,0,0,6.23-12.13c.74-2.16,1.7-4.43,2.55-6.64a35.73,35.73,0,0,1,1.5-3.27c.55-1.07,1.06-2.15,1.62-3.21l1.87-3.08c.32-.52.6-1,.95-1.53l1.06-1.46c.73-1,1.39-2,2.17-2.89l2.35-2.74a57.07,57.07,0,0,1,11.07-9.26l1.53-1,1.59-.87c1-.61,2.15-1.1,3.24-1.62a39.6,39.6,0,0,1,6.95-2.43l.1,0h.13c8.51-.33,17-2.46,24.08-7a39.17,39.17,0,0,0,15.36-19.42c.36-1,.68-2,1-3,.13-.51.26-1,.36-1.5s.15-1,.23-1.54c.12-1,.31-2.11.39-3.16l.24-3.18a51.32,51.32,0,0,0-.94-12.64,42.08,42.08,0,0,0-4.39-11.77,40.15,40.15,0,0,0-7.82-9.82,45.16,45.16,0,0,0-10.37-7.17c-.95-.48-1.91-.91-2.87-1.32-.48-.2-1-.39-1.45-.56l-.71-.23c-.32-.11-.62-.22-.9-.34a15.52,15.52,0,0,1-5.88-4.18,12.81,12.81,0,0,1-2.95-6.69,17.13,17.13,0,0,1,.61-7.13,13.62,13.62,0,0,1,3.81-6.2,14.76,14.76,0,0,1,6.44-3.34,17,17,0,0,1,10.58,1c1,.44,2,.89,3,1.37,4,1.89,7.88,4,11.66,6.25.94.56,1.88,1.14,2.82,1.73l.71.45a8.41,8.41,0,0,1,.74.54c.45.34.91.69,1.33,1,1.74,1.38,3.41,2.84,5,4.38a73.66,73.66,0,0,1,7.75,8.54l1.48-1.44,1.4-1.36,1.5-1.25c1-.81,2-1.66,3-2.45L573.78,60a80.08,80.08,0,0,1,13.72-7.27,102.36,102.36,0,0,1,14.74-4.82c2.5-.59,5-1.14,7.58-1.56s5.09-.75,7.75-.95l1.69-.12v.14A62.51,62.51,0,0,1,632.33,47a70.22,70.22,0,0,1,14,4.77c1.14.48,2.21,1.1,3.31,1.65l1.65.85c.52.3,1,.64,1.57,1,1,.65,2.11,1.27,3.14,1.95l3,2.15c.49.38,1,.71,1.47,1.12l1.42,1.18c.94.81,1.9,1.59,2.81,2.4l2.61,2.6L668.61,68c.45.43.81.92,1.21,1.38a63.43,63.43,0,0,1,4.62,5.77c.7,1,1.46,2,2.12,3l1.9,3.18c.3.54.63,1.06.92,1.59l.81,1.66c.54,1.12,1.1,2.22,1.61,3.34.89,2.3,1.88,4.56,2.56,7a70.83,70.83,0,0,1,3,14.43c.12,1.23.19,2.45.29,3.68s.1,2.48.1,3.71a53.6,53.6,0,0,1-.46,7.3c0,.37,0,.69,0,1l-.07,1.1c0,.58-.1,1.13-.17,1.69a64.68,64.68,0,0,0,6.39,11.28,55,55,0,0,0,8.86,9.9,41.46,41.46,0,0,0,11.15,7,39.12,39.12,0,0,0,6.25,2,39.7,39.7,0,0,0,6.52.84l.49,0c8.21,0,16.48-1.84,23.29-6.26a38.88,38.88,0,0,0,15-19.3,32.55,32.55,0,0,0,1.64-6c.17-1,.39-2.09.52-3.13s.26-2.1.36-3.14a45.86,45.86,0,0,0-.58-12.5,39,39,0,0,0-4.16-11.66,41,41,0,0,0-3.43-5.2,44.77,44.77,0,0,0-4.2-4.62,47.2,47.2,0,0,0-10.13-7.32c-.91-.49-1.85-1-2.79-1.37-.48-.22-1-.42-1.4-.58a17.61,17.61,0,0,1-1.64-.72,23.22,23.22,0,0,1-5.78-3.92,14.61,14.61,0,0,1-4-6.08,12.31,12.31,0,0,1-.6-3.71,11.51,11.51,0,0,1,.13-1.85l.12-.93.2-.87a14.62,14.62,0,0,1,3.47-6.43A14.93,14.93,0,0,1,739,49.55a18.71,18.71,0,0,1,7-1,14.62,14.62,0,0,1,3.62.67c1.24.42,2.15.89,3.18,1.34a130.45,130.45,0,0,1,11.64,6.16c.94.55,1.88,1.12,2.8,1.69l1.41.89.69.44.39.29.33.26c1.83,1.38,3.47,2.77,5.14,4.23s3.25,3,4.8,4.58c1.07,1.11,2.08,2.24,3.09,3.43,1.33-1.48,2.66-3,4-4.37l2.92-2.75L791.5,64c.51-.45,1-.85,1.55-1.27l3.11-2.53c1.06-.84,2.18-1.55,3.27-2.33a78.46,78.46,0,0,1,6.82-4.25,71.51,71.51,0,0,1,14.93-6l2-.53,2-.41c.75-.18,1.52-.31,2.27-.42L829.1,46a12.75,12.75,0,0,1,2.62,0c.73.1,1.46.2,2.19.32s1.2.2,1.8.35l2,.41,1.95.53a71.21,71.21,0,0,1,14.92,6,80.17,80.17,0,0,1,6.83,4.25c1.08.78,2.21,1.49,3.27,2.33l3.1,2.53c.51.42,1,.82,1.55,1.27l1.45,1.37,2.92,2.75c1.37,1.42,2.7,2.89,4,4.37,1-1.19,2-2.32,3.1-3.43,1.54-1.59,3.15-3.11,4.8-4.58s3.32-2.85,5.13-4.23l.33-.26.39-.29.7-.44,1.4-.89c.93-.57,1.87-1.14,2.81-1.69A129.09,129.09,0,0,1,908,50.55a33.9,33.9,0,0,1,3.18-1.34,14.63,14.63,0,0,1,3.61-.67,18.62,18.62,0,0,1,7,1,14.87,14.87,0,0,1,6.22,3.75,14.42,14.42,0,0,1,3.47,6.43l.21.87.11.93a9.6,9.6,0,0,1,.13,1.85,12.62,12.62,0,0,1-.59,3.71,14.71,14.71,0,0,1-4,6.08,23.46,23.46,0,0,1-5.79,3.92,17.41,17.41,0,0,1-1.63.72c-.45.16-.93.36-1.4.58-.94.42-1.88.88-2.79,1.37a47.51,47.51,0,0,0-10.14,7.32,44.67,44.67,0,0,0-4.19,4.62A41,41,0,0,0,898,96.9a39.25,39.25,0,0,0-4.16,11.66,45.47,45.47,0,0,0-.58,12.5c.1,1,.24,2.08.36,3.14s.35,2.08.52,3.13a32.52,32.52,0,0,0,1.63,6,38.88,38.88,0,0,0,15,19.3c6.81,4.42,15.08,6.28,23.3,6.26l.49,0A36.79,36.79,0,0,0,947.37,156a41.57,41.57,0,0,0,11.14-7,55.42,55.42,0,0,0,8.87-9.9,65.34,65.34,0,0,0,6.39-11.28c-.06-.56-.13-1.11-.17-1.69l-.08-1.1c0-.35,0-.67,0-1a55.29,55.29,0,0,1-.47-7.3c0-1.23.06-2.48.1-3.71s.18-2.45.29-3.68a70.85,70.85,0,0,1,3-14.43c.68-2.39,1.66-4.65,2.56-7,.5-1.12,1.07-2.22,1.6-3.34l.81-1.66c.29-.53.63-1,.94-1.59l1.88-3.18c.67-1,1.42-2,2.13-3A65.09,65.09,0,0,1,991,69.36c.41-.46.77-1,1.22-1.38l1.31-1.31,2.62-2.6c.92-.81,1.86-1.59,2.8-2.4l1.42-1.18c.46-.41,1-.74,1.48-1.12l3-2.15c1-.68,2.1-1.3,3.14-1.95.54-.32,1.06-.66,1.59-1l1.64-.85c1.1-.55,2.17-1.17,3.31-1.65a70,70,0,0,1,14-4.77,62.51,62.51,0,0,1,13.07-1.64v-.14l1.69.12c2.66.2,5.19.52,7.75.95s5.08,1,7.58,1.56a102.23,102.23,0,0,1,14.73,4.82A80.08,80.08,0,0,1,1087,60l3.21,2.23c1,.79,2,1.64,3,2.45l1.5,1.25,1.41,1.36,1.47,1.44a75.51,75.51,0,0,1,7.75-8.54q2.43-2.31,5-4.38c.42-.35.89-.7,1.33-1,.25-.18.44-.35.74-.54l.71-.45c.94-.59,1.88-1.17,2.82-1.73,3.79-2.26,7.66-4.36,11.67-6.25,1-.48,2-.93,3-1.37a17.09,17.09,0,0,1,10.59-1,14.73,14.73,0,0,1,6.43,3.34,13.55,13.55,0,0,1,3.82,6.2,17.3,17.3,0,0,1,.61,7.13,13,13,0,0,1-3,6.69,15.55,15.55,0,0,1-5.89,4.18c-.27.12-.58.23-.9.34l-.69.23c-.49.17-1,.36-1.46.56-1,.41-1.92.84-2.86,1.32A45.07,45.07,0,0,0,1127,80.6a40.38,40.38,0,0,0-7.82,9.82,42.06,42.06,0,0,0-4.38,11.77,50.37,50.37,0,0,0-.94,12.64l.23,3.18c.09,1,.28,2.11.39,3.16.09.52.13,1.1.23,1.54s.23,1,.36,1.5c.28,1,.6,2,1,3a39.06,39.06,0,0,0,15.36,19.42c7.08,4.55,15.57,6.68,24.07,7h.13l.1,0a39.42,39.42,0,0,1,7,2.43c1.08.52,2.2,1,3.24,1.62l1.59.87,1.53,1a56.42,56.42,0,0,1,11.06,9.26l2.36,2.74c.78.91,1.43,1.92,2.17,2.89l1,1.46c.35.49.64,1,1,1.53l1.86,3.08c.57,1.06,1.07,2.14,1.62,3.21a33.31,33.31,0,0,1,1.51,3.27c.85,2.21,1.8,4.48,2.54,6.64a50.77,50.77,0,0,0,6.23,12.13,43.11,43.11,0,0,0,9.65,9.51,29.17,29.17,0,0,0,5.93,3.07,43.59,43.59,0,0,0,6.52,1.94,34.56,34.56,0,0,0,13.42.49l1.59-.39c.53-.13,1-.36,1.54-.52,1-.38,2.2-.9,3.32-1.27a71.45,71.45,0,0,1,6.85-2.14,81.45,81.45,0,0,1,14.11-2.32c2.37-.17,4.76-.27,7.15-.26s4.78.25,7.17.42a64.57,64.57,0,0,1,14,3.4,65.43,65.43,0,0,1,12.74,6.65,60.87,60.87,0,0,1,19.06,21.2,67.56,67.56,0,0,1,5.3,13.34,23,23,0,0,0,6.21,10.75,17.79,17.79,0,0,0,2.4,1.91,19.15,19.15,0,0,0,2.76,1.36,39.25,39.25,0,0,0,6.15,1.8,49.84,49.84,0,0,0,25.55-1,33.46,33.46,0,0,0,11.12-6.17l4.87-4.47a19.93,19.93,0,0,0,3.87-4.86,25.23,25.23,0,0,0,2.38-5.84,32.4,32.4,0,0,0,1-6.3,46.07,46.07,0,0,0-1.24-12.74,85.74,85.74,0,0,1-4-10.07,89.69,89.69,0,0,1-2.85-10.61c-1.42-7.17-2-14.69-.38-22a61,61,0,0,1,9.39-19.91,82.26,82.26,0,0,1,7-8.52,67.11,67.11,0,0,1,8.1-7.4,47.54,47.54,0,0,1,8-6.15,66,66,0,0,1,9-4.61,67.89,67.89,0,0,1,19.54-4.8,82.7,82.7,0,0,1,10.08-.22,83.84,83.84,0,0,1,10,1.1,99.45,99.45,0,0,1,18.42,5.12,85.18,85.18,0,0,1,6.41-12.46,59.46,59.46,0,0,1,9.37-11.69,35.27,35.27,0,0,1,6-4.59,23.62,23.62,0,0,1,7-2.94,22.62,22.62,0,0,1,7.65-.49,27.57,27.57,0,0,1,7.36,2l.11,0,.11.09a16.41,16.41,0,0,1,2.56,2.93,13.21,13.21,0,0,1,1.77,3.47,11.34,11.34,0,0,1,.65,3.91,19,19,0,0,1-.24,2l-.26,1a5.53,5.53,0,0,1-.33.94,15.83,15.83,0,0,1-.87,1.75c-.36.55-.71,1.1-1.09,1.62-.85,1-1.7,2-2.56,2.77q-2.54,2.61-4.8,5.45a55.31,55.31,0,0,0-7.52,12.34,38.28,38.28,0,0,0-3.18,14,35.79,35.79,0,0,0,.57,7.16c.1.59.26,1.17.39,1.76l.2.87.26.87.52,1.72.64,1.69a48.3,48.3,0,0,0,7.37,12.41l1.13,1.41,1.21,1.36,1.2,1.35c.38.36.87.77,1.33,1.13a36.71,36.71,0,0,0,6.12,3.79,33.5,33.5,0,0,0,21,3.06,36.4,36.4,0,0,0,6.93-2,43.06,43.06,0,0,0,6.49-3.22,59.71,59.71,0,0,0,5.93-4.18,41.82,41.82,0,0,0,5.16-5.06,34.67,34.67,0,0,0,4-6,35.22,35.22,0,0,0,3.87-13.84,48.36,48.36,0,0,0-1.24-14.43,59,59,0,0,0-2.09-7A57.83,57.83,0,0,1,1583,143a48.78,48.78,0,0,1-1.18-14.75,34.82,34.82,0,0,1,1.31-7.33,15.78,15.78,0,0,1,3.65-6.54l.13-.13h.19l30.54.62.74,0-.45.6a33.11,33.11,0,0,0-5.31,11.62,35.9,35.9,0,0,0-.73,12.78,41.24,41.24,0,0,0,3.64,12.32,57,57,0,0,0,6.84,10.94v0a25.24,25.24,0,0,0,5.63,5.67,26.76,26.76,0,0,0,7.06,3.8c.62.27,1.27.4,1.92.61a13.18,13.18,0,0,0,2,.47l2,.37c.67.08,1.33.11,2,.17l1,.09c.33,0,.66,0,1,0l2,0c1.35-.07,2.68-.29,4-.43l.17,0,.06.15,9.54,25.46Z"/><circle class="cls-25" cx="1210.23" cy="275.61" r="17.81"/><circle class="cls-26" cx="1262.26" cy="277.87" r="17.81"/><circle class="cls-27" cx="830.41" cy="114.46" r="17.81"/><circle class="cls-28" cx="1435.3" cy="301.62" r="17.81"/><circle class="cls-29" cx="1457.35" cy="201.53" r="17.81"/><circle class="cls-30" cx="1260.56" cy="169.3" r="17.81"/><circle class="cls-31" cx="1552.36" cy="168.17" r="17.81"/><circle class="cls-32" cx="1624.74" cy="233.77" r="17.81"/><circle class="cls-33" cx="1128.86" cy="216.48" r="17.81"/></g></g></g></svg>