<svg xmlns="http://www.w3.org/2000/svg" viewBox="0 0 948.28 1539.53"><defs><style>.cls-1,.cls-2{fill:none;stroke-linecap:round;stroke-linejoin:round;stroke-width:3px;}.cls-1{stroke:#383333;}.cls-2{stroke:#cf8282;}</style></defs><g id="Layer_2" data-name="Layer 2"><g id="Layer_1-2" data-name="Layer 1"><path class="cls-1" d="M369.38,264.23c-.29,1.65,29.37,3.07,29,5.11s-56.62,2.76-56.62,2.76S420,278,418.68,285.66c0,0-86-13.41-86.49-10.4-1.93,10.94,93.06,3.88,90.91,16l-92.47,2.23c-.11.58,98.79,3.11,96.35,17-2.27,12.87-99.84-25.26-102.17-12.08,162.26,7.12,112.83,39.65-5.66,9.66l105.9,18.67c-1.16,6.58-114.56.36-114.56.36-.23,1.31,120.68,21.28,120.68,21.28-.73,4.11-123.63-21-123.63-21-2.76,15.68,118.06,6.31,115.58,20.38-.88,5-100.58-5.33-100.58-5.33-2.28,12.9,99.76,17.59,99.76,17.59l-89.78-4,71.24,12.56s-53.51.16-54.37,5c-.27,1.55,23.78,4.19,23.78,4.19-.36,2-23.69-4.26-23.93-2.92-.08.46,22,3.89,22,3.89-.2,1.13-24.76-4.82-24.93-3.87-.28,1.58,18.5,3.27,18.5,3.27"/><path class="cls-2" d="M208.61,1.5c-.29,1.66,29.4,3.07,29,5.12S181,9.38,181,9.38,259.3,15.3,258,22.94c0,0-86-13.42-86.51-10.4-1.93,10.94,93.07,3.88,90.93,16l-92.49,2.22c-.11.59,98.79,3.12,96.35,17C264,60.65,166.4,22.52,164.08,35.7c162.33,7.13,112.77,39.64-5.68,9.66L264.32,64c-1.16,6.58-114.56.37-114.56.37-.23,1.3,120.68,21.27,120.68,21.27-.72,4.11-123.64-21-123.64-21C144,80.39,264.86,71,262.38,85.09c-.89,5-100.58-5.33-100.58-5.33-2.28,12.9,99.76,17.59,99.76,17.59l-89.78-4L243,105.91s-53.51.17-54.36,5c-.27,1.55,23.75,4.19,23.75,4.19-.35,2-23.69-4.26-23.93-2.92-.08.46,22,3.88,22,3.88-.19,1.13-24.69-4.82-24.86-3.86-.28,1.58,18.52,3.26,18.52,3.26"/><path class="cls-2" d="M370,439.68c0,.22,4.38.49,4.33.77l-16.78-2.32,17.74,3.12"/><path class="cls-1" d="M93.33,208.67c-.88,5,97,10.32,95.8,16.89l-62.74,6.21,56.88,10-41.44-1c-.58,3.29,45.28,8,45.28,8-.4,2.23-37.11-8.21-37.64-5.21-.73,4.15,30.06,5,30,5.29-.64,3.6-16.46,15.19-16.9,17.72,0,0,18,2.07,17.8,3.14-.45,2.51-17.17-2.76-17.17-2.76s7.91.77,7.8,1.38l-13.71.21c-.16.93,18.25,2.13,18.07,3.18,0,0-17.27,1.69-17.44,2.69l12.2,2.15c.13,1-2,9.49-1.08,10"/><path class="cls-1" d="M70.17,116.35c-.55,3.15,46,4.11,45.31,8-.37,2.11-62.24,1.77-62.24,1.77s111.8,8.24,109.84,19.36c0,0-112.92-19.14-113.62-15.18-2.71,15.4,127.43,4.84,124.41,21.94L62.45,151.11c-.14.81,139.17,4.86,135.8,23.95-3.09,17.5-135.52-36.44-138.68-18.53,200.53,5.14,187.22,58.79-2,10.31L206.8,193.15c-1.58,9-156.36-7-156.36-7-.3,1.73,155,27.33,155,27.33-.93,5.25-158-27-158-27-3.64,20.66,153.13,7.89,149.86,26.43C196,219.73,59.32,201,59.32,201c-3.17,17.94,137.91,24.32,137.91,24.32L55,202.26l4.73.83"/><g id="onWGFB.tif"><path class="cls-2" d="M250.92,813c.56.73,31.13-23.47,31.13-23.47s-23.91,28-23.87,28S284.11,798,284.11,798s-19.56,25.93-19.56,25.93c.25.33,23.13-18.2,23.5-17.71S275.52,825,276,825.59s18.34-13.82,18.34-13.82l-21.69,27.42s17.78-14.1,18.11-13.65c0,0-7,14.32-7,14.32l15.87-12C299.93,828.34,286,849,286,849l7.6-5.73-1.9,10.82s4.4-3.88,4.68-3.52-3,11.69-3,11.69l3.36-2.53s-7.7,15.48-7.42,15.86c0,0,15.08-11.53,15.16-11.42.2.27-8.65,16.49-8.65,16.49l8.22-6.2s-9.65,17-9.55,17.16,4.87-3.68,4.87-3.68"/><path class="cls-2" d="M273.87,787.17,292,773.55c.34.46-10.93,17.44-10.79,17.62.3.4,19.4-15.23,19.69-14.85l-9.07,17.86c.32.43,10.7-8.16,10.74-8.09s-13.07,19.68-13.07,19.68,21.85-16.93,22.07-16.63L296.63,809.7l18.52-14-7,15.53s10-8.07,10.29-7.76l-6.61,15.37c.2.26,5.51-4.45,5.65-4.26l.56,8.4s.69-.76.81-.61,3.06,6.56,3.06,6.56,1.4-1.22,1.48-1.11-4.52,12.46-4.52,12.46,6.26-4.85,6.32-4.77L326,845s.82-.62.82-.62"/><path class="cls-2" d="M230.12,811.11,282,772s-49.17,44.34-48.37,45.4l35.22-26.54-34.43,36.79,18.64-14s-19.91,23.55-19.53,24l27.75-20.92s-22.63,26.93-22.52,27.08l21.14-15.93-14.28,19.74s17.25-13.47,17.48-13.17c0,0-16.76,22.31-16.62,22.51s17.17-12.93,17.17-12.93c.16.22-14,20.53-13.63,21,.07.09,10.42-8.09,10.54-7.94l-7.89,16.79,13.14-9.9c.36.48-18.87,24.55-18.87,24.55s10.34-8.39,10.63-8l-8.82,16.86s12.93-10.16,13.13-9.89-9.14,17-9.14,17l3-2.23"/><path class="cls-2" d="M274.54,758.81l19.39-14.61c.08.11-11.14,18.52-10.76,19,0,0,14.44-11.25,14.62-11,0,0-6.51,15.28-6.36,15.47,0,0,20.83-16.44,21.19-16l-14.28,19.6c.27.35,17.55-13.41,17.64-13.3s-7.47,16.26-7.35,16.42l6.87-5.17,2.83,8.06s6.35-4.83,6.37-4.8-1.83,10.68-1.69,10.86c0,0,9.28-7,9.31-7,.18.24-2.38,12-2.38,12l.4-.3-2.14,11.92,4.87-3.68c.14.19,2.57,6.93,2.66,7l4.94-3.73"/><path class="cls-2" d="M197.39,811.4c.23.31,86.93-67.11,87.7-66.09,2.15,2.85-88.8,77.3-88.8,77.3.94,1.25,79.1-59.6,79.1-59.6s-77.86,65.35-76,67.78c0,0,86.24-66.47,86.95-65.53,2,2.68-91.72,79-91.25,79.62,0,0,29.86-22.5,29.86-22.5.81,1.09-30.64,31.29-30.19,31.89.76,1,29.37-22.36,29.48-22.21l-27.28,29.46c.7.93,23.56-17.75,23.56-17.75S195.91,870,196.64,871c0,0,22.2-18.12,22.87-17.24,0,0-21.62,25.65-21.51,25.79S222.62,861,222.62,861c.81,1.08-30,32.32-30,32.32s31.1-24.45,31.59-23.8l-31.65,34.25,29-21.82s-29.7,32.71-29.64,32.79l33-24.88s-30.81,33-30.52,33.38c0,0,33.34-25.16,33.35-25.13s-33.37,33.7-33.11,34c.65.86,25.33-19.67,25.61-19.3.77,1-28.13,32.35-28.13,32.35.34.44,33.46-25.22,33.46-25.22l-32.48,33.33,31.12-23.45s-26.19,29.36-25.88,29.77l23-17.34c.5.66-24.86,28.5-24.86,28.5s25.74-20.31,26.18-19.73c0,0-21.83,25.07-21.72,25.21s19.81-14.93,19.81-14.93S193.05,993,193.05,993l27.59-20.79c.07.1-15.84,20.9-15.84,20.9.2.27,14.89-11.23,14.89-11.23.12.16,2.83,8.38,3,8.59s7-5.38,7.08-5.33-2.59,10.94-2.53,11l5.18-3.91"/><path class="cls-2" d="M161.28,810.58c1,1.34,103-81.17,104.73-78.92L154.7,825.4s117.8-89.69,118.24-89.1L157.06,833.93c.08.12,125.34-94.45,125.34-94.45,1.08,1.43-131.32,102.09-127.85,106.7l34.49-26c.72,1-32.28,32.91-31.65,33.76s20.83-16.39,21.17-16L157.9,863.69c.5.66,15.43-11.62,15.43-11.62L157.9,872.5c.33.43,14.42-10.87,14.42-10.87S158.71,880,159.14,880.57l10.25-7.73c.22.29-13.74,19.58-13.74,19.58s8.68-6.53,8.68-6.53l-3.77,12,4-3c.19.24-1.3,11.55-1.3,11.55l4.18-3.15c.09.11-.49,10.86-.49,10.86s.61-.46.61-.46"/><path class="cls-2" d="M269,728.2c.39.52,14.14-11.82,14.7-11.07.07.1-5.76,13.66-5.76,13.66l17.93-13.51c.33.43-7.33,15.66-7.33,15.66.12.16,12.46-9.39,12.46-9.39l1.48,8.75c.14.19,8.66-6.89,8.83-6.66l5.15,6.8c.1.14,5.64-4.51,5.77-4.34l-2.13,10.45c.07.09,2.85-2.31,2.92-2.21"/><path class="cls-2" d="M144.2,786.74c2.47,3.27,102.23-77,102.23-77,2.81,3.72-109.28,91.15-109.28,91.15.54.72,121.47-91.54,121.47-91.54,2.43,3.23-129.11,105.89-128.45,106.76,2.43,3.23,142-110.87,143.88-108.42,0,0-153.23,119.75-150.79,123L279.62,712.82c2,2.6-169.41,127.39-165,133.27.49.65,44.64-33.65,44.64-33.65,1.18,1.57-40.19,40.36-40.19,40.36.58.77,18.46-14.8,18.89-14.24.57.77-20.48,25.91-20.47,25.94l10.85-8.17c.14.19-12.06,19.07-11.89,19.3,0,0,9.21-7.42,9.45-7.11l-11.47,19.29c.08.09,9.43-7.32,9.54-7.18s-7,13.66-6.72,14.06l.4-.3"/><path class="cls-2" d="M250.43,705.25l12.63-9.51s3.66,7.94,3.69,8,11.61-9,11.74-8.85,5.08,5.55,5.18,5.68,1.55-1.16,1.55-1.16"/><path class="cls-2" d="M115.28,770.87l104.11-78.45c.79,1-91,76.59-89.92,78L232,693.17c1,1.27-128.17,106.19-128.17,106.19L246.45,691.87c1.49,2-145.77,119.06-145,120.13,1.57,2.08,157.26-118.51,157.26-118.51.65.86-167.38,136.62-167.38,136.62S116.78,811,116.78,811c.53.72-24.8,28.69-24.8,28.69.16.2,8.34-6.28,8.34-6.28"/><path class="cls-2" d="M103,760.21s22.15-17.24,22.42-16.89c0,0-39.16,36.45-38.09,37.87,1.39,1.84,105.46-79.47,105.46-79.47L82.48,794.13s138.66-105,138.89-104.66"/><path class="cls-2" d="M99.53,731.94c.15.21,11.35-9.38,11.75-8.86.07.1,2.71,9.1,2.71,9.1s24.81-19.1,25-18.84c0,0-14.25,19.39-14,19.67S157,708.85,157,708.85c.6.8-19.65,23.38-19.25,23.9.11.15,25.84-19.48,25.84-19.48l-8.66,16s40.62-32.82,41.69-31.41"/><path class="cls-2" d="M132.63,702.22c.08.11,8.87-6.68,8.87-6.68l1.72,9.31L160,692.19s.65,8.12.8,8.32,10.68-8.78,11-8.32c.16.22-8.14,15-8.14,15s22.68-17.52,22.89-17.24l-8.47,17.34,11.13-8.39"/><path class="cls-2" d="M309.57,1095c.1.14,6.07-4.9,6.22-4.69"/><path class="cls-2" d="M255.15,1106.2c.36.48,16.81-12.67,16.81-12.67.31.42-7.19,14.21-7.19,14.21s13.32-10,13.32-10c.23.3-6.1,14.43-6,14.51.26.36,15.74-12.28,15.94-12,0,0-12.25,18-12,18.4l14.14-10.66c.22.29-14.15,18.59-13.66,19.25.26.34,25.39-19.14,25.39-19.14.44.59-11,18.34-11,18.34.92,1.23,33.08-26.32,33.75-25.43S301.33,1129,301.35,1129l24.88-18.75"/><path class="cls-2" d="M268.59,1054.65l1-.71s-3.74,13.48-3.69,13.54c.16.22,13.29-10.36,13.46-10.14"/><path class="cls-2" d="M207.51,1067.15l19.22-14.49c.14.17-10.26,17.58-10.08,17.82l18.19-13.7c.15.2-15.64,21.4-15.64,21.4l17.09-12.88c.12.15-4.29,14-4.23,14.07s9.43-7.11,9.43-7.11-8,16.53-8,16.53,19-14.32,19-14.32c.28.36-9.47,17.13-9.47,17.13.32.42,16-12,16-12s-17.74,22.16-17.3,22.75c.72,1,36.18-28.88,37-27.85l-44.72,42.9s34.46-26.57,34.75-26.19c.64.85-34.59,35.65-34.59,35.65.27.36,12.4-9.54,12.5-9.42.21.28-4.51,12.64-4.47,12.69s4.37-3.5,4.47-3.37"/><path class="cls-2" d="M277.67,1011.81s67.85-52,68.27-51.44c0,0-17.9,22.32-17.49,22.87,0,0,29.75-23.5,30.27-22.81,0,0-5.16,13.33-5.16,13.33s18.7-15,19.16-14.43l3.31,7.89s9.25-7,9.26-7l5.48,7.12,10.41-4.86C536.51,893,577.27,646.38,257.78,588.2c-311.31-56.69,112.72-47.05,114.37-71.71,1.34-20.09-130.07-24.75-128.59-33.16,2.14-12.13,128.82,23.77,131.27,9.87L222.54,466.34c221.86,35,180.39-1.92-1.23-13.33,1.22-6.93,147.94,26.4,150.67,10.88,0,0-175.11-7.45-171.1-30.17,1.59-9,177.13,15.32,178,10.22,0,0-202.3-9.75-197.86-34.88.61-3.51,121.39,12.82,122.45,6.78,0,0-131-13.23-129.28-22.79,2.11-12,109.67.36,109.67.36,1.21-6.82-115-20.29-115-20.29.57-3.2,94.11,4.14,94.62,1.26,1.32-7.47-93.93-16.56-93.93-16.56l87.38-1.42s-95.33-13.56-94.77-16.71c2-11.09,101.14,14,101.33,12.91,1.81-10.22-101.28-17.86-101.28-17.86,1.85-10.47,90.69,20.88,92.75,9.2,0,0-88.35-15.09-88.27-15.56l95.38,10.27c1.15-6.49-97.61-14.51-97.15-17.13,0,0,85.94,18.11,87.91,6.93,1.59-9-81-14.29-81-14.29,1-5.64,74.54,1.5,74.54,1.5s-86.84-11.9-86.26-15.21c.23-1.31,91.92,14.37,92.24,12.58l-86.62-15.27c.69-3.94,90.12-4,90.12-4,1.29-7.29-90.67-16-90.67-16,2.09-11.88,91.61,5.19,91.61,5.19,2.14-12.1-77.58-3.59-75.86-13.37.2-1.14,81,2.11,81,2.11s-87-9.45-86-15.17c0,0,95.52,21.23,96.46,15.89C274.61,259.42,179,256,179,256c1.65-9.35,86,4.75,86,4.75L181.33,246c.81-4.59,89.24,3.8,89.79.68,1.17-6.63-76.85-13.55-76.85-13.55.85-4.79,76.48,17.44,77.16,13.57,0,0-94.29-5.25-92.35-16.28l100.54,7.64s-96.17-8.49-94.72-16.7c.72-4.11,107.19,12.88,108,8,0,0-97.09-15.14-96.75-17.06.94-5.35,93.45,23.42,94.86,15.42,0,0-90.18-11.14-89.37-15.75,1.73-9.83,110.9,5,110.9,5l-98-17.29,124.29,10.09s-122-5.56-119.3-21c0,0,131.88,17.67,133,11.05,2.93-16.63-138.55-5.31-135.29-23.85,0,0,143,29.32,143.88,24.53,0,0-140.4-23.16-140.13-24.71,0,0,141,12.73,142.43,4.56l-116.26-20.5s121.53,26.47,124.22,11.24-110.56-19.5-110.56-19.5c2.47-14,106.21,26.92,108.62,13.23,2.5-14.17-98.71-16.79-98.61-17.39l98.67-1.13c2-11.34-87.23-4.86-85.43-15.07.51-2.85,82.05,9.62,82.05,9.62,1.22-6.91-70.09-12.36-70.09-12.36s53.5-1.42,53.82-3.25-26.84-3.25-26.59-4.69"/><path class="cls-2" d="M144.31,1055.94c.06.07-.11-.19,0,0s-3.14,13.51-3.14,13.51,4.86-3.79,4.92-3.71-7.52,14.46-7.38,14.65,13.85-10.43,13.85-10.43c.39.52-10.77,17-10.51,17.31,0,.06,8.77-6.61,8.77-6.61l1,8.59S310.33,961.34,314.39,966.72"/><path class="cls-2" d="M1.5,966s5.7-4.3,5.7-4.3l4.69,7.08L24,959.68s5.54,4.46,5.67,4.63,8.46-7,8.75-6.59c.13.17-4.91,12.6-4.91,12.6s22.34-17.25,22.54-17l-5.21,15,11.5-8.67s-4.52,13.11-4.44,13.22c.33.43,15.72-12.31,15.95-12s-5.5,14.67-5.45,14.74c.37.48,21.51-16.21,21.51-16.21.4.54-17.25,21.42-16.79,22L98.85,962c.39.51-12.68,19.13-12.5,19.36l15.34-11.56S88.55,988.66,88.8,989l24-18.08c.41.53-16.14,21.17-16.14,21.17s22.29-16.79,22.29-16.79c.38.5-13.64,19.13-13.64,19.13l17.9-13.49c.21.29-10.15,17.79-10.15,17.79s23.08-17.39,23.08-17.39c.24.32-9.35,17.85-9.35,17.85.44.58,20.32-15.31,20.32-15.31l-21.29,25c.3.39,24.54-18.49,24.54-18.49.41.55-16.82,22.66-16.82,22.66l22.07-16.64-9.86,17.43s14.39-11.72,14.81-11.16l-14.68,19.83c.44.59,27.25-20.82,27.39-20.64.39.52-12,20.19-12,20.19l10.22-7.7s-9.5,16-9.43,16.08,23.66-18.32,23.89-18-19.41,23.59-19.41,23.59c.32.43,18-13.58,18-13.58s-11.38,19-11.38,19c.19.25,17.73-13.53,17.81-13.42s-5.39,14.81-5.39,14.81l18.07-13.61c.3.4-13,19.61-12.67,20,.17.22,66.89-50.41,66.89-50.41,1.87,2.48-86.15,70.78-84.48,73,1.15,1.52,138.29-104.59,138.47-104.35"/></g><path class="cls-2" d="M781.43,1243.28c1.42,2.47,15.22-9.08,15.35-8.87,2.26,3.92-41.19,31.53-37.42,38,1.71,3,68-41.86,69.11-39.9,3.67,6.36-59.6,26.47-55.56,33.47,1.15,2,68.93-43.1,70.36-40.63,8.12,14.08-97,54.31-91.29,64.26,7.23,12.52,91.67-68,98.21-56.71,2.85,4.94-98.33,58.56-92.51,68.64,4.85,8.4,97.6-72.64,104.65-60.42,8.51,14.74-97.69,57.66-91.1,69.08,8.07,14,101.38-61.16,102.52-59.19,2.8,4.86-109.34,55.17-105.67,61.52,4.28,7.42,98.52-66.51,102.7-59.29,1.87,3.25-104.76,50.52-98,62.23,1.25,2.17,103.67-71.31,108.63-62.72,6.13,10.63-126.44,70-124.81,72.84,1.52,2.64,115.55-87.63,124.61-71.94,8.2,14.21-111.41,58.07-106.21,67.08,1.08,1.87,99.74-67.68,104.11-60.11,6.43,11.13-125.91,61-116.6,77.11,4.83,8.38,113.2-71.31,115.78-66.84,2.35,4.07-97,69.65-95.36,72.43,6.38,11,107.28-64.5,108.39-62.58,8.08,14-111.05,55.22-106.76,62.64,4,6.94,96.28-69.87,102.47-59.16,1.58,2.73-99.8,55.6-97.19,60.12,1.44,2.49,102.54-64.47,104.82-60.52,1.81,3.14-100.4,64.37-98.43,67.8,8,13.84,81.22-55.07,84.76-48.94,5.65,9.79-85.54,43.34-80.07,52.82,2.88,5,77.55-59.75,84-48.52,3.26,5.65-80.46,49-74.82,58.79,3.72,6.45,64.18-41.28,66-38.11,2.78,4.82-33.07,28.17-31.44,31,.76,1.32,21.38-14.41,22.28-12.86"/><path class="cls-2" d="M750.47,1399.35c1.92,3.33,20.94-12.48,21.11-12.19,1.49,2.59-23.25,24.13-20.77,28.43,1.57,2.71,62.11-38.24,63.14-36.45,3.18,5.5-51.52,23.06-48,29.12,1,1.81,62.18-38.89,63.47-36.65,6.67,11.55-78.56,46-73.84,54.18,6.28,10.88,80.9-59.83,86.58-50,2.26,3.92-76.39,48.66-71.77,56.66,4.17,7.21,84.23-62.62,90.29-52.13,6.83,11.84-76.65,48.52-71.36,57.68,7.08,12.26,88.08-53.15,89.08-51.43,2.44,4.24-95.34,48.17-92.14,53.72,3.76,6.51,85.7-57.94,89.36-51.6,1.62,2.8-89.62,44-83.81,54,1.12,1.93,92.16-63.42,96.58-55.76,5.54,9.59-114.14,63.28-112.67,65.83,1.36,2.35,104.67-79.12,112.77-65.1,7.28,12.62-98.65,52-94,60,1,1.7,90.16-61.25,94.15-54.36,5.92,10.27-115.72,56.8-107.15,71.65,4.6,8,107.75-67.86,110.2-63.62,2.32,4-95.66,69-94.07,71.69,6.75,11.7,113.45-68.22,114.63-66.18,8.58,14.86-118,58.59-113.4,66.47,4.28,7.4,103-74.7,109.58-63.26,1.72,3-108.84,60.29-106,65.2,1.59,2.76,113-71.08,115.57-66.72,2.1,3.64-117.62,73.57-115.33,77.55,9.92,17.18,103.12-69.67,107.51-62.07,7.53,13-115,56.15-107.7,68.77,3.92,6.8,106.88-82.09,115.7-66.8C923.28,1435,786,1497.3,795,1512.77c7.29,12.62,123.36-79.5,126.95-73.29,7.35,12.73-96.8,63.8-92.5,71.25,4.69,8.13,102.33-71.8,107.83-62.26,2.78,4.81-79.39,54.84-75.42,61.72,3.15,5.44,65.34-48.88,70.17-40.51,2,3.36-64.29,37-63.17,39,1.44,2.49,58.14-46.34,63.67-36.76,2,3.44-41.66,35.31-41.27,36,1.76,3,40.58-32.1,44.33-25.6.91,1.58-58.57,25.27-54.24,32.78.71,1.23,64.28-39.79,65.44-37.77,1.3,2.25-62,29.36-58.91,34.68,3.51,6.09,44-27.56,44.9-25.93.63,1.11-47.6,21.3-44.5,26.68,3.29,5.69,45.61-32.36,48.22-27.84.13.24-12.88,22.91-12.56,23.48s11.56-9.07,12.6-7.27c.37.64-2,4.49-1.83,4.85.52.89-.27-1.15.3-.17.15.27.95,4.11,1.26,4.65.09.16,1.39-1,1.5-.86"/><path class="cls-2" d="M607,1233.87c1.57,2.71,16.83-10,17-9.79,2.45,4.25-45.54,33.3-41.46,40.37,1.87,3.23,74.27-45.72,75.5-43.58,4.1,7.09-66.6,29.43-62.09,37.23,1.26,2.19,75.47-47.17,77-44.47,8.78,15.2-105.28,58-99.08,68.75,8,13.77,99.87-74.26,107.06-61.81,3.14,5.44-109.08,63.4-102.67,74.5,5.39,9.34,108.23-80.6,116.07-67,9.62,16.65-111.42,63.63-104,76.51,9.11,15.79,115.52-69.66,116.81-67.44,3.19,5.52-124.19,62.59-120,69.81,4.84,8.39,112.38-75.78,117.1-67.61,2.16,3.74-120.7,57.41-112.94,70.86,1.43,2.46,118.44-81.43,124.09-71.65,6.9,12-142.17,78.64-140.33,81.81,1.73,3,129.87-98.84,140.2-80.95,9.42,16.32-128.35,66.08-122.38,76.42,1.24,2.15,115.82-78.48,120.85-69.77,7.37,12.77-145.09,68.91-134.42,87.39,5.66,9.8,131.61-83,134.63-77.72,2.83,4.9-118.4,81.28-116.47,84.62,7.78,13.48,130.39-78.42,131.74-76.06,9.85,17.06-135.5,67.16-130.27,76.21,4.9,8.5,118.56-86,126.13-72.82,2,3.4-124.73,68.52-121.48,74.14,1.79,3.1,126.92-79.81,129.75-74.91,2.28,3.95-127.9,79.06-125.41,83.38,10.45,18.1,109.17-73.72,113.8-65.7,7.73,13.38-118.19,57.53-110.7,70.5,3.94,6.82,107.35-82.45,116.21-67.1,4.76,8.24-121.19,66.55-113,80.81,6.29,10.9,106.89-68.86,110-63.5,6.83,11.83-89.25,60.14-85.25,67.07,3.87,6.7,85.45-59.83,90-52,2.17,3.76-59.79,45.53-56.69,50.9,1.42,2.46,27.1-20.68,29.28-16.9.58,1-18.26,12-17.93,12.55s9.59-8.79,11-6.35"/><path class="cls-2" d="M181.56,1122.6c-.09-.12-9.67,7.28-9.67,7.28-.26-.34,7.34-14.14,7.26-14.24l-2.23,1.68,1.41-10.45-8.45,6.37c0-.08,6.46-15.88,6.46-15.88l-13.73,10.35L344.35,960.22C342.25,957.43,120.4,1129,120.4,1129L330.56,961.68s-216.68,172.08-220.91,166.46c0-.05,7.33-15.19,7.2-15.36-.34-.45-16.1,12.14-16.1,12.14l8.78-16.14c-.43-.57-19.62,15.74-20.08,15.13l24.11-28.06s-23.84,18-23.84,18l12.5-18.69s-16.32,12.81-16.57,12.49c-.45-.6,12.67-18.71,12.67-18.71S88,1096.68,88,1096.67c-100.47,74.42-185.46,264.1,307.35,154.42,51.57-11.48,63.93-16.87,64.05-16.66,2.27,3.93-41.32,31.58-37.55,38.12,1.72,3,68.13-42,69.26-40,3.68,6.37-59.76,26.54-55.71,33.55,1.16,2,69.09-43.19,70.52-40.71,8.14,14.1-97.24,54.39-91.48,64.36,7.24,12.55,91.86-68.16,98.41-56.82,2.85,5-98.55,58.65-92.72,68.76,4.86,8.41,97.76-72.77,104.83-60.52,8.53,14.76-97.88,57.74-91.28,69.17,8.08,14,101.52-61.24,102.66-59.26,2.81,4.86-109.49,55.24-105.82,61.61,4.29,7.42,98.67-66.62,102.85-59.38,1.88,3.25-104.92,50.58-98.15,62.31,1.25,2.17,103.81-71.41,108.78-62.8,6.14,10.63-126.58,70.09-124.95,72.92,1.52,2.64,115.68-87.73,124.75-72,8.21,14.22-111.56,58.14-106.35,67.16,1.08,1.87,99.86-67.76,104.23-60.18,6.44,11.14-126,61-116.72,77.18,4.84,8.38,113.3-71.37,115.88-66.9,2.35,4.08-97.05,69.69-95.44,72.48,6.37,11,107.3-64.52,108.41-62.59,8.08,14-111.07,55.22-106.79,62.65,4,6.94,96.32-69.89,102.5-59.18,1.58,2.73-99.82,55.62-97.21,60.14C453.77,1347,554.88,1280,557.16,1284c1.81,3.14-100.39,64.37-98.42,67.79,8,13.84,81.16-55,84.7-48.9,5.65,9.78-85.46,43.3-80,52.77,2.88,5,77.45-59.68,83.93-48.46,3.25,5.64-80.25,48.93-74.62,58.68,3.7,6.42,63.87-41.09,65.7-37.93,2.76,4.79-33,28-31.42,30.78.77,1.33,21.47-14.46,22.37-12.91"/><path class="cls-2" d="M413,1399.34c1.92,3.32,20.91-12.46,21.08-12.17,3,5.18-57.74,38.27-52.76,46.9,2.34,4,93.6-57.61,95.15-54.93,5.4,9.36-88.05,38.49-82.1,48.79,1.58,2.75,95.59-59.72,97.55-56.32,10.72,18.57-129.85,69-122.27,82.14,10.22,17.71,125.76-94,135-78,4,7-141.84,78.16-133.63,92.38,7.11,12.31,141.81-105.76,152.16-87.85,13,22.44-153.09,81.71-143.06,99.08,12.35,21.39,159-95.84,160.77-92.82,4.35,7.54-169.76,85.37-164.07,95.24,6.56,11.37,154.9-104.21,161.3-93.13,3,5.2-169.05,78.29-158.24,97,1.95,3.38,163.27-112.15,171-98.73,9.21,15.94-189.88,104.76-187.44,109s173.35-132.84,187.54-108.27c13.1,22.69-179.45,90.2-171.15,104.58,1.72,3,164.26-111,171.26-98.88,10.21,17.68-202.68,92.69-187.91,118.28,8.11,14,186.63-117.73,191-110.25,3.73,6.46-158.74,103.16-156.2,107.56,8.72,15.1,145.71-87.63,147.23-85,10.93,18.92-150.32,74.4-144.52,84.44,5.38,9.32,130.27-94.4,138.58-80,2.08,3.6-132.53,72.56-129.09,78.53,1.81,3.13,128.17-80.6,131-75.65,2.09,3.61-116.41,72.93-114.13,76.87,8.45,14.64,86.45-58.56,90.2-52.08,5.65,9.79-85.57,43.35-80.1,52.83,2.77,4.8,74.36-57.31,80.59-46.52,2.78,4.82-67.48,43.42-62.66,51.77,3,5.12,51.54-33.13,53-30.6,2,3.44-17.26,25.12-16.09,27.13.73,1.27,20.78-14,21.64-12.5.41.71-8.09,11.22-7.51,12.23.07.11,1.45-1.07,1.55-.89"/><path class="cls-2" d="M576.48,1423.67c2,3.45,21.75-13,21.92-12.65,3.1,5.37-60.18,39.26-55,48.2,2.42,4.21,97.22-59.84,98.83-57.06,5.65,9.79-92.1,40.21-85.89,51,1.65,2.85,99.35-62.06,101.38-58.53,11.09,19.2-134.51,71.09-126.66,84.67,10.63,18.43,130.46-97.53,140.08-80.87,4.18,7.24-147.93,80.9-139.39,95.7,7.43,12.86,148.06-110.44,158.87-91.73,13.59,23.54-161,85.13-150.47,103.36,13,22.44,167.23-100.77,169.06-97.61,4.57,7.92-178.36,89.68-172.38,100,6.89,11.93,162.92-109.57,169.63-97.93,3.16,5.47-178.11,82.2-166.73,101.91,2,3.55,171.64-117.9,179.78-103.8C729.13,1425,520.73,1518,523.29,1522.41s181.44-139.18,196.35-113.36c13.76,23.84-188.69,94.56-180,109.67,1.81,3.14,173-116.86,180.34-104.12,10.59,18.33-210.26,95.81-195,122.34,8.43,14.6,194-122.37,198.48-114.59,3.75,6.51-160.2,103.94-157.63,108.39,10.63,18.42,177.15-106.56,179-103.35,13.32,23.07-183.38,90.55-176.31,102.79,6.68,11.56,162.23-117.47,172.54-99.62,2.62,4.55-167.38,90.63-163,98.14,2.39,4.15,169-106.32,172.81-99.77,2.81,4.87-159,95.67-155.93,101,13.4,23.21,142.73-96.1,148.66-85.82,9.62,16.66-147.88,70.44-138.56,86.58,4.95,8.57,135.78-104.09,146.91-84.81,5.38,9.33-138.32,73.9-129,90.06,7.68,13.29,129.87-83.7,133.65-77.16,7.65,13.25-101.22,65.93-96.74,73.69,4.94,8.56,107.41-75.4,113.2-65.36,3,5.12-85,57.52-80.79,64.83,3.42,5.93,71.66-53.54,76.92-44.42,2.15,3.72-71.16,40.75-69.93,42.89,1.58,2.74,64.57-51.31,70.65-40.78,2.27,3.94-48.7,39.24-48.25,40,2,3.54,48.11-37.84,52.46-30.29,1.05,1.81-67.35,28.85-62.37,37.47.83,1.44,72.36-44.92,73.73-42.56,1.48,2.57-70.71,33.4-67.21,39.47,4.15,7.17,52.15-32.67,53.26-30.75.76,1.31-56.53,25.12-52.85,31.5,3.9,6.75,53.58-38.09,56.68-32.73.18.32-21.46,27.62-21,28.37s20.59-15.61,22.21-12.82c1.11,1.93-12.06,9.32-11.44,10.4,1,1.69,8.85-7.58,9.92-5.72.34.58-3.3,9-2.62,10.2.32.57,5-3.79,5.39-3.11s-8.78,6.76-8.54,7.18c0,0,3.82-2.31,3.87-2.23"/></g></g></svg>