<svg xmlns="http://www.w3.org/2000/svg" xmlns:xlink="http://www.w3.org/1999/xlink" viewBox="0 0 226.99 83.21"><defs><style>.cls-1{fill:#383333;}.cls-2{fill:url(#radial-gradient);}.cls-3{fill:url(#linear-gradient);}.cls-4{fill:#cd7675;}</style><radialGradient id="radial-gradient" cx="30.42" cy="3.19" r="10.99" gradientUnits="userSpaceOnUse"><stop offset="0" stop-color="#db9f9e"/><stop offset="1" stop-color="#cc7675"/></radialGradient><linearGradient id="linear-gradient" x1="50.06" y1="50.07" x2="22.04" y2="50.07" gradientUnits="userSpaceOnUse"><stop offset="0" stop-color="#db9f9e"/><stop offset="1" stop-color="#ca7675"/></linearGradient></defs><g id="Layer_2" data-name="Layer 2"><g id="Layer_1-2" data-name="Layer 1"><circle class="cls-1" cx="49.05" cy="49.62" r="8.86"/><circle class="cls-2" cx="24.6" cy="8.86" r="8.86"/><path class="cls-3" d="M49.05,68V81.49a31.76,31.76,0,0,1-22.53-9.34,29.2,29.2,0,0,1-2-2.18A31.47,31.47,0,0,1,19.69,62a31.92,31.92,0,0,1,0-24.82,31.47,31.47,0,0,1,4.84-7.94,29.34,29.34,0,0,1,2-2.19,31.7,31.7,0,0,1,10.12-6.82,31.09,31.09,0,0,1,3.9-1.36,6.72,6.72,0,0,1,7.13,10.56,6.8,6.8,0,0,1-3.57,2.42A18.42,18.42,0,0,0,49.05,68Z"/><path class="cls-1" d="M24.53,29.27a31.47,31.47,0,0,0-4.84,7.94,31.89,31.89,0,0,0-2.06,7.06A18.45,18.45,0,0,0,0,31.2V17.75a31.6,31.6,0,0,1,12.41,2.51,31.85,31.85,0,0,1,10.13,6.82C23.24,27.78,23.9,28.51,24.53,29.27Z"/><path class="cls-4" d="M67.23,20.33V15.51H85.48v4.82H78.81V42.38H73.88V20.33Z"/><path class="cls-4" d="M90.66,42.38V34.17A10.25,10.25,0,0,1,92.6,28a8.28,8.28,0,0,1,2.13-2,9.81,9.81,0,0,1,5.51-1.67c.42,0,.93,0,1.54.06v4.51l-.83,0a6.74,6.74,0,0,0-3.76.94,4.6,4.6,0,0,0-1.43,1.6,3.9,3.9,0,0,0-.52,1.91v9.09Z"/><path class="cls-4" d="M106.23,24.49h4.56V35.24a5.53,5.53,0,0,0,.32,2.34,2.6,2.6,0,0,0,2.48,1.08A3,3,0,0,0,115.8,38a3.66,3.66,0,0,0,.47-2.3V24.49h4.55V37A5.19,5.19,0,0,1,119,41.1a6.91,6.91,0,0,1-2.49,1.37,9.54,9.54,0,0,1-3.1.5,7.48,7.48,0,0,1-5.06-1.61,6.16,6.16,0,0,1-1.91-3.64,19.69,19.69,0,0,1-.17-3Z"/><path class="cls-4" d="M143.43,28.15l-9.78,9.74a4,4,0,0,0,1.58.42,8.59,8.59,0,0,0,2.65-.4,15.47,15.47,0,0,0,3.82-2.12l-.06,4.94c-.73.46-1.38.83-1.93,1.12a9.23,9.23,0,0,1-4.27,1,9.61,9.61,0,0,1-8.27-4.75A8.94,8.94,0,0,1,126,33.56a9.73,9.73,0,0,1,4.83-8.3A9.21,9.21,0,0,1,135.46,24a9.3,9.3,0,0,1,5.75,2A16.14,16.14,0,0,1,143.43,28.15ZM131,35.2,137.15,29a5.64,5.64,0,0,0-1.83-.38,4.48,4.48,0,0,0-3.56,1.64,4.84,4.84,0,0,0-1.28,3.23A4.21,4.21,0,0,0,131,35.2Z"/><path class="cls-1" d="M151.17,17.12a2.9,2.9,0,0,1,1.91.69,2.86,2.86,0,0,1,1.06,2.31,2.92,2.92,0,0,1-1,2.26,2.83,2.83,0,0,1-1.95.73,2.87,2.87,0,0,1-2.24-1,3,3,0,0,1-.81-2.07,2.73,2.73,0,0,1,1-2.23A3,3,0,0,1,151.17,17.12Zm-2.52,25.26V24.45h4.71V42.38Z"/><path class="cls-1" d="M173.34,25.83V15.51H178V30.39c0,2.13,0,3.51-.08,4.14a7.21,7.21,0,0,1-.45,1.95,9.85,9.85,0,0,1-3,4.25,9,9,0,0,1-5.87,2.11,8.88,8.88,0,0,1-6.87-3.07,9.09,9.09,0,0,1-2.44-6.25,9.21,9.21,0,0,1,1.24-4.6,9.38,9.38,0,0,1,3.47-3.57,9,9,0,0,1,4.56-1.2A6.48,6.48,0,0,1,173.34,25.83Zm-4.85,2.83a4.76,4.76,0,0,0-4.76,4.79,4.74,4.74,0,0,0,1.1,3,4.61,4.61,0,0,0,3.72,1.87,4.78,4.78,0,0,0,3.68-1.66,4.54,4.54,0,0,0,1.24-3.19,4.88,4.88,0,0,0-5-4.82Z"/><path class="cls-4" d="M199.87,28.15l-9.78,9.74a4,4,0,0,0,1.57.42,8.65,8.65,0,0,0,2.66-.4,15.47,15.47,0,0,0,3.82-2.12l-.06,4.94c-.73.46-1.38.83-1.93,1.12a9.23,9.23,0,0,1-4.27,1,9.61,9.61,0,0,1-8.27-4.75,8.94,8.94,0,0,1-1.22-4.55,9.74,9.74,0,0,1,4.82-8.3,9.45,9.45,0,0,1,10.44.72A16.14,16.14,0,0,1,199.87,28.15ZM187.43,35.2,193.59,29a5.69,5.69,0,0,0-1.83-.38,4.48,4.48,0,0,0-3.56,1.64,4.84,4.84,0,0,0-1.28,3.23A4.21,4.21,0,0,0,187.43,35.2Z"/><path class="cls-1" d="M226.11,42.38h-4.9l-.84-3a10.28,10.28,0,0,1-2.6,2.19,9.33,9.33,0,0,1-12.56-3.41,9,9,0,0,1-1.28-4.67,9.21,9.21,0,0,1,2.34-6.14,8.91,8.91,0,0,1,7.07-3.25A9.09,9.09,0,0,1,219,26a10.8,10.8,0,0,1,3.44,5.36ZM213.28,28.54a4.61,4.61,0,0,0-3.66,1.72,4.77,4.77,0,0,0-1.2,3.17,4.56,4.56,0,0,0,1.08,2.93,4.81,4.81,0,0,0,7.38.24,4.75,4.75,0,0,0,1.24-3.29,4.71,4.71,0,0,0-4.84-4.77Z"/><path class="cls-1" d="M81.25,75.08H76.66a1.8,1.8,0,0,1-.75-.16,1.66,1.66,0,0,1-.56-.41A1.84,1.84,0,0,1,75,73.9a2,2,0,0,1-.13-.74l0-8.64-3.12,0a2.9,2.9,0,0,0-1.2.25,3.09,3.09,0,0,0-1,.67,3.25,3.25,0,0,0-.67,1,2.9,2.9,0,0,0-.25,1.2v3.82c.51.1,1,.17,1.54.22s1,.06,1.57.06.91,0,1.37,0l.29,3.54-.84.05-.83,0a22.37,22.37,0,0,1-2.7-.17,16.08,16.08,0,0,1-2.54-.51,1.74,1.74,0,0,1-1-.61,1.7,1.7,0,0,1-.4-1.13V67.62A6.43,6.43,0,0,1,65.59,65,6.75,6.75,0,0,1,67,62.92a6.85,6.85,0,0,1,2.11-1.43,6.46,6.46,0,0,1,2.6-.53h4.39a2.06,2.06,0,0,1,.85.18,2.15,2.15,0,0,1,.71.47,2.39,2.39,0,0,1,.5.68,1.85,1.85,0,0,1,.19.84l0,8.39h2.84ZM68.56,57.18a1.86,1.86,0,0,1,.15-.75,1.89,1.89,0,0,1,.4-.62,2,2,0,0,1,1.35-.55,1.9,1.9,0,0,1,.75.15,1.85,1.85,0,0,1,.61.4,1.92,1.92,0,0,1,.41.62,1.93,1.93,0,0,1,0,1.49,1.94,1.94,0,0,1-.41.6,1.73,1.73,0,0,1-.61.41,1.9,1.9,0,0,1-.75.15,1.85,1.85,0,0,1-.74-.15,1.73,1.73,0,0,1-.61-.41,1.91,1.91,0,0,1-.4-.6A1.85,1.85,0,0,1,68.56,57.18Zm4.43,0a1.86,1.86,0,0,1,.15-.75,1.89,1.89,0,0,1,.4-.62,2,2,0,0,1,1.35-.55,1.93,1.93,0,0,1,.75.15,1.85,1.85,0,0,1,.61.4,1.92,1.92,0,0,1,.41.62,1.93,1.93,0,0,1,0,1.49,1.94,1.94,0,0,1-.41.6,1.73,1.73,0,0,1-.61.41,1.93,1.93,0,0,1-.75.15,1.85,1.85,0,0,1-.74-.15,1.73,1.73,0,0,1-.61-.41,1.91,1.91,0,0,1-.4-.6A1.85,1.85,0,0,1,73,57.18Z"/><path class="cls-1" d="M84.19,71.52v-10h3.54v10h3v3.56h-9.9V71.52Zm-2.53,8.07a2,2,0,0,1,.15-.75,1.87,1.87,0,0,1,.41-.61,1.78,1.78,0,0,1,.6-.41,1.86,1.86,0,0,1,.75-.15,1.93,1.93,0,0,1,.75.15,1.82,1.82,0,0,1,.61.41,1.94,1.94,0,0,1,.4,2.1,2.08,2.08,0,0,1-.4.61,2,2,0,0,1-.61.4,1.93,1.93,0,0,1-.75.15,1.86,1.86,0,0,1-.75-.15,1.91,1.91,0,0,1-.6-.4,2.11,2.11,0,0,1-.41-.61A2,2,0,0,1,81.66,79.59Zm4.43,0a1.91,1.91,0,0,1,.56-1.36,1.78,1.78,0,0,1,.6-.41,1.85,1.85,0,0,1,.74-.15,1.94,1.94,0,0,1,.76.15,1.82,1.82,0,0,1,.61.41,1.94,1.94,0,0,1,.4,2.1,2.08,2.08,0,0,1-.4.61,2,2,0,0,1-1.37.55,1.85,1.85,0,0,1-.74-.15,1.91,1.91,0,0,1-.6-.4,2.11,2.11,0,0,1-.41-.61A1.85,1.85,0,0,1,86.09,79.59Z"/><path class="cls-1" d="M90.52,75.08V71.52H93.7a6.91,6.91,0,0,1-.59-1.67A8.43,8.43,0,0,1,92.92,68a8.31,8.31,0,0,1,.42-2.62,6.94,6.94,0,0,1,1.25-2.26,6.12,6.12,0,0,1,2-1.59A6.19,6.19,0,0,1,99.46,61h4.35a2.2,2.2,0,0,1,.88.18,2.58,2.58,0,0,1,.72.5,2.33,2.33,0,0,1,.65,1.62v8.26h2.49v3.56Zm5.39-17.9a1.86,1.86,0,0,1,.15-.75,1.89,1.89,0,0,1,.4-.62,2,2,0,0,1,.61-.4,1.93,1.93,0,0,1,1.49,0,2,2,0,0,1,.62.4,1.89,1.89,0,0,1,.4.62,1.93,1.93,0,0,1,0,1.49,1.91,1.91,0,0,1-.4.6,1.94,1.94,0,0,1-2.11.41,1.82,1.82,0,0,1-.61-.41,1.91,1.91,0,0,1-.4-.6A1.85,1.85,0,0,1,95.91,57.18Zm.83,12.41a3.14,3.14,0,0,0,1,1.38,2.69,2.69,0,0,0,1.75.55h3.06v-7H99.46a2.78,2.78,0,0,0-1.33.3,3,3,0,0,0-.94.81,3.49,3.49,0,0,0-.55,1.13A4.65,4.65,0,0,0,96.46,68a5.12,5.12,0,0,0,.06.78A4.22,4.22,0,0,0,96.74,69.59Zm3.6-12.41a1.86,1.86,0,0,1,.15-.75,1.89,1.89,0,0,1,.4-.62,2,2,0,0,1,.61-.4,1.93,1.93,0,0,1,1.49,0,2,2,0,0,1,.62.4,1.89,1.89,0,0,1,.4.62,1.93,1.93,0,0,1,0,1.49,1.91,1.91,0,0,1-.4.6,1.94,1.94,0,0,1-2.11.41,1.82,1.82,0,0,1-.61-.41,1.91,1.91,0,0,1-.4-.6A1.85,1.85,0,0,1,100.34,57.18Z"/><path class="cls-1" d="M111.56,71.52v-10h3.54v10h3v3.56h-9.9V71.52ZM109,79.59a1.91,1.91,0,0,1,.56-1.36,1.78,1.78,0,0,1,.6-.41,1.86,1.86,0,0,1,.75-.15,1.93,1.93,0,0,1,.75.15,1.82,1.82,0,0,1,.61.41,1.94,1.94,0,0,1,.4,2.1,2.08,2.08,0,0,1-.4.61,2,2,0,0,1-.61.4,1.93,1.93,0,0,1-.75.15,1.86,1.86,0,0,1-.75-.15,1.91,1.91,0,0,1-.6-.4,2.11,2.11,0,0,1-.41-.61A1.85,1.85,0,0,1,109,79.59Zm4.43,0a1.91,1.91,0,0,1,.56-1.36,1.78,1.78,0,0,1,.6-.41,1.85,1.85,0,0,1,.74-.15,1.94,1.94,0,0,1,.76.15,1.82,1.82,0,0,1,.61.41,1.94,1.94,0,0,1,.4,2.1,2.08,2.08,0,0,1-.4.61,2,2,0,0,1-1.37.55,1.85,1.85,0,0,1-.74-.15,1.91,1.91,0,0,1-.6-.4,2.11,2.11,0,0,1-.41-.61A1.85,1.85,0,0,1,113.46,79.59Z"/><path class="cls-1" d="M117.89,75.08V71.52h3.18a6.91,6.91,0,0,1-.59-1.67,8.43,8.43,0,0,1-.19-1.81,8.31,8.31,0,0,1,.42-2.62A6.94,6.94,0,0,1,122,63.16,6.12,6.12,0,0,1,124,61.57a6.19,6.19,0,0,1,2.82-.61h4.35a2.2,2.2,0,0,1,.88.18,2.58,2.58,0,0,1,.72.5,2.33,2.33,0,0,1,.65,1.62v8.26h2.49v3.56Zm5.39-17.9a1.86,1.86,0,0,1,.15-.75,1.89,1.89,0,0,1,.4-.62,2.08,2.08,0,0,1,.61-.4,1.93,1.93,0,0,1,1.49,0,2,2,0,0,1,.62.4,1.89,1.89,0,0,1,.4.62,1.93,1.93,0,0,1,0,1.49,1.91,1.91,0,0,1-.4.6,1.94,1.94,0,0,1-2.11.41,1.87,1.87,0,0,1-1-1A1.85,1.85,0,0,1,123.28,57.18Zm.83,12.41a3.14,3.14,0,0,0,1,1.38,2.69,2.69,0,0,0,1.75.55h3.06v-7h-3.06a2.78,2.78,0,0,0-1.33.3,3,3,0,0,0-.94.81,3.49,3.49,0,0,0-.55,1.13,4.65,4.65,0,0,0-.18,1.28,5.12,5.12,0,0,0,.06.78A4.22,4.22,0,0,0,124.11,69.59Zm3.6-12.41a1.86,1.86,0,0,1,.15-.75,1.89,1.89,0,0,1,.4-.62,2,2,0,0,1,.61-.4,1.93,1.93,0,0,1,1.49,0,2,2,0,0,1,.62.4,1.89,1.89,0,0,1,.4.62,1.93,1.93,0,0,1,0,1.49,1.91,1.91,0,0,1-.4.6,1.94,1.94,0,0,1-2.11.41,1.82,1.82,0,0,1-.61-.41,1.91,1.91,0,0,1-.4-.6A1.85,1.85,0,0,1,127.71,57.18Z"/><path class="cls-1" d="M137.56,61c.58,0,1.22.09,1.9.11s1.39,0,2.11.1a20.16,20.16,0,0,1,2.17.29,10.28,10.28,0,0,1,2.11.64,8.16,8.16,0,0,1,1.91,1.15,7.3,7.3,0,0,1,1.58,1.83,10.48,10.48,0,0,1,1.1,2.68,16,16,0,0,1,.49,3.69h1.47v3.56H135.63V71.52h11.75a8.91,8.91,0,0,0-.68-3.23,5.9,5.9,0,0,0-1.45-2,5.42,5.42,0,0,0-1.95-1.1,11.17,11.17,0,0,0-2.15-.46,19.5,19.5,0,0,0-2-.11h-.43c-.56,0-1.06,0-1.49,0Z"/><path class="cls-1" d="M175.13,74.6a19.15,19.15,0,0,1-2.57.5,20,20,0,0,1-2.67.18c-.47,0-.94,0-1.39,0s-.9-.08-1.36-.14l-1.31-.2a5.8,5.8,0,0,1-1.26-.33,2.33,2.33,0,0,1-.95-.61,1.52,1.52,0,0,1-.37-1.09V67.62a6.43,6.43,0,0,1,.52-2.58,6.58,6.58,0,0,1,1.42-2.12,6.8,6.8,0,0,1,2.1-1.43,6.46,6.46,0,0,1,2.6-.53h4.4a2.11,2.11,0,0,1,.86.18,2.15,2.15,0,0,1,.71.47,2.36,2.36,0,0,1,.49.72,2.26,2.26,0,0,1,.18.9l0,9.63a1.75,1.75,0,0,1-.4,1.13A1.8,1.8,0,0,1,175.13,74.6Zm-8.68-17.42a1.86,1.86,0,0,1,.15-.75,1.77,1.77,0,0,1,.41-.62,1.91,1.91,0,0,1,.6-.4,1.93,1.93,0,0,1,1.49,0,2,2,0,0,1,.62.4,1.89,1.89,0,0,1,.4.62,1.93,1.93,0,0,1,0,1.49,1.91,1.91,0,0,1-.4.6,1.94,1.94,0,0,1-2.11.41,2,2,0,0,1-1-1A1.85,1.85,0,0,1,166.45,57.18Zm3.44,14.54c.55,0,1.08,0,1.59-.07s1-.12,1.52-.21V64.52l-3.11,0a2.9,2.9,0,0,0-1.2.25,3.09,3.09,0,0,0-1,.67,3.44,3.44,0,0,0-.67,1,2.9,2.9,0,0,0-.25,1.2l0,3.82a7.45,7.45,0,0,0,.88.17l.74.09.69,0Zm1-14.54a1.86,1.86,0,0,1,.15-.75,1.89,1.89,0,0,1,.4-.62,2.08,2.08,0,0,1,.61-.4,1.93,1.93,0,0,1,1.49,0,2,2,0,0,1,.62.4,1.89,1.89,0,0,1,.4.62,1.93,1.93,0,0,1,0,1.49,1.91,1.91,0,0,1-.4.6,1.94,1.94,0,0,1-2.11.41,1.87,1.87,0,0,1-1-1A1.85,1.85,0,0,1,170.88,57.18Z"/><path class="cls-1" d="M187.24,63.23c0,.88,0,1.84.09,2.9s.08,2.15.08,3.31c0,.7,0,1.39,0,2.08h2.44v3.56h-2.89a15.66,15.66,0,0,1-1,3.19,8.7,8.7,0,0,1-1.77,2.58,7.75,7.75,0,0,1-2.68,1.73,10.27,10.27,0,0,1-3.79.63V79.65a6.38,6.38,0,0,0,2.44-.42,4.8,4.8,0,0,0,1.7-1.16,5.91,5.91,0,0,0,1.1-1.75,10.22,10.22,0,0,0,.62-2.14,18.34,18.34,0,0,0,.27-2.4c0-.83.07-1.66.07-2.47,0-1.1,0-2.18-.07-3.23s-.06-2-.06-2.85Z"/><path class="cls-1" d="M189.19,71.52h16.05V69.8a12.45,12.45,0,0,0-.06-1.4,1.29,1.29,0,0,0-.26-.74,1,1,0,0,0-.63-.29,8.54,8.54,0,0,0-1.15-.06l-8.57,0a2.88,2.88,0,0,1-1.65-.43,2.36,2.36,0,0,1-.87-1.13,2.94,2.94,0,0,1-.2-1.09,3.13,3.13,0,0,1,0-.43,4.87,4.87,0,0,1,.49-1.68,10.74,10.74,0,0,1,2.38-3.17A13.78,13.78,0,0,1,198,57.09a15.56,15.56,0,0,1,3.8-1.32,16.12,16.12,0,0,1,3.35-.36,4.61,4.61,0,0,1,.53,0L205.61,59h-.42a13.54,13.54,0,0,0-2.41.23,12.78,12.78,0,0,0-2.81.89,10.81,10.81,0,0,0-2.45,1.52,7.18,7.18,0,0,0-1.76,2.16H202c.88,0,1.66,0,2.34,0a9.62,9.62,0,0,1,1.77.2,3.44,3.44,0,0,1,1.26.52,2.49,2.49,0,0,1,.83,1,4.72,4.72,0,0,1,.45,1.52,14.22,14.22,0,0,1,.14,2.24v2.29h2.73v3.56H189.19Z"/><path class="cls-1" d="M211.11,75.08V71.52h3.5a6.88,6.88,0,0,1-.58-1.67,8.43,8.43,0,0,1-.19-1.81,8.31,8.31,0,0,1,.42-2.62,6.94,6.94,0,0,1,1.25-2.26,6.19,6.19,0,0,1,4.87-2.2h4.35a2.12,2.12,0,0,1,.87.18,2.32,2.32,0,0,1,.72.5,2.06,2.06,0,0,1,.48.74,2.2,2.2,0,0,1,.18.88V73.31a1.56,1.56,0,0,1-.14.68,1.73,1.73,0,0,1-.38.57,2,2,0,0,1-.56.38,1.74,1.74,0,0,1-.69.14Zm6.54-5.49a3.16,3.16,0,0,0,1,1.38,2.68,2.68,0,0,0,1.75.55h3.06v-7h-3.06a2.82,2.82,0,0,0-1.34.3,3,3,0,0,0-.93.81,3.49,3.49,0,0,0-.55,1.13,4.32,4.32,0,0,0-.19,1.28,4.11,4.11,0,0,0,.07.78A4.18,4.18,0,0,0,217.65,69.59Zm1.74-12.41a1.86,1.86,0,0,1,.15-.75,1.89,1.89,0,0,1,.4-.62,2,2,0,0,1,.61-.4,1.81,1.81,0,0,1,.74-.15,1.93,1.93,0,0,1,.75.15,1.85,1.85,0,0,1,.61.4,1.92,1.92,0,0,1,.41.62,1.93,1.93,0,0,1,0,1.49,1.94,1.94,0,0,1-.41.6,1.73,1.73,0,0,1-.61.41,1.93,1.93,0,0,1-.75.15,1.91,1.91,0,0,1-1.35-.56,1.91,1.91,0,0,1-.4-.6A1.85,1.85,0,0,1,219.39,57.18Z"/></g></g></svg>