<svg xmlns="http://www.w3.org/2000/svg" viewBox="0 0 1000.72 630.34"><defs><style>.cls-1{fill:#fff;}.cls-2{fill:#d2d2d8;opacity:0.5;}.cls-3{fill:#dce5f7;}.cls-4{fill:#e2a3a3;}.cls-5{fill:#2b2b2b;}.cls-6{fill:#a87b7b;}</style></defs><title>Asset 10</title><g id="Layer_2" data-name="Layer 2"><g id="Layer_2-2" data-name="Layer 2"><path class="cls-1" d="M557.65,41a59.67,59.67,0,0,0-3.25,16.13c0,.51-.06,1-.08,1.53,0,.25,0,.51,0,.77a59.42,59.42,0,0,0,2.16,17.21c.47,1.68,1,3.35,1.62,5l.27.7c.18.47.37.93.56,1.39l.29.69c.2.46.4.91.61,1.37.42.9.87,1.8,1.33,2.68a59.76,59.76,0,0,0,51.42,31.94h0a58,58,0,0,0,9.24-.5,59.8,59.8,0,0,0,51.86-58.42,59.14,59.14,0,0,0-2.44-17.58,59.59,59.59,0,0,0-7.54-16.19c-.53-.8-1.07-1.59-1.64-2.36l-.58-.77c-.39-.51-.78-1-1.19-1.51a59.39,59.39,0,0,0-9.07-9h0a.47.47,0,0,1-.09-.06A59.89,59.89,0,0,0,613,1l-1.26,0a59.87,59.87,0,0,0-33.74,12c-.25.18-.49.36-.72.55s-.6.46-.89.7l-.34.28h0l-.76.64-1.22,1.07q-1.62,1.46-3.13,3c-.46.48-.91,1-1.36,1.46A59.59,59.59,0,0,0,557.65,41Z"/><path class="cls-2" d="M605.7,84.38l-.65,8.18L606.74,94l-.21,9.44,4.59,2,5.64,11.71L614.82,119l-2.26,1.41h0a58,58,0,0,0,9.24-.5h0l6.26-3.34,8.68-10.9,6.64-2.54,11.4-11.06-.2-10.69.94.33,4.33-2.24,8.85-8.19,5.25-7-.23-3.49L672.05,50.3l.77.41a60.63,60.63,0,0,0-1.59-6.81,59.59,59.59,0,0,0-7.54-16.19c-.53-.8-1.07-1.59-1.64-2.36l-.58-.77c-.38-.51-.78-1-1.18-1.51a49.24,49.24,0,0,0-9.08-9l-5.47,3.34-3.9,8.6-2.43,3.79-2.25,4.53,5.51,2.59,4.77,3.44,10.33,19.77,1.5,1.41,2-3.08,0-1.78,1.67-1,1.55,2.21,1.34,1.89L668,63.06l-2.43,3.46-.49-2.38-2.42-1.3-1.24,3.55-.38,3-2.06.83-1.36,6.71-3.44,1.66L654,77.18l-2.72-3.61-6.1,1.63L641.65,74l-7.79,3.91-5-.21-4.76,4.75Z"/><path class="cls-3" d="M636.46,15l-.38,3.62-4.45,5.75-3.14-1.77.38-3.62-6.71-6.11L625.05,9a4.56,4.56,0,0,1,5.14-1.8l2.55.79,6.56,2.74,2,2-.37,3Z"/><path class="cls-3" d="M557.65,41a59.5,59.5,0,0,0,3.49,47.45l1-.2V85.7l-.58-12.48,2.59-11.59,2.94-6.5,7.08-1.28,10.32,7.82,8.45-3.9,5.45-11.15V42.86l-2-10.67-5.19-6-3.68-1.51L577.38,21.8l1.17-3.95,6.82-.55-2.46,1.35L582.42,20l.92.54,1.67-1,2.11.29,4.48.47,2.72-.82.49,2.38,2.8,3.18,1.6,3.65,6.29,2.87,3.88-7.27,2.15-4-5.9-2.12-.45-5,4.77-1,7.19-7.88-5-1.53,1.41-1.5L613,1a61.13,61.13,0,0,0-37,13.58h0A59.47,59.47,0,0,0,557.65,41Z"/><path class="cls-3" d="M593.92,118a60.51,60.51,0,0,1-33.7-29.09c-.48-.93-.93-1.85-1.34-2.73-.22-.46-.42-.92-.62-1.38l-.3-.7c-.2-.48-.39-.95-.57-1.42l-.27-.71c-.61-1.62-1.17-3.33-1.66-5.07a60.81,60.81,0,0,1-2.19-17.52c0-.26,0-.52,0-.78,0-.51.05-1,.08-1.55a60.94,60.94,0,0,1,15.46-37l1.38-1.48c1-1.07,2.1-2.1,3.19-3.07l1.24-1.09.07-.05.7-.59.06-.05.19-.15.11-.09c.3-.25.61-.49.92-.72s.48-.38.74-.57A60.43,60.43,0,0,1,611.73,0L613,0a61,61,0,0,1,38.76,13.18s0,0,0,0l0,0a60.63,60.63,0,0,1,9.24,9.16c.38.47.77,1,1.2,1.54l.59.78c.56.76,1.11,1.54,1.67,2.4a60.45,60.45,0,0,1,7.67,16.47,59.12,59.12,0,0,1,1.61,6.93,60.78,60.78,0,0,1-61.29,70.9h0A60.8,60.8,0,0,1,593.92,118ZM576.7,15.44,576,16l-.06.05-1.19,1.05c-1,.94-2.09,1.93-3.08,3l-1.33,1.43A58.93,58.93,0,0,0,555.43,57.2c0,.5-.06,1-.07,1.5l0,.76a58.73,58.73,0,0,0,2.12,16.91c.48,1.69,1,3.34,1.6,4.9l.26.69c.18.46.36.91.55,1.36l.29.69c.19.44.4.89.6,1.34.4.85.83,1.73,1.3,2.63a58.72,58.72,0,0,0,50.54,31.39h0A58.72,58.72,0,0,0,669.33,80.1a58.56,58.56,0,0,0,3.3-18.63,58.19,58.19,0,0,0-2.39-17.28,58.86,58.86,0,0,0-7.41-15.91c-.55-.82-1.07-1.58-1.62-2.31-.18-.26-.37-.51-.56-.76-.41-.54-.8-1-1.17-1.49a58.31,58.31,0,0,0-8.88-8.82l-.06,0,0,0A58.8,58.8,0,0,0,613,2.07l-1.24,0a58.47,58.47,0,0,0-33.15,11.82l-.69.52-.89.7-.1.08-.25.21h0Z"/><path class="cls-4" d="M298.81,428.93l-40,.83,1.41,68.29-68.46,1.41-1.41-68.29L48.83,434.09l-1-48.86,141-217.09,64.61-1.33,4.3,208.41,40-.83Zm-109.56-52.3-1.16-56.25q-.28-14.07.29-40.86t1.17-31.11l-1.82,0a253,253,0,0,1-19.44,36.71l-58.93,93.12Z"/><path class="cls-5" d="M194.75,492l-.19,0-36.06-5.53a1.26,1.26,0,0,1-1.05-1.43l10.17-66.27-56.71-8.7a1.25,1.25,0,0,1-1-1.43,1.24,1.24,0,0,1,1.42-1l58,8.89a1.26,1.26,0,0,1,.81.49,1.24,1.24,0,0,1,.23.93l-10.17,66.28,34.83,5.34a1.25,1.25,0,0,1-.19,2.49Zm35.38-19.65h-.19a1.26,1.26,0,0,1-1.05-1.43l6.6-43a1.26,1.26,0,0,1,1.43-1.05l38.28,5.87,7.89-51.45-38.28-5.87a1.25,1.25,0,0,1-.82-.5,1.27,1.27,0,0,1-.22-.93l31.42-204.8-62-9.51L37.43,348.8a1.25,1.25,0,0,1-1.83-1.7L211.82,157.49a1.28,1.28,0,0,1,1.11-.39l63.87,9.8a1.27,1.27,0,0,1,1.05,1.43L246.43,373.14,284.71,379a1.24,1.24,0,0,1,1,1.42l-8.27,53.93a1.3,1.3,0,0,1-.49.82,1.29,1.29,0,0,1-.93.22l-38.28-5.87-6.41,41.78A1.26,1.26,0,0,1,230.13,472.37ZM177.32,365.05h-.19l-79-12.12a1.26,1.26,0,0,1-.74-2.08l40.4-44.5a1.25,1.25,0,0,1,1.85,1.68L100.83,350.8l75.44,11.57L184.61,308c1.43-9.3,3.89-22.84,7.32-40.25,2.82-14.28,4.75-23.54,5.87-28.09a255.62,255.62,0,0,1-24.48,31.27l-16.81,18.53a1.25,1.25,0,0,1-1.86-1.68l16.83-18.53a252.82,252.82,0,0,0,25.34-32.66,1.28,1.28,0,0,1,1.24-.56l1.8.28a1.23,1.23,0,0,1,.87.58,1.27,1.27,0,0,1,.13,1c-.87,2.69-3,12.89-6.47,30.3s-5.88,30.89-7.3,40.15L178.55,364a1.24,1.24,0,0,1-.49.82A1.26,1.26,0,0,1,177.32,365.05Z"/><path class="cls-4" d="M576.53,310.43q34,79.86,24.13,129.38t-64.35,72.71q-52.81,22.49-96.5-5.71T363.18,401.25q-34.35-80.69-24.55-130.06t64.08-72.48q52.82-22.49,96.89,6T576.53,310.43ZM427.28,374.09q23.87,56.09,43.93,76.24t43,10.36q22.56-9.6,22.12-38.47t-24.06-84.33q-23.88-56.08-44.44-76.28T425,250.94q-22.79,9.71-22.16,38.38T427.28,374.09Z"/><path class="cls-5" d="M492.1,504.11q-4.47,0-8.78-.36a1.25,1.25,0,1,1,.21-2.49,121.32,121.32,0,0,0,35.53-2.68c38-8.22,63.54-27.91,76-58.54,12.52-30.81,12.72-74.84.6-130.88-5.5-25.43-12.56-47.83-21-66.6a1.25,1.25,0,0,1,.62-1.66,1.26,1.26,0,0,1,1.66.63c8.5,18.93,15.62,41.51,21.16,67.1,12.23,56.54,12,101.07-.73,132.35a91.78,91.78,0,0,1-29.13,38.73c-12.9,10-29.27,17.12-48.66,21.31A130,130,0,0,1,492.1,504.11ZM498.74,447a35.07,35.07,0,0,1-6.11-.52,1.25,1.25,0,0,1,.43-2.46,36.49,36.49,0,0,0,14.09-.46c15.57-3.36,24.73-14,28-32.61s.68-48-7.74-86.88a1.25,1.25,0,0,1,2.45-.53c8.49,39.25,11.09,68.8,7.75,87.84-3.42,19.42-13.49,31.07-29.93,34.63A42.42,42.42,0,0,1,498.74,447Zm-28.11-14.49a1.27,1.27,0,0,1-1-.46c-1.23-1.49-2.44-3.13-3.6-4.85-10.64-15.77-20.39-43.89-29-83.59s-11.31-69.42-8.09-88.34c3.28-19.31,13.36-30.93,30-34.52,16.3-3.53,30.24,2.89,41.43,19.07,8.62,12.46,16.61,32.54,23.75,59.68a1.24,1.24,0,0,1-.89,1.52,1.25,1.25,0,0,1-1.53-.89c-7.06-26.85-14.93-46.67-23.38-58.89-10.72-15.48-23.42-21.39-38.85-18-15.73,3.4-24.89,14-28,32.5s-.44,48,8.08,87.39,18.14,67.22,28.6,82.72c1.12,1.66,2.28,3.23,3.47,4.67a1.24,1.24,0,0,1-.18,1.75A1.19,1.19,0,0,1,470.63,432.47ZM361.07,282.89h0a1.25,1.25,0,0,1-1.25-1.25c.1-22,3.34-41,9.65-56.55a91.27,91.27,0,0,1,29-38.62c12.85-9.92,29.16-17.07,48.47-21.25,18.81-4.07,36.35-4.07,52.13,0s30.28,12.31,43,24.51A137,137,0,0,1,560,210.93a1.25,1.25,0,0,1-2.06,1.42,135.15,135.15,0,0,0-17.53-20.82c-24.84-23.8-56.09-31.83-92.89-23.87-37.83,8.19-63.3,27.82-75.69,58.37-6.19,15.25-9.37,34-9.47,55.62A1.24,1.24,0,0,1,361.07,282.89Z"/><path class="cls-4" d="M870.42,430.83l-39.59,5.57L840.34,504l-67.81,9.53L763,445.93l-140.2,19.7-6.8-48.4L730.24,184.94l64-9,29,206.42,39.59-5.56Zm-115-38.93-7.83-55.71q-2-13.94-4.56-40.6t-2.53-31l-1.8.25a253.31,253.31,0,0,1-15,38.76L676.31,403Z"/><path class="cls-5" d="M801.77,497a1.24,1.24,0,0,1-1.2-.92l-17.8-64.65-135.3,37.25a1.24,1.24,0,0,1-1.53-.88l-13-47.11a1.24,1.24,0,0,1,0-.74l62.09-182.49a1.25,1.25,0,0,1,2.37.81l-62,182.12L648,466l135.3-37.24a1.25,1.25,0,0,1,1.54.88l17.79,64.64,63.61-17.51-17.79-64.64a1.25,1.25,0,0,1,.87-1.54l37.34-10.28-13.81-50.19-37.34,10.28a1.25,1.25,0,0,1-1.54-.87l-8-29a1.25,1.25,0,0,1,2.41-.66l7.66,27.82,37.34-10.28a1.25,1.25,0,0,1,1.54.88l14.47,52.59a1.24,1.24,0,0,1-.87,1.54L851.2,412.63,869,477.28a1.25,1.25,0,0,1-.88,1.53L802.1,497A1,1,0,0,1,801.77,497ZM692.13,399.79a1.25,1.25,0,0,1-1.19-1.64L725.2,293.41a252,252,0,0,0,9.8-40.16,1.25,1.25,0,0,1,.9-1l1.75-.48a1.25,1.25,0,0,1,1.58,1.06c.31,2.82,2.49,13,6.47,30.31s7.25,30.59,9.74,39.62L770.37,377a1.26,1.26,0,0,1-.87,1.54l-77,21.2A1.26,1.26,0,0,1,692.13,399.79Zm45-144.14a257.34,257.34,0,0,1-9.57,38.54L694,396.71l73.59-20.25-14.6-53c-2.5-9.07-5.78-22.44-9.76-39.73C740,269.51,738,260.26,737.15,255.65Zm82.13,47a1.24,1.24,0,0,1-1.2-.92l-.89-3.21h0L779,159.72l-60.46,16.64-14,41.19a1.25,1.25,0,0,1-2.37-.8l14.23-41.82a1.27,1.27,0,0,1,.86-.81L779.53,157a1.25,1.25,0,0,1,1.54.88l38.53,140h0l.89,3.21a1.26,1.26,0,0,1-.88,1.54A1.24,1.24,0,0,1,819.28,302.63Z"/><polygon class="cls-6" points="246.15 84.97 249.48 91.27 255.59 94.72 249.48 98.17 246.15 104.48 242.81 98.17 236.7 94.72 242.81 91.27 246.15 84.97"/><polygon class="cls-6" points="928.95 415.62 932.29 421.93 938.39 425.38 932.29 428.82 928.95 435.13 925.61 428.82 919.5 425.38 925.61 421.93 928.95 415.62"/><polygon class="cls-6" points="35.27 499.45 38.6 505.76 44.71 509.21 38.6 512.65 35.27 518.96 31.93 512.65 25.82 509.21 31.93 505.76 35.27 499.45"/><polygon class="cls-6" points="794.17 113.81 797.5 120.12 803.61 123.56 797.5 127.01 794.17 133.32 790.83 127.01 784.72 123.56 790.83 120.12 794.17 113.81"/><path class="cls-5" d="M894.14,305.64c-6.3,0-12.41-2.79-14.59-8.83a15.22,15.22,0,0,1-.83-3.8,18.8,18.8,0,0,1-7.44-5.42,16.89,16.89,0,0,1-4.18-9.06,1.25,1.25,0,1,1,2.49-.23,14.55,14.55,0,0,0,3.59,7.67,17.47,17.47,0,0,0,5.5,4.31,20.28,20.28,0,0,1,.37-2.84c.55-2.8,1.62-4.69,3.27-5.78a5.69,5.69,0,0,1,8.72,5.87,7,7,0,0,1-2.23,3.73,8.89,8.89,0,0,1-6.77,2.48l-.72-.07a12,12,0,0,0,.58,2.29c2.67,7.41,12.1,8.15,18,6.31l.59-.2a15.2,15.2,0,0,0,4.39-2.4,1.25,1.25,0,0,1,1.56,1.95,17.61,17.61,0,0,1-5.11,2.8c-.22.09-.45.16-.68.23A21.41,21.41,0,0,1,894.14,305.64Zm-13-14.53a7.25,7.25,0,0,0,1,.13,6.52,6.52,0,0,0,4.94-1.81,4.75,4.75,0,0,0,1.47-2.39,3.19,3.19,0,0,0-4.89-3.3c-1.06.71-1.78,2.08-2.2,4.19A17.68,17.68,0,0,0,881.15,291.11Z"/><path class="cls-5" d="M1.25,302.46a1.25,1.25,0,0,1-1.2-.89A1.26,1.26,0,0,1,.89,300c3-.89,9.91-3.2,14.84-6.8a21.76,21.76,0,0,1-6.94-5c-2.09-2.28-2.93-4.49-2.49-6.58a6.94,6.94,0,0,1,4-4.57,10,10,0,0,1,8.79-.07,8.18,8.18,0,0,1,4.49,6c.66,3.6-.65,6.69-3,9.3a17,17,0,0,0,6.43.15,14.32,14.32,0,0,0,11-8.87,1.25,1.25,0,0,1,2.3,1,16.8,16.8,0,0,1-12.89,10.36,19.76,19.76,0,0,1-9-.59c-5.08,4.23-12.6,6.9-16.87,8.17A1.12,1.12,0,0,1,1.25,302.46Zm13.56-24a7.6,7.6,0,0,0-3.39.79c-.7.35-2.36,1.32-2.67,2.84s.84,3.25,1.88,4.38a19.08,19.08,0,0,0,7.26,4.93c2.36-2.27,3.79-5,3.23-8A5.73,5.73,0,0,0,18,279.18,7.18,7.18,0,0,0,14.81,278.46Z"/><polygon class="cls-1" points="130.97 537.25 125.31 538.21 124.61 528.61 123.29 526.82 130.97 537.25"/><polygon class="cls-4" points="123.29 526.82 116.44 517.5 88.14 547.99 139.01 548.17 130.97 537.25 123.29 526.82"/><polygon class="cls-5" points="133.44 521.51 96.26 545.08 130.95 537.26 133.44 521.51"/><path class="cls-5" d="M151.27,522.15a1.32,1.32,0,0,1-.46-2.55l4.21-1.55a1.31,1.31,0,0,1,.9,2.47l-4.2,1.55A1.42,1.42,0,0,1,151.27,522.15Zm12.6-4.64a1.32,1.32,0,0,1-.45-2.55l4.2-1.55a1.32,1.32,0,1,1,.91,2.47l-4.2,1.55A1.44,1.44,0,0,1,163.87,517.51Zm12.61-4.64a1.32,1.32,0,0,1-.45-2.55l4.2-1.55a1.32,1.32,0,0,1,.91,2.47l-4.2,1.55A1.48,1.48,0,0,1,176.48,512.87Zm12.61-4.64a1.32,1.32,0,0,1-.45-2.55l4.2-1.55a1.32,1.32,0,0,1,.91,2.47l-4.21,1.55A1.42,1.42,0,0,1,189.09,508.23Zm12.61-4.64a1.32,1.32,0,0,1-.46-2.55l4.21-1.55a1.31,1.31,0,0,1,.9,2.47l-4.2,1.55A1.42,1.42,0,0,1,201.7,503.59ZM214.31,499a1.32,1.32,0,0,1-.46-2.55l4.2-1.55a1.32,1.32,0,1,1,.91,2.47l-4.2,1.55A1.42,1.42,0,0,1,214.31,499Zm12.6-4.64a1.32,1.32,0,0,1-.45-2.55l4.2-1.55a1.32,1.32,0,0,1,.91,2.47l-4.2,1.55A1.24,1.24,0,0,1,226.91,494.31Zm12.61-4.64a1.32,1.32,0,0,1-.45-2.55l4.2-1.55a1.32,1.32,0,0,1,.91,2.47L240,489.59A1.19,1.19,0,0,1,239.52,489.67Z"/><path class="cls-5" d="M378.76,590.92a1.27,1.27,0,0,1-1.1-.65,1.26,1.26,0,0,1,.5-1.7l16.41-9a1.24,1.24,0,0,1,1.69.5,1.26,1.26,0,0,1-.49,1.7l-16.41,9A1.17,1.17,0,0,1,378.76,590.92Z"/><path class="cls-5" d="M403.77,630.34a1.24,1.24,0,0,1-1.23-1l-10.65-59.72a1.25,1.25,0,0,1,2.46-.44L405,628.87a1.25,1.25,0,0,1-1,1.45A.86.86,0,0,1,403.77,630.34Z"/><path class="cls-5" d="M370.69,630.23a1.07,1.07,0,0,1-.25,0,1.25,1.25,0,0,1-1-1.47l11.87-59.49a1.26,1.26,0,0,1,1.47-1,1.24,1.24,0,0,1,1,1.47l-11.87,59.49A1.26,1.26,0,0,1,370.69,630.23Z"/><path class="cls-5" d="M448.64,630.34a1.23,1.23,0,0,1-1.22-1L434,554.19a1.25,1.25,0,1,1,2.46-.44l13.4,75.12a1.25,1.25,0,0,1-1,1.45A.9.9,0,0,1,448.64,630.34Z"/><path class="cls-5" d="M415.76,630.23l-.24,0a1.25,1.25,0,0,1-1-1.47l11.87-59.49a1.25,1.25,0,0,1,2.46.49L417,629.22A1.26,1.26,0,0,1,415.76,630.23Z"/><path class="cls-5" d="M431.45,571.42A34.39,34.39,0,0,1,413,576.77H358.42a4.86,4.86,0,1,1,0-9.72h68.2A4.85,4.85,0,0,1,431.45,571.42Z"/><path class="cls-1" d="M444.13,557a34.58,34.58,0,0,1-30.38,18.08,34,34,0,0,1-24.07-9.72c-11.43-11.18-9.53-28.5,1.13-43.45,14.8-20.76,32.7-33,54.53-27.46C470.14,500.72,456,535.2,444.13,557Z"/><path class="cls-5" d="M413.75,576.32a35.46,35.46,0,0,1-24.95-10.07c-11.14-10.91-10.75-28.61,1-45.08,16.86-23.65,35.65-33,55.84-27.94,6.25,1.58,10.56,5,12.81,10.14,6,13.69-3.88,37-13.22,54.21a35.85,35.85,0,0,1-31.48,18.74Zm21.12-82c-15.37,0-29.53,9.33-43,28.28-11,15.42-11.49,31.84-1.28,41.84a33.38,33.38,0,0,0,41,4.21A33.52,33.52,0,0,0,443,556.39h0c9.08-16.69,18.72-39.25,13.13-52-2-4.46-5.59-7.32-11.13-8.72A41.42,41.42,0,0,0,434.87,494.34Z"/><path class="cls-5" d="M423.6,590.92a1.25,1.25,0,0,1-.6-2.35l16.41-9a1.25,1.25,0,0,1,1.2,2.2l-16.4,9A1.24,1.24,0,0,1,423.6,590.92Z"/><path class="cls-6" d="M329.4,192.68q42.48,26,90.29,13.24a14,14,0,0,0,9.39-8.17q24.54-59.59-7.07-97.67Z"/><ellipse class="cls-1" cx="375.7" cy="146.38" rx="65.48" ry="32.36" transform="translate(6.53 308.54) rotate(-45)"/><path class="cls-5" d="M344.28,199.3c-6.56,0-11.95-1.92-15.76-5.73-5.57-5.58-7.13-14.82-4.38-26a1.25,1.25,0,1,1,2.42.59c-2.53,10.33-1.2,18.73,3.73,23.66,12.13,12.13,42.37,1.62,67.41-23.42a125.09,125.09,0,0,0,14.74-17.65,1.25,1.25,0,1,1,2.07,1.41,127.06,127.06,0,0,1-15,18C387,182.65,372.79,192,359.54,196.48A47.94,47.94,0,0,1,344.28,199.3Z"/><path class="cls-5" d="M331.65,153a1.18,1.18,0,0,1-.58-.14,1.26,1.26,0,0,1-.53-1.69,120.27,120.27,0,0,1,21.4-28.52c12.5-12.5,26.68-21.86,39.93-26.34,13.54-4.59,24.56-3.55,31,2.91,7.67,7.68,7.67,21.64,0,38.32a1.25,1.25,0,1,1-2.27-1c7.1-15.45,7.29-28.72.5-35.51-5.75-5.76-15.86-6.58-28.45-2.31-12.89,4.36-26.73,13.5-39,25.73a117.59,117.59,0,0,0-20.95,27.92A1.25,1.25,0,0,1,331.65,153Z"/><ellipse class="cls-6" cx="357.17" cy="158.34" rx="11.25" ry="7.81" transform="translate(-7.35 298.93) rotate(-45)"/><ellipse class="cls-6" cx="388.78" cy="126.73" rx="11.25" ry="7.81" transform="translate(24.26 312.03) rotate(-45)"/><path class="cls-5" d="M605.63,623.44a1.18,1.18,0,0,1-.48-.1,1.25,1.25,0,0,1-.68-1.63c2.36-5.67,13.14-10.3,17-11.19,10.76-2.45,21.65-1.09,32.17.23,9.82,1.22,20,2.49,29.83.58a17.82,17.82,0,0,0,12.67-9.26,19.73,19.73,0,0,0,.4-17.15c-5.52-12.69-19.82-18.41-30.38-19.45-14-1.38-28.57,3.22-42.69,7.67-4.8,1.51-9.34,2.94-13.86,4.14-1.17.32-2.35.62-3.53.91a1.25,1.25,0,1,1-.6-2.42c1.16-.29,2.33-.59,3.48-.9,4.47-1.19,9-2.61,13.76-4.12,14.36-4.52,29.2-9.2,43.68-7.77,11.78,1.16,26.49,7.27,32.43,20.94a22.24,22.24,0,0,1-.47,19.31A20.29,20.29,0,0,1,684,613.78c-10.23,2-20.59.7-30.6-.55-10.32-1.29-21-2.62-31.31-.27-3.72.85-13.39,5.17-15.28,9.71A1.24,1.24,0,0,1,605.63,623.44Z"/><path class="cls-5" d="M570.2,583c-17.16,0-31.93-3.94-44-11.76C518,566,512.64,558.1,511.49,549.57c-1.08-8,1.54-15.91,7.36-22.43,9.37-10.49,24.87-18.17,40.46-20.05a75.17,75.17,0,0,1,54.18,14.41,1.25,1.25,0,0,1-1.52,2,72.65,72.65,0,0,0-52.36-13.92c-15,1.81-29.91,9.18-38.89,19.23-5.33,6-7.73,13.23-6.76,20.44,1.06,7.8,6,15.07,13.56,19.94,14.69,9.48,33.5,13.05,55.91,10.61a1.25,1.25,0,1,1,.27,2.49A129.06,129.06,0,0,1,570.2,583Z"/><path class="cls-6" d="M634.45,428.33q-38.06,29-43.25,76.25a13.47,13.47,0,0,0,4,11.24q44.84,42.69,89.92,27.63Z"/><ellipse class="cls-1" cx="659.81" cy="485.89" rx="31.08" ry="62.9" transform="translate(-139.9 307.27) rotate(-23.78)"/><path class="cls-5" d="M678.52,546.4c-6.3,0-13.38-2.94-20.6-8.65a1.59,1.59,0,0,1,2-2.5c9.21,7.29,18,9.68,24.63,6.74,7-3.09,11.18-11.73,11.73-24.33.57-13-2.79-28.5-9.47-43.66S671,445.9,661,437.55a1.59,1.59,0,0,1,2-2.44c10.35,8.66,19.83,22,26.7,37.61s10.33,31.6,9.74,45.08c-.61,13.88-5.46,23.51-13.64,27.11A17.91,17.91,0,0,1,678.52,546.4Z"/><path class="cls-5" d="M643.21,521.06a1.58,1.58,0,0,1-1.3-.67,121.74,121.74,0,0,1-12-21.32c-6.87-15.6-10.33-31.61-9.74-45.09.61-13.87,5.46-23.5,13.64-27.11a19.73,19.73,0,0,1,13.24-.68,1.59,1.59,0,1,1-.82,3.08,16.59,16.59,0,0,0-11.14.52c-7,3.09-11.18,11.73-11.73,24.33-.57,13,2.79,28.51,9.47,43.66a117.92,117.92,0,0,0,11.68,20.76,1.61,1.61,0,0,1-.38,2.23A1.57,1.57,0,0,1,643.21,521.06Z"/><path class="cls-6" d="M672.08,509.33a6.76,6.76,0,0,1-2.72-12.94l32-14.11a6.76,6.76,0,1,1,5.45,12.37l-32,14.1A6.72,6.72,0,0,1,672.08,509.33Z"/><path class="cls-6" d="M656.28,473.47a6.76,6.76,0,0,1-2.72-12.94l32-14.1A6.75,6.75,0,1,1,691,458.79l-32,14.1A6.72,6.72,0,0,1,656.28,473.47Z"/><polygon class="cls-1" points="952.48 202.83 958.59 205.19 953.69 215 953.94 217.53 952.48 202.83"/><polygon class="cls-4" points="953.94 217.53 955.25 230.66 1000.72 217.21 950.95 187.45 952.48 202.83 953.94 217.53"/><polygon class="cls-5" points="940.9 216.84 991.07 215.34 952.51 202.84 940.9 216.84"/><path class="cls-5" d="M919,200.36a1.2,1.2,0,0,1-.38-.05L913.72,199a1.5,1.5,0,0,1,.77-2.9l4.94,1.32a1.5,1.5,0,0,1-.39,2.94Zm-14.8-3.94a1.58,1.58,0,0,1-.38,0l-4.94-1.32a1.5,1.5,0,0,1,.77-2.9l4.94,1.32a1.5,1.5,0,0,1-.39,2.95Zm-14.8-3.95a1.28,1.28,0,0,1-.38-.05l-4.94-1.31a1.5,1.5,0,1,1,.78-2.9l4.93,1.31a1.5,1.5,0,0,1-.39,2.95Zm-14.8-3.94a1.73,1.73,0,0,1-.38-.05l-4.94-1.32a1.49,1.49,0,0,1-1.06-1.83,1.51,1.51,0,0,1,1.84-1.07l4.93,1.32a1.5,1.5,0,0,1-.39,2.95Zm-14.8-3.95a1.28,1.28,0,0,1-.38-.05l-4.94-1.31a1.5,1.5,0,1,1,.78-2.9l4.93,1.31a1.5,1.5,0,0,1-.39,3ZM845,180.64a1.73,1.73,0,0,1-.38,0l-4.94-1.32a1.49,1.49,0,0,1-1.06-1.83,1.51,1.51,0,0,1,1.84-1.07l4.93,1.32a1.5,1.5,0,0,1-.39,2.95Zm-14.79-3.95a1.31,1.31,0,0,1-.39-.05l-4.94-1.31a1.5,1.5,0,1,1,.78-2.9l4.93,1.31a1.5,1.5,0,0,1-.38,2.95Z"/></g></g></svg>