<svg xmlns="http://www.w3.org/2000/svg" xmlns:xlink="http://www.w3.org/1999/xlink" viewBox="0 0 1087.25 858.77"><defs><style>.cls-1{opacity:0.87;}.cls-2{opacity:0.42;fill:url(#linear-gradient);}.cls-3{opacity:0.61;fill:url(#linear-gradient-2);}.cls-4{fill:url(#linear-gradient-3);}.cls-5{opacity:0.59;fill:url(#linear-gradient-4);}.cls-6{fill:url(#linear-gradient-5);}.cls-7{opacity:0.47;fill:url(#linear-gradient-6);}.cls-8{fill:url(#linear-gradient-7);}.cls-9{fill:url(#linear-gradient-8);}.cls-10{fill:url(#linear-gradient-9);}.cls-11{fill:url(#linear-gradient-10);}.cls-12{fill:url(#linear-gradient-11);}.cls-13{fill:url(#linear-gradient-12);}.cls-14{fill:url(#linear-gradient-13);}.cls-15{fill:url(#linear-gradient-14);}.cls-16{fill:url(#linear-gradient-15);}.cls-17{fill:url(#linear-gradient-16);}.cls-18{fill:url(#linear-gradient-17);}.cls-19{fill:url(#linear-gradient-18);}.cls-20{fill:url(#linear-gradient-19);}.cls-21{fill:url(#linear-gradient-20);}.cls-22{fill:url(#linear-gradient-21);}.cls-23{fill:none;stroke:#252828;stroke-linecap:round;stroke-miterlimit:10;stroke-width:0.9px;}.cls-24{fill:url(#linear-gradient-22);}.cls-25{fill:url(#linear-gradient-23);}.cls-26{fill:url(#linear-gradient-24);}.cls-27{fill:url(#linear-gradient-25);}.cls-28{fill:url(#linear-gradient-26);}.cls-29{fill:url(#linear-gradient-27);}</style><linearGradient id="linear-gradient" x1="1624.18" y1="425.9" x2="1624.18" y2="682.89" gradientTransform="matrix(-1, 0, 0, 1, 2158.54, 0)" gradientUnits="userSpaceOnUse"><stop offset="0" stop-color="#cf8282"/><stop offset="0.17" stop-color="#cf8282" stop-opacity="0.78"/><stop offset="0.47" stop-color="#cf8282" stop-opacity="0.45"/><stop offset="0.71" stop-color="#cf8282" stop-opacity="0.21"/><stop offset="0.9" stop-color="#cf8282" stop-opacity="0.06"/><stop offset="1" stop-color="#cf8282" stop-opacity="0"/></linearGradient><linearGradient id="linear-gradient-2" x1="1870.83" y1="342.17" x2="1870.83" y2="479.27" gradientTransform="matrix(-1, 0, 0, 1, 2158.54, 0)" gradientUnits="userSpaceOnUse"><stop offset="0" stop-color="#cf8282"/><stop offset="0.25" stop-color="#cf8282" stop-opacity="0.69"/><stop offset="0.51" stop-color="#cf8282" stop-opacity="0.4"/><stop offset="0.73" stop-color="#cf8282" stop-opacity="0.18"/><stop offset="0.9" stop-color="#cf8282" stop-opacity="0.05"/><stop offset="1" stop-color="#cf8282" stop-opacity="0"/></linearGradient><linearGradient id="linear-gradient-3" x1="1741.42" y1="351.12" x2="1741.42" y2="595.92" gradientTransform="matrix(-1, 0, 0, 1, 2158.54, 0)" gradientUnits="userSpaceOnUse"><stop offset="0" stop-color="#cf8282"/><stop offset="0.08" stop-color="#cf8282" stop-opacity="0.87"/><stop offset="0.26" stop-color="#cf8282" stop-opacity="0.61"/><stop offset="0.43" stop-color="#cf8282" stop-opacity="0.39"/><stop offset="0.59" stop-color="#cf8282" stop-opacity="0.22"/><stop offset="0.75" stop-color="#cf8282" stop-opacity="0.1"/><stop offset="0.89" stop-color="#cf8282" stop-opacity="0.03"/><stop offset="1" stop-color="#cf8282" stop-opacity="0"/></linearGradient><linearGradient id="linear-gradient-4" x1="623.16" y1="555.1" x2="623.16" y2="668.15" gradientTransform="translate(236.06)" gradientUnits="userSpaceOnUse"><stop offset="0" stop-color="#cf8282"/><stop offset="0.12" stop-color="#cf8282" stop-opacity="0.84"/><stop offset="0.35" stop-color="#cf8282" stop-opacity="0.54"/><stop offset="0.56" stop-color="#cf8282" stop-opacity="0.31"/><stop offset="0.75" stop-color="#cf8282" stop-opacity="0.14"/><stop offset="0.9" stop-color="#cf8282" stop-opacity="0.04"/><stop offset="1" stop-color="#cf8282" stop-opacity="0"/></linearGradient><linearGradient id="linear-gradient-5" x1="1622.81" y1="258.09" x2="1622.81" y2="677.32" gradientTransform="matrix(-1, 0, 0, 1, 2158.54, 0)" gradientUnits="userSpaceOnUse"><stop offset="0" stop-color="#cf8282"/><stop offset="0.25" stop-color="#cf8282" stop-opacity="0.73"/><stop offset="0.77" stop-color="#cf8282" stop-opacity="0.21"/><stop offset="1" stop-color="#cf8282" stop-opacity="0"/></linearGradient><linearGradient id="linear-gradient-6" x1="-175.6" y1="797.9" x2="769.04" y2="-60.34" gradientUnits="userSpaceOnUse"><stop offset="0" stop-color="#c66665"/><stop offset="1" stop-color="#d4b6b5"/></linearGradient><linearGradient id="linear-gradient-7" x1="1614.92" y1="405.43" x2="1614.92" y2="742.89" gradientTransform="matrix(-1, 0, 0, 1, 2158.54, 0)" gradientUnits="userSpaceOnUse"><stop offset="0" stop-color="#cf8282"/><stop offset="1" stop-color="#cf8282" stop-opacity="0"/></linearGradient><linearGradient id="linear-gradient-8" x1="1962.48" y1="272.97" x2="1991.3" y2="708.97" gradientTransform="matrix(-1, 0, 0, 1, 2158.54, 0)" gradientUnits="userSpaceOnUse"><stop offset="0" stop-color="#252828"/><stop offset="1" stop-color="#ad6868"/></linearGradient><linearGradient id="linear-gradient-9" x1="1768.67" y1="196.32" x2="1952.97" y2="196.32" gradientTransform="matrix(-1, 0, 0, 1, 2158.54, 0)" gradientUnits="userSpaceOnUse"><stop offset="0" stop-color="#cf8282"/><stop offset="0.27" stop-color="#ad7070"/><stop offset="0.57" stop-color="#906161"/><stop offset="0.82" stop-color="#7d5757"/><stop offset="1" stop-color="#775454"/></linearGradient><linearGradient id="linear-gradient-10" x1="1880.39" y1="114.73" x2="1878.89" y2="155.82" xlink:href="#linear-gradient-9"/><linearGradient id="linear-gradient-11" x1="1934.29" y1="67.44" x2="1964.17" y2="163.07" xlink:href="#linear-gradient-9"/><linearGradient id="linear-gradient-12" x1="2023.31" y1="99.61" x2="1980.35" y2="181.42" xlink:href="#linear-gradient-9"/><linearGradient id="linear-gradient-13" x1="2087.43" y1="193.81" x2="1944.32" y2="201.98" xlink:href="#linear-gradient-9"/><linearGradient id="linear-gradient-14" x1="2027.85" y1="242.68" x2="1991.05" y2="271.88" xlink:href="#linear-gradient-9"/><linearGradient id="linear-gradient-15" x1="1885.32" y1="278.87" x2="1959.42" y2="278.87" xlink:href="#linear-gradient-9"/><linearGradient id="linear-gradient-16" x1="1815.84" y1="240.8" x2="1959.43" y2="240.8" xlink:href="#linear-gradient-9"/><linearGradient id="linear-gradient-17" x1="1766.45" y1="562.6" x2="1770.42" y2="731.92" xlink:href="#linear-gradient-9"/><linearGradient id="linear-gradient-18" x1="1648.76" y1="561.44" x2="1665.46" y2="714.38" xlink:href="#linear-gradient-9"/><linearGradient id="linear-gradient-19" x1="1698.07" y1="440.96" x2="1634.88" y2="562.82" xlink:href="#linear-gradient-9"/><linearGradient id="linear-gradient-20" x1="1834.56" y1="703.4" x2="1797.27" y2="492.9" xlink:href="#linear-gradient-9"/><linearGradient id="linear-gradient-21" x1="1712.66" y1="729.68" x2="1695.97" y2="485.64" xlink:href="#linear-gradient-9"/><linearGradient id="linear-gradient-22" x1="1323.9" y1="798.75" x2="1323.9" y2="821.02" xlink:href="#linear-gradient-7"/><linearGradient id="linear-gradient-23" x1="1996.39" y1="803.88" x2="1996.39" y2="826.15" xlink:href="#linear-gradient-7"/><linearGradient id="linear-gradient-24" x1="1646.14" y1="828.28" x2="1646.14" y2="846.82" xlink:href="#linear-gradient-7"/><linearGradient id="linear-gradient-25" x1="1372.6" y1="817.1" x2="1372.6" y2="831.9" xlink:href="#linear-gradient-7"/><linearGradient id="linear-gradient-26" x1="1916.45" y1="845.14" x2="1916.45" y2="857.56" xlink:href="#linear-gradient-7"/><linearGradient id="linear-gradient-27" x1="1118.56" y1="845.14" x2="1118.56" y2="857.56" xlink:href="#linear-gradient-7"/></defs><title>عن الشركة 2</title><g id="Layer_2" data-name="Layer 2"><g id="Layer_6" data-name="Layer 6"><g class="cls-1"><path class="cls-2" d="M500.05,425.9v257h68.62v-257Zm53.58,162.27h5.28V598.5h-5.28Zm0-153.78h5.28v10.33h-5.28ZM540.54,658.45h5.29v10.33h-5.29Zm0-52.71h5.29v10.33h-5.29Zm0-17.57h5.29V598.5h-5.29Zm0-70.28h5.29v10.33h-5.29Zm0-17.57h5.29v10.33h-5.29Zm0-17.57h5.29v10.33h-5.29Zm0-17.57h5.29v10.33h-5.29ZM526.35,605.74h5.29v10.33h-5.29Zm0-17.57h5.29V598.5h-5.29Zm0-17.57h5.29v10.33h-5.29Zm0-17.57h5.29v10.33h-5.29Zm-17,105.42h5.29v10.33h-5.29Zm0-17.57h5.29v10.33h-5.29Zm0-17.57h5.29v10.33h-5.29Zm0-17.57h5.29v10.33h-5.29Zm0-17.57h5.29V598.5h-5.29Zm0-17.57h5.29v10.33h-5.29Zm0-17.57h5.29v10.33h-5.29Zm0-17.57h5.29v10.33h-5.29Zm0-17.57h5.29v10.33h-5.29Zm0-17.57h5.29v10.33h-5.29Zm0-65.93h5.29v10.33h-5.29Z"/><path class="cls-3" d="M235.61,342.17v137.1h104.2V342.17H328.26v9.73h-81.1v-9.73Zm18.9,108.71h66.4v4.27h-66.4Zm0-34.29h66.4v4.26h-66.4Zm0-7.32h66.4v4.27h-66.4Zm0-7.31h66.4v4.27h-66.4Zm0-31.82h66.4v4.26h-66.4Zm0-7.32h66.4v4.27h-66.4Z"/><path class="cls-4" d="M351.51,351.12v244.8H482.74V351.12Zm115.08,15.4h4.74v214h-4.74Zm-9.28,0H462v214h-4.73Zm-9.29,0h4.74v214H448Zm-9.28,0h4.74v214h-4.74Zm-9.28,0h4.73v214h-4.73Zm-9.29,0h4.74v214h-4.74Zm-9.28,0h4.74v214h-4.74Zm-9.28,0h4.73v214h-4.73Zm-9.29,0h4.74v214h-4.74Zm-9.28,0h4.73v214H383Zm-9.28,0h4.73v214h-4.73Zm-9.29,0h4.74v214h-4.74Z"/><path class="cls-5" d="M877.62,593.62V555.1H769.26v113H949.17V593.62ZM866.8,579.39H780.08v-13H866.8ZM899,647.8H885.15V614H899Zm21.3,0H906.45V614h13.89Zm21.3,0H927.75V614h13.89Z"/><path class="cls-6" d="M461.36,258.09V677.32H610.11V258.09a364.32,364.32,0,0,1-148.75,0ZM585.11,550h13.22v4.44H585.11Zm0-10.56h13.22v4.43H585.11Zm0-10.57h13.22v4.44H585.11Zm0-10.56h13.22v4.44H585.11Zm0-10.56h13.22v4.43H585.11Zm0-10.57h13.22v4.44H585.11Zm0-10.56h13.22V491H585.11Zm0-10.56h13.22v4.43H585.11Zm0-10.57h13.22v4.44H585.11Zm0-10.56h13.22v4.44H585.11Zm0-10.56h13.22v4.43H585.11Zm0-10.57h13.22v4.44H585.11ZM563.24,656.88h13.22v4.44H563.24Zm0-10.56h13.22v4.44H563.24Zm0-10.56h13.22v4.43H563.24Zm0-10.57h13.22v4.44H563.24Zm0-10.56h13.22v4.44H563.24Zm0-10.56h13.22v4.43H563.24Zm0-10.57h13.22v4.44H563.24Zm-34.12,42.26h13.22v4.43H529.12Zm0-10.57h13.22v4.44H529.12Zm0-10.56h13.22v4.44H529.12Zm0-64.67h13.22v4.44H529.12Zm0-10.56h13.22v4.43H529.12Zm0-10.57h13.22v4.44H529.12Zm0-10.56h13.22v4.44H529.12Zm0-10.56h13.22v4.43H529.12Zm0-10.57h13.22v4.44H529.12Zm0-10.56h13.22V491H529.12Zm0-10.56h13.22v4.43H529.12Zm-5.74-88-48.26-99.22s21.22-8,60.61-8,60.62,8,60.62,8L548.09,388A13.55,13.55,0,0,1,523.38,388ZM504.33,560.52h13.22V565H504.33Zm0-10.56h13.22v4.44H504.33Zm0-10.56h13.22v4.43H504.33Zm0-10.57h13.22v4.44H504.33Zm0-10.56h13.22v4.44H504.33Zm0-10.56h13.22v4.43H504.33Zm0-10.57h13.22v4.44H504.33Zm0-10.56h13.22V491H504.33Zm-24.58-55H493V436H479.75Zm0-10.56H493v4.44H479.75Zm0-10.56H493v4.43H479.75Zm0-10.57H493v4.44H479.75Z"/><circle class="cls-7" cx="617.53" cy="77.3" r="77.3"/><path class="cls-8" d="M0,321.23A460.59,460.59,0,0,1,124.13,314c49.75,3.83,99.22,15.79,144.44,38.38C376.41,406.24,450.5,514.09,538.9,599.6c26.54,25.67,55.73,50.12,90.26,59.87,70.91,20,143-25.9,216.21-29.51,43.26-2.13,87,11.14,122.9,37.25,31.81,23.16,56.78,55.47,85.84,82.51a232.43,232.43,0,0,0,33.14,25.95H0Z"/><path class="cls-9" d="M208.49,224.33l7.76,29.23c-12.63,55.71-47.47,239-27.19,492.43h-40c-1.87-51.86-5.41-264.82,49.17-496.85Z"/><path class="cls-10" d="M238.57,192.91a144.24,144.24,0,0,1,62.76,3.8,58.51,58.51,0,0,1,4.4-13.93,50.88,50.88,0,0,1,6.21,13,105.29,105.29,0,0,1,33.87,12.83,21.2,21.2,0,0,1,1.63-10.07,31.51,31.51,0,0,1,5.77,13.14,19.53,19.53,0,0,1,13.88,8.76c.26-2.39.52-4.77.79-7.16a57.57,57.57,0,0,0,22,22c-4.42-13.81-10.85-27.07-19.82-38.47a88,88,0,0,0-19.84-18.67c-8.88-6-18.9-10-29.11-13.24C302.46,159,282.72,156,263.29,158c-13.93,1.5-27.85,5.81-38.89,14.42s-18.87,21.94-18.82,35.94c0-2.21,10.5-8,12.71-9.36C224.28,195.45,231.76,194,238.57,192.91Z"/><path class="cls-11" d="M339.81,98.17c-26.54-7.92-56-3.11-80.27,10.21-8.69,4.76-16.89,10.66-23.15,18.34-6.72,8.26-11,18.28-13.88,28.52-3.87,13.55-5.54,28-2.6,41.78.16.75,12.86-6.47,13.9-7.69,2.6-3.05,2.39-5.71,3.34-9.37,2.59-10,10.9-18.52,17.65-26A199.46,199.46,0,0,1,306,113.05,194.94,194.94,0,0,1,339.81,98.17Z"/><path class="cls-12" d="M249.64,81.78c-1-12-3.36-24.41-10.73-33.91a23.59,23.59,0,0,0-5.6,4.59c2.84-7.94-3.73-16-10.21-21.39a149,149,0,0,0-26.92-17.88c13,21.76,14.1,48.38,14,73.71a19.34,19.34,0,0,1,6.92,2.36,34.89,34.89,0,0,1-7.6,4.67,263.89,263.89,0,0,1-7.25,67.2c-3.09,12.81-7.17,25.68-6.4,38.84a9.31,9.31,0,0,0,1.43,5.14c1.57,2.06,4.55,2.61,7.06,1.95a17.06,17.06,0,0,0,6.57-4C244.55,174,253.18,124,249.64,81.78Z"/><path class="cls-13" d="M180.08,101.47C152.64,74,109.36,62.09,72.82,75.28c17.58,4.87,31.85,17.4,45.45,29.55l16.18,14.46a13.08,13.08,0,0,0,4.07,2.79c3.92,1.41,8.2-1.18,12.36-.8a35.73,35.73,0,0,1-3.71,9.57,81.45,81.45,0,0,0,16.05,1.23,52.26,52.26,0,0,1-6.76,7.94c9.92,11.65,19.89,23.39,27.61,36.6s13.14,28.13,13.14,43.43c0-.67,15.32-8.19,17.09-12.26,3.13-7.17,1.63-18.11,1.08-25.67a133.66,133.66,0,0,0-15.8-54.48A116.15,116.15,0,0,0,180.08,101.47Z"/><path class="cls-14" d="M200,174.37c-10.25-4-21.38-5.2-32.38-5.65-22.7-.94-45.72,1.25-67.28,8.43s-41.66,19.53-56.31,36.91a276.35,276.35,0,0,1,43,2.4c3.75.51,7.57,1.09,11.32.5s7.48-2.59,9.16-6a19.12,19.12,0,0,1,3.35,9.34c3,1.1,6.23,2.22,9.45,1.88s6.5-2.61,6.85-5.83c.63,2.62,1.27,5.24,1.9,7.86a213.77,213.77,0,0,1,100,9.25c1,.33,1.57-17.08,1.43-18.52a52.73,52.73,0,0,0-5.16-18.53C220.15,186,210.78,178.55,200,174.37Z"/><path class="cls-15" d="M133.89,230.18C111.15,246.53,97,273.61,94.63,301.52a218.1,218.1,0,0,1,37.55-20.38c2.49-1.05,5.09-2.12,6.84-4.16s2.32-5.4.48-7.37l7.28,5.81a163.76,163.76,0,0,1,82.88-34.05c-.4,0-13.69-18.55-16.38-20.61-6.19-4.71-14.88-5.77-22.44-6.4A86.42,86.42,0,0,0,133.89,230.18Z"/><path class="cls-16" d="M225.59,260.41c2.26,3.59,4.24,7.49,7.55,10.14s8.49,3.58,11.66.77c-2.79,6-1.39,13.29,1.65,19.21s7.56,10.93,11.4,16.36A83.36,83.36,0,0,1,271.77,340a265.37,265.37,0,0,0-1.16-64.89c-1.83-12.87-4.71-25.91-11.62-36.93s-18.48-19.78-31.47-20.4c-10.27-.49-25.37,5.54-28.39,16.17C209.57,238.44,219.64,251,225.59,260.41Z"/><path class="cls-17" d="M211.06,201.44c7.25-5.6,16.65-7.83,25.81-8,17.44-.31,34.31,6.3,49.57,14.75,15,8.32,29.27,18.78,39.15,32.83,9.7,13.81,14.73,30.44,17.11,47.14-13.73-19-35.39-30.42-56.26-41.15-1.25-6.3-2.81-12.55-4.67-18.7L276.37,240c1.6-3.47-21.8-13.78-24.29-14.61a68.21,68.21,0,0,0-29.75-2.9A63,63,0,0,0,208,226.05c-3.61,1.36-7,4.86-8.65,1.5-1.06-2.09,1.62-11.09,2.35-13.23A28.06,28.06,0,0,1,211.06,201.44Z"/><path class="cls-18" d="M367.7,613.13c2,16.72,4.83,33.83.93,50.21-2,8.34-5.71,16.58-4.75,25.09.93,8.34,6.23,15.51,8.6,23.55,1.53,5.16,1.83,10.59,3.06,15.82s3.62,10.53,8.12,13.47,10.38,3,15.83,2.93l10.93-.16a3.89,3.89,0,0,0,1.89-.35c1.54-.88,1.17-3.19.49-4.83-4.56-10.93-13.42-19.36-21-28.45s-14.34-20.17-13.22-32c.68-7.09,4.13-13.57,7.3-20,12.27-24.72,21.2-51.69,21.13-79.28,0-2.6-.16-5.39-1.76-7.44-1.34-1.73-3.48-2.62-5.55-3.35-9.37-3.31-26.42-10-30.48,2.28C364.76,584.2,366.06,599.29,367.7,613.13Z"/><path class="cls-19" d="M489,656.28a46.33,46.33,0,0,0-.34,9.7c.4,3.64,1.71,7.1,2.66,10.63,4.82,17.92.14,37-6.5,54.36-1,2.59-2,5.24-2.09,8s1.16,5.77,3.64,7a11,11,0,0,0,5.59.69q6.61-.37,13.21-1.09c2.29-.25,4.76-.61,6.43-2.19,3.33-3.15,1.55-8.62-.07-12.9a78.18,78.18,0,0,1-3.35-43.64c1.74-8.25,4.85-16.33,4.82-24.77,0-4.42-.89-8.81-.9-13.24,0-7.39,2.41-14.55,4.8-21.55a305.94,305.94,0,0,0,13.18-51.46c1.22-7.66,1.95-16.38-3-22.32-2.83-3.37-7.11-5.22-11.41-6.16-8.49-1.84-18.31,0-23.91,6.61-10.4,12.33-4.54,30-3,43.89A282.86,282.86,0,0,1,489,656.28Z"/><path class="cls-20" d="M359.07,491.6c7.66-4.32,16.05-7.29,23.49-12,9-5.65,16.23-13.58,23.85-20.95s16-14.46,26.06-17.75,22.27-2,29.66,5.57c3.82,3.92,6.05,9.13,9.58,13.31s8.37,7.27,12.82,10.61A102.18,102.18,0,0,1,514.83,507c2.62,5.34,6.25,11.89,12.19,11.51,3.85-.25,6.75-3.47,9.12-6.51,11-14,20.66-30.38,20.53-48.18-.09-12.13-4.76-23.81-5.47-35.91s4.5-26.27,16.23-29.38l.09,14a342.84,342.84,0,0,1,40.77-4.91c6.55-.39,13.31-.57,19.47,1.69,7.75,2.84,14.15,10.2,14.16,18.46s-7.76,16.19-15.91,14.88c-2.53-.4-5.06-1.58-7.53-.93a10.47,10.47,0,0,0-3.94,2.41c-7.16,6-14.49,12.14-19,20.32-4.9,9-5.89,19.48-7.32,29.61-3.06,21.61-9.13,43.89-24.19,59.69a84.91,84.91,0,0,1-18.73,14.37c-24,14.06-52.22,19.66-80,20.31s-55.5-3.4-83-7.45c-8-1.19-16.17-2.4-23.71-5.45-12.56-5.09-36.68-22-35.18-37.54C325.19,519.28,343.65,500.31,359.07,491.6Z"/><path class="cls-21" d="M323.74,534.59A140.78,140.78,0,0,0,322.45,605c2.93,12.21,7.55,24.47,6.09,37-.71,6-2.83,11.86-3.25,17.93-.76,10.89,4,21.43,4.69,32.33.94,15.57-6.49,30.29-9.5,45.59-.33,1.69-.53,3.66.63,4.92a5.65,5.65,0,0,0,3.5,1.37,115.1,115.1,0,0,0,17,1.08,8.22,8.22,0,0,0,4.26-.85c2.49-1.53,2.73-5,2.46-7.93-1.27-13.73-7.54-26.78-7.66-40.58-.1-12,4.45-23.8,2.77-35.63-.73-5.17-2.62-10.1-3.6-15.22-2.86-14.87,2.17-30.23,9.47-43.49,6.18-11.2,14.21-22.08,15.33-34.82,1.38-15.62-8.18-30.32-19.93-40.7C334.58,517,326.94,523.14,323.74,534.59Z"/><path class="cls-22" d="M441.57,656.28a47,47,0,0,0-.34,9.7c.4,3.64,1.71,7.1,2.66,10.63,4.82,17.92.15,37-6.49,54.36-1,2.59-2,5.24-2.09,8s1.16,5.77,3.64,7a11,11,0,0,0,5.58.69q6.62-.37,13.21-1.09c2.3-.25,4.76-.61,6.43-2.19,3.33-3.15,1.56-8.62-.07-12.9a78.36,78.36,0,0,1-3.35-43.64c1.75-8.25,4.85-16.33,4.83-24.77,0-4.42-.9-8.81-.9-13.24,0-7.39,2.41-14.55,4.8-21.55q4.11-12.06,8.23-24.11c5.62-16.45,7.06-31.17,1.59-48.25-2.6-8.13-6.74-16.1-13.53-21.27s-16.66-6.91-24-2.51c-6.35,3.81-9.64,11.42-10.13,18.81s1.4,14.71,3.27,21.88c3.33,12.77,8.12,25.45,7.53,38.6C441.76,625.77,443.08,640.92,441.57,656.28Z"/><path class="cls-23" d="M591.44,420.21a9.55,9.55,0,0,1-16.62,3"/><path class="cls-23" d="M636.11,439.26c-4.41,2.9-10.21,2.89-15.28,1.43a30.79,30.79,0,0,1-12.89-7.49"/><path class="cls-23" d="M635.55,420a10.85,10.85,0,0,0-1-5.13,8.62,8.62,0,0,0-2.34-3.38,4.54,4.54,0,0,0-3.88-1,6.16,6.16,0,0,0-3,2.24,19.86,19.86,0,0,0-2.15,3.17"/><path class="cls-23" d="M631.07,420a13.11,13.11,0,0,1-.41-1.64,1.52,1.52,0,0,0-1.09-1.17c-.81-.12-1.37.77-1.71,1.52"/><path class="cls-23" d="M602.69,407.51a56.74,56.74,0,0,0-1.29,32.29c1.05,4.12,2.68,8.28,5.81,11.15"/><path class="cls-23" d="M594.13,468.9a80.88,80.88,0,0,0-38.48-6.46"/><path class="cls-23" d="M601.19,439.64c-7.38,34.81.77,72.15-10.7,105.83-2,5.75-4.54,11.41-8.58,16s-9.72,7.88-15.8,8.07c-5.86.18-11.54-2.58-15.83-6.58s-7.32-9.16-9.8-14.47A96.63,96.63,0,0,1,532,518c-.3-2.77-.43-5.77,1.07-8.13s5.23-3.41,7.09-1.33"/><path class="cls-23" d="M503.54,733.14a29.88,29.88,0,0,1,2.15,12.07"/><path class="cls-23" d="M454.18,732.9c1.67,3.76,1.69,8,1.67,12.13"/><path class="cls-23" d="M399.7,731.37a28.41,28.41,0,0,1,5.29,12.7"/><path class="cls-23" d="M332,735a29.51,29.51,0,0,0-.44,9.6"/><path class="cls-24" d="M788.24,823.18a50.51,50.51,0,0,1,92.8,0Z"/><path class="cls-25" d="M115.75,828.31a50.51,50.51,0,0,1,92.8,0Z"/><path class="cls-26" d="M473.79,848.62a42,42,0,0,1,77.23,0Z"/><path class="cls-27" d="M755.11,833.34a33.55,33.55,0,0,1,61.66,0Z"/><path class="cls-28" d="M216.23,858.77a28.16,28.16,0,0,1,51.74,0Z"/><path class="cls-29" d="M1014.11,858.77a28.16,28.16,0,0,1,51.74,0Z"/></g></g></g></svg>