<svg xmlns="http://www.w3.org/2000/svg" xmlns:xlink="http://www.w3.org/1999/xlink" viewBox="0 0 751.67 536"><defs><style>.cls-1{fill:none;}.cls-2{fill:#fff;}.cls-3{fill:#f0e6ff;}.cls-4{fill:#e5aeae;}.cls-5{fill:#1c1c1c;}.cls-6{fill:#eeeff9;}.cls-7{isolation:isolate;}.cls-8{clip-path:url(#clip-path);}.cls-9{clip-path:url(#clip-path-2);}.cls-10{clip-path:url(#clip-path-3);}.cls-11{fill:#aaa;}.cls-12{fill:#00c9b9;}.cls-13{fill:#d2d2d8;}.cls-14{fill:#cf8282;}</style><clipPath id="clip-path"><path class="cls-1" d="M182.5,518.86l33.38-158.77H563.66l33.39,158.77A14.22,14.22,0,0,1,583.14,536H196.4A14.21,14.21,0,0,1,182.5,518.86Z"/></clipPath><clipPath id="clip-path-2"><path class="cls-1" d="M182.5,504.47,215.88,345.7H563.66l33.39,158.77a14.22,14.22,0,0,1-13.91,17.14H196.4A14.21,14.21,0,0,1,182.5,504.47Z"/></clipPath><clipPath id="clip-path-3"><path class="cls-2" d="M196.41,522.68a15.29,15.29,0,0,1-15-18.43l1.05.22-1.05-.22,33.38-158.77a1.08,1.08,0,0,1,1-.85H563.66a1.07,1.07,0,0,1,1.05.85L598.1,504.25a15.29,15.29,0,0,1-15,18.43Zm20.34-175.9-33.2,157.91a13.13,13.13,0,0,0,12.86,15.84H583.14A13.14,13.14,0,0,0,596,504.69L562.79,346.78Z"/></clipPath></defs><title>Asset 1</title><g id="Layer_2" data-name="Layer 2"><g id="Layer_5" data-name="Layer 5"><ellipse class="cls-3" cx="68.86" cy="511.34" rx="68.86" ry="11.52"/><path class="cls-4" d="M295.07,138.16A69.08,69.08,0,0,1,246.22,20.23a69.08,69.08,0,0,1,97.7,97.7A68.63,68.63,0,0,1,295.07,138.16Zm0-128.27a59.19,59.19,0,1,0,59.19,59.19A59.25,59.25,0,0,0,295.07,9.89Z"/><path class="cls-3" d="M295.05,33.28c.21.8.38,1.61.54,2.41s.31,1.61.45,2.41.27,1.61.38,2.42.23,1.6.34,2.41c.41,3.21.71,6.43.92,9.64.1,1.61.19,3.22.25,4.83,0,.8.06,1.6.09,2.41s0,1.61,0,2.41c.05,3.22,0,6.43-.07,9.65l-2.94-3c5.39.14,10.79.41,16.19.86,2.7.23,5.39.5,8.09.83s5.4.72,8.1,1.26c-2.7.53-5.4.91-8.1,1.25s-5.39.6-8.09.83q-8.1.67-16.19.86l-2.85.07-.09-3c-.11-3.22-.12-6.43-.08-9.65,0-.8,0-1.61.05-2.41s.05-1.61.08-2.41c.06-1.61.15-3.22.26-4.83.21-3.21.51-6.43.92-9.64.1-.81.22-1.61.33-2.41s.26-1.61.39-2.42.29-1.6.45-2.41S294.84,34.08,295.05,33.28Z"/><path class="cls-4" d="M295,24.46a.89.89,0,0,1-.89-.89V14.81a.89.89,0,0,1,1.78,0v8.76A.89.89,0,0,1,295,24.46Z"/><path class="cls-5" d="M295.11,124.28a.89.89,0,0,1-.89-.89v-8.77a.89.89,0,1,1,1.78,0v8.77A.89.89,0,0,1,295.11,124.28Z"/><path class="cls-4" d="M249.52,69.93h-8.76a.89.89,0,1,1,0-1.78h8.76a.89.89,0,0,1,0,1.78Z"/><path class="cls-4" d="M349.12,69.93h-8.76a.89.89,0,1,1,0-1.78h8.76a.89.89,0,0,1,0,1.78Z"/><path class="cls-2" d="M126.6,179.28a1.07,1.07,0,0,1-1-.67,1.05,1.05,0,0,1,.58-1.39,31.59,31.59,0,0,1,3.43-1.19,1.07,1.07,0,0,1,.58,2.07,28.1,28.1,0,0,0-3.2,1.1A1.14,1.14,0,0,1,126.6,179.28Z"/><path class="cls-2" d="M239,223a1.09,1.09,0,0,1-.9-.48c-7-10.55-17.44-16.59-31.1-18a58.61,58.61,0,0,0-18.56,1.11,1,1,0,0,1-.93-.19,1.08,1.08,0,0,1-.41-.85v-1.1c0-6.13-.26-12.55-3.71-17.69a20.08,20.08,0,0,0-12.27-8.36,23.38,23.38,0,0,0-11.1.59,1.07,1.07,0,1,1-.57-2.07,25.87,25.87,0,0,1,12.13-.62,22.28,22.28,0,0,1,13.59,9.27c3.74,5.57,4.08,12.25,4.08,18.64a61.71,61.71,0,0,1,18-.86c9.85,1,23.52,5.08,32.67,18.92a1.08,1.08,0,0,1-.3,1.49A1.06,1.06,0,0,1,239,223Z"/><path class="cls-2" d="M150.74,248.2a.86.86,0,0,1-.22,0,1.07,1.07,0,0,1-.83-1.27l8.95-42.9a1.07,1.07,0,0,1,2.09.43l-8.94,42.91A1.06,1.06,0,0,1,150.74,248.2Z"/><path class="cls-4" d="M500.13,296.57s-88.78-85.79,19.48-97.73c0,0-34.72-60.6,24-64.23,0,0-1.86-62.29,51.09-34.75,0,0,5.25-15.45,20.37-20.49,20.26-6.76,49.78,1.67,27.22,57.47,0,0,41.08-.2,32.89,30.11-1.93,7.14-9.13,15.07-20.13,21.63,0,0,20.16,4.57,26.68,16.16C690.53,220.3,688,253.27,639,273,576.85,298,500.13,296.57,500.13,296.57Z"/><path class="cls-4" d="M701.73,419.7c-.49,4.34-4.11,7.81-8.18,9.43s-8.55,1.7-12.91,1.77c4.2,1.22,6.9,5.82,6.62,10.19v.09a8.69,8.69,0,0,1-8.71,8H598.9c-9.37-6.5,20.78-16.47,20.42-28.3a30.56,30.56,0,0,1,.49-6.48,35.85,35.85,0,0,1,2.85-8.94c2.32-4.9-2.2-11.12-2.55-16.07a8.06,8.06,0,0,1,3.35-7.54,17.72,17.72,0,0,1,5.73-2.71c2.28-.59,5.42.17,7.49-.59s1.87-3.18,2.56-4.78a11.46,11.46,0,0,1,4.31-5.29c3.52-2.28,2.09-13.36,5.89-11.58,2.18-4.36-10.24,4.21,12-2.92,43.36-13.88,41.52,28.57,30.68,43.25-1.61,2.19-7.51,9.64-10.3,10.12,4.47-.76,9.26-.67,13.3,1.39S702.24,415.19,701.73,419.7Z"/><path class="cls-6" d="M596.48,449.17H465.64C452.11,388.45,560.52,299,560.52,299,555.13,238.51,608.6,250,608.6,250c-3.06-.66,18.35-41.41,20.87-44.77,8.33-11.07,18.41-22.33,32.07-24.64,49.81-8.4,12.74,89.24,5.42,107.79,29.33,51.12-24.33,55.84-24.33,55.84,31,28.67,27.4,54.18,14.21,73.47A73,73,0,0,1,596.48,449.17Z"/><path class="cls-6" d="M596.48,450.25H465.64a1.08,1.08,0,0,1-1.05-.84c-3.14-14.1,0-30.84,9.21-49.78,7.34-15.05,18.58-31.53,33.39-49a477.44,477.44,0,0,1,52.22-52.06c-1.6-19,2.45-33,12-41.45C584,246,602,247.81,607.3,248.65c.34-2.12,2.14-7.38,9.27-21.71,4.82-9.67,10.67-20.54,12-22.37,8.32-11.06,18.72-22.69,32.75-25.06,9.39-1.58,16.44.43,20.94,6,7.31,9,7.79,27.23,1.44,54.13-4.58,19.42-11.66,38.63-15.6,48.64,9.09,16,11,29.22,5.79,39.26C667.25,340.32,651.05,344,645,345c13.44,12.88,21,26.11,22.38,39.37,1.21,11.36-2,22.78-9.66,33.93A74,74,0,0,1,596.48,450.25Zm-130-2.15h130a71.86,71.86,0,0,0,59.48-31c16.43-24,11.71-48.28-14.06-72.07a1.07,1.07,0,0,1-.28-1.14,1.06,1.06,0,0,1,.92-.72c.22,0,21.93-2.1,29.5-16.6,4.92-9.44,2.9-22.11-6-37.64A1.08,1.08,0,0,1,666,288c7.43-18.8,30.42-81.67,14.68-101.11-4-4.91-10.35-6.67-18.92-5.22-13.29,2.24-23.33,13.5-31.39,24.23-1.13,1.5-6.57,11.49-11.64,21.64-6.85,13.72-9.28,20.19-9.32,21.73a1.07,1.07,0,0,1-1,1.8h0c-.22,0-21.76-4.47-35.53,7.72-9.13,8.09-12.92,21.61-11.26,40.21a1.05,1.05,0,0,1-.39.92,473.86,473.86,0,0,0-52.39,52.18c-14.69,17.32-25.83,33.64-33.09,48.53C466.88,418.69,463.78,434.67,466.51,448.1Z"/><path class="cls-2" d="M570,410.26a1.06,1.06,0,0,1-.46-.1,1.08,1.08,0,0,1-.51-1.43L676.27,182.05a1.07,1.07,0,1,1,1.94.92L571,409.65A1.09,1.09,0,0,1,570,410.26Z"/><path class="cls-2" d="M635.16,387.77a1.19,1.19,0,0,1-.32,0l-47.79-14.64a1.07,1.07,0,0,1,.63-2.05l47.79,14.64a1.07,1.07,0,0,1-.31,2.1Z"/><path class="cls-2" d="M631.65,77.59a1.08,1.08,0,0,1,2.05.65L589.64,216.59a1.08,1.08,0,0,1-1,.75,1.26,1.26,0,0,1-.33-.05,1.08,1.08,0,0,1-.7-1.35Z"/><path class="cls-2" d="M604.94,166.8a1.07,1.07,0,0,1-1.06-1,1.06,1.06,0,0,1,1-1.17l69.82-7.31a1.07,1.07,0,0,1,.23,2.13l-69.82,7.31Z"/><path class="cls-3" d="M73.25,343.15a9.38,9.38,0,1,1,9.38-9.38A9.39,9.39,0,0,1,73.25,343.15Zm0-16.61a7.24,7.24,0,1,0,7.24,7.23A7.24,7.24,0,0,0,73.25,326.54Z"/><path class="cls-3" d="M24.45,233.65a1.07,1.07,0,0,1-.94-.56l-2.86-5.23L15.41,225a1.07,1.07,0,0,1,0-1.88l5.24-2.86L23.51,215a1.07,1.07,0,0,1,1.88,0l2.87,5.24,5.23,2.86a1.07,1.07,0,0,1,0,1.88l-5.23,2.87-2.87,5.23A1.07,1.07,0,0,1,24.45,233.65Zm-6.3-9.6,3.8,2.08a1,1,0,0,1,.43.42l2.07,3.8,2.08-3.8a1,1,0,0,1,.42-.42l3.8-2.08L27,222a1,1,0,0,1-.42-.43l-2.08-3.8-2.07,3.8A1.11,1.11,0,0,1,22,222Z"/><path class="cls-3" d="M734.94,200a1.07,1.07,0,0,1-1.07-1.07v-4.71a1.07,1.07,0,1,1,2.14,0v4.71A1.07,1.07,0,0,1,734.94,200Z"/><path class="cls-3" d="M734.94,211.09a1.07,1.07,0,0,1-1.07-1.07v-4.71a1.07,1.07,0,1,1,2.14,0V210A1.07,1.07,0,0,1,734.94,211.09Z"/><path class="cls-3" d="M742.87,203.17h-4.71a1.08,1.08,0,0,1,0-2.15h4.71a1.08,1.08,0,0,1,0,2.15Z"/><path class="cls-3" d="M731.72,203.17H727a1.08,1.08,0,0,1,0-2.15h4.71a1.08,1.08,0,1,1,0,2.15Z"/><path class="cls-3" d="M663.54,38.47a1.07,1.07,0,0,1-1.07-1.07V32.69a1.07,1.07,0,0,1,2.14,0V37.4A1.07,1.07,0,0,1,663.54,38.47Z"/><path class="cls-3" d="M663.54,49.61a1.07,1.07,0,0,1-1.07-1.07V43.83a1.07,1.07,0,1,1,2.14,0v4.71A1.07,1.07,0,0,1,663.54,49.61Z"/><path class="cls-3" d="M671.46,41.68h-4.7a1.07,1.07,0,1,1,0-2.14h4.7a1.07,1.07,0,1,1,0,2.14Z"/><path class="cls-3" d="M660.32,41.68h-4.71a1.07,1.07,0,0,1,0-2.14h4.71a1.07,1.07,0,1,1,0,2.14Z"/><g class="cls-7"><polygon class="cls-3" points="167.03 321.51 152.64 322.97 139.88 304.23 154.27 302.76 167.03 321.51"/><polygon class="cls-3" points="154.27 302.76 139.88 304.23 155.56 289.93 169.95 288.47 154.27 302.76"/><polygon class="cls-3" points="169.95 288.47 182.71 307.22 167.03 321.51 154.27 302.76 169.95 288.47"/></g><path class="cls-2" d="M167,322.58a1.07,1.07,0,0,1-.89-.47l-12.76-18.74a1.08,1.08,0,0,1,.16-1.4l15.68-14.29a1.08,1.08,0,0,1,1.52.07,1.06,1.06,0,0,1-.07,1.51l-15,13.67,12.23,18a1.07,1.07,0,0,1-.28,1.49A1.08,1.08,0,0,1,167,322.58Z"/><path class="cls-2" d="M139.88,305.3a1.07,1.07,0,0,1-.11-2.14l14.39-1.46a1.07,1.07,0,0,1,.22,2.13L140,305.29Z"/><path class="cls-3" d="M167.47,284.39a1.08,1.08,0,0,1-1.05-.84l-1.73-7.81a1.07,1.07,0,0,1,2.09-.46l1.73,7.81a1.07,1.07,0,0,1-.81,1.28Z"/><path class="cls-3" d="M175,287.09a1.07,1.07,0,0,1-.37-2.08l4.8-1.79a1.07,1.07,0,0,1,.74,2l-4.8,1.79A1,1,0,0,1,175,287.09Z"/><g class="cls-7"><polygon class="cls-3" points="130.54 371.12 120.08 394.42 110.07 356.58 130.54 371.12"/><path class="cls-3" d="M120.33,395.46a1.3,1.3,0,0,1-.34,0,1.07,1.07,0,0,1-.95-.79l-10-37.84a1.08,1.08,0,0,1,1.66-1.15l20.47,14.55a1.07,1.07,0,0,1,.36,1.31l-10.47,23.29A1.09,1.09,0,0,1,120.33,395.46Zm-8.47-36.29,8.48,32,8.86-19.72Z"/><polygon class="cls-3" points="110.07 356.58 147.09 359.42 130.54 371.12 110.07 356.58"/><path class="cls-3" d="M130.79,372.17a1.09,1.09,0,0,1-.87-.17l-20.47-14.55a1.09,1.09,0,0,1-.39-1.24,1.07,1.07,0,0,1,1.09-.7l37,2.84a1.06,1.06,0,0,1,1,.78,1.07,1.07,0,0,1-.42,1.16L131.16,372A1.24,1.24,0,0,1,130.79,372.17Zm-16.95-14.23,16.7,11.87,13.51-9.55Z"/><polygon class="cls-3" points="147.09 359.42 139.71 381.51 120.08 394.42 130.54 371.12 147.09 359.42"/><path class="cls-3" d="M120.33,395.46A1.07,1.07,0,0,1,119.1,394l10.46-23.3a1.07,1.07,0,0,1,.36-.43l16.55-11.71a1.08,1.08,0,0,1,1.64,1.22l-7.38,22.09a1.09,1.09,0,0,1-.43.56l-19.64,12.9A1.09,1.09,0,0,1,120.33,395.46Zm11.07-23.63-8.84,19.67,16.26-10.68L145,362.18Z"/></g><path class="cls-2" d="M130.07,371.2a1.07,1.07,0,0,1-.88-.17l-20.47-14.54a1.08,1.08,0,1,1,1.25-1.75l20.47,14.55a1.07,1.07,0,0,1,.25,1.49A1.09,1.09,0,0,1,130.07,371.2Z"/><path class="cls-2" d="M120.33,395.46a1.14,1.14,0,0,1-.68-.06,1.08,1.08,0,0,1-.56-1.42l10.57-24.15a1,1,0,0,1,.38-.45L146.55,358a1.07,1.07,0,1,1,1.22,1.77L131.51,371l-10.45,23.87A1.1,1.1,0,0,1,120.33,395.46Z"/><polygon class="cls-3" points="747.39 352.05 719.31 329.01 704.15 349.19 732.57 372.54 747.39 352.05"/><path class="cls-3" d="M748,367.68c-3.91,5.8-10.82,8-15.44,4.86s-5.19-10.34-1.28-16.13,10.81-8,15.43-4.86S751.92,361.89,748,367.68Z"/><path class="cls-2" d="M739.65,363.12a1,1,0,0,1-.68-.25l-27.41-22.54a1.07,1.07,0,1,1,1.36-1.65l27.41,22.54a1.08,1.08,0,0,1,.15,1.51A1.11,1.11,0,0,1,739.65,363.12Z"/><path class="cls-3" d="M720.6,345.14c-3.91,5.8-10.82,8-15.44,4.86s-5.19-10.34-1.28-16.13,10.81-8,15.43-4.86S724.51,339.35,720.6,345.14Z"/><path class="cls-2" d="M737.34,375a9.48,9.48,0,0,1-5.36-1.59,10.18,10.18,0,0,1-4.32-7.86,15.42,15.42,0,0,1,2.74-9.76c4.23-6.28,11.82-8.59,16.92-5.15a10.19,10.19,0,0,1,4.31,7.87,15.46,15.46,0,0,1-2.73,9.75C746,372.59,741.52,375,737.34,375Zm4.59-23.82c-3.47,0-7.27,2.12-9.76,5.81a13.32,13.32,0,0,0-2.37,8.38,8.1,8.1,0,0,0,3.37,6.26c4.12,2.78,10.38.73,14-4.57a13.27,13.27,0,0,0,2.38-8.38,8.08,8.08,0,0,0-3.38-6.26A7.4,7.4,0,0,0,741.93,351.2Z"/><path class="cls-2" d="M709.93,352.48a9.54,9.54,0,0,1-5.37-1.59,10.19,10.19,0,0,1-4.31-7.87,15.41,15.41,0,0,1,2.74-9.75c4.23-6.28,11.82-8.59,16.92-5.15s5.81,11.34,1.58,17.62C718.59,350,714.11,352.48,709.93,352.48Zm4.59-23.82c-3.47,0-7.27,2.11-9.76,5.81a13.32,13.32,0,0,0-2.37,8.38,8.1,8.1,0,0,0,3.37,6.26c4.12,2.78,10.38.73,14-4.57s3.12-11.86-1-14.64A7.4,7.4,0,0,0,714.52,328.66Z"/><path class="cls-3" d="M556.32,112.45v226H223.22v-226a2.81,2.81,0,0,1,2.81-2.81H553.51A2.81,2.81,0,0,1,556.32,112.45Z"/><path class="cls-5" d="M553.51,102.29H226a10.16,10.16,0,0,0-10.16,10.16V345.81H563.68V112.45A10.16,10.16,0,0,0,553.51,102.29ZM549,331.11H230.57V117H549Z"/><polygon class="cls-5" points="597.36 505.94 597.36 521.61 181.92 521.61 182.19 505.94 597.36 505.94"/><g class="cls-7"><g class="cls-8"><polygon class="cls-5" points="563.66 360.1 215.88 360.1 178.9 536 600.65 536 563.66 360.1 563.66 360.1"/></g></g><g class="cls-7"><g class="cls-9"><polygon class="cls-5" points="563.66 345.7 215.88 345.7 178.9 521.61 600.65 521.61 563.66 345.7 563.66 345.7"/></g></g><g class="cls-7"><path class="cls-2" d="M196.41,522.68a15.29,15.29,0,0,1-15-18.43l1.05.22-1.05-.22,33.38-158.77a1.08,1.08,0,0,1,1-.85H563.66a1.07,1.07,0,0,1,1.05.85L598.1,504.25a15.29,15.29,0,0,1-15,18.43Zm20.34-175.9-33.2,157.91a13.13,13.13,0,0,0,12.86,15.84H583.14A13.14,13.14,0,0,0,596,504.69L562.79,346.78Z"/><g class="cls-10"><path class="cls-2" d="M600.65,522.68H178.89a1.09,1.09,0,0,1-.83-.4,1.07,1.07,0,0,1-.21-.9l37-175.9a1.08,1.08,0,0,1,1-.85H563.66a1.07,1.07,0,0,1,1.05.85l37,175.9a1,1,0,0,1-.22.9A1.07,1.07,0,0,1,600.65,522.68Zm-420.43-2.15H599.33L562.79,346.78h-346Z"/></g></g><path class="cls-11" d="M259.35,372.81a2.77,2.77,0,0,1-.28-1.67l.86-5.71a3.06,3.06,0,0,1,.7-1.52,4.48,4.48,0,0,1,1.28-1.05,6.26,6.26,0,0,1,1.64-.66,7.39,7.39,0,0,1,1.88-.23h24.71a7.22,7.22,0,0,1,1.83.23,5.11,5.11,0,0,1,1.55.69,3.55,3.55,0,0,1,1.12,1.17,2.79,2.79,0,0,1,.34,1.64l-.63,5.72a3,3,0,0,1-.66,1.55,4.4,4.4,0,0,1-1.27,1.09,6.21,6.21,0,0,1-1.65.67,7.36,7.36,0,0,1-1.89.24h-25a7,7,0,0,1-1.85-.24,5.39,5.39,0,0,1-1.55-.71A3.4,3.4,0,0,1,259.35,372.81Z"/><path class="cls-11" d="M295.45,384.29a2.7,2.7,0,0,1,.56-1.36,4,4,0,0,1,1.08-.94,5.32,5.32,0,0,1,1.38-.56,6.37,6.37,0,0,1,1.57-.2h14.8a6.12,6.12,0,0,1,1.56.2,4.88,4.88,0,0,1,1.33.59,3.27,3.27,0,0,1,1,1,2.57,2.57,0,0,1,.34,1.45l-.58,7a2.71,2.71,0,0,1-.53,1.39,3.74,3.74,0,0,1-1.08,1,5.44,5.44,0,0,1-1.39.59,6.47,6.47,0,0,1-1.59.2h-15a5.85,5.85,0,0,1-1.58-.21,4.51,4.51,0,0,1-1.33-.61,3.15,3.15,0,0,1-1-1.05,2.53,2.53,0,0,1-.3-1.47Z"/><path class="cls-11" d="M254.77,410.56a2.89,2.89,0,0,1-.27-1.71l.92-6.14a3.19,3.19,0,0,1,.71-1.57,4.84,4.84,0,0,1,1.32-1.12,6.61,6.61,0,0,1,1.7-.7,7.88,7.88,0,0,1,1.94-.25h25.59a7.38,7.38,0,0,1,1.9.25,5.18,5.18,0,0,1,1.59.74,3.62,3.62,0,0,1,1.14,1.24,2.93,2.93,0,0,1,.33,1.69l-.68,6.13a3.19,3.19,0,0,1-.66,1.61,4.78,4.78,0,0,1-1.31,1.16,6.64,6.64,0,0,1-1.7.72,7.52,7.52,0,0,1-2,.25H259.41a7.09,7.09,0,0,1-1.93-.26,5,5,0,0,1-1.6-.76A3.64,3.64,0,0,1,254.77,410.56Z"/><path class="cls-11" d="M287.68,440.55a3,3,0,0,1,.33,1.76l-.73,6.6a3.39,3.39,0,0,1-.68,1.69,5,5,0,0,1-1.34,1.22,6.81,6.81,0,0,1-1.76.77,7.7,7.7,0,0,1-2,.27H254.56a6.79,6.79,0,0,1-2-.28,5.09,5.09,0,0,1-1.65-.81,3.67,3.67,0,0,1-1.12-1.35,3.05,3.05,0,0,1-.27-1.78l1-6.61a3.59,3.59,0,0,1,.72-1.64,5.16,5.16,0,0,1,1.37-1.19,6.56,6.56,0,0,1,1.75-.75,7.57,7.57,0,0,1,2-.27h26.53a7,7,0,0,1,2,.28,5.26,5.26,0,0,1,1.65.79A3.71,3.71,0,0,1,287.68,440.55Z"/><path class="cls-11" d="M257.09,392.5a2.64,2.64,0,0,1-.26-1.61l.94-6.31a3,3,0,0,1,.67-1.47,4.49,4.49,0,0,1,1.23-1,6.37,6.37,0,0,1,1.56-.63,7.14,7.14,0,0,1,1.79-.22h21a6.79,6.79,0,0,1,1.76.22,5.1,5.1,0,0,1,1.47.68,3.37,3.37,0,0,1,1.06,1.14,2.68,2.68,0,0,1,.32,1.59l-.74,6.31a3,3,0,0,1-.63,1.5,4.38,4.38,0,0,1-1.22,1.06,6.11,6.11,0,0,1-1.57.65,7.22,7.22,0,0,1-1.8.23H261.39a6.43,6.43,0,0,1-1.78-.24,4.92,4.92,0,0,1-1.48-.69A3.32,3.32,0,0,1,257.09,392.5Z"/><path class="cls-11" d="M252.32,429.86a3.07,3.07,0,0,1-.27-1.74l1-6.44a3.5,3.5,0,0,1,.71-1.59,4.85,4.85,0,0,1,1.33-1.15,7,7,0,0,1,1.7-.71,7.58,7.58,0,0,1,2-.25h41.13a7,7,0,0,1,1.91.26,5.29,5.29,0,0,1,1.61.75,3.78,3.78,0,0,1,1.15,1.25,3,3,0,0,1,.35,1.7l-.6,6.44a3.35,3.35,0,0,1-.64,1.64,4.64,4.64,0,0,1-1.3,1.18,6.28,6.28,0,0,1-1.71.74,7.15,7.15,0,0,1-2,.26H257a7.21,7.21,0,0,1-1.94-.26,5.19,5.19,0,0,1-1.6-.78A3.58,3.58,0,0,1,252.32,429.86Z"/><path class="cls-11" d="M349.65,412.86H334.38a5.69,5.69,0,0,1-1.61-.22,4.57,4.57,0,0,1-1.36-.62,3.28,3.28,0,0,1-1-1.06,2.63,2.63,0,0,1-.35-1.47l.48-7.23a2.68,2.68,0,0,1,.52-1.41,3.9,3.9,0,0,1,1.07-1,4.82,4.82,0,0,1,1.39-.59,6.05,6.05,0,0,1,1.6-.21h15.06a5.87,5.87,0,0,1,1.59.21,4.67,4.67,0,0,1,1.36.61,3.38,3.38,0,0,1,1,1,2.65,2.65,0,0,1,.39,1.46l-.3,7.23a2.73,2.73,0,0,1-.49,1.43,3.47,3.47,0,0,1-1.07,1,5.14,5.14,0,0,1-1.39.61A6.26,6.26,0,0,1,349.65,412.86Z"/><path class="cls-11" d="M327.55,382a4.88,4.88,0,0,1,1.36-.57,6.39,6.39,0,0,1,1.58-.2h14.79a6.06,6.06,0,0,1,1.56.2,4.66,4.66,0,0,1,1.34.59,3.29,3.29,0,0,1,1,1,2.47,2.47,0,0,1,.38,1.43l-.33,7a2.77,2.77,0,0,1-.5,1.41,3.56,3.56,0,0,1-1.06,1,4.75,4.75,0,0,1-1.38.59,6,6,0,0,1-1.59.21h-15a5.73,5.73,0,0,1-1.57-.21,4.62,4.62,0,0,1-1.35-.6,3.29,3.29,0,0,1-1-1,2.49,2.49,0,0,1-.34-1.45l.51-7a2.7,2.7,0,0,1,.52-1.38A3.67,3.67,0,0,1,327.55,382Z"/><path class="cls-11" d="M318.54,440.17a2.71,2.71,0,0,1,.33,1.52l-.6,7.78a2.84,2.84,0,0,1-.54,1.47,4,4,0,0,1-1.11,1.05,5.3,5.3,0,0,1-1.45.65,6.32,6.32,0,0,1-1.69.22H297.64a5.69,5.69,0,0,1-1.66-.23,4.45,4.45,0,0,1-1.4-.68,3.16,3.16,0,0,1-1-1.13,2.76,2.76,0,0,1-.3-1.54l.8-7.78a2.85,2.85,0,0,1,.57-1.44,3.9,3.9,0,0,1,1.11-1,5.4,5.4,0,0,1,1.45-.63,6.16,6.16,0,0,1,1.66-.23h15.62a5.93,5.93,0,0,1,1.65.23,4.58,4.58,0,0,1,1.39.66A3.51,3.51,0,0,1,318.54,440.17Z"/><path class="cls-11" d="M361.6,373.2a2.48,2.48,0,0,1-.4-1.41l.22-6.75a2.63,2.63,0,0,1,.47-1.38,3.51,3.51,0,0,1,1-.94,4.91,4.91,0,0,1,1.34-.56,6,6,0,0,1,1.54-.19h14.54a6,6,0,0,1,1.54.19,4.69,4.69,0,0,1,1.33.57,3.45,3.45,0,0,1,1,1,2.55,2.55,0,0,1,.43,1.39l-.05,6.75a2.58,2.58,0,0,1-.45,1.4,3.32,3.32,0,0,1-1,1,4.92,4.92,0,0,1-1.34.57,6.18,6.18,0,0,1-1.56.2H365.5a6.18,6.18,0,0,1-1.56-.2,4.71,4.71,0,0,1-1.33-.58A3.19,3.19,0,0,1,361.6,373.2Z"/><path class="cls-11" d="M375.47,430.28a2.75,2.75,0,0,1-.42-1.48l.12-7.5a2.62,2.62,0,0,1,.46-1.46,3.42,3.42,0,0,1,1.05-1,5.11,5.11,0,0,1,1.4-.63,6.15,6.15,0,0,1,1.62-.21H395a6.2,6.2,0,0,1,1.62.21,5,5,0,0,1,1.39.63,3.37,3.37,0,0,1,1.06,1,2.77,2.77,0,0,1,.45,1.45l.07,7.51a2.69,2.69,0,0,1-.42,1.47,3.65,3.65,0,0,1-1,1.06,5.19,5.19,0,0,1-1.41.64,5.9,5.9,0,0,1-1.64.22H379.56a6,6,0,0,1-1.64-.22,5.13,5.13,0,0,1-1.4-.64A3.78,3.78,0,0,1,375.47,430.28Z"/><path class="cls-11" d="M385.14,392.81a2.66,2.66,0,0,1-.43-1.43l0-7a2.67,2.67,0,0,1,.45-1.42,3.32,3.32,0,0,1,1-1,4.71,4.71,0,0,1,1.35-.58,6.12,6.12,0,0,1,1.56-.2h14.8a6.25,6.25,0,0,1,1.57.2,4.83,4.83,0,0,1,1.35.58,3.6,3.6,0,0,1,1,1,2.6,2.6,0,0,1,.46,1.4l.14,7a2.59,2.59,0,0,1-.41,1.44,3.64,3.64,0,0,1-1,1,5.23,5.23,0,0,1-1.36.59,6,6,0,0,1-1.59.21h-15a5.85,5.85,0,0,1-1.58-.21,5.23,5.23,0,0,1-1.36-.59A3.56,3.56,0,0,1,385.14,392.81Z"/><path class="cls-11" d="M318.28,412.86H303a5.57,5.57,0,0,1-1.6-.22,4.25,4.25,0,0,1-1.36-.63,3.24,3.24,0,0,1-1-1.07,2.59,2.59,0,0,1-.3-1.49l.72-7.23a2.76,2.76,0,0,1,.56-1.39,4.12,4.12,0,0,1,1.09-1,5.29,5.29,0,0,1,1.4-.58,6.05,6.05,0,0,1,1.6-.21H319.2a5.87,5.87,0,0,1,1.59.21,4.76,4.76,0,0,1,1.35.61,3.28,3.28,0,0,1,1,1.05,2.54,2.54,0,0,1,.34,1.47l-.54,7.23a2.71,2.71,0,0,1-.54,1.41,3.56,3.56,0,0,1-1.08,1,5,5,0,0,1-1.41.61A6.2,6.2,0,0,1,318.28,412.86Z"/><path class="cls-11" d="M312.82,430.23a2.58,2.58,0,0,1-.33-1.51l.62-7.49a2.87,2.87,0,0,1,.55-1.43,3.91,3.91,0,0,1,1.09-1,5.78,5.78,0,0,1,1.41-.61,6.41,6.41,0,0,1,1.64-.21h15.33a6.15,6.15,0,0,1,1.62.21,4.67,4.67,0,0,1,1.37.64,3.31,3.31,0,0,1,1,1.06,2.72,2.72,0,0,1,.36,1.49l-.44,7.5a2.76,2.76,0,0,1-.51,1.44,3.72,3.72,0,0,1-1.09,1A5.6,5.6,0,0,1,334,432a6,6,0,0,1-1.65.22H316.84a5.85,5.85,0,0,1-1.64-.22,4.63,4.63,0,0,1-1.38-.65A3.15,3.15,0,0,1,312.82,430.23Z"/><path class="cls-11" d="M344.71,430.26a2.75,2.75,0,0,1-.38-1.5l.37-7.5a2.69,2.69,0,0,1,.5-1.44,3.62,3.62,0,0,1,1.08-1,5.09,5.09,0,0,1,1.4-.62,6.28,6.28,0,0,1,1.63-.21h15.33a6.15,6.15,0,0,1,1.62.21,5,5,0,0,1,1.39.63,3.54,3.54,0,0,1,1,1.05,2.68,2.68,0,0,1,.41,1.47l-.19,7.5a2.76,2.76,0,0,1-.46,1.46,3.55,3.55,0,0,1-1.07,1A5.09,5.09,0,0,1,366,432a6,6,0,0,1-1.65.22H348.76a5.9,5.9,0,0,1-1.64-.22,4.68,4.68,0,0,1-1.39-.65A3.34,3.34,0,0,1,344.71,430.26Z"/><path class="cls-11" d="M332.43,373.18a2.42,2.42,0,0,1-.35-1.43l.44-6.75a2.67,2.67,0,0,1,.52-1.36,3.78,3.78,0,0,1,1-.92,5,5,0,0,1,1.34-.56A6.15,6.15,0,0,1,337,362h14.55a5.94,5.94,0,0,1,1.53.19,4.79,4.79,0,0,1,1.32.57,3.19,3.19,0,0,1,1,1,2.39,2.39,0,0,1,.39,1.41l-.28,6.75a2.56,2.56,0,0,1-.48,1.38,3.59,3.59,0,0,1-1.05.95,4.82,4.82,0,0,1-1.35.57,6.25,6.25,0,0,1-1.57.2H336.3a6,6,0,0,1-1.55-.2,4.35,4.35,0,0,1-1.33-.59A3.36,3.36,0,0,1,332.43,373.18Z"/><path class="cls-11" d="M355.35,384.36a2.6,2.6,0,0,1,.49-1.39,3.6,3.6,0,0,1,1-1,4.88,4.88,0,0,1,1.36-.57,6.25,6.25,0,0,1,1.57-.2h14.8a6.18,6.18,0,0,1,1.56.2,4.94,4.94,0,0,1,1.34.58,3.33,3.33,0,0,1,1,1,2.43,2.43,0,0,1,.42,1.42l-.09,7a2.66,2.66,0,0,1-.46,1.42,3.41,3.41,0,0,1-1,1,4.91,4.91,0,0,1-1.36.59,6,6,0,0,1-1.59.21h-15a5.85,5.85,0,0,1-1.58-.21,4.8,4.8,0,0,1-1.36-.6,3.35,3.35,0,0,1-1-1,2.6,2.6,0,0,1-.39-1.45Z"/><path class="cls-11" d="M390.33,371.82v-6.74a2.56,2.56,0,0,1,.43-1.4,3.22,3.22,0,0,1,1-.95,4.51,4.51,0,0,1,1.32-.57,6.15,6.15,0,0,1,1.55-.19h14.54a6,6,0,0,1,1.54.19,5,5,0,0,1,1.34.56,3.37,3.37,0,0,1,1,.95,2.63,2.63,0,0,1,.47,1.38l.18,6.74a2.52,2.52,0,0,1-.41,1.42,3.16,3.16,0,0,1-1,1,4.71,4.71,0,0,1-1.33.58,6.18,6.18,0,0,1-1.56.2H394.7a6.12,6.12,0,0,1-1.56-.2,5.13,5.13,0,0,1-1.35-.57,3.52,3.52,0,0,1-1-1A2.52,2.52,0,0,1,390.33,371.82Z"/><path class="cls-11" d="M413.89,400.88a2.56,2.56,0,0,1,.47,1.42l.2,7.23a2.65,2.65,0,0,1-.41,1.46,3.4,3.4,0,0,1-1,1,4.83,4.83,0,0,1-1.38.62,6.07,6.07,0,0,1-1.61.21H394.87a6.13,6.13,0,0,1-1.61-.21,4.87,4.87,0,0,1-1.39-.62,3.49,3.49,0,0,1-1-1,2.65,2.65,0,0,1-.44-1.45l0-7.23a2.7,2.7,0,0,1,.44-1.44,3.35,3.35,0,0,1,1-1,4.8,4.8,0,0,1,1.36-.6,6.05,6.05,0,0,1,1.6-.21h15.06a6.05,6.05,0,0,1,1.6.21,5.13,5.13,0,0,1,1.37.6A3.36,3.36,0,0,1,413.89,400.88Z"/><path class="cls-11" d="M379.89,412.86H364.63a6.07,6.07,0,0,1-1.61-.21,4.83,4.83,0,0,1-1.38-.62,3.28,3.28,0,0,1-1-1,2.55,2.55,0,0,1-.4-1.45l.23-7.24a2.69,2.69,0,0,1,.48-1.42,3.45,3.45,0,0,1,1.05-1,5.06,5.06,0,0,1,1.38-.6,6.05,6.05,0,0,1,1.6-.21H380a5.93,5.93,0,0,1,1.59.21,4.87,4.87,0,0,1,1.37.6,3.55,3.55,0,0,1,1,1,2.66,2.66,0,0,1,.43,1.44l-.05,7.24a2.71,2.71,0,0,1-.45,1.44,3.69,3.69,0,0,1-1.05,1,5,5,0,0,1-1.39.61A6.07,6.07,0,0,1,379.89,412.86Z"/><path class="cls-11" d="M302.15,373.16a2.33,2.33,0,0,1-.31-1.45l.67-6.74a2.6,2.6,0,0,1,.56-1.34,3.83,3.83,0,0,1,1.06-.92,5.17,5.17,0,0,1,1.36-.55A6.07,6.07,0,0,1,307,362h14.55a5.89,5.89,0,0,1,1.53.19,4.74,4.74,0,0,1,1.31.58,3.08,3.08,0,0,1,1,1,2.41,2.41,0,0,1,.34,1.43l-.5,6.74a2.68,2.68,0,0,1-.53,1.37,3.89,3.89,0,0,1-1.06.94,5.4,5.4,0,0,1-1.37.56,5.81,5.81,0,0,1-1.56.2H306a6.12,6.12,0,0,1-1.56-.2,4.48,4.48,0,0,1-1.31-.59A3,3,0,0,1,302.15,373.16Z"/><path class="cls-11" d="M442.7,399.87a3.9,3.9,0,0,1,1.07,1,2.71,2.71,0,0,1,.52,1.41l.44,7.24a2.68,2.68,0,0,1-.36,1.47,3.28,3.28,0,0,1-1,1,4.46,4.46,0,0,1-1.36.62,5.69,5.69,0,0,1-1.61.22H425.12a6.2,6.2,0,0,1-1.62-.21,5.21,5.21,0,0,1-1.4-.61,3.81,3.81,0,0,1-1.06-1,2.73,2.73,0,0,1-.49-1.43l-.26-7.24a2.63,2.63,0,0,1,.4-1.45,3.38,3.38,0,0,1,1-1,4.61,4.61,0,0,1,1.37-.61,5.85,5.85,0,0,1,1.58-.21h15.06a6.05,6.05,0,0,1,1.6.21A5.11,5.11,0,0,1,442.7,399.87Z"/><path class="cls-11" d="M466.59,448.66a3.2,3.2,0,0,1-.39,1.78,4.07,4.07,0,0,1-1.2,1.33,5.69,5.69,0,0,1-1.7.81,7.16,7.16,0,0,1-2,.28H333.77a7.18,7.18,0,0,1-2-.28,5.75,5.75,0,0,1-1.71-.81,4.08,4.08,0,0,1-1.21-1.32,3.2,3.2,0,0,1-.41-1.78l.44-6.5a3.33,3.33,0,0,1,.62-1.7,4.72,4.72,0,0,1,1.31-1.24,6.29,6.29,0,0,1,1.75-.77,7.59,7.59,0,0,1,2-.28H460.31a7.73,7.73,0,0,1,2,.28,6.29,6.29,0,0,1,1.75.77,4.6,4.6,0,0,1,1.32,1.23,3.27,3.27,0,0,1,.64,1.7Z"/><path class="cls-11" d="M429.53,419.83a2.75,2.75,0,0,1,.5,1.44l.33,7.5a2.67,2.67,0,0,1-.39,1.49,3.47,3.47,0,0,1-1,1.08,5.13,5.13,0,0,1-1.4.64,5.9,5.9,0,0,1-1.64.22H410.37a6,6,0,0,1-1.65-.22,5,5,0,0,1-1.41-.64,3.55,3.55,0,0,1-1.07-1,2.79,2.79,0,0,1-.46-1.46l-.14-7.51a2.67,2.67,0,0,1,.41-1.46,3.36,3.36,0,0,1,1-1.05,5,5,0,0,1,1.38-.63,6.26,6.26,0,0,1,1.62-.21h15.34a6.15,6.15,0,0,1,1.62.21,5.29,5.29,0,0,1,1.41.62A3.49,3.49,0,0,1,429.53,419.83Z"/><path class="cls-11" d="M532.92,450.87a3.2,3.2,0,0,1-1,1.16,4.41,4.41,0,0,1-1.39.69,5.94,5.94,0,0,1-1.66.23H513.08a6.32,6.32,0,0,1-1.69-.23,5.28,5.28,0,0,1-1.47-.64,4.12,4.12,0,0,1-1.15-1,3.13,3.13,0,0,1-.6-1.44l-1-7.79a2.72,2.72,0,0,1,.27-1.53,3.27,3.27,0,0,1,1-1.13,4.31,4.31,0,0,1,1.38-.66,5.8,5.8,0,0,1,1.64-.23h15.61a6.12,6.12,0,0,1,1.67.22,5.31,5.31,0,0,1,1.46.62,4.17,4.17,0,0,1,1.15,1,3,3,0,0,1,.63,1.42l1.17,7.79A2.67,2.67,0,0,1,532.92,450.87Z"/><path class="cls-11" d="M474.52,431.19a4.78,4.78,0,0,1-1.31-1.21,3.35,3.35,0,0,1-.64-1.66L472,422a3,3,0,0,1,.37-1.72,3.9,3.9,0,0,1,1.17-1.27,5.44,5.44,0,0,1,1.63-.76,7.36,7.36,0,0,1,2-.26H524.6a7.74,7.74,0,0,1,2,.26,6.57,6.57,0,0,1,1.74.72,5,5,0,0,1,1.35,1.16,3.49,3.49,0,0,1,.73,1.62l1,6.32a3.05,3.05,0,0,1-.26,1.76,3.62,3.62,0,0,1-1.13,1.32,5.2,5.2,0,0,1-1.62.79,7.07,7.07,0,0,1-2,.27h-48.1a7.84,7.84,0,0,1-2-.26A6.83,6.83,0,0,1,474.52,431.19Z"/><path class="cls-11" d="M462.13,421.23l.58,7.5a2.63,2.63,0,0,1-.33,1.5,3.39,3.39,0,0,1-1,1.1A4.74,4.74,0,0,1,460,432a5.9,5.9,0,0,1-1.64.22H442.81a6,6,0,0,1-1.65-.22,5.31,5.31,0,0,1-1.43-.63,3.81,3.81,0,0,1-1.08-1,2.82,2.82,0,0,1-.51-1.45l-.4-7.5a2.7,2.7,0,0,1,.37-1.48,3.34,3.34,0,0,1,1-1.07,4.79,4.79,0,0,1,1.37-.63,6.2,6.2,0,0,1,1.62-.21h15.33a6.28,6.28,0,0,1,1.63.21,5.69,5.69,0,0,1,1.42.61,3.94,3.94,0,0,1,1.09,1A2.77,2.77,0,0,1,462.13,421.23Z"/><path class="cls-11" d="M414.35,391.42l-.21-7a2.47,2.47,0,0,1,.4-1.43,3.19,3.19,0,0,1,1-1,4.66,4.66,0,0,1,1.34-.59,6.18,6.18,0,0,1,1.56-.2h14.8a6.25,6.25,0,0,1,1.57.2,4.88,4.88,0,0,1,1.36.57,3.53,3.53,0,0,1,1.06,1,2.59,2.59,0,0,1,.5,1.39l.38,7a2.52,2.52,0,0,1-.37,1.45,3.23,3.23,0,0,1-1,1,4.87,4.87,0,0,1-1.35.6,5.91,5.91,0,0,1-1.58.21h-15a6,6,0,0,1-1.59-.21,5,5,0,0,1-1.37-.59,3.42,3.42,0,0,1-1.05-1A2.56,2.56,0,0,1,414.35,391.42Z"/><path class="cls-11" d="M472.8,399.28a5.09,5.09,0,0,1,1.39.58,4,4,0,0,1,1.09,1,2.69,2.69,0,0,1,.55,1.4l.69,7.23a2.57,2.57,0,0,1-.31,1.48,3.24,3.24,0,0,1-1,1.07,4.25,4.25,0,0,1-1.36.63,5.59,5.59,0,0,1-1.61.22H457a6.28,6.28,0,0,1-1.63-.21A4.91,4.91,0,0,1,454,412a3.73,3.73,0,0,1-1.09-1,2.8,2.8,0,0,1-.52-1.42l-.51-7.23a2.59,2.59,0,0,1,.35-1.46,3.21,3.21,0,0,1,1-1.05,4.63,4.63,0,0,1,1.35-.61,5.85,5.85,0,0,1,1.58-.21H471.2A6.16,6.16,0,0,1,472.8,399.28Z"/><path class="cls-11" d="M450.22,371.9l-.48-6.75a2.4,2.4,0,0,1,.36-1.42,2.9,2.9,0,0,1,1-1,4.74,4.74,0,0,1,1.31-.58,5.89,5.89,0,0,1,1.53-.19h14.54a6.09,6.09,0,0,1,1.55.19,5.31,5.31,0,0,1,1.36.55,3.83,3.83,0,0,1,1.06.92A2.58,2.58,0,0,1,473,365l.64,6.75a2.51,2.51,0,0,1-.32,1.44,3.06,3.06,0,0,1-1,1,4.48,4.48,0,0,1-1.31.59,6.12,6.12,0,0,1-1.56.2H454.72a5.81,5.81,0,0,1-1.56-.2,5.4,5.4,0,0,1-1.37-.56,3.73,3.73,0,0,1-1.05-.95A2.52,2.52,0,0,1,450.22,371.9Z"/><path class="cls-11" d="M481.64,365.29a2.49,2.49,0,0,1,.31-1.48,3.19,3.19,0,0,1,1-1,4.5,4.5,0,0,1,1.35-.6,6.3,6.3,0,0,1,1.59-.2h32.65a6.72,6.72,0,0,1,1.62.2,5.69,5.69,0,0,1,1.41.56,4,4,0,0,1,1.13.93,2.84,2.84,0,0,1,.63,1.35l1,6.55a2.43,2.43,0,0,1-.25,1.5,2.92,2.92,0,0,1-1,1.08,4.4,4.4,0,0,1-1.35.62,6.07,6.07,0,0,1-1.61.21H487.06a6.72,6.72,0,0,1-1.62-.2,5.52,5.52,0,0,1-1.43-.59,4,4,0,0,1-1.11-.95,2.73,2.73,0,0,1-.58-1.4Z"/><path class="cls-11" d="M419.45,371.86l-.24-6.75a2.52,2.52,0,0,1,.4-1.41,3.32,3.32,0,0,1,1-1,4.66,4.66,0,0,1,1.32-.57,5.94,5.94,0,0,1,1.53-.19H438a6.07,6.07,0,0,1,1.54.19,4.91,4.91,0,0,1,1.34.56,3.52,3.52,0,0,1,1.05.92,2.57,2.57,0,0,1,.51,1.37l.41,6.75a2.4,2.4,0,0,1-.36,1.42,3.28,3.28,0,0,1-1,1,4.58,4.58,0,0,1-1.33.58,6,6,0,0,1-1.55.2H423.89a6.24,6.24,0,0,1-1.56-.2,4.82,4.82,0,0,1-1.35-.57,3.55,3.55,0,0,1-1-.95A2.63,2.63,0,0,1,419.45,371.86Z"/><path class="cls-11" d="M499.86,449.36a2.67,2.67,0,0,1-.28,1.54,3.32,3.32,0,0,1-1,1.14,4.74,4.74,0,0,1-1.39.68,6,6,0,0,1-1.67.23H479.7a6.32,6.32,0,0,1-1.69-.23,5.51,5.51,0,0,1-1.46-.65,3.87,3.87,0,0,1-1.12-1,3,3,0,0,1-.56-1.46l-.69-7.79a2.7,2.7,0,0,1,.31-1.52,3.53,3.53,0,0,1,1-1.11,4.57,4.57,0,0,1,1.39-.65,5.8,5.8,0,0,1,1.64-.23h15.62a6.22,6.22,0,0,1,1.67.22,5.67,5.67,0,0,1,1.44.63,4.11,4.11,0,0,1,1.13,1,3,3,0,0,1,.59,1.44Z"/><path class="cls-11" d="M479,386.19a3.06,3.06,0,0,1,.39-1.82,4.07,4.07,0,0,1,1.26-1.33,6.3,6.3,0,0,1,1.76-.8,8.16,8.16,0,0,1,2.12-.27h34.95a8.7,8.7,0,0,1,2.16.27,7.48,7.48,0,0,1,1.88.76,5.26,5.26,0,0,1,1.47,1.22,3.56,3.56,0,0,1,.78,1.7l.78,5.12a1.1,1.1,0,0,0,0,.18c0,.07,0,.13,0,.2v.1l0,.09c0,.06,0,.12,0,.18a1.29,1.29,0,0,1,0,.19l2.17,14.37a2.84,2.84,0,0,1-.27,1.72,3.45,3.45,0,0,1-1.11,1.28,5.21,5.21,0,0,1-1.59.76,6.82,6.82,0,0,1-1.93.26H497a7.66,7.66,0,0,1-2-.25,6.64,6.64,0,0,1-1.7-.72,5.08,5.08,0,0,1-1.31-1.15,3.26,3.26,0,0,1-.66-1.62l-1.26-11.26h-4.35a8.43,8.43,0,0,1-2.19-.28,7.18,7.18,0,0,1-1.88-.79,5.15,5.15,0,0,1-1.43-1.25,3.42,3.42,0,0,1-.71-1.75Z"/><path class="cls-11" d="M445.61,391.45l-.44-7a2.45,2.45,0,0,1,.35-1.44,3.21,3.21,0,0,1,1-1,4.48,4.48,0,0,1,1.33-.59,6.12,6.12,0,0,1,1.56-.2h14.8a6.37,6.37,0,0,1,1.57.2,5.4,5.4,0,0,1,1.37.56,3.82,3.82,0,0,1,1.07.95,2.58,2.58,0,0,1,.54,1.37l.62,7a2.43,2.43,0,0,1-.32,1.46,3.15,3.15,0,0,1-1,1,4.69,4.69,0,0,1-1.34.61,5.85,5.85,0,0,1-1.58.21h-15a6.55,6.55,0,0,1-1.6-.2,5.52,5.52,0,0,1-1.38-.59,3.69,3.69,0,0,1-1.06-1A2.56,2.56,0,0,1,445.61,391.45Z"/><path class="cls-11" d="M442.16,502.41A7.78,7.78,0,0,1,439.9,505a11.1,11.1,0,0,1-3.31,1.68,13.94,13.94,0,0,1-4.06.6H350.79a13.84,13.84,0,0,1-4.06-.6A11,11,0,0,1,343.4,505a8,8,0,0,1-2.26-2.58,6.33,6.33,0,0,1-.75-3.28l1.26-25.63a6.15,6.15,0,0,1,1-3.09,8.76,8.76,0,0,1,2.39-2.39,11.9,11.9,0,0,1,3.32-1.54,14,14,0,0,1,3.94-.56h78.5a14,14,0,0,1,3.94.56,11.5,11.5,0,0,1,3.32,1.54,8.54,8.54,0,0,1,2.41,2.38,6.15,6.15,0,0,1,1,3.09l1.36,25.64A6.16,6.16,0,0,1,442.16,502.41Z"/><path class="cls-12" d="M444.6,331.1h0Z"/><path class="cls-12" d="M457.15,331.1h0Z"/><path class="cls-4" d="M480.79,89.85a1.05,1.05,0,0,0,.65-.23L506.84,70h65.7a1.08,1.08,0,0,0,0-2.15H506.47a1.05,1.05,0,0,0-.65.23l-24,18.52v-15a1.07,1.07,0,1,0-2.14,0V88.78a1.06,1.06,0,0,0,.6,1A1.08,1.08,0,0,0,480.79,89.85Z"/><polygon class="cls-2" points="201.62 175.46 201.62 223.08 226.78 254.72 201.62 254.72 199.52 254.72 83.65 254.72 83.65 175.46 201.62 175.46"/><path class="cls-4" d="M83.65,255.79h89a1.07,1.07,0,0,0,0-2.14H84.72V176.53H200.55v14.53a1.07,1.07,0,1,0,2.14,0v-15.6a1.07,1.07,0,0,0-1.07-1.08h-118a1.07,1.07,0,0,0-1.07,1.08v79.26A1.07,1.07,0,0,0,83.65,255.79Z"/><path class="cls-4" d="M193.75,255.79h33a1.07,1.07,0,0,0,.84-1.74L202.69,222.7V208a1.07,1.07,0,0,0-2.14,0v15.11a1.06,1.06,0,0,0,.23.66l23.77,29.91h-30.8a1.07,1.07,0,0,0,0,2.14Z"/><path class="cls-3" d="M101.3,216.16h62.84a1.07,1.07,0,1,0,0-2.14H101.3a1.07,1.07,0,1,0,0,2.14Z"/><path class="cls-3" d="M101.3,205.63h62.84a1.07,1.07,0,1,0,0-2.14H101.3a1.07,1.07,0,0,0,0,2.14Z"/><path class="cls-3" d="M101.3,195.1h35.58a1.07,1.07,0,0,0,0-2.14H101.3a1.07,1.07,0,1,0,0,2.14Z"/><path class="cls-5" d="M207,445.62a1.06,1.06,0,0,1-1.07-1.07v-39.5a1.07,1.07,0,1,1,2.14,0v39.5A1.06,1.06,0,0,1,207,445.62Z"/><polygon class="cls-4" points="549.39 192.7 339.74 192.7 339.74 101.13 554.1 101.13 549.39 192.7"/><path class="cls-2" d="M507.11,99a18.17,18.17,0,0,0-18.17,18.17V327.54H257.84V117.2A18.16,18.16,0,0,1,276,99Z"/><path class="cls-4" d="M494.73,29h88.69a18.18,18.18,0,0,1,18.17,18.17v96.68h-40Z"/><path class="cls-2" d="M601.59,112.92a1.29,1.29,0,0,1-1.29-1.29V47.18A16.9,16.9,0,0,0,583.42,30.3a1.29,1.29,0,1,1,0-2.57,19.47,19.47,0,0,1,19.45,19.45v64.45A1.28,1.28,0,0,1,601.59,112.92Z"/><path class="cls-13" d="M579.78,29a18.17,18.17,0,0,0-18.16,18.17V172.43a18.17,18.17,0,1,1-36.34,0V117.2A18.16,18.16,0,0,0,507.11,99H330.52V47.18A18.17,18.17,0,0,1,348.68,29Z"/><path class="cls-2" d="M543.45,191.89A19.48,19.48,0,0,1,524,172.43V117.2a16.87,16.87,0,0,0-16.88-16.88,1.29,1.29,0,0,1,0-2.58,19.44,19.44,0,0,1,19.45,19.46v55.23a16.9,16.9,0,0,0,16.89,16.88,16.88,16.88,0,0,0,16.88-16.88V47.18a19.48,19.48,0,0,1,19.45-19.45,1.29,1.29,0,1,1,0,2.57A16.9,16.9,0,0,0,562.9,47.18V172.43a19.46,19.46,0,0,1-19.45,19.46Z"/><path class="cls-3" d="M350.24,205.32c-.82.58-1.65,1.14-2.51,1.66A42.5,42.5,0,0,1,299,204a10.31,10.31,0,0,1,8-9.59l9.89-2.25,2.09-.48,6.41.09,2.29,0,4.1.06,2.48.68A25.87,25.87,0,0,1,350.24,205.32Z"/><polygon class="cls-3" points="331.79 191.88 312.88 205.61 316.99 191.88 316.99 172.13 331.79 172.13 331.79 191.88"/><rect class="cls-3" x="316.99" y="162.15" width="14.8" height="24.24"/><path class="cls-3" d="M332.73,162.54v5.1a15,15,0,0,1-15,15h0a10.37,10.37,0,0,1-10.37-10.37v-7.68a11.89,11.89,0,0,1,11.9-11.89h3.6A9.86,9.86,0,0,1,332.73,162.54Z"/><path class="cls-3" d="M334.68,164.61l-1.43,7.52c-9.93-3.67-13.83-7.9-15.88-13.95-2.18,4.56-6.55,7.12-12.32,8.4v-1.52c0-5.94,3.82-10.69,9.23-12.82,5.25-2.07,12.72-2.19,17.08,1.89l.29.28A11.43,11.43,0,0,1,334.68,164.61Z"/><path class="cls-3" d="M330.61,175.61h0a4.54,4.54,0,0,1-4.54-4.54v-1.62a4.55,4.55,0,0,1,4.54-4.54h0a4.54,4.54,0,0,1,4.54,4.54v1.62A4.54,4.54,0,0,1,330.61,175.61Z"/><path class="cls-4" d="M325.46,131.37a39.39,39.39,0,0,1,23,71.41c-.74.54-1.52,1.06-2.32,1.55a39.4,39.4,0,1,1-20.63-73Zm0-3.12A42.52,42.52,0,1,0,347.73,207c.86-.52,1.69-1.08,2.51-1.66a42.52,42.52,0,0,0-24.78-77.07Z"/><rect class="cls-14" x="389.77" y="146.92" width="21.73" height="11.91"/><rect class="cls-14" x="431.04" y="146.92" width="44.35" height="11.91"/><rect class="cls-3" x="389.77" y="175.53" width="85.61" height="11.91"/><rect class="cls-4" x="389.77" y="204.15" width="48.35" height="11.91"/><rect class="cls-3" x="451.84" y="204.15" width="23.54" height="11.91"/><rect class="cls-4" x="354.48" y="244.56" width="120.9" height="5.73"/><rect class="cls-3" x="354.48" y="257.38" width="77.55" height="5.73"/><rect class="cls-4" x="448.57" y="257.38" width="26.81" height="5.73"/><rect class="cls-4" x="354.48" y="270.2" width="120.9" height="5.73"/><rect class="cls-3" x="354.48" y="283.02" width="120.9" height="5.73"/><rect class="cls-4" x="354.48" y="295.84" width="52.2" height="5.73"/><rect class="cls-4" x="427" y="295.84" width="48.39" height="5.73"/><path class="cls-4" d="M330.71,266.43H295.05V233.37h35.66Zm-33.08-2.58h30.51V235.94H297.63Z"/><path class="cls-4" d="M330.71,309.73H295.05V276.67h35.66Zm-33.08-2.58h30.51V279.24H297.63Z"/><path class="cls-2" d="M589.12,442.34a1.07,1.07,0,0,1-1.07-1.07l-.24-38a1.06,1.06,0,0,1,1.06-1.08h0a1.06,1.06,0,0,1,1.07,1.06l.24,38.05a1.08,1.08,0,0,1-1.07,1.08Z"/></g></g></svg>