<svg xmlns="http://www.w3.org/2000/svg" viewBox="0 0 777.51 476.04"><defs><style>.cls-1{fill:#dce5f7;}.cls-2{fill:#cf8282;}.cls-3{fill:#212121;}.cls-4{fill:#fff;}.cls-5{fill:#282828;}</style></defs><title>Asset 11</title><g id="Layer_2" data-name="Layer 2"><g id="Layer_2-2" data-name="Layer 2"><path class="cls-1" d="M234.43,60.77H47.67a25.68,25.68,0,0,1,.21-4.4h0A39.38,39.38,0,0,1,52.72,42.3c4-6.85,9.87-11.92,16.51-10.36a14.76,14.76,0,0,1,6.28,3.45c3.2,2.79,5.77,6.22,8.94,9s7.23,5.1,11.49,4.79c5.34-.38,9.18-5.09,10-10,1.92-11.93,1.8-35.5,16.93-38.77l.85-.16c12.93-2.18,21.85,10.27,25.3,21.43.39,1.27.71,2.52,1,3.73a48.14,48.14,0,0,1,1.09,9.32l.06.61c.11.86.22,1.72.37,2.56a20.51,20.51,0,0,0,1.79,5.81,2.64,2.64,0,0,0,1.57,1.55c2.06.49,3.79-1.87,5-3.75.33-.53.62-1,.86-1.4,3.75-5.86,14.11-9.78,18.78-2.74,3.26,4.92.55,14.51,7.35,17,7.79,2.81,9.76-7.3,10.45-12.48.85-6.37.71-12.89,2.61-19.09.81-1.86,2.15-4,4.31-4.24A5.57,5.57,0,0,1,209,22c2.38,5.71,3,11.87,3.91,17.93.71,4.92,1.68,15.77,8.31,16.38,3.53.32,6.71-5.88,10-3.13C233.29,54.89,233.18,58.53,234.43,60.77Z"/><path class="cls-2" d="M259.47,127l-18.58,1.74a30.44,30.44,0,0,0-27.82,30.15v5.18h63.18L284,138.18Z"/><path class="cls-3" d="M538.84,184.46l-340-29.82a10.55,10.55,0,0,0-11.49,9.48l-20.57,228a11,11,0,0,0,10,11.83l339.08,29.73a11,11,0,0,0,12-9.89l20.57-228A10.48,10.48,0,0,0,538.84,184.46ZM513,418.23l-330.59-29L202.17,170.1l330.59,29Z"/><polygon class="cls-4" points="532.76 199.09 512.99 418.23 483.63 415.65 279.77 397.78 182.4 389.24 202.18 170.1 262.62 175.4 466.48 193.28 532.76 199.09"/><path class="cls-3" d="M375.17,473.15l-66.94-5.87c-3.41-.29-6.11-1.26-6-2.16l4.5-49.81h0L386,422.26l-4.5,49.81C381.4,473,378.57,473.45,375.17,473.15Z"/><path class="cls-3" d="M406.93,475.18H275l1-8.1a18.2,18.2,0,0,1,19.82-16.35l94.56,8.3A18.16,18.16,0,0,1,406.93,475.18Z"/><path class="cls-5" d="M521.86,363.89a.85.85,0,0,1-.85-.84v-54a.85.85,0,0,1,1.69,0v54A.85.85,0,0,1,521.86,363.89Z"/><path class="cls-5" d="M380.38,458a.84.84,0,0,1-.85-.84V420.93a.85.85,0,0,1,1.7,0v36.23A.84.84,0,0,1,380.38,458Z"/><path class="cls-5" d="M406.32,476a.85.85,0,0,1-.85-.84A17.33,17.33,0,0,0,388,458h-7.66a.84.84,0,1,1,0-1.67H388a19,19,0,0,1,19.13,18.85A.85.85,0,0,1,406.32,476Z"/><path class="cls-5" d="M521.86,265.51a.85.85,0,0,1-.85-.84V180.54a9.69,9.69,0,0,0-9.75-9.6H429.73a.84.84,0,1,1,0-1.68h81.53a11.37,11.37,0,0,1,11.44,11.28v84.13A.85.85,0,0,1,521.86,265.51Z"/><path class="cls-5" d="M521.86,293.07a.84.84,0,0,1-.85-.84V279.69a.85.85,0,0,1,1.69,0v12.54A.84.84,0,0,1,521.86,293.07Z"/><path class="cls-5" d="M402.22,170.94H179.11a.84.84,0,1,1,0-1.68H402.22a.84.84,0,1,1,0,1.68Z"/><polygon class="cls-3" points="576.41 324.14 578.26 327.95 581.65 330.03 578.26 332.12 576.41 335.92 574.56 332.12 571.18 330.03 574.56 327.95 576.41 324.14"/><polygon class="cls-3" points="314.6 72.03 316.94 76.39 321.22 78.77 316.94 81.16 314.6 85.52 312.25 81.16 307.97 78.77 312.25 76.39 314.6 72.03"/><polygon class="cls-3" points="75.09 235.56 77.43 239.92 81.71 242.3 77.43 244.69 75.09 249.05 72.74 244.69 68.46 242.3 72.74 239.92 75.09 235.56"/><path class="cls-2" d="M668.33,280.69h0a9,9,0,0,1-9.06,8.93h0a9,9,0,0,1-9.06-8.93h0a9,9,0,0,1,9.06-8.93h0A9,9,0,0,1,668.33,280.69Z"/><path class="cls-3" d="M689.42,303.36h0a4.78,4.78,0,0,1-4.82,4.74h0a4.78,4.78,0,0,1-4.81-4.74h0a4.78,4.78,0,0,1,4.81-4.74h0A4.78,4.78,0,0,1,689.42,303.36Z"/><path class="cls-2" d="M676.45,297.8H660a.87.87,0,0,1-.88-.86V280.69a.86.86,0,0,1,.88-.86h16.48a.86.86,0,0,1,.88.86v16.25A.87.87,0,0,1,676.45,297.8Zm-15.6-1.73h14.72V281.55H660.85Z"/><path class="cls-5" d="M10,320.23a1,1,0,0,1-1-.74,1,1,0,0,1,.71-1.29,37.79,37.79,0,0,0,10.11-4.51,15.4,15.4,0,0,1-4.65-3.4c-1.51-1.62-2.11-3.2-1.79-4.7a5,5,0,0,1,2.9-3.28,7.3,7.3,0,0,1,6.32-.05,5.81,5.81,0,0,1,3.24,4.25,7.34,7.34,0,0,1-1.94,6.35,12.11,12.11,0,0,0,4.16.05,9.9,9.9,0,0,0,7.59-6,1.05,1.05,0,0,1,1.38-.54,1,1,0,0,1,.55,1.36A11.88,11.88,0,0,1,28.39,315a14.2,14.2,0,0,1-6.28-.39c-3.59,2.92-8.83,4.75-11.82,5.63A1.08,1.08,0,0,1,10,320.23Zm9.5-16.6a5.23,5.23,0,0,0-2.29.53c-.47.23-1.58.88-1.79,1.85s.58,2.12,1.29,2.88a13.2,13.2,0,0,0,4.92,3.32c1.57-1.52,2.51-3.3,2.13-5.33a3.76,3.76,0,0,0-2.11-2.76A4.78,4.78,0,0,0,19.49,303.63Z"/><path class="cls-1" d="M686,153.74h91.53c-.62-7.56-5.63-20.45-6.57-21.93-.38-.6-.71-1.16-1-1.59-4.27-6.69-16.06-11.14-21.38-3.13-3.72,5.61-.63,16.52-8.37,19.31-8.88,3.2-11.11-8.31-11.9-14.21-1-7.25-.81-14.68-3-21.74-.92-2.11-2.45-4.52-4.9-4.83a6.35,6.35,0,0,0-5.51,3.93c-2.72,6.5-3.47,13.52-4.46,20.42-.81,5.6-1.91,18-9.47,18.65-4,.37-7.64-6.69-11.35-3.56C687.28,147,687.4,151.19,686,153.74Z"/><path class="cls-5" d="M553.54,134.05c-4.42,0-8.71-1.93-10.23-6.11a10.18,10.18,0,0,1-.58-2.63,13.06,13.06,0,0,1-5.22-3.74,11.61,11.61,0,0,1-2.93-6.26.87.87,0,0,1,1.74-.16,10.12,10.12,0,0,0,2.52,5.3,12.17,12.17,0,0,0,3.86,3,15,15,0,0,1,.25-2,5.81,5.81,0,0,1,2.3-4,4.13,4.13,0,0,1,4.43,0,4,4,0,0,1,1.69,4,4.83,4.83,0,0,1-1.57,2.58,6.32,6.32,0,0,1-4.75,1.71l-.5,0a9.25,9.25,0,0,0,.4,1.59c1.88,5.12,8.5,5.63,12.6,4.36l.41-.14a10.69,10.69,0,0,0,3.08-1.66.88.88,0,0,1,1.23.13.86.86,0,0,1-.14,1.22,12.43,12.43,0,0,1-3.58,1.94l-.48.16A15.39,15.39,0,0,1,553.54,134.05ZM544.43,124a4.43,4.43,0,0,0,.72.09,4.56,4.56,0,0,0,3.46-1.25,3.21,3.21,0,0,0,1-1.65,2.27,2.27,0,0,0-.94-2.27,2.35,2.35,0,0,0-2.49,0,4.25,4.25,0,0,0-1.55,2.89A12.13,12.13,0,0,0,544.43,124Z"/><path class="cls-5" d="M684.78,476H477.66a.86.86,0,1,1,0-1.72H684.78a.86.86,0,1,1,0,1.72Z"/><path class="cls-2" d="M483.63,415.65,279.77,397.78,259.47,127l172.83-13a28.39,28.39,0,0,1,30.6,26Z"/><path class="cls-4" d="M342.12,195a.86.86,0,0,1-.85-.78.84.84,0,0,1,.79-.89l96-6.86a.86.86,0,0,1,.91.78.84.84,0,0,1-.79.89l-96,6.86Z"/><path class="cls-4" d="M299.69,223.24a.85.85,0,0,1-.85-.78.84.84,0,0,1,.79-.89l140.48-10a.84.84,0,1,1,.12,1.67l-140.48,10Z"/><path class="cls-4" d="M415.49,240.23a.84.84,0,0,1-.06-1.67l26.75-1.91a.86.86,0,0,1,.91.78.84.84,0,0,1-.79.89l-26.75,1.91Z"/><path class="cls-4" d="M301.76,248.35a.84.84,0,0,1-.06-1.67l94.76-6.77a.85.85,0,0,1,.91.78.83.83,0,0,1-.78.89l-94.77,6.77Z"/><path class="cls-4" d="M303.83,273.46a.84.84,0,0,1-.06-1.67l140.48-10a.86.86,0,0,1,.91.78.84.84,0,0,1-.79.89l-140.48,10Z"/><path class="cls-4" d="M305.9,298.58a.86.86,0,0,1-.85-.78.84.84,0,0,1,.79-.89l140.48-10a.84.84,0,0,1,.91.77.85.85,0,0,1-.79.9L306,298.58Z"/><path class="cls-4" d="M360.06,320a.84.84,0,0,1-.07-1.67l88.4-6.31a.84.84,0,1,1,.13,1.67L360.12,320Z"/><path class="cls-4" d="M308,323.69a.86.86,0,0,1-.85-.78.84.84,0,0,1,.79-.89l28.68-2a.84.84,0,0,1,.9.78.82.82,0,0,1-.78.89L308,323.69Z"/><path class="cls-4" d="M310,348.8a.84.84,0,0,1-.06-1.67l140.48-10a.86.86,0,0,1,.91.78.84.84,0,0,1-.78.89l-140.49,10Z"/><path class="cls-4" d="M374.07,369.49a.84.84,0,0,1-.06-1.67l78.52-5.6a.84.84,0,0,1,.91.77.83.83,0,0,1-.78.89l-78.53,5.61Z"/><path class="cls-5" d="M555,446a.87.87,0,0,1-.77-.45.86.86,0,0,1,.35-1.17l11.47-6.21a.88.88,0,0,1,1.19.34.86.86,0,0,1-.35,1.18l-11.47,6.21A.9.9,0,0,1,555,446Z"/><path class="cls-5" d="M572.52,473.15a.88.88,0,0,1-.86-.71l-7.44-41.16a.86.86,0,0,1,.71-1,.87.87,0,0,1,1,.7l7.45,41.16a.87.87,0,0,1-.71,1Z"/><path class="cls-5" d="M549.39,473.07h-.17a.88.88,0,0,1-.69-1l8.3-41a.88.88,0,0,1,1-.68.86.86,0,0,1,.69,1l-8.3,41A.87.87,0,0,1,549.39,473.07Z"/><path class="cls-5" d="M603.9,473.15a.88.88,0,0,1-.86-.71l-9.37-51.78a.88.88,0,0,1,1.73-.3l9.37,51.78a.87.87,0,0,1-.71,1Z"/><path class="cls-5" d="M580.91,473.07h-.17a.86.86,0,0,1-.69-1l8.3-41a.88.88,0,0,1,1.72.34l-8.3,41A.87.87,0,0,1,580.91,473.07Z"/><path class="cls-3" d="M592.41,432.54a24.35,24.35,0,0,1-12.9,3.69H541.34a3.37,3.37,0,0,1-3.4-3.35,3.31,3.31,0,0,1,1-2.37,3.42,3.42,0,0,1,2.41-1H589A3.38,3.38,0,0,1,592.41,432.54Z"/><path class="cls-3" d="M600.75,423.76a24,24,0,0,1-8.34,8.78,24.35,24.35,0,0,1-12.9,3.69,24,24,0,0,1-16.84-6.7c-8-7.71-6.66-19.65.8-29.95,10.34-14.31,22.86-22.74,38.12-18.93C618.93,385,609,408.74,600.75,423.76Z"/><path class="cls-5" d="M586.39,446a.87.87,0,0,1-.77-.45.86.86,0,0,1,.35-1.17l11.47-6.21a.88.88,0,0,1,1.19.34.86.86,0,0,1-.34,1.18l-11.48,6.21A.87.87,0,0,1,586.39,446Z"/><path class="cls-5" d="M176.83,404.64H80.27a.87.87,0,1,1,0-1.73h96.56a.87.87,0,1,1,0,1.73Z"/><path class="cls-5" d="M141.77,434.73a.89.89,0,0,1-.73-.39l-10.26-15.18A.86.86,0,0,1,131,418L150,403.1a.88.88,0,0,1,1.23.14.86.86,0,0,1-.14,1.22l-18.42,14.4,9.81,14.52a.86.86,0,0,1-.24,1.2A.88.88,0,0,1,141.77,434.73Z"/><path class="cls-5" d="M95.18,473a1,1,0,0,1-.49-.14.86.86,0,0,1-.24-1.2l35.88-52.75-18.64-14.41a.87.87,0,0,1-.15-1.22.89.89,0,0,1,1.24-.14L132.05,418a.86.86,0,0,1,.19,1.16L95.91,472.58A.88.88,0,0,1,95.18,473Z"/><path class="cls-5" d="M138.56,404.64H89.4a.88.88,0,0,1-.83-.58L76.2,368.89a.89.89,0,0,1,.11-.79.91.91,0,0,1,.72-.36h49.16a.87.87,0,0,1,.83.58l12.37,35.18a.87.87,0,0,1-.11.78A.88.88,0,0,1,138.56,404.64ZM90,402.91h47.31l-11.76-33.44H78.26Z"/><path class="cls-2" d="M642.61,429.21H697a0,0,0,0,1,0,0v21.36a24.6,24.6,0,0,1-24.6,24.6h-5.2a24.6,24.6,0,0,1-24.6-24.6V429.21A0,0,0,0,1,642.61,429.21Z"/><path class="cls-5" d="M688.58,437.4a.68.68,0,0,1-.68-.67v-6.84H662.09a.68.68,0,1,1,0-1.35h26.49a.68.68,0,0,1,.69.67v7.52A.68.68,0,0,1,688.58,437.4Z"/><path class="cls-5" d="M661.38,475.85a27.72,27.72,0,0,1-27.88-27.48V429.21a.67.67,0,0,1,.68-.67h16.26a.68.68,0,1,1,0,1.35H634.86v18.48a26.6,26.6,0,0,0,49.84,12.46.69.69,0,0,1,.93-.27.66.66,0,0,1,.27.91A28,28,0,0,1,661.38,475.85Z"/><path class="cls-5" d="M694.65,458.58h-4.94a.68.68,0,1,1,0-1.35h4.94a15.42,15.42,0,0,0,13.76-8.47,5.39,5.39,0,0,0-.28-5.34,5.58,5.58,0,0,0-4.74-2.59H695a.67.67,0,0,1-.68-.67.68.68,0,0,1,.68-.68h8.43a7,7,0,0,1,5.9,3.23,6.73,6.73,0,0,1,.35,6.64A16.81,16.81,0,0,1,694.65,458.58Z"/><path class="cls-5" d="M647.3,415.47a.68.68,0,0,1-.68-.67c0-2.65,2.62-3.94,4.92-5.08,2.14-1.05,4.17-2.05,4.17-3.88s-2-2.82-4.17-3.87c-2.3-1.14-4.92-2.43-4.92-5.08s2.62-3.94,4.92-5.08c2.14-1.06,4.17-2.05,4.17-3.88s-2-2.82-4.17-3.87c-2.3-1.14-4.92-2.43-4.92-5.08s2.62-3.94,4.92-5.08c2.14-1,4.17-2,4.17-3.87a.68.68,0,1,1,1.36,0c0,2.65-2.61,3.94-4.92,5.07C650,376.16,648,377.16,648,379s2,2.82,4.16,3.88c2.31,1.13,4.92,2.42,4.92,5.07s-2.61,3.95-4.92,5.08c-2.14,1.06-4.16,2.06-4.16,3.88s2,2.82,4.16,3.88c2.31,1.13,4.92,2.42,4.92,5.07s-2.61,4-4.92,5.08C650,412,648,413,648,414.8A.68.68,0,0,1,647.3,415.47Z"/><path class="cls-5" d="M674.45,420.45a.68.68,0,0,1-.68-.68c0-2.65,2.62-3.94,4.92-5.07,2.14-1.06,4.17-2.06,4.17-3.88s-2-2.82-4.17-3.88c-2.3-1.13-4.92-2.42-4.92-5.08s2.62-3.94,4.92-5.07c2.14-1.06,4.17-2.06,4.17-3.88s-2-2.82-4.17-3.88c-2.3-1.13-4.92-2.42-4.92-5.08a.69.69,0,0,1,1.37,0c0,1.83,2,2.83,4.16,3.88,2.31,1.14,4.92,2.43,4.92,5.08s-2.61,3.94-4.92,5.08c-2.14,1.05-4.16,2.05-4.16,3.87s2,2.82,4.16,3.88c2.31,1.14,4.92,2.42,4.92,5.08s-2.61,3.94-4.92,5.08c-2.14,1.05-4.16,2.05-4.16,3.87A.68.68,0,0,1,674.45,420.45Z"/><path class="cls-5" d="M452.52,476H.88a.86.86,0,1,1,0-1.72H452.52a.86.86,0,1,1,0,1.72Z"/><path class="cls-3" d="M176.14,463.45c3.86,3.86,8.61,5.4,10.62,3.44s.52-6.67-3.34-10.52c-2.67-2.67-6.74-3.29-9-3.42a1.54,1.54,0,0,0-1.65,1.6C172.89,456.77,173.47,460.78,176.14,463.45Z"/><path class="cls-5" d="M191.72,475.8a.87.87,0,0,1-.88-.8c0-.41-2.7-40.92,7.68-70.06a.89.89,0,0,1,1.12-.53.86.86,0,0,1,.54,1.1c-10.27,28.8-7.62,69-7.59,69.37a.87.87,0,0,1-.81.92Z"/><path class="cls-5" d="M187.83,475.8h0a.87.87,0,0,1-.87-.87c.23-18.63-5-29.82-9-36.61a.86.86,0,0,1,.32-1.18.89.89,0,0,1,1.2.31c4.09,7,9.5,18.45,9.27,37.5A.88.88,0,0,1,187.83,475.8Z"/><path class="cls-3" d="M199.24,417c-.75,3.19-2.72,5.47-4.38,5.08s-2.4-3.28-1.64-6.47a8.4,8.4,0,0,1,3.54-4.56.94.94,0,0,1,1.36.31A8.29,8.29,0,0,1,199.24,417Z"/><path class="cls-2" d="M211,407.83a2.22,2.22,0,0,0-1.55-3.39h0a4.3,4.3,0,0,0-4.5,2l-5.51,10.1a3.39,3.39,0,0,1-3.73,1.66h0a3.34,3.34,0,0,1-2.6-3.12l-.41-11.46a4.25,4.25,0,0,0-3.13-3.76h0a3,3,0,0,0-2.9,3.06s.52,15.14.56,15.44v.14a6.23,6.23,0,0,0,4.8,5.2l4.48,1a6.31,6.31,0,0,0,6.63-2.57h0Z"/><path class="cls-2" d="M173.93,428.3h0l3.56-6.84a2.62,2.62,0,0,0-2-3.81h0a2.65,2.65,0,0,0-3,3.09Z"/><path class="cls-2" d="M170.87,430.56h0L163.19,432a2.65,2.65,0,0,1-3.13-3h0a2.68,2.68,0,0,1,3.86-2Z"/><path class="cls-2" d="M173.05,433.45h0l-3.56,6.84a2.63,2.63,0,0,0,2,3.81h0a2.65,2.65,0,0,0,3-3.09Z"/><path class="cls-2" d="M176.12,431.2h0l7.67-1.42a2.65,2.65,0,0,1,3.13,3h0a2.68,2.68,0,0,1-3.86,2Z"/><path class="cls-2" d="M172,428.75h0l-2.39-7.32a2.69,2.69,0,0,0-4.14-1.31h0a2.61,2.61,0,0,0,.08,4.28Z"/><path class="cls-2" d="M171.41,432.48h0L167,438.83a2.69,2.69,0,0,1-4.34.09h0a2.62,2.62,0,0,1,1.32-4.08Z"/><path class="cls-2" d="M175,433h0l2.39,7.33a2.68,2.68,0,0,0,4.14,1.3h0a2.61,2.61,0,0,0-.09-4.28Z"/><path class="cls-2" d="M175.58,429.27h0l4.41-6.35a2.69,2.69,0,0,1,4.34-.08h0a2.62,2.62,0,0,1-1.32,4.08Z"/><polygon class="cls-4" points="616.4 227.37 611.83 227.83 611.78 220.24 610.83 218.76 616.4 227.37"/><polygon class="cls-3" points="610.83 218.76 605.85 211.08 581.66 233.58 622.24 236.38 616.4 227.37 610.83 218.76"/><polygon class="cls-5" points="619.2 215.12 588.29 231.72 616.38 227.38 619.2 215.12"/><path class="cls-5" d="M633.46,216.55a1.06,1.06,0,0,1-1-.82,1,1,0,0,1,.81-1.23l3.51-.73a1,1,0,0,1,1.24.8,1,1,0,0,1-.81,1.22l-3.5.74ZM644,214.36a1.06,1.06,0,0,1-1-.83,1,1,0,0,1,.81-1.23l3.51-.73a1,1,0,0,1,1.24.8,1,1,0,0,1-.81,1.23l-3.5.73A.83.83,0,0,1,644,214.36Zm10.51-2.2a1,1,0,0,1-1-.82,1,1,0,0,1,.81-1.23l3.51-.73a1,1,0,0,1,1.24.8,1,1,0,0,1-.81,1.23l-3.5.73A.86.86,0,0,1,654.48,212.16ZM665,210a1,1,0,0,1-1-.82,1,1,0,0,1,.81-1.23l3.51-.73a1,1,0,0,1,1.24.8,1,1,0,0,1-.81,1.23l-3.5.73Zm10.51-2.19a1.05,1.05,0,0,1-1-.82,1,1,0,0,1,.81-1.23l3.51-.73a1,1,0,0,1,1.24.8,1,1,0,0,1-.81,1.22l-3.5.74ZM686,205.59a1,1,0,0,1-1-.83,1,1,0,0,1,.81-1.23l3.5-.73a1.05,1.05,0,0,1,1.25.8,1,1,0,0,1-.81,1.23l-3.5.73Zm10.51-2.2a1,1,0,0,1-.22-2l3.5-.73a1.05,1.05,0,0,1,1.25.8,1,1,0,0,1-.81,1.23l-3.5.73A.86.86,0,0,1,696.52,203.39ZM707,201.2a1,1,0,0,1-.22-2l3.5-.73a1.05,1.05,0,0,1,1.25.8,1,1,0,0,1-.81,1.23l-3.5.73Z"/><polygon class="cls-4" points="181.82 200.98 186.1 202.61 182.67 209.4 182.84 211.14 181.82 200.98"/><polygon class="cls-2" points="182.84 211.14 183.76 220.22 215.66 210.92 180.74 190.34 181.82 200.98 182.84 211.14"/><polygon class="cls-5" points="173.7 210.66 208.88 209.62 181.84 200.98 173.7 210.66"/><path class="cls-5" d="M158.37,199.27l-.27,0-3.46-.91a1,1,0,0,1-.75-1.27,1.05,1.05,0,0,1,1.29-.73l3.46.9a1,1,0,0,1-.27,2ZM148,196.55a1.26,1.26,0,0,1-.27,0l-3.46-.91a1,1,0,0,1-.75-1.27,1.05,1.05,0,0,1,1.29-.73l3.46.91a1,1,0,0,1,.74,1.27A1,1,0,0,1,148,196.55Zm-10.38-2.73a.84.84,0,0,1-.27,0l-3.46-.91a1,1,0,0,1-.75-1.26,1.05,1.05,0,0,1,1.29-.74l3.46.91a1,1,0,0,1,.74,1.27A1,1,0,0,1,137.61,193.82Zm-10.38-2.73a1.24,1.24,0,0,1-.27,0l-3.46-.91a1,1,0,0,1-.75-1.27,1.06,1.06,0,0,1,1.29-.74l3.46.91a1,1,0,0,1,.74,1.27A1,1,0,0,1,127.23,191.09Zm-10.38-2.73-.27,0-3.46-.91a1,1,0,0,1-.75-1.27,1.05,1.05,0,0,1,1.29-.73l3.46.9a1,1,0,0,1-.27,2Zm-10.38-2.72a1.26,1.26,0,0,1-.27,0l-3.46-.91a1,1,0,0,1-.75-1.27,1.05,1.05,0,0,1,1.29-.73l3.46.91a1,1,0,0,1,.74,1.27A1,1,0,0,1,106.47,185.64Zm-10.38-2.73a.84.84,0,0,1-.27,0L92.36,182a1,1,0,0,1-.75-1.27A1.05,1.05,0,0,1,92.9,180l3.46.91a1,1,0,0,1,.74,1.27A1,1,0,0,1,96.09,182.91Z"/><path class="cls-4" d="M327,205.16l-4.34-9.23-13.32,1.17-2.54,9.84-6,.53,9.91-35.63,6.19-.55,16.17,33.33Zm-6.28-13.94-4.11-9.06c-.3-.61-.72-1.56-1.26-2.87s-.92-2.27-1.14-2.89a51.09,51.09,0,0,1-1.31,6.49l-2.33,9.22Z"/><polygon class="cls-4" points="406.93 163.36 409.27 167.72 413.55 170.1 409.27 172.49 406.93 176.85 404.58 172.49 400.3 170.1 404.58 167.72 406.93 163.36"/><polygon class="cls-4" points="415.69 153.5 417.52 156.91 420.87 158.78 417.52 160.64 415.69 164.05 413.86 160.64 410.52 158.78 413.86 156.91 415.69 153.5"/><polygon class="cls-4" points="333.52 379.6 337.94 377.29 340.36 373.07 342.78 377.29 347.2 379.6 342.78 381.91 340.36 386.13 337.94 381.91 333.52 379.6"/><polygon class="cls-4" points="323.52 370.96 326.98 369.15 328.87 365.85 330.76 369.15 334.22 370.96 330.76 372.76 328.87 376.06 326.98 372.76 323.52 370.96"/></g></g></svg>