<svg xmlns="http://www.w3.org/2000/svg" viewBox="0 0 519.93 270.58"><defs><style>.cls-1{fill:#dce5f7;}.cls-2{fill:#e2a3a3;}.cls-3{fill:#fff;}.cls-4{fill:#240448;}.cls-5{fill:#353535;}</style></defs><title>Asset 6</title><g id="Layer_2" data-name="Layer 2"><g id="Layer_2-2" data-name="Layer 2"><path class="cls-1" d="M257.36,38.49a33.34,33.34,0,0,0-3-9.76c-1.87-3.42-5.46-6.65-9.61-6.1-3,.4-5.26-1.23-6.4-3.92-1.55-3.63-2.23-7.7-3.47-11.45-1.16-3.5-3.62-8.16-8.11-7.11-8.54,2-9.13,12.93-9.88,19.93-.28,2.6-1.18,6.36-4.59,5.92-2.23-.29-3.87-2.16-5.64-3.36-4.72-3.22-10.85-2.57-15.62.2-3.4,2-5.46,5.53-6.58,9.2a27,27,0,0,0-.82,3.67c0,.18-.16,2.78-.16,2.78Z"/><path class="cls-1" d="M26.81,173.34a21.36,21.36,0,0,1,1.89-6.14c1.18-2.15,3.44-4.18,6-3.83a3.71,3.71,0,0,0,4-2.46c1-2.29,1.4-4.85,2.18-7.21.73-2.2,2.28-5.13,5.1-4.46,5.37,1.26,5.74,8.12,6.21,12.53.17,1.63.74,4,2.89,3.71,1.4-.18,2.43-1.35,3.54-2.11,3-2,6.82-1.61,9.82.13a9.75,9.75,0,0,1,4.14,5.79,15,15,0,0,1,.51,2.3c0,.12.11,1.75.11,1.75Z"/><path class="cls-1" d="M452.53,158.3a30.54,30.54,0,0,1,2.69-8.73c1.68-3.06,4.9-5.95,8.6-5.45a5.27,5.27,0,0,0,5.73-3.51c1.39-3.25,2-6.89,3.1-10.24,1-3.14,3.24-7.31,7.25-6.36,7.64,1.8,8.17,11.56,8.84,17.83.25,2.32,1.06,5.68,4.11,5.28,2-.25,3.46-1.92,5-3,4.23-2.88,9.71-2.29,14,.18,3,1.76,4.89,4.95,5.89,8.24a22.73,22.73,0,0,1,.73,3.27c0,.17.15,2.49.15,2.49Z"/><path class="cls-1" d="M0,93.77H67.39c-.45-5.65-4.14-15.28-4.83-16.38-.28-.45-.52-.87-.72-1.19-3.15-5-11.83-8.32-15.75-2.34-2.74,4.19-.46,12.34-6.16,14.43-6.54,2.39-8.18-6.21-8.76-10.62-.72-5.41-.6-11-2.2-16.24-.67-1.57-1.8-3.38-3.6-3.6a4.68,4.68,0,0,0-4.07,2.93C19.3,65.62,18.75,70.86,18,76c-.59,4.19-1.4,13.42-7,13.94-3,.27-5.62-5-8.36-2.67C1,88.76,1.05,91.86,0,93.77Z"/><path class="cls-2" d="M57.31,228.39h45.13a0,0,0,0,1,0,0v21.37a17.31,17.31,0,0,1-17.31,17.31H74.62a17.31,17.31,0,0,1-17.31-17.31V228.39a0,0,0,0,1,0,0Z"/><path class="cls-2" d="M60.35,216.82a.56.56,0,0,1-.57-.56c0-2.24,2.17-3.32,4.08-4.28s3.46-1.73,3.46-3.26-1.68-2.38-3.46-3.26-4.08-2-4.08-4.28,2.17-3.32,4.08-4.27,3.46-1.73,3.46-3.26-1.68-2.38-3.46-3.27-4.08-2-4.08-4.27,2.17-3.32,4.08-4.28,3.46-1.72,3.46-3.26a.57.57,0,0,1,1.13,0c0,2.24-2.17,3.32-4.08,4.28s-3.46,1.72-3.46,3.26,1.68,2.37,3.46,3.26,4.08,2,4.08,4.28-2.17,3.31-4.08,4.27-3.46,1.73-3.46,3.26,1.68,2.38,3.46,3.26,4.08,2,4.08,4.28S66.28,212,64.37,213s-3.46,1.73-3.46,3.27A.56.56,0,0,1,60.35,216.82Z"/><path class="cls-2" d="M82.87,221a.56.56,0,0,1-.56-.57c0-2.23,2.16-3.32,4.08-4.27,1.77-.89,3.45-1.73,3.45-3.26s-1.68-2.38-3.45-3.27c-1.92-.95-4.08-2-4.08-4.27s2.16-3.32,4.08-4.28c1.77-.88,3.45-1.72,3.45-3.26s-1.68-2.37-3.45-3.26c-1.92-1-4.08-2-4.08-4.27a.56.56,0,0,1,.56-.57.57.57,0,0,1,.57.57c0,1.53,1.68,2.37,3.45,3.26,1.92.95,4.08,2,4.08,4.27s-2.16,3.32-4.08,4.28c-1.77.88-3.45,1.72-3.45,3.26s1.68,2.37,3.45,3.26c1.92,1,4.08,2,4.08,4.28s-2.16,3.31-4.08,4.27c-1.77.89-3.45,1.73-3.45,3.26A.57.57,0,0,1,82.87,221Z"/><path class="cls-1" d="M519.83,85.32H349a22.07,22.07,0,0,1,.19-4.08h0a36.73,36.73,0,0,1,4.42-13c3.62-6.37,9-11.07,15.11-9.62a13.41,13.41,0,0,1,5.74,3.2c2.93,2.59,5.28,5.77,8.18,8.4s6.61,4.73,10.51,4.44c4.89-.35,8.4-4.72,9.13-9.32,1.76-11.07,1.65-32.95,15.49-36q.39-.09.78-.15c11.83-2,20,9.53,23.14,19.89a33.68,33.68,0,0,1,.87,3.46,43.69,43.69,0,0,1,1,8.65l.06.56c.1.8.2,1.6.34,2.38a19,19,0,0,0,1.64,5.39A2.45,2.45,0,0,0,447,70.93c1.89.45,3.47-1.74,4.56-3.48l.79-1.3c3.43-5.44,12.9-9.07,17.17-2.54,3,4.56.51,13.46,6.73,15.73,7.13,2.61,8.92-6.77,9.56-11.58.78-5.91.65-12,2.39-17.71.74-1.72,2-3.69,3.94-3.94a5.12,5.12,0,0,1,4.43,3.2c2.18,5.3,2.78,11,3.58,16.64.64,4.57,1.53,14.64,7.6,15.2,3.22.3,6.14-5.45,9.12-2.9C518.79,79.86,518.69,83.24,519.83,85.32Z"/><polygon class="cls-3" points="341.96 29.19 344.82 30.29 342.53 34.88 342.65 36.06 341.96 29.19"/><polygon class="cls-2" points="342.65 36.06 343.26 42.2 364.52 35.91 341.25 22 341.96 29.19 342.65 36.06"/><polygon class="cls-4" points="336.55 35.74 360.01 35.04 341.98 29.19 336.55 35.74"/><path class="cls-4" d="M326.33,27.92l-.15,0-2.3-.61a.6.6,0,0,1-.42-.72.59.59,0,0,1,.72-.41l2.3.61a.58.58,0,0,1-.15,1.15Zm-6.91-1.84-.16,0-2.3-.62a.59.59,0,0,1-.42-.71.59.59,0,0,1,.72-.42l2.31.62a.58.58,0,0,1,.41.71A.59.59,0,0,1,319.42,26.08Zm-6.92-1.85-.15,0L310,23.6a.59.59,0,0,1-.41-.72.57.57,0,0,1,.71-.41l2.31.61a.6.6,0,0,1,.41.72A.58.58,0,0,1,312.5,24.23Zm-6.92-1.84-.15,0-2.31-.62a.57.57,0,0,1-.41-.71.59.59,0,0,1,.71-.42l2.31.62a.57.57,0,0,1,.41.71A.59.59,0,0,1,305.58,22.39Zm-6.92-1.85a.39.39,0,0,1-.15,0l-2.31-.61a.6.6,0,0,1-.41-.72.58.58,0,0,1,.71-.41l2.31.61a.59.59,0,0,1,.41.72A.58.58,0,0,1,298.66,20.54Zm-6.92-1.84-.15,0-2.31-.62a.58.58,0,0,1-.41-.71.59.59,0,0,1,.71-.42l2.31.62a.58.58,0,0,1-.15,1.15Zm-6.92-1.85a.39.39,0,0,1-.15,0l-2.3-.61a.58.58,0,0,1-.42-.72.59.59,0,0,1,.72-.41l2.3.61a.6.6,0,0,1,.42.72A.59.59,0,0,1,284.82,16.85Z"/><rect class="cls-3" x="391.55" y="247.05" width="42.26" height="20.41" transform="translate(825.35 514.51) rotate(180)"/><path class="cls-2" d="M390.11,268.52h94.46a5.48,5.48,0,0,0,5.48-5.48v-11.4a5.48,5.48,0,0,0-5.48-5.48H390.11a1.06,1.06,0,0,0,0,2.12h94.46a3.37,3.37,0,0,1,3.36,3.36V263a3.36,3.36,0,0,1-3.36,3.36H390.11a1.06,1.06,0,0,0,0,2.12Z"/><path class="cls-2" d="M423.47,268h61a4.52,4.52,0,0,0,4.51-4.54V251a4.52,4.52,0,0,0-4.51-4.54h-61A4.52,4.52,0,0,1,428,251v12.48A4.52,4.52,0,0,1,423.47,268Z"/><polygon class="cls-2" points="414 264.37 417.06 261.21 420.11 264.37 420.11 254.8 414 254.8 414 264.37"/><rect class="cls-3" x="408.66" y="230.44" width="42.26" height="14.47" transform="translate(859.57 475.34) rotate(180)"/><rect class="cls-1" x="435.69" y="206.47" width="42.26" height="14.47"/><path class="cls-2" d="M442.19,232.17a7.85,7.85,0,0,1-2.64,12.76v.53h58.28a7.72,7.72,0,0,0,7.64-7.79,7.83,7.83,0,0,0-2.23-5.5,7.57,7.57,0,0,0-5.41-2.28H439.55v.52A7.65,7.65,0,0,1,442.19,232.17Z"/><path class="cls-2" d="M406.59,246.21H498a8.54,8.54,0,1,0,0-17.07H406.59a1.3,1.3,0,1,0,0,2.59H498a5.94,5.94,0,0,1,0,11.88H406.59a1.3,1.3,0,1,0,0,2.6Z"/><rect class="cls-3" x="429.58" y="206.47" width="63.19" height="21"/><path class="cls-5" d="M398.92,229.14h98.73a1.27,1.27,0,1,0,0-2.53H398.92a9.56,9.56,0,1,1,0-19.11h98.73a1.27,1.27,0,1,0,0-2.54H398.92a12.09,12.09,0,0,0,0,24.18Z"/><path class="cls-5" d="M387.84,217.05a11.3,11.3,0,0,0,11.3,11.3h54.62v-.29a11.3,11.3,0,0,1,0-22v-.29H399.14a11.3,11.3,0,0,0-11.3,11.3Z"/><rect class="cls-3" x="435.59" y="189.83" width="40.07" height="14.47"/><path class="cls-2" d="M444.32,191.56A7.86,7.86,0,0,0,447,204.33v.52H401.83a7.71,7.71,0,0,1-7.64-7.78,7.82,7.82,0,0,1,2.24-5.51,7.53,7.53,0,0,1,5.4-2.28H447v.53A7.48,7.48,0,0,0,444.32,191.56Z"/><path class="cls-2" d="M479.88,205.68a1.21,1.21,0,0,0,0-2.42l-78.47-.4a6,6,0,0,1,0-12.05h0l78.46.4h0a1.21,1.21,0,1,0,0-2.42l-78.46-.41h0a8.46,8.46,0,0,0-8.45,8.41,8.45,8.45,0,0,0,8.4,8.49l78.46.4Z"/><path class="cls-4" d="M201.51,43.51a.6.6,0,0,1-.56-.42.59.59,0,0,1,.39-.73A19.59,19.59,0,0,0,206.62,40a8.12,8.12,0,0,1-2.41-1.81,2.89,2.89,0,0,1-1-2.54,2.68,2.68,0,0,1,1.54-1.77,3.81,3.81,0,0,1,3.36,0,3.16,3.16,0,0,1,1.72,2.3,4,4,0,0,1-1,3.38,6.35,6.35,0,0,0,2.13,0,5.19,5.19,0,0,0,4-3.2.59.59,0,1,1,1.08.46,6.3,6.3,0,0,1-4.86,3.89,7.42,7.42,0,0,1-3.31-.2,18.7,18.7,0,0,1-6.22,3Zm5-8.87a2.8,2.8,0,0,0-1.2.27c-.24.13-.81.46-.92,1a1.94,1.94,0,0,0,.67,1.51,7,7,0,0,0,2.56,1.77,3.11,3.11,0,0,0,1.1-2.81,2,2,0,0,0-1.09-1.46A2.52,2.52,0,0,0,206.52,34.64Z"/><path class="cls-4" d="M183.94,269.59H167.61a.59.59,0,1,1,0-1.17h16.33a.59.59,0,0,1,0,1.17Z"/><path class="cls-4" d="M500.3,114.42c-2.36,0-4.66-1-5.49-3.33a6,6,0,0,1-.3-1.36,7,7,0,0,1-2.72-2,6.43,6.43,0,0,1-1.57-3.4.59.59,0,1,1,1.17-.11,5.21,5.21,0,0,0,1.29,2.75,6.41,6.41,0,0,0,1.82,1.48c0-.29.07-.58.12-.88a3.28,3.28,0,0,1,1.26-2.21,2.3,2.3,0,0,1,2.47,0,2.27,2.27,0,0,1,.93,2.28,2.69,2.69,0,0,1-.86,1.45,3.47,3.47,0,0,1-2.58.94h-.11a6.36,6.36,0,0,0,.18.66c1,2.65,4.35,2.91,6.46,2.25l.21-.07a5.59,5.59,0,0,0,1.58-.87.58.58,0,1,1,.73.91A6.6,6.6,0,0,1,503,114l-.25.08A8.26,8.26,0,0,1,500.3,114.42Zm-4.65-5.58a1.09,1.09,0,0,0,.26,0,2.24,2.24,0,0,0,1.72-.63,1.61,1.61,0,0,0,.51-.82,1,1,0,0,0-1.61-1.08,2.19,2.19,0,0,0-.76,1.46A6.38,6.38,0,0,0,495.65,108.84Z"/><path class="cls-5" d="M375.84,72.45,149.2,52.29a7.06,7.06,0,0,0-7.66,6.41L127.83,212.85a7.38,7.38,0,0,0,6.7,8l226,20.1a7.37,7.37,0,0,0,8-6.69L382.25,80.11A7.08,7.08,0,0,0,375.84,72.45ZM358.61,230.52l-220.35-19.6L151.44,62.74l220.35,19.6Z"/><rect class="cls-2" x="180.64" y="36.02" width="148.76" height="221.22" transform="translate(86.37 387.66) rotate(-84.92)"/><path class="cls-5" d="M266.74,267.66l-44.61-4c-2.27-.2-4.07-.85-4-1.46l3-33.68h0l52.84,4.7-3,33.68C270.9,267.54,269,267.86,266.74,267.66Z"/><path class="cls-5" d="M287.91,269l-40.77-1.34-46.51-4.13a12.19,12.19,0,0,1,13.22-11.06l63,5.61A12.18,12.18,0,0,1,287.91,269Z"/><path class="cls-4" d="M357.14,232.91H325.52a.57.57,0,0,1-.57-.56.58.58,0,0,1,.57-.57h31.62A6.81,6.81,0,0,0,364,225V156.71a.57.57,0,0,1,.57-.56.56.56,0,0,1,.56.56V225A8,8,0,0,1,357.14,232.91Z"/><path class="cls-4" d="M270.22,257.41a.57.57,0,0,1-.57-.56v-24.5a.58.58,0,0,1,.57-.57h33.57a.58.58,0,0,1,.57.57.57.57,0,0,1-.57.56h-33v23.94A.57.57,0,0,1,270.22,257.41Z"/><path class="cls-4" d="M287.51,269.6a.58.58,0,0,1-.57-.57,11.63,11.63,0,0,0-11.61-11.62h-5.11a.57.57,0,0,1-.57-.56.58.58,0,0,1,.57-.57h5.11A12.76,12.76,0,0,1,288.08,269,.58.58,0,0,1,287.51,269.6Z"/><path class="cls-4" d="M199.88,269.6a.57.57,0,0,1-.57-.57,12.76,12.76,0,0,1,12.75-12.75h4.54V231.94a.57.57,0,1,1,1.13,0v24.91a.56.56,0,0,1-.56.56h-5.11A11.64,11.64,0,0,0,200.44,269,.57.57,0,0,1,199.88,269.6Z"/><path class="cls-4" d="M364.52,127.26a.58.58,0,0,1-.57-.57V69.8a6.5,6.5,0,0,0-6.49-6.49H303.11a.57.57,0,1,1,0-1.13h54.35a7.63,7.63,0,0,1,7.62,7.62v56.89A.57.57,0,0,1,364.52,127.26Z"/><path class="cls-4" d="M364.52,145.89a.57.57,0,0,1-.57-.56v-8.48a.57.57,0,0,1,.57-.57.56.56,0,0,1,.56.57v8.48A.56.56,0,0,1,364.52,145.89Z"/><path class="cls-4" d="M122.87,160.27a.56.56,0,0,1-.57-.57v-61a.57.57,0,1,1,1.13,0v61A.56.56,0,0,1,122.87,160.27Z"/><path class="cls-4" d="M122.87,70.37a.57.57,0,0,1-.57-.57,7.63,7.63,0,0,1,7.63-7.62H284.78a.57.57,0,0,1,0,1.13H129.93a6.5,6.5,0,0,0-6.5,6.49A.57.57,0,0,1,122.87,70.37Z"/><path class="cls-4" d="M217.17,232.5H132.43a10.14,10.14,0,0,1-10.13-10.13V149.43a.57.57,0,0,1,1.13,0v72.94a9,9,0,0,0,9,9h84.74a.57.57,0,0,1,0,1.13Z"/><circle class="cls-3" cx="251.75" cy="141.94" r="44.1" transform="translate(71.32 367.7) rotate(-80.78)"/><polygon class="cls-2" points="275.25 142.91 257.06 153.41 238.88 163.91 238.88 142.91 238.88 121.91 257.06 132.41 275.25 142.91"/><path class="cls-4" d="M240.67,186.6a44.68,44.68,0,0,1-36.77-70,.57.57,0,0,1,.79-.14.56.56,0,0,1,.14.79,43.53,43.53,0,1,0,10.73-10.85.57.57,0,0,1-.79-.13.56.56,0,0,1,.14-.79,44.67,44.67,0,1,1,25.76,81.15Z"/><path class="cls-4" d="M225.77,164.48a.57.57,0,0,1-.28-.08.55.55,0,0,1-.28-.49v-42a.55.55,0,0,1,.28-.49.58.58,0,0,1,.57,0l36.37,21a.57.57,0,0,1,0,1l-36.37,21A.6.6,0,0,1,225.77,164.48Zm.57-41.59v40l34.68-20Z"/><path class="cls-2" d="M347.35,268.71a6.2,6.2,0,0,1,0-12.4l8.1,0h0a6.2,6.2,0,0,1,0,12.4l-8.1,0Z"/><path class="cls-3" d="M341.75,268.72a6.2,6.2,0,0,1,0-12.39l5.6,0h0a6.2,6.2,0,0,1,0,12.4h-5.61Z"/><path class="cls-2" d="M341.75,268.72h0l-82.94-.13a6.2,6.2,0,0,1,0-12.39h0l82.94.13a6.2,6.2,0,0,1,0,12.39Z"/><path class="cls-4" d="M258.81,265.32h-5.6a2.93,2.93,0,0,1,0-5.85h5.6a2.93,2.93,0,1,1,0,5.85Z"/><path class="cls-4" d="M337.54,203H170a.56.56,0,0,1-.57-.56.57.57,0,0,1,.57-.57H337.54a.57.57,0,0,1,.56.57A.56.56,0,0,1,337.54,203Z"/><circle class="cls-3" cx="215.54" cy="202.41" r="4.99"/><polygon class="cls-2" points="391.5 11.09 393.06 14.04 395.92 15.65 393.06 17.27 391.5 20.21 389.94 17.27 387.08 15.65 389.94 14.04 391.5 11.09"/><polygon class="cls-3" points="333.24 121.39 335.91 126.43 340.79 129.18 335.91 131.94 333.24 136.98 330.57 131.94 325.69 129.18 330.57 126.43 333.24 121.39"/><polygon class="cls-2" points="515.52 185.09 517.08 188.04 519.93 189.65 517.08 191.26 515.52 194.21 513.96 191.26 511.1 189.65 513.96 188.04 515.52 185.09"/><polygon class="cls-5" points="399.15 126.1 400.71 129.05 403.56 130.66 400.71 132.27 399.15 135.22 397.59 132.27 394.73 130.66 397.59 129.05 399.15 126.1"/><polygon class="cls-3" points="324.42 136.88 325.98 139.82 328.83 141.44 325.98 143.05 324.42 146 322.86 143.05 320 141.44 322.86 139.82 324.42 136.88"/><path class="cls-2" d="M109.22,22h0a6,6,0,0,1-6,6h0a6,6,0,0,1-6-6h0a6,6,0,0,1,6-6h0A6,6,0,0,1,109.22,22Z"/><path class="cls-5" d="M123.28,37.29h0a3.21,3.21,0,0,1-3.21,3.2h0a3.2,3.2,0,0,1-3.2-3.2h0a3.21,3.21,0,0,1,3.2-3.21h0A3.21,3.21,0,0,1,123.28,37.29Z"/><path class="cls-2" d="M114.64,33.53h-11a.58.58,0,0,1-.58-.59V22a.59.59,0,0,1,.58-.59h11a.59.59,0,0,1,.58.59v11A.58.58,0,0,1,114.64,33.53Zm-10.4-1.17h9.81V22.54h-9.81Z"/><path class="cls-4" d="M369.33,269.62H184.74a.59.59,0,0,1-.58-.59.58.58,0,0,1,.58-.58H369.33a.58.58,0,0,1,.58.58A.59.59,0,0,1,369.33,269.62Z"/><path class="cls-4" d="M102.67,235.72a.57.57,0,0,1-.57-.57v-5.76H80.69a.57.57,0,1,1,0-1.13h22a.56.56,0,0,1,.56.57v6.32A.56.56,0,0,1,102.67,235.72Z"/><path class="cls-4" d="M79.49,267.64a23.16,23.16,0,0,1-23.14-23.13V228.39a.58.58,0,0,1,.57-.57H70.41a.57.57,0,0,1,.57.57.56.56,0,0,1-.57.56H57.49v15.56A22,22,0,0,0,98.83,255a.57.57,0,0,1,.77-.22.55.55,0,0,1,.23.76A23.14,23.14,0,0,1,79.49,267.64Z"/><path class="cls-4" d="M107.71,253.54H103.6a.57.57,0,0,1,0-1.13h4.11a12.78,12.78,0,0,0,11.41-7.13A4.64,4.64,0,0,0,115,238.6h-7a.57.57,0,1,1,0-1.13h7a5.77,5.77,0,0,1,5.19,8.31A13.94,13.94,0,0,1,107.71,253.54Z"/><circle class="cls-3" cx="170.88" cy="87.41" r="3.66"/><circle class="cls-3" cx="183.47" cy="87.41" r="3.66"/><circle class="cls-3" cx="196.06" cy="87.41" r="3.66"/><path class="cls-4" d="M185.82,270.58H35.08c-.24,0-.43-.32-.43-.73s.19-.72.43-.72H185.82c.23,0,.42.32.42.72S186.05,270.58,185.82,270.58Z"/><path class="cls-4" d="M506.55,269.59h-127a.59.59,0,0,1,0-1.17h127a.59.59,0,0,1,0,1.17Z"/></g></g></svg>