<svg xmlns="http://www.w3.org/2000/svg" xmlns:xlink="http://www.w3.org/1999/xlink" viewBox="0 0 832.38 591.13"><defs><style>.cls-1{fill:#eeeff9;}.cls-2{fill:url(#linear-gradient);}.cls-3{fill:url(#linear-gradient-2);}.cls-4{fill:url(#linear-gradient-3);}.cls-5{fill:#383333;}.cls-6{fill:#dce5f7;}.cls-7{fill:url(#linear-gradient-4);}.cls-8{fill:url(#linear-gradient-5);}.cls-9{fill:#bcbec0;}.cls-10{fill:#d1d3d4;}.cls-11{fill:#f2ad6d;}.cls-12{fill:#231f20;}.cls-13{fill:#e6e7e8;}.cls-14{fill:#282829;}.cls-15{fill:#adaeb0;}.cls-16{fill:#414042;}.cls-17{fill:#232324;}.cls-18{fill:#f5f5f5;}.cls-19{fill:#eb9767;}.cls-20{fill:#ffb47a;}.cls-21{fill:#fff;}.cls-22{fill:url(#linear-gradient-6);}.cls-23{fill:#1c1e1f;}.cls-24{fill:#eb8867;}.cls-25{fill:#de925b;}.cls-26{fill:url(#Áåçûìÿííûé_ãðàäèåíò_6);}</style><linearGradient id="linear-gradient" x1="10.79" y1="473.44" x2="28.18" y2="473.44" gradientUnits="userSpaceOnUse"><stop offset="0" stop-color="#a57979"/><stop offset="1" stop-color="#cf8282"/></linearGradient><linearGradient id="linear-gradient-2" x1="215.95" y1="148.7" x2="235.8" y2="148.7" xlink:href="#linear-gradient"/><linearGradient id="linear-gradient-3" x1="796.72" y1="572.71" x2="832.38" y2="572.71" xlink:href="#linear-gradient"/><linearGradient id="linear-gradient-4" x1="597.06" y1="549.08" x2="664.02" y2="83.76" gradientUnits="userSpaceOnUse"><stop offset="0" stop-color="#efc4bf"/><stop offset="1" stop-color="#bd6a60"/></linearGradient><linearGradient id="linear-gradient-5" x1="-651.76" y1="4158.83" x2="-651.76" y2="4158.83" gradientTransform="matrix(1927.64, 28.04, 28.04, -1927.64, 1140331.99, 8035355.71)" gradientUnits="userSpaceOnUse"><stop offset="0" stop-color="#5f5f5f"/><stop offset="0.65" stop-color="#968e8d"/><stop offset="1" stop-color="#aea2a1"/></linearGradient><linearGradient id="linear-gradient-6" x1="206.08" y1="34.94" x2="220.48" y2="389.18" gradientUnits="userSpaceOnUse"><stop offset="0" stop-color="#c66665"/><stop offset="1" stop-color="#d4b6b5"/></linearGradient><linearGradient id="Áåçûìÿííûé_ãðàäèåíò_6" x1="483.93" y1="-15.69" x2="478.73" y2="35.63" gradientTransform="matrix(1, 0.03, -0.03, 1, -53.32, 32.52)" gradientUnits="userSpaceOnUse"><stop offset="0" stop-color="#d9804c"/><stop offset="0.57" stop-color="#e99c61"/><stop offset="1" stop-color="#f2ad6d"/></linearGradient></defs><title>Asset 55</title><g id="Layer_2" data-name="Layer 2"><g id="Layer_2-2" data-name="Layer 2"><path class="cls-1" d="M321.7,132.22a.64.64,0,0,1-.63-.53,33.23,33.23,0,0,1,58.33-26.81.64.64,0,0,1-1,.81,32,32,0,0,0-56.1,25.79.63.63,0,0,1-.52.73Z"/><path class="cls-1" d="M353.9,159.32A34.68,34.68,0,0,1,349,159a33.29,33.29,0,0,1-24.78-17.75.63.63,0,1,1,1.12-.58,32.05,32.05,0,0,0,23.84,17.08,33.23,33.23,0,0,0,4.64.33,32,32,0,0,0,31.6-27.33,31.65,31.65,0,0,0-1.14-14.25.63.63,0,0,1,1.21-.38,33.23,33.23,0,0,1-31.62,43.23Z"/><path class="cls-1" d="M353.23,127a.93.93,0,0,1-.6-.21l-7.92-6.41a1,1,0,0,1-.14-1.35,1,1,0,0,1,1.34-.14l7.3,5.91L367,113a1,1,0,0,1,1.25,1.46l-14.39,12.28A1,1,0,0,1,353.23,127Z"/><path class="cls-1" d="M356.64,103.13h-.09a.63.63,0,0,1-.54-.71l.63-4.32a.63.63,0,0,1,1.25.18l-.63,4.32A.63.63,0,0,1,356.64,103.13Z"/><path class="cls-1" d="M349.14,154.45H349a.63.63,0,0,1-.53-.72l.63-4.31a.63.63,0,1,1,1.25.18l-.63,4.31A.62.62,0,0,1,349.14,154.45Z"/><path class="cls-1" d="M381,130.7h-.09l-4.31-.63a.63.63,0,1,1,.18-1.25l4.31.63a.63.63,0,0,1,.54.72A.64.64,0,0,1,381,130.7Z"/><path class="cls-1" d="M329.7,123.2h-.09l-4.32-.63a.63.63,0,0,1,.18-1.25l4.32.63a.63.63,0,0,1,.53.72A.63.63,0,0,1,329.7,123.2Z"/><circle class="cls-1" cx="353.23" cy="126.03" r="2.87"/><polygon class="cls-2" points="19.48 464.46 22.56 470.27 28.18 473.44 22.56 476.62 19.48 482.42 16.41 476.62 10.79 473.44 16.41 470.27 19.48 464.46"/><polygon class="cls-3" points="225.87 138.45 229.38 145.07 235.8 148.7 229.38 152.32 225.87 158.95 222.36 152.32 215.95 148.7 222.36 145.07 225.87 138.45"/><polygon class="cls-4" points="814.55 554.29 820.86 566.2 832.38 572.71 820.86 579.22 814.55 591.13 808.25 579.22 796.72 572.71 808.25 566.2 814.55 554.29"/><path class="cls-5" d="M660.56,395.15c-5.67,0-11.17-2.52-13.13-7.95a13.59,13.59,0,0,1-.74-3.43,16.66,16.66,0,0,1-6.7-4.87,15.14,15.14,0,0,1-3.76-8.15,1.12,1.12,0,0,1,1-1.23,1.14,1.14,0,0,1,1.23,1,13.16,13.16,0,0,0,3.23,6.9,15.77,15.77,0,0,0,4.95,3.88,19,19,0,0,1,.33-2.55c.5-2.53,1.46-4.23,2.94-5.21a5.13,5.13,0,0,1,7.86,5.29,6.4,6.4,0,0,1-2,3.36,8,8,0,0,1-6.1,2.22l-.65-.06a11.31,11.31,0,0,0,.53,2.06c2.4,6.67,10.89,7.34,16.15,5.68.18-.06.36-.11.53-.18a13.41,13.41,0,0,0,3.95-2.16,1.13,1.13,0,0,1,1.41,1.76,15.94,15.94,0,0,1-4.6,2.52l-.61.21A19.75,19.75,0,0,1,660.56,395.15Zm-11.69-13.08a7.4,7.4,0,0,0,.93.12,5.85,5.85,0,0,0,4.44-1.64,4.2,4.2,0,0,0,1.33-2.15,2.87,2.87,0,0,0-4.4-3c-1,.63-1.61,1.86-2,3.76A17,17,0,0,0,648.87,382.07Z"/><path class="cls-5" d="M1.15,304.48a1.15,1.15,0,0,1-.33-2.25c2.77-.82,9.12-3,13.66-6.27a19.93,19.93,0,0,1-6.38-4.64c-1.93-2.1-2.7-4.14-2.3-6.06a6.37,6.37,0,0,1,3.69-4.21,9.2,9.2,0,0,1,8.09-.06,7.53,7.53,0,0,1,4.13,5.49A9.81,9.81,0,0,1,19,295a15.74,15.74,0,0,0,5.92.15A13.22,13.22,0,0,0,35,287a1.15,1.15,0,1,1,2.12.9,15.44,15.44,0,0,1-11.87,9.53,18.08,18.08,0,0,1-8.26-.54c-4.67,3.9-11.6,6.36-15.53,7.53A1.24,1.24,0,0,1,1.15,304.48Zm12.48-22.1a6.93,6.93,0,0,0-3.11.73,4.45,4.45,0,0,0-2.47,2.62c-.3,1.44.78,3,1.74,4a17.59,17.59,0,0,0,6.68,4.54c2.18-2.09,3.5-4.57,3-7.41a5.26,5.26,0,0,0-2.89-3.84A6.48,6.48,0,0,0,13.63,282.38Z"/><path class="cls-6" d="M688.79,246.13l-.5,1.09-17.62,13.43L624,250l-18.71-40.86.5-1.08a6.3,6.3,0,0,1,4.75-3.6l44.71-7a9.27,9.27,0,0,1,9.31,4.26l23.87,38.46A6.3,6.3,0,0,1,688.79,246.13Z"/><path class="cls-7" d="M681.46,214.86,668.83,266a9.38,9.38,0,0,1-3.21,5.2l-.23.17a5,5,0,0,1-4.07.91L607.59,259a4.94,4.94,0,0,1-3.17-2.7l-.13-.26a9.39,9.39,0,0,1-.42-6.09l12.62-51.11Z"/><path class="cls-6" d="M634.17,255.7l-50.8,8a2.88,2.88,0,0,1-.13-.31,7.85,7.85,0,0,1,.1-6.35l21.94-47.85,25.93,41.79Z"/><path class="cls-6" d="M688.29,247.22l-21.94,47.85a7.89,7.89,0,0,1-4.75,4.22l-.32.1L634.17,255.7l5.53-.86Z"/><path class="cls-6" d="M661.6,299.29l-.32.1a7.92,7.92,0,0,1-5.4-.43l-68.66-31.49a7.88,7.88,0,0,1-3.85-3.81,2.88,2.88,0,0,1-.13-.31l48-12.41.19,0a7.15,7.15,0,0,1,8.22,3.77l.08.17Z"/><path class="cls-5" d="M661.6,300.42a1.13,1.13,0,0,1-1-.63l-22-44.63a6.07,6.07,0,0,0-6.93-3.18l-.19.05-48,12.41a1.12,1.12,0,1,1-.57-2.17l48.17-12.46a8.32,8.32,0,0,1,9.51,4.36l.08.17,21.9,44.45a1.13,1.13,0,0,1-1,1.63Z"/><path class="cls-5" d="M639.7,256a1.13,1.13,0,0,1-.17-2.24l48.59-7.61a1.13,1.13,0,0,1,1.28.94,1.11,1.11,0,0,1-.93,1.28L639.88,256Z"/><path class="cls-5" d="M631.21,252.07a1.12,1.12,0,0,1-1-.53l-25.94-41.79a1.13,1.13,0,0,1,.37-1.55,1.11,1.11,0,0,1,1.54.36l25.94,41.79a1.12,1.12,0,0,1-.36,1.55A1.19,1.19,0,0,1,631.21,252.07Z"/><path class="cls-8" d="M598.61,358a.93.93,0,0,1,.81-1h0"/><path class="cls-9" d="M388.47,41.32c-5.62,21.46-21.13,103.73,13.77,118.06,33,9.57,72.65,12.76,72.74-6.06.21-47.43-4.08-86.84-10.31-108.92S402.43,3.4,388.47,41.32Z"/><ellipse class="cls-10" cx="418.88" cy="557.68" rx="91.32" ry="7.01"/><polygon class="cls-11" points="390.41 538.95 349.47 554.72 349.48 557.86 412.39 557.75 412.5 514.18 390.67 514.22 390.41 538.95"/><polygon class="cls-12" points="349.47 554.72 349.48 557.86 412.39 557.75 412.38 554.61 412.25 538.91 412.25 537.67 403.17 554.42 388.83 554.44 381.37 541.8 371.02 546.1 374.6 553.63 349.47 554.72"/><polygon class="cls-11" points="474.88 519.6 478.77 557.74 436.07 557.74 436.07 553.06 453.53 536.55 453.48 519.18 474.88 519.6"/><path class="cls-12" d="M436.07,557.74v-4.68h31.79s-1.09-4.2-8.57-5.45c-4.68-.78-15.46-1.61-21.94,4.1l8.06-7.22c4.66-4.94,23-6.82,29.47,8.26l1.85-15,2,20Z"/><path class="cls-13" d="M469.91,301.45l1.19-124.6L480,157.53a17.29,17.29,0,0,0-14.43-17.21l-14.24-1.68a127.54,127.54,0,0,0-12.81-.85l-25.15-.41a126.25,126.25,0,0,0-19.91,1.24h0a18.26,18.26,0,0,0-16.11,18l-1.38,144V529.32s104.2,2.09,106.29,0S469.91,301.45,469.91,301.45Z"/><path class="cls-14" d="M239.69,71.35,251.12,40.7a15.33,15.33,0,0,0,.41-9.49h0A15.37,15.37,0,0,0,236.71,20H214.22Z"/><polygon class="cls-13" points="477.9 149.09 505.64 230.79 502.19 306.75 481.06 306.79 464.29 160.58 477.9 149.09"/><polygon class="cls-10" points="470.75 213.77 466.8 181.23 464.29 172.05 469.99 246.84 470.75 213.77"/><rect class="cls-15" x="473.16" y="338.56" width="3.56" height="11" transform="matrix(1, 0, 0, 1, 0.39, -0.54)"/><rect class="cls-15" x="507.86" y="338.6" width="3.56" height="11" transform="translate(0.39 -0.58) rotate(0.07)"/><path class="cls-16" d="M474.36,341.61a2.94,2.94,0,0,1-1.12-.42,2.81,2.81,0,0,1-.84-3.88c2.78-4.31,10.74-7,20.29-6.75,8.47.19,15.75,2.61,19,6.31a2.8,2.8,0,0,1-4.21,3.7c-1.77-2-7.18-4.22-14.92-4.4-8.68-.19-14.26,2.33-15.45,4.18A2.82,2.82,0,0,1,474.36,341.61Z"/><rect class="cls-16" x="431.16" y="347.09" width="114.38" height="79.38" rx="10.74" transform="translate(0.44 -0.56) rotate(0.07)"/><path class="cls-12" d="M437.82,426.41h0a6.7,6.7,0,0,1-6.69-6.71l.07-66a6.71,6.71,0,0,1,6.71-6.69h0a6.71,6.71,0,0,1,6.69,6.71l-.08,66A6.7,6.7,0,0,1,437.82,426.41Z"/><path d="M444.59,355.39H431.2v-1.66a6.71,6.71,0,0,1,6.71-6.69h0a6.71,6.71,0,0,1,6.69,6.71Z"/><rect class="cls-12" x="444.55" y="391.57" width="100.99" height="3.12" transform="translate(0.45 -0.56) rotate(0.07)"/><rect class="cls-15" x="490.49" y="388.82" width="12.91" height="8.83" transform="translate(890.75 -103.25) rotate(90.07)"/><path class="cls-11" d="M505.07,334.4a13.25,13.25,0,1,0-26.35-2s4-1.46,5,.89c1.51,3.43-3.66,5.15-3.66,5.15a13.24,13.24,0,0,0,25-4Z"/><rect class="cls-11" x="484.52" y="311.51" width="14.11" height="17.58" transform="matrix(1, 0, 0, 1, -0.45, 0.69)"/><rect class="cls-13" x="482.27" y="306.79" width="18.08" height="4.71"/><ellipse class="cls-10" cx="210.49" cy="558.02" rx="91.32" ry="7.01"/><path d="M236.57,519.62l.21,22.44L222,547.26s-5.61-5.4-5.61-6V521.29Z"/><path class="cls-17" d="M236.58,534.49l16.93,11.4,5.58-1.95a11.11,11.11,0,0,1,14.66,8.95h0l-20.81,1.49-41.42-.75.19-10.28,4.8-7,1.85,2.18a7.44,7.44,0,0,0,9.71,1.43Z"/><polygon points="252.94 554.38 276.71 552.74 277.27 556.3 253.7 558.09 210.08 557.29 210.15 553.6 252.94 554.38"/><path class="cls-16" d="M234.77,292.75c.35,1.06,6.77,118.73,6.77,118.73l-2.88,111.18L205.5,524.4l4.61-111.13L205.5,292.63Z"/><polygon class="cls-14" points="247.83 149.1 262.24 298.93 242.51 298.93 233.23 167.36 247.83 149.1"/><path d="M182.34,520.87l.21,22.44L167.8,548.5s-5.61-5.4-5.61-6v-20Z"/><path class="cls-14" d="M182.36,535.73l16.92,11.41,5.58-2a11.11,11.11,0,0,1,14.66,9h0l-20.81,1.49-41.41-.76.18-10.27,4.8-7,2,2.33a7.22,7.22,0,0,0,9.42,1.38Z"/><polygon points="198.71 555.63 222.48 553.99 223.04 557.54 199.47 559.33 155.85 558.54 155.92 554.85 198.71 555.63"/><polygon class="cls-16" points="202.44 291.55 186.79 520.87 151.61 525.65 174.36 291.82 202.44 291.55"/><polygon class="cls-18" points="219.9 133.52 202.08 120.36 176.69 135.19 214.93 257.15 219.9 133.52"/><path class="cls-19" d="M200.34,138.16h0A10.16,10.16,0,0,0,210.51,128V105H190.19v23A10.15,10.15,0,0,0,200.34,138.16Z"/><path class="cls-20" d="M217.18,22,231.3,32.56a21.64,21.64,0,0,1,8.64,16l3,49.46A19.59,19.59,0,0,1,237,113.32l-5,4.85a14.33,14.33,0,0,1-8.31,3.92l-5.25.59a14.19,14.19,0,0,1-6.91-.93l-8.05-3.24a55.62,55.62,0,0,1-21.77-15.67h0a32.73,32.73,0,0,1-7.57-17.49l-4.71-41.5,14.48-20.73Z"/><path class="cls-21" d="M201.36,85.76c18,8.28,34.38-1.16,32.91,6.4s-10,12.26-19.12,10.49S199.89,93.32,201.36,85.76Z"/><path class="cls-12" d="M200.74,74.61h0A2.63,2.63,0,0,0,203.36,72l0-4.68a2.66,2.66,0,0,0-2.65-2.63h0a2.64,2.64,0,0,0-2.62,2.65l0,4.68A2.64,2.64,0,0,0,200.74,74.61Z"/><path class="cls-12" d="M233.26,74.61h0A2.64,2.64,0,0,0,235.88,72l0-4.68a2.64,2.64,0,0,0-2.64-2.63h0a2.64,2.64,0,0,0-2.62,2.65l0,4.68A2.64,2.64,0,0,0,233.26,74.61Z"/><path class="cls-13" d="M377.52,154.31l-15.26,71.38L324.9,259.9l10.87,13.57s61.45-36.17,60.64-37S377.52,154.31,377.52,154.31Z"/><path class="cls-22" d="M198,151.29c-.33-3.55,5.83-7,5.83-7s6.7,2.28,7,5.83c.17,1.86-1.44,3.7-3,5L226,200.5l-.73,49.14-25.95-54.93,3.5-38.54C200.87,155.19,198.24,153.48,198,151.29Z"/><path class="cls-16" d="M163.2,138.06l17.48-5,37.77,101.19-.07-100.68c13,2.08,29.55,7.67,29.55,18.84l-1.77,30.66,4.89,115.82h-89.8l-8.73-129S147.21,141.93,163.2,138.06Z"/><circle class="cls-23" cx="215.85" cy="251.95" r="2.72"/><path class="cls-14" d="M173.35,254.76h11.12a10.08,10.08,0,0,1,10.08,10.08v1.45a0,0,0,0,1,0,0H163.27a0,0,0,0,1,0,0v-1.45A10.08,10.08,0,0,1,173.35,254.76Z" transform="translate(357.82 521.05) rotate(-180)"/><path class="cls-14" d="M250.06,266.29l-.7-11.53h-7.61v3.84C241.75,262.85,245.81,266.29,250.06,266.29Z"/><polygon class="cls-14" points="174.82 134.86 177.94 164.79 190.15 168.85 180.8 176.64 218.45 234.29 234.99 175.39 224.26 167.6 234 161.68 223.68 134.34 218.38 133.61 217.32 228.68 180.68 133.1 174.82 134.86"/><polygon class="cls-16" points="152.67 172.05 205.79 236.46 276.03 275.94 285.15 261.13 160.93 145.05 152.67 172.05"/><polygon class="cls-14" points="205.79 236.46 154.3 198.84 152.67 172.05 205.79 236.46"/><polygon class="cls-20" points="287.07 264.55 280.97 276.38 287.98 280.02 290.94 285.94 306.29 293.04 323.17 285.05 325.73 277.31 329.63 274.63 323.24 262.39 318.17 265.81 311.77 263.59 306.02 267.39 298.57 263.83 292.11 266.55 287.07 264.55"/><path class="cls-20" d="M261.28,303.59l5.78,13.09s-1.07,16.84-1.64,17.71-10,11.35-10,11.35l-2.81-1.83L261,331.48l-13.79,8.87-6.29-4.09-1.65-6.14,9.21-6.8-9,3.62-.47-3.14,6.57-4.43.71-16.27Z"/><polygon class="cls-24" points="261.57 330.89 258.94 332.78 253.02 327.12 255.09 321.13 249.42 316.26 246.22 303.1 245.51 319.37 238.94 323.8 239.41 326.94 248.43 323.32 239.22 330.12 240.87 336.26 247.57 340.62 261.57 330.89"/><polygon class="cls-24" points="263.62 329.57 261.65 324.99 263.45 318.97 263.62 329.57"/><polygon class="cls-21" points="276.58 275.04 280.5 277.17 287.67 263.77 284.69 261.88 276.58 275.04"/><polygon class="cls-13" points="325.4 260.52 322.57 261.88 330.16 275.94 335.2 272.76 325.4 260.52"/><polygon class="cls-21" points="244.35 298.93 244.35 302.82 261.85 303.33 261.85 298.93 244.35 298.93"/><path class="cls-14" d="M173.83,74.62,181.19,76l-1.14-30.23A4.72,4.72,0,0,1,185.7,41l23.6,4.82a34,34,0,0,0,20.5-2.2L247,36l-8.4-25.46A15.39,15.39,0,0,0,224,0H194.63A15.37,15.37,0,0,0,181,8.36l-6,11.78-1.41,0a15.36,15.36,0,0,0-14.65,10l-.93,2.48A15.38,15.38,0,0,0,158.64,45Z"/><path class="cls-20" d="M166.43,67H172a4.77,4.77,0,0,1,4.77,4.77v9A4.77,4.77,0,0,1,172,85.55h-1.31a4.29,4.29,0,0,1-4.29-4.29V67a0,0,0,0,1,0,0Z" transform="translate(350.86 132.27) rotate(173.39)"/><polygon class="cls-14" points="172.29 313.05 200.95 313.05 201.94 298.93 205.79 298.93 206.37 313.05 236.07 313.05 235.21 298.93 229.61 298.93 219.9 269.25 213.13 298.93 173.67 298.93 172.29 313.05"/><polygon class="cls-10" points="376.47 249.21 362.26 225.69 377.52 154.31 376.47 249.21"/><rect class="cls-25" x="415.77" y="92.43" width="32.25" height="41.93" transform="translate(3.28 -11.83) rotate(1.58)"/><path class="cls-11" d="M401.44,25a47,47,0,0,0-9.86,26c-.77,12.78-1.85,30.86-2.36,41a42.36,42.36,0,0,0,2,15.12l3.77,7.11c2,2.61,3.78,5.15,6.4,5.67l5.88.59a28.06,28.06,0,0,0,8.15-.85l21-10.53C448,101,452.58,97.4,454.84,87.66l11.8-50.72-20.4-32.3-28.31-.78Z"/><path class="cls-21" d="M405.76,99.43h-.26a6.41,6.41,0,0,1-6.33-4.83l-1.35-7.08,30.83.85-10.23,7.32A20.84,20.84,0,0,1,405.76,99.43Z"/><path class="cls-26" d="M450.54,11.45A107.68,107.68,0,0,0,415.32,7.2L401.44,25a47,47,0,0,0-9.86,26c-.22,3.61-.46,7.65-.71,11.81,9-8.47,34.29-9.52,67.51,5.4l1.06-.33,7.2-30.95Z"/><path class="cls-12" d="M458.43,22.32s-1.36,21.87-11,68.68c-.84,4.07-5.95,9.15-19.14,14.44,6.43-8.67,8.12-21.47,7.08-22s-39.63-1.64-41.16-.77-2.61,11.47-1.39,19c.13.78.27,1.51.41,2.2-1.48-2.27-3.06-7.16-4-10.54a.17.17,0,0,0-.33.06,48.87,48.87,0,0,0,2.29,13.73l3.47,7.22c2.28,3.73,4.08,5,6.7,5.56l5.88.59a28.06,28.06,0,0,0,8.15-.85l21-10.53c10.25-6.1,16.16-11.74,18.42-21.48L471,40Zm-50.87,89.61c.36-3.44,1-7.11,1-7.11l-7-.19a50.41,50.41,0,0,0-.9,7.29,9.42,9.42,0,0,1-1.61-.5c-2.42-1.61-3.84-23.43-3.78-25.58s20.43-.75,37.21.21c-2.82,13.22-11,20.78-18.19,24.14l.11.06A49.71,49.71,0,0,1,407.56,111.93Z"/><path class="cls-12" d="M397.54,71.27h0A2.65,2.65,0,0,1,395,68.55l.11-4.15a2.66,2.66,0,0,1,2.72-2.57h0a2.65,2.65,0,0,1,2.57,2.72l-.11,4.15A2.66,2.66,0,0,1,397.54,71.27Z"/><path class="cls-12" d="M430.39,72.17h0a2.64,2.64,0,0,1-2.57-2.71l.11-4.16a2.65,2.65,0,0,1,2.72-2.57h0a2.66,2.66,0,0,1,2.57,2.72l-.12,4.15A2.64,2.64,0,0,1,430.39,72.17Z"/><path class="cls-12" d="M391,57.2c2.75-2.25,8.16-3.64,15.95-3.43a26.91,26.91,0,0,0,.09-3.39c-4.09-.83-11.16-1.28-15.86,3.71A9.57,9.57,0,0,1,391,57.2Z"/><path class="cls-12" d="M442.19,59.47c-2.62-2.39-10.05-5.57-17.83-5.79a26,26,0,0,1,.09-3.39c4.13-.6,13.91-.9,18.95,6.33A19.38,19.38,0,0,1,442.19,59.47Z"/><path class="cls-11" d="M453.35,84.38h0c-1.73-.16,1.3-20.69,4.36-20.4l1.8.41c4.07.38,4.22,4.11,3.84,8.17h0C462.65,79.89,457.82,84.87,453.35,84.38Z"/><path class="cls-13" d="M387.81,44.7c2.9-4.66,7.67-5,14-1.74s19,3.53,26.14-.23,17.57-1.51,21.43,2.57c4.68,5,9.07,10.07,7.88,26.81-.82,11.45-2,18.74-1.54,39.41.66,29,23.43,36.81,23.91,42.3-4.65-44.72-4-78.81-5.35-108-1-22-11.05-43.22-39.22-44.18S390.56,20.75,387.81,44.7Z"/><path class="cls-12" d="M471.34,36.2h-.12L391.4,34a4.05,4.05,0,1,1,.22-8.1l79.82,2.19a4.05,4.05,0,0,1-.1,8.1Z"/><path class="cls-12" d="M469.82,29.93h-.11l-76.45-2.1a4.05,4.05,0,0,1,.22-8.1l76.45,2.11a4.05,4.05,0,0,1-.11,8.1Z"/><path class="cls-18" d="M417.77,139.49l26.43.73c1.74,0,3.17-.2,3.22-1.95l.34-12.5L415,127.13l-.25,9.11A3.16,3.16,0,0,0,417.77,139.49Z"/><path class="cls-18" d="M429.9,139.82c-5.73,6.83-13.45,28.35-14.58,47.12-1.89,0-10-.28-10-.28.95-13.86,6.14-37.71,12.82-47.16C422.25,133.94,429.9,139.82,429.9,139.82Z"/><path class="cls-10" d="M419.74,143a1.33,1.33,0,1,1,1.05,1.62A1.37,1.37,0,0,1,419.74,143Z"/><path class="cls-10" d="M423.73,132.39a1.33,1.33,0,1,1,1.06,1.63A1.37,1.37,0,0,1,423.73,132.39Z"/><path class="cls-10" d="M415.53,153.58a1.33,1.33,0,1,1,2.62.48,1.33,1.33,0,1,1-2.62-.48Z"/><path class="cls-10" d="M412,166.17a1.33,1.33,0,1,1,1.06,1.62A1.37,1.37,0,0,1,412,166.17Z"/><path class="cls-10" d="M409.55,178.71a1.33,1.33,0,1,1,1.05,1.62A1.36,1.36,0,0,1,409.55,178.71Z"/></g></g></svg>