<svg xmlns="http://www.w3.org/2000/svg" viewBox="0 0 454.97 248.33"><defs><style>.cls-1{fill:#e2a3a3;}.cls-2{fill:#3a3a3a;}.cls-3{fill:#cc9292;}.cls-4{fill:#ad7f7f;}.cls-5{fill:#fff;}.cls-6{fill:#dce5f7;}</style></defs><title>Asset 8</title><g id="Layer_2" data-name="Layer 2"><g id="Layer_2-2" data-name="Layer 2"><path class="cls-1" d="M421.36,224.29c4.15,2.32,6.54,5.93,5.34,8.07s-5.52,2-9.67-.36c-2.86-1.6-4.32-4.85-4.95-6.69a1.35,1.35,0,0,1,1-1.75C415,223.13,418.49,222.68,421.36,224.29Z"/><path class="cls-1" d="M438.12,225.58c-2.35,2.38-5.23,3.32-6.45,2.12s-.31-4.1,2-6.47a8.52,8.52,0,0,1,5.45-2.11,1,1,0,0,1,1,1A8.48,8.48,0,0,1,438.12,225.58Z"/><path class="cls-2" d="M428.38,248a.58.58,0,0,1-.58-.58,105.66,105.66,0,0,0-4.3-29,.58.58,0,1,1,1.12-.32A106.82,106.82,0,0,1,429,247.39.58.58,0,0,1,428.38,248Z"/><path class="cls-2" d="M423,215.26a.58.58,0,0,1-.55-.4A109.57,109.57,0,0,0,415,196.74a.6.6,0,0,1,.23-.8.59.59,0,0,1,.79.23,110.85,110.85,0,0,1,7.57,18.33.59.59,0,0,1-.38.74Z"/><circle class="cls-3" cx="417.33" cy="201.76" r="8.04" transform="translate(181.83 601.03) rotate(-85.27)"/><path class="cls-1" d="M430.09,248a.58.58,0,0,1-.58-.57c0-.25-.42-25.17,5.88-43.1a.59.59,0,0,1,.74-.36.6.6,0,0,1,.36.75c-6.23,17.72-5.82,42.44-5.81,42.69a.58.58,0,0,1-.57.59Z"/><polygon class="cls-4" points="442.81 206.2 437.12 200.51 429.36 202.6 427.27 210.36 432.96 216.05 440.73 213.97 442.81 206.2"/><path class="cls-5" d="M417.33,203c-4.38,0-8.83-1.07-8.83-3.11a.59.59,0,0,1,1.17,0c0,.66,2.71,1.94,7.66,1.94s7.66-1.28,7.66-1.94a.59.59,0,0,1,.59-.58.58.58,0,0,1,.58.58C426.16,201.9,421.72,203,417.33,203Z"/><path class="cls-5" d="M417.33,203c-4.38,0-8.83-1.07-8.83-3.11a.59.59,0,0,1,1.17,0c0,.66,2.71,1.94,7.66,1.94s7.66-1.28,7.66-1.94a.59.59,0,0,1,.59-.58.58.58,0,0,1,.58.58C426.16,201.9,421.72,203,417.33,203Z"/><path class="cls-5" d="M424,205.11a7.9,7.9,0,0,1-1.69-.22,24,24,0,0,1-10.4-6c-1.67-1.78-1.62-2.85-1.28-3.44a.58.58,0,0,1,1,.59c-.11.18,0,.84,1.12,2.05a22.8,22.8,0,0,0,9.81,5.66c1.61.37,2.24.13,2.34-.06a.59.59,0,0,1,1,.59A2,2,0,0,1,424,205.11Z"/><path class="cls-5" d="M424,205.11a7.9,7.9,0,0,1-1.69-.22,24,24,0,0,1-10.4-6c-1.67-1.78-1.62-2.85-1.28-3.44a.58.58,0,0,1,1,.59c-.11.18,0,.84,1.12,2.05a22.8,22.8,0,0,0,9.81,5.66c1.61.37,2.24.13,2.34-.06a.59.59,0,0,1,1,.59A2,2,0,0,1,424,205.11Z"/><path class="cls-5" d="M427.27,211a.59.59,0,0,1-.15-1.15l15.54-4.16a.6.6,0,0,1,.72.41.59.59,0,0,1-.42.71l-15.53,4.17Z"/><path class="cls-5" d="M435,208.87a.58.58,0,0,1-.41-.17L428.94,203a.59.59,0,0,1,.83-.83l5.69,5.69a.6.6,0,0,1,0,.83A.63.63,0,0,1,435,208.87Z"/><rect class="cls-2" x="27.2" y="126.16" width="5.6" height="20.82" transform="translate(78.22 5.32) rotate(32.56)"/><circle class="cls-4" cx="37.97" cy="124.1" r="7.59"/><path class="cls-6" d="M405.62,26.85H330.7a10,10,0,0,1,.08-1.79h0a16.07,16.07,0,0,1,2-5.72c1.58-2.79,3.95-4.85,6.62-4.22a6,6,0,0,1,2.52,1.41c1.28,1.13,2.31,2.53,3.59,3.68a6.41,6.41,0,0,0,4.6,1.95,4.68,4.68,0,0,0,4-4.09c.77-4.86.72-14.45,6.79-15.78l.34-.06c5.19-.89,8.77,4.18,10.15,8.72a14.68,14.68,0,0,1,.38,1.52,19.19,19.19,0,0,1,.44,3.79l0,.25c0,.35.09.7.15,1a8.11,8.11,0,0,0,.71,2.36,1.06,1.06,0,0,0,.63.63c.83.2,1.53-.76,2-1.52.13-.22.25-.42.35-.57,1.5-2.39,5.65-4,7.53-1.12,1.31,2,.22,5.91,2.95,6.9,3.12,1.15,3.91-3,4.19-5.07.34-2.6.29-5.25,1.05-7.77.32-.76.86-1.62,1.73-1.73a2.25,2.25,0,0,1,1.94,1.4,29.91,29.91,0,0,1,1.57,7.3c.28,2,.67,6.42,3.33,6.67,1.42.13,2.69-2.39,4-1.28C405.16,24.45,405.12,25.93,405.62,26.85Z"/><path class="cls-5" d="M111.88,69.73a122,122,0,0,0-10.67,31.82c-.18,1-.37,2.06-.53,3.09l-.24,1.54a121.23,121.23,0,0,0,0,35.38q.8,5.3,2,10.5l.36,1.48c.26,1,.51,2,.79,3,.14.49.27,1,.41,1.47q.44,1.46.9,2.91.93,2.91,2,5.76a121.85,121.85,0,0,0,96,77.64h0a119.48,119.48,0,0,0,18.83,1.31,121.75,121.75,0,0,0,108.05-176c-.88-1.75-1.78-3.48-2.74-5.19l-1-1.7c-.66-1.13-1.33-2.25-2-3.36A121.13,121.13,0,0,0,308,38.83h0l-.15-.15A122.27,122.27,0,0,0,234,2.82l-2.56-.25a122,122,0,0,0-71.31,15.81c-.55.3-1.08.61-1.59.92-.67.39-1.33.79-2,1.2l-.76.48h0l-1.7,1.09c-.93.62-1.84,1.23-2.75,1.87q-3.65,2.52-7.1,5.3c-1,.86-2.08,1.73-3.11,2.62A121.32,121.32,0,0,0,111.88,69.73Z"/><path class="cls-6" d="M198.16,169.64,194.78,186l3.05,3.42L195,208.5l8.77,5.32,8.46,25.11L207.88,242,203,244.28h0a119.48,119.48,0,0,0,18.83,1.31v0l13.51-5.18,20.33-19.87,14.08-3.46,25.86-19.5,2.3-21.68,1.82.9,9.33-3.45L329,159,341.4,146.1l.41-7.12-.75-21.55,1.44,1a122.34,122.34,0,0,0-12.65-48.86c-.88-1.75-1.78-3.48-2.74-5.19l-1-1.7c-.65-1.13-1.33-2.25-2-3.36-3.66-6.49-8.93-13.21-16.09-20.51L296.1,44.22,286.05,60.63l-5.88,7.06-5.7,8.59L285,82.92l8.78,8.16,15.93,42.63,2.68,3.23,4.74-5.73.37-3.62,3.62-1.53,2.59,4.85,2.22,4.17,3.8,7.14-5.79,6.4-.39-5-4.58-3.23-3.41,6.87L314,153.22l-4.38,1.16-4.44,13.24-7.39,2.5,0-2.86-4.58-8L280.43,161l-6.88-3.41-16.74,5.95-10.1-1.69-10.83,8.42Z"/><path class="cls-6" d="M277.94,37l-1.69,7.25L265.8,54.73l-5.91-4.36,1.69-7.24-12-14.07,6.84-7.2a9.3,9.3,0,0,1,10.85-2.35l5,2.25L284.78,29l3.44,4.56-1.51,5.91Z"/><path class="cls-6" d="M111.88,69.73A121.37,121.37,0,0,0,107,166.64l2-.16.62-5.17,2-25.42,8.16-22.8,7.58-12.4,14.67-.8,18.91,18.42L179,112.55,192.8,91.37l.93-7.63-1.39-22.09-9-13.5-7.06-4-19.64-8.32L160,28.14l13.93.61-5.33,2.11-1.32,2.67L169,34.86l3.61-1.53,4.19,1.13,9,2.07,5.71-1,.4,4.95,4.86,7.13,2.31,7.8,12,7.4,9.68-13.75,5.37-7.62-11.4-5.79.36-10.28,9.9-.79,16.53-14.14L231.8,6.12,235,3.44l-1-.62C206.82-.13,178.73,6.73,155.81,21h0A121.1,121.1,0,0,0,111.88,69.73Z"/><path class="cls-6" d="M165.83,234.76A123.33,123.33,0,0,1,105,167.38c-.75-2-1.43-4-2-5.86-.31-1-.61-2-.9-3l-.43-1.49c-.28-1-.54-2-.8-3l-.37-1.49c-.82-3.45-1.51-7-2.06-10.7a123,123,0,0,1,0-36l.24-1.58c.17-1,.35-2.08.54-3.12a124.51,124.51,0,0,1,40.64-70.91c1-.89,2.1-1.78,3.16-2.65,2.36-1.9,4.79-3.71,7.23-5.4.91-.64,1.84-1.27,2.78-1.89l.16-.1,1.58-1,.12-.07.43-.27.24-.14c.67-.43,1.35-.84,2-1.24.5-.31,1.06-.64,1.64-.95A123.4,123.4,0,0,1,231.67.47l2.6.26a124.22,124.22,0,0,1,75.1,36.47.6.6,0,0,1,.08.08.3.3,0,0,1,.08.08A122.45,122.45,0,0,1,325.9,58.23c.66,1.05,1.34,2.17,2.06,3.41.34.58.66,1.16,1,1.74.94,1.67,1.85,3.4,2.78,5.27a124.29,124.29,0,0,1,11.37,35.27,125.75,125.75,0,0,1,1.51,14.43A123.88,123.88,0,0,1,221.82,247.69a121,121,0,0,1-19.16-1.33h-.1A124,124,0,0,1,165.83,234.76Zm-9-212-1.49,1-.13.08c-.89.59-1.79,1.2-2.68,1.83-2.37,1.63-4.71,3.39-7,5.21-1,.84-2,1.7-3.06,2.57a120.2,120.2,0,0,0-39.26,68.49c-.18,1-.36,2-.52,3l-.24,1.52a119.1,119.1,0,0,0,0,34.76c.53,3.53,1.2,7,2,10.32l.36,1.47c.24,1,.49,1.93.76,2.89l.42,1.46c.28.93.57,1.9.87,2.86.59,1.82,1.25,3.73,2,5.66a119.75,119.75,0,0,0,94.36,76.28l.1,0a117.27,117.27,0,0,0,18.4,1.27A119.51,119.51,0,0,0,340.4,118.54a121.69,121.69,0,0,0-1.46-13.94,120,120,0,0,0-11-34.07c-.9-1.81-1.78-3.48-2.69-5.1-.31-.56-.63-1.12-.95-1.68-.7-1.19-1.35-2.27-2-3.29a119.18,119.18,0,0,0-15.74-20.09,1.14,1.14,0,0,1-.11-.11l-.1-.09A120,120,0,0,0,233.81,4.92c-.83-.09-1.67-.18-2.51-.25a119.14,119.14,0,0,0-70.08,15.54c-.56.3-1.05.59-1.54.89-.7.4-1.34.79-2,1.19l-.22.14-.57.35h0Z"/><path class="cls-2" d="M454.33,248.31H309.6a.64.64,0,0,1-.64-.64.64.64,0,0,1,.64-.63H454.33a.64.64,0,0,1,.64.63A.64.64,0,0,1,454.33,248.31Z"/><path class="cls-2" d="M142.7,248.31H.63a.64.64,0,0,1-.63-.64A.63.63,0,0,1,.63,247H142.7a.63.63,0,0,1,.63.63A.64.64,0,0,1,142.7,248.31Z"/><polygon class="cls-3" points="214.83 84.09 255.32 81.43 291.13 77.58 305.82 121.9 272.82 132.15 263.28 132.49 214.16 160.78 205.31 101.49 214.83 84.09"/><rect class="cls-1" x="288.87" y="62.3" width="58" height="58.78" transform="translate(-12.86 100.05) rotate(-17.54)"/><path class="cls-1" d="M345.52,112.35a29.39,29.39,0,0,1-8.85-57.42l4.89-1.55a29.39,29.39,0,0,1,17.72,56.05L354.39,111A29.48,29.48,0,0,1,345.52,112.35Z"/><rect class="cls-5" x="281.42" y="59.55" width="35.76" height="74.62" rx="6.67" transform="translate(-12.42 54.5) rotate(-10.19)"/><path class="cls-2" d="M279.44,116.32a.62.62,0,0,1-.59-.45l-11.79-41a7.29,7.29,0,0,1,5-9l7.65-2.2a.6.6,0,0,1,.76.42.61.61,0,0,1-.42.76L272.39,67a6.07,6.07,0,0,0-4.15,7.5l11.79,41a.61.61,0,0,1-.42.76A.51.51,0,0,1,279.44,116.32Z"/><path class="cls-2" d="M291,139a7.31,7.31,0,0,1-7-5.28l-1.58-5.51a.61.61,0,0,1,.42-.76.6.6,0,0,1,.76.42l1.58,5.51a6.08,6.08,0,0,0,7.5,4.15l21.54-6.19a6.06,6.06,0,0,0,4.15-7.5L301.43,65a6.08,6.08,0,0,0-7.5-4.15l-6.51,1.88a.62.62,0,0,1-.76-.42.6.6,0,0,1,.42-.76l6.51-1.88a7.3,7.3,0,0,1,9,5l16.93,58.89a7.3,7.3,0,0,1-5,9L293,138.75A7.34,7.34,0,0,1,291,139Z"/><circle class="cls-1" cx="306.54" cy="121.39" r="4.93" transform="translate(138.7 405.17) rotate(-81)"/><polygon class="cls-1" points="232.68 95.56 183.19 87.56 151.77 75.33 133.73 121.69 162.79 133 171.92 138 186.8 148.55 210.61 140.33 231.78 110.83 232.68 95.56"/><rect class="cls-4" x="105.06" y="67.06" width="58.78" height="58" transform="translate(-3.83 186.52) rotate(-68.74)"/><path class="cls-4" d="M107.42,114.94a29.13,29.13,0,0,1-10.65-2l-6.36-2.47a29.39,29.39,0,1,1,21.31-54.78l6.36,2.47a29.4,29.4,0,0,1-10.66,56.79Z"/><rect class="cls-5" x="115.37" y="86.04" width="74.62" height="35.76" rx="6.67" transform="translate(14.45 226.4) rotate(-75.78)"/><path class="cls-2" d="M158.67,145.07a7.55,7.55,0,0,1-2.47-.43l-21.08-7.58a7.3,7.3,0,0,1-4.4-9.33l20.73-57.66a7.27,7.27,0,0,1,9.32-4.39l21.09,7.58a7.29,7.29,0,0,1,4.39,9.32l-3.1,8.63a.62.62,0,1,1-1.16-.42l3.1-8.63a6.06,6.06,0,0,0-3.65-7.75l-21.09-7.58a6.05,6.05,0,0,0-7.75,3.66l-20.72,57.66a6.06,6.06,0,0,0,3.65,7.75l21.09,7.58a6.06,6.06,0,0,0,7.75-3.65l14.27-39.72a.62.62,0,1,1,1.16.42l-14.27,39.71a7.26,7.26,0,0,1-3.75,4.13A7.38,7.38,0,0,1,158.67,145.07Z"/><path class="cls-1" d="M269.68,134.09a8.34,8.34,0,0,1-4.15-1.11l-35.42-20.33a8.36,8.36,0,0,1,8.32-14.51l35.42,20.33a8.36,8.36,0,0,1-4.17,15.62Z"/><path class="cls-1" d="M257.56,146.14A8.27,8.27,0,0,1,253.4,145L218,124.71a8.37,8.37,0,0,1,8.33-14.51l35.42,20.32a8.37,8.37,0,0,1-4.17,15.62Z"/><path class="cls-1" d="M243.73,157.22a8.24,8.24,0,0,1-4.16-1.11l-33.71-19.34a8.36,8.36,0,0,1,8.32-14.51L247.9,141.6a8.37,8.37,0,0,1-4.17,15.62Z"/><path class="cls-1" d="M228.37,167.43a8.34,8.34,0,0,1-4.15-1.11l-30.49-17.49a8.37,8.37,0,0,1,8.33-14.51l30.48,17.49a8.37,8.37,0,0,1-4.17,15.62Z"/><path class="cls-3" d="M176.15,150.64a8.06,8.06,0,0,1-6.71-12.5l4.14-6.26A8.06,8.06,0,1,1,187,140.77L182.88,147A8.06,8.06,0,0,1,176.15,150.64Z"/><path class="cls-3" d="M187.87,157a8.06,8.06,0,0,1-6.71-12.51L189,132.63a8.06,8.06,0,1,1,13.43,8.9L194.6,153.4A8.05,8.05,0,0,1,187.87,157Z"/><path class="cls-3" d="M199.59,163.37a8.06,8.06,0,0,1-6.71-12.5L197,144.6a8.06,8.06,0,0,1,13.44,8.9l-4.15,6.26A8.05,8.05,0,0,1,199.59,163.37Z"/><path class="cls-3" d="M211.32,169.74a8.07,8.07,0,0,1-6.72-12.51l2.08-3.13A8.05,8.05,0,0,1,220.11,163L218,166.12A8,8,0,0,1,211.32,169.74Z"/><path class="cls-3" d="M208.21,109.72a7.91,7.91,0,0,1-5.59-13.51l12-12A8,8,0,0,1,220,81.89l36.83-1.12h.25a7.92,7.92,0,0,1,.24,15.83l-33.71,1-9.82,9.8A7.9,7.9,0,0,1,208.21,109.72Z"/><path class="cls-4" d="M138.2,128a4.93,4.93,0,1,0,5.38-4.44A4.93,4.93,0,0,0,138.2,128Z"/><path class="cls-5" d="M180.47,140.8a5.5,5.5,0,1,1,5.5-5.67h0a5.51,5.51,0,0,1-5.33,5.67Zm0-9.76h-.13a4.42,4.42,0,1,0,.13,0Z"/><path class="cls-5" d="M195.71,141.75a5.5,5.5,0,1,1,5.5-5.66h0a5.51,5.51,0,0,1-1.49,3.93,5.45,5.45,0,0,1-3.84,1.73Zm0-9.76h-.13a4.27,4.27,0,0,0-4.13,4.38,4.26,4.26,0,0,0,1.34,3,4.26,4.26,0,0,0,6-.19,4.26,4.26,0,0,0,1.16-3h0A4.27,4.27,0,0,0,195.71,132Z"/><path class="cls-5" d="M204.26,153.54a5.5,5.5,0,1,1,5.5-5.67h0a5.49,5.49,0,0,1-1.49,3.93,5.41,5.41,0,0,1-3.84,1.73Zm0-9.76h-.13a4.2,4.2,0,0,0-3,1.34,4.26,4.26,0,0,0,3.23,7.18,4.25,4.25,0,0,0,4.13-4.39h0A4.26,4.26,0,0,0,204.26,143.78Z"/><path class="cls-5" d="M214,163.24a5.22,5.22,0,1,1,5.22-5.38h0a5.21,5.21,0,0,1-5,5.37Zm0-9.19h-.13a4,4,0,0,0-3.85,4.09,4,4,0,0,0,1.25,2.78,4,4,0,1,0,2.73-6.87Z"/><path class="cls-5" d="M208.09,103.89a6,6,0,0,1-.18-12,6,6,0,0,1,6.15,5.79,6,6,0,0,1-5.79,6.16Zm0-10.72h-.15a4.62,4.62,0,0,0-3.3,1.49,4.68,4.68,0,0,0-1.29,3.39,4.74,4.74,0,1,0,9.47-.29,4.67,4.67,0,0,0-1.48-3.31A4.75,4.75,0,0,0,208.09,93.17Z"/><path class="cls-5" d="M234.44,153.12l-17.9-11.47Z"/><path class="cls-2" d="M234.44,153.74a.61.61,0,0,1-.34-.1l-17.89-11.47a.61.61,0,0,1-.19-.85.63.63,0,0,1,.86-.19l17.89,11.47a.62.62,0,0,1,.19.86A.63.63,0,0,1,234.44,153.74Z"/><path class="cls-5" d="M250.53,143.25l-23.09-14.8Z"/><path class="cls-2" d="M250.53,143.87a.58.58,0,0,1-.33-.1L227.11,129a.62.62,0,1,1,.67-1l23.09,14.8a.62.62,0,0,1-.34,1.14Z"/><path class="cls-5" d="M245.28,120.54l-9-5.75Z"/><path class="cls-2" d="M245.28,121.16a.61.61,0,0,1-.34-.1l-9-5.75a.62.62,0,1,1,.67-1l9,5.76a.61.61,0,0,1,.19.85A.61.61,0,0,1,245.28,121.16Z"/><path class="cls-5" d="M263.82,132.42l-14.48-9.28Z"/><path class="cls-2" d="M263.82,133a.61.61,0,0,1-.34-.1L249,123.67a.62.62,0,0,1,.67-1l14.47,9.28a.62.62,0,0,1-.33,1.14Z"/><path class="cls-2" d="M186.35,247.93a.64.64,0,0,1-.63-.64V184.47a.63.63,0,0,1,1.26,0v62.82A.64.64,0,0,1,186.35,247.93Z"/><path class="cls-3" d="M152.92,202.14l-1.07,0c-10.22-.3-18.8-5-24.2-8.84a53.7,53.7,0,0,1-9.37-8.4.63.63,0,1,1,1-.81,54.21,54.21,0,0,0,9.17,8.2c5.25,3.76,13.59,8.29,23.48,8.58,11.81.35,23.24-5.31,34-16.81a.63.63,0,0,1,.92.86C176.13,196.34,164.73,202.14,152.92,202.14Z"/><path class="cls-2" d="M118.77,247.93a.64.64,0,0,1-.64-.64V184.47a.64.64,0,0,1,.64-.63.63.63,0,0,1,.63.63v62.82A.64.64,0,0,1,118.77,247.93Z"/><circle class="cls-2" cx="118.83" cy="183.98" r="3.7" transform="translate(-88.35 255.02) rotate(-76.07)"/><circle class="cls-2" cx="186.54" cy="183.98" r="3.7"/><path class="cls-2" d="M122.53,247.67h-7.4a3.71,3.71,0,0,1,3.64-3.67h.06A3.69,3.69,0,0,1,122.53,247.67Z"/><path class="cls-2" d="M190.23,247.7h-7.39a3.69,3.69,0,0,1,3.51-3.69h.19A3.7,3.7,0,0,1,190.23,247.7Z"/><path class="cls-2" d="M333,247.93a.64.64,0,0,1-.64-.64V184.47a.64.64,0,0,1,.64-.63.63.63,0,0,1,.63.63v62.82A.64.64,0,0,1,333,247.93Z"/><path class="cls-3" d="M299.54,202.14l-1.07,0c-10.22-.3-18.8-5-24.21-8.84a54.16,54.16,0,0,1-9.37-8.4.65.65,0,0,1,.09-.9.63.63,0,0,1,.89.09,53.72,53.72,0,0,0,9.17,8.2c5.25,3.76,13.59,8.29,23.48,8.58,11.8.35,23.23-5.31,34-16.81a.63.63,0,0,1,.9,0,.62.62,0,0,1,0,.89C322.74,196.34,311.34,202.14,299.54,202.14Z"/><path class="cls-2" d="M265.38,247.93a.64.64,0,0,1-.63-.64V184.47a.63.63,0,0,1,.63-.63.64.64,0,0,1,.64.63v62.82A.64.64,0,0,1,265.38,247.93Z"/><circle class="cls-2" cx="265.45" cy="183.98" r="3.7" transform="translate(-50.2 115.59) rotate(-22.5)"/><circle class="cls-2" cx="333.15" cy="183.98" r="3.7" transform="translate(-45.05 141.5) rotate(-22.5)"/><path class="cls-2" d="M269.15,247.67h-7.4a3.7,3.7,0,0,1,3.63-3.67h.07A3.7,3.7,0,0,1,269.15,247.67Z"/><path class="cls-2" d="M336.85,247.7h-7.4A3.7,3.7,0,0,1,333,244h.19A3.7,3.7,0,0,1,336.85,247.7Z"/><path class="cls-3" d="M146.61,248.33H83.75a.63.63,0,1,1,0-1.26h62.86a.63.63,0,0,1,0,1.26Z"/><path class="cls-3" d="M362.1,248.33H146.61a.63.63,0,1,1,0-1.26H362.1a.63.63,0,1,1,0,1.26Z"/><circle class="cls-3" cx="414.67" cy="114.61" r="7.3"/><circle class="cls-5" cx="413.26" cy="114.61" r="4.09" transform="translate(233.94 504.17) rotate(-80.78)"/><path class="cls-1" d="M71.72,239.71c2.66,2.7,5.94,3.77,7.32,2.41s.36-4.66-2.3-7.36a9.68,9.68,0,0,0-6.19-2.39,1.06,1.06,0,0,0-1.13,1.12C69.49,235,69.89,237.85,71.72,239.71Z"/><path class="cls-2" d="M82.45,248.32a.58.58,0,0,1-.58-.54c0-.29-1.86-28.59,5.29-48.94a.58.58,0,1,1,1.1.38C81.19,219.36,83,247.42,83,247.7a.58.58,0,0,1-.54.62Z"/><path class="cls-2" d="M79.78,248.32h0a.59.59,0,0,1-.58-.59c.16-13-3.47-20.84-6.22-25.59a.57.57,0,0,1,.21-.79.59.59,0,0,1,.8.21c2.82,4.87,6.54,12.88,6.38,26.18A.58.58,0,0,1,79.78,248.32Z"/><path class="cls-1" d="M87.64,207.22c-.52,2.23-1.87,3.82-3,3.56s-1.65-2.3-1.13-4.53a5.77,5.77,0,0,1,2.44-3.18.64.64,0,0,1,.93.22A5.79,5.79,0,0,1,87.64,207.22Z"/><path class="cls-3" d="M95.76,200.85a1.55,1.55,0,0,0-1.07-2.37h0a3,3,0,0,0-3.1,1.4l-3.8,7.06a2.31,2.31,0,0,1-2.57,1.15h0a2.32,2.32,0,0,1-1.79-2.17l-.28-8A3,3,0,0,0,81,195.28h0a2.07,2.07,0,0,0-2,2.14s.36,10.58.38,10.79l0,.1a4.32,4.32,0,0,0,3.3,3.63l3.08.72a4.32,4.32,0,0,0,4.57-1.8h0Z"/><path class="cls-4" d="M70.2,215.16h0l2.46-4.79a1.84,1.84,0,0,0-1.37-2.66h0a1.85,1.85,0,0,0-2.08,2.16Z"/><path class="cls-4" d="M68.09,216.73h0l-5.28,1a1.84,1.84,0,0,1-2.16-2.07h0a1.85,1.85,0,0,1,2.66-1.38Z"/><path class="cls-4" d="M69.6,218.75h0l-2.45,4.78a1.83,1.83,0,0,0,1.37,2.66h0A1.83,1.83,0,0,0,70.59,224Z"/><path class="cls-4" d="M71.71,217.18h0l5.29-1a1.83,1.83,0,0,1,2.15,2.07h0a1.83,1.83,0,0,1-2.66,1.37Z"/><path class="cls-4" d="M68.85,215.47h0l-1.65-5.12a1.84,1.84,0,0,0-2.85-.91h0a1.84,1.84,0,0,0,.06,3Z"/><path class="cls-4" d="M68.47,218.07h0l-3,4.44a1.84,1.84,0,0,1-3,.06h0a1.84,1.84,0,0,1,.91-2.85Z"/><path class="cls-4" d="M71,218.44h0l1.65,5.12a1.84,1.84,0,0,0,2.85.91h0a1.85,1.85,0,0,0-.06-3Z"/><path class="cls-4" d="M71.34,215.83h0l3-4.43a1.83,1.83,0,0,1,3-.06h0a1.84,1.84,0,0,1-.91,2.85Z"/><polygon class="cls-3" points="67.8 103.74 70.24 108.35 74.7 110.87 70.24 113.39 67.8 118 65.36 113.39 60.9 110.87 65.36 108.35 67.8 103.74"/><polygon class="cls-3" points="60.9 121.93 62.57 125.09 65.63 126.82 62.57 128.55 60.9 131.71 59.22 128.55 56.16 126.82 59.22 125.09 60.9 121.93"/><polygon class="cls-3" points="375.06 128.23 377.5 132.84 381.96 135.36 377.5 137.88 375.06 142.49 372.62 137.88 368.16 135.36 372.62 132.84 375.06 128.23"/><polygon class="cls-3" points="381.96 146.42 383.64 149.58 386.7 151.31 383.64 153.03 381.96 156.19 380.29 153.03 377.23 151.31 380.29 149.58 381.96 146.42"/><polygon class="cls-6" points="365.89 167.25 368.3 171.79 372.69 174.27 368.3 176.76 365.89 181.3 363.49 176.76 359.09 174.27 363.49 171.79 365.89 167.25"/><polygon class="cls-6" points="20.87 92.3 23.27 96.84 27.67 99.33 23.27 101.81 20.87 106.35 18.46 101.81 14.07 99.33 18.46 96.84 20.87 92.3"/><polygon class="cls-6" points="58.83 168.45 61.23 173 65.63 175.48 61.23 177.97 58.83 182.51 56.42 177.97 52.02 175.48 56.42 173 58.83 168.45"/><polygon class="cls-4" points="78.31 150.37 79.87 153.31 82.72 154.92 79.87 156.53 78.31 159.48 76.75 156.53 73.9 154.92 76.75 153.31 78.31 150.37"/><polygon class="cls-4" points="388.71 104.35 390.27 107.29 393.12 108.9 390.27 110.51 388.71 113.46 387.15 110.51 384.3 108.9 387.15 107.29 388.71 104.35"/><path class="cls-2" d="M410.72,71.89c-2.94,0-5.79-1.3-6.81-4.12a7.32,7.32,0,0,1-.39-1.78,8.77,8.77,0,0,1-3.47-2.52,7.94,7.94,0,0,1-1.95-4.24.58.58,0,0,1,.53-.63.59.59,0,0,1,.63.53,6.79,6.79,0,0,0,1.68,3.58,8.12,8.12,0,0,0,2.56,2,10.58,10.58,0,0,1,.18-1.33,3.93,3.93,0,0,1,1.52-2.7,2.67,2.67,0,0,1,4.08,2.75,3.28,3.28,0,0,1-1,1.74,4.18,4.18,0,0,1-3.16,1.15,1.84,1.84,0,0,1-.33,0,4.66,4.66,0,0,0,.27,1.07c1.24,3.46,5.65,3.81,8.38,2.95l.27-.1a6.75,6.75,0,0,0,2-1.12.58.58,0,0,1,.73.91,8.05,8.05,0,0,1-2.38,1.31l-.32.11A10.29,10.29,0,0,1,410.72,71.89Zm-6.06-6.78a3.93,3.93,0,0,0,.48.06,3,3,0,0,0,2.3-.85,2.21,2.21,0,0,0,.69-1.11,1.49,1.49,0,0,0-2.28-1.54,2.84,2.84,0,0,0-1,1.95A7.79,7.79,0,0,0,404.66,65.11Z"/></g></g></svg>