<svg xmlns="http://www.w3.org/2000/svg" viewBox="0 0 1011.53 496.76"><defs><style>.cls-1{fill:#595959;}.cls-2{fill:#fff;}.cls-3{fill:#dce5f7;}.cls-4{fill:#cf8282;}.cls-5{fill:#e2a3a3;}.cls-6{fill:#333;}</style></defs><title>Asset 5</title><g id="Layer_2" data-name="Layer 2"><g id="Layer_2-2" data-name="Layer 2"><rect class="cls-1" x="356.33" y="91.65" width="283.82" height="403.93" rx="30.61"/><path class="cls-2" d="M688.09,181.91A47.64,47.64,0,0,0,684,194.36c-.07.4-.14.8-.2,1.2l-.09.61a47.53,47.53,0,0,0,.12,13.79c.22,1.38.49,2.74.82,4.09l.15.58c.1.39.2.77.31,1.15.06.19.11.38.17.57.11.38.23.76.35,1.14.25.75.52,1.5.8,2.24a47.56,47.56,0,0,0,37.68,30h0a46.67,46.67,0,0,0,7.35.46,47.42,47.42,0,0,0,46.7-50,48.72,48.72,0,0,0-.62-5.53,47.66,47.66,0,0,0-4.46-13.49c-.35-.68-.71-1.35-1.09-2-.12-.22-.25-.44-.38-.66-.26-.44-.52-.88-.8-1.3a47.2,47.2,0,0,0-6.33-8h0a.34.34,0,0,0-.06-.06,47.6,47.6,0,0,0-28.9-13.76q-.49-.06-1-.09a47.54,47.54,0,0,0-27.77,6.38c-.21.11-.42.23-.62.36l-.77.47-.3.19h0l-.66.43-1.07.74c-.94.66-1.85,1.36-2.75,2.09-.4.34-.81.68-1.2,1A47.24,47.24,0,0,0,688.09,181.91Z"/><path class="cls-3" d="M722,220.63l-1.27,6.4,1.2,1.32-1,7.44,3.44,2.05,3.37,9.77-1.7,1.2-1.91.91h0a46.67,46.67,0,0,0,7.35.46h0l5.26-2.06,7.86-7.81,5.49-1.39,10-7.68.84-8.47.71.35,3.63-1.37,7.74-5.66,4.8-5.06.14-2.78-.35-8.4.56.39a48.72,48.72,0,0,0-.62-5.53,47.66,47.66,0,0,0-4.46-13.49c-.35-.68-.71-1.35-1.09-2-.12-.22-.25-.44-.38-.66-.26-.44-.52-.88-.79-1.31a39.53,39.53,0,0,0-6.34-7.95l-4.64,2.14L756,177.85l-2.27,2.77-2.2,3.37,4.11,2.55,3.46,3.16,6.33,16.58,1.06,1.25,1.83-2.25.13-1.41,1.41-.61,1,1.89.88,1.62,1.51,2.77L771,212.06l-.17-1.94-1.79-1.24-1.31,2.69-.58,2.31-1.7.46-1.69,5.18-2.88,1,0-1.12-1.81-3.1-5,.72-2.7-1.31-6.51,2.38-3.94-.63-4.2,3.31Z"/><path class="cls-3" d="M752.76,168.65l-.64,2.83-4,4.13-2.32-1.69.63-2.82-4.73-5.45,2.64-2.83a3.63,3.63,0,0,1,4.23-.95l1.94.86,4.93,2.77,1.36,1.77-.57,2.31Z"/><path class="cls-3" d="M688.09,181.91a47.36,47.36,0,0,0-1.64,37.82l.78-.07.23-2,.7-9.92,3.11-8.92L694.2,194l5.71-.36,7.43,7.13,7-2.3,5.33-8.31.34-3-.61-8.61-3.54-5.24-2.77-1.53-7.68-3.19,1.29-3,5.44.2-2.07.84-.51,1,.67.52,1.41-.61,1.64.43,3.5.78,2.22-.4.17,1.93,1.92,2.77.92,3,4.71,2.85,3.73-5.39,2.08-3-4.46-2.22.1-4,3.86-.34,6.41-5.56-3.81-1.67,1.25-1.06-.39-.23a48.61,48.61,0,0,0-30.45,7.31h0A47.28,47.28,0,0,0,688.09,181.91Z"/><path class="cls-3" d="M709.62,246.12A48,48,0,0,1,685.69,220c-.3-.77-.57-1.54-.82-2.28l-.36-1.15-.17-.58c-.11-.39-.22-.78-.32-1.17l-.15-.58c-.33-1.35-.61-2.75-.83-4.17a47.88,47.88,0,0,1-.12-14l.09-.62c.06-.4.13-.81.2-1.21a48.61,48.61,0,0,1,4.14-12.67,48.08,48.08,0,0,1,11.5-15.11l1.23-1c.91-.75,1.85-1.47,2.8-2.13l1.08-.75.06,0,.61-.4,0,0,.17-.1.09-.06.79-.49.64-.37a48.07,48.07,0,0,1,28.23-6.48l1,.09a48.62,48.62,0,0,1,29.4,14l0,0,0,0a48,48,0,0,1,6.45,8.1c.26.4.52.84.81,1.32l.39.67c.37.65.73,1.33,1.1,2.05A48.47,48.47,0,0,1,779,200.19a47.39,47.39,0,0,1-.33,8.74A48.36,48.36,0,0,1,724,250.54h0A48.21,48.21,0,0,1,709.62,246.12Zm-4.12-82.64-.58.38,0,0-1,.72c-.92.64-1.83,1.34-2.71,2.06-.39.32-.79.66-1.18,1a46.91,46.91,0,0,0-15.11,26.83c-.07.4-.13.79-.19,1.19,0,.2-.06.39-.09.59a46.34,46.34,0,0,0,.11,13.56c.22,1.37.49,2.73.81,4l.14.57c.1.37.2.75.31,1.12l.17.57c.11.37.22.74.35,1.11.23.71.49,1.45.78,2.21a46.76,46.76,0,0,0,37,29.47h0a46.67,46.67,0,0,0,48.08-67.33c-.36-.71-.71-1.35-1.07-2-.12-.22-.25-.44-.38-.66-.27-.46-.53-.88-.78-1.27a46.23,46.23,0,0,0-6.2-7.79l0,0,0,0a46.79,46.79,0,0,0-28.41-13.53c-.32,0-.65-.07-1-.09a46.47,46.47,0,0,0-27.29,6.26l-.59.36-.77.47-.08.05-.22.14h0Z"/><rect class="cls-3" x="218.83" y="259.88" width="105.36" height="105.36" transform="translate(-97.55 124.93) rotate(-22.07)"/><rect class="cls-2" x="283.05" y="278.14" width="6.78" height="22.12" transform="translate(-87.68 128.83) rotate(-22.07)"/><rect class="cls-1" x="294.5" y="269.07" width="6.78" height="26.38" transform="translate(-84.23 132.62) rotate(-22.07)"/><rect class="cls-1" x="269.28" y="275.31" width="6.78" height="30.21" transform="translate(-89.15 123.75) rotate(-22.07)"/><path class="cls-1" d="M238.24,303.3l-12.15-1.7a15.17,15.17,0,0,1,9.3-11.92L240,301A2.84,2.84,0,0,0,238.24,303.3Z"/><path class="cls-1" d="M246.76,317.71a15.13,15.13,0,0,1-20.67-16.11l12.15,1.7a2.87,2.87,0,0,0,5.09,2.16L253,313A15.18,15.18,0,0,1,246.76,317.71Z"/><path class="cls-1" d="M253,313l-9.68-7.52a2.85,2.85,0,0,0,.39-2.84L255.09,298A15.18,15.18,0,0,1,253,313Z"/><path class="cls-2" d="M255.09,298l-11.37,4.61a2.78,2.78,0,0,0-1.64-1.6l4.34-11.48A15.21,15.21,0,0,1,255.09,298Z"/><path class="cls-2" d="M242.08,301a2.74,2.74,0,0,0-2.08,0l-4.61-11.36a15.06,15.06,0,0,1,11-.14Z"/><path class="cls-2" d="M250.45,337.47a.71.71,0,0,1-.65-.43.7.7,0,0,1,.38-.92l58.36-24.56a.71.71,0,1,1,.55,1.3l-58.37,24.56A.81.81,0,0,1,250.45,337.47Z"/><path class="cls-2" d="M254.45,347.4a.71.71,0,0,1-.27-1.36l58.36-24.56a.71.71,0,0,1,.93.38.7.7,0,0,1-.38.92l-58.36,24.56A.71.71,0,0,1,254.45,347.4Z"/><path class="cls-2" d="M305.9,337.36a.71.71,0,0,1-.27-1.36l10.92-4.59a.7.7,0,1,1,.54,1.3l-10.91,4.59A.71.71,0,0,1,305.9,337.36Z"/><path class="cls-2" d="M258.46,357.32a.7.7,0,0,1-.28-1.35l34.66-14.58a.7.7,0,0,1,.92.37.72.72,0,0,1-.37.93l-34.66,14.58A.65.65,0,0,1,258.46,357.32Z"/><path class="cls-4" d="M322.1,399.22a5.05,5.05,0,0,1,3.95,3.24,5.26,5.26,0,0,1-2.54,6.12,4.92,4.92,0,0,1,2.9,3c.87,2.67-.89,5.63-3.84,6.64l-.57.2a4.79,4.79,0,0,1,1.94,2.44c.93,2.66-.84,5.71-3.82,6.73l-22.68,7.77a6.22,6.22,0,0,1-2.75.29h-.08a5.12,5.12,0,0,1-.54-.1l-.26-.06c-.31-.06-.62-.12-.93-.16a14.79,14.79,0,0,0-3.26-.12l-.88.08c-.33,0-.65.09-1,.15a18,18,0,0,0-2.57.67l-12,4.12s-9.94-29-9.94-29l9.75-3.34a11.64,11.64,0,0,0,3.09-1.62,11.45,11.45,0,0,0,2.88-3.1,12.4,12.4,0,0,0,1.07-2,13.49,13.49,0,0,0,1-4.07,12.41,12.41,0,0,0-.16-3.17,16.23,16.23,0,0,0-1.43-4c-.34-.71-.7-1.43-1-2.13-.19-.4-.38-.81-.55-1.21a3.5,3.5,0,0,1,2.16-4.67,7.59,7.59,0,0,1,8.83,2.91c.34.51.64,1,.92,1.5a26.43,26.43,0,0,1,3.1,8.83l.24,1.51a1.57,1.57,0,0,0,2.14,1.1l22.72-7.78c3-1,6.24.3,7.14,3A5.31,5.31,0,0,1,322.1,399.22Z"/><path class="cls-5" d="M272.52,407l10.55,30.79a2.28,2.28,0,0,1-.28,2,2.54,2.54,0,0,1-1.32,1L268,445.45a2.56,2.56,0,0,1-2.11-.19,2.07,2.07,0,0,1-.62-.52.71.71,0,0,1-.1-.14,2.06,2.06,0,0,1-.29-.55l-10.54-30.79a1.92,1.92,0,0,1-.11-.54,2.47,2.47,0,0,1,1.71-2.47l13.45-4.6a2.43,2.43,0,0,1,3,1.18A1.8,1.8,0,0,1,272.52,407Z"/><rect class="cls-2" x="365.78" y="101.1" width="264.93" height="385.04" rx="21.16"/><path class="cls-1" d="M609.54,110.54a11.73,11.73,0,0,1,11.72,11.72V465a11.72,11.72,0,0,1-11.72,11.71H386.94A11.73,11.73,0,0,1,375.22,465V122.26a11.74,11.74,0,0,1,11.72-11.72Zm0-18.89H386.94a30.61,30.61,0,0,0-30.61,30.61V465a30.61,30.61,0,0,0,30.61,30.6h222.6A30.6,30.6,0,0,0,640.15,465V122.26a30.6,30.6,0,0,0-30.61-30.61Z"/><rect class="cls-1" x="368.73" y="180" width="256.75" height="57.33"/><polygon class="cls-1" points="124.45 261.13 126.97 265.9 131.58 268.5 126.97 271.11 124.45 275.87 121.92 271.11 117.31 268.5 121.92 265.9 124.45 261.13"/><polygon class="cls-5" points="98.45 112.14 100.97 116.9 105.58 119.51 100.97 122.12 98.45 126.88 95.92 122.12 91.31 119.51 95.92 116.9 98.45 112.14"/><polygon class="cls-1" points="679.2 314.96 681.73 319.72 686.34 322.33 681.73 324.94 679.2 329.7 676.68 324.94 672.07 322.33 676.68 319.72 679.2 314.96"/><polygon class="cls-5" points="916.23 155.27 918.75 160.04 923.37 162.65 918.75 165.25 916.23 170.02 913.71 165.25 909.09 162.65 913.71 160.04 916.23 155.27"/><polygon class="cls-1" points="329.54 49.01 332.06 53.78 336.68 56.38 332.06 58.99 329.54 63.76 327.02 58.99 322.4 56.38 327.02 53.78 329.54 49.01"/><path class="cls-5" d="M851.45,154h0a9.76,9.76,0,0,1-9.76-9.76h0a9.76,9.76,0,0,1,9.76-9.76h0a9.76,9.76,0,0,1,9.76,9.76h0A9.76,9.76,0,0,1,851.45,154Z"/><path class="cls-1" d="M826.67,176.73h0a5.19,5.19,0,0,1-5.19-5.19h0a5.19,5.19,0,0,1,5.19-5.18h0a5.18,5.18,0,0,1,5.18,5.18h0A5.18,5.18,0,0,1,826.67,176.73Z"/><path class="cls-4" d="M851.45,163.7H833.69a1,1,0,0,1-1-.94V145a1,1,0,0,1,1-.94h17.76a.94.94,0,0,1,.94.94v17.76A.94.94,0,0,1,851.45,163.7Zm-16.82-1.89H850.5V146H834.63Z"/><path class="cls-6" d="M70.42,341.29a1.11,1.11,0,0,1-1.08-.81,1.13,1.13,0,0,1,.76-1.41A40.46,40.46,0,0,0,81,334.15a16.65,16.65,0,0,1-5-3.72c-1.62-1.77-2.27-3.5-1.93-5.14a5.46,5.46,0,0,1,3.13-3.59,7.79,7.79,0,0,1,6.81-.05,6.36,6.36,0,0,1,3.49,4.64,8.11,8.11,0,0,1-2.09,6.94,12.73,12.73,0,0,0,4.48.06,10.67,10.67,0,0,0,8.18-6.6,1.13,1.13,0,1,1,2.08.9,12.87,12.87,0,0,1-9.88,7.93,15.07,15.07,0,0,1-6.77-.42c-3.87,3.18-9.51,5.19-12.73,6.15A1.24,1.24,0,0,1,70.42,341.29Zm10.25-18.14a5.64,5.64,0,0,0-2.48.58c-.5.25-1.7.95-1.92,2s.63,2.32,1.38,3.14A14.27,14.27,0,0,0,83,332.53c1.69-1.66,2.7-3.61,2.29-5.83a4.1,4.1,0,0,0-2.27-3A5.25,5.25,0,0,0,80.67,323.15Z"/><path class="cls-3" d="M919.36,64.12c-.76-3.81-1.56-7.7-3.43-11.11-2.14-3.9-6.23-7.58-10.95-6.94-3.4.45-6-1.4-7.29-4.47-1.77-4.14-2.54-8.77-4-13-1.32-4-4.13-9.3-9.23-8.1-9.73,2.3-10.41,14.73-11.26,22.7-.31,3-1.34,7.24-5.23,6.74-2.54-.33-4.4-2.46-6.42-3.83-5.38-3.67-12.35-2.92-17.79.23-3.87,2.24-6.22,6.3-7.49,10.48a27.4,27.4,0,0,0-.93,4.18c0,.2-.19,3.16-.19,3.16Z"/><path class="cls-3" d="M893.13,223.63h116.31c-.78-9.74-7.15-26.36-8.34-28.27-.48-.78-.9-1.5-1.25-2.05-5.43-8.62-20.41-14.36-27.17-4-4.73,7.22-.8,21.3-10.63,24.89-11.29,4.13-14.13-10.71-15.13-18.32-1.24-9.34-1-18.92-3.79-28C942,165.1,940,162,936.91,161.6c-3.12,0-5.84,2.34-7,5.06-3.45,8.39-4.4,17.43-5.66,26.33-1,7.22-2.43,23.15-12,24-5.1.47-9.71-8.63-14.44-4.6C894.77,215,894.93,220.35,893.13,223.63Z"/><path class="cls-6" d="M932.14,324.06c-4.76,0-9.38-2.11-11-6.67a11.71,11.71,0,0,1-.62-2.88,14,14,0,0,1-5.62-4.09,12.74,12.74,0,0,1-3.16-6.84.94.94,0,1,1,1.88-.18,11,11,0,0,0,2.71,5.79,13.06,13.06,0,0,0,4.16,3.27,16,16,0,0,1,.27-2.15,6.36,6.36,0,0,1,2.48-4.37,4.3,4.3,0,0,1,6.59,4.44,5.38,5.38,0,0,1-1.69,2.82,6.76,6.76,0,0,1-5.12,1.87c-.18,0-.36,0-.54-.06a8.87,8.87,0,0,0,.44,1.74c2,5.59,9.15,6.15,13.56,4.76a4,4,0,0,0,.45-.15,11.45,11.45,0,0,0,3.31-1.81.94.94,0,0,1,1.33.15.93.93,0,0,1-.15,1.32,13.15,13.15,0,0,1-3.85,2.12l-.52.17A16.09,16.09,0,0,1,932.14,324.06Zm-9.82-11a5.2,5.2,0,0,0,.78.1,4.93,4.93,0,0,0,3.73-1.37A3.56,3.56,0,0,0,928,310a2.41,2.41,0,0,0-3.7-2.49,4.66,4.66,0,0,0-1.66,3.17A13.47,13.47,0,0,0,922.32,313.08Z"/><path class="cls-6" d="M322,496.72H103.7a.95.95,0,1,1,0-1.89H322a.95.95,0,0,1,0,1.89Z"/><path class="cls-6" d="M89.34,496.72H.94a.95.95,0,0,1,0-1.89h88.4a.95.95,0,0,1,0,1.89Z"/><path class="cls-6" d="M645.13,496.76H306.54a.95.95,0,0,1,0-1.89H645.13a.95.95,0,0,1,0,1.89Z"/><circle class="cls-5" cx="499.71" cy="315.08" r="47.85"/><path class="cls-6" d="M499.71,351.54A48.8,48.8,0,1,1,523.31,260a1,1,0,0,1,.37,1.29,1,1,0,0,1-1.29.36,46.9,46.9,0,1,0,15,13.18.94.94,0,1,1,1.51-1.12,48.34,48.34,0,0,1,9.56,29A48.85,48.85,0,0,1,499.71,351.54Z"/><polygon class="cls-2" points="521.49 305.86 503.64 316.16 485.78 326.47 485.78 305.86 485.78 285.24 503.64 295.55 521.49 305.86"/><rect class="cls-1" x="417.52" y="378.3" width="172.23" height="75.7"/><path class="cls-6" d="M559.28,395.42H448a.95.95,0,1,1,0-1.89H559.28a.95.95,0,0,1,0,1.89Z"/><path class="cls-6" d="M559.28,409.87H486.42a.95.95,0,1,1,0-1.89h72.86a.95.95,0,0,1,0,1.89Z"/><path class="cls-6" d="M469.86,409.87H448a.95.95,0,1,1,0-1.89h21.86a.95.95,0,0,1,0,1.89Z"/><path class="cls-6" d="M559.28,424.33H532.7a.95.95,0,0,1,0-1.89h26.58a.95.95,0,0,1,0,1.89Z"/><path class="cls-6" d="M518.16,424.33H448a.95.95,0,1,1,0-1.89h70.16a.95.95,0,0,1,0,1.89Z"/><path class="cls-6" d="M559.28,438.78H448a.95.95,0,1,1,0-1.89H559.28a.95.95,0,0,1,0,1.89Z"/><path class="cls-6" d="M323.65,469.6h-60a.94.94,0,1,1,0-1.88h59.3l13-47.05H270.15a.95.95,0,0,1,0-1.89h67a.94.94,0,0,1,.91,1.19l-13.52,48.94A.93.93,0,0,1,323.65,469.6Z"/><path class="cls-6" d="M263.63,469.6a.94.94,0,0,1-.91-.68l-15.59-53.43A11.72,11.72,0,0,0,236,407.11H224.2a.95.95,0,1,1,0-1.89H236a13.61,13.61,0,0,1,13,9.75l15.59,53.43a.94.94,0,0,1-.64,1.17A1.15,1.15,0,0,1,263.63,469.6Z"/><path class="cls-6" d="M299,487.05a8.41,8.41,0,1,0,8.41-8.41A8.41,8.41,0,0,0,299,487.05Z"/><path class="cls-6" d="M270.15,487.05a8.41,8.41,0,1,0,8.41-8.41A8.41,8.41,0,0,0,270.15,487.05Z"/><path class="cls-6" d="M293.68,469.6a.94.94,0,0,1-.94-.94V419.72a.94.94,0,0,1,1.88,0v48.94A.94.94,0,0,1,293.68,469.6Z"/><path class="cls-6" d="M327.74,454.81H259.31a.95.95,0,1,1,0-1.89h68.43a.95.95,0,0,1,0,1.89Z"/><path class="cls-6" d="M330.59,438.36H255.32a.95.95,0,0,1,0-1.89h75.27a.95.95,0,0,1,0,1.89Z"/><rect class="cls-5" x="676.48" y="432.6" width="85.59" height="16.74"/><rect class="cls-5" x="695.3" y="455.93" width="85.59" height="16.74"/><rect class="cls-5" x="676.48" y="478.71" width="85.59" height="16.74"/><path class="cls-6" d="M1010.59,496.72H665.53a.95.95,0,1,1,0-1.89h345.06a.95.95,0,0,1,0,1.89Z"/><circle class="cls-5" cx="725.52" cy="400.15" r="37.22" transform="translate(-67.46 159.97) rotate(-12.03)"/><path class="cls-6" d="M716.49,434.93a39.09,39.09,0,0,1-32.27-61.11.95.95,0,0,1,1.56,1.07A37.11,37.11,0,1,0,698,363.56a.94.94,0,1,1-.94-1.63A38.58,38.58,0,0,1,711.75,357a39.1,39.1,0,1,1,4.74,77.92Z"/><path class="cls-6" d="M711.68,416.68c-2.63,0-5.86-1-7.55-3.18a5.32,5.32,0,0,1-.81-5.2.94.94,0,0,1,1.79.6,3.45,3.45,0,0,0,.5,3.43c1.45,1.84,4.54,2.62,6.72,2.43A10,10,0,0,0,721.1,405a10.47,10.47,0,0,0-3.35-7.64,27.22,27.22,0,0,0-3-2.31c-2.67-1.85-5.42-3.77-6.12-7.39s.92-7.91,4.32-10.89,7.75-4.09,11.37-2.88a6.87,6.87,0,0,1,4.37,8.72.93.93,0,0,1-1.19.6,1,1,0,0,1-.6-1.2,5,5,0,0,0-.26-3.81,5,5,0,0,0-2.89-2.51c-3-1-6.66,0-9.55,2.5s-4.32,6-3.72,9.11c.56,2.86,2.89,4.49,5.35,6.2A27.71,27.71,0,0,1,719,396a12.39,12.39,0,0,1,4,9.05,12,12,0,0,1-10.49,11.64C712.23,416.66,712,416.68,711.68,416.68Z"/><path class="cls-6" d="M707.4,422.16a1,1,0,0,1-.29,0,.94.94,0,0,1-.61-1.19l16.89-52.43a.94.94,0,1,1,1.79.58L708.3,421.51A.94.94,0,0,1,707.4,422.16Z"/><path class="cls-6" d="M367,425.16a.94.94,0,0,1-.94-.86L341.26,135.1A31.58,31.58,0,0,1,370,101L544.81,86a.95.95,0,0,1,.16,1.89l-174.81,15a29.71,29.71,0,0,0-27,32.09L368,424.14a.94.94,0,0,1-.86,1Z"/><path class="cls-6" d="M646.5,362.52a1,1,0,0,1-.94-.86L624,110.83a29.7,29.7,0,0,0-32.09-27L566.39,86a.94.94,0,1,1-.16-1.88l25.56-2.2a31.59,31.59,0,0,1,34.13,28.74L647.45,361.5a1,1,0,0,1-.86,1Z"/><polygon class="cls-2" points="469.66 184.7 412.63 184.7 424.33 130.66 473.56 130.66 469.66 184.7"/><polygon class="cls-4" points="526.7 184.7 469.66 184.7 473.56 130.66 522.8 130.66 526.7 184.7"/><polygon class="cls-2" points="583.74 184.7 526.7 184.7 522.8 130.66 572.04 130.66 583.74 184.7"/><path class="cls-4" d="M369.68,130.65,352.3,178.81a35,35,0,0,0-2.07,11.6l-.05,6.85a28.52,28.52,0,0,0,28.52,28.52h0a28.52,28.52,0,0,0,28.52-28.52V184.7l11.7-54Z"/><path class="cls-2" d="M412.63,184.43h57a0,0,0,0,1,0,0v14.81a26.53,26.53,0,0,1-26.53,26.53h-4a26.53,26.53,0,0,1-26.53-26.53V184.43A0,0,0,0,1,412.63,184.43Z"/><path class="cls-4" d="M469.66,184.43h57a0,0,0,0,1,0,0v14.81a26.53,26.53,0,0,1-26.53,26.53h-4a26.53,26.53,0,0,1-26.53-26.53V184.43A0,0,0,0,1,469.66,184.43Z"/><path class="cls-2" d="M526.7,184.43h57a0,0,0,0,1,0,0v14.81a26.53,26.53,0,0,1-26.53,26.53h-4a26.53,26.53,0,0,1-26.53-26.53V184.43a0,0,0,0,1,0,0Z"/><path class="cls-4" d="M639,179.8l-17.74-49.15H572l11.7,54v12.56a28.52,28.52,0,0,0,28.52,28.52h0a28.52,28.52,0,0,0,28.52-28.52l-.06-7.9A28.62,28.62,0,0,0,639,179.8Z"/><path class="cls-4" d="M395.73,108.36h204.8a20.74,20.74,0,0,1,20.74,20.74v1.55a0,0,0,0,1,0,0H375a0,0,0,0,1,0,0V129.1A20.74,20.74,0,0,1,395.73,108.36Z"/><path class="cls-3" d="M239.35,71.89l-6.76,10.73a11.72,11.72,0,0,0-19.84-12.5,11.72,11.72,0,1,0-19.83-12.5,11.72,11.72,0,0,0-19.84-12.5,11.72,11.72,0,0,0-19.84-12.49L160,21.9a46.89,46.89,0,1,1,79.35,50Z"/><path class="cls-1" d="M212.8,70.75a.81.81,0,0,1-.42-.12.8.8,0,0,1-.24-1.09l6.75-10.72c9.12-14.47,13.49-30.18,11.42-41a.79.79,0,0,1,1.55-.3c2.14,11.21-2.32,27.36-11.63,42.15l-6.76,10.72A.79.79,0,0,1,212.8,70.75Z"/><path class="cls-1" d="M172.93,45.63a.81.81,0,0,1-.42-.12.79.79,0,0,1-.25-1.09L179,33.7C188.33,18.92,201,7.93,212,5a.79.79,0,1,1,.4,1.52c-10.66,2.82-22.93,13.54-32,28L173.6,45.26A.79.79,0,0,1,172.93,45.63Z"/><path class="cls-1" d="M192.92,58.41a.79.79,0,0,1-.67-1.21l27.42-43.52a.79.79,0,1,1,1.34.84L193.58,58A.77.77,0,0,1,192.92,58.41Z"/><path class="cls-1" d="M231.23,18.45a22.16,22.16,0,0,1-11.31-3.69A22,22,0,0,1,211.66,6a.78.78,0,1,1,1.42-.66,20.62,20.62,0,0,0,7.68,8.06c5.29,3.33,11.2,4.38,14.39,2.56a.8.8,0,0,1,1.08.3.79.79,0,0,1-.3,1.07A9.41,9.41,0,0,1,231.23,18.45Z"/><path class="cls-1" d="M186.27,98.4c-2.71,0-5.51-.07-8.41-.23A.79.79,0,0,1,178,96.6c21.72,1.16,38.37-2.26,49.47-10.17a.8.8,0,0,1,1.1.18.79.79,0,0,1-.19,1.1C218.27,94.88,204.46,98.4,186.27,98.4Z"/><path class="cls-1" d="M163.54,89.12a.81.81,0,0,1-.7-.41C152.17,69.16,148.11,52.9,150.43,39a.79.79,0,0,1,1.56.26C149.75,52.61,153.87,69,164.23,88a.8.8,0,0,1-.32,1.07A.74.74,0,0,1,163.54,89.12Z"/><path class="cls-1" d="M170.72,93.65a.72.72,0,0,1-.42-.13.78.78,0,0,1-.25-1.08l18.63-29.57a.79.79,0,0,1,1.33.84L171.39,93.28A.79.79,0,0,1,170.72,93.65Z"/><rect class="cls-3" x="155.57" y="109.27" width="31.6" height="36.65" transform="matrix(0.85, 0.53, -0.53, 0.85, 94.39, -71.71)"/><rect class="cls-3" x="129.94" y="95.58" width="39.4" height="36.65" transform="translate(83.75 -62.24) rotate(32.21)"/><path class="cls-2" d="M165.19,112.88a.81.81,0,0,1-.42-.12l-18.93-11.92a.8.8,0,0,1-.24-1.09.78.78,0,0,1,1.08-.25l18.93,11.93a.78.78,0,0,1,.25,1.08A.79.79,0,0,1,165.19,112.88Z"/><path class="cls-2" d="M162.37,117.37a.72.72,0,0,1-.42-.13l-8.84-5.57a.78.78,0,0,1-.25-1.08.79.79,0,0,1,1.09-.25l8.84,5.57a.79.79,0,0,1-.42,1.46Z"/><path class="cls-2" d="M159.15,143.71a.74.74,0,0,1-.42-.13.78.78,0,0,1-.25-1.08l20.3-32.42a.78.78,0,0,1,1.08-.25.79.79,0,0,1,.25,1.09l-20.29,32.42A.81.81,0,0,1,159.15,143.71Z"/><path class="cls-1" d="M934.12,461.37c6,3.39,9.52,8.65,7.78,11.76s-8,2.87-14.09-.51c-4.18-2.35-6.3-7.07-7.21-9.77a2,2,0,0,1,1.42-2.54C924.79,459.68,929.94,459,934.12,461.37Z"/><path class="cls-1" d="M964.15,463.26c-3.41,3.45-7.62,4.84-9.39,3.08s-.46-6,3-9.43c2.36-2.39,5.95-3,7.93-3.07a1.38,1.38,0,0,1,1.46,1.44C967,457.27,966.51,460.86,964.15,463.26Z"/><path class="cls-6" d="M944.35,496a1,1,0,0,1-1-1,153.82,153.82,0,0,0-6.25-42.21.94.94,0,1,1,1.81-.52A155.65,155.65,0,0,1,945.29,495,1,1,0,0,1,944.35,496Z"/><path class="cls-6" d="M936.48,448.31a.94.94,0,0,1-.9-.65,159.4,159.4,0,0,0-10.88-26.39.94.94,0,1,1,1.65-.92,161.56,161.56,0,0,1,11,26.73.94.94,0,0,1-.61,1.19A1,1,0,0,1,936.48,448.31Z"/><circle class="cls-4" cx="928.25" cy="428.55" r="11.72" transform="translate(424.6 1318.28) rotate(-85.27)"/><path class="cls-6" d="M952.46,496a1,1,0,0,1-1-.93c0-.36-.61-36.7,8.57-62.84a.94.94,0,0,1,1.21-.57.93.93,0,0,1,.57,1.2c-9.07,25.82-8.46,61.81-8.46,62.17a.94.94,0,0,1-.92,1Z"/><polygon class="cls-5" points="970.99 435.01 962.7 426.73 951.38 429.76 948.35 441.08 956.64 449.37 967.96 446.33 970.99 435.01"/><path class="cls-2" d="M928.25,430.39c-6.24,0-13-1.44-13-4.61a.95.95,0,1,1,1.89,0c0,.81,3.76,2.72,11.07,2.72s11.07-1.91,11.07-2.72a.95.95,0,1,1,1.89,0C941.21,429,934.49,430.39,928.25,430.39Z"/><path class="cls-2" d="M928.25,430.39c-6.24,0-13-1.44-13-4.61a.95.95,0,1,1,1.89,0c0,.81,3.76,2.72,11.07,2.72s11.07-1.91,11.07-2.72a.95.95,0,1,1,1.89,0C941.21,429,934.49,430.39,928.25,430.39Z"/><path class="cls-2" d="M937.94,433.52a11.14,11.14,0,0,1-2.48-.33,34.91,34.91,0,0,1-15.2-8.76c-2.47-2.65-2.38-4.25-1.88-5.13a.95.95,0,0,1,1.64.95c-.16.27.14,1.3,1.62,2.89a29.8,29.8,0,0,0,6.61,5,29.11,29.11,0,0,0,7.64,3.21c2.11.49,3.15.24,3.31,0a.95.95,0,1,1,1.64.94C940.47,432.89,939.67,433.52,937.94,433.52Z"/><path class="cls-2" d="M937.94,433.52a11.14,11.14,0,0,1-2.48-.33,34.91,34.91,0,0,1-15.2-8.76c-2.47-2.65-2.38-4.25-1.88-5.13a.95.95,0,0,1,1.64.95c-.16.27.14,1.3,1.62,2.89a29.8,29.8,0,0,0,6.61,5,29.11,29.11,0,0,0,7.64,3.21c2.11.49,3.15.24,3.31,0a.95.95,0,1,1,1.64.94C940.47,432.89,939.67,433.52,937.94,433.52Z"/><path class="cls-2" d="M948.35,442a.94.94,0,0,1-.24-1.85l22.64-6.07a.95.95,0,0,1,.49,1.83L948.6,442Z"/><path class="cls-2" d="M959.67,439a.94.94,0,0,1-.67-.28l-8.28-8.28a1,1,0,0,1,0-1.34.94.94,0,0,1,1.33,0l8.29,8.29a.95.95,0,0,1-.67,1.61Z"/><path class="cls-1" d="M52.34,482.85c4.16,4.22,9.28,5.9,11.45,3.76s.55-7.28-3.61-11.5c-2.87-2.91-7.25-3.59-9.68-3.74a1.67,1.67,0,0,0-1.77,1.75C48.84,475.55,49.46,479.94,52.34,482.85Z"/><path class="cls-6" d="M69.12,496.35a1,1,0,0,1-.94-.88c0-.44-2.91-44.72,8.28-76.57a.94.94,0,1,1,1.78.63C67.18,451,70,494.9,70.07,495.34a1,1,0,0,1-.88,1Z"/><path class="cls-6" d="M64.94,496.35h0a.94.94,0,0,1-.94-1c.25-20.36-5.43-32.59-9.73-40a.95.95,0,0,1,1.64-.95c4.4,7.62,10.23,20.16,10,41A.94.94,0,0,1,64.94,496.35Z"/><path class="cls-1" d="M77.23,432c-.81,3.49-2.92,6-4.72,5.56s-2.58-3.59-1.77-7.08a9.19,9.19,0,0,1,3.81-5,1,1,0,0,1,1.47.34A9.11,9.11,0,0,1,77.23,432Z"/><path class="cls-4" d="M89.94,422.06a2.44,2.44,0,0,0-1.68-3.71h0a4.64,4.64,0,0,0-4.84,2.19l-5.94,11a3.64,3.64,0,0,1-4,1.81h0a3.62,3.62,0,0,1-2.8-3.4l-.44-12.53a4.65,4.65,0,0,0-3.38-4.11h0a3.23,3.23,0,0,0-3.11,3.34s.55,16.55.59,16.88l0,.16a6.76,6.76,0,0,0,5.16,5.68l4.83,1.13a6.77,6.77,0,0,0,7.15-2.82l0,0Z"/><path class="cls-5" d="M50,444.44h0L53.8,437a2.87,2.87,0,0,0-2.14-4.16h0a2.87,2.87,0,0,0-3.25,3.37Z"/><path class="cls-5" d="M46.66,446.9h0l-8.27,1.55A2.87,2.87,0,0,1,35,445.21h0a2.87,2.87,0,0,1,4.16-2.15Z"/><path class="cls-5" d="M49,450.06h0l-3.84,7.48a2.88,2.88,0,0,0,2.14,4.17h0a2.89,2.89,0,0,0,3.25-3.38Z"/><path class="cls-5" d="M52.32,447.6h0l8.27-1.55A2.87,2.87,0,0,1,64,449.3h0a2.87,2.87,0,0,1-4.16,2.14Z"/><path class="cls-5" d="M47.84,444.93h0l-2.58-8a2.88,2.88,0,0,0-4.46-1.42h0a2.88,2.88,0,0,0,.09,4.68Z"/><path class="cls-5" d="M47.24,449h0l-4.75,6.94a2.88,2.88,0,0,1-4.68.1h0a2.88,2.88,0,0,1,1.42-4.46Z"/><path class="cls-5" d="M51.14,449.57h0l2.58,8A2.88,2.88,0,0,0,58.18,459h0a2.89,2.89,0,0,0-.1-4.69Z"/><path class="cls-5" d="M51.74,445.5h0l4.75-6.94a2.88,2.88,0,0,1,4.68-.1h0a2.88,2.88,0,0,1-1.43,4.46Z"/><polygon class="cls-2" points="718.89 112.11 713.97 112.61 713.92 104.32 712.88 102.71 718.89 112.11"/><polygon class="cls-1" points="712.88 102.71 707.52 94.31 681.46 118.9 725.18 121.96 718.89 112.11 712.88 102.71"/><polygon class="cls-6" points="721.91 98.72 688.61 116.87 718.87 112.12 721.91 98.72"/><path class="cls-6" d="M737.27,100.28A1.13,1.13,0,0,1,737,98l3.77-.8a1.13,1.13,0,0,1,.47,2.22l-3.77.8A1,1,0,0,1,737.27,100.28Zm11.32-2.39a1.13,1.13,0,0,1-.23-2.24l3.77-.8a1.13,1.13,0,1,1,.47,2.22l-3.77.79Zm11.33-2.4a1.13,1.13,0,0,1-.24-2.24l3.78-.8a1.13,1.13,0,0,1,.47,2.22l-3.78.8Zm11.32-2.39a1.14,1.14,0,0,1-.24-2.25l3.78-.8a1.13,1.13,0,0,1,.47,2.22l-3.78.8A.91.91,0,0,1,771.24,93.1Zm11.32-2.4a1.15,1.15,0,0,1-1.11-.9,1.13,1.13,0,0,1,.88-1.34l3.77-.8a1.13,1.13,0,0,1,1.34.87,1.14,1.14,0,0,1-.87,1.35l-3.77.79A1,1,0,0,1,782.56,90.7Zm11.32-2.4a1.13,1.13,0,0,1-.23-2.24l3.77-.8a1.13,1.13,0,1,1,.47,2.22l-3.77.8A1,1,0,0,1,793.88,88.3Zm11.33-2.39a1.14,1.14,0,0,1-.24-2.25l3.78-.79a1.13,1.13,0,1,1,.47,2.21l-3.78.8Zm11.32-2.4a1.13,1.13,0,0,1-.23-2.24l3.77-.8a1.13,1.13,0,0,1,.47,2.22l-3.78.8Z"/><polygon class="cls-2" points="248.84 212.34 253.46 214.13 249.76 221.54 249.95 223.45 248.84 212.34"/><polygon class="cls-5" points="249.95 223.45 250.93 233.37 285.3 223.21 247.68 200.72 248.84 212.34 249.95 223.45"/><polygon class="cls-6" points="240.09 222.93 278 221.79 248.87 212.35 240.09 222.93"/><path class="cls-6" d="M225,214.81a1.45,1.45,0,0,1-.29,0l-3.73-1a1.12,1.12,0,0,1-.8-1.38,1.13,1.13,0,0,1,1.38-.81l3.73,1a1.13,1.13,0,0,1-.29,2.23Zm-11.18-3a1.54,1.54,0,0,1-.3,0l-3.72-1a1.13,1.13,0,1,1,.58-2.19l3.73,1a1.14,1.14,0,0,1-.29,2.23Zm-11.19-3-.29,0-3.73-1a1.13,1.13,0,0,1,.59-2.19l3.72,1a1.13,1.13,0,0,1,.81,1.38A1.14,1.14,0,0,1,202.66,208.84Zm-11.18-3a1.43,1.43,0,0,1-.29,0l-3.73-1a1.13,1.13,0,0,1,.58-2.19l3.73,1a1.13,1.13,0,0,1-.29,2.23Zm-11.18-3a.92.92,0,0,1-.29,0l-3.73-1a1.13,1.13,0,1,1,.58-2.19l3.73,1a1.14,1.14,0,0,1,.8,1.39A1.12,1.12,0,0,1,180.3,202.88Zm-11.19-3a1,1,0,0,1-.29,0l-3.73-1a1.13,1.13,0,1,1,.59-2.19l3.73,1a1.13,1.13,0,0,1-.3,2.23Zm-11.18-3a1,1,0,0,1-.29,0l-3.73-1a1.13,1.13,0,1,1,.59-2.19l3.72,1a1.13,1.13,0,0,1-.29,2.23Z"/><path class="cls-5" d="M477.81,97.68,460.25,80.24a6.44,6.44,0,0,1,0-9.1h0a6.43,6.43,0,0,1,9.09,0l17.56,17.44a6.44,6.44,0,0,1,0,9.1h0A6.43,6.43,0,0,1,477.81,97.68Z"/><path class="cls-4" d="M478.79,87a7.75,7.75,0,0,1-5.53-2.28h0a7.84,7.84,0,1,1,11.09,0A7.73,7.73,0,0,1,478.81,87Zm-4.2-3.62a5.93,5.93,0,0,0,4.2,1.74h0a6,6,0,0,0,0-11.91h0a6,6,0,0,0-4.18,10.17Z"/><path class="cls-6" d="M419.47,496.48a1,1,0,0,1-1-.93c-.15-12.93,3.08-28.29,8.06-38.25a.95.95,0,0,1,1.69.85c-4.86,9.71-8,24.73-7.86,37.37a1,1,0,0,1-.93,1Z"/><rect class="cls-4" x="423.29" y="452.18" width="9.15" height="9.15" transform="translate(1038.15 317.99) rotate(120.32)"/><path class="cls-5" d="M422.74,450a3.25,3.25,0,1,0,2.32-4A3.25,3.25,0,0,0,422.74,450Z"/><path class="cls-5" d="M426.71,465.15a3.25,3.25,0,1,0,2.32-4A3.24,3.24,0,0,0,426.71,465.15Z"/><path class="cls-5" d="M436.26,457.92a3.25,3.25,0,1,0-4-2.32A3.26,3.26,0,0,0,436.26,457.92Z"/><path class="cls-5" d="M421.48,461.79a3.25,3.25,0,1,0-4-2.32A3.24,3.24,0,0,0,421.48,461.79Z"/><path class="cls-5" d="M400,477.39c3.71,3.36,8.12,4.54,9.84,2.64s.13-6.18-3.58-9.54c-2.57-2.32-6.29-2.69-8.34-2.7a1.41,1.41,0,0,0-1.42,1.56C396.72,471.39,397.45,475.06,400,477.39Z"/><path class="cls-6" d="M408.57,461.28a.94.94,0,0,1-.93-.79,154.47,154.47,0,0,0-3.79-17.35.95.95,0,1,1,1.82-.52,156.72,156.72,0,0,1,3.83,17.57.93.93,0,0,1-.78,1.08Z"/><path class="cls-6" d="M411.42,496.48h0a1,1,0,0,1-.93-1,226.82,226.82,0,0,0-2-29.53.95.95,0,1,1,1.88-.26,230.16,230.16,0,0,1,2,29.82A1,1,0,0,1,411.42,496.48Z"/><path class="cls-1" d="M402.89,440.23a3.1,3.1,0,1,0-4.1-1.54A3.1,3.1,0,0,0,402.89,440.23Z"/><path class="cls-4" d="M393.23,444.51a10.8,10.8,0,1,0,11.71-15.11l0,6.42a3.83,3.83,0,0,1-2.24,3.5h0a3.84,3.84,0,0,1-4.11-.61l-4.81-4.25A10.77,10.77,0,0,0,393.23,444.51Z"/><path class="cls-5" d="M406.12,431.37a2.28,2.28,0,1,0-3-1.13A2.28,2.28,0,0,0,406.12,431.37Z"/><path class="cls-5" d="M394.49,436.66a2.28,2.28,0,1,0-3-1.13A2.28,2.28,0,0,0,394.49,436.66Z"/><path class="cls-6" d="M850.06,351.63a87.2,87.2,0,0,1-26.63,27.61,6.84,6.84,0,0,1-9.49-2,7.26,7.26,0,0,1-.61-1.13,6.87,6.87,0,0,1,2.57-8.37A73.64,73.64,0,0,0,837,346.66C841,348.07,845.24,349.71,850.06,351.63Z"/><path class="cls-6" d="M862.76,356.56a16.91,16.91,0,0,1-5.71-1,16.28,16.28,0,0,1-1.6-.65L853,353.76a1.09,1.09,0,0,1-.3-.07c-1-.41-2-.8-3-1.18-5.45-2.17-9.48-3.7-13.05-5-13.54-4.77-23.12-6.4-36.59-6.24a.93.93,0,0,1-1-.93,1,1,0,0,1,.93-1c13.72-.16,23.46,1.5,37.24,6.35,3.59,1.27,7.64,2.8,13.12,5l2.66,1.06a1,1,0,0,1,.41.09l2.78,1.31a15.08,15.08,0,0,0,18.33-4.37,14.49,14.49,0,0,0,1.57-2.54c0-.08.09-.17.13-.27a15,15,0,0,0-5.8-19.36,12.66,12.66,0,0,0-1.36-.72l-2.78-1.32-.05,0c-3.62-2-6.75-3.75-9.55-5.38-4-2.3-7.3-4.37-10.27-6.34A112.52,112.52,0,0,1,818.8,287.1a.95.95,0,0,1,1.49-1.17,110.45,110.45,0,0,0,27.24,25.37c2.93,1.95,6.26,4,10.17,6.29,2.78,1.62,5.88,3.37,9.49,5.34l2.75,1.31a17.16,17.16,0,0,1,1.52.81A16.85,16.85,0,0,1,878,346.84l-.14.29a16.79,16.79,0,0,1-15.1,9.43Z"/><path class="cls-4" d="M773,340.89c-5.49-2.59-8.81-8.75-9.36-17.35-.52-8.28,1.59-17.94,6-27.18s10.48-17,17.21-21.86c7-5,13.86-6.38,19.34-3.8s8.82,8.76,9.36,17.36c.53,8.28-1.58,17.93-5.94,27.17s-10.48,17-17.21,21.86c-6,4.33-11.9,5.93-16.92,4.67A13.56,13.56,0,0,1,773,340.89Zm15.51-64c-6.33,4.57-12.11,11.93-16.27,20.73-8.45,17.89-7.54,36.12,2,40.63s24.21-6.37,32.66-24.26c4.15-8.8,6.16-17.94,5.67-25.74-.48-7.48-3.21-12.77-7.69-14.88a10.28,10.28,0,0,0-1.88-.68C798.85,271.63,793.79,273.08,788.52,276.88Z"/></g></g></svg>