<svg xmlns="http://www.w3.org/2000/svg" xmlns:xlink="http://www.w3.org/1999/xlink" viewBox="0 0 1076.78 496.07"><defs><style>.cls-1{fill:#e2e2e2;}.cls-2{fill:#e0e0e0;}.cls-3{fill:#d3a8a7;}.cls-4{fill:#303030;}.cls-5{fill:#fff;}.cls-6{fill:#bd6a60;}.cls-7{fill:#dee8f9;}.cls-8{fill:#c5d6ef;}.cls-9{fill:#acc6e5;}.cls-10{fill:#8fb0d1;}.cls-11{fill:#fda899;}.cls-12{fill:#231f1e;}.cls-13{fill:#f3898b;}.cls-14{fill:#e8887c;}.cls-15{fill:#28222c;}.cls-16{fill:url(#radial-gradient);}.cls-17{fill:url(#radial-gradient-2);}.cls-18{fill:#09183d;}.cls-19{fill:#d64442;}.cls-20{fill:#2f2f2f;}.cls-21{fill:#3f3e3c;}.cls-22{fill:url(#linear-gradient);}.cls-23{fill:url(#radial-gradient-3);}.cls-24{fill:url(#radial-gradient-4);}.cls-25{fill:#b0c7e2;}.cls-26{fill:#b8dadd;}.cls-27{fill:#99baba;}.cls-28{fill:#656c75;}.cls-29{fill:url(#linear-gradient-2);}.cls-30{fill:url(#radial-gradient-5);}.cls-31{fill:url(#radial-gradient-6);}.cls-32{fill:#782f29;}.cls-33{fill:#fdb9ac;}.cls-34{fill:#fee4df;}.cls-35{fill:#464747;}.cls-36{fill:#b7766e;}.cls-37{fill:#d5aea9;}.cls-38{fill:#fec0b6;}.cls-39{fill:#a3665d;}.cls-40{fill:#c09791;}</style><radialGradient id="radial-gradient" cx="122.37" cy="892.95" r="4.7" gradientTransform="translate(95.09 -1370.14) scale(1.61 1.76)" gradientUnits="userSpaceOnUse"><stop offset="0" stop-color="#f9836f"/><stop offset="0.78" stop-color="#fda899"/></radialGradient><radialGradient id="radial-gradient-2" cx="104.33" cy="893.26" r="4.7" gradientTransform="translate(113.06 -1370.14) scale(1.5 1.76)" xlink:href="#radial-gradient"/><linearGradient id="linear-gradient" x1="2667.12" y1="202.74" x2="2667.12" y2="244.61" gradientTransform="matrix(-1, 0, 0, 1, 3426.68, 0)" gradientUnits="userSpaceOnUse"><stop offset="0" stop-color="#f9836f"/><stop offset="0.09" stop-color="#fa8b78"/><stop offset="0.3" stop-color="#fc9b8b"/><stop offset="0.53" stop-color="#fda595"/><stop offset="0.78" stop-color="#fda899"/></linearGradient><radialGradient id="radial-gradient-3" cx="4878.59" cy="936.03" r="4.89" gradientTransform="translate(-5648.26 -1373.02) scale(1.31 1.72)" xlink:href="#radial-gradient"/><radialGradient id="radial-gradient-4" cx="-5661.43" cy="936.68" r="4.89" gradientTransform="matrix(-1.27, 0, 0, 1.72, -6423.7, -1373.02)" xlink:href="#radial-gradient"/><linearGradient id="linear-gradient-2" x1="468.7" y1="121.33" x2="468.7" y2="168.69" gradientTransform="matrix(-1, 0, 0, 1, 1000.55, 0)" xlink:href="#linear-gradient"/><radialGradient id="radial-gradient-5" cx="93.49" cy="891.14" r="5.53" gradientTransform="matrix(-1.31, 0, 0, 1.72, 667.98, -1373.02)" xlink:href="#radial-gradient"/><radialGradient id="radial-gradient-6" cx="-726.92" cy="891.86" r="5.53" gradientTransform="translate(1443.42 -1373.02) scale(1.27 1.72)" xlink:href="#radial-gradient"/></defs><title>Asset 1</title><g id="Layer_2" data-name="Layer 2"><g id="Layer_2-2" data-name="Layer 2"><path class="cls-1" d="M121.51,484.68h0c0-6.29,19-11.39,42.33-11.39H946.42c23.38,0,42.34,5.1,42.34,11.39h0c0,6.29-19,11.39-42.34,11.39H163.84C140.46,496.07,121.51,491,121.51,484.68Z"/><path class="cls-2" d="M110.44,161.7H0a25.44,25.44,0,0,1,25.44-25.44,24.36,24.36,0,0,1,4.22.35,34.78,34.78,0,0,1,64.62,6.28A19,19,0,0,1,110.44,161.7Z"/><path class="cls-2" d="M1076.78,71.32H946.35A20.62,20.62,0,0,1,965,59.52l.79,0a24.19,24.19,0,0,1,19.83-10.32,22.85,22.85,0,0,1,3.23.22,34.38,34.38,0,0,1,63.39-.21h.42A24.23,24.23,0,0,1,1076.78,71.32Z"/><path class="cls-3" d="M326.94,76.27A52.33,52.33,0,0,1,377.22,22l62.58-2.41a52.33,52.33,0,0,1,54.31,50.27h0a52.34,52.34,0,0,1-50.28,54.31l-62.58,2.41-32,24.86a4.43,4.43,0,0,1-7.05-2.54L328.36,86.56h0a53.49,53.49,0,0,1-1.42-10.29Z"/><path class="cls-4" d="M345.48,154.26a7.16,7.16,0,0,1-.8,0,6,6,0,0,1-4.62-3.41l-26.71-58a53.91,53.91,0,0,1-3.64-10l1.46-.37-1.46.37a53.84,53.84,0,0,1,38.77-65.53L409.15,1.71A53.84,53.84,0,1,1,435.9,106l-60.19,15.44L350,152.13A5.92,5.92,0,0,1,345.48,154.26ZM422.61,3A51.08,51.08,0,0,0,409.9,4.64L349.23,20.2a50.81,50.81,0,0,0-36.59,61.85h0a50.36,50.36,0,0,0,3.45,9.47l26.72,58a2.92,2.92,0,0,0,4.9.66l26-31a1.47,1.47,0,0,1,.78-.49l60.67-15.56A50.83,50.83,0,0,0,422.61,3Z"/><circle class="cls-5" cx="430.66" cy="70.84" r="8.11" transform="translate(76.05 325.28) rotate(-45)"/><circle class="cls-5" cx="406.29" cy="70.91" r="8.11" transform="translate(68.86 308.06) rotate(-45)"/><path class="cls-5" d="M373.81,71a8.11,8.11,0,1,1,8.13,8.09A8.11,8.11,0,0,1,373.81,71Z"/><path class="cls-4" d="M738.65,157.31a5.58,5.58,0,0,1-2.08-.41,5.45,5.45,0,0,1-3.3-4.1L723.41,97a48,48,0,0,1-.87-9.44h0a48,48,0,0,1,48-47.7h.28l55.6.32a48,48,0,0,1-.27,95.94h-.28l-55.11-.32L741.8,156.3A5.42,5.42,0,0,1,738.65,157.31ZM770.5,42.87a44.95,44.95,0,0,0-44.94,44.68h0a44.75,44.75,0,0,0,.83,8.88l9.86,55.84a2.43,2.43,0,0,0,3.8,1.56L769.36,133a1.52,1.52,0,0,1,.89-.28l55.6.31h.26a44.95,44.95,0,0,0,.26-89.89l-55.61-.32Z"/><circle class="cls-6" cx="819.33" cy="89.95" r="6.77" transform="translate(176.37 605.7) rotate(-45)"/><circle class="cls-6" cx="798.97" cy="89.96" r="6.77" transform="translate(624.64 874.85) rotate(-83.9)"/><circle class="cls-6" cx="778.61" cy="89.97" r="6.77" transform="translate(546.54 838.61) rotate(-79.37)"/><path class="cls-2" d="M664.58,105.91a29,29,0,0,0-29.16-28.78l-34.67.23A29,29,0,0,0,572,106.52h0a29,29,0,0,0,29.15,28.77l34.67-.22,18.29,13a2.46,2.46,0,0,0,3.84-1.58l6.12-34.81h0a29.12,29.12,0,0,0,.53-5.72Z"/><path class="cls-5" d="M608.83,107.11a4.49,4.49,0,1,0-4.48,4.49A4.49,4.49,0,0,0,608.83,107.11Z"/><path class="cls-5" d="M622.33,107.1a4.49,4.49,0,1,0-4.49,4.49A4.49,4.49,0,0,0,622.33,107.1Z"/><path class="cls-5" d="M635.82,107.1a4.49,4.49,0,1,0-4.49,4.49A4.49,4.49,0,0,0,635.82,107.1Z"/><path class="cls-5" d="M194.06,73A27,27,0,0,1,214,40.44l31.39-7.54A27,27,0,0,1,277.9,52.83h0A27,27,0,0,1,258,85.35l-31.39,7.54-13.64,15.79a2.28,2.28,0,0,1-3.82-.57L195.82,78h0A27.15,27.15,0,0,1,194.06,73Z"/><path class="cls-5" d="M211.22,110.56a4.21,4.21,0,0,1-.5,0,3.36,3.36,0,0,1-2.59-2l-13.3-30.1A27.76,27.76,0,0,1,193,73.21h0a28.09,28.09,0,0,1,20.73-33.83l31.38-7.53A28.05,28.05,0,0,1,258.23,86.4l-31.05,7.46-13.41,15.53A3.37,3.37,0,0,1,211.22,110.56Zm40.45-77.32a26.14,26.14,0,0,0-6,.71l-31.39,7.54a25.91,25.91,0,0,0-19.12,31.22h0a25.77,25.77,0,0,0,1.68,4.85l13.31,30.11a1.2,1.2,0,0,0,.93.71,1.17,1.17,0,0,0,1.08-.41l13.64-15.79a1.17,1.17,0,0,1,.57-.35l31.39-7.53a25.89,25.89,0,0,0-6.05-51.06Z"/><path class="cls-3" d="M246.06,61.26A4.87,4.87,0,1,1,252,64.82,4.86,4.86,0,0,1,246.06,61.26Z"/><path class="cls-3" d="M231.85,64.77a4.87,4.87,0,1,1,5.89,3.56A4.87,4.87,0,0,1,231.85,64.77Z"/><circle class="cls-3" cx="222.37" cy="67.11" r="4.87" transform="translate(49.94 222.74) rotate(-58.86)"/><path class="cls-3" d="M817.08,322.22a28.65,28.65,0,0,1,4.07-8.43c3.33-4.84,7.33-9.34,9.46-14.81,3-7.82,2-17.53-4.28-23.35-5.25-4.83-12.31-6.7-19.28-7.09a75.79,75.79,0,0,0-22.7,2.72c-8.42-3.79-17.52-6.86-26.82-7-9.84-.14-20.72,4.37-23.59,14.64-4.85,17.29,15.46,31.55,8.87,48.7-4.89,12.73-21.08,18.8-22.1,33.48a21.2,21.2,0,0,0,4.23,14c-8.8,3.46-22.78-.3-36.64,1.42a3.6,3.6,0,0,0-3.52,3.26,5.61,5.61,0,0,0,4,6c57.83,17.62,109.25,10.4,124,4.69a25,25,0,0,0,12.05-7.07c9.9-10.58,6.2-24.45-1.13-35.18C817.77,339.53,814.59,331.09,817.08,322.22Z"/><path class="cls-7" d="M250.13,190s1.94,46.56,4.85,62l52.24-10.56s8-44.07,3.56-59.1Z"/><path class="cls-8" d="M284,252.75s8.47-.5,11.09-6.2c0,0,10.09-6.45,9.59-12.4,0,0-1.83-2.78,0-7.09,0,0,7-23.16,5.59-33.15a31.48,31.48,0,0,0-1.6-19.25l-4.07-7.94H264.9L252.32,191l-1.62,9.87v4.81L251,208s.76,6.58,9.73,18.54c0,0,10.4,19.81,14,24A60.07,60.07,0,0,0,284,252.75Z"/><path class="cls-9" d="M274.75,250.54l-13.56-24s-8.22-13.66-8.78-17.75a60.24,60.24,0,0,1-1.06-6.32,42,42,0,0,1,4.05-9.72,15.36,15.36,0,0,0,1.22-1.2c-1.21,3.92-3,13.17,2.05,24.55l10.56,22.12Z"/><path class="cls-10" d="M306.29,172.74s2,57.24-24.55,71.47c0,0-28.37-35.35-26.07-56.23Z"/><circle class="cls-8" cx="282.64" cy="244.1" r="1.66"/><path class="cls-11" d="M275.55,471.83v10.29l-1.27-.1s-2-5-4.12-5.53-8.64-.48-9.38-.49v-4.17Z"/><path class="cls-12" d="M254.62,484.93c.16-1.07.94-1,.94-1s.9-.7,2-4.29a8,8,0,0,1,.57-1.44c1.11-2.16,2.62-2.16,2.62-2.16h.07c.74,0,7.37,0,9.38.49s5.39,5.63,5.39,5.63h0V471.83h.66v10.56c.54.5.44,1.66.33,2.94-.13,1.65-.93,1.35-.93,1.35s-18.95.19-20.05,0S254.46,486,254.62,484.93Z"/><path class="cls-11" d="M256.61,483.89h15.88s-1.45-3.33-4-3.74c0,0-9-1-10.3.47A7,7,0,0,0,256.61,483.89Z"/><path class="cls-11" d="M288.53,471.83v10.29l1.26-.1s2-5,4.13-5.53,8.64-.48,9.38-.49v-4.17Z"/><path class="cls-12" d="M309.45,484.93c-.16-1.07-.93-1-.93-1s-.9-.7-2-4.29a8,8,0,0,0-.57-1.44c-1.11-2.16-2.63-2.16-2.63-2.16h-.06c-.74,0-7.37,0-9.38.49s-5.39,5.63-5.39,5.63h0V471.83h-.67v10.56c-.53.5-.43,1.66-.33,2.94.14,1.65.93,1.35.93,1.35s19,.19,20.06,0S309.62,486,309.45,484.93Z"/><path class="cls-11" d="M307.47,483.89H291.59s1.45-3.33,4-3.74c0,0,9-1,10.3.47A7.11,7.11,0,0,1,307.47,483.89Z"/><path class="cls-7" d="M241.46,473.94s39.09,11.17,78.29,0c1.9-32-1.89-105.47-5.47-162.37-.41-6.47-.82-12.72-1.21-18.67-.72-10.79-1.39-20.59-2-28.91-.08-1.13-.16-2.24-.23-3.32-.07-.92-.14-1.82-.2-2.7,0-.21,0-.43-.05-.64l0-.46c-.31-4.35-.59-8.14-.82-11.24l2.11-5.12a39.54,39.54,0,0,0-7.36-4.45l-2.08-.81c-3.28-1.28-6-2.39-7.62-3l-1.43-.59-.05,0-5.89-2-.16-12.95L275,217.72v12.64l-15.48,5.84v.09l0,.16c-.46,3-5.19,34.44-10.09,70.27C245.44,354.06,241.46,473.94,241.46,473.94Z"/><polygon class="cls-13" points="274.87 228.59 281.38 241.59 287.35 229.44 287.35 215.78 275.03 214.58 274.87 228.59"/><path class="cls-7" d="M290.88,230.81a9.74,9.74,0,0,1-.2,1.28L281,243.16l-10.57-11.07s-1.24-5.14,1.95-6.09,6.63-1.29,7.17.59,1,3.42,1,3.42.48-1.53,1-3.42,4-1.53,7.17-.59C290.9,226.64,291,229.22,290.88,230.81Z"/><path class="cls-8" d="M276.71,234.82s-1.29,18-.72,22.19,7.34,3.66,7.56,0,.05-19,.58-22.81Z"/><path class="cls-7" d="M284.61,234.73s1.41,18.51.64,21.46-2.6,2.77-3.72,2.41-1.88-.65-1.76-3.24-.34-19.34-.53-21.08Z"/><path class="cls-8" d="M270.39,232.09s12.58,4.53,20.49-1.33l1.74.6a26.79,26.79,0,0,1-12.08,3.79A26.11,26.11,0,0,1,269,232.63Z"/><circle class="cls-8" cx="280.07" cy="238.52" r="1.66"/><path class="cls-14" d="M303.05,186.9s6.4-2.22,6,3.27-3.21,9-2.8,10.38-2.44,4.13-6.5,3.73Z"/><path class="cls-15" d="M309.38,177.67l-3.49,4.89.07-2.33-6.3-5.64c2.06,6.09.6,14-.44,18.13l-1.84,2.8,4.19,3.49C310.63,189.78,309.38,177.67,309.38,177.67Z"/><path class="cls-14" d="M258.16,186.9s-6.39-2.22-6,3.27,3.2,9,2.8,10.38,2.43,4.13,6.49,3.73Z"/><path class="cls-11" d="M302.3,197.27s-.49,11.77-5.55,15.17-10.11,6.62-17.4,6.23-15.57-2.69-18-10.69a83.87,83.87,0,0,1-3-16.25s-3.21-10.7-1.85-18.29,7.68-12.64,18.58-13.23,21-.39,25.87,5.35S302.3,197.27,302.3,197.27Z"/><ellipse class="cls-16" cx="292.07" cy="200.11" rx="8.27" ry="7.41"/><ellipse class="cls-17" cx="269.79" cy="200.66" rx="7.71" ry="7.41"/><ellipse class="cls-15" cx="270.66" cy="193.21" rx="2.02" ry="2.75"/><ellipse class="cls-15" cx="290.68" cy="193.21" rx="2.02" ry="2.75"/><path class="cls-13" d="M279.15,187.69a.06.06,0,0,0,0,0,.78.78,0,0,0,.16.54c.74,1.26,1.68,2.55,1.44,3.91s-1.36,2.26-1.8,3.46a3.2,3.2,0,0,0,0,2.32c.13.31,1.08,2,1.61,1a.66.66,0,0,0-.13-.7c-.15-.21-.36-.4-.5-.62a1.61,1.61,0,0,1,.11-1.7c.31-.53.78-1,1.12-1.54a4.47,4.47,0,0,0,.56-3.44,8.28,8.28,0,0,0-1.67-3.27.67.67,0,0,0-.44-.3A.47.47,0,0,0,279.15,187.69Z"/><path class="cls-15" d="M271.18,165.57s-5.51,8.46-10,12.59a16.42,16.42,0,0,1-.95,1.56s.95,12.8-1.22,17.77c0,0-4.78-11.16-5.54-17.65-.08-.71,1.48.55,1.4-.22-.61-5.77-.31-15.36,7.15-17.78.62-.22-.76.11,0,0l2.35,1.95C265.4,163.3,268.47,162.24,271.18,165.57Z"/><path class="cls-18" d="M299.3,172.6s3.52,7,3.65,10.77-1.59,12.48-.68,14.9c0,0,2.78-10.12,3.62-15.71S299.3,172.6,299.3,172.6Z"/><path class="cls-15" d="M275.09,185.7c-1.43,0-2.49-1.16-3.85-1.4a6,6,0,0,0-4.11.7c-.61.36-1.38.85-2,.44a1.05,1.05,0,0,1-.35-1.11,2.24,2.24,0,0,1,.68-1,6.23,6.23,0,0,1,4.89-1.44,12.84,12.84,0,0,1,4.91,1.8c.41.24.87.57.91,1a1.07,1.07,0,0,1-1.08,1Z"/><path class="cls-15" d="M286.78,185.45c1.42.08,2.53-1.06,3.89-1.24a6,6,0,0,1,4.09.87c.6.38,1.34.9,1.94.51a1.05,1.05,0,0,0,.4-1.09,2.29,2.29,0,0,0-.63-1,6.22,6.22,0,0,0-4.84-1.64,12.79,12.79,0,0,0-5,1.6c-.43.22-.9.53-1,1a1,1,0,0,0,1,1Z"/><path class="cls-15" d="M304.18,192.24l-1.75.46s-.38,11-7.09,12.17-3.93-2.84-14.13-2.94h-.71c-10.2.1-7.41,4.11-14.13,2.94s-7.1-12.17-7.1-12.17l-1.74-.46s-.2,6.34,3.16,17.34,19.81,10,19.81,10h.71s16.46,1,19.81-10S304.18,192.24,304.18,192.24Z"/><path class="cls-19" d="M277.07,206.35l.2.28a2.89,2.89,0,0,0,1.58,1,7.67,7.67,0,0,0,1.86.17,9.26,9.26,0,0,0,2-.16,3.4,3.4,0,0,0,1.71-.91c.17-.17.33-.38.57-.41a.57.57,0,0,1,.58.58c0,.59-.61.92-1,1.17a7.9,7.9,0,0,1-1.65.66,8.25,8.25,0,0,1-3.53.19,5.21,5.21,0,0,1-1.76-.58,3,3,0,0,1-1.27-1.32,1.1,1.1,0,0,1-.11-.5.47.47,0,0,1,.29-.4.52.52,0,0,1,.49.14A.8.8,0,0,1,277.07,206.35Z"/><path class="cls-8" d="M253.51,174.81l.06-.1,3.35-5.92c3.13-2.18,12.94-3.23,12.94-3.23,3.16,1.26,1,9.15.89,9.44l6.13-11.37c-1.66.05-3.3.16-4.94.35-3,.34-5.92,1.08-8.86,1.68a72.79,72.79,0,0,0-7.29,1.72A72.91,72.91,0,0,0,253.51,174.81Z"/><path class="cls-7" d="M311.18,208.07a13.27,13.27,0,0,0-.35-5.5,42,42,0,0,0-4.06-9.72,13.82,13.82,0,0,1-1.21-1.21h0c-.39-.44-.76-.9-1.11-1.37-.11-.18-.24-.35-.35-.52-.35-.52-.67-1.06-1-1.61a33.27,33.27,0,0,1-3.35-13.61,14.56,14.56,0,0,0-.34-1.8c-.28.12-.81.34-1.5.61a36.48,36.48,0,0,1-4.25,1.34,12.89,12.89,0,0,1-2.61.37,3.89,3.89,0,0,1-1.6-.23,21.77,21.77,0,0,1-4.54-3.53,9.25,9.25,0,0,1-1.44-2,5.37,5.37,0,0,0-2.38-.94,5.3,5.3,0,0,0-2.37.94,8.43,8.43,0,0,1-1.05,1.52,20.59,20.59,0,0,1-4.93,4,3.87,3.87,0,0,1-1.43.23,9.23,9.23,0,0,1-1.25-.08,27.38,27.38,0,0,1-5.18-1.41c-1-.35-1.75-.68-2.11-.83a14.73,14.73,0,0,0-.33,1.8,33.37,33.37,0,0,1-3.36,13.61,17.52,17.52,0,0,1-1,1.61l-.36.52a15.83,15.83,0,0,1-1.11,1.37h0a13.93,13.93,0,0,1-1.22,1.21,42,42,0,0,0-4.06,9.72,13.25,13.25,0,0,0-.34,5.5c-.27-1.1-3.64-16,1.22-29.55l1.58-5.07c.4-1.48,1-3.19,1.54-4.93l.08-.24.2-.65.19-.6.16-.53.91-2.91.79-2.55.81-2.59.29-.9s.15-.2.46-.54a27.82,27.82,0,0,1,12.57-7.68l.17-.05a25.78,25.78,0,0,1,7-.94h.34l.39,0h2.65l.38,0h.34a25.81,25.81,0,0,1,7,.94l.16.05A27.87,27.87,0,0,1,303,157c.3.34.46.54.46.54l.28.9.81,2.59.8,2.55.9,2.91.17.53.18.6.21.65.07.24c.6,1.74,1.14,3.45,1.54,4.93l1.58,5.07C314.81,192,311.44,207,311.18,208.07Z"/><path class="cls-8" d="M291.07,175.05a3.89,3.89,0,0,1-1.6-.23,21.77,21.77,0,0,1-4.54-3.53l-1.75-10a31.1,31.1,0,0,1,5-.06Z"/><path class="cls-8" d="M303.5,182.41s0-13.77.87-15.95c-1-.38-2.43-.21-3.88-.64C300.59,167.62,301.32,179.41,303.5,182.41Z"/><path class="cls-8" d="M278.25,162.27l-.56,8.56a20.59,20.59,0,0,1-4.93,4,3.87,3.87,0,0,1-1.43.23l2-13.17Q275.79,162,278.25,162.27Z"/><path class="cls-20" d="M308.11,165.56a1.63,1.63,0,0,1-1.67,1.82c-.28-.08-.55-.17-.83-.24-2.13-.61-4.31-1-6.47-1.48-2.94-.6-5.87-1.35-8.86-1.68-.56-.07-1.12-.12-1.68-.17l-.36,0-.42,0-.62,0-.55,0h-.1c-.67,0-1.34-.06-2-.08h-.83c-1.11,0-2.22,0-3.34,0H280l-.76,0-.55,0-1.12,0-.55,0h-.16l-.44,0-.43,0-.53,0h-.12l-.56,0-.6,0-.41,0-.51.05-.61.06h-.06l-.23,0-.4,0-.33,0h-.13l-.24,0-.42,0-.53.05-1.11.14-.39.06-.39.06-.69.11-.57.1-.36.07-1,.22c-1.44.31-2.81.68-4,1l-.09,0-1.2.38-.57.18-.28.1-.26.09-.51.18-.37.13-.11,0-.33.12h0l-.63.24-.08,0-.19.07-.09,0-.06,0-.22.09-.49.19h0l-.12.05-.06,0-.13.05-.07,0-.11,0-.05,0-.15.07h0l0,0h0c-1.06,0-1.24-1.39-1.24-1.39a2.63,2.63,0,0,1,1.94-2.84h0l-1.17-.38h0c-1.17-.95,0-3.18,0-3.18a2.06,2.06,0,0,1,.43-.47,11.09,11.09,0,0,1,3.07-1.57c.89-.33,1.59-.52,1.59-.52,6.87-2.71,20.56-2.71,20.56-2.71,8.27-.14,21.17,2.71,21.17,2.71l.85.25.23.08c3.86,1.25,3.78,2.18,3.78,2.18a2.63,2.63,0,0,1,.3,1.21,1.38,1.38,0,0,1-.25.76,1.93,1.93,0,0,1-1.12.69h0A3.43,3.43,0,0,1,308.11,165.56Z"/><path class="cls-8" d="M258.72,182.41s.19-13-.71-15.15c1-.37,2.28-.81,3.72-1.25C261.63,167.82,260.9,179.41,258.72,182.41Z"/><path d="M256.2,164.05s6.4-4.65,20.51-4.42c0,0,17.38-.42,28.92,3.47,0,0,1.69.05,1.33-1.94,0,0-11.14-3.17-19.14-3.39,0,0-16.3-1-23.43,1.14,0,0-8.57,1.53-9.36,4.76A2.44,2.44,0,0,0,256.2,164.05Z"/><path d="M305.63,163.1a1.93,1.93,0,0,0,1.13-.69l-1.36-.66-1.12-.18-11.73-1.84-.34.65s9.33,1.73,12.86,3.26h0a3.43,3.43,0,0,1,1.22.74s1.1,1,.72,1.8l-1.1-.26c-2.88-.68-10.64-2.48-13.48-2.84,0,0-11.62-1.33-18.45-.63,0,0-7.18.06-18,4.05l-.51.19s-.71-.16-.15-1.17a4,4,0,0,1,.84-1.47h0a2.64,2.64,0,0,0-1.94,2.84s.18,1.35,1.24,1.39c0,0,1-.43,2.54-1,1-.37,2.28-.81,3.72-1.25,1.63-.48,3.48-1,5.43-1.33,1-.19,2.08-.35,3.14-.47.69-.07,1.38-.13,2.06-.16l.28,0c1.64-.17,3.28-.28,4.93-.35,2.05-.09,4.1-.11,6.14-.08.55,0,1.09,0,1.64,0,1.65.05,3.3.16,4.93.35,3,.34,5.92,1.08,8.86,1.68a73.63,73.63,0,0,1,7.3,1.72,1.63,1.63,0,0,0,1.67-1.82A3.43,3.43,0,0,0,305.63,163.1Z"/><circle class="cls-8" cx="279.86" cy="244.11" r="1.66"/><circle class="cls-8" cx="279.68" cy="249.7" r="1.66"/><circle class="cls-8" cx="279.86" cy="255.29" r="1.66"/><path class="cls-7" d="M236.3,279.69a11.87,11.87,0,0,0,1.28,5.91,15.35,15.35,0,0,0,7.5,6.62,18.07,18.07,0,0,0,2.07.72,2.81,2.81,0,0,0,.41,0c1.64-.14,4.49-1.84,4.49-1.84V291c4.29-.47,11.92-2.46,18.07-4.2l1.74-.5c-6.52-12.8-7.93-27.13-7.93-37.12a88.36,88.36,0,0,1,.82-12.7l3.28-1.13a15.68,15.68,0,0,1,.6-2.28c.05-.14.1-.28.16-.42-.9.28-1.93.65-3.05,1.09h0c-.57.23-1.16.47-1.76.74a56,56,0,0,0-5.21,2.59h0A31.44,31.44,0,0,0,250,244C244.38,250.88,236.26,268.81,236.3,279.69Z"/><path class="cls-8" d="M253.46,268.08s1.28-12.75,1.62-15.51S256.69,258,257,262a75.14,75.14,0,0,1-.58,11Z"/><path class="cls-11" d="M262.14,276.19a59.37,59.37,0,0,0-5.89-7.82c-2.9-3.05-4.74-4.82-5.77-4.71s-1.22.8-.73,1.63,4.21,4.79,4.29,5.28-.76.23-1.21-.39-4-4.78-5.37-5.23-2.89-.31-2.61.51a14.75,14.75,0,0,0,3.13,3.82c1.38,1.31,2.27,2.81,2.15,3.07s-1,.11-1.37-.45-2.12-3.71-2.76-3.8a1.16,1.16,0,0,0-1,1.83c.65,1.06,2.32,3.94,2.68,4.29s-.39.35-.74-.21-.9-2.25-1.18-2.1a2.24,2.24,0,0,0-.22,2.09c.34.77.54,2.07,2,2.52a36.11,36.11,0,0,0,4.55.3C254.16,276.78,262.14,276.19,262.14,276.19Z"/><path class="cls-7" d="M266.94,286.64s1.5.52,3.94,1.33l3.13,1,2.34.73,1.14.35.5.16.64.2.65.19.36.11c2.63.8,5.46,1.62,8.32,2.39,2.32.62,4.65,1.21,6.89,1.72h0l1,.22.11,0,.94.2.25.05.71.15.25,0,.83.16.32.05.6.11.27,0,.78.13.3.05.59.08.23,0c.25,0,.49.07.74.09l.25,0,.6.06.16,0,.7.06.21,0,.61,0h.09c.22,0,.43,0,.64,0h.78l.57,0h.14c.18,0,.36,0,.52-.06h0c2-.26,3.63-1.6,5-3.56.28-.4.55-.82.81-1.27,4.16-7.2,5.41-20,5.52-21.28a.87.87,0,0,0,0-.11,47.23,47.23,0,0,0-5-27,9.13,9.13,0,0,0-2.52-2.75,39.54,39.54,0,0,0-7.36-4.45,16.46,16.46,0,0,0-2.08-.81c-1-.31-1.9-.57-2.76-.93-1.56-.65-2.87-1.17-3.7-1.49l-.32-.11-.63-.24-.56,0-1,.06a13.58,13.58,0,0,1,.55,1.7l4.13,1.24a146.84,146.84,0,0,1-3.26,27.57c-.61,2.8-1.34,5.7-2.2,8.61-.25.87-.52,1.74-.8,2.61l-.53.08-.73.11-.71.12c-.59.1-1.12.21-1.63.32,0,2.14,0,4.31,0,6.53l-1.45.36-1.93.47-4,1-9.59,2.33Z"/><path class="cls-11" d="M282,284.35a13.39,13.39,0,0,0,1.83.77h0a7.75,7.75,0,0,0,3.65.41,10.21,10.21,0,0,0,3.14-1.1l.75-.37a15.89,15.89,0,0,1,3.23-1.31,4.43,4.43,0,0,0,.92-.34,9.24,9.24,0,0,0,2.93-2.35,26,26,0,0,0,3.82-6.25s-.57,0-1.55,0a64.72,64.72,0,0,0-8.83.52l-.53.08-.73.11-.71.12c-.58.1-1.12.21-1.63.32-4.3.95-5.91,2.14-5.91,2.14l-.21,4.09Z"/><path class="cls-13" d="M262.51,277l-.37-.84-.64-1a15,15,0,0,0-8,.59c-4.17,1.55-5.86.71-5.86.71s2.88.28,4.17.32S261.66,277.13,262.51,277Z"/><path class="cls-13" d="M282,284.35l.52.25a8.08,8.08,0,0,0,8.1-.17l.75-.37a15.89,15.89,0,0,1,3.23-1.31,5.38,5.38,0,0,0,.92-.34h0a9.38,9.38,0,0,0,2.93-2.35c-1.33.31-3,.69-4.66,1-1.38.29-2.75.55-3.87.71a23,23,0,0,1-6.76-.46c-.35-.06-.68-.13-1-.2Z"/><path class="cls-8" d="M302.25,273.81s3.37-11.55,3.28-16.86c0,0-1.1.86-2.3,4.83s-3.78,12-3.78,12Z"/><path class="cls-8" d="M247.15,292.94c3.2,5.67,26.53-.69,26.53-.69s18,7.19,27.79,7.47,11.6-6.82,11.6-6.82c-1.37,2-3,3.3-5,3.56h0c-.16,0-.34,0-.52.06h-.14l-.57,0h-.78c-.21,0-.42,0-.64,0h-.09l-.61,0-.21,0-.7-.06-.16,0-.6-.06-.25,0c-.25,0-.49-.05-.74-.09l-.23,0-.59-.08-.3-.05-.78-.13-.27,0-.6-.11-.32-.05-.83-.16-.25,0-.71-.15-.25-.05-.94-.2-.11,0-1-.22h0c-2.24-.51-4.57-1.1-6.89-1.72-2.86-.77-5.69-1.59-8.32-2.39l-.36-.11-.65-.19-.64-.2-.5-.16-1.14-.35L274,289l-3.46.74C262.35,291.43,251.12,293.37,247.15,292.94Z"/><path class="cls-7" d="M240,284.77c0,3.16,2.42,5.4,4.41,6.72a16,16,0,0,0,2.71,1.45c4,.43,15.2-1.51,23.4-3.22l2.31-.49L274,289a53.68,53.68,0,0,0,5.78-1.49,4.14,4.14,0,0,0,2.71-2.89,12.49,12.49,0,0,0,.64-3.26c0-.46.06-.93.06-1.38a30.94,30.94,0,0,0-.36-5h-2.1c-2.48.06-5,.16-7.46.28-1.6.09-3.18.17-4.71.27-9.17.58-16.74,1.34-17.48,1.33C250,276.8,240,279.32,240,284.77Z"/><path class="cls-8" d="M272.86,289.23l.82,3c4.07-1,9.52-5.67,9.52-5.67,1.43.53,6.1-.18,7-1a59.12,59.12,0,0,1,5.3-3.19,5.38,5.38,0,0,1-.92.34,15.89,15.89,0,0,0-3.23,1.31l-.75.37a8.08,8.08,0,0,1-8.1.17,4.14,4.14,0,0,1-2.71,2.89A53.68,53.68,0,0,1,274,289Z"/><path class="cls-11" d="M684.77,477.43H682c-7.49,0-24.89,0-25.07,0h0s-1.35-2.85,0-4.25c1.14-1.17,4.4-1,7-2a6.45,6.45,0,0,0,1.32-.64,40.44,40.44,0,0,1,6-2.88c1.13-.46,1.94-.75,1.94-.75h14.71l-.18,3.08S688.91,477.43,684.77,477.43Z"/><path class="cls-12" d="M687.83,466.94l-.18,3.08s1.26,7.41-2.88,7.41H677c-.71-1.45-4.09-8.3-5.84-9.74a1,1,0,0,0-.52-.27c-1.64-.13-6.64,2.45-6.76,3.79h0c-.11,1.19,2.31,5.28,2.88,6.22h-9.84c-1.11,0-.82,2-.82,2H687c2.26,0,2.31-2.91,2.31-2.91v-9.54Z"/><path class="cls-11" d="M701,465.06V475l1.22-.09s1.92-4.87,4-5.34,8.34-.46,9-.47v-4Z"/><path class="cls-12" d="M721.21,477.7c-.16-1-.9-1-.9-1s-.87-.68-1.9-4.14a7.64,7.64,0,0,0-.54-1.38c-1.08-2.09-2.54-2.09-2.54-2.09h-.06a72.17,72.17,0,0,0-9,.47C704.16,470,701,475,701,475h0v-9.92h-.64v10.18c-.52.49-.42,1.61-.32,2.84.12,1.6.89,1.3.89,1.3s18.3.19,19.36,0S721.37,478.73,721.21,477.7Z"/><path class="cls-11" d="M719.29,476.69H704s1.39-3.21,3.89-3.61c0,0,8.71-.92,9.94.46A6.76,6.76,0,0,1,719.29,476.69Z"/><path class="cls-7" d="M788.63,234.48s-1.87,44.93-4.68,59.79l-50-7.82s-8.09-44.89-3.85-59.39Z"/><path class="cls-8" d="M756,295.08s-8.18-.49-10.7-6c0,0-9.74-6.22-9.26-12,0,0,1.77-2.69,0-6.84,0,0-6.71-22.35-5.39-32a30.34,30.34,0,0,1,1.54-18.57l3.93-7.66h38.3l12.14,23.42,1.56,9.53v4.64l-.29,2.19s-.73,6.36-9.38,17.9c0,0-10,19.11-13.53,23.2A58.3,58.3,0,0,1,756,295.08Z"/><path class="cls-9" d="M764.88,292.94,778,269.74s7.94-13.19,8.48-17.13a58.13,58.13,0,0,0,1-6.1,40.31,40.31,0,0,0-3.91-9.38,14.37,14.37,0,0,1-1.18-1.16c1.16,3.78,2.89,12.71-2,23.69L770.2,281Z"/><path class="cls-10" d="M734.44,217.86s-1.9,55.24,23.69,69c0,0,27.37-34.11,25.16-54.25Z"/><path class="cls-14" d="M737.15,242.72c-5.18-3.3-4.48-10.69-3.19-13a3.42,3.42,0,0,1,4-1.77A122.06,122.06,0,0,0,737.15,242.72Z"/><path class="cls-7" d="M790.82,359.9H727c.26-3.73.52-7.19.78-10.33,4.73-34.57,9.29-64.88,9.74-67.81l0-.16a.45.45,0,0,0,0-.08l14.94-5.63v-12.2l11.89-1.07.16,12.5,5.68,2,0,0,1.39.57c2.83,1.16,9.46,3.83,16.1,6.25l.93,1.1-2.6,5.6c.22,3,.49,6.65.78,10.84,0,.15,0,.3,0,.45s0,.41,0,.62c.06.85.12,1.72.19,2.6.07,1,.15,2.11.23,3.21.88,12.45,2,28.37,3.07,45.91Q790.65,357.06,790.82,359.9Z"/><polygon class="cls-13" points="764.58 275.12 758.3 286.72 752.53 275.88 752.53 263.69 764.42 262.62 764.58 275.12"/><path class="cls-21" d="M735.37,216.84c0,.23,0,.46,0,.69s.05.41.08.61a12.93,12.93,0,0,0,2.46,5.51c.26.34.43.53.43.53s-.16,1-.36,2.75c0,.31-.07.65-.11,1-.19,1.67-.39,3.81-.54,6.19-.17,2.65-.28,5.6-.23,8.59.14,8.83,1.64,17.93,6.92,20C755,267,778,268.92,779.18,250.93c.11-1.72.27-3.41.45-5.08.44-3.93,1-7.69,1.67-11.22.12-.69.24-1.38.37-2,.29-1.64.58-3.21.84-4.73a77.29,77.29,0,0,0,1.28-10,23.47,23.47,0,0,0,0-2.39,13.74,13.74,0,0,0-.43-2.64c0-.16-.09-.32-.14-.48l0-.09a7.7,7.7,0,0,0-.49-1.13l-.08-.16a15.79,15.79,0,0,1-1.05-2.43l-.21-.66c-.11-.35-.2-.69-.28-1s-.2-.82-.28-1.23c-.14-.65-.26-1.29-.38-1.91l-.09-.46c-.14-.22-.29-.45-.44-.66a26.78,26.78,0,0,0-12.13-7.42l-.16,0a36.84,36.84,0,0,0-6.8-.9l-.33,0H760c-4.73.11-15.46,1.27-20.27,9.06l-.31.53-.18.33-.66,1.68-.47,1.2c-.14.37-.3.77-.46,1.2-.1.25-.2.52-.3.79h0c-.1.28-.21.56-.32.85a6.54,6.54,0,0,0,1.15.93,4.19,4.19,0,0,0,.37.22,6.17,6.17,0,0,0-1.87,1.73A6.55,6.55,0,0,0,735.37,216.84Z"/><path class="cls-22" d="M779.3,226.91s-2,17.55-7.3,17.7-13.1-7.05-19.47-2.88-12.4.43-12.64-9.64-.34-19.85,6.73-25.75l5.44-3.6s7.83,12.52,18.32,7.91C770.38,210.65,772.46,222.45,779.3,226.91Z"/><path class="cls-11" d="M779.63,245.85c.74-6.58,2-12.68,2.88-18a3.75,3.75,0,0,1,3.77,2.08C787.94,232.93,788.73,243.45,779.63,245.85Z"/><ellipse class="cls-23" cx="747.57" cy="235.27" rx="7.01" ry="7.54"/><path class="cls-12" d="M751.82,230.58c0,1.55-.8,2.8-1.8,2.8s-1.79-1.25-1.79-2.8.8-2.79,1.79-2.79S751.82,229,751.82,230.58Z"/><path class="cls-13" d="M758,227.63a.43.43,0,0,0,0,.05,1,1,0,0,0,.15.55c.66,1.27,1.49,2.59,1.28,4s-1.21,2.3-1.61,3.52a3.7,3.7,0,0,0,.05,2.37c.11.31.95,2,1.43,1a.74.74,0,0,0-.12-.71c-.13-.22-.32-.41-.44-.63a1.84,1.84,0,0,1,.1-1.73c.27-.54.69-1,1-1.57a5.14,5.14,0,0,0,.5-3.5,8.82,8.82,0,0,0-1.49-3.33.64.64,0,0,0-.39-.31A.44.44,0,0,0,758,227.63Z"/><ellipse class="cls-24" cx="770.28" cy="236.38" rx="6.8" ry="7.54"/><path class="cls-12" d="M753.73,221.73c-1.2.47-2.44-.32-3.65-.12a5.2,5.2,0,0,0-3.28,2c-.42.55-.93,1.26-1.54,1a1.06,1.06,0,0,1-.61-.95,2.61,2.61,0,0,1,.28-1.2,5.63,5.63,0,0,1,3.74-3,10,10,0,0,1,4.65.15,1.32,1.32,0,0,1,1.06.72,1.08,1.08,0,0,1-.63,1.29Z"/><path class="cls-12" d="M764.17,221.73c1.2.47,2.43-.32,3.65-.12a5.25,5.25,0,0,1,3.28,2c.41.55.92,1.26,1.54,1a1.06,1.06,0,0,0,.6-.95,2.39,2.39,0,0,0-.28-1.2,5.59,5.59,0,0,0-3.73-3,10,10,0,0,0-4.65.15,1.35,1.35,0,0,0-1.07.72,1.1,1.1,0,0,0,.63,1.29Z"/><ellipse class="cls-12" cx="767.87" cy="230.58" rx="1.8" ry="2.8"/><path class="cls-7" d="M732.15,219.72l.05-.09a4.25,4.25,0,0,1,1.66-1.49,3.89,3.89,0,0,1,.68-.32,6.48,6.48,0,0,1,.88-.29,12.16,12.16,0,0,1,5.47.09s7.21,3.21,9.83,2.11c0,0,4.24-2.38,5.77-5.31a4.49,4.49,0,0,1,5.26-.12,7.85,7.85,0,0,1,2.23,2.88s1.12,1.4,3,0a6.46,6.46,0,0,0,1-1,1.77,1.77,0,0,1,1.27-.22,4,4,0,0,1,1.71.77,2.55,2.55,0,0,0,2.68-1.07l0,0s2.44-1.93,3.16,3.84A32.27,32.27,0,0,0,780,232.58c.29.53.6,1,.93,1.55.11.17.23.34.35.5a13.54,13.54,0,0,0,1.07,1.33h0a14.37,14.37,0,0,0,1.18,1.16,40.79,40.79,0,0,1,3.91,9.38,12.6,12.6,0,0,1,.33,5.33c.2-.81,3.56-15.37-1.18-28.54l-3.08-9.88-.2-.63-.18-.57-.16-.52-.87-2.81-.77-2.45-.78-2.51-.27-.87s-.15-.19-.45-.51a26.78,26.78,0,0,0-12.13-7.42l-.16,0a25.31,25.31,0,0,0-6.8-.9h-.13l-.2,0h-.37c-.4,0-1,0-1.73,0h0c-4.74.11-15.46,1.27-20.27,9.06l-.31.53-.18.33s-.26.64-.67,1.68c-.13.35-.29.76-.46,1.2s-.3.77-.46,1.2c-.1.25-.2.52-.3.79h0c-.1.28-.21.56-.32.85-.16.44-.33.9-.49,1.36-.1.26-.19.52-.29.79l-.22.61A71,71,0,0,0,732.15,219.72Zm37.06-10.23,2.88-.16.15.62-.55-.1-.66-.11-.37-.06-.38-.05Zm-7-.52.06-.74,4.69.51v.56l-.59-.05-.49-.05-.4,0-.58,0-.54,0h-.11l-.52,0-.41,0-.42,0h-.16Z"/><path class="cls-20" d="M732.73,210.8a1.56,1.56,0,0,0,1.61,1.75l.8-.24c2.05-.58,4.16-1,6.24-1.43,2.84-.57,5.67-1.29,8.55-1.62l1.63-.16.35,0,.4,0,.59,0,.53,0h.1c.65,0,1.3-.06,2-.08h.79c1.07,0,2.15,0,3.23,0h1.09l.53,0,1.08,0,.53,0h.16l.42,0,.41,0,.51,0h.12l.54,0,.59,0,.39,0,.49.05.59.05H767l.21,0,.39,0,.32,0h.36l.41,0,.51.05,1.07.14.38.05.37.06.66.11.55.1.35.06,1,.21c1.39.3,2.71.66,3.9,1l.08,0,1.16.36.55.18.27.09.25.09.5.17.35.12.11,0,.32.12h0l.61.23.08,0,.18.07.09,0,.06,0,.21.08.47.19h0l.12.05.06,0,.12,0,.07,0,.11,0,.05,0,.14.06h0l0,0h0c1,0,1.19-1.34,1.19-1.34a2.52,2.52,0,0,0-1.87-2.74h0L784,209h0c1.13-.91,0-3.06,0-3.06a2.39,2.39,0,0,0-.41-.45,10.78,10.78,0,0,0-3-1.52c-.86-.32-1.53-.5-1.53-.5-6.63-2.61-19.84-2.61-19.84-2.61-8-.14-20.43,2.61-20.43,2.61l-.82.24-.22.07c-3.72,1.22-3.65,2.11-3.65,2.11a2.58,2.58,0,0,0-.29,1.17,1.35,1.35,0,0,0,.24.73,1.83,1.83,0,0,0,1.08.67h0A3.3,3.3,0,0,0,732.73,210.8Z"/><path d="M782.82,209.33s-6.17-4.48-19.79-4.26c0,0-16.77-.4-27.91,3.35,0,0-1.63.05-1.28-1.88,0,0,10.75-3,18.47-3.27,0,0,15.72-1,22.61,1.1,0,0,8.27,1.48,9,4.6A2.27,2.27,0,0,1,782.82,209.33Z"/><path class="cls-8" d="M769.21,209.49v6.45a4,4,0,0,1,1.71.77,2.55,2.55,0,0,0,2.68-1.07L772.24,210C771.26,209.76,770.24,209.61,769.21,209.49Z"/><path class="cls-8" d="M761.74,214.3a7.72,7.72,0,0,1,2.24,2.89s1.12,1.39,3-.05v-7.83c-1.57-.17-3.16-.28-4.75-.34Z"/><path class="cls-8" d="M732.15,219.72l.05-.09,3.24-5.72c3-2.1,12.48-3.11,12.48-3.11,3.06,1.21,1,8.82.87,9.1l5.9-11c-1.59,0-3.18.15-4.76.34-2.88.32-5.71,1-8.55,1.61-2.35.48-4.74,1-7,1.67A71,71,0,0,0,732.15,219.72Z"/><path d="M735.12,208.42a1.89,1.89,0,0,1-1.09-.67l1.31-.64,1.08-.16,11.32-1.78.33.63s-9,1.66-12.41,3.14h0a3.29,3.29,0,0,0-1.17.71s-1.06.95-.7,1.74l1.06-.25c2.78-.65,10.27-2.39,13-2.74,0,0,11.22-1.28,17.8-.61,0,0,6.93.06,17.33,3.91l.49.18s.7-.15.16-1.13c0,0-.4-1.15-.82-1.42h0a2.54,2.54,0,0,1,1.87,2.75s-.17,1.3-1.19,1.34c0,0-.92-.42-2.45-1-1-.36-2.2-.78-3.59-1.2a50.55,50.55,0,0,0-5.25-1.28c-1-.19-2-.34-3-.46-.66-.07-1.32-.13-2-.16l-.27,0c-1.57-.17-3.16-.28-4.75-.34-2-.09-4-.11-5.93-.08l-1.58,0c-1.59,0-3.18.15-4.76.34-2.88.32-5.71,1-8.55,1.61-2.35.48-4.74,1-7,1.67a1.56,1.56,0,0,1-1.61-1.75A3.3,3.3,0,0,1,735.12,208.42Z"/><path class="cls-8" d="M780.39,227.06s-.19-12.52.69-14.63c-1-.36-2.2-.78-3.59-1.2C777.58,213,778.29,224.16,780.39,227.06Z"/><path class="cls-7" d="M767.89,276.32a8.29,8.29,0,0,1-.19,1.23l-9.38,10.68-10.2-10.68s-1.2-5,1.88-5.87,6.4-1.25,6.92.57,1,3.3,1,3.3.47-1.48,1-3.3,3.84-1.48,6.92-.57C767.92,272.3,768,274.78,767.89,276.32Z"/><path class="cls-8" d="M754.22,280.18s-1.24,17.33-.7,21.42,7.08,3.53,7.3,0,0-18.32.56-22Z"/><path class="cls-7" d="M755.18,280.1s-1.35,17.86-.62,20.71,2.51,2.67,3.59,2.33,1.82-.63,1.71-3.13.32-18.66.5-20.34Z"/><path class="cls-8" d="M748.12,277.55s12.14,4.38,19.78-1.28l1.67.58a25.85,25.85,0,0,1-11.66,3.66,25.19,25.19,0,0,1-11.18-2.44Z"/><circle class="cls-8" cx="757.46" cy="283.76" r="1.6" transform="translate(-44.93 181.62) rotate(-13.28)"/><path class="cls-8" d="M758.87,289.15a1.61,1.61,0,1,1-1.61-1.6A1.61,1.61,0,0,1,758.87,289.15Z"/><path class="cls-8" d="M758.69,294.54a1.61,1.61,0,1,1-1.61-1.6A1.61,1.61,0,0,1,758.69,294.54Z"/><path class="cls-8" d="M758.87,299.94a1.61,1.61,0,1,1-1.61-1.61A1.61,1.61,0,0,1,758.87,299.94Z"/><path class="cls-8" d="M791,371.33c-.85,5.84-3.6,12-11.17,13.38a.93.93,0,0,1-.23,0l-31.23-.18h-6.17l-.85,0-1.63.08c-.43.05-.85.1-1.23.17-4.26.8-5.8,3.21-5.8,3.21-7,11.3-10.9,65.29-11.08,67.82,0,.06-1.42,12.54-1.42,12.54H655.1l13.74-86.79c.36-3.3.71-6.81,1.39-10.23,1.66-8.41,5.27-16.3,15.56-19.26l41.38-6.1h62.58l1.07,13.93A38.59,38.59,0,0,1,791,371.33Z"/><path class="cls-25" d="M790.86,360.09l0-.07v-.12l-.43-5.65h0l-.64-8.27a254.43,254.43,0,0,0-31.93,0H727.17l-41.38,6.1c-10.29,3-13.9,10.85-15.56,19.26h42.44c-4.8,22.1-14.67,72.57-19.14,97h26.69s1.42-12.48,1.42-12.54c.18-2.53,4.13-56.52,11.08-67.82,0,0,1.54-2.41,5.8-3.21.38-.07.8-.12,1.23-.17l1.63-.08.85,0h6.17l31.23.18a.93.93,0,0,0,.23,0C794.24,382.1,791.22,362.21,790.86,360.09Z"/><path class="cls-13" d="M769.07,261.79v0Z"/><path class="cls-13" d="M752.12,269.44v0s0,0,0,0Z"/><polygon class="cls-7" points="787.09 289.63 787.09 289.64 787.09 289.63 787.09 289.63"/><polygon class="cls-7" points="804.04 281.98 804.04 281.99 804.04 281.98 804.04 281.98"/><path class="cls-7" d="M785.26,283s7.85.27,13.68,21.65,9.13,34,6.18,35.18-9.48,5.19-12,1.47-6.55-20-6.81-25.51S785.26,283,785.26,283Z"/><path class="cls-7" d="M799.62,333.88H783.81s-1.25-.91-2.76-2.28a22.15,22.15,0,0,1-4.39-5.1l-.17-.31c0-.11-.11-.22-.16-.32s-.09-.23-.14-.34a6.2,6.2,0,0,1-.23-.69,4.24,4.24,0,0,1-.13-.78,12.48,12.48,0,0,1,1.67-6.82,8.83,8.83,0,0,1,.56-.89,4.93,4.93,0,0,1,.71-.29,8,8,0,0,1,6.49.54,7.37,7.37,0,0,1,.89.57l.31.22c1.14.83,2.25,1.65,3.31,2.48a44.68,44.68,0,0,1,6.82,6.27A15.09,15.09,0,0,1,799.62,333.88Z"/><path class="cls-8" d="M783.48,323.1a8.31,8.31,0,0,1-3.19,4,3.14,3.14,0,0,1-1.13.46,2.84,2.84,0,0,1-2.5-1,2,2,0,0,1-.21-.26l-.07-.12-.12-.24a2,2,0,0,1-.11-.21c-.1-.21-.21-.49-.33-.82a10.05,10.05,0,0,1,0-7,4.18,4.18,0,0,1,.7-.72,4.78,4.78,0,0,1,2.27-1.09,4.28,4.28,0,0,1,2.46.34C784.49,317.82,784,321.45,783.48,323.1Z"/><path class="cls-13" d="M779.89,326.12a4.1,4.1,0,0,1-.43.26,3,3,0,0,1-3-.19l-.11-.07a1.88,1.88,0,0,1-.29-.2l.06-.25,0-.14.21-.72,2.05-7.27h0c.26.05,4,.93,4.33,2.63S781.78,324.7,779.89,326.12Z"/><path class="cls-11" d="M778.33,324.79a2.89,2.89,0,0,1-.39.35,4.18,4.18,0,0,1-1.61.73h-.07l-.17,0-.3,0a18.86,18.86,0,0,0-4.06.82,47.49,47.49,0,0,0-4.79,3.75,5.28,5.28,0,0,1-1.81,1,.58.58,0,0,1-.53,0c-.37-.32-.18-1.35.06-1.78s2.81-2.73,3.2-3.19,1.21-1.48,1-1.74-1.82.21-2.57.66-3.52,4.19-4.2,5.16-2.15.94-2.37.5.32-1.29.66-2.12a36.15,36.15,0,0,1,3.4-5,45.91,45.91,0,0,1,4.13-3,39.53,39.53,0,0,0-4.88,2.13,26.81,26.81,0,0,0-2.49,3.42,11.12,11.12,0,0,1-1.17,2.78,1.52,1.52,0,0,1-1.66,0c-.36-.22,0-2.44.09-2.64a4.14,4.14,0,0,1-.73,1,2.28,2.28,0,0,1-1.77.86c-.55,0-.49-1.13-.39-1.8s3-5.42,3.31-6,6-3.06,6.93-3.35,8.77-.34,11.33-.27l.59,0,.41.06a5,5,0,0,1,1,.3h0a11.16,11.16,0,0,1,2,1.11C781.94,320.65,778.33,324.79,778.33,324.79Z"/><path class="cls-8" d="M785.26,316.6l1-19.59s1.3-.1,2.22,6.71,1.26,16.15,1.26,16.15Z"/><path class="cls-7" d="M737.59,281.52s-6.6,5-9.66,16.18-9.46,36.3-9.46,36.3l14.68-.12Z"/><path class="cls-8" d="M781.05,331.6H779a40.23,40.23,0,0,1-3.19-4.74,11.31,11.31,0,0,0-3.68.69c-1.13.57-4.44,4-7,4a5.28,5.28,0,0,0,1.81-1,47.49,47.49,0,0,1,4.79-3.75,18.86,18.86,0,0,1,4.06-.82l.3,0a1.88,1.88,0,0,0,.29.2l.07.12a2,2,0,0,0,.21.26A22.15,22.15,0,0,0,781.05,331.6Z"/><path class="cls-13" d="M758,227.7a.11.11,0,0,1,0,.05,1,1,0,0,0,.15.55c.66,1.27,1.5,2.59,1.29,4s-1.22,2.3-1.62,3.52a3.7,3.7,0,0,0,.05,2.37c.11.31.95,2,1.43,1a.77.77,0,0,0-.11-.71c-.14-.22-.33-.41-.45-.63a1.84,1.84,0,0,1,.1-1.73c.27-.54.69-1,1-1.57a5.15,5.15,0,0,0,.51-3.5,9,9,0,0,0-1.5-3.33.61.61,0,0,0-.39-.31A.44.44,0,0,0,758,227.7Z"/><path class="cls-19" d="M755.24,249.17c.07.1.12.2.19.29a2.48,2.48,0,0,0,1.4,1,5.79,5.79,0,0,0,1.66.18,6.81,6.81,0,0,0,1.74-.17,2.94,2.94,0,0,0,1.53-.92c.15-.17.3-.39.51-.42s.51.28.51.59c0,.6-.54.94-.93,1.19a6.51,6.51,0,0,1-1.47.68,6.59,6.59,0,0,1-3.15.19,4.54,4.54,0,0,1-1.57-.59,2.9,2.9,0,0,1-1.13-1.35,1.1,1.1,0,0,1-.09-.51.44.44,0,0,1,.25-.4.41.41,0,0,1,.44.14A.69.69,0,0,1,755.24,249.17Z"/><path class="cls-26" d="M744,333.88H684.52l-13.45-40a2.58,2.58,0,0,1-.19-1,2.36,2.36,0,0,1,2.27-2.43h54.78a2.29,2.29,0,0,1,2.17,1.72Z"/><path class="cls-27" d="M788.49,331.6H744.6l-13.11-39.38a2.3,2.3,0,0,0-2.17-1.72h-1.39a2.29,2.29,0,0,1,2.17,1.72L744,333.88h44.51a.33.33,0,0,0,.31-.34v-1.6A.33.33,0,0,0,788.49,331.6Z"/><rect class="cls-28" x="749.85" y="332.45" width="5.4" height="0.8" rx="0.4"/><rect class="cls-28" x="758.04" y="332.45" width="5.4" height="0.8" rx="0.4"/><path class="cls-7" d="M565.63,157.23s-2.12,50.83-5.29,67.64l-57-11.52s-8.7-48.11-3.9-64.52Z"/><path class="cls-8" d="M528.7,225.78s-9.25-.55-12.11-6.77c0,0-11-7-10.47-13.54,0,0,2-3,0-7.73,0,0-7.6-25.28-6.1-36.2a34.3,34.3,0,0,1,1.74-21l4.45-8.67h43.32l13.74,26.5L565,169.14v5.25l-.33,2.48s-.82,7.19-10.62,20.25c0,0-11.35,21.61-15.3,26.24A65.06,65.06,0,0,1,528.7,225.78Z"/><path class="cls-9" d="M538.76,223.36l14.79-26.24s9-14.92,9.59-19.38a64.68,64.68,0,0,0,1.16-6.9,45.78,45.78,0,0,0-4.42-10.61,13.81,13.81,0,0,1-1.33-1.32c1.32,4.28,3.27,14.38-2.24,26.81l-11.53,24.14Z"/><path class="cls-10" d="M504.33,138.43s-2.15,62.49,26.8,78c0,0,31-38.59,28.46-61.38Z"/><path class="cls-14" d="M557.21,166.55c5.85-3.72,5.06-12.09,3.6-14.72a3.87,3.87,0,0,0-4.47-2A138.9,138.9,0,0,1,557.21,166.55Z"/><path class="cls-11" d="M540.16,481.65h3.12c8.47,0,28.15.05,28.35,0h0s1.53-3.22,0-4.8c-1.29-1.33-5-1.16-7.87-2.23a6.87,6.87,0,0,1-1.49-.73,45.62,45.62,0,0,0-6.75-3.25c-1.28-.52-2.19-.86-2.19-.86H536.69l.2,3.49S535.47,481.66,540.16,481.65Z"/><path class="cls-12" d="M536.69,469.78l.2,3.49s-1.42,8.39,3.27,8.38h8.76c.8-1.64,4.63-9.38,6.6-11a1.21,1.21,0,0,1,.59-.31c1.85-.14,7.52,2.78,7.65,4.29h0c.12,1.35-2.61,6-3.26,7h11.13c1.25,0,.93,2.22.93,2.22h-35c-2.56,0-2.62-3.29-2.62-3.29v-10.8Z"/><path class="cls-11" d="M521.77,467.66v11.23l-1.38-.11s-2.18-5.51-4.5-6-9.43-.53-10.24-.54v-4.55Z"/><path class="cls-12" d="M498.93,482c.18-1.16,1-1.14,1-1.14s1-.77,2.14-4.68a10.07,10.07,0,0,1,.62-1.57c1.22-2.35,2.87-2.35,2.87-2.35h.07c.81,0,8.05,0,10.24.53s5.88,6.14,5.88,6.14h0V467.66h.73v11.52c.58.56.47,1.82.36,3.21-.14,1.81-1,1.48-1,1.48s-20.7.21-21.9,0S498.75,483.13,498.93,482Z"/><path class="cls-11" d="M501.1,480.82h17.33s-1.58-3.63-4.39-4.08c0,0-9.86-1-11.25.52A7.69,7.69,0,0,0,501.1,480.82Z"/><path class="cls-7" d="M490.79,470c42.79,12.2,85.46,0,85.46,0V437.21c-.14-7.94-.57-17.57-1.2-28.2-.93-30.28-2.55-68-5.4-104,0-.45-.07-.9-.1-1.34l-.18-2.23q-.5-6.06-1-12c-.09-1-.18-1.95-.28-2.93q-.59-6.39-1.25-12.61c-2.62-24.66-6-47-10.22-63.46l-16.9-6.38V190.27l-13.45-1.21-.18,14.15L500.53,212s-3,20.2-5.83,56.06q-.07,1-.15,2s0,0,0,0q-.44,5.67-.86,11.85c0,.5-.07,1-.1,1.53-1.15,17.22-2.17,37.23-2.8,59.66C488.5,424.71,490.79,470,490.79,470Z"/><polygon class="cls-13" points="526.18 203.21 533.28 216.32 539.8 204.07 539.8 190.27 526.35 189.06 526.18 203.21"/><path class="cls-21" d="M504.45,138.38a86.13,86.13,0,0,0,1.44,11.36c1.05,6,2.43,12.91,3.26,20.35q.32,2.83.51,5.76c1.31,20.34,27.4,18.22,39.72,13.34,6-2.36,7.66-12.64,7.83-22.64,0-3.37-.07-6.72-.26-9.71-.17-2.7-.4-5.12-.61-7-.05-.4-.09-.78-.13-1.14-.23-1.95-.4-3.11-.4-3.11s.19-.21.48-.6a14,14,0,0,0,2.93-7.71,7.46,7.46,0,0,0-1.43-4.71,7,7,0,0,0-2.12-1.95,4,4,0,0,0,.43-.25,8,8,0,0,0,2.16-2.07h0a9.34,9.34,0,0,0,.92-1.61,9.82,9.82,0,0,0,.68-2.29,11.93,11.93,0,0,0-3.36-1.71l-.3-1a29.77,29.77,0,0,0-22.25-10s-18.46-1.28-25.56,10.22c0,.18-.07.35-.1.52-.14.71-.27,1.43-.42,2.16-.1.46-.2.92-.32,1.39s-.2.77-.32,1.17l-.24.75a20,20,0,0,1-1.18,2.75l-.1.17a8.66,8.66,0,0,0-.59,1.39,14.13,14.13,0,0,0-.65,3.53A26.44,26.44,0,0,0,504.45,138.38Z"/><path class="cls-29" d="M509.53,148.67s2.22,19.85,8.26,20,14.81-8,22-3.26,14,.49,14.29-10.9.39-22.46-7.6-29.13l-6.16-4.07s-8.86,14.16-20.72,9C519.62,130.28,517.26,143.62,509.53,148.67Z"/><path class="cls-11" d="M509.15,170.09c-.83-7.44-2.21-14.34-3.26-20.35a4.22,4.22,0,0,0-4.27,2.35C499.75,155.47,498.85,167.38,509.15,170.09Z"/><ellipse class="cls-30" cx="545.41" cy="158.13" rx="7.93" ry="8.53"/><path class="cls-12" d="M540.61,152.83c0,1.74.91,3.16,2,3.16s2-1.42,2-3.16-.92-3.17-2-3.17S540.61,151.08,540.61,152.83Z"/><path class="cls-13" d="M533.62,149.48s0,0,0,.06a1.1,1.1,0,0,1-.17.62c-.74,1.44-1.69,2.93-1.45,4.49s1.37,2.61,1.82,4a4.14,4.14,0,0,1-.05,2.67c-.12.36-1.08,2.32-1.62,1.16a.84.84,0,0,1,.13-.8c.16-.25.37-.46.51-.71a2.08,2.08,0,0,0-.12-2c-.31-.62-.78-1.17-1.12-1.78a5.87,5.87,0,0,1-.57-4,10.18,10.18,0,0,1,1.69-3.76.65.65,0,0,1,.44-.35A.48.48,0,0,1,533.62,149.48Z"/><ellipse class="cls-31" cx="519.73" cy="159.38" rx="7.69" ry="8.53"/><path class="cls-12" d="M520.42,152.83c0,1.74.91,3.16,2,3.16s2-1.42,2-3.16-.91-3.17-2-3.17S520.42,151.08,520.42,152.83Z"/><path class="cls-12" d="M538.43,142.73c1.36.54,2.76-.36,4.13-.14a5.94,5.94,0,0,1,3.71,2.27c.47.63,1.05,1.43,1.74,1.2a1.21,1.21,0,0,0,.69-1.08,2.81,2.81,0,0,0-.32-1.36,6.38,6.38,0,0,0-4.22-3.36,11.33,11.33,0,0,0-5.27.18,1.51,1.51,0,0,0-1.2.8,1.25,1.25,0,0,0,.71,1.47Z"/><path class="cls-12" d="M526.62,142.73c-1.36.54-2.75-.36-4.13-.14a5.94,5.94,0,0,0-3.71,2.27c-.47.63-1,1.43-1.74,1.2a1.19,1.19,0,0,1-.68-1.08,2.8,2.8,0,0,1,.31-1.36,6.4,6.4,0,0,1,4.22-3.36,11.33,11.33,0,0,1,5.27.18,1.48,1.48,0,0,1,1.2.8,1.25,1.25,0,0,1-.71,1.47Z"/><path class="cls-7" d="M501.74,140.54l.06-.11a5.3,5.3,0,0,1,2.65-2.05,12.5,12.5,0,0,1,7.18-.22s8.16,3.63,11.12,2.39c0,0,4.79-2.7,6.52-6,0,0,3-2.32,6-.14a8.83,8.83,0,0,1,2.52,3.27s1.28,1.58,3.37,0a7.36,7.36,0,0,0,1.12-1.12,2,2,0,0,1,1.43-.24,4.49,4.49,0,0,1,1.94.88,2.9,2.9,0,0,0,3-1.21l0-.05s2.75-2.17,3.57,4.35c0,0,.07,9.64,4.72,16.61a17.6,17.6,0,0,0,1.6,2.07h0a13.81,13.81,0,0,0,1.33,1.32,45.78,45.78,0,0,1,4.42,10.61,14.14,14.14,0,0,1,.38,6c.22-.92,4-17.39-1.33-32.28l-3.49-11.18-.61-1.95-1-3.17h0l-.87-2.78-.89-2.83-.3-1a29.77,29.77,0,0,0-22.25-10s-18.46-1.28-25.56,10.22l-.35.6-.2.37s-.29.72-.75,1.9c-.16.41-.34.86-.53,1.36l-.52,1.36c-.11.29-.22.59-.34.89h0c-.29.8-.61,1.63-.92,2.5-.11.29-.21.59-.32.89s-.17.47-.25.7A80.52,80.52,0,0,0,501.74,140.54ZM543.66,129l3.26-.19.17.7-.62-.11-.75-.13-.42-.06-.43-.06C544.47,129.06,544.07,129,543.66,129Zm-7.92-.6h0l.06-.83,5.31.57v.65l-.67-.07-.56-.05-.44,0-.66,0-.62,0H538l-.58,0-.47,0-.47,0h-.17Z"/><path class="cls-20" d="M502.4,130.44a1.78,1.78,0,0,0,1.82,2c.3-.1.6-.19.91-.27,2.32-.66,4.7-1.14,7.06-1.62,3.2-.65,6.41-1.46,9.66-1.83.61-.07,1.23-.13,1.84-.18l.4,0,.45,0,.68,0,.6,0h.11c.73,0,1.46-.06,2.2-.08l.9,0c1.21,0,2.43,0,3.65,0h.4l.83,0,.6,0,1.23,0,.6,0h.17c.16,0,.32,0,.47,0l.47,0,.58,0h.13l.62,0,.66,0,.44,0,.56.05.67.06h.06l.25,0,.43,0c.12,0,.25,0,.37,0h.14l.26,0,.46,0c.2,0,.39,0,.58.06.41,0,.81.09,1.21.15l.43.06.42.06.75.13.62.11.4.08,1.13.23c1.57.34,3.06.74,4.4,1.14l.1,0,1.31.41.63.21.3.1.29.1.55.19.4.14.13,0,.36.13h0l.69.26.1,0,.2.08.1,0,.06,0,.25.1.52.21h0l.13,0a.11.11,0,0,0,.07,0l.14.06.08,0,.11.05.06,0,.16.07h0l.05,0,0,0c1.15,0,1.35-1.52,1.35-1.52a2.87,2.87,0,0,0-2.12-3.1h0l1.28-.41h0c1.27-1,0-3.47,0-3.47a2.42,2.42,0,0,0-.47-.51,11.93,11.93,0,0,0-3.36-1.71c-1-.36-1.73-.58-1.73-.58-7.5-2.95-22.44-2.95-22.44-2.95-9-.15-23.11,2.95-23.11,2.95l-.93.28-.25.08c-4.21,1.38-4.13,2.39-4.13,2.39a2.76,2.76,0,0,0-.32,1.32,1.46,1.46,0,0,0,.27.82,2.13,2.13,0,0,0,1.22.77h0A3.72,3.72,0,0,0,502.4,130.44Z"/><path d="M559.06,128.79s-7-5.08-22.39-4.82c0,0-19-.46-31.57,3.78,0,0-1.84.06-1.45-2.12,0,0,12.16-3.46,20.9-3.7,0,0,17.78-1.1,25.57,1.24,0,0,9.35,1.68,10.22,5.2A2.69,2.69,0,0,1,559.06,128.79Z"/><path class="cls-8" d="M543.66,129v7.29a4.49,4.49,0,0,1,1.94.88,2.88,2.88,0,0,0,3-1.22l-1.53-6.44C546,129.27,544.83,129.1,543.66,129Z"/><path class="cls-8" d="M535.22,134.4a8.73,8.73,0,0,1,2.52,3.27s1.28,1.57,3.37,0v-8.86c-1.78-.19-3.58-.31-5.38-.39Z"/><path class="cls-8" d="M501.74,140.54l.06-.11,3.66-6.47c3.41-2.37,14.12-3.52,14.12-3.52,3.46,1.38,1.07,10,1,10.3l6.68-12.41c-1.8.06-3.6.17-5.39.38-3.25.37-6.46,1.18-9.66,1.83a80.25,80.25,0,0,0-8,1.89A80.52,80.52,0,0,0,501.74,140.54Z"/><path d="M505.1,127.76a2.1,2.1,0,0,1-1.23-.77l1.48-.71,1.22-.19,12.81-2,.37.72s-10.18,1.88-14,3.55h0a3.78,3.78,0,0,0-1.33.8s-1.2,1.07-.78,2l1.19-.28c3.15-.75,11.62-2.71,14.72-3.11,0,0,12.69-1.45,20.14-.69,0,0,7.84.07,19.6,4.42l.56.21s.78-.17.17-1.28a4.37,4.37,0,0,0-.92-1.61h0a2.87,2.87,0,0,1,2.12,3.1s-.2,1.47-1.35,1.52c0,0-1-.47-2.77-1.12-1.1-.41-2.49-.89-4.07-1.36a58,58,0,0,0-5.93-1.45c-1.11-.21-2.26-.38-3.43-.51-.74-.09-1.49-.15-2.25-.19l-.3,0c-1.78-.19-3.58-.31-5.38-.39-2.23-.1-4.48-.12-6.7-.09l-1.79.05c-1.8.06-3.6.17-5.39.38-3.25.37-6.46,1.18-9.66,1.83a80.25,80.25,0,0,0-8,1.89,1.78,1.78,0,0,1-1.82-2A3.72,3.72,0,0,1,505.1,127.76Z"/><path class="cls-8" d="M556.31,148.83s-.21-14.16.78-16.54c-1.1-.41-2.49-.89-4.07-1.36C553.13,132.9,553.93,145.56,556.31,148.83Z"/><path class="cls-7" d="M522.43,204.56a10.35,10.35,0,0,0,.21,1.39L533.26,218,544.79,206s1.36-5.61-2.12-6.64-7.24-1.41-7.83.65-1.12,3.73-1.12,3.73-.53-1.68-1.12-3.73-4.34-1.68-7.83-.65C522.4,200,522.27,202.82,522.43,204.56Z"/><path class="cls-8" d="M537.89,208.93s1.41,19.6.79,24.23-8,4-8.25,0,0-20.72-.64-24.9Z"/><path class="cls-7" d="M536.8,208.84s1.54,20.2.71,23.42-2.84,3-4.06,2.64-2.06-.71-1.93-3.54-.37-21.11-.57-23Z"/><path class="cls-8" d="M544.79,206s-13.73,5-22.37-1.45l-1.89.66s6.18,4,13.19,4.14a28.34,28.34,0,0,0,12.64-2.76Z"/><path class="cls-8" d="M532.41,213a1.82,1.82,0,1,0,1.81-1.82A1.81,1.81,0,0,0,532.41,213Z"/><path class="cls-8" d="M532.64,219.08a1.82,1.82,0,1,0,1.82-1.82A1.81,1.81,0,0,0,532.64,219.08Z"/><circle class="cls-8" cx="534.66" cy="225.18" r="1.82"/><path class="cls-8" d="M532.64,231.28a1.82,1.82,0,1,0,1.82-1.82A1.81,1.81,0,0,0,532.64,231.28Z"/><path class="cls-32" d="M527.87,176h0c.07.09.13.19.2.29l.07.11.06.09a6.55,6.55,0,0,0,3.49,2.84,4.78,4.78,0,0,0,4-1c.19-.15.38-.32.56-.49a7.6,7.6,0,0,0,.84-1l0,0,.06-.08a11.84,11.84,0,0,0,1.14-1.95c0-.08.07-.16.1-.23a1.9,1.9,0,0,0,.17-.65.89.89,0,0,0,0-.36.74.74,0,0,0-.17-.33,1.55,1.55,0,0,0-.92-.48l-.53-.06a66.62,66.62,0,0,0-7.61,0,2.75,2.75,0,0,0-1.74.59,1.24,1.24,0,0,0-.37.65,1.15,1.15,0,0,0,0,.38,1.88,1.88,0,0,0,0,.31A4,4,0,0,0,527.87,176Z"/><path class="cls-19" d="M528.07,176.32l.07.11.06.09a6.55,6.55,0,0,0,3.49,2.84,4.78,4.78,0,0,0,4-1c.19-.15.38-.32.56-.49a6.41,6.41,0,0,0-4.14-2.08A7,7,0,0,0,528.07,176.32Z"/><path class="cls-5" d="M527.59,173.28a1.09,1.09,0,0,0,1.12.71c1.48-.14,6.16-.54,8.2-.07a1.36,1.36,0,0,0,1.48-.66,1.55,1.55,0,0,0-.92-.48l-.53-.06a66.62,66.62,0,0,0-7.61,0A2.75,2.75,0,0,0,527.59,173.28Z"/><path class="cls-7" d="M556.64,210.4s5.43,1.4,8.65,8.85,6.79,22.22,6.67,22-11.59,1.06-11.59,1.06Z"/><path class="cls-5" d="M529.82,287v9.62c.76.92,1.59,1.85,2.39,2.69H607.7V287Z"/><path class="cls-5" d="M529.83,298.8s0,0,0,0v.49h0Z"/><rect class="cls-11" x="528.25" y="284.75" width="79.46" height="2.2" transform="translate(1135.95 571.71) rotate(-180)"/><rect class="cls-11" x="528.25" y="299.27" width="79.46" height="2.2"/><rect class="cls-11" x="560.32" y="284.75" width="2.54" height="16.72"/><rect class="cls-33" x="562.86" y="284.75" width="51.65" height="16.72"/><rect class="cls-34" x="529.82" y="286.95" width="30.5" height="1.52" transform="translate(1090.14 575.43) rotate(-180)"/><path class="cls-5" d="M569.07,293.11a4.35,4.35,0,1,0,3.63-4.3A4.36,4.36,0,0,0,569.07,293.11Z"/><path class="cls-11" d="M569.86,293.11a3.59,3.59,0,0,0,3,3.53,3.81,3.81,0,0,0,.59.05,3.58,3.58,0,1,0,0-7.15,3.81,3.81,0,0,0-.59,0A3.59,3.59,0,0,0,569.86,293.11Z"/><path class="cls-35" d="M569.86,293.11a3,3,0,1,0,3-3.53A3.59,3.59,0,0,0,569.86,293.11Z"/><rect class="cls-5" x="592.13" y="289.77" width="17.92" height="6.68" transform="translate(1202.17 586.22) rotate(-180)"/><rect class="cls-35" x="606.79" y="289.77" width="3.26" height="6.68" transform="translate(1216.83 586.22) rotate(-180)"/><rect class="cls-5" x="518.99" y="270.23" width="77.88" height="12.31" transform="translate(1115.87 552.78) rotate(-180)"/><rect class="cls-36" x="517.42" y="268.03" width="79.46" height="2.2" transform="translate(1114.3 538.26) rotate(-180)"/><rect class="cls-36" x="517.42" y="282.54" width="79.46" height="2.2" transform="translate(1114.3 567.29) rotate(-180)"/><rect class="cls-36" x="542.4" y="275.12" width="16.72" height="2.54" transform="translate(827.15 -274.37) rotate(90)"/><rect class="cls-37" x="552.03" y="268.03" width="51.65" height="16.72" transform="translate(1155.71 552.78) rotate(-180)"/><rect class="cls-34" x="518.99" y="270.23" width="30.5" height="1.52" transform="translate(1068.49 541.98) rotate(-180)"/><path class="cls-5" d="M558.24,276.39a4.36,4.36,0,1,0,3.64-4.3A4.37,4.37,0,0,0,558.24,276.39Z"/><path class="cls-36" d="M559,276.39a3.57,3.57,0,0,0,3,3.52,3,3,0,0,0,.6,0,3.58,3.58,0,0,0,0-7.15,3.94,3.94,0,0,0-.6.05A3.59,3.59,0,0,0,559,276.39Z"/><path class="cls-35" d="M559,276.39a3,3,0,1,0,3-3.53A3.57,3.57,0,0,0,559,276.39Z"/><rect class="cls-5" x="581.3" y="273.05" width="17.92" height="6.68" transform="translate(1180.52 552.78) rotate(-180)"/><rect class="cls-35" x="595.96" y="273.05" width="3.26" height="6.68" transform="translate(1195.18 552.78) rotate(-180)"/><rect class="cls-5" x="527.52" y="253.51" width="77.88" height="12.31" transform="translate(1132.91 519.33) rotate(-180)"/><rect class="cls-11" x="525.94" y="251.31" width="79.46" height="2.2" transform="translate(1131.34 504.82) rotate(-180)"/><rect class="cls-11" x="525.94" y="265.82" width="79.46" height="2.2" transform="translate(1131.34 533.85) rotate(-180)"/><rect class="cls-11" x="550.92" y="258.4" width="16.72" height="2.54" transform="translate(818.95 -299.62) rotate(90)"/><rect class="cls-38" x="560.55" y="251.31" width="51.65" height="16.72" transform="translate(1172.75 519.33) rotate(-180)"/><rect class="cls-34" x="527.52" y="253.51" width="30.5" height="1.52" transform="translate(1085.53 508.54) rotate(-180)"/><path class="cls-5" d="M566.77,259.67a4.36,4.36,0,1,0,4.36-4.37,5.83,5.83,0,0,0-.73.06A4.37,4.37,0,0,0,566.77,259.67Z"/><path class="cls-11" d="M567.55,259.67a3.57,3.57,0,0,0,3,3.52,3.94,3.94,0,0,0,.6.05,3.58,3.58,0,0,0,0-7.15,3.94,3.94,0,0,0-.6.05A3.59,3.59,0,0,0,567.55,259.67Z"/><path class="cls-35" d="M567.55,259.67a3,3,0,1,0,3-3.53A3.57,3.57,0,0,0,567.55,259.67Z"/><rect class="cls-5" x="589.82" y="256.33" width="17.92" height="6.68" transform="translate(1197.56 519.33) rotate(-180)"/><rect class="cls-35" x="604.48" y="256.33" width="3.26" height="6.68" transform="translate(1212.22 519.33) rotate(-180)"/><rect class="cls-5" x="523.43" y="236.79" width="77.88" height="12.31" transform="translate(1124.75 485.9) rotate(-180)"/><rect class="cls-39" x="521.86" y="234.59" width="79.46" height="2.2" transform="translate(1123.17 471.38) rotate(-180)"/><rect class="cls-39" x="521.86" y="249.1" width="79.46" height="2.2" transform="translate(1123.17 500.41) rotate(-180)"/><rect class="cls-39" x="546.84" y="241.68" width="16.72" height="2.54" transform="translate(798.15 -312.25) rotate(90)"/><rect class="cls-40" x="556.47" y="234.59" width="51.66" height="16.72"/><rect class="cls-34" x="523.43" y="236.79" width="30.5" height="1.52" transform="translate(1077.37 475.1) rotate(-180)"/><path class="cls-5" d="M562.68,243a4.36,4.36,0,0,0,3.63,4.3,4.44,4.44,0,0,0,.74.06,4.36,4.36,0,1,0,0-8.72,4.44,4.44,0,0,0-.74.06A4.36,4.36,0,0,0,562.68,243Z"/><path class="cls-39" d="M563.47,243a3.57,3.57,0,0,0,3,3.52,2.92,2.92,0,0,0,.6.05,3.58,3.58,0,0,0,0-7.15,3.83,3.83,0,0,0-.6,0A3.59,3.59,0,0,0,563.47,243Z"/><path class="cls-35" d="M563.47,243a3,3,0,1,0,3-3.53A3.57,3.57,0,0,0,563.47,243Z"/><rect class="cls-5" x="585.74" y="239.61" width="17.92" height="6.68" transform="translate(1189.4 485.9) rotate(-180)"/><rect class="cls-35" x="600.4" y="239.61" width="3.26" height="6.68" transform="translate(1204.05 485.9) rotate(-180)"/><path class="cls-11" d="M502.66,272.19c1.29,2.28,9.1,7.32,14.76,10.73,1.14.69,2.19,1.31,3.08,1.83l.89.51c1.05.61,1.77,1,2,1.1l.19.1a8.61,8.61,0,0,1,1.91,1.5,18.56,18.56,0,0,0,2.78,6.58c.45.63,1,1.32,1.57,2v0c.76.92,1.59,1.85,2.39,2.69s1.63,1.65,2.27,2.2a5.17,5.17,0,0,0,1.16.82,9.24,9.24,0,0,0,2.33.46,7,7,0,0,0,1.62.11c.62.26,3.68-.09,4.3.09a13.63,13.63,0,0,0,3.64.17c1-.12.68-1.44.62-1.65a0,0,0,0,0,0,0,17.78,17.78,0,0,1-3.43-1.3,9.46,9.46,0,0,1-.92-.87,47.75,47.75,0,0,1-4.73-5.76,47,47,0,0,1-2.63-5,2.88,2.88,0,0,1-.27-.81c0-.56,2.65-.31,3.59.08l.09,0a10.87,10.87,0,0,0,2.11.7l.68.13a3.59,3.59,0,0,0,1.92-.13,2.25,2.25,0,0,0,1.28-1.49h0s0,0,0,0c.08-.25.14-.49.2-.73.19-.73-.83-1-2.57-1.48h0a33.53,33.53,0,0,1-4.11-1.38l-1.89-.82a52.24,52.24,0,0,0-7-2.8,5,5,0,0,0-.68-.11,3.3,3.3,0,0,0-2.7,1.36s-.61-.41-2.13-1.23c-.7-.38-1.59-.84-2.7-1.39a14.5,14.5,0,0,1-3.29-2.7,108.88,108.88,0,0,1-7.39-8.63l-1.41-1.85c-4.77-1.86-8.08-.16-8.62.14l-.07.05A10,10,0,0,0,502.66,272.19Z"/><path class="cls-7" d="M488.59,255.67v0a12.06,12.06,0,0,0,1.9,6.68c2.39,3.29,4.87,6.65,7.53,9.91a80.48,80.48,0,0,0,15.62,15.3,8.65,8.65,0,0,0,3.4,1.7,1.92,1.92,0,0,0,1.22-.22c1.25-.63,2.26-2.4,2.88-3.4.08-.14.16-.28.25-.41l.33-.51c.32-.5.64-1,1-1.5l.45-.7c.06-.09.12-.19.18-.27a.6.6,0,0,1,.06-.11l.06-.07.25-.37.09-.13c.15-.2.3-.44.47-.68l.19-.27a1.19,1.19,0,0,1,.09-.15l.18-.28c.1-.15.19-.3.28-.45a10,10,0,0,0,1-2.13,1.24,1.24,0,0,0,0-.16l0-.16a.77.77,0,0,0,0-.15,1,1,0,0,0-.17-.78,36.21,36.21,0,0,0-5-4.64l-1.82-1.49,0,0c-.58-.48-1.14-1-1.68-1.45l-.19-.18-.8-.73c-1.91-1.79-3.79-3.62-5.57-5.55-2.09-2.23-4.47-4.68-5.47-7.63a8.93,8.93,0,0,1-.45-2.3v0a38.69,38.69,0,0,1,.21-5.39c.13-2.28.27-4.55.4-6.83.16-3,.3-6,.31-9V231c0-2.07,0-4.15-.18-6.21a32.6,32.6,0,0,0-1.46-8.56,10.57,10.57,0,0,0-1.45-2.91c-.25-.33-1.56-1.91-2.07-1.7,0,0-2,.57-4.22,3.47a23.74,23.74,0,0,0-4.6,9.53,50.18,50.18,0,0,0-1,5.33,146.78,146.78,0,0,0-2.11,19.5C488.66,251.41,488.49,253.57,488.59,255.67Z"/><path class="cls-8" d="M528.26,301.5v2.2h6.25a5.41,5.41,0,0,0,1.15.82A9.24,9.24,0,0,0,538,305a7.1,7.1,0,0,0,1.63.11c.62.26,3.67-.09,4.29.09a13.63,13.63,0,0,0,3.64.17c1-.12.69-1.43.63-1.65h21.37l-.18-2.23H548.16c.06.21.4,1.53-.62,1.65a13.63,13.63,0,0,1-3.64-.17c-.62-.18-3.68.17-4.3-.09a7,7,0,0,1-1.62-.11,9.24,9.24,0,0,1-2.33-.46,5.17,5.17,0,0,1-1.16-.82h-4.66v0Z"/><path class="cls-8" d="M494.55,270.07s0,0,0,0c1.13,1.49,2.29,3,3.48,4.44a80.81,80.81,0,0,0,15.63,15.3,8.59,8.59,0,0,0,3.4,1.7,1.9,1.9,0,0,0,1.21-.22c1.25-.63,2.26-2.4,2.88-3.4.08-.14.17-.28.26-.41,1.05.61,1.77,1,2,1.1l.19.1a8,8,0,0,1,1.91,1.5,18.77,18.77,0,0,0,2.78,6.58c.45.63,1,1.31,1.56,2,0,0,0,0,0,0v.47h2.39c-.8-.84-1.63-1.77-2.39-2.69v0c-.58-.7-1.12-1.39-1.57-2a18.56,18.56,0,0,1-2.78-6.58,8.61,8.61,0,0,0-1.91-1.5l-.19-.1c-.21-.1-.93-.49-2-1.1-.09.13-.17.27-.25.41-.62,1-1.63,2.77-2.88,3.4a1.92,1.92,0,0,1-1.22.22,8.65,8.65,0,0,1-3.4-1.7A80.48,80.48,0,0,1,498,272.29c-1.14-1.39-2.24-2.81-3.32-4.23Q494.63,269.05,494.55,270.07Z"/><path class="cls-8" d="M504.94,252.39s1.71-27.58,0-33.31c0,0,2.52,1,3,12.2s-.37,23.42,0,25.83l.37,2.42S504.94,256.13,504.94,252.39Z"/></g></g></svg>