<svg xmlns="http://www.w3.org/2000/svg" viewBox="0 0 89.46 19.09"><defs><style>.cls-1{fill:#fff;}.cls-2{fill:#353535;}.cls-3{fill:#240448;}</style></defs><title>Asset 9</title><g id="Layer_2" data-name="Layer 2"><g id="Layer_2-2" data-name="Layer 2"><polygon class="cls-1" points="23.51 12.29 20.47 11.93 21.57 6.92 21.17 5.8 23.51 12.29"/><polygon class="cls-2" points="21.17 5.8 19.07 0 0 11.3 25.97 19.09 23.51 12.29 21.17 5.8"/><polygon class="cls-3" points="27.16 4.62 4.59 11.04 23.5 12.3 27.16 4.62"/><path class="cls-3" d="M36.24,7.54a.58.58,0,0,1,.14-1.15l2.38,0a.58.58,0,0,1,.58.59.59.59,0,0,1-.59.58l-2.39,0Zm7.16.1a.59.59,0,0,1,.14-1.16l2.38,0a.59.59,0,0,1,.58.6.57.57,0,0,1-.59.57l-2.39,0Zm7.16.09a.6.6,0,0,1-.46-.58.58.58,0,0,1,.6-.57l2.38,0a.58.58,0,0,1,.58.59.59.59,0,0,1-.59.58l-2.39,0Zm7.16.1a.59.59,0,0,1,.14-1.16l2.38,0a.59.59,0,0,1,.58.59.58.58,0,0,1-.59.58l-2.39,0Zm7.16.09a.6.6,0,0,1-.46-.58.58.58,0,0,1,.6-.57l2.38,0a.59.59,0,0,1,.58.59.6.6,0,0,1-.59.58L65,7.93ZM72,8a.57.57,0,0,1-.46-.57.59.59,0,0,1,.6-.58l2.38,0a.59.59,0,1,1,0,1.17L72.16,8Zm7.16.1a.59.59,0,0,1-.46-.58.6.6,0,0,1,.6-.58l2.38,0a.59.59,0,0,1,.58.59.58.58,0,0,1-.59.57l-2.39,0Zm7.16.09a.58.58,0,0,1,.13-1.15l2.39,0a.59.59,0,1,1,0,1.17l-2.39,0Z"/></g></g></svg>