<svg xmlns="http://www.w3.org/2000/svg" xmlns:xlink="http://www.w3.org/1999/xlink" viewBox="0 0 506.74 566.62"><defs><style>.cls-1{opacity:0.79;}.cls-2{fill:url(#linear-gradient);}.cls-3{fill:url(#linear-gradient-2);}.cls-4{fill:#383333;}.cls-5{fill:#240448;}.cls-6{fill:#fff;}.cls-7{fill:url(#linear-gradient-3);}.cls-8{fill:url(#linear-gradient-4);}.cls-9{fill:url(#linear-gradient-5);}.cls-10{fill:url(#linear-gradient-6);}.cls-11{opacity:0.46;}.cls-12{fill:url(#linear-gradient-7);}.cls-13{opacity:0.85;}.cls-14{fill:#515151;}</style><linearGradient id="linear-gradient" x1="212.45" y1="-70.8" x2="290.97" y2="221.05" gradientUnits="userSpaceOnUse"><stop offset="0" stop-color="#efc4bf"/><stop offset="1" stop-color="#bd6a60"/></linearGradient><linearGradient id="linear-gradient-2" x1="491.29" y1="678.97" x2="45.36" y2="19.7" xlink:href="#linear-gradient"/><linearGradient id="linear-gradient-3" x1="0" y1="198.74" x2="18.02" y2="198.74" xlink:href="#linear-gradient"/><linearGradient id="linear-gradient-4" x1="199.11" y1="9.01" x2="217.12" y2="9.01" xlink:href="#linear-gradient"/><linearGradient id="linear-gradient-5" x1="324.92" y1="265.18" x2="377.67" y2="265.18" gradientTransform="translate(35.03 -40.94) rotate(7.02)" xlink:href="#linear-gradient"/><linearGradient id="linear-gradient-6" x1="215.19" y1="283.21" x2="631.09" y2="465.16" gradientTransform="translate(44.51 -40.35) rotate(7.02)" xlink:href="#linear-gradient"/><linearGradient id="linear-gradient-7" x1="324.92" y1="420.33" x2="377.67" y2="420.33" gradientTransform="translate(53.99 -39.77) rotate(7.02)" xlink:href="#linear-gradient"/></defs><title>Asset 2</title><g id="Layer_2" data-name="Layer 2"><g id="Layer_2-2" data-name="Layer 2"><g class="cls-1"><path class="cls-2" d="M195.84,84.51,235,84.2V82.8a26.86,26.86,0,0,1,15.07-24.33,25.72,25.72,0,0,1,5.42-1.95,26.85,26.85,0,0,1,6.12-.76c.85,0,1.7,0,2.54.1a26.82,26.82,0,0,1,24.5,26.51v1.4l39.26-.31.45,59.46h0L196.29,144Z"/><path class="cls-3" d="M55.91,144.82l40,357.4,6.67,59.66.33,2.9H262.73l182.54-20.42a15.8,15.8,0,0,0,13.94-17.46L412,105A15.81,15.81,0,0,0,394.55,91L69.85,127.36A15.8,15.8,0,0,0,55.91,144.82Z"/><path class="cls-4" d="M356.92,566h85.27a17.06,17.06,0,0,0,17-17V524.22a1.25,1.25,0,0,0-2.49,0V549a14.56,14.56,0,0,1-14.55,14.55H356.92a1.25,1.25,0,1,0,0,2.49Z"/><path class="cls-4" d="M111.69,566H314.25a1.25,1.25,0,1,0,0-2.49H111.69A14.55,14.55,0,0,1,97.14,549V457.3a1.25,1.25,0,1,0-2.49,0V549a17.06,17.06,0,0,0,17,17Z"/><path class="cls-4" d="M95.9,422.52a1.25,1.25,0,0,0,1.24-1.24V238.63a1.25,1.25,0,1,0-2.49,0V421.28A1.25,1.25,0,0,0,95.9,422.52Z"/><path class="cls-4" d="M95.9,223.46a1.25,1.25,0,0,0,1.24-1.24V123.58A14.57,14.57,0,0,1,111.69,109H135a1.25,1.25,0,1,0,0-2.49H111.69a17.06,17.06,0,0,0-17,17v98.64A1.25,1.25,0,0,0,95.9,223.46Z"/><path class="cls-5" d="M154,109h53.84a1.25,1.25,0,0,0,0-2.49H154a1.25,1.25,0,0,0,0,2.49Z"/><path class="cls-4" d="M454.22,206.75a1.25,1.25,0,0,0,1.24-1.24V123.58a17.05,17.05,0,0,0-17-17h-97.8a1.25,1.25,0,0,0,0,2.49h97.8A14.57,14.57,0,0,1,453,123.58v81.93A1.25,1.25,0,0,0,454.22,206.75Z"/><path class="cls-4" d="M111.47,141.24V481.06a27.75,27.75,0,0,0,27.67,27.66h252.8a13.35,13.35,0,0,0,13.35-13.34V141.24a13.35,13.35,0,0,0-13.35-13.35H124.82A13.35,13.35,0,0,0,111.47,141.24Z"/><path class="cls-6" d="M122.13,482a1,1,0,0,0,1-.95V444.67a1,1,0,1,0-1.91,0v36.39A1,1,0,0,0,122.13,482Z"/><path class="cls-6" d="M122.13,415.28a1,1,0,0,0,1-1V183.76a1,1,0,0,0-1.91,0V414.32A1,1,0,0,0,122.13,415.28Z"/><path class="cls-6" d="M122.13,166.32a1,1,0,0,0,1-1V141.24a1,1,0,1,0-1.91,0v24.12A1,1,0,0,0,122.13,166.32Z"/><path class="cls-6" d="M131.81,141.24V481.06a27.75,27.75,0,0,0,27.67,27.66h252.8a13.35,13.35,0,0,0,13.35-13.34V141.24a13.35,13.35,0,0,0-13.35-13.35H145.16A13.35,13.35,0,0,0,131.81,141.24Z"/><path class="cls-4" d="M157.66,508.72H477.39a29.35,29.35,0,0,0,29.35-29.35H187A29.35,29.35,0,0,1,157.66,508.72Z"/><path class="cls-4" d="M208.12,84.41l39.15-.32V82.7a26.79,26.79,0,0,1,15.06-24.33,26.94,26.94,0,0,1,11.54-2.71,23.76,23.76,0,0,1,2.54.1,26.81,26.81,0,0,1,24.5,26.51v1.39l39.26-.31.45,59.46h0l-132.06,1.06Z"/><polygon class="cls-7" points="9.01 189.73 5.82 195.55 0 198.74 5.82 201.92 9.01 207.75 12.19 201.92 18.02 198.74 12.19 195.55 9.01 189.73"/><polygon class="cls-8" points="208.12 0 204.93 5.82 199.11 9.01 204.93 12.19 208.12 18.02 211.3 12.19 217.12 9.01 211.3 5.82 208.12 0"/><circle class="cls-9" cx="351.29" cy="265.18" r="26.37" transform="translate(-29.77 44.91) rotate(-7.02)"/><path class="cls-4" d="M342.55,292.22a1.13,1.13,0,0,1,0-2.26,24.15,24.15,0,0,0,3.07-.28,1.13,1.13,0,1,1,.35,2.23,26.72,26.72,0,0,1-3.36.31Zm-6.42-.6a1,1,0,0,1-.24,0,27.32,27.32,0,0,1-3.24-.93,1.13,1.13,0,1,1,.76-2.13,23,23,0,0,0,3,.86,1.13,1.13,0,0,1-.25,2.23ZM352,290.15a1.13,1.13,0,0,1-.44-2.17,25.29,25.29,0,0,0,2.75-1.39,1.13,1.13,0,1,1,1.15,1.94,26.51,26.51,0,0,1-3,1.52A1,1,0,0,1,352,290.15Zm-24.69-2.34a1.09,1.09,0,0,1-.63-.2,26.28,26.28,0,0,1-2.67-2.05,1.13,1.13,0,0,1-.11-1.59,1.14,1.14,0,0,1,1.6-.11,24.85,24.85,0,0,0,2.45,1.88,1.13,1.13,0,0,1-.64,2.07Zm32.69-3a1.14,1.14,0,0,1-.8-.34,1.13,1.13,0,0,1,0-1.6,25,25,0,0,0,2.06-2.3,1.13,1.13,0,1,1,1.77,1.4,26.7,26.7,0,0,1-2.25,2.51A1.11,1.11,0,0,1,360,284.77ZM320.42,281a1.12,1.12,0,0,1-.93-.49,26.28,26.28,0,0,1-1.73-2.89,1.13,1.13,0,1,1,2-1,25.45,25.45,0,0,0,1.59,2.65,1.12,1.12,0,0,1-.29,1.57A1.15,1.15,0,0,1,320.42,281Zm45-4.19a1.06,1.06,0,0,1-.46-.1,1.12,1.12,0,0,1-.57-1.49,24.54,24.54,0,0,0,1.07-2.9,1.13,1.13,0,1,1,2.16.66,25.49,25.49,0,0,1-1.17,3.16A1.13,1.13,0,0,1,365.45,276.84Zm-48.93-4.63a1.13,1.13,0,0,1-1.1-.87,28.76,28.76,0,0,1-.56-3.32,1.13,1.13,0,0,1,2.25-.24,25.87,25.87,0,0,0,.51,3.05,1.13,1.13,0,0,1-.84,1.35A.8.8,0,0,1,316.52,272.21Zm51.13-4.76h0a1.12,1.12,0,0,1-1.08-1.17c0-.36,0-.73,0-1.09,0-.67,0-1.34-.08-2a1.13,1.13,0,0,1,2.26-.17c0,.72.08,1.45.08,2.18,0,.4,0,.79,0,1.18A1.13,1.13,0,0,1,367.65,267.45Zm-51.54-4.87H316a1.12,1.12,0,0,1-.95-1.28,26.49,26.49,0,0,1,.69-3.3,1.13,1.13,0,1,1,2.17.6,25.85,25.85,0,0,0-.63,3A1.12,1.12,0,0,1,316.11,262.58Zm50.17-4.67a1.13,1.13,0,0,1-1.07-.76,25.31,25.31,0,0,0-1.18-2.86,1.13,1.13,0,1,1,2-1,29.25,29.25,0,0,1,1.29,3.12,1.13,1.13,0,0,1-.7,1.43A1.24,1.24,0,0,1,366.28,257.91Zm-47-4.44a1.15,1.15,0,0,1-.56-.15,1.13,1.13,0,0,1-.42-1.54,29.11,29.11,0,0,1,1.85-2.82,1.13,1.13,0,0,1,1.81,1.36,24.43,24.43,0,0,0-1.7,2.58A1.14,1.14,0,0,1,319.25,253.47Zm6.26-7.34a1.12,1.12,0,0,1-.71-2,26.31,26.31,0,0,1,2.75-1.95,1.12,1.12,0,0,1,1.55.36,1.13,1.13,0,0,1-.36,1.56,24.84,24.84,0,0,0-2.52,1.78A1.12,1.12,0,0,1,325.51,246.13Zm30.22-1.64a1.14,1.14,0,0,1-.61-.18,23.75,23.75,0,0,0-2.7-1.5,1.14,1.14,0,0,1-.53-1.51,1.12,1.12,0,0,1,1.5-.53,26.62,26.62,0,0,1,2.95,1.64,1.13,1.13,0,0,1,.34,1.56A1.15,1.15,0,0,1,355.73,244.49ZM334,241.58a1.13,1.13,0,0,1-.34-2.2,26.46,26.46,0,0,1,3.27-.81,1.13,1.13,0,0,1,.4,2.23,25.71,25.71,0,0,0-3,.73A1,1,0,0,1,334,241.58Zm12.78-.69-.22,0a26.32,26.32,0,0,0-3.07-.41,1.11,1.11,0,0,1-1-1.2,1.13,1.13,0,0,1,1.2-1,28.79,28.79,0,0,1,3.34.44,1.14,1.14,0,0,1,.89,1.33A1.12,1.12,0,0,1,346.79,240.89Z"/><path class="cls-4" d="M340.72,278.94l-9.51-10.27a1.13,1.13,0,1,1,1.65-1.53l7.67,8.27,28.17-38.09a1.13,1.13,0,1,1,1.81,1.34Z"/><circle class="cls-10" cx="351.29" cy="342.75" r="26.37" transform="translate(-39.25 45.49) rotate(-7.02)"/><path class="cls-4" d="M342.55,369.8a1.13,1.13,0,0,1,0-2.26,24.16,24.16,0,0,0,3.07-.29,1.13,1.13,0,0,1,.35,2.24,26.72,26.72,0,0,1-3.36.3Zm-6.42-.6-.24,0a25.59,25.59,0,0,1-3.24-.94,1.13,1.13,0,1,1,.76-2.12,24.66,24.66,0,0,0,3,.85,1.13,1.13,0,0,1-.25,2.24ZM352,367.72a1.13,1.13,0,0,1-.44-2.16,25.37,25.37,0,0,0,2.75-1.4,1.13,1.13,0,0,1,1.15,1.95,26.51,26.51,0,0,1-3,1.52A1.2,1.2,0,0,1,352,367.72Zm-24.69-2.34a1.16,1.16,0,0,1-.63-.19,27.91,27.91,0,0,1-2.67-2.06,1.13,1.13,0,0,1,1.49-1.7,23.82,23.82,0,0,0,2.45,1.89,1.13,1.13,0,0,1-.64,2.06Zm32.69-3a1.13,1.13,0,0,1-.79-1.93,26.41,26.41,0,0,0,2.06-2.3A1.13,1.13,0,1,1,363,359.5a26.82,26.82,0,0,1-2.25,2.52A1.14,1.14,0,0,1,360,362.34Zm-39.54-3.74a1.15,1.15,0,0,1-.93-.48,28.29,28.29,0,0,1-1.73-2.89,1.13,1.13,0,0,1,2-1,24.31,24.31,0,0,0,1.59,2.64,1.12,1.12,0,0,1-.29,1.57A1.08,1.08,0,0,1,320.42,358.6Zm45-4.18a1.23,1.23,0,0,1-.46-.1,1.12,1.12,0,0,1-.57-1.49,25.22,25.22,0,0,0,1.07-2.9,1.13,1.13,0,0,1,2.16.65,25.63,25.63,0,0,1-1.17,3.17A1.13,1.13,0,0,1,365.45,354.42Zm-48.93-4.63a1.13,1.13,0,0,1-1.1-.87,28.57,28.57,0,0,1-.56-3.33,1.14,1.14,0,0,1,1-1.24,1.13,1.13,0,0,1,1.24,1,26.22,26.22,0,0,0,.51,3.05,1.13,1.13,0,0,1-.84,1.35ZM367.65,345h0a1.14,1.14,0,0,1-1.08-1.18c0-.36,0-.72,0-1.09,0-.66,0-1.34-.07-2a1.13,1.13,0,0,1,2.25-.18c0,.72.08,1.46.08,2.19,0,.39,0,.79,0,1.18A1.13,1.13,0,0,1,367.65,345Zm-51.54-4.87H316a1.12,1.12,0,0,1-.95-1.28,26.49,26.49,0,0,1,.69-3.3,1.12,1.12,0,0,1,1.38-.79,1.13,1.13,0,0,1,.79,1.39,25.69,25.69,0,0,0-.63,3A1.13,1.13,0,0,1,316.11,340.16Zm50.17-4.67a1.14,1.14,0,0,1-1.07-.77,24.42,24.42,0,0,0-1.18-2.85,1.12,1.12,0,0,1,.52-1.51,1.13,1.13,0,0,1,1.51.52,28.26,28.26,0,0,1,1.29,3.11,1.14,1.14,0,0,1-.7,1.44A1.24,1.24,0,0,1,366.28,335.49Zm-47-4.45a1.12,1.12,0,0,1-1-1.69,27.79,27.79,0,0,1,1.85-2.81,1.13,1.13,0,1,1,1.81,1.35,24.56,24.56,0,0,0-1.7,2.59A1.13,1.13,0,0,1,319.25,331Zm6.26-7.33a1.11,1.11,0,0,1-.88-.42,1.13,1.13,0,0,1,.17-1.59,27.88,27.88,0,0,1,2.75-1.95,1.13,1.13,0,0,1,1.55.37,1.12,1.12,0,0,1-.36,1.55,24.48,24.48,0,0,0-2.52,1.79A1.12,1.12,0,0,1,325.51,323.71Zm30.22-1.65a1.06,1.06,0,0,1-.61-.18,25.4,25.4,0,0,0-2.7-1.5,1.12,1.12,0,0,1-.53-1.5,1.14,1.14,0,0,1,1.5-.54,30.33,30.33,0,0,1,2.95,1.64,1.13,1.13,0,0,1-.61,2.08ZM334,319.16a1.13,1.13,0,0,1-.34-2.21,28.34,28.34,0,0,1,3.27-.8,1.13,1.13,0,0,1,.4,2.22,25.75,25.75,0,0,0-3,.74A1.26,1.26,0,0,1,334,319.16Zm12.78-.69-.22,0a24.34,24.34,0,0,0-3.07-.41,1.13,1.13,0,0,1,.16-2.25,26.53,26.53,0,0,1,3.34.44,1.13,1.13,0,0,1-.21,2.24Z"/><path class="cls-4" d="M340.72,356.52l-9.51-10.27a1.13,1.13,0,1,1,1.65-1.54l7.67,8.28,28.17-38.1a1.13,1.13,0,1,1,1.81,1.35Z"/><g class="cls-11"><circle class="cls-12" cx="351.29" cy="420.33" r="26.37" transform="translate(-48.72 46.07) rotate(-7.02)"/></g><path class="cls-4" d="M342.55,447.37a1.13,1.13,0,0,1,0-2.26,24.15,24.15,0,0,0,3.07-.28,1.13,1.13,0,0,1,1.29.94,1.12,1.12,0,0,1-.94,1.29,26.9,26.9,0,0,1-3.36.31Zm-6.42-.6-.24,0a25.56,25.56,0,0,1-3.24-.93,1.13,1.13,0,1,1,.76-2.13,23,23,0,0,0,3,.86,1.13,1.13,0,0,1-.25,2.23ZM352,445.3a1.13,1.13,0,0,1-.44-2.17,23.61,23.61,0,0,0,2.75-1.39,1.13,1.13,0,0,1,1.55.4,1.15,1.15,0,0,1-.4,1.55,30.29,30.29,0,0,1-3,1.52A1.2,1.2,0,0,1,352,445.3ZM327.27,443a1.16,1.16,0,0,1-.63-.19,26.71,26.71,0,0,1-2.67-2.06,1.13,1.13,0,0,1-.11-1.59,1.14,1.14,0,0,1,1.6-.11,23.82,23.82,0,0,0,2.45,1.89,1.12,1.12,0,0,1,.3,1.56A1.11,1.11,0,0,1,327.27,443Zm32.69-3a1.1,1.1,0,0,1-.8-.34,1.13,1.13,0,0,1,0-1.6,25,25,0,0,0,2.06-2.3,1.13,1.13,0,0,1,1.77,1.4,25.51,25.51,0,0,1-2.25,2.51A1.11,1.11,0,0,1,360,439.92Zm-39.54-3.74a1.12,1.12,0,0,1-.93-.49,27.11,27.11,0,0,1-1.73-2.88,1.13,1.13,0,1,1,2-1.05,25.45,25.45,0,0,0,1.59,2.65,1.12,1.12,0,0,1-.29,1.57A1.15,1.15,0,0,1,320.42,436.18Zm45-4.19a1.06,1.06,0,0,1-.46-.1,1.12,1.12,0,0,1-.57-1.49,24.4,24.4,0,0,0,1.07-2.89,1.13,1.13,0,1,1,2.16.65,25.49,25.49,0,0,1-1.17,3.16A1.13,1.13,0,0,1,365.45,432Zm-48.93-4.62a1.14,1.14,0,0,1-1.1-.88,28.76,28.76,0,0,1-.56-3.32,1.13,1.13,0,0,1,1-1.24,1.12,1.12,0,0,1,1.24,1,25.87,25.87,0,0,0,.51,3.05,1.14,1.14,0,0,1-.84,1.36Zm51.13-4.76h0a1.14,1.14,0,0,1-1.08-1.18c0-.36,0-.73,0-1.09,0-.67,0-1.34-.08-2a1.13,1.13,0,0,1,2.26-.18c0,.72.08,1.45.08,2.18,0,.4,0,.79,0,1.19A1.14,1.14,0,0,1,367.65,422.61Zm-51.54-4.87-.16,0a1.12,1.12,0,0,1-.95-1.28,26,26,0,0,1,.69-3.29,1.11,1.11,0,0,1,1.38-.79,1.12,1.12,0,0,1,.79,1.39,25.27,25.27,0,0,0-.63,3A1.13,1.13,0,0,1,316.11,417.74Zm50.17-4.68a1.13,1.13,0,0,1-1.07-.76,24.42,24.42,0,0,0-1.18-2.85,1.13,1.13,0,0,1,2-1,29.25,29.25,0,0,1,1.29,3.12,1.12,1.12,0,0,1-.7,1.43A1.24,1.24,0,0,1,366.28,413.06Zm-47-4.44a1.15,1.15,0,0,1-.56-.15,1.13,1.13,0,0,1-.42-1.54,27.45,27.45,0,0,1,1.86-2.82,1.13,1.13,0,1,1,1.8,1.36,24.43,24.43,0,0,0-1.7,2.58A1.12,1.12,0,0,1,319.25,408.62Zm6.26-7.34a1.12,1.12,0,0,1-.71-2,26.31,26.31,0,0,1,2.75-1.95,1.13,1.13,0,0,1,1.19,1.92,24.84,24.84,0,0,0-2.52,1.78A1.12,1.12,0,0,1,325.51,401.28Zm30.22-1.64a1.14,1.14,0,0,1-.61-.18,25.4,25.4,0,0,0-2.7-1.5,1.13,1.13,0,0,1,1-2,26.62,26.62,0,0,1,2.95,1.64,1.13,1.13,0,0,1-.61,2.08ZM334,396.74a1.13,1.13,0,0,1-.34-2.21,28.34,28.34,0,0,1,3.27-.8,1.11,1.11,0,0,1,1.31.91,1.12,1.12,0,0,1-.91,1.31,25.71,25.71,0,0,0-3,.73A1,1,0,0,1,334,396.74Zm12.78-.7a.78.78,0,0,1-.22,0,24.32,24.32,0,0,0-3.07-.4,1.13,1.13,0,0,1,.16-2.26,26.55,26.55,0,0,1,3.34.45,1.13,1.13,0,0,1-.21,2.23Z"/><path class="cls-4" d="M48.72,566.62H500.54a1.14,1.14,0,0,0,0-2.27H48.72a1.14,1.14,0,0,0,0,2.27Z"/><g class="cls-13"><path class="cls-14" d="M220.16,253.18a.37.37,0,0,1,.42-.42h5a.37.37,0,0,1,.42.42v20.61a2.42,2.42,0,0,0,.48,1.73A2.07,2.07,0,0,0,228,276h1.12a1.43,1.43,0,0,1,1.25.6,3.74,3.74,0,0,1,.41,2,3.29,3.29,0,0,1-.39,1.95,1.63,1.63,0,0,1-1.27.46H225a4.81,4.81,0,0,1-3.74-1.27,5.88,5.88,0,0,1-1.12-4Z"/><path class="cls-14" d="M229.14,281a1.52,1.52,0,0,1-1.25-.52,3.06,3.06,0,0,1-.41-1.85c0-1.78.55-2.66,1.66-2.66h2.58a2.06,2.06,0,0,0,1.51-.48,2.42,2.42,0,0,0,.48-1.73v-9.85a.37.37,0,0,1,.42-.41h5a.37.37,0,0,1,.42.41v11.85a5.88,5.88,0,0,1-1.12,4,4.81,4.81,0,0,1-3.74,1.27Zm1.54,8.52a.37.37,0,0,1-.42-.42v-4.07a.37.37,0,0,1,.42-.42h4.15a.37.37,0,0,1,.42.42v4.07a.37.37,0,0,1-.42.42Zm6.4,0a.37.37,0,0,1-.42-.42v-4.07a.37.37,0,0,1,.42-.42h4.2a.37.37,0,0,1,.41.42v4.07a.37.37,0,0,1-.41.42Z"/><path class="cls-14" d="M248.47,289.55a.37.37,0,0,1-.42-.42v-4.2a.37.37,0,0,1,.42-.41h4.78a9.54,9.54,0,0,0,1.49-.11,2.42,2.42,0,0,0,1.15-.47,2.55,2.55,0,0,0,.74-1.06,5.2,5.2,0,0,0,.27-1.85h-1.74a31.55,31.55,0,0,1-4.47-.29,8.2,8.2,0,0,1-3.37-1.23,5.89,5.89,0,0,1-2.12-2.62,14.05,14.05,0,0,1,0-9,8.17,8.17,0,0,1,2-2.95,7.73,7.73,0,0,1,2.91-1.62,11.69,11.69,0,0,1,3.39-.5,12.9,12.9,0,0,1,3.49.46,7.49,7.49,0,0,1,2.91,1.51,7.23,7.23,0,0,1,2,2.87,12,12,0,0,1,.73,4.47v9.69q0,3.9-2,5.82t-6.18,1.91Zm1.58-32.63a4.54,4.54,0,0,1-.42-.92,3.68,3.68,0,0,1-.17-1.16,4.25,4.25,0,0,1,.27-1.48,3.88,3.88,0,0,1,.83-1.31,4.12,4.12,0,0,1,1.46-.93,5.74,5.74,0,0,1,2.14-.36,5.58,5.58,0,0,1,2.39.5,3.91,3.91,0,0,1,1.56,1.21.27.27,0,0,1,0,.41l-1.33,1.42c-.11.11-.24.08-.38-.08a4.35,4.35,0,0,0-.93-.67,2.4,2.4,0,0,0-1.14-.25,1.77,1.77,0,0,0-1.31.46,1.63,1.63,0,0,0-.48,1.24,1.84,1.84,0,0,0,.37,1.21,2.89,2.89,0,0,0,.83.71h4.37c.16,0,.25.09.25.29v2c0,.2-.09.29-.25.29h-9.48c-.17,0-.25-.09-.25-.29v-2c0-.2.08-.29.25-.29Zm3.57,10.93A3,3,0,0,0,251,269a5.17,5.17,0,0,0-.87,3.16c0,1.53.33,2.55,1,3.06a4,4,0,0,0,2.55.77h3.2v-4Q256.9,267.85,253.62,267.85Z"/><path class="cls-14" d="M269.37,263.94a.37.37,0,0,1,.42-.41h5.07a.37.37,0,0,1,.42.41v9.81a2.13,2.13,0,0,0,.89,1.64,3.69,3.69,0,0,0,2.27.61h.91a1.44,1.44,0,0,1,1.25.58,3.43,3.43,0,0,1,.41,1.91c0,1.69-.55,2.54-1.66,2.54a9.2,9.2,0,0,1-2.37-.27,3.23,3.23,0,0,1-1.7-1.15v.67q0,4.74-1.83,7t-6.24,2.27H265.3c-.28,0-.41-.14-.41-.42v-4.2a.36.36,0,0,1,.41-.41h.92a3.5,3.5,0,0,0,1.74-.36,2.19,2.19,0,0,0,.94-1,5.19,5.19,0,0,0,.39-1.69c.06-.66.08-1.42.08-2.28Z"/><path class="cls-14" d="M279.35,281a2.24,2.24,0,0,1-1.25-.29,1.39,1.39,0,0,1-.41-1.17,6.72,6.72,0,0,1,.1-1.12,7.56,7.56,0,0,1,.29-1.16,3,3,0,0,1,.5-.92,1,1,0,0,1,.77-.37h1.46a2.06,2.06,0,0,0,1.51-.48,2.42,2.42,0,0,0,.48-1.73V253.18a.37.37,0,0,1,.42-.42h5.07a.37.37,0,0,1,.41.42v22.61a5.88,5.88,0,0,1-1.12,4,4.8,4.8,0,0,1-3.74,1.27Z"/><path class="cls-14" d="M299.55,280.61a.37.37,0,0,1-.41.42h-5a.37.37,0,0,1-.42-.42V253.18a.37.37,0,0,1,.42-.42h5a.37.37,0,0,1,.41.42Z"/></g><g class="cls-13"><path class="cls-14" d="M173.13,356.52a4.77,4.77,0,0,1-3.74-1.27,5.86,5.86,0,0,1-1.12-4V342.1a.37.37,0,0,1,.42-.42h5.07a.37.37,0,0,1,.41.42v7.19a2.41,2.41,0,0,0,.48,1.72,2.08,2.08,0,0,0,1.52.48h11.1a8.57,8.57,0,0,1-.67-3.74,11.7,11.7,0,0,1,.77-4.55,7.47,7.47,0,0,1,2.06-2.89,7.79,7.79,0,0,1,2.95-1.54,13,13,0,0,1,3.41-.46,13.3,13.3,0,0,1,3.49.46,7.57,7.57,0,0,1,2.93,1.54,7.39,7.39,0,0,1,2,2.89,11.92,11.92,0,0,1,.75,4.55,11,11,0,0,1-.71,4.22,7,7,0,0,1-1.93,2.7,7.1,7.1,0,0,1-2.91,1.43,15.08,15.08,0,0,1-3.64.42Zm22.66-13.18q-3.4,0-3.41,4.08a4.91,4.91,0,0,0,.85,3.32,3.34,3.34,0,0,0,2.56.92,3.38,3.38,0,0,0,2.56-.9,4.71,4.71,0,0,0,.85-3.22Q199.2,343.34,195.79,343.34Zm-2.45-8.52a.37.37,0,0,1-.42-.41v-4.08c0-.28.14-.41.42-.41h5.15c.28,0,.42.13.42.41v4.08a.37.37,0,0,1-.42.41Z"/><path class="cls-14" d="M215.33,356.1a.37.37,0,0,1-.42.42h-5a.37.37,0,0,1-.42-.42V328.67a.37.37,0,0,1,.42-.42h5a.37.37,0,0,1,.42.42Z"/><path class="cls-14" d="M227.17,351.49a7.34,7.34,0,0,0,1.66-.15,1.56,1.56,0,0,0,1.36-1.35,8.11,8.11,0,0,0,.1-1.33v-2.24a2.79,2.79,0,0,0-.94-2.35,4.53,4.53,0,0,0-2.8-.73h-4.78a.37.37,0,0,1-.42-.41v-4.2a.37.37,0,0,1,.42-.42h6.52a9.29,9.29,0,0,1,6,1.69q2.1,1.68,2.1,5.8v3.45a2.15,2.15,0,0,0,.89,1.64,3.76,3.76,0,0,0,2.27.6h.91a1.44,1.44,0,0,1,1.25.58,3.36,3.36,0,0,1,.41,1.91c0,1.69-.55,2.54-1.66,2.54a8.66,8.66,0,0,1-3-.46,3.83,3.83,0,0,1-2.06-1.91,4,4,0,0,1-2.06,1.85,8.8,8.8,0,0,1-3.26.52H220c-.28,0-.41-.14-.41-.42v-4.19c0-.28.13-.42.41-.42Z"/><path class="cls-14" d="M240.43,356.52a1.48,1.48,0,0,1-1.25-.56,3.35,3.35,0,0,1-.41-1.89,3.78,3.78,0,0,1,.39-2,1.42,1.42,0,0,1,1.27-.6h4.07a7.71,7.71,0,0,1,0-5.82,5.62,5.62,0,0,1,1.46-1.95,5.78,5.78,0,0,1,2.06-1.11,8.41,8.41,0,0,1,2.41-.35,7.33,7.33,0,0,1,4.9,1.52q1.79,1.52,1.79,4.8a5.38,5.38,0,0,1-.23,1.6,8,8,0,0,1-.52,1.31,2.59,2.59,0,0,0,2.5-1.14,5.87,5.87,0,0,0,.62-2.81,6.7,6.7,0,0,0-.52-2.78,5,5,0,0,0-1.46-1.92,6.1,6.1,0,0,0-2.24-1.1,11.33,11.33,0,0,0-2.89-.35,20.87,20.87,0,0,0-3,.23,21.15,21.15,0,0,0-3.06.68,1.41,1.41,0,0,1-.41.13.26.26,0,0,1-.33-.21l-.88-3.12a1.17,1.17,0,0,1-.06-.43c0-.13.12-.23.31-.32a30.08,30.08,0,0,1,4-1.24,20.7,20.7,0,0,1,4.68-.46,15.41,15.41,0,0,1,5.8.94,9.42,9.42,0,0,1,3.66,2.47,8.73,8.73,0,0,1,1.89,3.45,14.3,14.3,0,0,1,.54,3.91,17.26,17.26,0,0,1-.42,4.05,6.57,6.57,0,0,1-1.39,2.85,5.83,5.83,0,0,1-2.58,1.66,12.52,12.52,0,0,1-4,.54Zm10-10.72a2.23,2.23,0,0,0-1.81.76,3.33,3.33,0,0,0-.64,2.19,3.26,3.26,0,0,0,.58,2.14,2.32,2.32,0,0,0,1.62.77h.46a2.2,2.2,0,0,0,1.62-.77,3.45,3.45,0,0,0,.54-2.14,3.5,3.5,0,0,0-.6-2.19A2.12,2.12,0,0,0,250.45,345.8Z"/><path class="cls-14" d="M281.67,351.49h3.78A2.08,2.08,0,0,0,287,351a2.46,2.46,0,0,0,.47-1.72V328.67a.37.37,0,0,1,.42-.42h5.07a.37.37,0,0,1,.42.42v22.61a5.92,5.92,0,0,1-1.12,4,4.78,4.78,0,0,1-3.75,1.27H269.15a.37.37,0,0,1-.41-.42v-4.19a.37.37,0,0,1,.41-.42h6.61v-17a.37.37,0,0,1,.42-.42h5.07a.37.37,0,0,1,.42.42ZM275.47,329a6,6,0,0,1-.41-1,4.09,4.09,0,0,1-.17-1.2,4.4,4.4,0,0,1,.27-1.5,4.05,4.05,0,0,1,.81-1.35,3.92,3.92,0,0,1,1.39-1,5.51,5.51,0,0,1,2.06-.35,5.18,5.18,0,0,1,2.31.48,4.21,4.21,0,0,1,1.52,1.18.29.29,0,0,1-.05.38L282,325.93c-.14.16-.28.18-.42,0a2.59,2.59,0,0,0-2-1,1.75,1.75,0,0,0-1.29.5,1.81,1.81,0,0,0-.5,1.33,2.09,2.09,0,0,0,.4,1.29,3,3,0,0,0,.85.83h4.15c.17,0,.25.1.25.29v1.87c0,.2-.08.29-.25.29h-9.26c-.17,0-.25-.09-.25-.29v-1.87c0-.19.08-.29.25-.29Z"/><path class="cls-14" d="M304.2,356.1a.37.37,0,0,1-.42.42h-5c-.28,0-.41-.14-.41-.42V328.67c0-.28.13-.42.41-.42h5a.37.37,0,0,1,.42.42Z"/></g></g></g></g></svg>