<svg xmlns="http://www.w3.org/2000/svg" xmlns:xlink="http://www.w3.org/1999/xlink" viewBox="0 0 269.82 430.08"><defs><style>.cls-1{opacity:0.8;}.cls-2{fill:#383333;}.cls-3{fill:url(#linear-gradient);}.cls-4{fill:url(#linear-gradient-2);}.cls-5{fill:url(#linear-gradient-3);}.cls-6{fill:url(#linear-gradient-4);}.cls-7{fill:url(#linear-gradient-5);}.cls-8{fill:url(#linear-gradient-6);}.cls-9{fill:url(#linear-gradient-7);}.cls-10{fill:url(#linear-gradient-8);}.cls-11{fill:url(#linear-gradient-9);}.cls-12{fill:url(#linear-gradient-10);}</style><linearGradient id="linear-gradient" x1="302.42" y1="-37" x2="170.8" y2="79.26" gradientUnits="userSpaceOnUse"><stop offset="0" stop-color="#efc4bf"/><stop offset="1" stop-color="#bd6a60"/></linearGradient><linearGradient id="linear-gradient-2" x1="209.73" y1="36.92" x2="95.65" y2="109.31" xlink:href="#linear-gradient"/><linearGradient id="linear-gradient-3" x1="211.01" y1="38.94" x2="96.94" y2="111.34" xlink:href="#linear-gradient"/><linearGradient id="linear-gradient-4" x1="232.47" y1="72.75" x2="118.39" y2="145.15" xlink:href="#linear-gradient"/><linearGradient id="linear-gradient-5" x1="231.18" y1="70.73" x2="117.11" y2="143.12" xlink:href="#linear-gradient"/><linearGradient id="linear-gradient-6" x1="206.79" y1="32.3" x2="92.72" y2="104.69" xlink:href="#linear-gradient"/><linearGradient id="linear-gradient-7" x1="222.65" y1="57.28" x2="108.57" y2="129.67" xlink:href="#linear-gradient"/><linearGradient id="linear-gradient-8" x1="235.4" y1="77.37" x2="121.33" y2="149.76" xlink:href="#linear-gradient"/><linearGradient id="linear-gradient-9" x1="219.54" y1="52.39" x2="105.47" y2="124.78" xlink:href="#linear-gradient"/><linearGradient id="linear-gradient-10" x1="457.12" y1="-41.46" x2="107.59" y2="489.41" xlink:href="#linear-gradient"/></defs><title>Asset 3</title><g id="Layer_2" data-name="Layer 2"><g id="Layer_2-2" data-name="Layer 2"><g class="cls-1"><path class="cls-2" d="M152.68,212.8c12.73,12.91,28.43,18.06,35.06,11.52s1.68-22.31-11.05-35.21c-8.81-8.93-22.21-11-29.63-11.46a5.13,5.13,0,0,0-5.44,5.36C142,190.44,143.87,203.87,152.68,212.8Z"/><path class="cls-2" d="M204.07,252.9a1.66,1.66,0,0,1-1.65-1.54c0-.34-2.3-34.42-.33-80.05,1.82-42.14,7.74-103,25.61-153.91a1.65,1.65,0,1,1,3.12,1.09c-17.73,50.47-23.61,111-25.42,152.92-2,45.45.3,79.38.33,79.72a1.66,1.66,0,0,1-1.54,1.77Z"/><path class="cls-2" d="M191.25,252.9h0a1.65,1.65,0,0,1-1.64-1.67c.76-62.64-16.73-100.28-30-123.15a1.66,1.66,0,0,1,2.87-1.66c13.42,23.21,31.18,61.39,30.41,124.85A1.66,1.66,0,0,1,191.25,252.9Z"/><path class="cls-2" d="M228.9,57.19c-2.49,10.68-9,18.3-14.45,17s-7.92-11-5.42-21.66c1.72-7.39,8-12.7,11.67-15.27a3.1,3.1,0,0,1,4.5,1C227.37,42.27,230.62,49.8,228.9,57.19Z"/><path class="cls-3" d="M267.8,26.67c2.67-5,.36-10.07-5.12-11.36h0A14.17,14.17,0,0,0,247.84,22l-18.2,33.8a11.11,11.11,0,0,1-12.3,5.55h0a11.1,11.1,0,0,1-8.57-10.42l-1.35-38.37A14.19,14.19,0,0,0,197.08,0h0a9.89,9.89,0,0,0-9.54,10.23s1.71,50.67,1.82,51.68l.06.47a20.71,20.71,0,0,0,15.8,17.4L220,83.23a20.69,20.69,0,0,0,21.88-8.61l.07,0Z"/><path class="cls-4" d="M145.4,95.19h0l11.76-22.91a8.82,8.82,0,0,0-6.57-12.75h0a8.81,8.81,0,0,0-9.93,10.34Z"/><path class="cls-5" d="M135.29,102.72h0L110,107.46a8.81,8.81,0,0,1-10.34-9.93h0A8.82,8.82,0,0,1,112.38,91Z"/><path class="cls-6" d="M142.51,112.4h0l-11.77,22.91a8.82,8.82,0,0,0,6.57,12.75h0a8.81,8.81,0,0,0,9.93-10.34Z"/><path class="cls-7" d="M152.61,104.86h0l25.32-4.73a8.81,8.81,0,0,1,10.34,9.93h0a8.81,8.81,0,0,1-12.75,6.56Z"/><path class="cls-8" d="M138.89,96.69h0L131,72.17a8.81,8.81,0,0,0-13.65-4.37h0a8.81,8.81,0,0,0,.29,14.34Z"/><path class="cls-9" d="M137.07,109.16h0l-14.55,21.25a8.8,8.8,0,0,1-14.33.29h0a8.8,8.8,0,0,1,4.36-13.65Z"/><path class="cls-10" d="M149,110.9h0l7.89,24.52a8.81,8.81,0,0,0,13.66,4.36h0a8.81,8.81,0,0,0-.29-14.33Z"/><path class="cls-11" d="M150.83,98.43h0l14.55-21.26a8.81,8.81,0,0,1,14.33-.28h0a8.8,8.8,0,0,1-4.36,13.65Z"/><path class="cls-12" d="M263.74,358.31a59.21,59.21,0,0,0-24.26-47.85,41,41,0,0,0-19.75-59.23V234.52H189.16v16.71a41,41,0,0,0-19.74,59.23,59.3,59.3,0,0,0,4.87,98.91v18.11h60.32V409.37A59.27,59.27,0,0,0,263.74,358.31Z"/><path class="cls-2" d="M237.61,330.18a1.62,1.62,0,0,1-1.39-.8,57.56,57.56,0,0,0-15.84-17.62,1.61,1.61,0,0,1-.42-2.13,39.37,39.37,0,0,0-19-56.91,1.61,1.61,0,0,1,1.2-3A42.59,42.59,0,0,1,223.44,310,60.64,60.64,0,0,1,239,327.77a1.61,1.61,0,0,1-.58,2.19A1.59,1.59,0,0,1,237.61,330.18Z"/><path class="cls-2" d="M216.46,428.84a1.61,1.61,0,0,1-1.61-1.6V409.37a1.59,1.59,0,0,1,.79-1.38,57.8,57.8,0,0,0,26.8-63,1.6,1.6,0,1,1,3.12-.74,61,61,0,0,1-27.5,66v17A1.6,1.6,0,0,1,216.46,428.84Z"/><path class="cls-2" d="M156.14,428.84a1.6,1.6,0,0,1-1.6-1.6v-17a60.93,60.93,0,0,1-22.31-80,1.61,1.61,0,0,1,2.85,1.48,56.93,56.93,0,0,0-6.47,26.56A58,58,0,0,0,157,408a1.59,1.59,0,0,1,.79,1.38v17.87A1.61,1.61,0,0,1,156.14,428.84Z"/><path class="cls-2" d="M146.51,300.59a1.61,1.61,0,0,1-1.56-1.22,43.08,43.08,0,0,1-1.21-10.14,42.47,42.47,0,0,1,22.75-37.67,1.61,1.61,0,0,1,1.5,2.84,39.42,39.42,0,0,0-19.92,44.2,1.61,1.61,0,0,1-1.18,1.94A1.58,1.58,0,0,1,146.51,300.59Z"/><path class="cls-2" d="M167.24,254.58a1.6,1.6,0,0,1-.75-3c1-.5,1.93-1,2.92-1.4V234.52a1.61,1.61,0,0,1,1.61-1.61h30.56a1.61,1.61,0,0,1,1.61,1.61v16.71a1.61,1.61,0,0,1-3.21,0V236.12H172.62v15.11a1.62,1.62,0,0,1-1,1.49A38.4,38.4,0,0,0,168,254.4,1.69,1.69,0,0,1,167.24,254.58Z"/><path class="cls-2" d="M52.15,430.08h216a1.66,1.66,0,0,0,0-3.31h-216a1.66,1.66,0,1,0,0,3.31Z"/><path class="cls-2" d="M1.66,430.08H25.3a1.66,1.66,0,1,0,0-3.31H1.66a1.66,1.66,0,1,0,0,3.31Z"/></g></g></g></svg>