<svg xmlns="http://www.w3.org/2000/svg" viewBox="0 0 469.28 278.81"><defs><style>.cls-1{fill:#dce5f7;}.cls-2{fill:#e2a3a3;}.cls-3{fill:#240448;}.cls-4{fill:#ddbfc8;}.cls-5{fill:#fccc6c;}.cls-6{fill:#fff;}.cls-7{fill:#383838;}</style></defs><title>Asset 7</title><g id="Layer_2" data-name="Layer 2"><g id="Layer_2-2" data-name="Layer 2"><path class="cls-1" d="M210.76,144.46H44.86a22.55,22.55,0,0,1,.18-4h0a35.93,35.93,0,0,1,4.3-12.68c3.51-6.18,8.77-10.75,14.67-9.34a13,13,0,0,1,5.57,3.11c2.85,2.52,5.14,5.61,8,8.16s6.42,4.59,10.21,4.32c4.74-.35,8.15-4.59,8.86-9.06,1.71-10.75,1.6-32,15-34.94l.76-.15c11.49-2,19.41,9.26,22.47,19.32.35,1.14.63,2.27.85,3.36a42.75,42.75,0,0,1,1,8.4l.06.55c.09.77.19,1.55.33,2.31a18.32,18.32,0,0,0,1.59,5.23,2.36,2.36,0,0,0,1.39,1.39c1.83.45,3.37-1.68,4.42-3.37.3-.48.56-.92.77-1.26,3.33-5.29,12.53-8.82,16.68-2.47,2.9,4.43.49,13.07,6.53,15.28,6.92,2.53,8.67-6.58,9.28-11.25.76-5.74.63-11.62,2.33-17.2.71-1.67,1.91-3.58,3.82-3.82a5,5,0,0,1,4.3,3.11c2.12,5.14,2.7,10.69,3.48,16.16.63,4.43,1.49,14.21,7.38,14.76,3.13.28,6-5.3,8.86-2.83C209.75,139.16,209.65,142.45,210.76,144.46Z"/><path class="cls-2" d="M391.27,246.93c5.62,3.15,8.86,8,7.24,10.93s-7.48,2.67-13.1-.47c-3.88-2.18-5.86-6.58-6.71-9.08a1.83,1.83,0,0,1,1.33-2.37C382.61,245.36,387.39,244.75,391.27,246.93Z"/><path class="cls-2" d="M414,248.68c-3.17,3.22-7.09,4.5-8.74,2.87s-.42-5.55,2.75-8.77c2.2-2.22,5.54-2.74,7.39-2.85a1.26,1.26,0,0,1,1.35,1.33C416.65,243.11,416.17,246.46,414,248.68Z"/><path class="cls-3" d="M400.79,278.73a.5.5,0,0,1-.51-.5,143.41,143.41,0,0,0-5.83-39.36.5.5,0,0,1,1-.27,144.56,144.56,0,0,1,5.87,39.63A.5.5,0,0,1,400.79,278.73Z"/><path class="cls-3" d="M393.47,234.41a.5.5,0,0,1-.48-.35,148.64,148.64,0,0,0-10.14-24.6.5.5,0,1,1,.87-.49A148.13,148.13,0,0,1,394,233.76a.5.5,0,0,1-.32.63A.44.44,0,0,1,393.47,234.41Z"/><circle class="cls-4" cx="385.82" cy="216.41" r="10.9" transform="translate(132.44 579.02) rotate(-84.35)"/><path class="cls-2" d="M403.11,278.73a.51.51,0,0,1-.51-.49c0-.34-.57-34.05,7.95-58.3a.49.49,0,0,1,.64-.3.51.51,0,0,1,.31.64c-8.46,24.07-7.9,57.6-7.89,57.94a.5.5,0,0,1-.49.51Z"/><polygon class="cls-5" points="420.34 222.42 412.63 214.72 402.11 217.54 399.29 228.06 406.99 235.77 417.52 232.95 420.34 222.42"/><path class="cls-6" d="M385.82,217.67c-5.62,0-11.6-1.34-11.6-3.83a.43.43,0,1,1,.85,0c0,1.41,4.41,3,10.75,3s10.75-1.57,10.75-3a.42.42,0,1,1,.84,0C397.41,216.33,391.44,217.67,385.82,217.67Z"/><path class="cls-6" d="M385.82,217.67c-5.62,0-11.6-1.34-11.6-3.83a.43.43,0,1,1,.85,0c0,1.41,4.41,3,10.75,3s10.75-1.57,10.75-3a.42.42,0,1,1,.84,0C397.41,216.33,391.44,217.67,385.82,217.67Z"/><path class="cls-6" d="M394.85,220.58c-2.46,0-6.31-1.47-9.68-3.42-4.87-2.81-9.38-7-8.13-9.12a.42.42,0,1,1,.73.43c-.7,1.22,2.33,4.79,7.82,8s10.1,4,10.8,2.78a.43.43,0,1,1,.74.42A2.45,2.45,0,0,1,394.85,220.58Z"/><path class="cls-6" d="M394.85,220.58c-2.46,0-6.31-1.47-9.68-3.42-4.87-2.81-9.38-7-8.13-9.12a.42.42,0,1,1,.73.43c-.7,1.22,2.33,4.79,7.82,8s10.1,4,10.8,2.78a.43.43,0,1,1,.74.42A2.45,2.45,0,0,1,394.85,220.58Z"/><path class="cls-6" d="M399.29,228.49a.43.43,0,0,1-.11-.84L420.23,222a.42.42,0,0,1,.22.82l-21.05,5.64Z"/><path class="cls-6" d="M409.81,225.67a.41.41,0,0,1-.3-.13l-7.7-7.7a.42.42,0,0,1,.6-.6l7.7,7.7a.42.42,0,0,1,0,.6A.39.39,0,0,1,409.81,225.67Z"/><path class="cls-2" d="M48.66,265.85c3.87,3.92,8.63,5.49,10.65,3.5s.51-6.77-3.36-10.69c-2.67-2.71-6.74-3.35-9-3.48a1.56,1.56,0,0,0-1.65,1.63C45.41,259.06,46,263.14,48.66,265.85Z"/><path class="cls-3" d="M64.27,278a.5.5,0,0,1-.5-.47,242.47,242.47,0,0,1-.1-24.31c.55-12.79,2.35-31.29,7.77-46.74a.49.49,0,0,1,.64-.3.5.5,0,0,1,.31.64c-10.31,29.35-7.65,70.23-7.62,70.64a.5.5,0,0,1-.47.54Z"/><path class="cls-3" d="M60.37,278h0a.5.5,0,0,1-.5-.51c.23-19-5.08-30.45-9.1-37.39a.5.5,0,0,1,.87-.51c4.08,7,9.47,18.64,9.24,37.91A.51.51,0,0,1,60.37,278Z"/><path class="cls-2" d="M71.81,218.6c-.76,3.24-2.73,5.55-4.39,5.16s-2.41-3.33-1.65-6.57a8.48,8.48,0,0,1,3.55-4.64.94.94,0,0,1,1.36.32A8.53,8.53,0,0,1,71.81,218.6Z"/><path class="cls-4" d="M83.62,209.33a2.27,2.27,0,0,0-1.56-3.45h0a4.31,4.31,0,0,0-4.5,2L72,218.18a3.36,3.36,0,0,1-3.73,1.68h0a3.37,3.37,0,0,1-2.61-3.16l-.41-11.65a4.31,4.31,0,0,0-3.14-3.82h0a3,3,0,0,0-2.89,3.11s.52,15.38.55,15.69l0,.14a6.28,6.28,0,0,0,4.8,5.29l4.49,1a6.27,6.27,0,0,0,6.64-2.62h0Z"/><path class="cls-5" d="M46.45,230.14h0l3.57-7a2.68,2.68,0,0,0-2-3.87h0a2.67,2.67,0,0,0-3,3.14Z"/><path class="cls-5" d="M43.38,232.43h0l-7.69,1.43a2.68,2.68,0,0,1-3.14-3h0a2.68,2.68,0,0,1,3.87-2Z"/><path class="cls-5" d="M45.57,235.36h0l-3.57,7a2.68,2.68,0,0,0,2,3.87h0a2.68,2.68,0,0,0,3-3.14Z"/><path class="cls-5" d="M48.64,233.07h0l7.69-1.43a2.68,2.68,0,0,1,3.14,3h0a2.68,2.68,0,0,1-3.87,2Z"/><path class="cls-5" d="M44.47,230.59h0l-2.39-7.44a2.68,2.68,0,0,0-4.15-1.33h0a2.67,2.67,0,0,0,.09,4.35Z"/><path class="cls-5" d="M43.92,234.38h0l-4.42,6.45a2.67,2.67,0,0,1-4.35.09h0a2.68,2.68,0,0,1,1.33-4.15Z"/><path class="cls-5" d="M47.55,234.91h0l2.39,7.44a2.68,2.68,0,0,0,4.15,1.33h0a2.67,2.67,0,0,0-.09-4.35Z"/><path class="cls-5" d="M48.1,231.12h0l4.42-6.45a2.67,2.67,0,0,1,4.35-.09h0a2.68,2.68,0,0,1-1.33,4.15Z"/><path class="cls-2" d="M232.5,239.11s57,2.33,56.86-40.21-74.94,22.84-74.94,22.84Z"/><path class="cls-2" d="M254.38,153.14l-1.19,4.57-10.57,40.54L242,200.6l-2.5,9.6-2.94,11.3-4.13,15.83-.35,1.38-1.21,4.62-.71,2.75-2.55,9.78c-.68,2.61-2.76,11.3-5.51,22.37H114.89v0l26.43-74.14,10.6-29.83h0l9.37-26.34h0l1-2.75h0l3.8-10.69,8.4,1.77h0l1.71.37h0l9.56,2,1.95.42h.09l5.85,1.24,26.49,5.62,21.27,4.5h0l3.85.82Z"/><path class="cls-2" d="M323.92,120.74a14.73,14.73,0,0,0-1.07-29L302.09,89a14.63,14.63,0,0,0-6.85.72l-24.7,8.73a14.73,14.73,0,1,0,9.83,27.77l21.36-7.55L319,120.92A14.82,14.82,0,0,0,323.92,120.74Z"/><path class="cls-2" d="M327.47,152.71a14.73,14.73,0,0,0,2.85-27.94l-19.22-8.31a14.8,14.8,0,0,0-6.79-1.18L278.17,117a14.73,14.73,0,0,0,1.89,29.4l22.6-1.45,16,6.9A14.62,14.62,0,0,0,327.47,152.71Z"/><path class="cls-2" d="M336.28,183a14.56,14.56,0,0,0,4.61-5.82,14.72,14.72,0,0,0-7.52-19.42l-19.16-8.46a14.77,14.77,0,0,0-6.78-1.23l-26.15,1.48A14.73,14.73,0,1,0,282.94,179l22.61-1.28,15.92,7A14.72,14.72,0,0,0,336.28,183Z"/><path class="cls-2" d="M272.89,97.78a14.51,14.51,0,0,0,3.5-1.2L296.1,86.9l25.86-9a14.73,14.73,0,1,0-9.68-27.82l-26.7,9.29a16.11,16.11,0,0,0-1.66.69L263.4,70.14a14.73,14.73,0,0,0,9.49,27.64Z"/><path class="cls-2" d="M267.15,77.85S192.59,8.49,160.88,149.72s85.56,8.9,83.49,7.48S267.15,77.85,267.15,77.85Z"/><path class="cls-6" d="M209.82,250a9.36,9.36,0,0,1-9.29-8L170.36,50.46a9.43,9.43,0,0,1,7.84-10.77L287.74,22.44a10.28,10.28,0,0,1,1.47-.11,9.37,9.37,0,0,1,9.3,8l30.16,191.6a9.42,9.42,0,0,1-7.84,10.77L211.3,249.89a9.11,9.11,0,0,1-1.47.12Z"/><path class="cls-3" d="M289.21,25.77a6,6,0,0,1,5.9,5.05l30.16,191.59a6,6,0,0,1-5,6.84L210.76,246.49a5.92,5.92,0,0,1-6.83-5L173.76,49.92a6,6,0,0,1,5-6.83L288.27,25.84a6,6,0,0,1,.94-.07Zm0-6.88a13.6,13.6,0,0,0-2,.15L177.67,36.29A12.87,12.87,0,0,0,167,51l30.17,191.6a12.84,12.84,0,0,0,12.7,10.86,12.26,12.26,0,0,0,2-.16l109.54-17.24a12.87,12.87,0,0,0,10.7-14.71L301.91,29.75a12.86,12.86,0,0,0-12.7-10.86Z"/><path class="cls-4" d="M315.71,203.09a.54.54,0,0,1-.54-.46L294.6,72a.54.54,0,1,1,1.07-.17l20.57,130.66a.54.54,0,0,1-.45.62Z"/><path class="cls-4" d="M211.88,241.11a.54.54,0,0,1-.08-1.08L269.45,231a.54.54,0,0,1,.62.45.55.55,0,0,1-.46.62L212,241.11Z"/><path class="cls-4" d="M188.34,214.32a.54.54,0,0,1-.53-.46L184,189.47a.54.54,0,0,1,1.07-.17l3.84,24.39a.53.53,0,0,1-.45.62Z"/><path class="cls-4" d="M180.81,166.48a.54.54,0,0,1-.53-.46l-17-108.17a.54.54,0,1,1,1.07-.17l17,108.17a.53.53,0,0,1-.45.62Z"/><path class="cls-4" d="M161.31,42.58a.54.54,0,0,1-.54-.46l-.56-3.58a6.75,6.75,0,0,1,5.62-7.72l9.63-1.52a.54.54,0,1,1,.17,1.07L166,31.89a5.68,5.68,0,0,0-4.72,6.48l.57,3.58a.54.54,0,0,1-.46.62Z"/><path class="cls-4" d="M250.09,18.64a.54.54,0,0,1-.08-1.08l20.9-3.29a.55.55,0,1,1,.17,1.08l-20.9,3.29Z"/><path class="cls-3" d="M212.43,248.68a9.82,9.82,0,0,1-6.48-2.46l0,0-.27-.25a9.75,9.75,0,0,1-2.54-4.1v0a10.16,10.16,0,0,1-.39-1.93l-.15-1.44v0l-.31-3.17-3.38-33.84v0l-4.46-44.73v0l-6-59.83a.87.87,0,0,1,1.73-.17l0,.49,5.93,59.35v0l4.47,44.74v0l3.7,37v0l.14,1.42a8.15,8.15,0,0,0,.32,1.56v0h0a7.9,7.9,0,0,0,2.09,3.38h0a2.09,2.09,0,0,0,.22.2l0,0a8.07,8.07,0,0,0,6.1,2h0l55.26-5.52a.87.87,0,0,1,.17,1.74l-55.25,5.51h0A7.72,7.72,0,0,1,212.43,248.68ZM332,205.88a.87.87,0,0,1-.86-.79l-5.45-54.53a.87.87,0,1,1,1.73-.18l5.45,54.54a.87.87,0,0,1-.78,1Zm-6.66-66.74a.87.87,0,0,1-.87-.78l-5.94-59.48v0l-4.85-48.59a8,8,0,0,0-8.78-7.18l-90.07,9a.87.87,0,0,1-.17-1.73l90.06-9a9.76,9.76,0,0,1,10.69,8.74l4.85,48.6v0l5.93,59.47a.87.87,0,0,1-.78.95ZM187.6,80.69a.87.87,0,0,1-.87-.78l-.12-1.16v0l-3-30.44a.87.87,0,0,1,1.74-.17l3,30.46v0l.11,1.14a.87.87,0,0,1-.78,1Z"/><path class="cls-7" d="M164.67,228.46a.61.61,0,0,0,.64-.41l8-24.73a.6.6,0,0,0-1.14-.37l-8,24.73a.6.6,0,0,0,.39.75Z"/><path class="cls-6" d="M178.49,193.26a.78.78,0,0,0,.86-.69l3.52-31.29a.78.78,0,1,0-1.55-.17L177.8,192.4A.78.78,0,0,0,178.49,193.26Z"/><path class="cls-2" d="M158.88,176.69A16.26,16.26,0,0,0,176,166l12.72-35.73,22.7-29.8a16.25,16.25,0,0,0-25.85-19.7l-24.23,31.81A16.48,16.48,0,0,0,159,117l-13.57,38.11a16.29,16.29,0,0,0,13.5,21.61Z"/><path class="cls-2" d="M186.14,127.69c-2,1.49,1.44,10.77,2,12.53,3.67,12.86,11.92,23.63,18.46,35.09,5.59,9.8,10.32,21.19,11.39,32.62,1.42,15.3-5.77,22.12-18.16,29.23l-7.42,8.16-44.42-1.73-3.61-15.07a109,109,0,0,1-1.53-43.28L144.7,158Z"/><path class="cls-3" d="M168.12,233.29a.71.71,0,0,0,.25-1.39,58.36,58.36,0,0,1-12.64-5.12C150,223.56,143,218,142.25,209.84a.71.71,0,0,0-1.42.12c.61,7,5.53,13.22,14.23,18.07a58.57,58.57,0,0,0,13,5.25Z"/><path class="cls-6" d="M202.7,86.5a9.79,9.79,0,0,0-7.21-8.09,9.92,9.92,0,0,0-4-.19h0a9.91,9.91,0,0,0-3.88,1.49,9.7,9.7,0,0,0-2,1.72l-4.18,4.76v0l-.11.13a3.8,3.8,0,0,0-.42.57,0,0,0,0,0,0,0,4.27,4.27,0,0,0-.58,2.82,4.17,4.17,0,0,0,1.25,2.44,4.48,4.48,0,0,0,.68.54l7.11,4.5,2.45,1.56a4.26,4.26,0,0,0,5.5-.82l3.15-3.68a9.84,9.84,0,0,0,2.36-6.13A10.16,10.16,0,0,0,202.7,86.5Zm-3.34,6.86L196.21,97a2.82,2.82,0,0,1-3.65.55L183,91.52a3.11,3.11,0,0,1-.69-.61,2.85,2.85,0,0,1,.08-3.64l4.3-4.9a8.29,8.29,0,0,1,3.16-2.24h0a8.6,8.6,0,0,1,5-.42,8.3,8.3,0,0,1,2.74,1.15,8.4,8.4,0,0,1,1.79,12.5Z"/><polygon class="cls-4" points="53.64 172.32 55.19 175.24 58.02 176.84 55.19 178.44 53.64 181.37 52.09 178.44 49.26 176.84 52.09 175.24 53.64 172.32"/><polygon class="cls-4" points="356.75 247.74 358.3 250.66 361.13 252.26 358.3 253.86 356.75 256.79 355.2 253.86 352.37 252.26 355.2 250.66 356.75 247.74"/><polygon class="cls-4" points="413.44 109.97 414.99 112.89 417.82 114.49 414.99 116.09 413.44 119.02 411.89 116.09 409.06 114.49 411.89 112.89 413.44 109.97"/><polygon class="cls-4" points="172.3 0 173.85 2.92 176.68 4.53 173.85 6.13 172.3 9.05 170.75 6.13 167.92 4.53 170.75 2.92 172.3 0"/><path class="cls-2" d="M89.36,122.17A.59.59,0,0,1,89,122a.58.58,0,0,1-.12-.6l3.93-10.21-10.42,3.73a.54.54,0,0,1-.58-.12.57.57,0,0,1-.15-.58l3.86-11.86a.56.56,0,0,1,.71-.36.56.56,0,0,1,.36.71L83,113.49l10.5-3.76a.58.58,0,0,1,.6.14.56.56,0,0,1,.12.59l-3.93,10.19,10.3-3.82a.56.56,0,1,1,.39,1l-11.46,4.26A.69.69,0,0,1,89.36,122.17Z"/><path class="cls-5" d="M105.5,45.54h0a8.13,8.13,0,0,1-8.12,8.12h0a8.13,8.13,0,0,1-8.13-8.12h0a8.13,8.13,0,0,1,8.13-8.13h0A8.13,8.13,0,0,1,105.5,45.54Z"/><path class="cls-2" d="M124.42,66.16h0a4.32,4.32,0,0,1-4.32,4.32h0a4.32,4.32,0,0,1-4.32-4.32h0a4.32,4.32,0,0,1,4.32-4.31h0A4.32,4.32,0,0,1,124.42,66.16Z"/><path class="cls-4" d="M112.79,61.1H98a.78.78,0,0,1-.79-.78V45.54a.79.79,0,0,1,.79-.79h14.78a.78.78,0,0,1,.78.79V60.32A.78.78,0,0,1,112.79,61.1Zm-14-1.57H112V46.32H98.79Z"/><path class="cls-3" d="M357.31,120.12a.57.57,0,0,1-.55-.41.58.58,0,0,1,.39-.72,24.84,24.84,0,0,0,6.88-3.16,10.2,10.2,0,0,1-3.22-2.34,3.47,3.47,0,0,1-1.15-3,3.23,3.23,0,0,1,1.85-2.12,4.67,4.67,0,0,1,4.08,0,3.8,3.8,0,0,1,2.08,2.77,4.93,4.93,0,0,1-1.38,4.31,7.67,7.67,0,0,0,3,.08,6.67,6.67,0,0,0,5.11-4.12.58.58,0,0,1,.76-.3.59.59,0,0,1,.31.76,7.8,7.8,0,0,1-6,4.8,9.15,9.15,0,0,1-4.16-.27,23.68,23.68,0,0,1-7.83,3.79ZM363.6,109a3.61,3.61,0,0,0-1.57.36,2.31,2.31,0,0,0-1.24,1.32,2.56,2.56,0,0,0,.88,2A8.77,8.77,0,0,0,365,115a4.1,4.1,0,0,0,1.5-3.73,2.65,2.65,0,0,0-1.46-1.94A3.3,3.3,0,0,0,363.6,109Z"/><path class="cls-1" d="M420.13,171.57H377.6a7.1,7.1,0,0,1-.09-1.6h0v-.13a.32.32,0,0,0,0-.08,15.11,15.11,0,0,1,.47-2.12,11.78,11.78,0,0,1,1.25-2.78,7.5,7.5,0,0,1,2.56-2.54,10.07,10.07,0,0,1,3.36-1.23,7.68,7.68,0,0,1,5.66,1.11c1,.7,2,1.78,3.26,2,2,.25,2.49-1.92,2.65-3.42.44-4,.78-10.35,5.72-11.52a2.76,2.76,0,0,1,2.23.36,7.06,7.06,0,0,1,2.45,3.75c.72,2.17,1.11,4.52,2,6.62a3.41,3.41,0,0,0,3.71,2.26,4.23,4.23,0,0,1,1.67.13,6.26,6.26,0,0,1,3.12,2.24,8.56,8.56,0,0,1,.76,1.16A21,21,0,0,1,420.13,171.57Z"/><path class="cls-1" d="M339.21,79.86h71.4c-.48-6-4.39-16.18-5.12-17.36-.29-.47-.55-.91-.77-1.25C401.39,56,392.2,52.43,388,58.77c-2.9,4.44-.48,13.08-6.52,15.28-6.93,2.54-8.67-6.57-9.29-11.24-.76-5.74-.63-11.62-2.32-17.21-.72-1.67-1.91-3.58-3.82-3.82a5,5,0,0,0-4.31,3.11c-2.12,5.15-2.7,10.7-3.47,16.16-.63,4.43-1.49,14.21-7.39,14.76-3.13.29-6-5.3-8.86-2.82C340.22,74.56,340.32,77.84,339.21,79.86Z"/><path class="cls-3" d="M110.16,189.41c-2.93,0-5.76-1.3-6.77-4.1a7.16,7.16,0,0,1-.39-1.76A8.75,8.75,0,0,1,99.55,181a7.92,7.92,0,0,1-1.94-4.21.6.6,0,0,1,.53-.63.58.58,0,0,1,.63.53,6.78,6.78,0,0,0,1.66,3.55,8.06,8.06,0,0,0,2.56,2,8.55,8.55,0,0,1,.17-1.31,3.93,3.93,0,0,1,1.51-2.69,2.72,2.72,0,0,1,2.94,0,2.69,2.69,0,0,1,1.11,2.71,3.27,3.27,0,0,1-1,1.73,4.17,4.17,0,0,1-3.14,1.15l-.33,0a6.1,6.1,0,0,0,.27,1.06c1.24,3.43,5.61,3.78,8.32,2.92a2.29,2.29,0,0,0,.28-.09,6.84,6.84,0,0,0,2-1.11.59.59,0,0,1,.82.09.57.57,0,0,1-.09.81,8.1,8.1,0,0,1-2.37,1.3l-.32.11A10.09,10.09,0,0,1,110.16,189.41Zm-6-6.74a3.93,3.93,0,0,0,.48.06,3,3,0,0,0,2.29-.84,2.13,2.13,0,0,0,.68-1.11,1.48,1.48,0,0,0-2.27-1.53,2.91,2.91,0,0,0-1,1.94A8.58,8.58,0,0,0,104.13,182.67Z"/><path class="cls-3" d="M468.7,278.78H440.79a.58.58,0,1,1,0-1.16H468.7a.58.58,0,0,1,0,1.16Z"/><path class="cls-3" d="M432,278.78H320.34a.58.58,0,0,1,0-1.16H432a.58.58,0,0,1,0,1.16Z"/><path class="cls-3" d="M303.64,278.81H211.31a.58.58,0,1,1,0-1.16h92.33a.58.58,0,0,1,0,1.16Z"/><path class="cls-3" d="M194.29,278.81H111.74a.58.58,0,0,1,0-1.16h82.55a.58.58,0,1,1,0,1.16Z"/><path class="cls-3" d="M121.23,278.78h-78a.58.58,0,1,1,0-1.16h78a.58.58,0,1,1,0,1.16Z"/><path class="cls-3" d="M26.23,278.78H.58a.58.58,0,0,1,0-1.16H26.23a.58.58,0,1,1,0,1.16Z"/><path class="cls-1" d="M214.55,123.63a36.58,36.58,0,0,0,7.87,22.73c.72.91,1.49,1.79,2.3,2.64a36.81,36.81,0,0,0,11.9,8.31,36.4,36.4,0,0,0,10.93,2.85c.73.08,1.47.13,2.22.16.49,0,1,0,1.49,0,1.23,0,2.45-.06,3.65-.18.9-.09,1.79-.21,2.68-.37a36.54,36.54,0,0,0,5.84-1.52,35.83,35.83,0,0,0,3.67-1.52c.64-.3,1.26-.62,1.87-1a36.72,36.72,0,1,0-54.42-32.17Z"/><path class="cls-5" d="M249.11,141.47l2.86,11.2.49,1.89c.49,0,1,0,1.49,0,1.23,0,2.45-.06,3.65-.18q1.35-.14,2.67-.36a36.68,36.68,0,0,0,5.85-1.53,33.72,33.72,0,0,0,3.67-1.52l-3.56-13.91Z"/><path class="cls-4" d="M227.4,143.24a36.88,36.88,0,0,0,11.91,8.32,36.32,36.32,0,0,0,10.92,2.84c.74.08,1.48.13,2.23.16.49,0,1,0,1.49,0,1.23,0,2.45-.06,3.65-.18q1.35-.14,2.67-.36a36.68,36.68,0,0,0,5.85-1.53,33.72,33.72,0,0,0,3.67-1.52c.63-.3,1.26-.62,1.87-1a22.4,22.4,0,0,0-8.84-18c-.3-.23-.6-.45-.91-.66s-.57-.37-.85-.54a22.7,22.7,0,0,0-10.94-3.34l-1,0-.79,0a22.59,22.59,0,0,0-10.6,3,22.85,22.85,0,0,0-10.34,12.72Z"/><path class="cls-2" d="M261.1,131.72l-.53-10.7-.48-6.88-.22-3.27a5.45,5.45,0,0,0-5.8-5.05,5.36,5.36,0,0,0-.7.1,5.43,5.43,0,0,0-4.27,4.31,5.81,5.81,0,0,0-.08,1.39l.79,11.54.32,4.5C250.33,130.65,261.31,134.72,261.1,131.72Z"/><polygon class="cls-6" points="248.54 123.53 263.11 131.69 261.1 134.14 248.11 132.24 248.54 123.53"/><path class="cls-2" d="M263.05,119.76h0a6.7,6.7,0,0,0,3.35-8.87l-2.29-5.07a8.83,8.83,0,0,0-11.69-4.42h0A8.85,8.85,0,0,0,248,113.1l.54,1.18A11,11,0,0,0,263.05,119.76Z"/><path class="cls-2" d="M263.54,107.15l5.39,4.19a.93.93,0,0,1-.33,1.64l-3.73,1Z"/><path class="cls-3" d="M255.33,106.4a9.6,9.6,0,0,1,0,2.47,3,3,0,0,1-2,2.12,13.47,13.47,0,0,1-4.16.46c-3,0-6.94-1.9-5.45-5.58a3.46,3.46,0,0,1,3.13-2.16,2.92,2.92,0,0,1-2.48-.77,2.27,2.27,0,0,1-.48-2.49,2.73,2.73,0,0,1,2.58-1.36,7.92,7.92,0,0,1,2.94.87,4.58,4.58,0,0,1,2.24-3.14,3.73,3.73,0,0,1,3.79.16,1.8,1.8,0,0,1,.75,1,.93.93,0,0,1-.48,1.06,2.76,2.76,0,0,1,5.12-1.8,2.42,2.42,0,0,1,.29,1,4.77,4.77,0,0,0-.32,1c1.39.23,4.17-1.39,2.55-3a4.39,4.39,0,0,1,4.17,2.31,3.62,3.62,0,0,1-.25,3.56c-1.48,2.38-4.46,2.83-7,3.27-1.45.25-4.32.93-4.32.93l-.54.15Z"/><path class="cls-5" d="M257.6,154.41q1.35-.14,2.67-.36a36.68,36.68,0,0,0,5.85-1.53l-3.32-3.31Z"/><path class="cls-6" d="M250.23,154.4c.74.08,1.48.13,2.23.16.49,0,1,0,1.49,0,1.23,0,2.45-.06,3.65-.18q1.35-.14,2.67-.36l-1.15-1.16-3.69-3.68Z"/><path class="cls-3" d="M267.19,113.41a3.85,3.85,0,0,0-1.89-.65,4.82,4.82,0,0,0-3.11.79c-1,.67-1.87,1.54-3.19,1.18a8.34,8.34,0,0,1-1.41-.61,17.34,17.34,0,0,1-3.13-2h0l-5.26,2.53c-.51.35,1.82,2.92,2.05,3.19a11.91,11.91,0,0,0,9.36,4.27,10.23,10.23,0,0,0,5.78-2C268.55,118.36,269.26,114.88,267.19,113.41Z"/><circle class="cls-2" cx="251.39" cy="112.08" r="4.17" transform="translate(-8.13 20.4) rotate(-4.57)"/><path class="cls-5" d="M225.11,140.6c.72.91,1.49,1.8,2.29,2.64a36.88,36.88,0,0,0,11.91,8.32l6.47-5.94a8.84,8.84,0,0,0-8-15.1,8.67,8.67,0,0,0-3.91,2.08Z"/><path class="cls-3" d="M254,155.17c-.53,0-1,0-1.52,0-.76,0-1.52-.08-2.25-.16A37.15,37.15,0,0,1,227,143.64c-.81-.85-1.59-1.75-2.33-2.68a37,37,0,0,1-8-23.08A37.32,37.32,0,0,1,265.3,82.34a.6.6,0,0,1,.38.73.58.58,0,0,1-.73.38,36.15,36.15,0,0,0-47.14,34.43,35.77,35.77,0,0,0,7.75,22.36c.72.9,1.48,1.78,2.26,2.6a36,36,0,0,0,22.47,11c.71.07,1.45.12,2.19.15q.71,0,1.47,0a35.66,35.66,0,0,0,3.59-.18c.88-.08,1.77-.2,2.63-.35a36.66,36.66,0,0,0,5.76-1.5,34.34,34.34,0,0,0,3.61-1.5c.62-.29,1.24-.61,1.84-.95a36.14,36.14,0,0,0,.29-63.15.58.58,0,1,1,.57-1,37.31,37.31,0,0,1-.3,65.18c-.62.34-1.26.67-1.9,1a37.36,37.36,0,0,1-9.67,3.09c-.89.15-1.8.28-2.72.37C256.44,155.11,255.19,155.17,254,155.17Z"/><circle class="cls-2" cx="286.87" cy="187.38" r="16.01" transform="translate(3.97 380.7) rotate(-67.5)"/><path class="cls-3" d="M283.06,201.18a.61.61,0,0,1,0-1.21,15.62,15.62,0,0,0,1.66-.19.6.6,0,0,1,.69.5.59.59,0,0,1-.49.69,17.83,17.83,0,0,1-1.79.21Zm-3.47-.17h-.09a15.5,15.5,0,0,1-1.77-.38.6.6,0,1,1,.32-1.16c.54.14,1.09.26,1.64.35a.6.6,0,0,1,.5.69A.61.61,0,0,1,279.59,201Zm8.54-1a.62.62,0,0,1-.56-.38.61.61,0,0,1,.33-.79,16.19,16.19,0,0,0,1.52-.71.61.61,0,0,1,.82.24.62.62,0,0,1-.25.82,15.09,15.09,0,0,1-1.63.77A.64.64,0,0,1,288.13,200Zm-13.47-.67a.58.58,0,0,1-.28-.07,16.3,16.3,0,0,1-1.55-.93.6.6,0,0,1-.16-.84.62.62,0,0,1,.84-.16,15.93,15.93,0,0,0,1.43.86.61.61,0,0,1,.26.82A.62.62,0,0,1,274.66,199.37Zm17.9-2.05a.58.58,0,0,1-.45-.21.6.6,0,0,1,.06-.85,14.7,14.7,0,0,0,1.21-1.16.6.6,0,0,1,.88.82c-.41.44-.85.86-1.3,1.26A.67.67,0,0,1,292.56,197.32Zm-22-1.09a.62.62,0,0,1-.44-.18,17.06,17.06,0,0,1-1.17-1.38.59.59,0,0,1,.11-.84.61.61,0,0,1,.85.11,14.49,14.49,0,0,0,1.08,1.27.61.61,0,0,1,0,.86A.57.57,0,0,1,270.52,196.23Zm25.38-2.89a.59.59,0,0,1-.31-.09.59.59,0,0,1-.21-.82,16.12,16.12,0,0,0,.77-1.49.6.6,0,0,1,1.1.5c-.25.55-.53,1.08-.83,1.6A.61.61,0,0,1,295.9,193.34Zm-28.31-1.4a.6.6,0,0,1-.55-.35,16.33,16.33,0,0,1-.67-1.68.6.6,0,0,1,1.14-.38,14,14,0,0,0,.63,1.55.6.6,0,0,1-.3.8A.57.57,0,0,1,267.59,191.94Zm30.19-3.45h-.12a.6.6,0,0,1-.47-.71,15.46,15.46,0,0,0,.25-1.66.6.6,0,0,1,1.2.12,15,15,0,0,1-.27,1.78A.6.6,0,0,1,297.78,188.49Zm-31.59-1.56a.6.6,0,0,1-.59-.54,15.39,15.39,0,0,1-.1-1.8c0-.49,0-1,.06-1.47a.61.61,0,0,1,1.21.1c0,.46-.06.92-.06,1.37a15.43,15.43,0,0,0,.09,1.67.61.61,0,0,1-.54.67ZM298,183.3a.6.6,0,0,1-.6-.53,15.39,15.39,0,0,0-.29-1.65.6.6,0,0,1,.46-.72.59.59,0,0,1,.72.45,15,15,0,0,1,.31,1.78.61.61,0,0,1-.53.67Zm-31.17-2.93a.57.57,0,0,1-.18,0,.6.6,0,0,1-.39-.76,17.17,17.17,0,0,1,.63-1.69.62.62,0,0,1,.8-.31.61.61,0,0,1,.31.8c-.22.51-.42,1-.59,1.57A.61.61,0,0,1,266.84,180.37Zm29.73-2.06A.62.62,0,0,1,296,178a14.82,14.82,0,0,0-.8-1.47.61.61,0,0,1,.2-.84.61.61,0,0,1,.83.2,17.3,17.3,0,0,1,.86,1.59.59.59,0,0,1-.28.8A.65.65,0,0,1,296.57,178.31Zm-27.37-2.57a.6.6,0,0,1-.36-.12.61.61,0,0,1-.13-.85,16.84,16.84,0,0,1,1.14-1.39.61.61,0,1,1,.89.82,14.84,14.84,0,0,0-1.06,1.29A.61.61,0,0,1,269.2,175.74Zm24.4-1.7a.62.62,0,0,1-.44-.18,13.18,13.18,0,0,0-1.23-1.13.63.63,0,0,1-.08-.86.6.6,0,0,1,.85-.07A15.38,15.38,0,0,1,294,173a.6.6,0,0,1,0,.85A.58.58,0,0,1,293.6,174Zm-20.69-1.94a.6.6,0,0,1-.35-1.1,15.1,15.1,0,0,1,1.53-1,.6.6,0,0,1,.58,1.06c-.48.27-1,.57-1.42.89A.6.6,0,0,1,272.91,172.1ZM289.42,171a.52.52,0,0,1-.27-.07c-.5-.25-1-.48-1.53-.68a.6.6,0,0,1,.43-1.13c.56.22,1.12.47,1.65.74a.6.6,0,0,1-.28,1.14Zm-11.83-1.11a.61.61,0,0,1-.17-1.19,14.82,14.82,0,0,1,1.75-.41.61.61,0,0,1,.22,1.19,14.84,14.84,0,0,0-1.63.38Zm6.89-.48h-.09a15.46,15.46,0,0,0-1.67-.15.61.61,0,1,1,0-1.21,17.77,17.77,0,0,1,1.79.17.61.61,0,0,1,.51.69A.59.59,0,0,1,284.48,169.36Z"/><path class="cls-6" d="M293.6,187.25,292.12,186a2.83,2.83,0,0,0-3.72,4.26l1.47,1.29a2.83,2.83,0,0,0,3.73-4.27Z"/><path class="cls-6" d="M283.66,178.58l-1.47-1.28a2.83,2.83,0,1,0-3.73,4.26l1.48,1.29a2.83,2.83,0,0,0,3.72-4.27Z"/><path class="cls-6" d="M292.7,192.59,277,178.91a3.37,3.37,0,0,0,.32,4.76l10.6,9.24a3.42,3.42,0,0,0,2.45.83A3.37,3.37,0,0,0,292.7,192.59Z"/><path class="cls-6" d="M293.6,187.25l-.41-.35-5.25,6a3.42,3.42,0,0,0,2.45.83,3.37,3.37,0,0,0,2.31-1.15l1.17-1.34a2.84,2.84,0,0,0-.27-4Z"/><path class="cls-6" d="M282.59,177.65l-.4-.35a2.83,2.83,0,0,0-4,.27L277,178.91a3.37,3.37,0,0,0,.32,4.76Z"/><circle class="cls-4" cx="235.88" cy="196.14" r="16.01" transform="translate(-32.84 48.15) rotate(-10.9)"/><path class="cls-3" d="M232.07,209.94a.61.61,0,0,1,0-1.21,13.18,13.18,0,0,0,1.66-.19.62.62,0,0,1,.7.5.6.6,0,0,1-.5.69,17.83,17.83,0,0,1-1.79.21Zm-3.46-.17h-.1a15.33,15.33,0,0,1-1.76-.38.6.6,0,1,1,.31-1.16c.54.14,1.09.26,1.64.35a.6.6,0,0,1,.5.69A.59.59,0,0,1,228.61,209.77Zm8.53-1a.63.63,0,0,1-.56-.38.62.62,0,0,1,.34-.79c.51-.21,1-.45,1.51-.71a.61.61,0,0,1,.82.24.6.6,0,0,1-.25.82,13.49,13.49,0,0,1-1.63.77A.59.59,0,0,1,237.14,208.8Zm-13.47-.67a.58.58,0,0,1-.28-.07,16.3,16.3,0,0,1-1.55-.93.6.6,0,0,1,.68-1A14.79,14.79,0,0,0,224,207a.61.61,0,0,1-.29,1.14Zm17.91-2a.6.6,0,0,1-.4-1.06,13.26,13.26,0,0,0,1.21-1.16.6.6,0,1,1,.88.83c-.41.43-.84.85-1.3,1.25A.62.62,0,0,1,241.58,206.08ZM219.53,205a.63.63,0,0,1-.44-.19c-.41-.44-.8-.9-1.17-1.37a.61.61,0,0,1,1-.74A14.6,14.6,0,0,0,220,204a.61.61,0,0,1,0,.86A.63.63,0,0,1,219.53,205Zm25.38-2.9a.55.55,0,0,1-.3-.09.6.6,0,0,1-.22-.82,14.07,14.07,0,0,0,.78-1.49.59.59,0,0,1,.79-.3.61.61,0,0,1,.31.8,16.24,16.24,0,0,1-.84,1.6A.6.6,0,0,1,244.91,202.1Zm-28.31-1.4a.62.62,0,0,1-.55-.35c-.25-.54-.47-1.11-.67-1.67a.62.62,0,0,1,.38-.77.6.6,0,0,1,.77.38,16.15,16.15,0,0,0,.62,1.55.6.6,0,0,1-.29.8A.62.62,0,0,1,216.6,200.7Zm30.19-3.45h-.12a.6.6,0,0,1-.47-.71,15.48,15.48,0,0,0,.26-1.66.6.6,0,1,1,1.2.12,17.35,17.35,0,0,1-.27,1.78A.61.61,0,0,1,246.79,197.25Zm-31.58-1.56a.6.6,0,0,1-.6-.54,17.93,17.93,0,0,1-.1-1.8,14.46,14.46,0,0,1,.07-1.47.6.6,0,0,1,1.2.1c0,.46-.06.92-.06,1.37a15.43,15.43,0,0,0,.09,1.67.6.6,0,0,1-.54.67ZM247,192.06a.6.6,0,0,1-.6-.53,15.36,15.36,0,0,0-.28-1.65.6.6,0,0,1,1.17-.27,15,15,0,0,1,.31,1.78.61.61,0,0,1-.53.67Zm-31.16-2.93a.57.57,0,0,1-.18,0,.61.61,0,0,1-.4-.76,17.24,17.24,0,0,1,.64-1.69.6.6,0,0,1,1.1.49c-.22.51-.42,1-.59,1.57A.6.6,0,0,1,215.86,189.13Zm29.72-2.06a.61.61,0,0,1-.54-.34,13.08,13.08,0,0,0-.81-1.47.61.61,0,0,1,.2-.83.6.6,0,0,1,.83.19,16.35,16.35,0,0,1,.87,1.59.6.6,0,0,1-.29.8A.58.58,0,0,1,245.58,187.07Zm-27.37-2.57a.6.6,0,0,1-.36-.12.61.61,0,0,1-.13-.84,15.56,15.56,0,0,1,1.15-1.4.6.6,0,0,1,.85,0,.61.61,0,0,1,0,.86,14.53,14.53,0,0,0-1.06,1.29A.63.63,0,0,1,218.21,184.5Zm24.4-1.69a.61.61,0,0,1-.43-.19,14.57,14.57,0,0,0-1.23-1.13.6.6,0,0,1-.08-.85.59.59,0,0,1,.85-.08,15.26,15.26,0,0,1,1.32,1.22.61.61,0,0,1-.43,1Zm-20.69-1.95a.58.58,0,0,1-.49-.26.6.6,0,0,1,.14-.84c.49-.34,1-.67,1.53-1a.61.61,0,0,1,.59,1.06,14.73,14.73,0,0,0-1.42.89A.66.66,0,0,1,221.92,180.86Zm16.52-1.15a.55.55,0,0,1-.28-.07,16.16,16.16,0,0,0-1.53-.68.6.6,0,1,1,.43-1.13c.56.22,1.12.47,1.65.74a.6.6,0,0,1-.27,1.14ZM226.6,178.6a.61.61,0,0,1-.17-1.19,16.7,16.7,0,0,1,1.76-.41.6.6,0,0,1,.21,1.19c-.55.1-1.1.23-1.63.38A.51.51,0,0,1,226.6,178.6Zm6.89-.48h-.09a13.3,13.3,0,0,0-1.67-.16.6.6,0,0,1-.58-.63.62.62,0,0,1,.63-.58,18,18,0,0,1,1.8.17.6.6,0,0,1-.09,1.2Z"/><path class="cls-6" d="M225.75,199.28l1.95,0a2.84,2.84,0,0,0-.07-5.67l-1.95,0a2.83,2.83,0,1,0,.07,5.66Z"/><path class="cls-6" d="M238.94,199.12l1.95,0a2.83,2.83,0,1,0-.07-5.66l-2,0a2.83,2.83,0,0,0-1.93,4.86A2.81,2.81,0,0,0,238.94,199.12Z"/><path class="cls-6" d="M222.86,194.71l20.81-.27a3.39,3.39,0,0,0-3.42-3.33l-14.06.18a3.34,3.34,0,0,0-2.37,1A3.39,3.39,0,0,0,222.86,194.71Z"/><path class="cls-6" d="M225.75,199.28h.54l-.1-8a3.34,3.34,0,0,0-2.37,1,3.39,3.39,0,0,0-1,2.4l0,1.78a2.83,2.83,0,0,0,2.87,2.79Z"/><path class="cls-6" d="M240.36,199.1h.53a2.84,2.84,0,0,0,2.8-2.87l0-1.78a3.39,3.39,0,0,0-3.42-3.33Z"/></g></g></svg>