<svg xmlns="http://www.w3.org/2000/svg" viewBox="0 0 948.31 501.27"><defs><style>.cls-1{fill:#dce5f7;}.cls-2{fill:#ddbaba;}.cls-3{fill:#282828;}.cls-4{fill:#dd9b9b;}.cls-5{fill:#a88e8e;}.cls-6{fill:#fff;}.cls-7{fill:#eeeff9;}</style></defs><title>Asset 4</title><g id="Layer_2" data-name="Layer 2"><g id="Layer_2-2" data-name="Layer 2"><polygon class="cls-1" points="375.94 25.04 378.02 21.19 405.79 30.24 403.72 34.09 375.94 25.04"/><path class="cls-1" d="M353.31,45.18a11.28,11.28,0,0,1-4.78-5,7.38,7.38,0,0,1-.8-4.11,6.09,6.09,0,0,1,2.77-4.42,7.73,7.73,0,0,1,6.37-.87c.46.14,2.47,1.1,3.63,1.68s1.88.94,2.4,1.23l12.73-23.09L381.12.49a1,1,0,0,1,1.14-.44l39.16,13.71a1,1,0,0,1,.53,1.32c-17.65,35-19.12,37.9-19.25,38.15h0a12.77,12.77,0,0,1-8.17,6.46,11.19,11.19,0,0,1-9.26-1.53c-3.46-2.38-5.92-7-3.65-10.93,2.92-5,8.8-2.69,11.31-1.69l.85.37c.62.27,2,.87,2.82,1.21,1.82-3.54,9.74-18.88,11.83-22.92l-25.77-8.84q-1.47,2.64-3,5.28c-3.29,5.91-6.7,12-9.79,18.12-2.22,4.4-7.06,8.47-12.86,7.66A11,11,0,0,1,353.31,45.18Zm9.08-10.56,0,.06,0,0Zm40.3,18.64Z"/><polygon class="cls-1" points="664.52 51.04 662.92 48.48 677.86 34.89 679.46 37.45 664.52 51.04"/><path class="cls-1" d="M668.88,71.53a7.75,7.75,0,0,1-4.63,1.16,5,5,0,0,1-2.74-.92,4.2,4.2,0,0,1-1.71-3.18,5.33,5.33,0,0,1,1.66-4.12c.24-.23,1.5-1.11,2.25-1.61s1.21-.8,1.56-1c-.74-1.22-2.95-4.83-9.52-15.55l-4.2-6.77a.65.65,0,0,1,.13-.84l21.63-18.83a.64.64,0,0,1,.51-.15.62.62,0,0,1,.46.29l16.33,24.61h0a8.83,8.83,0,0,1,1.09,7.12,7.73,7.73,0,0,1-4.09,5c-2.61,1.27-6.24,1.15-7.82-1.55-2-3.48,1.4-6.21,2.86-7.37l.51-.38c.38-.28,1.2-.9,1.69-1.29-1.49-2.3-8-12.31-9.72-14.94L661,43.69c.73,1.19,1.45,2.39,2.17,3.58,2.42,4,4.92,8.14,7.54,12.09,1.88,2.83,2.67,7.13.2,10.34A7.54,7.54,0,0,1,668.88,71.53Zm-3.23-9.07,0,0,0,0Zm25-17.83h0Z"/><path class="cls-2" d="M171.12,481.59c6,6.05,13.32,8.46,16.43,5.4s.79-10.46-5.18-16.51c-4.13-4.18-10.41-5.16-13.89-5.37a2.4,2.4,0,0,0-2.54,2.52C166.1,471.11,167,477.4,171.12,481.59Z"/><path class="cls-3" d="M195.21,500.5a.89.89,0,0,1-.89-.83,373.92,373.92,0,0,1-.16-37.53c.85-19.76,3.63-48.32,12-72.17a.88.88,0,0,1,1.14-.55.9.9,0,0,1,.55,1.14c-15.91,45.28-11.8,108.35-11.76,109a.9.9,0,0,1-.83,1Z"/><path class="cls-3" d="M189.2,500.5h0a.9.9,0,0,1-.89-.91c.36-29.32-7.83-46.94-14-57.65a.9.9,0,0,1,1.55-.9c6.3,10.89,14.63,28.81,14.27,58.58A.88.88,0,0,1,189.2,500.5Z"/><path class="cls-2" d="M206.84,408.65c-1.17,5-4.2,8.58-6.77,8s-3.71-5.14-2.54-10.15c.81-3.46,3.74-6,5.47-7.16a1.46,1.46,0,0,1,2.11.5C206.12,401.66,207.65,405.19,206.84,408.65Z"/><path class="cls-4" d="M225.07,394.35a3.49,3.49,0,0,0-2.4-5.32h0a6.64,6.64,0,0,0-6.95,3.14L207.19,408a5.21,5.21,0,0,1-5.77,2.6h0a5.2,5.2,0,0,1-4-4.89l-.64-18a6.63,6.63,0,0,0-4.84-5.89h0a4.64,4.64,0,0,0-4.47,4.8s.8,23.74.85,24.22l0,.22a9.68,9.68,0,0,0,7.41,8.15l6.93,1.62a9.71,9.71,0,0,0,10.25-4h0Z"/><path class="cls-5" d="M167.71,426.46h0l5.51-10.73a4.14,4.14,0,0,0-3.08-6h0a4.14,4.14,0,0,0-4.66,4.85Z"/><path class="cls-5" d="M163,430h0l-11.87,2.22a4.13,4.13,0,0,1-4.84-4.66h0a4.13,4.13,0,0,1,6-3.08Z"/><path class="cls-5" d="M166.35,434.53h0l-5.51,10.74a4.13,4.13,0,0,0,3.08,6h0a4.12,4.12,0,0,0,4.65-4.84Z"/><path class="cls-5" d="M171.09,431h0L183,428.78a4.13,4.13,0,0,1,4.85,4.65h0a4.13,4.13,0,0,1-6,3.08Z"/><path class="cls-5" d="M164.66,427.17h0L161,415.68a4.13,4.13,0,0,0-6.4-2.05h0a4.13,4.13,0,0,0,.14,6.72Z"/><path class="cls-5" d="M163.8,433h0L157,443a4.12,4.12,0,0,1-6.71.14h0a4.13,4.13,0,0,1,2-6.4Z"/><path class="cls-5" d="M169.4,433.83h0l3.7,11.49a4.13,4.13,0,0,0,6.4,2.05h0a4.13,4.13,0,0,0-.14-6.72Z"/><path class="cls-5" d="M170.25,428h0l6.82-10a4.14,4.14,0,0,1,6.72-.13h0a4.13,4.13,0,0,1-2,6.4Z"/><path class="cls-1" d="M825.4,151.76H935.59c-.74-9.23-6.77-25-7.9-26.78-.45-.74-.85-1.42-1.18-2-5.15-8.16-19.34-13.6-25.75-3.81-4.47,6.84-.75,20.17-10.07,23.58-10.69,3.91-13.38-10.15-14.33-17.35-1.17-8.86-1-17.94-3.59-26.56-1.1-2.58-2.95-5.53-5.9-5.89a7.65,7.65,0,0,0-6.64,4.79c-3.27,7.94-4.17,16.51-5.36,24.95-1,6.83-2.3,21.93-11.4,22.77-4.83.45-9.2-8.17-13.67-4.35C827,143.58,827.11,148.65,825.4,151.76Z"/><path class="cls-3" d="M294.7,467.28a5.73,5.73,0,0,1-5.58-4.47,31.93,31.93,0,0,1-.79-7.1v-24a5.73,5.73,0,1,1,11.45,0v24a20.61,20.61,0,0,0,.51,4.58,5.73,5.73,0,0,1-4.33,6.85A6,6,0,0,1,294.7,467.28Z"/><path class="cls-3" d="M449.21,483.07H320.53a27.36,27.36,0,0,1-26.7-21.32.9.9,0,0,1,1.75-.4,25.74,25.74,0,0,0,24.95,19.93H449.21a25.6,25.6,0,0,0,25.58-25.57V383a.9.9,0,0,1,1.79,0v72.74A27.39,27.39,0,0,1,449.21,483.07Z"/><path class="cls-3" d="M475.69,388.7A5.72,5.72,0,0,1,470,383V324.86a5.73,5.73,0,1,1,11.45,0V383A5.72,5.72,0,0,1,475.69,388.7Z"/><path class="cls-3" d="M656.67,467.28a5.49,5.49,0,0,1-1.26-.15,5.72,5.72,0,0,1-4.33-6.84,20.68,20.68,0,0,0,.51-4.58v-24a5.73,5.73,0,1,1,11.45,0v24a32.52,32.52,0,0,1-.78,7.1A5.74,5.74,0,0,1,656.67,467.28Z"/><path class="cls-3" d="M630.84,483.07H502.16a28.23,28.23,0,0,1-5.52-.55.9.9,0,0,1,.36-1.76,25.45,25.45,0,0,0,5.16.52H630.84a25.76,25.76,0,0,0,25-19.93.89.89,0,1,1,1.74.39,27.36,27.36,0,0,1-26.7,21.33Z"/><path class="cls-3" d="M484.27,476.11a.93.93,0,0,1-.61-.23,27.46,27.46,0,0,1-8.87-20.17v-74a.9.9,0,0,1,1.79,0v74a25.66,25.66,0,0,0,8.29,18.85.89.89,0,0,1,.06,1.26A.91.91,0,0,1,484.27,476.11Z"/><path class="cls-1" d="M243.81,86.89h-199A27.91,27.91,0,0,1,45,82.13h0a42.85,42.85,0,0,1,5.16-15.2c4.21-7.42,10.51-12.9,17.6-11.21a15.61,15.61,0,0,1,6.68,3.73c3.41,3,6.16,6.73,9.54,9.78s7.7,5.52,12.24,5.19c5.69-.42,9.78-5.51,10.63-10.87,2.05-12.9,1.92-38.38,18.05-41.91.3-.07.61-.13.91-.18,13.78-2.36,23.28,11.11,26.95,23.17a41,41,0,0,1,1,4,51.82,51.82,0,0,1,1.16,10.08c0,.22.05.44.08.66.11.93.23,1.86.39,2.77a22,22,0,0,0,1.91,6.28A2.81,2.81,0,0,0,159,70.12c2.2.53,4-2,5.3-4.05.36-.57.67-1.1.93-1.51,4-6.34,15-10.58,20-3,3.48,5.32.58,15.69,7.83,18.33,8.3,3,10.4-7.88,11.14-13.49.9-6.88.75-13.93,2.78-20.63.86-2,2.29-4.3,4.59-4.59a5.94,5.94,0,0,1,5.16,3.73c2.54,6.17,3.24,12.83,4.17,19.39.76,5.31,1.79,17,8.86,17.7,3.75.35,7.15-6.35,10.63-3.38C242.59,80.53,242.48,84.47,243.81,86.89Z"/><path class="cls-2" d="M883.72,451.44c8.67,4.86,13.67,12.41,11.18,16.87s-11.56,4.13-20.23-.73c-6-3.37-9-10.15-10.35-14a2.81,2.81,0,0,1,2-3.65C870.34,449,877.72,448.08,883.72,451.44Z"/><path class="cls-2" d="M918.76,454.15c-4.9,5-10.93,6.94-13.48,4.43s-.65-8.58,4.25-13.54c3.38-3.44,8.54-4.24,11.39-4.41A2,2,0,0,1,923,442.7C922.88,445.55,922.15,450.71,918.76,454.15Z"/><path class="cls-3" d="M898.4,500.64a.89.89,0,0,1-.89-.89,221.17,221.17,0,0,0-9-60.71.9.9,0,0,1,1.72-.5,222.89,222.89,0,0,1,9.07,61.21A.89.89,0,0,1,898.4,500.64Z"/><path class="cls-3" d="M887.12,432.24a.9.9,0,0,1-.86-.62,230.75,230.75,0,0,0-15.65-38,.89.89,0,0,1,.34-1.21.9.9,0,0,1,1.22.34c.09.15,8.45,15.26,15.8,38.28a.9.9,0,0,1-.58,1.13A.84.84,0,0,1,887.12,432.24Z"/><circle class="cls-4" cx="875.3" cy="404.34" r="16.82" transform="translate(386.68 1235.53) rotate(-84.35)"/><path class="cls-2" d="M902,500.64a.89.89,0,0,1-.89-.87c0-.53-.88-52.58,12.27-90a.9.9,0,0,1,1.69.59c-13,37.13-12.18,88.87-12.17,89.39a.89.89,0,0,1-.88.91Z"/><polygon class="cls-5" points="928.58 413.62 916.69 401.72 900.44 406.08 896.09 422.32 907.98 434.21 924.23 429.86 928.58 413.62"/><path class="cls-6" d="M875.3,406.53c-9,0-18.14-2.12-18.14-6.17a.9.9,0,0,1,1.79,0c0,1.83,6.22,4.38,16.35,4.38s16.35-2.55,16.35-4.38a.9.9,0,0,1,1.79,0C893.44,404.41,884.31,406.53,875.3,406.53Z"/><path class="cls-6" d="M875.3,406.53c-9,0-18.14-2.12-18.14-6.17a.9.9,0,0,1,1.79,0c0,1.83,6.22,4.38,16.35,4.38s16.35-2.55,16.35-4.38a.9.9,0,0,1,1.79,0C893.44,404.41,884.31,406.53,875.3,406.53Z"/><path class="cls-6" d="M889.23,411a15.44,15.44,0,0,1-3.48-.46,44,44,0,0,1-11.57-4.85c-7.81-4.5-14.66-10.9-12.64-14.4a.9.9,0,1,1,1.55.9c-.91,1.58,3.21,6.89,12,11.95a42.56,42.56,0,0,0,11.09,4.66c3.32.77,4.91.33,5.25-.28a.9.9,0,0,1,1.56.9C892.36,410.48,891.09,411,889.23,411Z"/><path class="cls-6" d="M889.23,411a15.44,15.44,0,0,1-3.48-.46,44,44,0,0,1-11.57-4.85c-7.81-4.5-14.66-10.9-12.64-14.4a.9.9,0,1,1,1.55.9c-.91,1.58,3.21,6.89,12,11.95a42.56,42.56,0,0,0,11.09,4.66c3.32.77,4.91.33,5.25-.28a.9.9,0,0,1,1.56.9C892.36,410.48,891.09,411,889.23,411Z"/><path class="cls-6" d="M896.09,423.22a.89.89,0,0,1-.23-1.76l32.49-8.71a.9.9,0,0,1,.46,1.73l-32.49,8.71Z"/><path class="cls-6" d="M912.33,418.86a.87.87,0,0,1-.63-.26l-11.89-11.89a.9.9,0,0,1,0-1.27.89.89,0,0,1,1.26,0l11.9,11.9a.89.89,0,0,1-.64,1.52Z"/><path class="cls-5" d="M811.82,481.34v19h31.93V495.7a4.2,4.2,0,0,0-2.22-3.71l-3.84-2.05-4.39-2.34-2.52-7-.16-.43-6.83.43-.86.05Z"/><rect class="cls-4" x="811.82" y="496.16" width="31.93" height="4.18" transform="translate(1655.58 996.5) rotate(180)"/><path class="cls-4" d="M811.82,483.41v10.45a5.36,5.36,0,0,0,.7.05,5.28,5.28,0,0,0,0-10.55A5.36,5.36,0,0,0,811.82,483.41Z"/><path class="cls-5" d="M775.74,481.34v19H743.81V495.7A4.2,4.2,0,0,1,746,492l3.84-2.05,4.39-2.34,2.52-7,.16-.43,6.83.43.86.05Z"/><rect class="cls-2" x="725.16" y="421.56" width="97.5" height="20.93" transform="translate(224.64 1127.64) rotate(-80.88)"/><rect class="cls-2" x="800.64" y="382.84" width="20.93" height="97.68" transform="translate(-70.67 173.39) rotate(-11.7)"/><path class="cls-4" d="M756.2,384.6a7.6,7.6,0,0,1-6.3-3.36l-25.21-37.63a7.58,7.58,0,1,1,12.6-8.44l18.83,28.1,2.39-3.68a7.58,7.58,0,1,1,12.7,8.28l-8.66,13.29a7.58,7.58,0,0,1-6.3,3.44Z"/><polygon class="cls-4" points="764.89 479.48 764.88 479.53 762.47 489.94 749.87 489.94 754.26 487.6 757.03 479.48 764.89 479.48"/><rect class="cls-3" x="762.86" y="352.45" width="8.83" height="15.16" transform="translate(46.59 806.08) rotate(-56.89)"/><polygon class="cls-4" points="822.67 479.48 822.68 479.53 825.09 489.94 837.69 489.94 833.3 487.6 830.53 479.48 822.67 479.48"/><path class="cls-3" d="M772.29,370.92a2.38,2.38,0,0,1-1.3-.39l-13.23-8.45a2.43,2.43,0,1,1,2.61-4.09l13.23,8.45a2.43,2.43,0,0,1-1.31,4.48Z"/><path class="cls-3" d="M769.68,363.91a7.48,7.48,0,0,1-4.13-1.23,7.57,7.57,0,0,1-2.21-10.49l3.74-5.74a7.58,7.58,0,1,1,12.7,8.28L776,360.47A7.57,7.57,0,0,1,769.68,363.91Z"/><path class="cls-2" d="M799.53,394.1H783.05a9.1,9.1,0,1,1,0-18.19h16.48a9.1,9.1,0,1,1,0,18.19Z"/><path class="cls-3" d="M811.1,382.78H771.9l-5.4-30.29a9.26,9.26,0,0,1,9.11-10.88h31.78a9.26,9.26,0,0,1,9.11,10.88Z"/><path class="cls-4" d="M790.5,345.94a4.66,4.66,0,0,0,5.22-4l.43-3.32.22-1.71.75-5.86.36-2.79a4.67,4.67,0,0,0-4-5.22l-.6,0a4.65,4.65,0,0,0-4.32,2.91,4.4,4.4,0,0,0-.3,1.16l-.54,4.17-.72,5.66-.5,3.84A4.68,4.68,0,0,0,790.5,345.94Z"/><path class="cls-3" d="M789.18,331.31c.88,4,2.85,7,7,7.28l.22-1.71.75-5.86.36-2.79a4.67,4.67,0,0,0-4-5.22l-.6,0a4.65,4.65,0,0,0-4.32,2.91,4.4,4.4,0,0,0-.3,1.16Z"/><path class="cls-4" d="M798.67,336.25h0a5.76,5.76,0,0,0,4.3-6.91l-1.07-4.65a7.59,7.59,0,0,0-9.1-5.67h0a7.59,7.59,0,0,0-5.68,9.1l.26,1.08A9.41,9.41,0,0,0,798.67,336.25Z"/><path class="cls-2" d="M831.57,482.18H810.43a2.68,2.68,0,0,1,0-5.35h21.14a2.68,2.68,0,1,1,0,5.35Z"/><path class="cls-2" d="M776.23,482.18H755.54a2.68,2.68,0,1,1,0-5.35h20.69a2.68,2.68,0,0,1,0,5.35Z"/><path class="cls-4" d="M801.36,324.86l3.84,4.43a.8.8,0,0,1-.56,1.32l-3.3.21Z"/><circle class="cls-3" cx="801.78" cy="318.45" r="4.72" transform="translate(9.66 660.22) rotate(-45)"/><circle class="cls-3" cx="795.45" cy="318.38" r="3.34" transform="translate(7.85 655.72) rotate(-45)"/><path class="cls-3" d="M789.07,323.17h12.3a3,3,0,0,0,3-3h0a3,3,0,0,0-3-3h-12.3a3,3,0,0,0-3,3h0A3,3,0,0,0,789.07,323.17Z"/><polygon class="cls-3" points="786.1 329.06 791.41 329.06 793.71 320.17 786.1 320.17 786.1 329.06"/><circle class="cls-4" cx="788.73" cy="328.13" r="3.58" transform="translate(-34.18 98.83) rotate(-7.02)"/><path class="cls-4" d="M830.76,413.62a7.59,7.59,0,0,1-7.14-5l-15.08-42.12a7.58,7.58,0,0,1,14.28-5.11l15.08,42.12a7.58,7.58,0,0,1-4.58,9.69A7.68,7.68,0,0,1,830.76,413.62Z"/><rect class="cls-3" x="806.58" y="355.35" width="15.16" height="8.83" transform="translate(-74.12 302.72) rotate(-20.17)"/><path class="cls-3" d="M812.64,363.2a7.59,7.59,0,0,1-7.12-5l-2.36-6.43a7.58,7.58,0,1,1,14.23-5.22l2.36,6.43a7.59,7.59,0,0,1-4.5,9.73A7.72,7.72,0,0,1,812.64,363.2Z"/><path class="cls-3" d="M808.62,369.09a2.43,2.43,0,0,1-.85-4.7l14.16-5.26a2.43,2.43,0,1,1,1.69,4.55l-14.16,5.26A2.48,2.48,0,0,1,808.62,369.09Z"/><rect class="cls-4" x="743.81" y="496.16" width="31.93" height="4.18"/><path class="cls-4" d="M775.74,483.41v10.45a5.36,5.36,0,0,1-.7.05,5.28,5.28,0,0,1,0-10.55A5.36,5.36,0,0,1,775.74,483.41Z"/><path class="cls-3" d="M791,392h-2.75a.88.88,0,0,1-.87-.79l-.87-7.85a.88.88,0,0,1,.78-1,.89.89,0,0,1,1,.78l.77,7.07h2a.88.88,0,1,1,0,1.76Z"/><path class="cls-3" d="M780.28,387.3H771a.89.89,0,0,1,0-1.77h9.32a.89.89,0,0,1,0,1.77Z"/><path class="cls-3" d="M812.43,387.3h-9.31a.89.89,0,0,1,0-1.77h9.31a.89.89,0,0,1,0,1.77Z"/><path class="cls-3" d="M762.47,490.82h-12.6a.88.88,0,0,1,0-1.76h12.6a.88.88,0,0,1,0,1.76Z"/><path class="cls-3" d="M837.69,490.82h-12.6a.88.88,0,0,1,0-1.76h12.6a.88.88,0,0,1,0,1.76Z"/><circle class="cls-6" cx="783.77" cy="363.33" r="5.97" transform="translate(250.08 1042.66) rotate(-76.72)"/><circle class="cls-6" cx="795.9" cy="363.33" r="5.97" transform="translate(309.77 1090.75) rotate(-80.78)"/><rect class="cls-5" x="784.14" y="358.07" width="10.26" height="10.26" transform="translate(488 -451.72) rotate(45)"/><path class="cls-4" d="M726.4,343.68a2.69,2.69,0,0,1-2.23-1.19l-6.21-9.2a2.69,2.69,0,0,1,4.45-3l6.21,9.21a2.68,2.68,0,0,1-2.22,4.19Z"/><path class="cls-4" d="M729.23,339a2.7,2.7,0,0,1-2.28-1.26l-6.86-11a2.69,2.69,0,0,1,4.56-2.85l6.86,11a2.69,2.69,0,0,1-.86,3.7A2.63,2.63,0,0,1,729.23,339Z"/><path class="cls-4" d="M733.13,336.6a2.68,2.68,0,0,1-2.38-1.43l-4.94-9.36a2.69,2.69,0,0,1,4.76-2.51l4.93,9.36a2.68,2.68,0,0,1-2.37,3.94Z"/><path class="cls-4" d="M734.88,339.3a2.66,2.66,0,0,1-1.56-.5,2.69,2.69,0,0,1-.62-3.75l1-1.43-1.56-.9a2.69,2.69,0,0,1,2.69-4.65l4.12,2.39a2.65,2.65,0,0,1,1.28,1.76,2.69,2.69,0,0,1-.44,2.13l-2.75,3.83A2.67,2.67,0,0,1,734.88,339.3Z"/><path class="cls-4" d="M838.82,417.91a2.68,2.68,0,0,1-2.56-1.88l-3.35-10.59a2.69,2.69,0,1,1,5.12-1.62l3.35,10.59a2.68,2.68,0,0,1-1.75,3.37A2.54,2.54,0,0,1,838.82,417.91Z"/><path class="cls-4" d="M834.9,423.42a2.69,2.69,0,0,1-2.59-2L828.85,409a2.69,2.69,0,0,1,5.18-1.44L837.49,420a2.67,2.67,0,0,1-1.87,3.3A2.55,2.55,0,0,1,834.9,423.42Z"/><path class="cls-4" d="M829.08,422.56a2.69,2.69,0,0,1-2.63-2.16L824.38,410a2.69,2.69,0,0,1,5.27-1l2.07,10.37a2.68,2.68,0,0,1-2.11,3.16A2.32,2.32,0,0,1,829.08,422.56Z"/><path class="cls-4" d="M823.15,415.72a2.55,2.55,0,0,1-.72-.1,2.67,2.67,0,0,1-1.87-3.3l1.81-6.6a2.69,2.69,0,0,1,5.18,1.43l-1.82,6.59A2.67,2.67,0,0,1,823.15,415.72Z"/><path class="cls-2" d="M56.21,414.45a7.79,7.79,0,0,1-1.65-.18,7.71,7.71,0,0,1-5.88-9.16l1.07-4.88a7.7,7.7,0,1,1,15,3.28l-1.07,4.88A7.69,7.69,0,0,1,56.21,414.45Z"/><path class="cls-2" d="M44.49,415a2.73,2.73,0,0,1-1.9-4.69l8.09-7.86a2.73,2.73,0,0,1,3.8,3.91l-8.09,7.86A2.71,2.71,0,0,1,44.49,415Z"/><path class="cls-2" d="M45.34,421.85a2.73,2.73,0,0,1-2-4.61l9.09-9.48a2.73,2.73,0,0,1,3.94,3.77L47.3,421A2.7,2.7,0,0,1,45.34,421.85Z"/><path class="cls-2" d="M51,423.88a2.67,2.67,0,0,1-1.74-.63,2.72,2.72,0,0,1-.36-3.83l6.84-8.28a2.73,2.73,0,1,1,4.21,3.47l-6.85,8.28A2.73,2.73,0,0,1,51,423.88Z"/><path class="cls-3" d="M34.92,478l3.55,3.22,4.83-2.56,2.45,2.23-1.68,5.39L58.94,499.8l2.23-2.41a6.66,6.66,0,0,0,1.39-6.7l-1-2.82-1.66-4.77,2.95-7,.18-.43-5.39-4.39-.68-.55-8.76-7.13-2.85,3.09L39.55,473l-2.41,2.6Z"/><path class="cls-3" d="M65.44,450.7l-.21,0L20.48,439.8a.9.9,0,0,1-.66-1.09l8-32.76a1,1,0,0,1,.41-.56.89.89,0,0,1,.68-.1l12.18,3a.89.89,0,0,1-.42,1.74l-11.32-2.75-7.54,31,43,10.46,7.54-31-5-1.22a.88.88,0,0,1-.65-1.08.89.89,0,0,1,1.08-.66l5.86,1.43a.89.89,0,0,1,.65,1.08l-8,32.77a.88.88,0,0,1-.41.55A.84.84,0,0,1,65.44,450.7Z"/><polygon class="cls-5" points="121.39 380.87 95.23 363.95 103.6 351.02 125.69 365.32 157.46 364.24 157.99 379.62 121.39 380.87"/><rect class="cls-2" x="157.54" y="364.13" width="7.51" height="15.39" transform="translate(-55.78 29.55) rotate(-8.93)"/><path class="cls-2" d="M164.6,379.14a2.73,2.73,0,0,1-.48-5.41l10.94-1.94a2.72,2.72,0,1,1,.95,5.36l-10.93,2A2.59,2.59,0,0,1,164.6,379.14Z"/><path class="cls-2" d="M165.89,373.6a2.73,2.73,0,0,1-.51-5.41l12.91-2.44a2.73,2.73,0,1,1,1,5.36l-12.9,2.44A2.21,2.21,0,0,1,165.89,373.6Z"/><path class="cls-2" d="M165,369a2.73,2.73,0,0,1-.7-5.36l10.38-2.78a2.73,2.73,0,1,1,1.41,5.27l-10.38,2.78A2.88,2.88,0,0,1,165,369Z"/><path class="cls-2" d="M161.32,369.52a2.73,2.73,0,0,1-2.1-4.47l4.82-5.82a2.73,2.73,0,0,1,4.2,3.48l-4.82,5.82A2.73,2.73,0,0,1,161.32,369.52Z"/><path class="cls-5" d="M156.89,381.66h-.11a2.72,2.72,0,0,1-2.61-2.82l.55-13.67a2.72,2.72,0,0,1,5.43.22l-.55,13.67A2.71,2.71,0,0,1,156.89,381.66Z"/><path class="cls-6" d="M147.38,376.7a2.05,2.05,0,1,0,1.54-2.46A2.05,2.05,0,0,0,147.38,376.7Z"/><path class="cls-3" d="M113.34,500.34h4.8l1.86-5.13h3.31l2.37,5.13h20.08l0-3.28V497a6.64,6.64,0,0,0-3.46-5.83l-2.63-1.43-4.43-2.42-2.49-7.15-.15-.44-6.95.37-.87.05-11.28.6,0,4.07-.08,8.88,0,3.37Z"/><rect class="cls-3" x="108.86" y="453.61" width="21.25" height="26.04" transform="translate(-101.82 38.8) rotate(-12.99)"/><path class="cls-3" d="M116.55,464.57a10.62,10.62,0,0,1-10.34-8.24l-6.44-27.91-22-20.56a20.25,20.25,0,0,1-6.4-14.52l-.13-11.88a10.63,10.63,0,0,1,10.51-10.74h.12a10.63,10.63,0,0,1,10.62,10.51l.12,11.42,24,22.45a10.64,10.64,0,0,1,3.11,5.38l7.16,31.08a10.62,10.62,0,0,1-8,12.74A11,11,0,0,1,116.55,464.57Z"/><path class="cls-5" d="M112.24,482.44a2.72,2.72,0,0,1-.08-5.43l21.9-.66a2.72,2.72,0,0,1,.17,5.43l-21.91.65Z"/><rect class="cls-3" x="52.17" y="449.77" width="22.2" height="21.25" transform="translate(-347.23 242.56) rotate(-54.22)"/><path class="cls-3" d="M69.75,462a10.62,10.62,0,0,1-8.61-16.83l14-19.38L84,389.23a10.62,10.62,0,1,1,20.64,5l-9.4,38.58a10.7,10.7,0,0,1-1.7,3.69L78.38,457.6A10.6,10.6,0,0,1,69.75,462Z"/><path class="cls-3" d="M94.51,401.91H81.84a10.63,10.63,0,0,1,0-21.25H94.51a10.63,10.63,0,0,1,0,21.25Z"/><path class="cls-5" d="M65.08,477.6a2.66,2.66,0,0,1-1.5-.45L46.71,465.89a2.71,2.71,0,1,1,3-4.51l16.87,11.25a2.71,2.71,0,0,1-1.51,5Z"/><path class="cls-4" d="M71.2,382.34l34.38,8.48,4.73-24.2a19.64,19.64,0,0,0-8.16-19.83A19.88,19.88,0,0,0,91,343.39h0A19.92,19.92,0,0,0,71.11,363.3Z"/><path class="cls-2" d="M101.44,347.09l-.46-9.33-.42-6-.19-2.84a4.74,4.74,0,0,0-5.05-4.4,4.25,4.25,0,0,0-.61.08A4.74,4.74,0,0,0,91,328.37a4.87,4.87,0,0,0-.07,1.21l.69,10.05.27,3.92C92.06,346.15,101.62,349.7,101.44,347.09Z"/><path class="cls-4" d="M84.56,432.74a8.39,8.39,0,0,0,5.73,8.34l3.33-4.62A10,10,0,0,0,95.23,433L97,425.78a8.38,8.38,0,0,0-12.42,7Z"/><polygon class="cls-6" points="90.5 339.95 103.19 347.06 101.45 349.19 90.13 347.54 90.5 339.95"/><path class="cls-2" d="M103.14,336.67h0a5.84,5.84,0,0,0,2.92-7.73l-2-4.41a7.7,7.7,0,0,0-10.19-3.85h0A7.71,7.71,0,0,0,90,330.87l.47,1A9.54,9.54,0,0,0,103.14,336.67Z"/><path class="cls-2" d="M103.57,325.69l4.69,3.65a.81.81,0,0,1-.29,1.43l-3.24.86Z"/><path class="cls-3" d="M96.41,325a8.31,8.31,0,0,1,0,2.14A2.61,2.61,0,0,1,94.63,329a12,12,0,0,1-3.63.4c-2.64.05-6-1.66-4.75-4.86A3,3,0,0,1,89,322.69a2.5,2.5,0,0,1-2.16-.67,2,2,0,0,1-.42-2.17,2.37,2.37,0,0,1,2.25-1.18,6.92,6.92,0,0,1,2.56.75,4,4,0,0,1,2-2.73,3.25,3.25,0,0,1,3.3.14,1.51,1.51,0,0,1,.65.86.8.8,0,0,1-.42.93,2.4,2.4,0,0,1,4.46-1.57,2,2,0,0,1,.26.85,4,4,0,0,0-.28.85c1.21.2,3.63-1.22,2.22-2.63a3.87,3.87,0,0,1,3.64,2,3.13,3.13,0,0,1-.23,3.09c-1.28,2.08-3.88,2.47-6.08,2.85-1.26.22-3.76.81-3.76.81l-.47.14Z"/><path class="cls-6" d="M105.58,391.71a.86.86,0,0,1-.22,0l-34.23-8.44a.9.9,0,0,1-.65-1.09.89.89,0,0,1,1.08-.65L105.79,390a.89.89,0,0,1-.21,1.76Z"/><path class="cls-6" d="M92.94,389a3.94,3.94,0,1,0,3.94-3.94A3.94,3.94,0,0,0,92.94,389Z"/><path class="cls-6" d="M102.78,432.56a.87.87,0,0,1-.6-.23L77.77,409.78A.9.9,0,0,1,79,408.46L103.39,431a.9.9,0,0,1,0,1.27A.88.88,0,0,1,102.78,432.56Z"/><path class="cls-4" d="M108.54,421.41a8.39,8.39,0,0,0,13,7l-1.82-7.91a10.64,10.64,0,0,0-3.11-5.38l-1.91-1.78A8.39,8.39,0,0,0,108.54,421.41Z"/><rect class="cls-5" x="98.75" y="364.04" width="8.34" height="8.34" transform="translate(436.07 555.81) rotate(135)"/><rect class="cls-6" x="92.33" y="364.04" width="8.34" height="8.34" transform="translate(425.12 560.34) rotate(135)"/><rect class="cls-4" x="27.49" y="416.32" width="46.05" height="33.72" transform="translate(-2.73 866.04) rotate(-166.33)"/><path class="cls-3" d="M106.75,331.14a3.36,3.36,0,0,0-1.65-.57,4.28,4.28,0,0,0-2.71.69c-.89.58-1.63,1.34-2.77,1a7.12,7.12,0,0,1-1.24-.53A15.16,15.16,0,0,1,95.66,330h0l-4.58,2.2c-.44.31,1.58,2.55,1.78,2.79a10.44,10.44,0,0,0,8.15,3.72,9,9,0,0,0,5-1.76C107.94,335.45,108.55,332.42,106.75,331.14Z"/><circle class="cls-2" cx="92.98" cy="329.98" r="3.63"/><path class="cls-5" d="M64.06,378.5a7.7,7.7,0,0,1-5.2-13.38l18.83-17.27A7.7,7.7,0,0,1,88.1,359.2L69.26,376.47A7.64,7.64,0,0,1,64.06,378.5Z"/><path class="cls-2" d="M60.07,422.49h-.15a2.72,2.72,0,0,1-2.58-2.87l.51-9.45a2.73,2.73,0,1,1,5.45.29l-.51,9.46A2.73,2.73,0,0,1,60.07,422.49Z"/><rect class="cls-5" x="44.76" y="378.64" width="31.81" height="15.39" transform="translate(-329.71 363.13) rotate(-77.67)"/><path class="cls-5" d="M64.06,406.36a3.13,3.13,0,0,1-.6-.06l-13.54-3.06a2.72,2.72,0,0,1,1.2-5.3L64.66,401a2.71,2.71,0,0,1-.6,5.36Z"/><path class="cls-6" d="M52.84,394.35a2.05,2.05,0,1,0,2.26-1.83A2.05,2.05,0,0,0,52.84,394.35Z"/><path class="cls-6" d="M50.45,440.82l-.17,0a.9.9,0,0,1-.57-.38l-4.66-6.92a.89.89,0,0,1,.24-1.24l6.91-4.66a.85.85,0,0,1,.67-.14.88.88,0,0,1,.58.38l4.66,6.91a.9.9,0,0,1-.24,1.25L51,440.66A.9.9,0,0,1,50.45,440.82ZM47,433.25l3.66,5.43L56.13,435l-3.67-5.43Z"/><path class="cls-2" d="M111.12,494.39a.66.66,0,0,1-.42-.14.69.69,0,0,1-.28-.57l.08-8.87a.73.73,0,0,1,.35-.61.7.7,0,0,1,.7,0l10.27,5.64a.71.71,0,0,1-.13,1.3l-10.36,3.22A.71.71,0,0,1,111.12,494.39Zm.78-8.39-.06,6.72,7.85-2.44Z"/><path class="cls-2" d="M46.38,477.29a.74.74,0,0,1-.35-.1l-8.66-4.93a.69.69,0,0,1-.35-.51.71.71,0,0,1,.18-.59L43,464.87a.7.7,0,0,1,1.2.3l2.85,11.23a.7.7,0,0,1-.26.74A.66.66,0,0,1,46.38,477.29Zm-7.54-5.82,6.45,3.67-2.12-8.36Z"/><path class="cls-3" d="M657.54,296.86a4.69,4.69,0,0,1-4.69-4.7V279.32A176.32,176.32,0,0,0,586.33,141a4.7,4.7,0,0,1,5.87-7.33,188.18,188.18,0,0,1,51,63.53,184.58,184.58,0,0,1,19,82.12v12.84A4.69,4.69,0,0,1,657.54,296.86Z"/><path class="cls-3" d="M294.06,296.86a4.69,4.69,0,0,1-4.7-4.7V279.32a186.22,186.22,0,0,1,66.09-142.41,4.7,4.7,0,1,1,6.07,7.18,176.8,176.8,0,0,0-62.76,135.23v12.84A4.7,4.7,0,0,1,294.06,296.86Z"/><rect class="cls-4" x="246.49" y="272.58" width="95.13" height="171.53" rx="44.1"/><path class="cls-3" d="M253.7,425.73a37.76,37.76,0,0,1-21.19-6.47,1.2,1.2,0,0,1,1.34-2,35.52,35.52,0,0,0,55.36-29.45V328.87a35.51,35.51,0,1,0-71,0v38.24a1.2,1.2,0,0,1-2.4,0V328.87a37.91,37.91,0,1,1,75.81,0v58.95A37.94,37.94,0,0,1,253.7,425.73Z"/><rect class="cls-4" x="609.98" y="272.58" width="95.13" height="171.53" rx="44.1" transform="translate(1315.09 716.69) rotate(-180)"/><path class="cls-3" d="M697.9,425.73A37.94,37.94,0,0,1,660,387.82V328.87a37.91,37.91,0,1,1,75.82,0v58.95A38,38,0,0,1,697.9,425.73Zm0-132.37a35.55,35.55,0,0,0-35.51,35.51v58.95a35.51,35.51,0,1,0,71,0V328.87A35.54,35.54,0,0,0,697.9,293.36Z"/><path class="cls-4" d="M358.5,156.22a15.72,15.72,0,0,1-10.16-27.72,197.27,197.27,0,0,1,250.75-3.44,15.72,15.72,0,0,1-19.64,24.55A164.21,164.21,0,0,0,475.8,113.29,166.14,166.14,0,0,0,368.64,152.5,15.64,15.64,0,0,1,358.5,156.22Z"/><path class="cls-7" d="M563.9,253.75a41.79,41.79,0,0,0-41.57-37.51h-.14a58.79,58.79,0,0,0-112.33,8.62A50.83,50.83,0,0,0,413.44,326v.09H558.69a36.36,36.36,0,0,0,5.21-72.34Z"/><rect class="cls-4" x="454.81" y="258.51" width="41.75" height="2.7" transform="translate(-39.22 90.52) rotate(-10.44)"/><path class="cls-4" d="M440.23,309.28a16.05,16.05,0,0,1-9.4-3,10.53,10.53,0,0,1-3.82-4.62,8.75,8.75,0,0,1,.47-7.44,11.07,11.07,0,0,1,7.42-5.43c.66-.14,3.84-.3,5.7-.37s3-.09,3.85-.07c0-3,.08-11.69.26-37.69V234.19a1.35,1.35,0,0,1,1.14-1.33l58.53-9.45a1.3,1.3,0,0,1,1.07.29,1.34,1.34,0,0,1,.49,1c1.66,56,1.8,60.64,1.81,61h0a18.25,18.25,0,0,1-5.85,13.68,16,16,0,0,1-12.69,4.39c-6-.63-12.22-4.79-12-11.25.23-8.32,9.22-9.37,13.06-9.82l1.31-.12c1-.08,3.1-.27,4.37-.4-.11-5.68-.62-30.36-.75-36.85l-38.4,6.45q0,4.32-.1,8.65c-.12,9.66-.24,19.65,0,29.43.21,7-3.09,15.45-10.93,18.39A15.81,15.81,0,0,1,440.23,309.28ZM444.09,291c-2.6,0-8,.27-8.65.39a8.41,8.41,0,0,0-5.58,4.08,6,6,0,0,0-.33,5.16,7.85,7.85,0,0,0,2.88,3.42,13.61,13.61,0,0,0,12.42,1.67c6.55-2.46,9.36-9.9,9.18-15.78-.28-9.84-.16-19.86,0-29.55q.06-4.87.11-9.77a1.35,1.35,0,0,1,1.12-1.32l41.06-6.89a1.35,1.35,0,0,1,1.58,1.31c.13,6.59.81,39.5.81,39.58,0,1.32-.94,1.42-3.28,1.65-1.16.11-2.57.24-3.58.32l-1.23.11c-5.46.64-10.53,2-10.68,7.22-.14,4.84,4.85,8,9.62,8.49a13.38,13.38,0,0,0,10.56-3.69,15.5,15.5,0,0,0,5-11.62h0c0-.12-1.48-50-1.76-59.5l-55.88,9v15.33s-.27,39.06-.27,39.18h0a1.35,1.35,0,0,1-1.35,1.34h0a1.36,1.36,0,0,1-.53-.11C445,291.06,444.6,291,444.09,291Zm.35-1.21v0Zm63.31-4.05h0Z"/><polygon class="cls-4" points="771.15 99.2 772.83 95.95 796.16 103.11 794.48 106.35 771.15 99.2"/><path class="cls-4" d="M752.55,116.35a9.46,9.46,0,0,1-4.07-4.09,6.23,6.23,0,0,1-.73-3.43A5.1,5.1,0,0,1,750,105.1a6.47,6.47,0,0,1,5.31-.82c.38.11,2.07.89,3.05,1.35s1.59.77,2,1c.81-1.52,3.2-6,10.3-19.47l4.45-8.53a.78.78,0,0,1,.94-.39L809,89.13a.78.78,0,0,1,.46,1.09c-14.24,29.47-15.42,31.92-15.52,32.14h0a10.71,10.71,0,0,1-6.73,5.51,9.39,9.39,0,0,1-7.76-1.14c-2.93-1.94-5-5.78-3.21-9.08,2.37-4.25,7.32-2.38,9.43-1.57l.71.29c.52.22,1.67.7,2.37,1,1.48-3,7.87-15.91,9.55-19.31l-21.65-7q-1.18,2.23-2.38,4.46c-2.67,5-5.43,10.13-7.92,15.28-1.79,3.7-5.77,7.17-10.63,6.58A9.28,9.28,0,0,1,752.55,116.35ZM760,107.4l0,0s0,0,0,0Zm33.92,15Z"/><polygon class="cls-5" points="175.62 242.5 174.24 239.12 194.84 226.03 196.21 229.41 175.62 242.5"/><path class="cls-5" d="M176.57,267.79a9.43,9.43,0,0,1-5.75.43,6.12,6.12,0,0,1-3.08-1.67,5.07,5.07,0,0,1-1.37-4.13,6.43,6.43,0,0,1,2.83-4.57c.32-.22,2-1,3-1.45s1.61-.7,2.07-.88L166.17,235l-3.61-8.93a.8.8,0,0,1,.32-1l29.65-17.93a.78.78,0,0,1,.65-.08.78.78,0,0,1,.48.44L208,240.25h0a10.66,10.66,0,0,1-.18,8.69,9.37,9.37,0,0,1-5.91,5.16c-3.38,1-7.67.08-9-3.46-1.69-4.56,2.95-7.1,4.93-8.19l.69-.35,2.27-1.17c-1.3-3.05-7-16.32-8.47-19.8L173,233q.93,2.34,1.84,4.7c2.05,5.27,4.17,10.71,6.47,16,1.65,3.76,1.7,9.05-1.9,12.35A9.08,9.08,0,0,1,176.57,267.79Zm-2-11.47,0,.05a.05.05,0,0,1,0,0Zm33.43-16Z"/><polygon class="cls-7" points="517.31 402.51 456.23 440.51 456.23 364.5 517.31 402.51 517.31 402.51"/><polygon class="cls-7" points="376.27 402.51 405.16 384.53 405.16 420.48 376.27 402.51 376.27 402.51"/><polygon class="cls-7" points="395.96 402.51 424.84 384.53 424.84 420.48 395.96 402.51 395.96 402.51"/><polygon class="cls-7" points="589.44 402.51 560.55 420.48 560.55 384.53 589.44 402.51 589.44 402.51"/><polygon class="cls-7" points="569.76 402.51 540.87 420.48 540.87 384.53 569.76 402.51 569.76 402.51"/><polygon class="cls-5" points="796.1 273.61 798.49 278.13 802.87 280.6 798.49 283.06 796.1 287.58 793.71 283.06 789.34 280.6 793.71 278.13 796.1 273.61"/><polygon class="cls-5" points="372.42 451.04 374.81 455.55 379.18 458.02 374.81 460.49 372.42 465 370.03 460.49 365.66 458.02 370.03 455.55 372.42 451.04"/><polygon class="cls-5" points="576.75 345.96 579.14 350.48 583.51 352.95 579.14 355.42 576.75 359.93 574.36 355.42 569.98 352.95 574.36 350.48 576.75 345.96"/><polygon class="cls-5" points="534.11 165.1 536.5 169.61 540.87 172.08 536.5 174.55 534.11 179.06 531.72 174.55 527.35 172.08 531.72 169.61 534.11 165.1"/><polygon class="cls-2" points="90.13 254.75 92.52 259.26 96.89 261.73 92.52 264.2 90.13 268.71 87.74 264.2 83.36 261.73 87.74 259.26 90.13 254.75"/><polygon class="cls-2" points="300.82 83.61 303.21 88.12 307.58 90.59 303.21 93.06 300.82 97.57 298.43 93.06 294.06 90.59 298.43 88.12 300.82 83.61"/><polygon class="cls-5" points="163.17 322.99 165.56 327.51 169.93 329.98 165.56 332.45 163.17 336.96 160.78 332.45 156.4 329.98 160.78 327.51 163.17 322.99"/><path class="cls-3" d="M388.1,243.63a.9.9,0,0,1-.84-1.22l6.05-15.69-16,5.74a.89.89,0,0,1-.92-.21.86.86,0,0,1-.23-.91l6-18.31a.89.89,0,0,1,1.12-.58.91.91,0,0,1,.58,1.13l-5.39,16.58,16.15-5.79a.91.91,0,0,1,.94.22.9.9,0,0,1,.19.95l-6,15.66,15.83-5.88a.9.9,0,1,1,.62,1.68l-17.69,6.57A.85.85,0,0,1,388.1,243.63Z"/><path class="cls-5" d="M701.11,163.58h0a9.25,9.25,0,0,1-9.25-9.25h0a9.25,9.25,0,0,1,9.25-9.24h0a9.24,9.24,0,0,1,9.24,9.24h0A9.25,9.25,0,0,1,701.11,163.58Z"/><path class="cls-2" d="M677.63,185.11h0a4.91,4.91,0,0,1-4.91-4.91h0a4.91,4.91,0,0,1,4.91-4.92h0a4.91,4.91,0,0,1,4.91,4.92h0A4.91,4.91,0,0,1,677.63,185.11Z"/><path class="cls-4" d="M701.11,172.77H684.28a.89.89,0,0,1-.89-.9V155.05a.89.89,0,0,1,.89-.89h16.83a.89.89,0,0,1,.89.89v16.82A.89.89,0,0,1,701.11,172.77ZM685.18,171h15v-15h-15Z"/><path class="cls-3" d="M860.59,324.69a1.07,1.07,0,0,1-.31-2.1,38.46,38.46,0,0,0,10.33-4.67,15.51,15.51,0,0,1-4.75-3.52c-1.54-1.68-2.16-3.32-1.83-4.87a5.15,5.15,0,0,1,3-3.4,7.38,7.38,0,0,1,6.45,0,6,6,0,0,1,3.31,4.39,7.73,7.73,0,0,1-2,6.58,12.08,12.08,0,0,0,4.24.05,10.11,10.11,0,0,0,7.75-6.25,1.07,1.07,0,0,1,2,.85,12.18,12.18,0,0,1-9.36,7.51,14.07,14.07,0,0,1-6.41-.4c-3.66,3-9,4.92-12.07,5.83A1,1,0,0,1,860.59,324.69Zm9.7-17.18a5.31,5.31,0,0,0-2.34.54,3.32,3.32,0,0,0-1.82,1.92c-.22,1,.59,2.19,1.31,3a13.38,13.38,0,0,0,5,3.45c1.6-1.57,2.56-3.42,2.17-5.52a3.85,3.85,0,0,0-2.15-2.86A4.79,4.79,0,0,0,870.29,307.51Z"/><path class="cls-3" d="M222.13,158c-4.51,0-8.89-2-10.45-6.33a10.88,10.88,0,0,1-.59-2.72,13.46,13.46,0,0,1-5.33-3.87,12.06,12.06,0,0,1-3-6.49.89.89,0,0,1,1.78-.16,10.45,10.45,0,0,0,2.57,5.48,12.54,12.54,0,0,0,3.94,3.09,14.46,14.46,0,0,1,.26-2,6,6,0,0,1,2.34-4.14,4.07,4.07,0,0,1,6.25,4.2,5,5,0,0,1-1.6,2.67,6.36,6.36,0,0,1-4.85,1.77,4.4,4.4,0,0,1-.51-.05,8.66,8.66,0,0,0,.41,1.65c1.91,5.3,8.67,5.83,12.85,4.51l.43-.14a10.92,10.92,0,0,0,3.14-1.72.89.89,0,0,1,1.11,1.4,12.36,12.36,0,0,1-3.65,2l-.49.17A15.37,15.37,0,0,1,222.13,158Zm-9.31-10.4.75.09a4.66,4.66,0,0,0,3.53-1.3,3.4,3.4,0,0,0,1.06-1.71,2.29,2.29,0,0,0-3.51-2.36,4.42,4.42,0,0,0-1.58,3A13.94,13.94,0,0,0,212.82,147.63Z"/><path class="cls-3" d="M947.41,501.23H915.35a.9.9,0,0,1,0-1.79h32.06a.9.9,0,1,1,0,1.79Z"/><path class="cls-3" d="M904,501.23H602.36a.9.9,0,0,1,0-1.79H904a.9.9,0,0,1,0,1.79Z"/><path class="cls-3" d="M586.59,501.27H444.09a.9.9,0,0,1,0-1.79h142.5a.9.9,0,1,1,0,1.79Z"/><path class="cls-3" d="M451.23,501.27H332a.9.9,0,0,1,0-1.79H451.23a.9.9,0,0,1,0,1.79Z"/><path class="cls-3" d="M305.07,501.23H66.74a.9.9,0,1,1,0-1.79H305.07a.9.9,0,1,1,0,1.79Z"/><path class="cls-3" d="M40.48,501.23H.89a.9.9,0,0,1,0-1.79H40.48a.9.9,0,1,1,0,1.79Z"/><path class="cls-3" d="M722,500.53a.89.89,0,0,1-.89-.89c-.15-12.24,2.91-26.8,7.63-36.22a.88.88,0,0,1,1.2-.4.89.89,0,0,1,.4,1.2c-4.6,9.19-7.59,23.42-7.45,35.4a.89.89,0,0,1-.88.91Z"/><rect class="cls-4" x="725.67" y="458.57" width="8.67" height="8.67" transform="translate(1498.1 66.43) rotate(120.32)"/><path class="cls-5" d="M725.14,456.51a3.08,3.08,0,1,0,2.2-3.76A3.09,3.09,0,0,0,725.14,456.51Z"/><path class="cls-5" d="M728.9,470.85a3.08,3.08,0,1,0,2.2-3.76A3.08,3.08,0,0,0,728.9,470.85Z"/><path class="cls-5" d="M738,464a3.08,3.08,0,1,0-3.76-2.2A3.08,3.08,0,0,0,738,464Z"/><path class="cls-5" d="M724,467.67a3.08,3.08,0,1,0-3.76-2.2A3.09,3.09,0,0,0,724,467.67Z"/><path class="cls-5" d="M703.61,482.44c3.51,3.19,7.69,4.31,9.32,2.5s.12-5.85-3.39-9c-2.43-2.2-6-2.55-7.91-2.56a1.34,1.34,0,0,0-1.34,1.48C700.49,476.76,701.18,480.24,703.61,482.44Z"/><path class="cls-3" d="M711.72,467.18a.91.91,0,0,1-.89-.75A145.51,145.51,0,0,0,707.25,450a.89.89,0,1,1,1.72-.49,146.53,146.53,0,0,1,3.63,16.64.89.89,0,0,1-.74,1Z"/><path class="cls-3" d="M714.41,500.53h0a.89.89,0,0,1-.88-.91,215.73,215.73,0,0,0-1.91-28,.89.89,0,0,1,.76-1,.9.9,0,0,1,1,.77,217.81,217.81,0,0,1,1.93,28.25A.9.9,0,0,1,714.41,500.53Z"/><path class="cls-2" d="M706.33,447.24a2.93,2.93,0,1,0-3.88-1.46A2.94,2.94,0,0,0,706.33,447.24Z"/><path class="cls-4" d="M697.19,451.29A10.23,10.23,0,1,0,708.28,437l0,6.08a3.62,3.62,0,0,1-2.12,3.32h0a3.62,3.62,0,0,1-3.89-.58l-4.56-4A10.22,10.22,0,0,0,697.19,451.29Z"/><path class="cls-5" d="M709.39,438.85a2.16,2.16,0,1,0-2.86-1.07A2.17,2.17,0,0,0,709.39,438.85Z"/><path class="cls-5" d="M698.38,443.86a2.16,2.16,0,1,0-2.87-1.08A2.17,2.17,0,0,0,698.38,443.86Z"/><path class="cls-3" d="M5.45,171a1.06,1.06,0,0,1-1-.69,1.08,1.08,0,0,1,.63-1.39,104.25,104.25,0,0,1,75.06,0,1.08,1.08,0,0,1-.75,2,102.1,102.1,0,0,0-73.56,0A1.26,1.26,0,0,1,5.45,171Z"/><path class="cls-3" d="M70.24,187.19a1,1,0,0,1-.3,0,95.25,95.25,0,0,0-54.66,0,1.07,1.07,0,0,1-.6-2.06,97.3,97.3,0,0,1,55.86,0,1.07,1.07,0,0,1-.3,2.1Z"/><path class="cls-3" d="M59.14,202,59,202a90.19,90.19,0,0,0-32.68,0,1.07,1.07,0,0,1-.39-2.11,92.23,92.23,0,0,1,33.46,0,1.07,1.07,0,0,1,.86,1.25A1.08,1.08,0,0,1,59.14,202Z"/><circle class="cls-3" cx="42.61" cy="215.58" r="5.58"/></g></g></svg>