<svg xmlns="http://www.w3.org/2000/svg" viewBox="0 0 997.15 522.04"><defs><style>.cls-1{fill:#dce5f7;}.cls-2{fill:#2d2d2d;}.cls-3{fill:#e2a3a3;}.cls-4{fill:#fff;}.cls-5{fill:#fc346c;}</style></defs><title>Asset 10</title><g id="Layer_2" data-name="Layer 2"><g id="Layer_2-2" data-name="Layer 2"><path class="cls-1" d="M253.56,94.88H21.36a32.16,32.16,0,0,1,.26-5.55h0a50.09,50.09,0,0,1,6-17.73c4.91-8.65,12.27-15.05,20.53-13.07A18.22,18.22,0,0,1,56,62.86c4,3.52,7.18,7.85,11.12,11.42s9,6.43,14.28,6C88,79.84,92.79,73.9,93.78,67.65,96.17,52.6,96,22.87,114.84,18.75l1-.21c16.08-2.75,27.17,13,31.45,27a47.1,47.1,0,0,1,1.19,4.71A60.78,60.78,0,0,1,149.89,62l.09.77c.12,1.09.27,2.17.45,3.23a25.77,25.77,0,0,0,2.23,7.33,3.31,3.31,0,0,0,1.94,2c2.57.62,4.72-2.35,6.2-4.72.41-.67.77-1.29,1.07-1.76,4.67-7.41,17.54-12.34,23.35-3.47,4.06,6.21.68,18.3,9.13,21.39,9.69,3.54,12.14-9.2,13-15.74,1.06-8,.88-16.26,3.25-24.08,1-2.34,2.67-5,5.35-5.35a7,7,0,0,1,6,4.35c3,7.21,3.78,15,4.86,22.62.89,6.21,2.09,19.89,10.34,20.66,4.38.41,8.34-7.41,12.4-3.95C252.15,87.46,252,92.05,253.56,94.88Z"/><rect class="cls-2" x="276.01" y="422.51" width="393.04" height="55.71"/><polygon class="cls-3" points="685.27 494.83 259.79 494.83 282.18 439.12 673.84 439.12 685.27 494.83"/><rect class="cls-2" x="276.01" y="193.19" width="393.04" height="39.96"/><rect class="cls-3" x="325.43" y="314.16" width="294.21" height="52.26" transform="translate(812.82 -132.24) rotate(90)"/><rect class="cls-3" x="186.27" y="314.16" width="294.21" height="52.26" transform="translate(673.66 6.92) rotate(90)"/><rect class="cls-3" x="464.59" y="314.16" width="294.21" height="52.26" transform="translate(951.98 -271.4) rotate(90)"/><polygon class="cls-3" points="700.28 216.73 244.78 216.73 451.98 59.86 493.08 59.86 700.28 216.73"/><path class="cls-2" d="M648.93,163.36H296.13a1.17,1.17,0,1,1,0-2.33h352.8a1.17,1.17,0,1,1,0,2.33Z"/><path class="cls-2" d="M700.28,217.89H244.78a1.17,1.17,0,1,1,0-2.33h455.5a1.17,1.17,0,1,1,0,2.33Z"/><path class="cls-2" d="M644.56,477.77H511.25a1.17,1.17,0,0,1,0-2.34H644.56a1.17,1.17,0,0,1,0,2.34Z"/><path class="cls-2" d="M494.13,477.77H259.79a1.17,1.17,0,0,1,0-2.34H494.13a1.17,1.17,0,0,1,0,2.34Z"/><path class="cls-2" d="M632.9,456.22H378.22a1.17,1.17,0,0,1,0-2.34H632.9a1.17,1.17,0,1,1,0,2.34Z"/><path class="cls-2" d="M472.53,455a1.17,1.17,0,0,1-1.17-1.16V216.73a1.17,1.17,0,0,1,2.34,0V453.84A1.16,1.16,0,0,1,472.53,455Z"/><path class="cls-2" d="M611.69,274.26a1.18,1.18,0,0,1-1.17-1.17V216.73a1.17,1.17,0,1,1,2.34,0v56.36A1.17,1.17,0,0,1,611.69,274.26Z"/><path class="cls-2" d="M472.53,163a1.18,1.18,0,0,1-1.17-1.17V41.08a1.17,1.17,0,0,1,2.34,0V161.8A1.17,1.17,0,0,1,472.53,163Z"/><path class="cls-2" d="M344.3,163a1.13,1.13,0,0,1-.75-.28,1.16,1.16,0,0,1-.14-1.64L445.51,40.33a1.17,1.17,0,1,1,1.78,1.51L345.19,162.55A1.15,1.15,0,0,1,344.3,163Z"/><path class="cls-2" d="M603.59,163a1.15,1.15,0,0,1-.89-.42L500.6,41.84a1.17,1.17,0,1,1,1.78-1.51l102.1,120.72a1.15,1.15,0,0,1-.14,1.64A1.13,1.13,0,0,1,603.59,163Z"/><path class="cls-2" d="M513.13,41.86H433.86a1.17,1.17,0,0,1,0-2.34h79.27a1.17,1.17,0,0,1,0,2.34Z"/><path class="cls-4" d="M398,174.17h9.87q6.75,0,9.8,1.92a6.7,6.7,0,0,1,3,6.11,7.68,7.68,0,0,1-1.34,4.66,5.28,5.28,0,0,1-3.55,2.19v.22a7,7,0,0,1,4.35,2.52,8.17,8.17,0,0,1,1.34,4.9,8.08,8.08,0,0,1-3.14,6.77q-3.14,2.43-8.51,2.43H398Zm6.72,12.56h3.91a7.2,7.2,0,0,0,4-.84,3.16,3.16,0,0,0,1.23-2.8,2.81,2.81,0,0,0-1.34-2.62,8.66,8.66,0,0,0-4.22-.79h-3.54Zm0,5.34v8.27h4.39a6.49,6.49,0,0,0,4.1-1.07,3.91,3.91,0,0,0,1.32-3.25q0-3.95-5.64-4Z"/><path class="cls-4" d="M458.81,205.89l-2.3-7.55H444.94l-2.3,7.55H435.4L446.59,174h8.23l11.24,31.85ZM454.9,192.7q-3.18-10.26-3.59-11.61c-.27-.9-.46-1.6-.57-2.13q-.72,2.79-4.1,13.74Z"/><path class="cls-4" d="M509.73,205.89h-8.55l-13.8-24h-.19c.27,4.24.41,7.27.41,9.07v14.93h-6V174.17h8.49l13.77,23.76H504q-.33-6.18-.33-8.75v-15h6.05Z"/><path class="cls-4" d="M554.78,205.89h-7.64l-8.31-13.36-2.84,2v11.32h-6.73V174.17H536v14.52l2.65-3.74,8.59-10.78h7.46l-11.06,14Z"/><rect class="cls-3" x="108.86" y="355.47" width="97.5" height="17.07"/><rect class="cls-3" x="108.86" y="372.54" width="97.5" height="17.05"/><rect class="cls-3" x="118.24" y="337.85" width="97.5" height="16.99"/><rect class="cls-3" x="134.42" y="320.31" width="97.5" height="17.05"/><rect class="cls-3" x="108.86" y="408.33" width="97.5" height="17.07"/><rect class="cls-3" x="108.86" y="425.39" width="97.5" height="17.05"/><rect class="cls-3" x="127.84" y="460.62" width="97.5" height="17.07"/><rect class="cls-3" x="127.84" y="477.69" width="97.5" height="17.05"/><rect class="cls-3" x="118.24" y="442.99" width="97.5" height="16.99"/><rect class="cls-3" x="118.24" y="390.7" width="97.5" height="16.99"/><rect class="cls-3" x="108.86" y="355.47" width="97.5" height="17.07"/><rect class="cls-3" x="108.86" y="372.54" width="97.5" height="17.05"/><rect class="cls-3" x="118.24" y="337.85" width="97.5" height="16.99"/><rect class="cls-3" x="134.42" y="320.31" width="97.5" height="17.05"/><rect class="cls-3" x="108.86" y="408.33" width="97.5" height="17.07"/><rect class="cls-3" x="108.86" y="425.39" width="97.5" height="17.05"/><rect class="cls-3" x="127.84" y="460.62" width="97.5" height="17.07"/><rect class="cls-3" x="127.84" y="477.69" width="97.5" height="17.05"/><rect class="cls-3" x="118.24" y="442.99" width="97.5" height="16.99"/><rect class="cls-3" x="118.24" y="390.7" width="97.5" height="16.99"/><path class="cls-2" d="M158.88,426.26a1.2,1.2,0,0,0,.34.83,1.18,1.18,0,0,0,.83.34v15h8.23a.78.78,0,0,0,0,.16,1.16,1.16,0,0,0,1.16,1.17v15a1.17,1.17,0,0,0,0,2.34H179v16.24a1.17,1.17,0,0,0-.83,2,1.2,1.2,0,0,0,.83.34v15h46.32v-15a1.17,1.17,0,1,0,0-2.33V460.62h-8.63a1.2,1.2,0,0,0,.19-.64,1.18,1.18,0,0,0-.34-.83,1.16,1.16,0,0,0-.83-.34v-15a1.17,1.17,0,1,0,0-2.33h-9.37v-14a1.17,1.17,0,0,0,0-2.34V408.86h9.37a1.17,1.17,0,0,0,1.17-1.17,1.2,1.2,0,0,0-.34-.83,1.16,1.16,0,0,0-.83-.34v-15a1.17,1.17,0,0,0,0-2.34h-9.37V374.57a1.17,1.17,0,1,0,0-2.33V356h9.37a1.17,1.17,0,1,0,0-2.34v-15h18.55a1.17,1.17,0,1,0,0-2.33h-2.37v-16H185.61v16H169.42a1.17,1.17,0,0,0,0,2.33v15a1.16,1.16,0,0,0-1.16,1.17,1.14,1.14,0,0,0,.19.63h-8.4v16.77a1.17,1.17,0,1,0,0,2.33v15h8.46a1.17,1.17,0,0,0,.91,1.89v15a1.16,1.16,0,0,0-1.16,1.17,1.2,1.2,0,0,0,.19.64h-8.4v16.76A1.18,1.18,0,0,0,158.88,426.26Z"/><rect class="cls-4" x="154.94" y="355.39" width="5.36" height="17.15"/><rect class="cls-4" x="174.49" y="355.47" width="10.6" height="17.07"/><rect class="cls-4" x="154.94" y="372.46" width="5.36" height="17.13"/><rect class="cls-4" x="174.49" y="372.54" width="10.6" height="17.05"/><path class="cls-4" d="M206.37,373.41h0Z"/><path class="cls-4" d="M206.37,374.57H108.86a1.17,1.17,0,0,1,0-2.33h97.51a1.17,1.17,0,0,1,0,2.33Z"/><rect class="cls-4" x="183.36" y="337.73" width="10.6" height="17.07"/><rect class="cls-4" x="145.93" y="337.77" width="5.96" height="17.07"/><path class="cls-4" d="M215.74,354.84h0Z"/><path class="cls-4" d="M215.74,356H107.65a1.17,1.17,0,1,1,0-2.33H215.74a1.17,1.17,0,1,1,0,2.33Z"/><rect class="cls-4" x="149.2" y="319.61" width="5.36" height="17.13"/><rect class="cls-4" x="175.73" y="319.69" width="10.6" height="17.05"/><rect class="cls-4" x="134.74" y="408.25" width="5.36" height="17.15"/><rect class="cls-4" x="134.74" y="425.62" width="5.36" height="17.15"/><rect class="cls-4" x="146.23" y="442.96" width="5.36" height="17.15"/><rect class="cls-4" x="154.94" y="460.58" width="5.36" height="17.15"/><rect class="cls-4" x="154.94" y="478.33" width="5.36" height="17.15"/><path class="cls-4" d="M206.37,426.26h0Z"/><path class="cls-4" d="M206.37,427.43H108.86a1.17,1.17,0,0,1,0-2.34h97.51a1.17,1.17,0,0,1,0,2.34Z"/><rect class="cls-4" x="193.47" y="460.62" width="10.6" height="17.07"/><path class="cls-4" d="M225.35,478.55h0Z"/><path class="cls-4" d="M225.35,479.72H127.84a1.17,1.17,0,0,1,0-2.34h97.51a1.17,1.17,0,1,1,0,2.34Z"/><path class="cls-4" d="M215.74,460h0Z"/><path class="cls-4" d="M215.74,461.15h-97.5a1.17,1.17,0,0,1,0-2.34h97.5a1.17,1.17,0,0,1,0,2.34Z"/><path class="cls-4" d="M215.74,443.78h-97.5a1.17,1.17,0,0,1,0-2.34h97.5a1.17,1.17,0,0,1,0,2.34Z"/><rect class="cls-4" x="140.97" y="390.62" width="5.96" height="17.07"/><path class="cls-4" d="M215.74,407.69h0Z"/><path class="cls-4" d="M215.74,408.86h-97.5a1.17,1.17,0,1,1,0-2.34h97.5a1.17,1.17,0,0,1,0,2.34Z"/><path class="cls-4" d="M215.74,391.49h-97.5a1.17,1.17,0,1,1,0-2.34h97.5a1.17,1.17,0,0,1,0,2.34Z"/><path class="cls-4" d="M234.29,338.64h-116a1.17,1.17,0,1,1,0-2.34H234.29a1.17,1.17,0,1,1,0,2.34Z"/><polygon class="cls-4" points="188.66 400.79 186.11 405.61 181.44 408.25 186.11 410.88 188.66 415.7 191.21 410.88 195.88 408.25 191.21 405.61 188.66 400.79"/><path class="cls-2" d="M968.29,496H78.69a1.17,1.17,0,1,1,0-2.34h889.6a1.17,1.17,0,0,1,0,2.34Z"/><polygon class="cls-3" points="640.53 0 643.65 5.89 649.35 9.11 643.65 12.34 640.53 18.23 637.41 12.34 631.71 9.11 637.41 5.89 640.53 0"/><polygon class="cls-3" points="126.68 229.2 129.8 235.09 135.5 238.31 129.8 241.54 126.68 247.43 123.56 241.54 117.85 238.31 123.56 235.09 126.68 229.2"/><path class="cls-1" d="M101.08,158A4.92,4.92,0,1,1,106,153.1,4.92,4.92,0,0,1,101.08,158Z"/><path class="cls-1" d="M82.48,158a4.92,4.92,0,1,1,4.91-4.92A4.92,4.92,0,0,1,82.48,158Z"/><path class="cls-1" d="M82.48,137.89A4.92,4.92,0,1,1,87.39,133,4.92,4.92,0,0,1,82.48,137.89Z"/><path class="cls-1" d="M82.48,176.68a4.92,4.92,0,1,1,4.91-4.92A4.92,4.92,0,0,1,82.48,176.68Z"/><path class="cls-1" d="M63.87,158a4.92,4.92,0,1,1,4.92-4.92A4.91,4.91,0,0,1,63.87,158Z"/><path class="cls-3" d="M899,297.28a1.1,1.1,0,0,1-.8-.34,1.12,1.12,0,0,1-.25-1.2l7.92-20.56-21,7.52a1.13,1.13,0,0,1-1.17-.25,1.11,1.11,0,0,1-.28-1.16l7.77-23.9a1.13,1.13,0,0,1,2.15.7l-7.06,21.7,21.15-7.57a1.13,1.13,0,0,1,1.19.28,1.11,1.11,0,0,1,.24,1.19l-7.9,20.52,20.74-7.7a1.13,1.13,0,1,1,.78,2.12l-23.08,8.58A1.4,1.4,0,0,1,899,297.28Z"/><path class="cls-2" d="M232.54,278.7c-5.34,0-10.53-2.37-12.38-7.5a13.48,13.48,0,0,1-.69-3.15,16,16,0,0,1-6.23-4.56,14.3,14.3,0,0,1-3.54-7.68,1.16,1.16,0,1,1,2.32-.21,12.22,12.22,0,0,0,3,6.37,14.65,14.65,0,0,0,4.43,3.52,17.76,17.76,0,0,1,.3-2.23c.47-2.38,1.38-4,2.8-4.93a4.9,4.9,0,0,1,7.51,5.06,6,6,0,0,1-1.92,3.2,7.61,7.61,0,0,1-5.77,2.1,3.73,3.73,0,0,1-.46,0,10.69,10.69,0,0,0,.46,1.75c2.22,6.16,10.07,6.77,14.94,5.23l.49-.16a12.56,12.56,0,0,0,3.65-2,1.17,1.17,0,0,1,1.64.18,1.15,1.15,0,0,1-.18,1.64,14.91,14.91,0,0,1-4.32,2.38l-.58.19A18.31,18.31,0,0,1,232.54,278.7Zm-10.8-12.43a4.8,4.8,0,0,0,.75.09,5.31,5.31,0,0,0,4.06-1.49,3.78,3.78,0,0,0,1.21-1.95,2.56,2.56,0,0,0-3.93-2.64c-.87.57-1.46,1.69-1.8,3.44A14.24,14.24,0,0,0,221.74,266.27Z"/><path class="cls-2" d="M634.16,142.44a1.16,1.16,0,0,1-.33-2.28c2.48-.74,8.16-2.64,12.27-5.59a18.37,18.37,0,0,1-5.69-4.18c-1.78-1.95-2.5-3.84-2.12-5.64a6,6,0,0,1,3.43-3.92,8.53,8.53,0,0,1,7.49,0,7,7,0,0,1,3.83,5.09,9,9,0,0,1-2.4,7.76,14.21,14.21,0,0,0,5.16.09,11.94,11.94,0,0,0,9.17-7.38,1.16,1.16,0,1,1,2.14.92A14.23,14.23,0,0,1,656.19,136a16.71,16.71,0,0,1-7.53-.49c-4.28,3.55-10.58,5.79-14.17,6.85A1,1,0,0,1,634.16,142.44Zm11.39-20.17a6.34,6.34,0,0,0-2.79.65,4,4,0,0,0-2.19,2.31c-.26,1.27.71,2.64,1.56,3.58a16,16,0,0,0,6,4.09c1.92-1.88,3.08-4.09,2.62-6.61a4.67,4.67,0,0,0-2.57-3.42A5.86,5.86,0,0,0,645.55,122.27Z"/><path class="cls-1" d="M879.29,176.43H997.15c-.79-9.87-7.25-26.71-8.45-28.65-.49-.78-.91-1.51-1.27-2.07-5.5-8.74-20.68-14.56-27.53-4.09-4.79,7.32-.81,21.58-10.78,25.23C937.69,171,934.81,156,933.79,148.29c-1.25-9.48-1-19.18-3.83-28.4-1.18-2.76-3.16-5.92-6.31-6.31-3.16,0-5.92,2.36-7.1,5.13-3.5,8.49-4.46,17.66-5.74,26.68-1,7.31-2.46,23.45-12.19,24.36-5.17.48-9.84-8.74-14.63-4.66C881,167.68,881.12,173.1,879.29,176.43Z"/><rect class="cls-3" x="757.72" y="353.81" width="97.5" height="17.07"/><rect class="cls-3" x="757.72" y="336.76" width="97.5" height="17.05"/><rect class="cls-3" x="738.85" y="371.52" width="97.5" height="16.99"/><rect class="cls-3" x="748.23" y="458.39" width="97.5" height="17.07"/><rect class="cls-3" x="748.23" y="441.34" width="97.5" height="17.05"/><rect class="cls-3" x="729.25" y="406.1" width="97.5" height="17.07"/><rect class="cls-3" x="729.25" y="389.05" width="97.5" height="17.05"/><rect class="cls-3" x="733.83" y="301.52" width="97.5" height="17.07"/><rect class="cls-3" x="729.37" y="284.46" width="97.5" height="17.05"/><rect class="cls-3" x="749.67" y="319.22" width="97.5" height="16.99"/><rect class="cls-3" x="738.85" y="423.81" width="97.5" height="16.99"/><rect class="cls-3" x="738.85" y="476.1" width="97.5" height="16.99"/><rect class="cls-3" x="757.72" y="353.81" width="97.5" height="17.07"/><rect class="cls-3" x="757.72" y="336.76" width="97.5" height="17.05"/><rect class="cls-3" x="738.85" y="371.52" width="97.5" height="16.99"/><rect class="cls-3" x="748.23" y="458.39" width="97.5" height="17.07"/><rect class="cls-3" x="748.23" y="441.34" width="97.5" height="17.05"/><rect class="cls-3" x="729.25" y="406.1" width="97.5" height="17.07"/><rect class="cls-3" x="729.25" y="389.05" width="97.5" height="17.05"/><rect class="cls-3" x="733.83" y="301.52" width="97.5" height="17.07"/><rect class="cls-3" x="729.37" y="284.46" width="97.5" height="17.05"/><rect class="cls-3" x="749.67" y="319.22" width="97.5" height="16.99"/><path class="cls-2" d="M789.73,319.22a1.17,1.17,0,0,0,1.17,1.17H823v15h-2a1.17,1.17,0,0,0,0,2.34h10v14a1.17,1.17,0,1,0,0,2.33v16.24H812.12a1.17,1.17,0,0,0,0,2.33v15a1.16,1.16,0,0,0-1.16,1.16.91.91,0,0,0,0,.17h-8.46v15a1.17,1.17,0,0,0,0,2.34v16.76h8.64a1.18,1.18,0,0,0,.15,1.47,1.16,1.16,0,0,0,.82.34v15a1.17,1.17,0,0,0,0,2.33h9.38v14a1.17,1.17,0,1,0,0,2.34v16.24h-9.38a1.17,1.17,0,0,0,0,2.33v15.82h28v.11H828.68v-.11h7.67V477.27H853.3a1.17,1.17,0,1,0,0-2.33h-7.57V458.7h0a1.17,1.17,0,1,0,0-2.34h0v-15h-8.22a1,1,0,0,0,0-.17,1.16,1.16,0,0,0-1.17-1.17V425a1.17,1.17,0,0,0,0-2.34h-9.6V406.41a1.17,1.17,0,1,0,0-2.34v-14h9.6a1.17,1.17,0,1,0,0-2.33v-15a1.16,1.16,0,0,0,1.17-1.16,1.15,1.15,0,0,0-.19-.64h17.89V354.11a1.17,1.17,0,0,0,1.17-1.17,1.16,1.16,0,0,0-.34-.82,1.2,1.2,0,0,0-.83-.34v-15h-8.88a.94.94,0,0,0-.05-.55h.89V320.39h1.69a1.17,1.17,0,0,0,0-2.33H831.34V301.52h-3.69a1.16,1.16,0,0,0,.39-.87,1.16,1.16,0,0,0-1.17-1.17v-15H802.64v15a1.17,1.17,0,1,0,0,2.34h4.47v16.24H790.9A1.16,1.16,0,0,0,789.73,319.22Z"/><rect class="cls-2" x="738.85" y="423.81" width="97.5" height="16.99"/><rect class="cls-3" x="738.85" y="423.81" width="50.88" height="16.99"/><rect class="cls-3" x="738.85" y="476.7" width="97.5" height="16.99"/><rect class="cls-4" x="806.3" y="353.81" width="5.36" height="17.15"/><rect class="cls-4" x="766.34" y="353.81" width="10.6" height="17.07"/><rect class="cls-4" x="806.3" y="336.76" width="5.36" height="17.13"/><rect class="cls-4" x="809.01" y="371.52" width="5.31" height="17.07"/><path class="cls-4" d="M757.72,353h0Z"/><rect class="cls-4" x="761.62" y="371.92" width="10.6" height="17.07"/><path class="cls-4" d="M738.85,371.52h0Z"/><path class="cls-4" d="M836.35,372.68h-97.5a1.17,1.17,0,1,1,0-2.33h97.5a1.17,1.17,0,1,1,0,2.33Z"/><path class="cls-4" d="M855.22,354.11h-97.5a1.17,1.17,0,1,1,0-2.33h97.5a1.17,1.17,0,1,1,0,2.33Z"/><path class="cls-4" d="M748.23,457.53h0Z"/><path class="cls-4" d="M845.73,458.7h-97.5a1.17,1.17,0,0,1,0-2.34h97.5a1.17,1.17,0,1,1,0,2.34Z"/><rect class="cls-4" x="797.12" y="406.1" width="5.36" height="17.15"/><rect class="cls-4" x="818.18" y="441.29" width="5.36" height="35.2"/><rect class="cls-4" x="797.43" y="389.05" width="5.36" height="17.13"/><path class="cls-4" d="M729.25,405.24h0Z"/><path class="cls-4" d="M826.75,406.41h-97.5a1.17,1.17,0,1,1,0-2.34h97.5a1.17,1.17,0,0,1,0,2.34Z"/><rect class="cls-4" x="782.8" y="301.03" width="5.36" height="17.64"/><rect class="cls-4" x="755.11" y="301.52" width="10.6" height="17.07"/><rect class="cls-4" x="778.33" y="283.5" width="5.36" height="17.62"/><rect class="cls-4" x="750.64" y="283.18" width="10.6" height="18.34"/><rect class="cls-4" x="820.63" y="319.22" width="6.24" height="17.07"/><path class="cls-4" d="M729.37,300.65h0Z"/><path class="cls-4" d="M728,319.22h0Z"/><path class="cls-4" d="M848.87,320.39H717.63a1.17,1.17,0,1,1,0-2.33H848.87a1.17,1.17,0,0,1,0,2.33Z"/><path class="cls-4" d="M826.87,301.82h-97.5a1.17,1.17,0,1,1,0-2.34h97.5a1.17,1.17,0,0,1,0,2.34Z"/><path class="cls-4" d="M845.19,337.76h-97.5a1.17,1.17,0,0,1,0-2.34h97.5a1.17,1.17,0,1,1,0,2.34Z"/><path class="cls-4" d="M738.85,423.81h0Z"/><path class="cls-4" d="M836.35,425h-97.5a1.17,1.17,0,0,1,0-2.34h97.5a1.17,1.17,0,0,1,0,2.34Z"/><path class="cls-4" d="M853.31,442.35H738.85a1.17,1.17,0,0,1,0-2.34H853.31a1.17,1.17,0,0,1,0,2.34Z"/><rect class="cls-2" x="799.8" y="476.7" width="43.97" height="17.07"/><path class="cls-4" d="M738.85,476.1h0Z"/><path class="cls-4" d="M853.31,477.27H738.85a1.17,1.17,0,0,1,0-2.34H853.31a1.17,1.17,0,0,1,0,2.34Z"/><path class="cls-4" d="M836.35,390.05h-97.5a1.17,1.17,0,1,1,0-2.33h97.5a1.17,1.17,0,1,1,0,2.33Z"/><polygon class="cls-5" points="748.18 212.67 745.06 218.56 739.36 221.78 745.06 225 748.18 230.9 751.3 225 757.01 221.78 751.3 218.56 748.18 212.67"/><polygon class="cls-4" points="782.59 327.36 779.53 333.13 773.94 336.29 779.53 339.45 782.59 345.22 785.64 339.45 791.23 336.29 785.64 333.13 782.59 327.36"/><polygon class="cls-4" points="800.11 432.3 797.02 438.15 791.36 441.34 797.02 444.54 800.11 450.38 803.21 444.54 808.87 441.34 803.21 438.15 800.11 432.3"/><path class="cls-2" d="M333.37,382.25a1.17,1.17,0,0,1-1.17-1.17V216.73a1.17,1.17,0,0,1,2.34,0V381.08A1.17,1.17,0,0,1,333.37,382.25Z"/><ellipse class="cls-3" cx="109.42" cy="476.02" rx="46.61" ry="37.72" transform="translate(-378.42 452.12) rotate(-74.25)"/><path class="cls-2" d="M104.87,518a1.08,1.08,0,0,1-1-.61,1.06,1.06,0,0,1,.52-1.42c9.9-4.61,18.14-13.41,23.2-24.78a55.47,55.47,0,0,0,3.54-35.42c-2.86-11.78-9.91-21.14-19.34-25.67-8.59-4.13-18.45-4-27.76.31a43.61,43.61,0,0,0-13.59,10.08,1.07,1.07,0,0,1-1.57-1.45A46,46,0,0,1,83.16,428.5c9.9-4.61,20.41-4.71,29.59-.3,10,4.81,17.46,14.69,20.48,27.09a57.63,57.63,0,0,1-3.67,36.79c-5.26,11.83-13.87,21-24.24,25.84A1,1,0,0,1,104.87,518ZM73.21,516.7a1,1,0,0,1-.56-.16c-8.52-5.26-14.7-14.28-17.4-25.4a57.66,57.66,0,0,1,2.47-33.87,1.07,1.07,0,1,1,2,.76,55.57,55.57,0,0,0-2.4,32.61c2.57,10.57,8.42,19.13,16.46,24.09a1.07,1.07,0,0,1-.56,2Z"/><path class="cls-2" d="M89.52,500a7.78,7.78,0,0,1-4.78-1.47c-1.26-1-2.66-2.85-2.16-6.31a1.07,1.07,0,0,1,2.11.31c-.29,1.95.17,3.41,1.35,4.32,1.77,1.36,4.68,1.23,6.65.4,4.87-2.05,8.25-8.67,7.54-14.77a11.41,11.41,0,0,0-4.56-8,23,23,0,0,0-3.39-1.77c-2.9-1.32-6.19-2.81-7.48-6.94-1.49-4.75,0-10.93,3.84-15.74,2.94-3.7,6.61-5.68,10.06-5.41h0a6.1,6.1,0,0,1,4.34,2.33,8.67,8.67,0,0,1,1.62,6.66,1.06,1.06,0,1,1-2.1-.3,6.56,6.56,0,0,0-1.18-5,4,4,0,0,0-2.84-1.55c-2.78-.21-5.78,1.48-8.28,4.62-3.34,4.2-4.73,9.74-3.47,13.78,1,3.21,3.59,4.39,6.33,5.64a23.46,23.46,0,0,1,3.71,2,13.53,13.53,0,0,1,5.48,9.56c.81,7-3.15,14.58-8.83,17A10.75,10.75,0,0,1,89.52,500Z"/><path class="cls-2" d="M88.84,507.53h-.15a1.06,1.06,0,0,1-.91-1.2l9.14-68a1.06,1.06,0,1,1,2.11.28l-9.14,68A1.06,1.06,0,0,1,88.84,507.53Z"/><path class="cls-3" d="M828.92,485.13l11-48.39a22.09,22.09,0,0,1,13.27-15.58c.44-.17.87-.34,1.32-.49a21.45,21.45,0,0,1,3.76-.89l21.94-3.21a20.83,20.83,0,0,1,3.85-.22c.47,0,.94,0,1.41.09a22.1,22.1,0,0,1,17.17,11.12L927,470.78a28.78,28.78,0,0,1,3.46,9.8c.12.73.21,1.47.26,2.21a28.59,28.59,0,0,1-13.91,26.45c-.68.4-1.37.77-2.08,1.11a28.67,28.67,0,0,1-8.33,2.56l-35.35,5.17a36.11,36.11,0,0,1-4,.59l-6.31.68a28.52,28.52,0,0,1-31.93-21.89A28.19,28.19,0,0,1,828.92,485.13Z"/><path class="cls-3" d="M855.36,393.39,863,375.76,874,390.24l11.57-7.2c-1.52,8.14-4.07,28-4.07,28a13.85,13.85,0,0,1-11.64,11.18c-6.59,1-11.8-3.6-15.06-8.86-4.09-6.57-7.28-13.83-10.74-20.73Z"/><path class="cls-2" d="M931.88,495.87a1,1,0,0,1-.48-.11,1.16,1.16,0,0,1-.58-1.54,27.15,27.15,0,0,0,2.39-9.21c0-.68.07-1.39.06-2.11a27.85,27.85,0,0,0-1.93-9.8l-17.87-46.29A20.89,20.89,0,0,0,898.91,414c-.52-.12-.93-.21-1.31-.27a19.71,19.71,0,0,0-3.64-.33H892.7a1.15,1.15,0,0,1-1.08-.72,1.17,1.17,0,0,1,.25-1.27,12.78,12.78,0,0,0,1.76-2.2,12.48,12.48,0,0,0,1.26-2.63c.22-.79,4.52-16.06,7.27-24.63l-10.1,4.4a1.17,1.17,0,0,1-1.49-.51l-7.76-14.16-9.07,14.64a1.17,1.17,0,0,1-1.24.53l-9.13-2c.43,1.33.85,2.66,1.26,4a167.2,167.2,0,0,0,5.69,16.06,21.65,21.65,0,0,0,4.25,6.52,1.17,1.17,0,0,1-.84,2h-2a20.43,20.43,0,0,0-3.63.32c-.39.07-.8.16-1.32.28a22.31,22.31,0,0,0-3.09,1,1.17,1.17,0,0,1-.89-2.16,24.11,24.11,0,0,1,3.43-1.12c.58-.13,1-.23,1.46-.3a21.57,21.57,0,0,1,3.46-.36,25.83,25.83,0,0,1-3-5.24,167.1,167.1,0,0,1-5.77-16.3c-.61-1.93-1.25-3.94-1.89-5.87a1.17,1.17,0,0,1,1.36-1.51l10.31,2.24,9.69-15.64a1.17,1.17,0,0,1,1-.55h0a1.16,1.16,0,0,1,1,.6l8.21,15,11.52-5a1.19,1.19,0,0,1,1.26.21,1.17,1.17,0,0,1,.31,1.24c-2.64,7.72-8,26.84-8.06,27,0,0,0,0,0,.06a14.82,14.82,0,0,1-1.51,3.16c-.14.21-.28.43-.43.64a21.63,21.63,0,0,1,2.84.33c.42.07.87.17,1.45.3A23.22,23.22,0,0,1,915.65,426l17.87,46.29a29.9,29.9,0,0,1,2.08,10.61c0,.78,0,1.56-.07,2.32a29.11,29.11,0,0,1-2.59,10A1.16,1.16,0,0,1,931.88,495.87Z"/><path class="cls-2" d="M896.21,483.52a10.29,10.29,0,0,1-2.28-.24,12,12,0,0,1-8.93-13,12.52,12.52,0,0,1,5.14-8.49,28.23,28.23,0,0,1,3.49-2c2.59-1.34,5-2.6,5.92-5.23,1-2.86,0-6.37-2.4-9.16s-5.8-4.18-8.76-3.61h0a4.7,4.7,0,0,0-3.72,5.49,1.17,1.17,0,0,1-2.3.45,7,7,0,0,1,5.57-8.23h0c3.77-.72,8,.95,11,4.37s4.08,7.8,2.85,11.44-4.3,5.14-7,6.56a26.28,26.28,0,0,0-3.21,1.85,10.12,10.12,0,0,0-4.18,6.87A9.66,9.66,0,0,0,894.44,481c2,.45,5.08.11,6.67-1.44a3.15,3.15,0,0,0,.87-3.07,1.17,1.17,0,0,1,2.29-.45,5.51,5.51,0,0,1-1.53,5.2A9.56,9.56,0,0,1,896.21,483.52Z"/><path class="cls-2" d="M898.37,489.36a1.18,1.18,0,0,1-1.15-1L887.54,435a1.17,1.17,0,0,1,2.3-.42L899.52,488a1.17,1.17,0,0,1-.94,1.36Z"/><path class="cls-2" d="M44.31,495.8H1.06a1.07,1.07,0,0,1,0-2.13H44.31a1.07,1.07,0,0,1,0,2.13Z"/><polygon class="cls-4" points="751.89 88.74 746.62 89.85 745.6 80.88 744.3 79.25 751.89 88.74"/><polygon class="cls-3" points="744.3 79.25 737.51 70.78 712.15 100.44 759.85 98.67 751.89 88.74 744.3 79.25"/><polygon class="cls-2" points="753.61 73.88 719.65 97.41 751.87 88.75 753.61 73.88"/><path class="cls-2" d="M770.29,73.8a1.24,1.24,0,0,1-.47-2.38l3.89-1.6a1.24,1.24,0,0,1,.94,2.29l-3.89,1.6A1.27,1.27,0,0,1,770.29,73.8ZM782,69a1.23,1.23,0,0,1-1.14-.76,1.24,1.24,0,0,1,.67-1.62l3.88-1.6a1.24,1.24,0,0,1,.94,2.29l-3.88,1.6A1.31,1.31,0,0,1,782,69Zm11.65-4.8a1.24,1.24,0,0,1-.47-2.38l3.89-1.6a1.25,1.25,0,0,1,1.61.68,1.23,1.23,0,0,1-.67,1.61l-3.89,1.6A1.27,1.27,0,0,1,793.6,64.2Zm11.66-4.8a1.23,1.23,0,0,1-1.14-.76,1.24,1.24,0,0,1,.67-1.62l3.88-1.6a1.25,1.25,0,0,1,1.62.68,1.23,1.23,0,0,1-.68,1.61l-3.88,1.6A1.27,1.27,0,0,1,805.26,59.4Zm11.66-4.8a1.25,1.25,0,0,1-1.15-.76,1.23,1.23,0,0,1,.67-1.61l3.89-1.6a1.23,1.23,0,0,1,.94,2.28l-3.88,1.6A1.35,1.35,0,0,1,816.92,54.6Zm11.65-4.8a1.25,1.25,0,0,1-1.14-.76,1.23,1.23,0,0,1,.67-1.61l3.89-1.6a1.23,1.23,0,0,1,.94,2.28L829,49.71A1.27,1.27,0,0,1,828.57,49.8ZM840.23,45a1.23,1.23,0,0,1-.47-2.37l3.88-1.6a1.23,1.23,0,0,1,.94,2.28l-3.88,1.6A1.35,1.35,0,0,1,840.23,45Zm11.65-4.8a1.25,1.25,0,0,1-1.14-.76,1.23,1.23,0,0,1,.67-1.61l3.89-1.6a1.23,1.23,0,0,1,.94,2.28l-3.89,1.6A1.27,1.27,0,0,1,851.88,40.2Z"/><polygon class="cls-4" points="181.65 165.96 187.35 168.16 182.78 177.33 183.01 179.69 181.65 165.96"/><polygon class="cls-3" points="183.01 179.69 184.23 191.95 226.72 179.39 180.21 151.58 181.65 165.96 183.01 179.69"/><polygon class="cls-2" points="170.83 179.04 217.7 177.64 181.68 165.96 170.83 179.04"/></g></g></svg>