<svg xmlns="http://www.w3.org/2000/svg" xmlns:xlink="http://www.w3.org/1999/xlink" viewBox="0 0 1915.79 511.05"><defs><style>.cls-1{fill:url(#linear-gradient);}.cls-2{fill:#d2d2d8;}.cls-3{fill:url(#linear-gradient-2);}</style><linearGradient id="linear-gradient" x1="1.52" y1="4137.73" x2="2.52" y2="4137.73" gradientTransform="matrix(1927.64, 28.04, 28.04, -1927.64, -118956.27, 7976253.09)" gradientUnits="userSpaceOnUse"><stop offset="0" stop-color="#5f5f5f"/><stop offset="0.65" stop-color="#968e8d"/><stop offset="1" stop-color="#aea2a1"/></linearGradient><linearGradient id="linear-gradient-2" x1="2.17" y1="4137.69" x2="2.17" y2="4137.69" xlink:href="#linear-gradient"/></defs><title>banner عن الشركة </title><g id="Layer_2" data-name="Layer 2"><g id="Layer_4" data-name="Layer 4"><path class="cls-1" d="M1905.68,384.73q4.77,3.61,9.53,7.32a1.5,1.5,0,0,1-1.84,2.37q-4.75-3.71-9.51-7.3a1.5,1.5,0,0,1,1.82-2.39ZM1875,362.28q4.9,3.44,9.79,7a1.5,1.5,0,1,1-1.75,2.43q-4.87-3.51-9.76-6.95a1.5,1.5,0,1,1,1.72-2.45ZM1843.42,341q5,3.25,10,6.59a1.5,1.5,0,1,1-1.66,2.5q-5-3.33-10-6.57a1.5,1.5,0,0,1,1.63-2.52Zm-32.35-20q5.16,3,10.3,6.19a1.5,1.5,0,1,1-1.55,2.56q-5.14-3.14-10.28-6.16a1.5,1.5,0,0,1,1.53-2.59Zm-33.14-18.68q5.27,2.83,10.55,5.75a1.5,1.5,0,1,1-1.46,2.62q-5.25-2.91-10.51-5.73a1.5,1.5,0,1,1,1.42-2.64ZM1744,285q5.4,2.61,10.79,5.3a1.5,1.5,0,0,1-1.34,2.69q-5.37-2.7-10.75-5.29a1.5,1.5,0,1,1,1.3-2.7Zm-34.61-15.8q5.5,2.37,11,4.83a1.5,1.5,0,0,1-1.22,2.74q-5.49-2.44-11-4.81a1.5,1.5,0,0,1,1.19-2.76ZM1674.13,255q5.61,2.13,11.21,4.34a1.5,1.5,0,0,1-1.1,2.79q-5.6-2.2-11.17-4.33a1.48,1.48,0,0,1-.87-1.93,1.5,1.5,0,0,1,1.93-.87Zm-35.87-12.71q5.7,1.88,11.39,3.84a1.5,1.5,0,1,1-1,2.84q-5.67-2-11.34-3.83a1.5,1.5,0,1,1,.93-2.85Zm-36.38-11.13q5.76,1.63,11.54,3.35a1.5,1.5,0,1,1-.86,2.87q-5.74-1.71-11.5-3.33a1.5,1.5,0,1,1,.82-2.89ZM1565,221.57q5.84,1.38,11.68,2.84a1.5,1.5,0,1,1-.73,2.91q-5.82-1.45-11.64-2.83a1.5,1.5,0,0,1,.69-2.92Zm-37.13-8q5.88,1.14,11.75,2.35a1.5,1.5,0,0,1-.61,2.94q-5.85-1.22-11.71-2.34a1.5,1.5,0,1,1,.57-2.95Zm-37.44-6.47q5.92.91,11.84,1.88a1.5,1.5,0,1,1-.49,3q-5.89-1-11.8-1.87a1.5,1.5,0,0,1,.45-3Zm-37.68-5q6,.67,11.91,1.43a1.5,1.5,0,0,1-.37,3q-5.94-.75-11.88-1.43a1.5,1.5,0,1,1,.34-3Zm-37.85-3.63q6,.47,12,1a1.5,1.5,0,0,1-.27,3q-6-.54-11.93-1a1.5,1.5,0,0,1,.23-3Zm-38-2.34q6,.27,12,.6a1.5,1.5,0,0,1-.17,3q-6-.33-12-.6a1.5,1.5,0,1,1,.14-3ZM1339,195q6,.09,12,.23a1.5,1.5,0,1,1-.07,3q-6-.13-12-.23a1.5,1.5,0,0,1,0-3Zm-38,0q6-.07,12-.11a1.5,1.5,0,0,1,0,3q-6,0-12,.11a1.5,1.5,0,0,1,0-3Zm-38,1q6-.23,12-.4a1.5,1.5,0,0,1,.09,3q-6,.18-12,.4a1.5,1.5,0,0,1-.11-3Zm-38,1.86q6-.36,12-.68a1.5,1.5,0,1,1,.16,3q-6,.31-12,.67a1.5,1.5,0,1,1-.18-3Zm-38,2.63,12-.91a1.5,1.5,0,0,1,.22,3l-12,.9a1.5,1.5,0,1,1-.23-3ZM1149,203.74l12-1.11a1.5,1.5,0,0,1,.27,3q-6,.54-12,1.11a1.5,1.5,0,0,1-.28-3Zm-37.86,3.88q6-.66,12-1.28a1.5,1.5,0,0,1,.31,3l-11.94,1.28a1.5,1.5,0,0,1-.33-3ZM1073.36,212l11.93-1.41a1.5,1.5,0,0,1,.35,3c-4,.46-8,.94-11.93,1.41a1.5,1.5,0,0,1-.35-3Zm-37.75,4.7,11.92-1.52a1.5,1.5,0,0,1,.37,3L1036,219.63a1.5,1.5,0,1,1-.38-3ZM997.9,221.6l11.9-1.58a1.5,1.5,0,1,1,.4,3l-11.9,1.59a1.5,1.5,0,1,1-.4-3Zm-37.68,5.12,11.9-1.63a1.5,1.5,0,0,1,.4,3l-11.9,1.63a1.5,1.5,0,1,1-.4-3Zm-37.67,5.17,11.9-1.63a1.5,1.5,0,0,1,.41,3L923,234.87a1.5,1.5,0,0,1-.41-3ZM884.89,237l11.9-1.61a1.5,1.5,0,1,1,.4,3L885.29,240a1.5,1.5,0,0,1-.4-3Zm-37.67,5,11.9-1.56a1.5,1.5,0,1,1,.39,3L847.61,245a1.5,1.5,0,0,1-.39-3Zm-37.69,4.78,11.91-1.48a1.5,1.5,0,0,1,.37,3L809.9,249.8a1.5,1.5,0,1,1-.37-3Zm-37.72,4.46,11.91-1.37a1.5,1.5,0,1,1,.35,3l-11.93,1.37a1.5,1.5,0,1,1-.33-3Zm-37.77,4q6-.6,11.93-1.22a1.5,1.5,0,1,1,.31,3l-11.94,1.23a1.5,1.5,0,0,1-.3-3Zm-37.81,3.52q6-.51,11.94-1.05a1.5,1.5,0,1,1,.27,3q-6,.54-12,1.05a1.5,1.5,0,0,1-.25-3Zm-37.86,2.91q6-.4,12-.85a1.5,1.5,0,1,1,.22,3q-6,.45-12,.85a1.5,1.5,0,1,1-.2-3Zm-37.91,2.19q6-.29,12-.61a1.5,1.5,0,1,1,.16,3q-6,.33-12,.61a1.5,1.5,0,0,1-.15-3Zm-37.94,1.37q6-.14,12-.34a1.5,1.5,0,0,1,.09,3q-6,.19-12,.34a1.5,1.5,0,0,1-.08-3Zm-38,.47h.58c3.81,0,7.61,0,11.42,0a1.5,1.5,0,1,1,0,3q-5.72,0-11.44,0h-.58a1.5,1.5,0,0,1,0-3Zm-37.95-.53q6,.17,12,.28a1.5,1.5,0,1,1-.05,3q-6-.11-12-.28a1.5,1.5,0,0,1-1.46-1.54,1.51,1.51,0,0,1,1.55-1.46Zm-37.94-1.62q6,.35,12,.63a1.5,1.5,0,1,1-.14,3q-6-.28-12-.64a1.5,1.5,0,0,1,.17-3Zm-37.86-2.81q6,.54,11.95,1a1.5,1.5,0,1,1-.24,3q-6-.48-12-1a1.5,1.5,0,1,1,.27-3ZM393,256.75q6,.74,11.92,1.42a1.5,1.5,0,0,1-.34,3q-6-.67-11.95-1.43a1.5,1.5,0,1,1,.37-3Zm-37.59-5.4c3.95.65,7.91,1.26,11.86,1.86a1.5,1.5,0,1,1-.45,3q-5.94-.88-11.89-1.85a1.5,1.5,0,0,1,.48-3Zm-37.38-6.77q5.9,1.18,11.79,2.29a1.5,1.5,0,0,1-.56,2.95q-5.91-1.11-11.82-2.3a1.5,1.5,0,1,1,.59-2.94ZM281,236.37q5.85,1.41,11.69,2.75a1.5,1.5,0,0,1-.67,2.93q-5.87-1.35-11.73-2.76a1.5,1.5,0,0,1,.71-2.92Zm-36.69-9.64q5.78,1.64,11.54,3.2a1.5,1.5,0,0,1-.78,2.9q-5.79-1.58-11.58-3.22a1.5,1.5,0,0,1,.82-2.88ZM208,215.62q5.7,1.88,11.41,3.67a1.5,1.5,0,1,1-.9,2.86q-5.73-1.8-11.45-3.68a1.5,1.5,0,0,1,.94-2.85Zm-35.79-12.56q5.63,2.1,11.25,4.12a1.5,1.5,0,1,1-1,2.82q-5.64-2-11.28-4.13a1.5,1.5,0,0,1,1.05-2.81Zm-35.25-14q5.53,2.34,11.07,4.58a1.5,1.5,0,1,1-1.13,2.78q-5.55-2.25-11.1-4.59a1.5,1.5,0,0,1,1.16-2.77Zm-34.66-15.4q5.44,2.55,10.88,5a1.5,1.5,0,1,1-1.24,2.73q-5.46-2.47-10.91-5a1.5,1.5,0,0,1,1.27-2.71Zm-34-16.77q5.34,2.76,10.67,5.44A1.5,1.5,0,0,1,77.62,165q-5.36-2.69-10.71-5.46a1.5,1.5,0,0,1,1.38-2.66ZM34.94,138.8q5.22,3,10.45,5.85A1.5,1.5,0,0,1,44,147.28q-5.25-2.9-10.49-5.87a1.5,1.5,0,1,1,1.48-2.61ZM2.29,119.49q5.12,3.15,10.23,6.23A1.5,1.5,0,0,1,11,128.29h0Q5.85,125.2.71,122a1.5,1.5,0,1,1,1.58-2.55Z"/><path class="cls-2" d="M785.75,46.12C635.9,115.15,543,225.83,582.94,311.53c56.89,122.06,183.92,46.66,335.83,123.16,311.47,156.87,442.38,40.69,456.17-68.91C1416.29,37.36,1042-71.94,785.75,46.12"/></g><g id="Layer_2-2" data-name="Layer 2"><path class="cls-3" d="M1252.53,336.84a.94.94,0,0,1,.81-1h0"/></g></g></svg>