<svg xmlns="http://www.w3.org/2000/svg" viewBox="0 0 1024.55 521.65"><defs><style>.cls-1{fill:#cc9b9b;}.cls-2{fill:#e5aeae;}.cls-3{fill:#eab9b9;}.cls-4{fill:#fff;}.cls-5{fill:#dce5f7;}.cls-6{fill:#282828;}</style></defs><title>Asset 1</title><g id="Layer_2" data-name="Layer 2"><g id="Layer_5" data-name="Layer 5"><path class="cls-1" d="M953.48,506.4c4.22,4.07,9.41,5.7,11.6,3.63s.56-7-3.65-11.12c-2.92-2.81-7.35-3.47-9.8-3.61a1.66,1.66,0,0,0-1.8,1.69C949.94,499.34,950.57,503.58,953.48,506.4Z"/><path class="cls-1" d="M972.76,509.8c-5.55,2.16-9.11,6.12-7.94,8.84s6.6,3.18,12.15,1c3.85-1.49,6.18-5.15,7.25-7.26a1.6,1.6,0,0,0-1-2.24C981,509.37,976.61,508.3,972.76,509.8Z"/><path class="cls-2" d="M893.16,520.94a.94.94,0,0,1-1-.9c-.21-16.17,4-35.4,10.55-47.86a1,1,0,0,1,1.29-.4.9.9,0,0,1,.43,1.22c-6.4,12.22-10.56,31.11-10.36,47a.92.92,0,0,1-.94.92Z"/><polygon class="cls-3" points="906.51 479.87 913.08 469.15 901.85 462.88 895.28 473.61 906.51 479.87"/><path class="cls-1" d="M896.89,462.23a4.64,4.64,0,0,0,5.64,3.14,4.38,4.38,0,0,0,3.3-5.38,4.66,4.66,0,0,0-5.64-3.15A4.41,4.41,0,0,0,896.89,462.23Z"/><path class="cls-1" d="M902.53,482.77a4.66,4.66,0,0,0,5.64,3.15,4.41,4.41,0,0,0,3.3-5.39,4.64,4.64,0,0,0-5.64-3.14A4.39,4.39,0,0,0,902.53,482.77Z"/><path class="cls-1" d="M916.11,473a4.39,4.39,0,0,0,3.3-5.38,4.66,4.66,0,0,0-5.64-3.15,4.41,4.41,0,0,0-3.3,5.39A4.64,4.64,0,0,0,916.11,473Z"/><path class="cls-1" d="M895.1,478.21a4.4,4.4,0,0,0,3.3-5.38,4.64,4.64,0,0,0-5.64-3.15,4.4,4.4,0,0,0-3.3,5.38A4.64,4.64,0,0,0,895.1,478.21Z"/><path class="cls-1" d="M133.09,507.31c4.49,3.5,9.66,4.56,11.55,2.36s-.22-6.84-4.71-10.35c-3.11-2.42-7.45-2.62-9.83-2.51a1.59,1.59,0,0,0-1.55,1.8C128.91,500.86,130,504.88,133.09,507.31Z"/><path class="cls-1" d="M152.49,505.85c-5.15,2.56-8.2,6.69-6.83,9.21s6.67,2.5,11.82-.06c3.56-1.77,5.46-5.5,6.29-7.63a1.55,1.55,0,0,0-1.13-2.07C160.34,504.73,156.05,504.08,152.49,505.85Z"/><path class="cls-2" d="M142,488.88a.94.94,0,0,1-.93-.72,164.87,164.87,0,0,0-5.42-19,.91.91,0,0,1,.6-1.16,1,1,0,0,1,1.21.57,168.94,168.94,0,0,1,5.48,19.19.92.92,0,0,1-.74,1.09Z"/><path class="cls-2" d="M147,521.53a.94.94,0,0,1-1-.84,248.62,248.62,0,0,0-3.67-26.49.91.91,0,0,1,.76-1.07,1,1,0,0,1,1.12.73,251,251,0,0,1,3.7,26.69.93.93,0,0,1-.88,1Z"/><path class="cls-2" d="M135.34,465.65a3.4,3.4,0,0,0,2.33-4.31,3.63,3.63,0,0,0-4.51-2.23,3.4,3.4,0,0,0-2.33,4.31A3.63,3.63,0,0,0,135.34,465.65Z"/><path class="cls-3" d="M123.63,469.08a12.65,12.65,0,0,0,15.91,7.72,11.9,11.9,0,0,0,8.05-14.69,12.24,12.24,0,0,0-8.4-8.09l-.84,7.06a4.3,4.3,0,0,1-3.06,3.55h0a4.57,4.57,0,0,1-4.65-1.22l-4.95-5.3A11.5,11.5,0,0,0,123.63,469.08Z"/><path class="cls-1" d="M140.28,456.34a2.51,2.51,0,0,0,1.72-3.17,2.68,2.68,0,0,0-3.32-1.65,2.51,2.51,0,0,0-1.72,3.17A2.68,2.68,0,0,0,140.28,456.34Z"/><path class="cls-1" d="M126.16,460.62a2.51,2.51,0,0,0,1.72-3.17,2.69,2.69,0,0,0-3.33-1.65,2.51,2.51,0,0,0-1.72,3.17A2.69,2.69,0,0,0,126.16,460.62Z"/><rect class="cls-4" x="168.17" y="460.93" width="123.03" height="56.74" transform="translate(459.38 978.6) rotate(180)"/><path class="cls-1" d="M164,520.62H439c8.8,0,15.95-6.83,15.95-15.23V473.68c0-8.4-7.15-15.23-15.95-15.23H164a3,3,0,1,0,0,5.9H439a9.56,9.56,0,0,1,9.77,9.33v31.71a9.57,9.57,0,0,1-9.77,9.33H164a3,3,0,1,0,0,5.9Z"/><path class="cls-1" d="M261.11,519.07H438.75a12.87,12.87,0,0,0,13.12-12.62V471.77a12.87,12.87,0,0,0-13.12-12.62H261.11a12.88,12.88,0,0,1,13.13,12.62v34.68A12.88,12.88,0,0,1,261.11,519.07Z"/><polygon class="cls-2" points="238.63 509.06 247.54 500.3 256.44 509.06 256.44 482.48 238.63 482.48 238.63 509.06"/><rect class="cls-4" x="217.98" y="414.75" width="123.03" height="40.23" transform="translate(559 869.73) rotate(180)"/><rect class="cls-5" x="296.7" y="348.15" width="123.03" height="40.23"/><path class="cls-3" d="M315.62,419.56a21.28,21.28,0,0,1,6.51,15.31A21.65,21.65,0,0,1,307.93,455v1.46H477.61c12.29,0,22.25-9.68,22.25-21.63a21.29,21.29,0,0,0-6.52-15.31,22.52,22.52,0,0,0-15.73-6.33H307.93v1.46A22.34,22.34,0,0,1,315.62,419.56Z"/><path class="cls-3" d="M212,458.59H478.14c13.7,0,24.85-10.64,24.85-23.72s-11.15-23.73-24.85-23.73H212a3.61,3.61,0,1,0,0,7.22H478.14c9.53,0,17.29,7.4,17.29,16.51s-7.76,16.5-17.29,16.5H212a3.61,3.61,0,1,0,0,7.22Z"/><rect class="cls-4" x="278.89" y="348.15" width="183.97" height="58.38"/><path class="cls-2" d="M189.63,411.16H477.09a3.53,3.53,0,1,0,0-7.05H189.63c-15.34,0-27.82-11.91-27.82-26.56S174.29,351,189.63,351H477.09a3.53,3.53,0,1,0,0-7.05H189.63c-19.41,0-35.2,15.07-35.2,33.6S170.22,411.16,189.63,411.16Z"/><path class="cls-2" d="M157.39,377.55c0,17.34,14.72,31.4,32.89,31.4h159v-.79c-14.62-3.18-25.54-15.68-25.54-30.61a30.6,30.6,0,0,1,9.63-22.2,33.29,33.29,0,0,1,15.91-8.41v-.79h-159a33.59,33.59,0,0,0-23.26,9.2A30.6,30.6,0,0,0,157.39,377.55Z"/><rect class="cls-4" x="296.41" y="301.89" width="116.66" height="40.23"/><path class="cls-3" d="M321.81,306.7a21.28,21.28,0,0,0-6.52,15.3,21.67,21.67,0,0,0,14.21,20.18v1.46H198.11c-12.28,0-22.24-9.69-22.24-21.64a21.31,21.31,0,0,1,6.51-15.3,22.49,22.49,0,0,1,15.73-6.34H329.5v1.47A22.25,22.25,0,0,0,321.81,306.7Z"/><path class="cls-3" d="M425.35,346a3.37,3.37,0,1,0,0-6.73L196.93,338.1a17.83,17.83,0,0,1-12.38-5,16.23,16.23,0,0,1-5.07-11.87c.05-9.21,7.91-16.67,17.54-16.67h.09l228.43,1.13h0a3.37,3.37,0,1,0,0-6.73l-228.43-1.13H197c-13.5,0-24.52,10.46-24.59,23.36a22.78,22.78,0,0,0,7.11,16.64,25,25,0,0,0,17.35,7L425.33,346Z"/><path class="cls-4" d="M416.57,484V267.22a7.36,7.36,0,0,1,7.51-7.17H814a7.36,7.36,0,0,1,7.51,7.17V484Z"/><path class="cls-2" d="M814,266a1.28,1.28,0,0,1,1.31,1.25V478.06H422.77V267.22a1.28,1.28,0,0,1,1.31-1.25Zm0-11.84H424.08c-7.57,0-13.71,5.86-13.71,13.09V489.9H827.71V267.22c0-7.23-6.14-13.09-13.71-13.09Z"/><path class="cls-6" d="M822.51,436.68h-.08a1,1,0,0,1-.95-1.07l13.6-157.17c.58-6.64-4.62-12.49-11.58-13L434.9,234.74c-.35,0-.71-.05-1.06-.05a12.52,12.52,0,0,0-12.61,11.1L411.07,363.16A1,1,0,0,1,409,363l10.16-117.37c.63-7.25,7.08-12.92,14.68-12.92.41,0,.82,0,1.23,0l388.6,30.66c8.11.64,14.16,7.45,13.49,15.19L823.55,435.77A1,1,0,0,1,822.51,436.68Z"/><path class="cls-2" d="M850.27,489.9H387.81c-8.73,0-15.81,6.76-15.81,15.09h0c0,8.33,7.08,15.09,15.81,15.09H850.27c8.73,0,15.81-6.76,15.81-15.09h0C866.08,496.66,859,489.9,850.27,489.9Z"/><path class="cls-4" d="M657.72,502.07H580.36a1,1,0,1,1,0-2h77.36a1,1,0,1,1,0,2Z"/><rect class="cls-5" x="459.16" y="444.06" width="326.16" height="18.48"/><rect class="cls-5" x="459.16" y="411.81" width="326.16" height="18.48"/><rect class="cls-5" x="507.53" y="361.93" width="259.1" height="36.96"/><rect class="cls-5" x="507.53" y="304.13" width="259.1" height="36.96"/><polygon class="cls-3" points="226.94 243.37 229.5 247.98 234.17 250.5 229.5 253.02 226.94 257.63 224.38 253.02 219.71 250.5 224.38 247.98 226.94 243.37"/><polygon class="cls-3" points="69 286.29 71.56 290.9 76.23 293.42 71.56 295.94 69 300.55 66.45 295.94 61.78 293.42 66.45 290.9 69 286.29"/><polygon class="cls-3" points="136.07 150.88 138.62 155.49 143.29 158.01 138.62 160.53 136.07 165.14 133.51 160.53 128.84 158.01 133.51 155.49 136.07 150.88"/><polygon class="cls-3" points="914.94 364.89 917.49 369.5 922.17 372.02 917.49 374.54 914.94 379.14 912.38 374.54 907.71 372.02 912.38 369.5 914.94 364.89"/><polygon class="cls-3" points="429.09 149.91 431.64 154.52 436.31 157.04 431.64 159.56 429.09 164.16 426.53 159.56 421.86 157.04 426.53 154.52 429.09 149.91"/><path class="cls-1" d="M353.12,195.91h0a9.67,9.67,0,0,1-9.88,9.44h0a9.68,9.68,0,0,1-9.89-9.44h0a9.67,9.67,0,0,1,9.89-9.43h0A9.66,9.66,0,0,1,353.12,195.91Z"/><path class="cls-2" d="M376.13,219.87h0a5.13,5.13,0,0,1-5.25,5h0a5.13,5.13,0,0,1-5.25-5h0a5.13,5.13,0,0,1,5.25-5h0A5.13,5.13,0,0,1,376.13,219.87Z"/><path class="cls-3" d="M362,214H344a.93.93,0,0,1-.95-.91V195.91A.94.94,0,0,1,344,195h18a.94.94,0,0,1,.95.91v17.17A.93.93,0,0,1,362,214Zm-17-1.82H361V196.83H345Z"/><path class="cls-6" d="M152.86,341.21a1.14,1.14,0,0,1-1.1-.78,1.09,1.09,0,0,1,.78-1.36,42.27,42.27,0,0,0,11-4.77,16.65,16.65,0,0,1-5.08-3.59c-1.64-1.71-2.3-3.39-2-5a5.33,5.33,0,0,1,3.17-3.47,8.18,8.18,0,0,1,6.89,0,6.22,6.22,0,0,1,3.54,4.49,7.63,7.63,0,0,1-2.11,6.71,13.25,13.25,0,0,0,4.53.05,10.72,10.72,0,0,0,8.28-6.37,1.17,1.17,0,0,1,1.51-.58A1.08,1.08,0,0,1,183,328a12.92,12.92,0,0,1-10,7.67,15.87,15.87,0,0,1-6.85-.41c-3.92,3.08-9.64,5-12.9,5.95A1.24,1.24,0,0,1,152.86,341.21Zm10.38-17.54a5.89,5.89,0,0,0-2.51.56c-.51.25-1.72.93-1.94,2s.63,2.24,1.4,3a14.45,14.45,0,0,0,5.37,3.52c1.71-1.6,2.73-3.49,2.32-5.63a4,4,0,0,0-2.3-2.92A5.34,5.34,0,0,0,163.24,323.67Z"/><path class="cls-5" d="M974.49,157h-185a28.36,28.36,0,0,1,.2-4.72h0a44.71,44.71,0,0,1,4.8-15.09c3.91-7.36,9.78-12.81,16.36-11.13a14.42,14.42,0,0,1,6.22,3.7c3.17,3,5.72,6.68,8.86,9.72s7.16,5.47,11.38,5.14c5.3-.41,9.1-5.46,9.89-10.79,1.91-12.8,1.79-38.11,16.78-41.61l.85-.18c12.81-2.34,21.65,11,25.06,23,.39,1.36.7,2.7.95,4a55.3,55.3,0,0,1,1.08,10c0,.22,0,.43.07.65.1.93.21,1.85.36,2.75a23.64,23.64,0,0,0,1.77,6.24,2.76,2.76,0,0,0,1.56,1.66c2,.53,3.76-2,4.93-4,.33-.57.62-1.1.86-1.5,3.72-6.3,14-10.5,18.6-3,3.24,5.28.55,15.57,7.28,18.2,7.73,3,9.68-7.83,10.36-13.39.85-6.84.71-13.84,2.59-20.49.8-2,2.13-4.27,4.27-4.56,2.13,0,4,1.71,4.8,3.7,2.36,6.13,3,12.75,3.87,19.26.71,5.27,1.67,16.92,8.24,17.58,3.49.34,6.65-6.31,9.88-3.36C973.37,150.73,973.26,154.64,974.49,157Z"/><path class="cls-5" d="M411.51,60H529.3c-.79-9.42-7.24-25.48-8.44-27.33-.49-.75-.92-1.45-1.27-2-5.5-8.33-20.67-13.88-27.52-3.89-4.78,7-.8,20.59-10.77,24.07-11.42,4-14.3-10.36-15.32-17.71-1.25-9-1-18.3-3.83-27.1C461,3.39,459,.38,455.85,0a8.14,8.14,0,0,0-7.1,4.9c-3.5,8.1-4.46,16.84-5.74,25.45-1,7-2.46,22.38-12.18,23.25-5.16.45-9.83-8.35-14.62-4.45C413.18,51.62,413.34,56.79,411.51,60Z"/><path class="cls-6" d="M894.7,248.38c-4.82,0-9.5-2-11.16-6.45a11,11,0,0,1-.64-2.78,14.3,14.3,0,0,1-5.69-4,12.14,12.14,0,0,1-3.2-6.62.93.93,0,0,1,.87-1,1,1,0,0,1,1,.83,10.46,10.46,0,0,0,2.74,5.6,13.4,13.4,0,0,0,4.21,3.15,15.24,15.24,0,0,1,.28-2.08,6.16,6.16,0,0,1,2.51-4.22,4.63,4.63,0,0,1,4.84,0,4.16,4.16,0,0,1,1.83,4.27,5.08,5.08,0,0,1-1.71,2.73,7,7,0,0,1-5.18,1.8l-.55-.05a9,9,0,0,0,.45,1.68c2,5.41,9.26,5.95,13.73,4.61l.46-.15a11.57,11.57,0,0,0,3.35-1.75,1,1,0,0,1,1.34.14.88.88,0,0,1-.14,1.28,13.58,13.58,0,0,1-3.91,2.05l-.52.17A17.59,17.59,0,0,1,894.7,248.38Zm-9.94-10.62a5.33,5.33,0,0,0,.79.1,5.14,5.14,0,0,0,3.78-1.33,3.34,3.34,0,0,0,1.13-1.74,2.37,2.37,0,0,0-1-2.4,2.63,2.63,0,0,0-2.72,0,4.46,4.46,0,0,0-1.68,3.06A12.62,12.62,0,0,0,884.76,237.76Z"/><path class="cls-6" d="M1023.51,521.61H654.66a1,1,0,1,1,0-2h368.85a1,1,0,1,1,0,2Z"/><path class="cls-2" d="M792.12,211.15,774,415.75a8.16,8.16,0,0,1-9,7.21L468,398.69a7.48,7.48,0,0,1-7.07-7.93l17-203.49a7.59,7.59,0,0,1,8.29-6.75l298.85,22.71A7.47,7.47,0,0,1,792.12,211.15Z"/><path class="cls-1" d="M480.87,377.7l3.1-37.19,121.39,9.22c-.75,9,6.26,16.81,15.64,17.52s17.6-6,18.35-14.93l121.39,9.22-3.1,37.19Z"/><path class="cls-4" d="M774.84,192.44,759.5,376.36l-94.14-7.15a51.9,51.9,0,0,0-34,9.67,17.83,17.83,0,0,1-22.45-1.71,51.23,51.23,0,0,0-32-14.69l-94.14-7.15L498.07,171.4l94.15,7.16a51.21,51.21,0,0,1,32,14.69,17.34,17.34,0,0,0,10.88,4.9A17.61,17.61,0,0,0,646.67,195a51.84,51.84,0,0,1,34-9.68Z"/><path class="cls-6" d="M760.4,363.7h-.07l-94.14-7.15a49.63,49.63,0,0,0-15.2,1.2.79.79,0,0,1-.93-.54.73.73,0,0,1,.56-.88,51.25,51.25,0,0,1,15.69-1.23l93.39,7.09,15.21-182.46-87.09-6.08a.74.74,0,0,1-.71-.78.76.76,0,0,1,.82-.67l87.86,6.13a.74.74,0,0,1,.52.25.7.7,0,0,1,.18.53L761.16,363a.73.73,0,0,1-.27.49A.8.8,0,0,1,760.4,363.7Z"/><path class="cls-6" d="M539.61,346.92h-.06l-56-4.25a.74.74,0,0,1-.7-.78L498.21,158a.68.68,0,0,1,.26-.49.82.82,0,0,1,.56-.18l47.4,3.61a.73.73,0,0,1,.7.78.75.75,0,0,1-.82.67l-46.64-3.55L484.45,341.27l55.22,4.19a.73.73,0,1,1-.06,1.46Z"/><path class="cls-6" d="M637.35,185.53c-.47,0-.94,0-1.41-.05a18.2,18.2,0,0,1-11.38-5.12,50.43,50.43,0,0,0-31.51-14.47l-21.87-1.66a.73.73,0,0,1-.7-.78.74.74,0,0,1,.82-.67l21.87,1.66a52,52,0,0,1,32.49,14.91,16.57,16.57,0,0,0,10.4,4.68,16.79,16.79,0,0,0,11-3.05,53.46,53.46,0,0,1,19.41-8.71.77.77,0,0,1,.92.54.73.73,0,0,1-.57.88A51.52,51.52,0,0,0,648,182.15,18.41,18.41,0,0,1,637.35,185.53Z"/><path class="cls-6" d="M623.3,340.4h-.06a.74.74,0,0,1-.7-.78l12.64-151.53a.75.75,0,0,1,.82-.67.74.74,0,0,1,.7.79L624.06,339.73A.74.74,0,0,1,623.3,340.4Z"/><path class="cls-2" d="M606.86,213.94h-.06l-89.59-6.81a.73.73,0,0,1-.69-.78.75.75,0,0,1,.82-.67l89.58,6.81a.73.73,0,0,1,.7.78A.75.75,0,0,1,606.86,213.94Z"/><path class="cls-2" d="M605.83,226.32h-.06l-89.59-6.81a.74.74,0,0,1-.7-.78.77.77,0,0,1,.82-.67l89.59,6.81a.73.73,0,1,1-.06,1.45Z"/><path class="cls-2" d="M604.8,238.71h-.06l-31.9-2.42a.74.74,0,0,1-.7-.78.76.76,0,0,1,.83-.67l31.89,2.42a.73.73,0,1,1-.06,1.46Z"/><path class="cls-2" d="M559.77,235.28h-.07l-44.55-3.38a.75.75,0,0,1-.7-.79.74.74,0,0,1,.82-.66l44.56,3.38a.74.74,0,0,1,.7.78A.75.75,0,0,1,559.77,235.28Z"/><path class="cls-2" d="M565.44,248.18h-.06l-51.26-3.89a.73.73,0,1,1,.12-1.45l51.26,3.89a.73.73,0,1,1-.06,1.46Z"/><path class="cls-2" d="M567.53,278.77h-.07l-55.85-4.51a.72.72,0,0,1-.69-.78.75.75,0,0,1,.82-.67l55.85,4.51a.73.73,0,1,1-.06,1.45Z"/><path class="cls-2" d="M566.5,291.16h-.08L555.12,290a.74.74,0,0,1-.68-.8.76.76,0,0,1,.84-.65l11.29,1.12a.73.73,0,0,1,.68.8A.75.75,0,0,1,566.5,291.16Z"/><path class="cls-2" d="M565.46,303.54h-.06L509.55,299a.73.73,0,1,1,.13-1.45l55.85,4.5a.73.73,0,0,1-.07,1.46Z"/><path class="cls-2" d="M564.43,315.92h-.07l-14.1-1.34a.73.73,0,1,1,.16-1.45l14.09,1.34a.73.73,0,0,1,.68.79A.75.75,0,0,1,564.43,315.92Z"/><path class="cls-2" d="M536.08,313.5H536l-27.5-2.09a.73.73,0,1,1,.12-1.45l27.5,2.09a.73.73,0,0,1,.7.78A.75.75,0,0,1,536.08,313.5Z"/><path class="cls-2" d="M563.39,328.47h-.07L507.47,324a.73.73,0,1,1,.13-1.45L563.45,327a.72.72,0,0,1,.69.78A.74.74,0,0,1,563.39,328.47Z"/><path class="cls-2" d="M746.75,224.57h-.07l-32-2.43a.74.74,0,0,1-.7-.78.75.75,0,0,1,.82-.67l32,2.43a.74.74,0,0,1,.7.78A.76.76,0,0,1,746.75,224.57Z"/><path class="cls-2" d="M745.71,237h-.06l-41.76-3.17a.74.74,0,0,1-.7-.78.75.75,0,0,1,.82-.67l41.76,3.17a.73.73,0,1,1-.06,1.46Z"/><path class="cls-2" d="M743.92,249.28h-.06l-81.94-6.23a.72.72,0,0,1-.69-.78.75.75,0,0,1,.82-.67L744,247.83a.73.73,0,0,1,.7.78A.75.75,0,0,1,743.92,249.28Z"/><path class="cls-2" d="M743.65,261.72h-.06L660,255.37a.73.73,0,1,1,.12-1.46l83.59,6.36a.74.74,0,0,1,.7.78A.75.75,0,0,1,743.65,261.72Z"/><path class="cls-2" d="M742.4,276.71h-.06l-21.54-1.64a.74.74,0,0,1-.7-.78.75.75,0,0,1,.82-.67l21.54,1.64a.74.74,0,0,1,.7.78A.75.75,0,0,1,742.4,276.71Z"/><path class="cls-2" d="M741.15,291.7h-.06l-53.28-4.05a.72.72,0,0,1-.69-.78.75.75,0,0,1,.82-.67l53.27,4.05a.73.73,0,1,1-.06,1.45Z"/><path class="cls-2" d="M740.12,304.09h-.07l-64.26-4.88a.74.74,0,0,1-.7-.78.75.75,0,0,1,.82-.67l64.27,4.88a.75.75,0,0,1,.7.79A.76.76,0,0,1,740.12,304.09Z"/><path class="cls-2" d="M683.82,312.27h-.06L652,309.85a.74.74,0,0,1-.7-.78.75.75,0,0,1,.82-.67l31.75,2.41a.73.73,0,1,1-.06,1.46Z"/><path class="cls-2" d="M690.4,325.23h-.06l-39.36-3a.73.73,0,0,1-.7-.78.75.75,0,0,1,.82-.67l39.36,3a.73.73,0,1,1-.06,1.46Z"/><path class="cls-5" d="M277.79,135.84s-70.15,0-70.23,0h-16.8a13.12,13.12,0,0,1-.19-3.13h0l0-.25a1.39,1.39,0,0,0,0-.17,28.13,28.13,0,0,1,1-4.13,21.94,21.94,0,0,1,2.55-5.44,15.14,15.14,0,0,1,5.23-5,21.38,21.38,0,0,1,6.88-2.41,16.21,16.21,0,0,1,11.59,2.18c2.1,1.36,4,3.46,6.67,3.79,4,.5,5.1-3.74,5.43-6.67.88-7.91,1.58-20.23,11.68-22.5a6,6,0,0,1,4.58.69c2.51,1.51,4.1,4.71,5,7.33,1.46,4.24,2.27,8.83,4.1,12.93a7,7,0,0,0,7.57,4.43,8.66,8.66,0,0,1,3.42.23,12.82,12.82,0,0,1,6.39,4.39,16.58,16.58,0,0,1,1.56,2.26C276.17,127.8,277,132.06,277.79,135.84Z"/><path class="cls-6" d="M627.12,521.65H310.52a1,1,0,1,1,0-2h316.6a1,1,0,1,1,0,2Z"/><path class="cls-1" d="M691.43,508.27c4.21,4.07,9.41,5.7,11.6,3.64s.56-7.05-3.65-11.12c-2.92-2.82-7.35-3.48-9.81-3.62a1.65,1.65,0,0,0-1.79,1.69C687.89,501.21,688.52,505.45,691.43,508.27Z"/><path class="cls-6" d="M708.43,521.32a.93.93,0,0,1-.95-.85c0-.43-3-43.24,8.38-74a1,1,0,0,1,1.22-.56.9.9,0,0,1,.58,1.17c-11.2,30.44-8.3,72.87-8.27,73.3a.93.93,0,0,1-.89,1Z"/><path class="cls-6" d="M704.19,521.32h0a.94.94,0,0,1-.95-.92c.26-19.68-5.5-31.51-9.85-38.69a.88.88,0,0,1,.35-1.24,1,1,0,0,1,1.3.33c4.47,7.37,10.37,19.49,10.12,39.62A.94.94,0,0,1,704.19,521.32Z"/><path class="cls-2" d="M716.64,459.13c-.82,3.38-3,5.78-4.78,5.38s-2.61-3.47-1.79-6.84c.57-2.33,2.64-4,3.86-4.82a1.05,1.05,0,0,1,1.49.33A8.49,8.49,0,0,1,716.64,459.13Z"/><path class="cls-3" d="M729.51,449.5a2.34,2.34,0,0,0-1.7-3.59h0a4.77,4.77,0,0,0-4.9,2.12l-6,10.67a3.75,3.75,0,0,1-4.07,1.75h0a3.55,3.55,0,0,1-2.84-3.29l-.44-12.11a4.54,4.54,0,0,0-3.42-4h0a3.19,3.19,0,0,0-3.16,3.23s.57,16,.61,16.32l0,.14a6.65,6.65,0,0,0,5.22,5.5l4.89,1.09a7,7,0,0,0,7.24-2.72h0Z"/><path class="cls-1" d="M689,471.13h0l3.89-7.23a2.77,2.77,0,0,0-2.17-4h0a2.84,2.84,0,0,0-3.28,3.27Z"/><path class="cls-1" d="M685.68,473.51h0l-8.37,1.5a2.86,2.86,0,0,1-3.42-3.14h0a2.93,2.93,0,0,1,4.21-2.07Z"/><path class="cls-1" d="M688.07,476.57h0l-3.89,7.23a2.77,2.77,0,0,0,2.17,4h0a2.85,2.85,0,0,0,3.29-3.27Z"/><path class="cls-1" d="M691.41,474.19h0l8.37-1.5a2.86,2.86,0,0,1,3.42,3.14h0A2.93,2.93,0,0,1,699,477.9Z"/><path class="cls-1" d="M686.87,471.61h0l-2.61-7.75a3,3,0,0,0-4.51-1.37h0a2.71,2.71,0,0,0,.09,4.52Z"/><path class="cls-1" d="M686.27,475.54h0l-4.81,6.72a3,3,0,0,1-4.74.09h0a2.74,2.74,0,0,1,1.44-4.32Z"/><path class="cls-1" d="M690.22,476.09h0l2.61,7.75a3,3,0,0,0,4.52,1.37h0a2.71,2.71,0,0,0-.1-4.52Z"/><path class="cls-1" d="M690.82,472.16h0l4.81-6.72a3,3,0,0,1,4.75-.09h0a2.75,2.75,0,0,1-1.45,4.32Z"/><path class="cls-1" d="M619.87,96.07,602.09,79.21a6,6,0,0,1,0-8.79h0a6.73,6.73,0,0,1,9.21,0l17.78,16.87a6,6,0,0,1,0,8.79h0A6.74,6.74,0,0,1,619.87,96.07Z"/><path class="cls-3" d="M620.86,85.73a8.15,8.15,0,0,1-5.6-2.2,7.36,7.36,0,0,1,0-10.73,8.22,8.22,0,0,1,11.23,0,7.35,7.35,0,0,1,0,10.72A8.11,8.11,0,0,1,620.86,85.73Zm0-13.33a6.17,6.17,0,0,0-4.28,1.69,5.58,5.58,0,0,0,0,8.14,6.23,6.23,0,0,0,8.53,0,5.57,5.57,0,0,0,0-8.13A6.12,6.12,0,0,0,620.86,72.4Z"/><path class="cls-6" d="M326.19,521.61H1a1,1,0,1,1,0-2H326.19a1,1,0,1,1,0,2Z"/><polygon class="cls-6" points="786.94 394.59 776.55 374.59 767.23 379 777.62 399 786.94 394.59"/><polygon class="cls-6" points="817.53 444.52 786.76 385.32 769.99 393.26 800.76 452.46 817.53 444.52"/><path class="cls-6" d="M792.47,354.91a44.67,44.67,0,0,1-24.75,23.88,47.65,47.65,0,0,1-35.17.17c-23.32-9.08-34.62-34.47-25.38-56.77.06-.15.13-.29.19-.44,9.58-22.4,36.46-33.19,59.92-24.05s34.62,34.48,25.38,56.77C792.6,354.62,792.53,354.77,792.47,354.91ZM734.9,373.44a41.18,41.18,0,0,0,30.41-.15,38.56,38.56,0,0,0,21.38-20.63c.06-.12.11-.25.16-.38,8-19.27-1.78-41.21-21.92-49.06s-43.52,1.42-51.79,20.78c-.06.13-.11.25-.16.38C705,343.65,714.76,365.59,734.9,373.44Z"/></g></g></svg>