<svg xmlns="http://www.w3.org/2000/svg" viewBox="0 0 1105.71 541.48"><defs><style>.cls-1{fill:#dce5f7;}.cls-2{fill:#161616;}.cls-3{fill:#dd9b9b;}.cls-4{fill:#9b7070;}.cls-5{fill:#fff;}</style></defs><title>Asset 9</title><g id="Layer_2" data-name="Layer 2"><g id="Layer_2-2" data-name="Layer 2"><path class="cls-1" d="M379.59,61.1H194.51a24.93,24.93,0,0,1,.2-4.42h0a40.09,40.09,0,0,1,4.8-14.14c3.91-6.89,9.78-12,16.37-10.41a14.37,14.37,0,0,1,6.21,3.46c3.18,2.81,5.73,6.26,8.87,9.1s7.16,5.13,11.38,4.82c5.3-.39,9.1-5.12,9.89-10.11C254.14,27.4,254,3.7,269,.41l.84-.16c12.81-2.19,21.65,10.33,25.07,21.55.39,1.27.7,2.53.95,3.75A48.58,48.58,0,0,1,297,34.92c0,.2,0,.41.07.61.1.87.21,1.73.36,2.58A21,21,0,0,0,299.16,44a2.66,2.66,0,0,0,1.55,1.55c2.05.5,3.77-1.87,4.94-3.76.33-.53.62-1,.86-1.41,3.72-5.9,14-9.83,18.61-2.76,3.23,5,.54,14.59,7.28,17,7.73,2.83,9.67-7.33,10.36-12.55.84-6.4.7-13,2.59-19.19.8-1.86,2.13-4,4.26-4.26a5.51,5.51,0,0,1,4.8,3.47c2.37,5.74,3,11.93,3.88,18C359,45.06,360,56,366.53,56.58c3.49.32,6.65-5.91,9.89-3.15C378.47,55.19,378.36,58.85,379.59,61.1Z"/><polygon class="cls-1" points="626.39 439.01 605.85 435.91 620.13 343.11 640.66 346.21 626.39 439.01"/><polygon class="cls-1" points="632.98 327.39 649.68 353.3 629.52 350.25 609.36 347.21 632.98 327.39"/><path class="cls-2" d="M418.68,425.45l-1-3.14,2-.63,1,3.14Zm-2.28-7.07-1-3.15,2-.63,1,3.15Zm-2.28-7.08-1-3.14,2-.63,1,3.14Zm-2.28-7.07-1-3.15,2-.63,1,3.14Zm-2.28-7.08-1-3.14,2-.64,1,3.15Zm-2.28-7.07-1-3.15,2-.63,1,3.14ZM405,383l-1-3.14,2-.64,1,3.15Zm-2.28-7.07-1-3.15,2-.63,1,3.14Zm-2.28-7.08-1-3.14,2-.64,1,3.15Zm-2.28-7.08-1-3.14,2-.63,1,3.14Zm-2.28-7.07-1-3.15,2-.63,1,3.15Zm-2.28-7.08-1-3.14,2-.63,1,3.14Zm-2.28-7.07-1-3.15,2-.63,1,3.15ZM389,333.47l-1-3.14,2-.64,1,3.15Zm-2.29-7.07-1-3.15,2-.63,1,3.14Zm-2.28-7.08-1-3.14,2-.64,1,3.15Zm-2.28-7.07-1-3.15,2-.63,1,3.14Zm-2.28-7.08-1-3.14,2-.64,1,3.15Zm-2.28-7.07-1-3.15,2-.63,1,3.14ZM375.35,291l-1-3.14,2-.64,1,3.15Zm-2.28-7.08-1-3.14,2-.63,1,3.14Zm-2.28-7.07-1-3.15,2-.63,1,3.15Zm-2.28-7.08-1-3.14,2-.63,1,3.14Zm-2.28-7.07-1-3.15,2-.63,1,3.14ZM364,255.64l-1-3.14,2-.64,1,3.15Zm-2.28-7.07-1-3.15,2-.63,1,3.14Zm-2.28-7.08-.16-.5,2-.63.17.5Z"/><path class="cls-2" d="M360.21,241.71a1,1,0,0,1-1-.72l-3.5-10.87A1,1,0,0,1,356,229a1,1,0,0,1,1.14-.13l11.6,5.88a1,1,0,1,1-.94,1.84l-9.39-4.76,2.74,8.51a1,1,0,0,1-.66,1.3A1.19,1.19,0,0,1,360.21,241.71Z"/><path class="cls-2" d="M351.59,242.54a1.24,1.24,0,0,1-.41-.08,1,1,0,0,1-.53-1.36l5.11-11.71a1,1,0,0,1,1.9.83l-5.12,11.7A1,1,0,0,1,351.59,242.54Z"/><path class="cls-3" d="M578.8,354.54c0,26.41-32,54.89-32,54.89s-32-28.48-32-54.89,14.31-40.73,32-40.73S578.8,328.14,578.8,354.54Z"/><path class="cls-4" d="M569.75,341.19c0,18.93-22.92,39.35-22.92,39.35s-22.92-20.42-22.92-39.35S534.17,312,546.83,312,569.75,322.27,569.75,341.19Z"/><rect class="cls-3" x="378.08" y="420.98" width="214.36" height="119.31"/><rect class="cls-3" x="378.08" y="420.98" width="214.36" height="119.31"/><rect class="cls-3" x="500.51" y="420.98" width="204.45" height="119.31"/><path class="cls-2" d="M500.51,541.32a1,1,0,0,1-1-1V421a1,1,0,1,1,2.06,0V540.29A1,1,0,0,1,500.51,541.32Z"/><polygon class="cls-3" points="565.31 468.5 771.73 468.5 706.93 420.98 500.51 420.98 565.31 468.5"/><path class="cls-2" d="M771.73,469.54H565.31a1,1,0,0,1-.61-.2l-64.8-47.53a1,1,0,0,1,1.22-1.66l64.53,47.32H771.73a1,1,0,1,1,0,2.07Z"/><polygon class="cls-3" points="435.71 468.5 306.1 468.5 370.91 420.98 500.51 420.98 435.71 468.5"/><path class="cls-2" d="M435.71,469.54H306.1a1,1,0,0,1,0-2.07H435.37l64.53-47.32a1,1,0,1,1,1.22,1.66l-64.8,47.53A1,1,0,0,1,435.71,469.54Z"/><polygon class="cls-4" points="756.34 384.42 759.1 389.63 764.14 392.48 759.1 395.33 756.34 400.54 753.59 395.33 748.54 392.48 753.59 389.63 756.34 384.42"/><polygon class="cls-3" points="351.59 122.01 354.35 127.22 359.4 130.07 354.35 132.91 351.59 138.12 348.84 132.91 343.79 130.07 348.84 127.22 351.59 122.01"/><polygon class="cls-3" points="929.85 102.6 932.6 107.81 937.65 110.66 932.6 113.5 929.85 118.71 927.09 113.5 922.04 110.66 927.09 107.81 929.85 102.6"/><polygon class="cls-4" points="178.67 252.73 181.43 257.94 186.47 260.79 181.43 263.64 178.67 268.85 175.91 263.64 170.87 260.79 175.91 257.94 178.67 252.73"/><path class="cls-2" d="M777.65,245.91c-5.28,0-10.42-2.35-12.25-7.43a13.23,13.23,0,0,1-.68-3.06,15.8,15.8,0,0,1-6.11-4.49,14.19,14.19,0,0,1-3.5-7.6,1.24,1.24,0,0,1,2.47-.22,11.88,11.88,0,0,0,2.91,6.21,14.66,14.66,0,0,0,4.2,3.38,19.06,19.06,0,0,1,.29-2.07c.47-2.37,1.38-4,2.79-4.91a4.91,4.91,0,0,1,7.53,5.07,6.09,6.09,0,0,1-1.91,3.19,7.56,7.56,0,0,1-5.75,2.1l-.33,0a10.31,10.31,0,0,0,.42,1.59c2.16,6,9.82,6.58,14.57,5.08l.49-.16a12.21,12.21,0,0,0,3.56-1.95,1.24,1.24,0,0,1,1.55,1.94,14.73,14.73,0,0,1-4.28,2.34l-.57.2A18.22,18.22,0,0,1,777.65,245.91Zm-10.52-12.38c.22,0,.44.06.66.08a5.19,5.19,0,0,0,3.92-1.45,3.66,3.66,0,0,0,1.16-1.86,2.54,2.54,0,0,0-1-2.5,2.51,2.51,0,0,0-2.7,0,4.91,4.91,0,0,0-1.73,3.32A14.86,14.86,0,0,0,767.13,233.53Z"/><path class="cls-4" d="M295.29,220.76h0a10.67,10.67,0,0,1-10.67,10.67h0A10.67,10.67,0,0,1,274,220.76h0a10.67,10.67,0,0,1,10.67-10.66h0A10.67,10.67,0,0,1,295.29,220.76Z"/><path class="cls-3" d="M320.12,247.85h0a5.66,5.66,0,0,1-5.66,5.67h0a5.67,5.67,0,0,1-5.67-5.67h0a5.67,5.67,0,0,1,5.67-5.67h0A5.66,5.66,0,0,1,320.12,247.85Z"/><path class="cls-3" d="M304.86,241.21H285.45a1,1,0,0,1-1-1V220.76a1,1,0,0,1,1-1h19.41a1,1,0,0,1,1,1v19.41A1,1,0,0,1,304.86,241.21Zm-18.38-2.07h17.34V221.8H286.48Z"/><path class="cls-1" d="M840.47,131.66s-79.71,0-79.8,0H741.58a16,16,0,0,1-.22-3.72h0l0-.31c0-.1,0-.16,0-.19a33.29,33.29,0,0,1,1.1-4.92,26.28,26.28,0,0,1,2.9-6.47,17.29,17.29,0,0,1,5.94-5.9,23.47,23.47,0,0,1,7.82-2.86,17.71,17.71,0,0,1,13.17,2.59c2.38,1.62,4.58,4.12,7.58,4.51,4.58.6,5.79-4.45,6.16-7.94,1-9.42,1.8-24.08,13.28-26.78a6.57,6.57,0,0,1,5.2.82c2.85,1.8,4.66,5.6,5.69,8.72,1.67,5.05,2.58,10.51,4.66,15.39,1.54,3.62,4.59,5.81,8.61,5.27a9.56,9.56,0,0,1,3.89.29,14.53,14.53,0,0,1,7.25,5.22,19.78,19.78,0,0,1,1.77,2.69C838.63,122.09,839.57,127.16,840.47,131.66Z"/><path class="cls-1" d="M890,239.73h150.17c-1-12.57-9.24-34-10.77-36.49-.62-1-1.17-1.93-1.62-2.65-7-11.12-26.35-18.54-35.08-5.2-6.1,9.32-1,27.49-13.73,32.13-14.56,5.33-18.23-13.82-19.53-23.64-1.59-12.07-1.32-24.44-4.88-36.18-1.51-3.52-4-7.54-8-8-4,0-7.54,3-9,6.53-4.45,10.83-5.68,22.5-7.31,34-1.32,9.32-3.13,29.89-15.53,31-6.58.61-12.53-11.14-18.63-5.93C892.14,228.59,892.34,235.49,890,239.73Z"/><path class="cls-2" d="M227.24,309.85c-5.21,0-10.26-2.3-12.06-7.29a12.8,12.8,0,0,1-.68-3.14,15.46,15.46,0,0,1-6.14-4.47,14.05,14.05,0,0,1-3.46-7.49,1,1,0,1,1,2.06-.18,12,12,0,0,0,3,6.32,14.37,14.37,0,0,0,4.55,3.57,16.08,16.08,0,0,1,.3-2.35c.46-2.31,1.34-3.87,2.7-4.77a4.7,4.7,0,0,1,7.21,4.85,5.9,5.9,0,0,1-1.85,3.08,7.38,7.38,0,0,1-5.59,2q-.3,0-.6-.06a11.24,11.24,0,0,0,.48,1.9c2.21,6.12,10,6.73,14.83,5.21l.49-.16a12.63,12.63,0,0,0,3.62-2,1,1,0,0,1,1.45.16,1,1,0,0,1-.16,1.45,14.66,14.66,0,0,1-4.21,2.32l-.57.19A17.8,17.8,0,0,1,227.24,309.85Zm-10.74-12a6.32,6.32,0,0,0,.86.11,5.35,5.35,0,0,0,4.07-1.5,3.81,3.81,0,0,0,1.22-2,2.64,2.64,0,0,0-4-2.72,5.11,5.11,0,0,0-1.82,3.45A15.22,15.22,0,0,0,216.5,297.85Z"/><path class="cls-1" d="M654.89,169.45a89.33,89.33,0,0,0-78.65-100c-48.64-5.48-93,29.81-98.69,78.43a88.91,88.91,0,0,0,8.2,49c13.27,27.53,27.9,34.93,24.35,82.91l-1-.13a10.67,10.67,0,0,0-11.93,9.25h0a10.66,10.66,0,0,0,8.6,11.82,10.64,10.64,0,0,0,6.18,17.8,10.82,10.82,0,0,0-1.35,4h0a10.67,10.67,0,0,0,9.25,11.93l7.21.91a11,11,0,0,0-.48,2.08h0a10.68,10.68,0,0,0,9.25,11.93l9.9,1.25a10.67,10.67,0,0,0,11.93-9.24h0a10.88,10.88,0,0,0,.06-2.13l7.21.91A10.66,10.66,0,0,0,576.9,331a10.43,10.43,0,0,0-.31-4.22,10.67,10.67,0,0,0,11.65-9.27h0A10.58,10.58,0,0,0,587,311a10.66,10.66,0,0,0,11.28-9.3h0a10.67,10.67,0,0,0-8-11.7c8.56-49,25.34-51.18,45-75.13A88.87,88.87,0,0,0,654.89,169.45Z"/><path class="cls-2" d="M530.16,352.32a11.69,11.69,0,0,1-11.7-11.63,9.76,9.76,0,0,1,0-1.08l-6.08,0A11.71,11.71,0,0,1,500.65,328a11.61,11.61,0,0,1,.44-3.23,11.69,11.69,0,0,1-8.78-16.94,11.7,11.7,0,0,1,2.11-23.17c-2.23-35.32-11.43-46.9-23.06-61.52-3.79-4.77-7.7-9.69-11.76-15.87a90.1,90.1,0,0,1,1.33-100.8,1,1,0,1,1,1.69,1.18,88,88,0,0,0-1.29,98.49c4,6.09,7.89,11,11.65,15.71,12,15.06,21.42,26.95,23.56,63.77a1,1,0,0,1-1,1.09h-1a9.63,9.63,0,0,0-.47,19.25,1,1,0,0,1,.79,1.63,9.46,9.46,0,0,0-1.79,5.64,9.58,9.58,0,0,0,9.44,9.57,1,1,0,0,1,.93,1.43,9.64,9.64,0,0,0,8.91,13.33h.06l7.27-.05a1.11,1.11,0,0,1,.8.38,1,1,0,0,1,.22.85,8.92,8.92,0,0,0-.18,1.92,9.63,9.63,0,0,0,9.63,9.58h.06l10-.06a9.65,9.65,0,0,0,9.58-9.7,9.46,9.46,0,0,0-.2-1.91,1,1,0,0,1,1-1.24l7.27-.05a9.65,9.65,0,0,0,8.81-13.43,1,1,0,0,1,.07-1,1.06,1.06,0,0,1,.84-.47,9.62,9.62,0,0,0,7.47-15.3,1,1,0,0,1,.76-1.64,9.63,9.63,0,0,0,.41-19.18,1,1,0,0,1-.92-1.07c1.53-37.25,11.3-49.62,22.62-63.93a176.89,176.89,0,0,0,12.29-17A88.21,88.21,0,0,0,483.74,86.14a1,1,0,0,1-1.45-.24,1,1,0,0,1,.24-1.44A90.31,90.31,0,0,1,612,205.41a179.72,179.72,0,0,1-12.44,17.18c-11.45,14.49-20.51,26-22.13,61.81a11.69,11.69,0,0,1,.2,22.92A11.69,11.69,0,0,1,569,324.37a12,12,0,0,1,.47,3.22,11.71,11.71,0,0,1-11.64,11.78l-6.07,0c0,.36.05.72.05,1.08a11.68,11.68,0,0,1-11.63,11.77l-10,.06Z"/><path class="cls-2" d="M538.68,307.92H492.87a1,1,0,1,1,0-2.07h45.81a1,1,0,0,1,0,2.07Z"/><path class="cls-2" d="M567.61,324.49H522.07a1,1,0,0,1,0-2.06h45.54a1,1,0,1,1,0,2.06Z"/><path class="cls-3" d="M528.58,108.39a16.74,16.74,0,0,0-24.32,6.5,16.56,16.56,0,0,0-3.68-.47,16.73,16.73,0,0,0-16.71,20,16.73,16.73,0,0,0-10.58,23.12,16.72,16.72,0,0,0,.06,26.43,16.74,16.74,0,0,0,15.1,23.9,18.39,18.39,0,0,0,2.11-.13,16.71,16.71,0,0,0,29.64,5.44l.07.11a6.14,6.14,0,0,0,11-3.72v-96A6.18,6.18,0,0,0,528.58,108.39Z"/><path class="cls-3" d="M606.91,170.68a16.7,16.7,0,0,0-6.45-13.19,16.73,16.73,0,0,0-10.58-23.12,17.1,17.1,0,0,0,.2-5.17,16.77,16.77,0,0,0-20.6-14.31,16.72,16.72,0,0,0-24.31-6.5,6.15,6.15,0,0,0-2.73,5.11v96a6.14,6.14,0,0,0,11,3.72,1,1,0,0,0,.08-.11,16.71,16.71,0,0,0,29.64-5.44,18.21,18.21,0,0,0,2.1.13,16.72,16.72,0,0,0,15.1-23.9A16.69,16.69,0,0,0,606.91,170.68Z"/><path class="cls-3" d="M527.23,286.31a1,1,0,0,1-1-.81l-14.45-66.42a1,1,0,0,1,2-.44l14.45,66.42a1,1,0,0,1-.79,1.23A.82.82,0,0,1,527.23,286.31Z"/><path class="cls-3" d="M543.74,286.31l-.24,0a1,1,0,0,1-.77-1.25l16-67a1,1,0,1,1,2,.48l-16,67A1,1,0,0,1,543.74,286.31Z"/><path class="cls-2" d="M495.51,286.72a1,1,0,0,1-1-1,1,1,0,0,1,1-1l80.82-.41h0a1,1,0,0,1,1,1,1,1,0,0,1-1,1l-80.82.41Z"/><path class="cls-3" d="M879.23,441.23a8.86,8.86,0,0,0,8.69-10.78l-1.23-5.62a8.88,8.88,0,0,0-17.36,3.79l1.23,5.63A8.89,8.89,0,0,0,879.23,441.23Z"/><path class="cls-3" d="M892.76,441.91a3.14,3.14,0,0,0,2.19-5.4l-9.33-9.07a3.15,3.15,0,0,0-4.39,4.51l9.34,9.07A3.1,3.1,0,0,0,892.76,441.91Z"/><path class="cls-3" d="M891.78,449.77a3.14,3.14,0,0,0,2.27-5.32l-10.49-10.94a3.15,3.15,0,1,0-4.54,4.36l10.49,10.94A3.14,3.14,0,0,0,891.78,449.77Z"/><path class="cls-3" d="M885.31,452.12a3.16,3.16,0,0,0,2.42-5.16l-7.9-9.55a3.15,3.15,0,0,0-4.85,4l7.9,9.56A3.14,3.14,0,0,0,885.31,452.12Z"/><path class="cls-2" d="M903.8,514.6l-4.1,3.72-5.57-3-2.83,2.57,2,6.22-17.17,15.56-2.57-2.78a7.67,7.67,0,0,1-2-5.21,7.9,7.9,0,0,1,.42-2.53L873,526l1.92-5.51-3.41-8-.21-.5,6.22-5.06.79-.64L888.46,498l3.29,3.56,6.71,7.26,2.77,3Z"/><path class="cls-2" d="M868.59,483.06a1,1,0,0,0,.24,0l51.63-12.55a1,1,0,0,0,.76-1.25L912,431.43a1,1,0,0,0-1.25-.76l-14.06,3.41a1,1,0,0,0,.49,2l13.06-3.17,8.7,35.8-49.62,12.06L860.64,445l5.76-1.4a1,1,0,1,0-.49-2l-6.76,1.64a1,1,0,0,0-.64.47,1.06,1.06,0,0,0-.12.78l9.19,37.8a1.06,1.06,0,0,0,.47.64A1,1,0,0,0,868.59,483.06Z"/><polygon class="cls-4" points="823.35 382.11 830.73 365.96 803.11 353.34 784.46 321.76 769.17 330.79 790.66 367.17 823.35 382.11"/><rect class="cls-3" x="765.81" y="318.41" width="17.76" height="8.66" transform="translate(-64.42 336.98) rotate(-23.59)"/><path class="cls-3" d="M768.19,325.51a3.21,3.21,0,0,0,1.2-.24,3.14,3.14,0,0,0,1.7-4.11l-4.89-11.84a3.15,3.15,0,1,0-5.82,2.4l4.9,11.85A3.14,3.14,0,0,0,768.19,325.51Z"/><path class="cls-3" d="M772.77,320.82a3,3,0,0,0,1.17-.23,3.15,3.15,0,0,0,1.76-4.09l-5.63-14.07a3.15,3.15,0,0,0-5.84,2.34l5.62,14.07A3.15,3.15,0,0,0,772.77,320.82Z"/><path class="cls-3" d="M777.77,318.82a3.19,3.19,0,0,0,1-.15,3.14,3.14,0,0,0,2-3.95L777,302.91a3.15,3.15,0,1,0-6,1.9l3.74,11.81A3.15,3.15,0,0,0,777.77,318.82Z"/><path class="cls-3" d="M779.58,322.73a3.14,3.14,0,0,0,3-2.18l2.68-8.3a3.15,3.15,0,0,0-6-1.93l-2.67,8.3a3.14,3.14,0,0,0,2,4A3.32,3.32,0,0,0,779.58,322.73Z"/><path class="cls-4" d="M770.51,334.58a3.11,3.11,0,0,0,1.78-.57l13-9a3.14,3.14,0,0,0-3.58-5.15l-12.95,9a3.13,3.13,0,0,0,1.79,5.71Z"/><path class="cls-5" d="M778.59,339.3a2.37,2.37,0,1,1,1.43-3A2.37,2.37,0,0,1,778.59,339.3Z"/><path class="cls-2" d="M813.31,540.33h-5.53l-2.15-5.92h-3.82l-2.74,5.92H775.91l0-3.78v-.08a7.66,7.66,0,0,1,4-6.73l3-1.65L788,525.3l2.87-8.25.17-.51,8,.43,1,.06,13,.69,0,4.7.1,10.24,0,3.89Z"/><rect class="cls-2" x="791.2" y="489.18" width="30.04" height="24.52" transform="translate(136.4 1174.33) rotate(-77.01)"/><path class="cls-2" d="M809.61,499.07a12.26,12.26,0,0,0,11.93-9.51L829,457.35l25.41-23.72a23.35,23.35,0,0,0,7.39-16.75l.14-13.71a12.24,12.24,0,0,0-12.12-12.38h-.14a12.26,12.26,0,0,0-12.25,12.13l-.14,13.17L809.5,442a12.17,12.17,0,0,0-3.57,6.2l-8.28,35.86a12.26,12.26,0,0,0,9.19,14.7A12.6,12.6,0,0,0,809.61,499.07Z"/><path class="cls-4" d="M814.58,519.68a3.14,3.14,0,0,0,.09-6.27l-25.26-.75a3.13,3.13,0,1,0-.19,6.26l25.27.76Z"/><rect class="cls-2" x="858.83" y="481.44" width="24.52" height="25.62" transform="translate(-124.58 602.55) rotate(-35.78)"/><path class="cls-2" d="M863.61,496.11a12.25,12.25,0,0,0,9.93-19.42l-16.11-22.36-10.28-42.19A12.26,12.26,0,1,0,823.33,418l10.85,44.51a12.21,12.21,0,0,0,2,4.27L853.65,491A12.24,12.24,0,0,0,863.61,496.11Z"/><path class="cls-2" d="M835,426.77h14.62a12.26,12.26,0,0,0,0-24.52H835a12.26,12.26,0,0,0,0,24.52Z"/><path class="cls-4" d="M869,514.1a3.13,3.13,0,0,0,1.73-.52l19.47-13a3.13,3.13,0,0,0-3.48-5.21l-19.46,13A3.13,3.13,0,0,0,869,514.1Z"/><path class="cls-3" d="M861.94,404.19,822.27,414l-5.46-27.92a22.66,22.66,0,0,1,9.42-22.88,22.93,22.93,0,0,1,12.84-3.92h0a23,23,0,0,1,23,23Z"/><path class="cls-3" d="M827,363.51l.54-10.76.48-6.91.22-3.28a5.46,5.46,0,0,1,5.83-5.07,4.19,4.19,0,0,1,.7.09,5.45,5.45,0,0,1,4.29,4.34,4.94,4.94,0,0,1,.08,1.39l-.79,11.6-.32,4.52C837.86,362.43,826.83,366.52,827,363.51Z"/><path class="cls-3" d="M846.52,462.33a9.68,9.68,0,0,1-6.6,9.63l-3.85-5.33a11.67,11.67,0,0,1-1.86-4.05l-2-8.27a9.67,9.67,0,0,1,14.33,8Z"/><polygon class="cls-5" points="839.66 355.28 825.02 363.48 827.04 365.94 840.1 364.04 839.66 355.28"/><path class="cls-3" d="M825.08,351.49h0a6.72,6.72,0,0,1-3.36-8.91l2.3-5.1a8.88,8.88,0,0,1,11.75-4.43h0a8.88,8.88,0,0,1,4.44,11.75l-.54,1.19A11,11,0,0,1,825.08,351.49Z"/><path class="cls-3" d="M824.59,338.82,819.17,343a.94.94,0,0,0,.34,1.65l3.74,1Z"/><path class="cls-2" d="M832.85,338.07a9.44,9.44,0,0,0,0,2.47,3,3,0,0,0,2,2.14,13.63,13.63,0,0,0,4.18.46c3,.06,7-1.91,5.48-5.61a3.49,3.49,0,0,0-3.14-2.17,2.91,2.91,0,0,0,2.49-.77,2.29,2.29,0,0,0,.48-2.5,2.74,2.74,0,0,0-2.59-1.37,8.07,8.07,0,0,0-3,.87,4.58,4.58,0,0,0-2.25-3.15,3.7,3.7,0,0,0-3.8.16,1.73,1.73,0,0,0-.76,1,.93.93,0,0,0,.48,1.07,2.77,2.77,0,0,0-5.14-1.81,2.15,2.15,0,0,0-.29,1,5.48,5.48,0,0,1,.32,1c-1.4.23-4.2-1.4-2.57-3a4.43,4.43,0,0,0-4.19,2.33,3.62,3.62,0,0,0,.26,3.57c1.48,2.4,4.47,2.85,7,3.29,1.46.25,4.35.93,4.35.93l.54.16Z"/><path class="cls-5" d="M822.27,415a1.07,1.07,0,0,0,.25,0l39.5-9.74a1,1,0,0,0-.5-2L822,413a1,1,0,0,0-.76,1.25A1,1,0,0,0,822.27,415Z"/><path class="cls-5" d="M836.86,411.86a4.55,4.55,0,1,1-4.55-4.55A4.55,4.55,0,0,1,836.86,411.86Z"/><path class="cls-5" d="M825.5,462.14a1,1,0,0,0,.7-.28l28.16-26a1,1,0,0,0-1.4-1.52l-28.16,26a1,1,0,0,0-.06,1.45A1,1,0,0,0,825.5,462.14Z"/><path class="cls-3" d="M818.85,449.26a9.67,9.67,0,0,1-15,8.06l2.1-9.13a12.26,12.26,0,0,1,3.58-6.2l2.21-2.06A9.66,9.66,0,0,1,818.85,449.26Z"/><rect class="cls-4" x="820.52" y="383.08" width="9.63" height="9.63" transform="translate(516.02 -469.99) rotate(45)"/><rect class="cls-5" x="827.93" y="383.08" width="9.63" height="9.63" transform="translate(518.18 -475.23) rotate(45)"/><rect class="cls-3" x="859.23" y="443.4" width="53.14" height="38.91" transform="translate(-84.27 222.37) rotate(-13.67)"/><path class="cls-2" d="M820.92,345.11a3.82,3.82,0,0,1,1.9-.65,4.9,4.9,0,0,1,3.13.79c1,.67,1.88,1.55,3.2,1.18a8.06,8.06,0,0,0,1.42-.6,17.3,17.3,0,0,0,3.14-2.05h0l5.29,2.55c.51.34-1.83,2.93-2.06,3.21a12,12,0,0,1-9.4,4.29,10.38,10.38,0,0,1-5.81-2C819.55,350.09,818.84,346.59,820.92,345.11Z"/><circle class="cls-3" cx="836.81" cy="343.77" r="4.19"/><path class="cls-4" d="M870.17,399.75a8.88,8.88,0,0,0,6-15.43l-21.73-19.93a8.88,8.88,0,0,0-12,13.09l21.73,19.93A8.84,8.84,0,0,0,870.17,399.75Z"/><path class="cls-3" d="M874.78,450.51H875a3.15,3.15,0,0,0,3-3.31l-.59-10.9a3.15,3.15,0,1,0-6.29.34l.59,10.9A3.15,3.15,0,0,0,874.78,450.51Z"/><rect class="cls-4" x="865.21" y="390.45" width="17.76" height="36.7" transform="translate(-67.12 196.03) rotate(-12.33)"/><path class="cls-4" d="M870.17,431.9a3.39,3.39,0,0,0,.7-.07l15.62-3.53a3.13,3.13,0,1,0-1.38-6.11l-15.62,3.52a3.13,3.13,0,0,0,.68,6.19Z"/><path class="cls-5" d="M883.12,418a2.37,2.37,0,1,1-2.61-2.1A2.37,2.37,0,0,1,883.12,418Z"/><path class="cls-5" d="M885.3,471.48l-8-5.38a1,1,0,0,1-.44-.66,1.07,1.07,0,0,1,.16-.78l5.38-8a1.06,1.06,0,0,1,1.44-.28l8,5.39a1,1,0,0,1,.43.66,1,1,0,0,1-.15.77l-5.39,8a1,1,0,0,1-.86.46A1,1,0,0,1,885.3,471.48Zm-1.74-12.79L879.33,465l6.27,4.23,4.23-6.27Z"/><path class="cls-3" d="M815.63,533.44l-12-3.72a.83.83,0,0,1-.57-.7.82.82,0,0,1,.42-.8l11.85-6.51a.81.81,0,0,1,.81,0,.82.82,0,0,1,.4.7l.1,10.23a.81.81,0,0,1-.33.66.78.78,0,0,1-.49.16ZM806,528.73l9.06,2.82-.08-7.76Z"/><path class="cls-3" d="M890.08,513.57a.82.82,0,0,1-.3-.85l3.29-13a.8.8,0,0,1,.59-.59.82.82,0,0,1,.8.24l6.71,7.26a.86.86,0,0,1,.21.68.8.8,0,0,1-.41.58l-10,5.7a.79.79,0,0,1-.89-.06Zm4.2-12-2.45,9.64,7.44-4.23Z"/><polygon class="cls-3" points="722.81 296.37 725.3 309.5 719.63 307.94 713.97 306.38 722.81 296.37"/><path class="cls-3" d="M684.62,440.38l-.27,0a1,1,0,0,1-.73-1.27l35-131.4a1,1,0,0,1,2,.54l-35,131.39A1,1,0,0,1,684.62,440.38Z"/><path class="cls-3" d="M458.71,404.89a1,1,0,0,1-1-1l-5.34-72a1,1,0,0,1,1-1.11,1,1,0,0,1,1.1,1l5.34,72a1,1,0,0,1-1,1.1Z"/><path class="cls-3" d="M441.42,386.71a1,1,0,0,1-1-1L437,337.87a1,1,0,0,1,1-1.1,1,1,0,0,1,1.1,1l3.45,47.87a1,1,0,0,1-1,1.1Z"/><path class="cls-3" d="M429.26,329.71a1,1,0,0,1-.86-.47,1,1,0,0,1,0-1.05l14.1-26.56a1,1,0,0,1,1.76-.1L461,325.8a1,1,0,0,1-.77,1.62l-30.9,2.28Zm14.21-25.61-12.42,23.41,27.24-2Z"/><polygon class="cls-5" points="689.89 202.08 692.35 197.26 699.99 202.12 702.09 202.13 689.89 202.08"/><polygon class="cls-3" points="702.09 202.13 712.98 202.17 705.81 163.67 677.12 202.03 689.89 202.08 702.09 202.13"/><polygon class="cls-2" points="700.41 212.78 703.45 171.44 689.89 202.05 700.41 212.78"/><path class="cls-2" d="M672.19,318.54l-.21,0a1,1,0,0,1-.8-1.22l.85-4.13a1,1,0,1,1,2,.42l-.85,4.13A1,1,0,0,1,672.19,318.54Zm2.56-12.39-.21,0a1,1,0,0,1-.81-1.22l.85-4.13a1,1,0,0,1,2,.42l-.85,4.13A1,1,0,0,1,674.75,306.15Zm2.55-12.39-.21,0a1,1,0,0,1-.8-1.22l.85-4.13a1,1,0,1,1,2,.41l-.85,4.13A1,1,0,0,1,677.3,293.76Zm2.55-12.39-.21,0a1,1,0,0,1-.8-1.22l.85-4.13a1,1,0,1,1,2,.41l-.85,4.13A1,1,0,0,1,679.85,281.37ZM682.41,269l-.21,0a1,1,0,0,1-.81-1.22l.85-4.13a1,1,0,1,1,2,.41l-.85,4.13A1,1,0,0,1,682.41,269ZM685,256.59l-.21,0a1,1,0,0,1-.8-1.22l.85-4.13a1,1,0,1,1,2,.41l-.85,4.13A1,1,0,0,1,685,256.59Zm2.55-12.39-.21,0a1,1,0,0,1-.8-1.22l.85-4.13a1,1,0,0,1,1.22-.8,1,1,0,0,1,.8,1.22l-.85,4.13A1,1,0,0,1,687.51,244.2Zm2.56-12.39a.76.76,0,0,1-.21,0,1,1,0,0,1-.81-1.22l.86-4.13a1,1,0,1,1,2,.42l-.85,4.13A1,1,0,0,1,690.07,231.81Z"/><path class="cls-3" d="M238.86,467.77c12.82,7.19,20.23,18.36,16.53,25s-17.09,6.11-29.91-1.08c-8.88-5-13.39-15-15.33-20.73a4.16,4.16,0,0,1,3-5.4C219.07,464.18,230,462.79,238.86,467.77Z"/><path class="cls-3" d="M290.7,471.77c-7.24,7.34-16.17,10.27-19.94,6.55s-1-12.69,6.28-20c5-5.08,12.64-6.27,16.86-6.52a2.91,2.91,0,0,1,3.09,3.05C296.8,459.05,295.71,466.69,290.7,471.77Z"/><path class="cls-2" d="M260.58,540.56a1.32,1.32,0,0,1-1.32-1.32c0-28.77-4.48-59-13.32-89.83a1.33,1.33,0,0,1,2.55-.73c8.9,31.08,13.42,61.55,13.42,90.56A1.33,1.33,0,0,1,260.58,540.56Z"/><path class="cls-2" d="M243.88,439.36a1.32,1.32,0,0,1-1.26-.93c-10.78-33.79-23-55.93-23.16-56.15a1.32,1.32,0,0,1,2.31-1.29c.13.22,12.5,22.57,23.37,56.64a1.31,1.31,0,0,1-.85,1.66A1.18,1.18,0,0,1,243.88,439.36Z"/><circle class="cls-3" cx="226.4" cy="398.07" r="24.88" transform="translate(-193.05 581.85) rotate(-84.03)"/><path class="cls-3" d="M265.88,540.56a1.32,1.32,0,0,1-1.32-1.3c0-.77-1.31-77.79,18.15-133.18a1.33,1.33,0,0,1,2.5.88c-19.3,54.94-18,131.48-18,132.25a1.31,1.31,0,0,1-1.29,1.35Z"/><polygon class="cls-4" points="305.23 411.8 287.63 394.2 263.6 400.64 257.16 424.68 274.75 442.28 298.79 435.83 305.23 411.8"/><path class="cls-5" d="M226.4,401.31c-13.34,0-26.84-3.13-26.84-9.12a1.33,1.33,0,0,1,2.65,0c0,2.7,9.2,6.47,24.19,6.47s24.19-3.77,24.19-6.47a1.33,1.33,0,0,1,2.65,0C253.24,398.18,239.73,401.31,226.4,401.31Z"/><path class="cls-5" d="M226.4,401.31c-13.34,0-26.84-3.13-26.84-9.12a1.33,1.33,0,0,1,2.65,0c0,2.7,9.2,6.47,24.19,6.47s24.19-3.77,24.19-6.47a1.33,1.33,0,0,1,2.65,0C253.24,398.18,239.73,401.31,226.4,401.31Z"/><path class="cls-5" d="M247,407.94a23.24,23.24,0,0,1-5.13-.67,73.74,73.74,0,0,1-31.93-18.42c-3.92-4.2-5.27-7.68-3.9-10.07a1.33,1.33,0,0,1,2.3,1.32c-.52.9.1,3.26,3.54,6.95a71.35,71.35,0,0,0,30.58,17.64c4.92,1.13,7.27.49,7.78-.41a1.33,1.33,0,1,1,2.3,1.32C251.64,407.15,249.76,407.94,247,407.94Z"/><path class="cls-5" d="M247,407.94a23.24,23.24,0,0,1-5.13-.67,73.74,73.74,0,0,1-31.93-18.42c-3.92-4.2-5.27-7.68-3.9-10.07a1.33,1.33,0,0,1,2.3,1.32c-.52.9.1,3.26,3.54,6.95a71.35,71.35,0,0,0,30.58,17.64c4.92,1.13,7.27.49,7.78-.41a1.33,1.33,0,1,1,2.3,1.32C251.64,407.15,249.76,407.94,247,407.94Z"/><path class="cls-5" d="M257.16,426a1.32,1.32,0,0,1-.34-2.6l48.07-12.88a1.32,1.32,0,1,1,.68,2.56L257.5,426A1.32,1.32,0,0,1,257.16,426Z"/><path class="cls-5" d="M281.19,419.56a1.35,1.35,0,0,1-.93-.38l-17.6-17.6a1.33,1.33,0,0,1,0-1.87,1.32,1.32,0,0,1,1.87,0l17.6,17.59a1.33,1.33,0,0,1,0,1.88A1.36,1.36,0,0,1,281.19,419.56Z"/><path class="cls-3" d="M979.13,516.22c8,8.08,17.79,11.31,22,7.21s1-14-6.92-22c-5.51-5.59-13.9-6.9-18.55-7.18a3.23,3.23,0,0,0-3.41,3.36C972.42,502.22,973.61,510.63,979.13,516.22Z"/><path class="cls-2" d="M1011.3,541.48a1.19,1.19,0,0,1-1.19-1.11c0-.21-1.44-21.56-.21-50.13,1.14-26.39,4.85-64.54,16-96.4a1.2,1.2,0,0,1,2.26.79c-21.25,60.48-15.76,144.73-15.7,145.57a1.21,1.21,0,0,1-1.11,1.28Z"/><path class="cls-2" d="M1003.28,541.48h0a1.2,1.2,0,0,1-1.18-1.21c.48-39.17-10.47-62.71-18.74-77a1.19,1.19,0,0,1,2.07-1.19c8.41,14.54,19.54,38.47,19.06,78.23A1.19,1.19,0,0,1,1003.28,541.48Z"/><path class="cls-3" d="M1026.84,418.8c-1.56,6.69-5.61,11.46-9,10.65s-5-6.87-3.4-13.55c1.08-4.63,5-7.95,7.31-9.56a1.94,1.94,0,0,1,2.82.66C1025.88,409.46,1027.92,414.18,1026.84,418.8Z"/><path class="cls-3" d="M1051.19,399.69a4.66,4.66,0,0,0-3.2-7.1h0a8.87,8.87,0,0,0-9.29,4.19l-11.39,21.16a7,7,0,0,1-7.7,3.47h0a7,7,0,0,1-5.37-6.52l-.85-24a8.86,8.86,0,0,0-6.47-7.87h0a6.19,6.19,0,0,0-6,6.41s1.07,31.71,1.14,32.35l0,.29a12.94,12.94,0,0,0,9.89,10.89l9.26,2.17a13,13,0,0,0,13.7-5.39l0,0Z"/><path class="cls-4" d="M974.57,442.59h0l7.36-14.34a5.52,5.52,0,0,0-4.11-8h0a5.51,5.51,0,0,0-6.22,6.47Z"/><path class="cls-4" d="M968.24,447.31h0l-15.85,3a5.52,5.52,0,0,1-6.47-6.22h0a5.51,5.51,0,0,1,8-4.11Z"/><path class="cls-4" d="M972.76,453.37h0l-7.36,14.34a5.52,5.52,0,0,0,4.11,8h0a5.53,5.53,0,0,0,6.22-6.48Z"/><path class="cls-4" d="M979.09,448.65h0l15.84-3a5.52,5.52,0,0,1,6.48,6.22h0a5.52,5.52,0,0,1-8,4.11Z"/><path class="cls-4" d="M970.49,443.53h0l-4.93-15.35a5.52,5.52,0,0,0-8.55-2.73h0a5.52,5.52,0,0,0,.18,9Z"/><path class="cls-4" d="M969.36,451.34h0l-9.11,13.3a5.51,5.51,0,0,1-9,.18h0a5.5,5.5,0,0,1,2.73-8.54Z"/><path class="cls-4" d="M976.83,452.43h0l4.94,15.35a5.52,5.52,0,0,0,8.55,2.73h0a5.52,5.52,0,0,0-.18-9Z"/><path class="cls-4" d="M978,444.62h0l9.11-13.31a5.52,5.52,0,0,1,9-.18h0a5.52,5.52,0,0,1-2.73,8.55Z"/><path class="cls-2" d="M1104.68,541.32H1055a1,1,0,1,1,0-2.06h49.71a1,1,0,1,1,0,2.06Z"/><path class="cls-2" d="M1039.28,541.32H816.72a1,1,0,1,1,0-2.06h222.56a1,1,0,1,1,0,2.06Z"/><path class="cls-2" d="M781.82,541.37H337.44a1,1,0,0,1,0-2.07H781.82a1,1,0,0,1,0,2.07Z"/><path class="cls-2" d="M326.29,541.32H77a1,1,0,0,1,0-2.06H326.29a1,1,0,1,1,0,2.06Z"/><path class="cls-2" d="M46.71,541.32H1a1,1,0,0,1,0-2.06H46.71a1,1,0,0,1,0,2.06Z"/></g></g></svg>