<svg xmlns="http://www.w3.org/2000/svg" viewBox="0 0 814.88 524"><defs><style>.cls-1{fill:#efd0d0;}.cls-2{fill:#dce5f7;}.cls-3{fill:#dd9b9b;}.cls-4{fill:#232323;}.cls-5{fill:#fff;}</style></defs><title>Asset 16</title><g id="Layer_2" data-name="Layer 2"><g id="Layer_2-2" data-name="Layer 2"><polygon class="cls-1" points="720.33 77.4 701.83 163.56 669.89 133.45 637.95 103.33 720.33 77.4"/><path class="cls-2" d="M224.9,437.15c-1.79.84-3,2.39-4.77,3.28-9.12,4.62-8.6-12-8.56-16.86.08-10.14-.36-23.16-13-25.42A15.65,15.65,0,0,0,180.91,410c-2.46,9.93,1.49,38.06-17,34.22-4.93-1-8.59-5.08-11.6-9.12-3.8-5.11-7.51-10.82-14.24-12-10.19-1.84-20.49,4-27.47,11A48.12,48.12,0,0,0,100,450.83l0,.12,19.69,0,26.11,0c7.42,0,92-.12,92-.07C237.22,444.56,233.75,433,224.9,437.15Z"/><path class="cls-1" d="M518.11,521.48a1,1,0,0,1-1-1c-.17-14,3.34-30.69,8.74-41.48a1,1,0,1,1,1.83.91c-5.26,10.53-8.68,26.83-8.52,40.55a1,1,0,0,1-1,1Z"/><rect class="cls-3" x="522.26" y="473.43" width="9.93" height="9.93" transform="translate(1206.34 264.79) rotate(120.32)"/><path class="cls-3" d="M521.66,471.08a3.53,3.53,0,1,0,2.52-4.3A3.53,3.53,0,0,0,521.66,471.08Z"/><path class="cls-3" d="M526,487.5a3.52,3.52,0,1,0,2.51-4.31A3.51,3.51,0,0,0,526,487.5Z"/><path class="cls-3" d="M536.33,479.65a3.53,3.53,0,1,0-4.31-2.51A3.52,3.52,0,0,0,536.33,479.65Z"/><path class="cls-3" d="M520.29,483.85a3.52,3.52,0,1,0-4.3-2.51A3.52,3.52,0,0,0,520.29,483.85Z"/><path class="cls-3" d="M497,500.77c4,3.65,8.8,4.93,10.67,2.86s.13-6.69-3.89-10.34c-2.78-2.52-6.82-2.92-9.05-2.93a1.54,1.54,0,0,0-1.54,1.69C493.43,494.27,494.22,498.25,497,500.77Z"/><path class="cls-1" d="M506.29,483.3a1,1,0,0,1-1-.86,170.16,170.16,0,0,0-4.11-18.82,1,1,0,0,1,.71-1.27,1,1,0,0,1,1.26.71,169.3,169.3,0,0,1,4.16,19.05,1,1,0,0,1-.85,1.18Z"/><path class="cls-1" d="M509.38,521.48h0a1,1,0,0,1-1-1,246.89,246.89,0,0,0-2.19-32.05,1,1,0,0,1,.88-1.15,1,1,0,0,1,1.15.88,249.44,249.44,0,0,1,2.21,32.34A1,1,0,0,1,509.38,521.48Z"/><path class="cls-1" d="M500.12,460.46a3.36,3.36,0,1,0-4.45-1.67A3.36,3.36,0,0,0,500.12,460.46Z"/><path class="cls-3" d="M489.65,465.1a11.71,11.71,0,1,0,12.7-16.38l0,7a4.13,4.13,0,0,1-2.43,3.79h0a4.12,4.12,0,0,1-4.45-.66l-5.23-4.61A11.71,11.71,0,0,0,489.65,465.1Z"/><path class="cls-3" d="M503.63,450.85a2.47,2.47,0,1,0-3.28-1.22A2.48,2.48,0,0,0,503.63,450.85Z"/><path class="cls-3" d="M491,456.59a2.48,2.48,0,1,0-3.27-1.23A2.47,2.47,0,0,0,491,456.59Z"/><path class="cls-1" d="M246.67,486.06c6.55,3.67,10.33,9.38,8.45,12.75s-8.73,3.12-15.29-.56c-4.53-2.54-6.84-7.67-7.83-10.59a2.13,2.13,0,0,1,1.55-2.76C236.56,484.22,242.13,483.51,246.67,486.06Z"/><path class="cls-1" d="M278.08,488.1c-3.7,3.75-8.27,5.25-10.2,3.35s-.49-6.49,3.22-10.24c2.56-2.59,6.45-3.2,8.61-3.33a1.49,1.49,0,0,1,1.58,1.56C281.19,481.6,280.64,485.5,278.08,488.1Z"/><path class="cls-4" d="M257.77,523.6a1,1,0,0,1-1-1,166.69,166.69,0,0,0-6.79-45.8,1,1,0,0,1,.71-1.26,1,1,0,0,1,1.26.7,168.79,168.79,0,0,1,6.87,46.36A1,1,0,0,1,257.77,523.6Z"/><path class="cls-4" d="M249.24,471.89a1,1,0,0,1-1-.72,172.62,172.62,0,0,0-11.81-28.62,1,1,0,0,1,.4-1.4,1,1,0,0,1,1.39.4,173.82,173.82,0,0,1,12,29,1,1,0,0,1-.66,1.29A1.18,1.18,0,0,1,249.24,471.89Z"/><circle class="cls-3" cx="240.3" cy="450.44" r="12.71" transform="translate(-228.51 652.58) rotate(-85.24)"/><path class="cls-4" d="M265.39,523.6a1,1,0,0,1-1-1c0-.39-.67-39.81,9.29-68.17a1,1,0,0,1,1.94.68c-9.84,28-9.19,67.06-9.18,67.45a1,1,0,0,1-1,1.05Z"/><polygon class="cls-3" points="285.5 457.46 276.51 448.47 264.23 451.76 260.94 464.04 269.93 473.03 282.21 469.74 285.5 457.46"/><path class="cls-5" d="M240.3,452.45c-6.77,0-14.06-1.57-14.06-5a1,1,0,0,1,2,0c0,.89,4.09,3,12,3s12-2.07,12-3a1,1,0,0,1,2.05,0C254.36,450.88,247.07,452.45,240.3,452.45Z"/><path class="cls-5" d="M240.3,452.45c-6.77,0-14.06-1.57-14.06-5a1,1,0,0,1,2,0c0,.89,4.09,3,12,3s12-2.07,12-3a1,1,0,0,1,2.05,0C254.36,450.88,247.07,452.45,240.3,452.45Z"/><path class="cls-5" d="M250.81,455.85c-3.05,0-7.57-1.79-11.53-4.07a33.74,33.74,0,0,1-7.64-5.81c-2.68-2.87-2.59-4.6-2-5.55a1,1,0,1,1,1.78,1c-.18.3.15,1.41,1.76,3.14A31.82,31.82,0,0,0,240.3,450c6.87,4,11.44,4.21,11.88,3.44a1,1,0,0,1,1.78,1A3.38,3.38,0,0,1,250.81,455.85Z"/><path class="cls-5" d="M250.81,455.85c-3.05,0-7.57-1.79-11.53-4.07a33.74,33.74,0,0,1-7.64-5.81c-2.68-2.87-2.59-4.6-2-5.55a1,1,0,1,1,1.78,1c-.18.3.15,1.41,1.76,3.14A31.82,31.82,0,0,0,240.3,450c6.87,4,11.44,4.21,11.88,3.44a1,1,0,0,1,1.78,1A3.38,3.38,0,0,1,250.81,455.85Z"/><path class="cls-5" d="M260.94,465.07a1,1,0,0,1-.27-2l24.56-6.58a1,1,0,1,1,.53,2L261.2,465A.82.82,0,0,1,260.94,465.07Z"/><path class="cls-5" d="M273.22,461.78a1,1,0,0,1-.73-.3l-9-9a1,1,0,0,1,0-1.44,1,1,0,0,1,1.45,0l9,9a1,1,0,0,1,0,1.45A1,1,0,0,1,273.22,461.78Z"/><path class="cls-1" d="M476.46,354.81a13.14,13.14,0,0,1-8.8-3.36L295.34,197.16,193.83,338.41A13.2,13.2,0,0,1,172.39,323L282.48,169.83A13.2,13.2,0,0,1,302,167.7l173.6,155.43,195.2-210.39a13.2,13.2,0,1,1,19.35,18l-204,219.89A13.18,13.18,0,0,1,476.46,354.81Z"/><path class="cls-3" d="M424.7,406.36h0l-17.79,2.56-17.78-2.56h0a111.8,111.8,0,0,1-62.94,93.17h0a22.64,22.64,0,0,0-12.79,20.38v3h187v-3a22.63,22.63,0,0,0-12.8-20.38h0A111.79,111.79,0,0,1,424.7,406.36Z"/><path class="cls-5" d="M343.41,515.9a1.32,1.32,0,0,1-.39-.06,1.43,1.43,0,0,1-1-1.77,24,24,0,0,1,10.54-14,110.09,110.09,0,0,0,42.19-47.55,1.43,1.43,0,0,1,2.6,1.21,112.81,112.81,0,0,1-43.29,48.78,21.18,21.18,0,0,0-9.28,12.32A1.43,1.43,0,0,1,343.41,515.9Z"/><path class="cls-3" d="M453.67,375.91a8,8,0,1,1,0-16,82,82,0,0,0,76-50.75l33.84-81.67a17.22,17.22,0,0,0-15.91-23.81H470.9a8,8,0,1,1,0-16h76.66a33.26,33.26,0,0,1,30.72,46l-33.84,81.67A98,98,0,0,1,453.67,375.91Z"/><path class="cls-3" d="M351.54,375.91a98,98,0,0,1-90.77-60.64L226.94,233.6a33.25,33.25,0,0,1,30.71-46h76.67a8,8,0,0,1,0,16H257.65a17.22,17.22,0,0,0-15.9,23.81l33.83,81.67a82,82,0,0,0,76,50.75,8,8,0,1,1,0,16Z"/><path class="cls-4" d="M602.58,216.34a1,1,0,0,1-.66-.24,1,1,0,0,1-.13-1.45l76.66-91.57a1,1,0,0,1,.69-.36,1,1,0,0,1,.76.24l22.15,18.85,13.51-83.47L637.89,87.22l21.9,18.63a1,1,0,0,1,.12,1.44L595.71,184a1,1,0,0,1-1.57-1.31l63.55-75.92-22.46-19.1a1,1,0,0,1,.31-1.74l81-30.1a1,1,0,0,1,1,.17,1,1,0,0,1,.37,1l-14.09,87a1,1,0,0,1-.65.8,1.07,1.07,0,0,1-1-.18l-22.76-19.36-76,90.78A1,1,0,0,1,602.58,216.34Z"/><path class="cls-3" d="M540,161.94l0,.39L522.08,302.61a161.11,161.11,0,0,1-86.53,121.6,63,63,0,0,1-57.28,0,161.14,161.14,0,0,1-86.53-121.6L273.87,162.33l-.05-.39Z"/><path class="cls-5" d="M367.27,395.66a1.44,1.44,0,0,1-1-.42,162.19,162.19,0,0,1-45.78-92.43L317.18,279a1.44,1.44,0,0,1,2.85-.39l3.28,23.81a158.4,158.4,0,0,0,45,90.79,1.44,1.44,0,0,1,0,2A1.42,1.42,0,0,1,367.27,395.66Z"/><path class="cls-5" d="M314.44,250.08a1.44,1.44,0,0,1-1.42-1.24l-5.22-37.9a1.43,1.43,0,1,1,2.84-.39l5.23,37.9a1.43,1.43,0,0,1-1.23,1.61Z"/><polygon class="cls-3" points="742.58 368.21 745.32 373.38 750.32 376.21 745.32 379.04 742.58 384.2 739.84 379.04 734.84 376.21 739.84 373.38 742.58 368.21"/><polygon class="cls-5" points="482.06 232.73 484.79 237.9 489.8 240.72 484.79 243.55 482.06 248.72 479.32 243.55 474.31 240.72 479.32 237.9 482.06 232.73"/><polygon class="cls-5" points="466.57 210.67 470.55 218.17 477.81 222.27 470.55 226.38 466.57 233.88 462.6 226.38 455.33 222.27 462.6 218.17 466.57 210.67"/><polygon class="cls-5" points="408.78 390.17 403.61 392.91 400.78 397.92 397.95 392.91 392.78 390.17 397.95 387.44 400.78 382.43 403.61 387.44 408.78 390.17"/><polygon class="cls-5" points="430.84 374.69 423.33 378.66 419.23 385.93 415.13 378.66 407.63 374.69 415.13 370.72 419.23 363.45 423.33 370.72 430.84 374.69"/><polygon class="cls-3" points="664.06 20.6 666.8 25.77 671.8 28.6 666.8 31.43 664.06 36.59 661.32 31.43 656.32 28.6 661.32 25.77 664.06 20.6"/><polygon class="cls-1" points="250.07 45 252.81 50.17 257.82 52.99 252.81 55.82 250.07 60.99 247.34 55.82 242.33 52.99 247.34 50.17 250.07 45"/><polygon class="cls-1" points="234.97 355.45 237.7 360.62 242.71 363.45 237.7 366.28 234.97 371.45 232.23 366.28 227.22 363.45 232.23 360.62 234.97 355.45"/><path class="cls-3" d="M114.77,342.15h0a10.59,10.59,0,0,1-10.59,10.59h0a10.59,10.59,0,0,1-10.59-10.59h0a10.59,10.59,0,0,1,10.59-10.59h0A10.59,10.59,0,0,1,114.77,342.15Z"/><path class="cls-1" d="M139.42,369h0a5.62,5.62,0,0,1-5.63,5.62h0a5.62,5.62,0,0,1-5.62-5.62h0a5.62,5.62,0,0,1,5.62-5.62h0A5.62,5.62,0,0,1,139.42,369Z"/><path class="cls-3" d="M124.26,362.44H105a1,1,0,0,1-1-1V342.15a1,1,0,0,1,1-1h19.26a1,1,0,0,1,1,1v19.26A1,1,0,0,1,124.26,362.44ZM106,360.39h17.21V343.17H106Z"/><path class="cls-4" d="M152.31,227.4A1.23,1.23,0,0,1,152,225a43.7,43.7,0,0,0,11.83-5.34,17.79,17.79,0,0,1-5.44-4c-1.77-1.92-2.47-3.79-2.1-5.57a5.91,5.91,0,0,1,3.39-3.89,8.45,8.45,0,0,1,7.39-.05,6.9,6.9,0,0,1,3.79,5,8.84,8.84,0,0,1-2.26,7.53,13.87,13.87,0,0,0,4.85.06,11.56,11.56,0,0,0,8.87-7.15,1.23,1.23,0,1,1,2.26,1,13.92,13.92,0,0,1-10.72,8.61,16.29,16.29,0,0,1-7.34-.46c-4.19,3.46-10.32,5.63-13.82,6.67A1,1,0,0,1,152.31,227.4Zm11.12-19.68a6,6,0,0,0-2.69.63,3.78,3.78,0,0,0-2.08,2.19c-.25,1.2.68,2.52,1.5,3.41a15.49,15.49,0,0,0,5.75,4c1.83-1.8,2.93-3.92,2.49-6.32a4.45,4.45,0,0,0-2.46-3.28A5.57,5.57,0,0,0,163.43,207.72Z"/><path class="cls-2" d="M476.27,54.21s-66.35,0-66.43,0H394a13.34,13.34,0,0,1-.18-3.09h0l0-.25c0-.08,0-.14,0-.16a27.59,27.59,0,0,1,.92-4.1,21.83,21.83,0,0,1,2.41-5.38,14.45,14.45,0,0,1,4.95-4.91,19.61,19.61,0,0,1,6.5-2.39,14.83,14.83,0,0,1,11,2.16c2,1.35,3.81,3.43,6.31,3.76,3.82.49,4.82-3.71,5.13-6.62.84-7.83,1.5-20,11.05-22.29a5.49,5.49,0,0,1,4.34.69c2.37,1.49,3.87,4.66,4.73,7.26,1.39,4.2,2.15,8.75,3.88,12.81,1.28,3,3.82,4.84,7.17,4.39a8.11,8.11,0,0,1,3.23.23,12.18,12.18,0,0,1,6,4.35,16.06,16.06,0,0,1,1.48,2.24C474.74,46.25,475.53,50.46,476.27,54.21Z"/><path class="cls-2" d="M236.66,57.19H63.39a23.58,23.58,0,0,1,.2-4.13h0a37.23,37.23,0,0,1,4.49-13.23c3.66-6.46,9.15-11.23,15.32-9.76a13.72,13.72,0,0,1,5.82,3.24c3,2.63,5.36,5.86,8.3,8.53s6.7,4.8,10.65,4.51c5-.36,8.52-4.79,9.26-9.46C119.21,25.65,119.1,3.46,133.14.39l.79-.15c12-2.06,20.27,9.66,23.47,20.17.36,1.19.66,2.37.89,3.51a45.6,45.6,0,0,1,1,8.77l.06.57c.1.81.21,1.62.34,2.41a19.59,19.59,0,0,0,1.66,5.47,2.5,2.5,0,0,0,1.46,1.46c1.91.46,3.52-1.76,4.62-3.53.31-.5.58-1,.8-1.31,3.48-5.53,13.08-9.21,17.42-2.59,3,4.63.51,13.66,6.82,16,7.23,2.65,9.05-6.86,9.7-11.74.79-6,.65-12.14,2.42-18,.75-1.75,2-3.74,4-4a5.19,5.19,0,0,1,4.5,3.25c2.21,5.37,2.82,11.17,3.63,16.87.65,4.63,1.55,14.84,7.71,15.42,3.27.3,6.22-5.53,9.25-2.95C235.6,51.66,235.5,55.09,236.66,57.19Z"/><path class="cls-2" d="M599.46,392.34H714.3c-.77-9.62-7.06-26-8.23-27.92-.48-.76-.89-1.47-1.24-2-5.36-8.51-20.15-14.18-26.83-4-4.66,7.13-.78,21-10.49,24.58-11.14,4.07-14-10.58-14.94-18.09-1.22-9.23-1-18.69-3.74-27.67-1.15-2.69-3.07-5.76-6.14-6.15-3.08,0-5.77,2.31-6.92,5-3.41,8.28-4.35,17.21-5.59,26-1,7.12-2.4,22.85-11.88,23.74-5,.46-9.59-8.52-14.25-4.54C601.09,383.81,601.24,389.09,599.46,392.34Z"/><path class="cls-4" d="M615.9,337.92c-5.16,0-10.18-2.28-12-7.24a12.57,12.57,0,0,1-.68-3.11,15.32,15.32,0,0,1-6.1-4.44,14,14,0,0,1-3.43-7.43,1,1,0,1,1,2-.18,12.08,12.08,0,0,0,3,6.28,14.12,14.12,0,0,0,4.51,3.53,15.69,15.69,0,0,1,.3-2.32c.45-2.3,1.33-3.85,2.68-4.74a4.67,4.67,0,0,1,7.15,4.81,5.81,5.81,0,0,1-1.83,3.06,7.33,7.33,0,0,1-5.55,2l-.59-.06a10.14,10.14,0,0,0,.47,1.88c2.19,6.07,9.93,6.68,14.72,5.17l.48-.16a12.35,12.35,0,0,0,3.6-2,1,1,0,0,1,1.28,1.6,14.6,14.6,0,0,1-4.19,2.3c-.18.06-.37.13-.56.18A17.49,17.49,0,0,1,615.9,337.92ZM605.25,326a4.82,4.82,0,0,0,.85.11,5.31,5.31,0,0,0,4-1.49,3.77,3.77,0,0,0,1.21-2,2.62,2.62,0,0,0-4-2.7,5.11,5.11,0,0,0-1.81,3.43A15,15,0,0,0,605.25,326Z"/><path class="cls-4" d="M442.38,181.4H275.65a19.27,19.27,0,1,1,0-38.53H430.73a1.44,1.44,0,1,1,0,2.87H275.65a16.4,16.4,0,1,0,0,32.79H442.38a1.44,1.44,0,1,1,0,2.87Z"/><path class="cls-4" d="M536.31,181.4H482.18a1.44,1.44,0,0,1,0-2.87h54.13a16.4,16.4,0,0,0,0-32.79H476.45a1.44,1.44,0,1,1,0-2.87h59.86a19.27,19.27,0,0,1,0,38.53Z"/><path class="cls-5" d="M440.53,336.56a1.44,1.44,0,0,1-.67-.16l-32.95-17.33L374,336.4a1.44,1.44,0,0,1-2.09-1.52l6.3-36.69-26.66-26a1.44,1.44,0,0,1,.8-2.45l36.83-5.35L405.63,231a1.43,1.43,0,0,1,2.57,0l16.48,33.38,36.83,5.35a1.44,1.44,0,0,1,.8,2.45l-26.66,26,6.29,36.69a1.43,1.43,0,0,1-1.41,1.68ZM355.6,272.19l25.12,24.48a1.42,1.42,0,0,1,.41,1.27L375.2,332.5l31.05-16.32a1.42,1.42,0,0,1,1.33,0l31.05,16.32-5.93-34.56a1.42,1.42,0,0,1,.41-1.27l25.11-24.48-34.7-5.05a1.44,1.44,0,0,1-1.08-.78l-15.53-31.45-15.52,31.45a1.44,1.44,0,0,1-1.08.78Z"/><path class="cls-4" d="M813.85,524H737a1,1,0,0,1,0-2.05h76.83a1,1,0,1,1,0,2.05Z"/><path class="cls-4" d="M725.75,524H573a1,1,0,1,1,0-2.05H725.75a1,1,0,0,1,0,2.05Z"/><path class="cls-1" d="M649.23,490.11a1,1,0,0,1-.49-.13l-13.47-7.39a1,1,0,0,1-.4-1.39,1,1,0,0,1,1.39-.41l13.47,7.39a1,1,0,0,1,.4,1.4A1,1,0,0,1,649.23,490.11Z"/><path class="cls-1" d="M628.71,522.46h-.18a1,1,0,0,1-.83-1.19l8.74-49a1,1,0,0,1,2,.36l-8.74,49A1,1,0,0,1,628.71,522.46Z"/><path class="cls-1" d="M655.86,522.37a1,1,0,0,1-1-.82l-9.74-48.83a1,1,0,1,1,2-.4l9.74,48.83a1,1,0,0,1-.8,1.2Z"/><path class="cls-1" d="M591.87,522.46h-.18a1,1,0,0,1-.83-1.19l11-61.66a1,1,0,1,1,2,.36l-11,61.66A1,1,0,0,1,591.87,522.46Z"/><path class="cls-1" d="M618.86,522.37a1,1,0,0,1-1-.82l-9.74-48.83a1,1,0,1,1,2-.4l9.74,48.83a1,1,0,0,1-.81,1.2Z"/><path class="cls-1" d="M605.37,474.11a28.34,28.34,0,0,0,15.14,4.38h44.8a4,4,0,1,0,0-8h-56A4,4,0,0,0,605.37,474.11Z"/><path class="cls-1" d="M595.58,463.65a28.36,28.36,0,0,0,24.93,14.84,27.92,27.92,0,0,0,19.76-8c9.38-9.18,7.82-23.4-.93-35.67-12.15-17-26.84-27.07-44.75-22.54C574.23,417.46,585.85,445.76,595.58,463.65Z"/><path class="cls-1" d="M612.42,490.11a1,1,0,0,1-.49-.13l-13.46-7.39a1,1,0,1,1,1-1.8l13.47,7.39a1,1,0,0,1,.4,1.4A1,1,0,0,1,612.42,490.11Z"/><path class="cls-4" d="M543.5,524H204.35a1,1,0,0,1,0-2H543.5a1,1,0,0,1,0,2Z"/><path class="cls-4" d="M240.81,524H137.18a1,1,0,1,1,0-2.05H240.81a1,1,0,1,1,0,2.05Z"/><path class="cls-4" d="M119.09,524H17a1,1,0,0,1,0-2.05h102.1a1,1,0,0,1,0,2.05Z"/><path class="cls-3" d="M64.81,157.62a1.44,1.44,0,0,1-.11-2.88l20-1.59A1.44,1.44,0,1,1,85,156l-20,1.59Z"/><path class="cls-3" d="M95.81,155.16a1.44,1.44,0,0,1-.12-2.88l11.22-.89a1.45,1.45,0,0,1,1.55,1.33,1.43,1.43,0,0,1-1.32,1.54l-11.22.89Z"/><path class="cls-3" d="M1.44,160.85A1.44,1.44,0,0,1,1.33,158l12.3-1a1.44,1.44,0,0,1,.23,2.87l-12.31,1Z"/><path class="cls-3" d="M22.8,160.19a1.44,1.44,0,0,1-.11-2.87l15-1.19a1.45,1.45,0,0,1,1.54,1.32A1.43,1.43,0,0,1,37.87,159l-14.95,1.19Z"/><path class="cls-3" d="M86.6,188.53a1.42,1.42,0,0,1-1.06-.46l-5.08-5.51a1.44,1.44,0,0,1,2.12-1.95l5.08,5.51a1.44,1.44,0,0,1-.09,2A1.38,1.38,0,0,1,86.6,188.53Z"/><path class="cls-3" d="M76.83,177.94a1.43,1.43,0,0,1-1.06-.47l-9.45-10.25a1.44,1.44,0,0,1,2.12-1.95l9.45,10.25a1.44,1.44,0,0,1-.09,2A1.39,1.39,0,0,1,76.83,177.94Z"/><path class="cls-3" d="M61.75,145.51a1.39,1.39,0,0,1-.65-.16,1.44,1.44,0,0,1-.63-1.93l9.22-18.2a1.43,1.43,0,0,1,1.93-.63,1.45,1.45,0,0,1,.64,1.93L63,144.72A1.45,1.45,0,0,1,61.75,145.51Z"/><path class="cls-1" d="M58.29,205.21a1.45,1.45,0,0,1-1.43-1.27l-4.24-35.78a1.44,1.44,0,1,1,2.85-.34l4.25,35.78a1.43,1.43,0,0,1-1.26,1.6Z"/><path class="cls-1" d="M44.86,117.4a1.43,1.43,0,0,1-1.42-1.23l-1.38-9.45a1.44,1.44,0,0,1,2.85-.42l1.38,9.46a1.45,1.45,0,0,1-1.22,1.63Z"/><path class="cls-1" d="M49,145.76a1.44,1.44,0,0,1-1.42-1.24l-2.76-18.9a1.44,1.44,0,0,1,2.85-.41l2.76,18.9a1.44,1.44,0,0,1-1.22,1.63Z"/><path class="cls-3" d="M39.37,150.06a1.44,1.44,0,0,1-1.23-.69L24.35,126.82a1.44,1.44,0,0,1,2.45-1.5l13.8,22.55a1.44,1.44,0,0,1-1.23,2.19Z"/><path class="cls-3" d="M22.44,195.93a1.44,1.44,0,0,1-1.1-2.36l4.36-5.23a1.44,1.44,0,0,1,2.21,1.85l-4.36,5.22A1.46,1.46,0,0,1,22.44,195.93Z"/><path class="cls-3" d="M34.43,181.57a1.46,1.46,0,0,1-.92-.33,1.44,1.44,0,0,1-.18-2l9.31-11.15a1.44,1.44,0,0,1,2.21,1.84l-9.31,11.16A1.45,1.45,0,0,1,34.43,181.57Z"/><path class="cls-5" d="M712.75,259.34a1.44,1.44,0,0,1-.12-2.87l20-1.59a1.44,1.44,0,0,1,.23,2.87l-20,1.59Z"/><path class="cls-5" d="M743.74,256.88a1.44,1.44,0,0,1-.11-2.87l11.22-.89a1.44,1.44,0,0,1,.23,2.87l-11.22.89Z"/><path class="cls-5" d="M649.37,262.58a1.44,1.44,0,0,1-.11-2.88l12.31-1a1.43,1.43,0,0,1,1.55,1.32,1.45,1.45,0,0,1-1.32,1.55l-12.31,1Z"/><path class="cls-5" d="M670.74,261.92a1.44,1.44,0,0,1-.11-2.87l15-1.19a1.44,1.44,0,0,1,.23,2.87l-14.95,1.18Z"/><path class="cls-5" d="M734.54,290.26a1.45,1.45,0,0,1-1.06-.46l-5.08-5.51a1.44,1.44,0,0,1,2.12-2l5.07,5.5a1.45,1.45,0,0,1-.08,2A1.47,1.47,0,0,1,734.54,290.26Z"/><path class="cls-5" d="M724.77,279.66a1.42,1.42,0,0,1-1.06-.46L714.26,269a1.44,1.44,0,0,1,2.12-1.95l9.44,10.25a1.43,1.43,0,0,1-1.05,2.41Z"/><path class="cls-5" d="M709.69,247.24a1.39,1.39,0,0,1-.65-.16,1.43,1.43,0,0,1-.63-1.93l9.22-18.2a1.44,1.44,0,0,1,2.56,1.3L711,246.45A1.45,1.45,0,0,1,709.69,247.24Z"/><path class="cls-5" d="M706.23,306.94a1.45,1.45,0,0,1-1.43-1.27l-4.25-35.78a1.44,1.44,0,0,1,2.86-.34l4.25,35.78a1.45,1.45,0,0,1-1.26,1.6Z"/><path class="cls-5" d="M692.8,219.13a1.44,1.44,0,0,1-1.42-1.23L690,208.45a1.44,1.44,0,1,1,2.85-.42l1.38,9.45a1.44,1.44,0,0,1-1.22,1.63Z"/><path class="cls-5" d="M696.94,247.48a1.44,1.44,0,0,1-1.43-1.23l-2.75-18.9a1.44,1.44,0,1,1,2.84-.42l2.76,18.91a1.44,1.44,0,0,1-1.21,1.63Z"/><path class="cls-5" d="M687.31,251.79a1.45,1.45,0,0,1-1.23-.69l-13.79-22.55a1.44,1.44,0,1,1,2.45-1.5l13.8,22.55a1.44,1.44,0,0,1-.48,2A1.47,1.47,0,0,1,687.31,251.79Z"/><path class="cls-5" d="M670.38,297.65a1.43,1.43,0,0,1-1.1-2.36l4.36-5.22a1.44,1.44,0,0,1,2.21,1.84l-4.36,5.23A1.45,1.45,0,0,1,670.38,297.65Z"/><path class="cls-5" d="M682.37,283.3a1.4,1.4,0,0,1-.92-.34,1.43,1.43,0,0,1-.19-2l9.32-11.15a1.44,1.44,0,1,1,2.21,1.84l-9.32,11.15A1.43,1.43,0,0,1,682.37,283.3Z"/><path class="cls-3" d="M574.39,93.77a1.63,1.63,0,0,1,1.3-1.81,1.65,1.65,0,0,1,1.94,1.28l4.57,22.48a1.64,1.64,0,0,1-3.22.66L574.41,93.9A.69.69,0,0,1,574.39,93.77Z"/><path class="cls-1" d="M581.46,128.53a1.64,1.64,0,0,1,3.24-.52l2.56,12.58a1.64,1.64,0,0,1-3.22.65l-2.56-12.58S581.47,128.57,581.46,128.53Z"/><path class="cls-3" d="M562,22.44a1.64,1.64,0,0,1,3.24-.52L568,35.72a1.64,1.64,0,1,1-3.22.65L562,22.57Z"/><path class="cls-3" d="M565.66,46.55A1.64,1.64,0,0,1,568.9,46l3.41,16.78a1.64,1.64,0,0,1-3.22.65l-3.41-16.77A.69.69,0,0,1,565.66,46.55Z"/><path class="cls-3" d="M542.39,122.72a1.64,1.64,0,0,1,.38-1.26L548.3,115a1.64,1.64,0,1,1,2.5,2.12l-5.53,6.52a1.63,1.63,0,0,1-2.31.18A1.6,1.6,0,0,1,542.39,122.72Z"/><path class="cls-3" d="M553,110.19a1.6,1.6,0,0,1,.38-1.26l10.3-12.12a1.64,1.64,0,1,1,2.5,2.13l-10.3,12.11a1.64,1.64,0,0,1-2.88-.86Z"/><path class="cls-3" d="M587.68,88.63a1.63,1.63,0,0,1,2.19-1.74l21.88,7.92a1.64,1.64,0,0,1-1.12,3.09L588.75,90A1.63,1.63,0,0,1,587.68,88.63Z"/><path class="cls-3" d="M519.58,93a1.65,1.65,0,0,1,1.24-1.79l39.94-9.76a1.64,1.64,0,0,1,.78,3.19L521.6,94.37a1.64,1.64,0,0,1-2-1.21A1.29,1.29,0,0,1,519.58,93Z"/><path class="cls-3" d="M617.17,65.61a1.63,1.63,0,0,1,1.2-1.78L628.88,61a1.64,1.64,0,0,1,2,1.15,1.66,1.66,0,0,1-1.15,2L619.23,67a1.65,1.65,0,0,1-2-1.16A1.55,1.55,0,0,1,617.17,65.61Z"/><path class="cls-3" d="M585.63,74.22a1.64,1.64,0,0,1,1.2-1.78l21-5.74a1.64,1.64,0,0,1,.86,3.17l-21,5.74a1.65,1.65,0,0,1-2-1.16A1.55,1.55,0,0,1,585.63,74.22Z"/><path class="cls-3" d="M579.42,63.91a1.68,1.68,0,0,1,.61-1.49l23.63-18.74a1.64,1.64,0,1,1,2,2.57L582.07,65a1.64,1.64,0,0,1-2.3-.27A1.66,1.66,0,0,1,579.42,63.91Z"/><path class="cls-3" d="M525.13,51.08a1.73,1.73,0,0,1,.25-1.09,1.65,1.65,0,0,1,2.28-.48l6.52,4.22a1.64,1.64,0,1,1-1.79,2.75l-6.52-4.21A1.69,1.69,0,0,1,525.13,51.08Z"/><path class="cls-1" d="M543.05,62.67a1.66,1.66,0,0,1,.25-1.09,1.64,1.64,0,0,1,2.27-.48l13.92,9a1.64,1.64,0,0,1-1.78,2.76l-13.92-9A1.62,1.62,0,0,1,543.05,62.67Z"/></g></g></svg>