<svg xmlns="http://www.w3.org/2000/svg" viewBox="0 0 965.09 517.5"><defs><style>.cls-1{fill:#dce5f7;}.cls-2{fill:#fff;}.cls-3{fill:#e2a3a3;}.cls-4{fill:#a87e7e;}.cls-5{fill:#303030;}</style></defs><title>Asset 3</title><g id="Layer_2" data-name="Layer 2"><g id="Layer_2-2" data-name="Layer 2"><path class="cls-1" d="M101.39,225.8s-73.52,0-73.6,0H10.18a15.14,15.14,0,0,1-.2-3.43h0l0-.28a1.55,1.55,0,0,1,0-.18,31,31,0,0,1,1-4.54,25,25,0,0,1,2.67-6A16.06,16.06,0,0,1,19.19,206a21.75,21.75,0,0,1,7.21-2.64,16.4,16.4,0,0,1,12.14,2.39c2.2,1.5,4.23,3.81,7,4.17,4.23.55,5.35-4.11,5.69-7.33.93-8.68,1.66-22.2,12.25-24.7a6.08,6.08,0,0,1,4.8.76c2.63,1.66,4.29,5.17,5.25,8,1.53,4.65,2.37,9.69,4.29,14.19,1.42,3.34,4.24,5.36,7.94,4.86a8.8,8.8,0,0,1,3.59.26A13.49,13.49,0,0,1,96,210.79a17.64,17.64,0,0,1,1.63,2.48C99.7,217,100.57,221.65,101.39,225.8Z"/><path class="cls-1" d="M253.14,105.93s-73.52,0-73.6,0H161.93a15.74,15.74,0,0,1-.2-3.43h0l0-.28a1.3,1.3,0,0,1,0-.18,30.4,30.4,0,0,1,1-4.54,24.61,24.61,0,0,1,2.67-6,16.06,16.06,0,0,1,5.49-5.44,21.75,21.75,0,0,1,7.21-2.64,16.31,16.31,0,0,1,12.14,2.39c2.2,1.49,4.23,3.8,7,4.16,4.22.55,5.34-4.1,5.68-7.33.93-8.68,1.66-22.2,12.25-24.7a6,6,0,0,1,4.8.77c2.63,1.65,4.3,5.16,5.25,8,1.53,4.65,2.38,9.69,4.29,14.2,1.42,3.33,4.24,5.35,7.94,4.86a8.8,8.8,0,0,1,3.59.26,13.47,13.47,0,0,1,6.69,4.81,19.32,19.32,0,0,1,1.64,2.48C251.45,97.1,252.32,101.78,253.14,105.93Z"/><path class="cls-2" d="M136.49,279.54a34.74,34.74,0,0,0-3,9.1l-.15.88-.06.44a34.79,34.79,0,0,0,.08,10.09c.16,1,.36,2,.6,3l.11.43c.07.28.15.56.23.84l.12.41c.08.28.17.56.26.83.18.55.38,1.1.58,1.64a34.82,34.82,0,0,0,27.56,21.94h0a34.71,34.71,0,0,0,35.8-50.1c-.25-.5-.51-1-.79-1.47-.09-.17-.18-.33-.28-.49-.19-.32-.38-.64-.58-.95a34.37,34.37,0,0,0-4.64-5.82h0l0,0a34.76,34.76,0,0,0-21.13-10.06l-.73-.07a34.77,34.77,0,0,0-20.31,4.66l-.45.27-.56.35-.22.13h0l-.49.32-.78.54c-.68.48-1.36,1-2,1.53-.29.24-.59.49-.88.75A34.61,34.61,0,0,0,136.49,279.54Z"/><path class="cls-3" d="M161.32,307.85l-.93,4.68.87,1-.75,5.44,2.51,1.5,2.47,7.14-1.25.88-1.39.67h0a34.65,34.65,0,0,0,5.37.33h0l3.84-1.5,5.76-5.71,4-1,7.33-5.62.61-6.19.52.26,2.65-1,5.67-4.13,3.51-3.71.1-2-.26-6.14.41.29A34.61,34.61,0,0,0,198.65,279c-.25-.5-.51-1-.79-1.47-.09-.17-.18-.33-.28-.49-.19-.32-.38-.64-.58-.95a28.85,28.85,0,0,0-4.64-5.82L189,271.87l-2.83,4.7-1.67,2-1.6,2.46,3,1.87,2.53,2.31L193,297.36l.77.92,1.34-1.65.1-1,1-.45.75,1.38.64,1.18,1.1,2-1.64,1.84-.12-1.41-1.31-.91-1,2-.42,1.68-1.24.34L191.84,307l-2.1.73,0-.81-1.33-2.27-3.63.53-2-1L178,306l-2.89-.46L172.07,308Z"/><path class="cls-3" d="M183.78,269.84l-.47,2.07-2.95,3-1.7-1.23.47-2.07-3.47-4,1.94-2.07a2.66,2.66,0,0,1,3.09-.7l1.42.63,3.6,2,1,1.29-.41,1.69Z"/><path class="cls-3" d="M136.49,279.54a34.6,34.6,0,0,0-1.19,27.65l.56-.05.17-1.47.51-7.26,2.28-6.52,2.14-3.55,4.18-.26,5.43,5.21,5.14-1.68,3.91-6.07.25-2.18-.45-6.3-2.59-3.83-2-1.12-5.62-2.33.95-2.2,4,.14-1.52.61-.37.77.49.37,1-.44,1.2.31,2.56.57,1.62-.29.13,1.42,1.4,2,.68,2.22,3.44,2.08,2.73-3.94,1.52-2.18-3.27-1.63.08-2.93,2.82-.25,4.69-4.07-2.79-1.22.92-.77-.28-.18a35.61,35.61,0,0,0-22.28,5.35h0A34.52,34.52,0,0,0,136.49,279.54Z"/><path class="cls-3" d="M152.23,326.49a35.21,35.21,0,0,1-17.5-19.08c-.21-.57-.41-1.13-.59-1.67-.09-.28-.18-.56-.26-.84l-.13-.42c-.08-.29-.16-.58-.23-.86l-.11-.43c-.24-1-.45-2-.61-3a35.36,35.36,0,0,1-.09-10.27c0-.15,0-.3.07-.45,0-.3.09-.6.15-.89a35.5,35.5,0,0,1,3-9.26,35.12,35.12,0,0,1,8.41-11l.9-.77c.67-.54,1.36-1.07,2.05-1.55l.79-.55,0,0,.45-.29,0,0,.13-.08.06,0,.58-.36.47-.27a35.2,35.2,0,0,1,20.64-4.74l.75.07a35.35,35.35,0,0,1,21.49,10.24l0,0,0,0a35.06,35.06,0,0,1,4.72,5.92c.19.3.38.61.59,1,.1.16.19.32.28.49.28.48.54,1,.81,1.5a35.64,35.64,0,0,1,3.32,10,35.15,35.15,0,0,1,.46,4.11,36,36,0,0,1-.24,6.39,35.35,35.35,0,0,1-34.5,30.77,34.52,34.52,0,0,1-5.46-.34h0A35.39,35.39,0,0,1,152.23,326.49Zm-3-60.43-.42.28,0,0-.76.53q-1,.71-2,1.5l-.86.74a34.17,34.17,0,0,0-11,19.62c-.05.28-.1.57-.14.86s-.05.29-.07.44A33.94,33.94,0,0,0,134,300c.16,1,.36,2,.59,2.94l.11.42.22.82.13.41c.08.27.16.55.25.82.17.52.37,1.06.58,1.61a34.16,34.16,0,0,0,27.07,21.55h0A34.09,34.09,0,0,0,201.77,293a33,33,0,0,0-.45-4,34,34,0,0,0-3.2-9.69c-.26-.51-.52-1-.78-1.45l-.28-.47c-.2-.34-.38-.65-.57-.94a34.11,34.11,0,0,0-4.53-5.69l0,0,0,0a34.2,34.2,0,0,0-20.77-9.9l-.72-.06a34,34,0,0,0-20,4.58l-.43.26-.56.34-.06,0-.17.1h0Z"/><circle class="cls-1" cx="787.77" cy="85.34" r="46.17" transform="translate(332 733.52) rotate(-61.07)"/><circle class="cls-2" cx="787.77" cy="85.34" r="39.22" transform="translate(571.81 847.72) rotate(-80.37)"/><circle class="cls-3" cx="787.77" cy="85.34" r="29.42" transform="translate(170.39 582.03) rotate(-45)"/><circle class="cls-2" cx="787.77" cy="85.34" r="19.36" transform="translate(301.36 710.85) rotate(-58.31)"/><circle class="cls-3" cx="787.77" cy="85.34" r="9.43" transform="translate(416.07 785.13) rotate(-68.21)"/><path class="cls-4" d="M787.77,86.94a1.6,1.6,0,0,1-.85-3l73.8-46.39a1.6,1.6,0,0,1,1.7,2.71l-73.8,46.38A1.56,1.56,0,0,1,787.77,86.94Z"/><path class="cls-3" d="M854.32,56.39a1.52,1.52,0,0,1-.42-.06L841.52,53a1.58,1.58,0,0,1-1.16-1.73l1.44-11.76a1.6,1.6,0,1,1,3.17.39L843.7,50.25l11,3a1.6,1.6,0,0,1-.42,3.14Z"/><path class="cls-3" d="M862.53,50.51a2,2,0,0,1-.42,0L849.73,47.1a1.61,1.61,0,0,1-1.17-1.74L850,33.6a1.6,1.6,0,0,1,3.17.39L851.9,44.38l11.05,3a1.6,1.6,0,0,1-.42,3.14Z"/><path class="cls-2" d="M256.68,472.76V210.4a8.68,8.68,0,0,1,8.68-8.67H715.91a8.68,8.68,0,0,1,8.67,8.67V472.76Z"/><path class="cls-3" d="M715.91,208.89a1.52,1.52,0,0,1,1.51,1.51V465.6H263.85V210.4a1.51,1.51,0,0,1,1.51-1.51Zm0-14.32H265.36a15.84,15.84,0,0,0-15.84,15.83V479.93H731.75V210.4a15.84,15.84,0,0,0-15.84-15.83Z"/><path class="cls-5" d="M731.12,305a1,1,0,0,1-1-.94l-9.75-127.39A14.79,14.79,0,0,0,704.46,163l-10,.76a1,1,0,0,1-.16-2l10-.77a16.86,16.86,0,0,1,18.1,15.53l9.74,127.39a1,1,0,0,1-.94,1.1Z"/><path class="cls-5" d="M242.33,255a1,1,0,0,1-1-1l-1.78-40.65a16.86,16.86,0,0,1,15.53-18.06L665.3,164.59a1,1,0,0,1,1.1.95,1,1,0,0,1-.94,1.1L255.21,197.35a14.81,14.81,0,0,0-13.64,15.9l1.79,40.68a1,1,0,0,1-1,1.07Z"/><path class="cls-5" d="M244.66,308.26a1,1,0,0,1-1-1l-1.35-30.92a1,1,0,1,1,2-.09l1.36,30.92a1,1,0,0,1-1,1.07Z"/><path class="cls-5" d="M251.67,468.06a1,1,0,0,1-1-1l-4.23-96.7a1,1,0,1,1,2-.09l4.24,96.7a1,1,0,0,1-1,1.07Z"/><path class="cls-3" d="M524.13,516.45H757.82a18.26,18.26,0,0,0,18.26-18.26h0a18.26,18.26,0,0,0-18.26-18.26H223.45a18.25,18.25,0,0,0-18.26,18.26h0a18.25,18.25,0,0,0,18.26,18.26Z"/><polygon class="cls-3" points="890.44 129.98 892.96 134.73 897.56 137.33 892.96 139.93 890.44 144.68 887.93 139.93 883.33 137.33 887.93 134.73 890.44 129.98"/><polygon class="cls-3" points="656.34 98.57 658.86 103.33 663.46 105.93 658.86 108.53 656.34 113.28 653.82 108.53 649.22 105.93 653.82 103.33 656.34 98.57"/><polygon class="cls-3" points="450.25 91.52 452.77 96.27 457.37 98.87 452.77 101.47 450.25 106.23 447.73 101.47 443.13 98.87 447.73 96.27 450.25 91.52"/><polygon class="cls-3" points="65.26 276.4 67.78 281.16 72.38 283.76 67.78 286.36 65.26 291.11 62.74 286.36 58.14 283.76 62.74 281.16 65.26 276.4"/><polygon class="cls-3" points="205.19 365.68 207.71 370.44 212.31 373.04 207.71 375.63 205.19 380.39 202.67 375.63 198.07 373.04 202.67 370.44 205.19 365.68"/><polygon class="cls-3" points="936.38 397.91 938.9 402.66 943.5 405.26 938.9 407.86 936.38 412.62 933.87 407.86 929.26 405.26 933.87 402.66 936.38 397.91"/><polygon class="cls-4" points="663.46 321.99 665.98 326.74 670.58 329.34 665.98 331.94 663.46 336.69 660.94 331.94 656.34 329.34 660.94 326.74 663.46 321.99"/><polygon class="cls-4" points="675.52 303.18 678.8 309.37 684.79 312.76 678.8 316.15 675.52 322.34 672.24 316.15 666.24 312.76 672.24 309.37 675.52 303.18"/><path class="cls-5" d="M178.18,187.83a1.13,1.13,0,0,1-.33-2.21,39.91,39.91,0,0,0,10.87-4.92,16.49,16.49,0,0,1-5-3.71c-1.62-1.76-2.27-3.49-1.92-5.12a5.43,5.43,0,0,1,3.12-3.58,7.75,7.75,0,0,1,6.79,0,6.35,6.35,0,0,1,3.48,4.63,8.1,8.1,0,0,1-2.08,6.92,12.62,12.62,0,0,0,4.46.06,10.64,10.64,0,0,0,8.16-6.58,1.13,1.13,0,0,1,2.08.89,12.82,12.82,0,0,1-9.86,7.92,15.13,15.13,0,0,1-6.75-.42c-3.86,3.17-9.49,5.17-12.7,6.13A1.22,1.22,0,0,1,178.18,187.83Zm10.21-18.09a5.46,5.46,0,0,0-2.46.58,3.46,3.46,0,0,0-1.92,2c-.23,1.1.62,2.31,1.38,3.13a14.17,14.17,0,0,0,5.29,3.63c1.68-1.65,2.69-3.6,2.29-5.81a4.06,4.06,0,0,0-2.27-3A5.06,5.06,0,0,0,188.39,169.74Z"/><path class="cls-1" d="M842.22,205.09h116c-.78-9.72-7.14-26.29-8.32-28.2-.48-.78-.9-1.49-1.25-2-5.42-8.6-20.36-14.33-27.11-4-4.71,7.21-.79,21.25-10.6,24.83-11.26,4.12-14.09-10.68-15.09-18.27-1.24-9.33-1-18.88-3.78-28-1.16-2.72-3.1-5.82-6.21-6.21-3.11,0-5.82,2.33-7,5-3.45,8.36-4.39,17.39-5.65,26.27-1,7.2-2.42,23.09-12,24-5.09.47-9.69-8.61-14.4-4.58C843.86,196.48,844,201.81,842.22,205.09Z"/><path class="cls-5" d="M784.92,252.08c-4.75,0-9.36-2.1-11-6.65a11.63,11.63,0,0,1-.62-2.87,14.06,14.06,0,0,1-5.61-4.08,12.66,12.66,0,0,1-3.15-6.83.94.94,0,1,1,1.87-.17,10.94,10.94,0,0,0,2.71,5.77,13.25,13.25,0,0,0,4.15,3.26,16.05,16.05,0,0,1,.27-2.14A6.39,6.39,0,0,1,776,234a4.29,4.29,0,0,1,6.58,4.42,5.34,5.34,0,0,1-1.69,2.82,6.74,6.74,0,0,1-5.1,1.86l-.54-.05a9.73,9.73,0,0,0,.43,1.73c2,5.58,9.13,6.14,13.53,4.75a4,4,0,0,0,.45-.15,11.22,11.22,0,0,0,3.31-1.81.94.94,0,0,1,1.17,1.47,13.09,13.09,0,0,1-3.84,2.12l-.52.17A16.34,16.34,0,0,1,784.92,252.08Zm-9.79-11a5.2,5.2,0,0,0,.78.1,4.92,4.92,0,0,0,3.72-1.37,3.52,3.52,0,0,0,1.11-1.8,2.41,2.41,0,0,0-3.69-2.48,4.68,4.68,0,0,0-1.66,3.15A13.54,13.54,0,0,0,775.13,241.13Z"/><rect class="cls-3" x="358.17" y="146.39" width="264.93" height="264.93"/><path class="cls-5" d="M488.76,412.55h-.07L349,402.61a1,1,0,0,1-.95-1.09l18.8-264.26a1,1,0,0,1,1.09-.95L632.23,155.1a1,1,0,0,1,.95,1.1L616.67,388.44a1,1,0,0,1-2-.15l16.45-231.22L368.85,138.42,350.2,400.64l138.63,9.86a1,1,0,0,1-.07,2.05Z"/><rect class="cls-4" x="333.29" y="126.8" width="264.93" height="46.73"/><circle class="cls-2" cx="364.18" cy="150.16" r="7.79"/><circle class="cls-2" cx="389.62" cy="150.16" r="7.79"/><circle class="cls-2" cx="415.06" cy="150.16" r="7.79"/><path class="cls-2" d="M490.63,369.19a70.91,70.91,0,1,1,70.91-70.91A71,71,0,0,1,490.63,369.19Zm0-138.8a67.89,67.89,0,1,0,67.9,67.89A68,68,0,0,0,490.63,230.39Z"/><path class="cls-5" d="M576.68,300a1.69,1.69,0,0,1-1.7-1.69,84.35,84.35,0,0,0-168.7,0,1.7,1.7,0,0,1-3.39,0,87.75,87.75,0,0,1,175.49,0A1.69,1.69,0,0,1,576.68,300Z"/><path class="cls-2" d="M490.63,369.19a1.51,1.51,0,0,1-1.5-1.51V228.88a1.51,1.51,0,1,1,3,0v138.8A1.51,1.51,0,0,1,490.63,369.19Z"/><path class="cls-2" d="M560,299.79H421.23a1.51,1.51,0,0,1,0-3H560a1.51,1.51,0,1,1,0,3Z"/><path class="cls-2" d="M472.62,366.08a1.51,1.51,0,0,1-1.28-.71c-14-22.63-21.14-45.35-21.09-67.53s7.34-45,21.66-67.56a1.51,1.51,0,0,1,2.55,1.62c-28.07,44.12-28.26,87.26-.56,131.88a1.51,1.51,0,0,1-.48,2.07A1.46,1.46,0,0,1,472.62,366.08Z"/><path class="cls-2" d="M489.3,271.59h-1.25A222.18,222.18,0,0,1,430.76,264a1.51,1.51,0,0,1,.8-2.91c29.67,8.24,75.85,12.25,116.5-1.2a1.51,1.51,0,0,1,.94,2.86C531.42,268.52,510.8,271.59,489.3,271.59Z"/><path class="cls-2" d="M490.63,369.19a1.51,1.51,0,0,1-1.5-1.51V228.88a1.51,1.51,0,1,1,3,0v138.8A1.51,1.51,0,0,1,490.63,369.19Z"/><path class="cls-2" d="M508.47,366.35a1.54,1.54,0,0,1-.79-.23,1.51,1.51,0,0,1-.49-2.08c27.87-44.91,27.75-88.13-.37-132.14a1.51,1.51,0,1,1,2.54-1.62C523.74,252.79,531,275.56,531,298c0,22.17-7.16,44.93-21.27,67.65A1.5,1.5,0,0,1,508.47,366.35Z"/><path class="cls-2" d="M432.29,335.57a1.51,1.51,0,0,1-.41-3,215.39,215.39,0,0,1,58.95-8.34H491a223.25,223.25,0,0,1,59.5,8.34,1.51,1.51,0,1,1-.81,2.91c-39.31-10.93-78.68-10.93-117,0A1.52,1.52,0,0,1,432.29,335.57Z"/><path class="cls-5" d="M506.33,354.84c-1.88,0-3.77-.08-5.66-.23a4.71,4.71,0,1,1,.78-9.39,57.4,57.4,0,0,0,16.06-.9,4.71,4.71,0,0,1,1.85,9.24A66.63,66.63,0,0,1,506.33,354.84Z"/><path class="cls-5" d="M518.43,350.63a1.7,1.7,0,0,1-.33-3.36c19.44-3.9,33.89-17.15,42.58-27.59a111.49,111.49,0,0,0,14.46-22.11,1.69,1.69,0,0,1,3.08,1.41,112.45,112.45,0,0,1-14.87,22.8c-9.06,10.88-24.14,24.72-44.58,28.82A2,2,0,0,1,518.43,350.63Z"/><path class="cls-5" d="M407.63,317.05h0a12.3,12.3,0,0,1-12.3-12.29V282.37a12.3,12.3,0,0,1,12.3-12.29h0a12.3,12.3,0,0,1,12.29,12.29v22.39A12.29,12.29,0,0,1,407.63,317.05Z"/><path class="cls-5" d="M573.64,317.05h0a12.29,12.29,0,0,1-12.29-12.29V282.37a12.29,12.29,0,0,1,12.29-12.29h0a12.29,12.29,0,0,1,12.29,12.29v22.39A12.29,12.29,0,0,1,573.64,317.05Z"/><path class="cls-2" d="M635.27,487.75a.94.94,0,0,1-.45-1.77l12.38-6.8a.94.94,0,1,1,.91,1.65l-12.38,6.8A1,1,0,0,1,635.27,487.75Z"/><path class="cls-2" d="M654.15,517.5a.94.94,0,0,1-.93-.78l-8-45.07a.94.94,0,0,1,1.86-.33l8,45.07a1,1,0,0,1-.77,1.1Z"/><path class="cls-2" d="M629.18,517.41H629a.94.94,0,0,1-.73-1.11l9-44.9a.94.94,0,0,1,1.85.37l-9,44.9A.94.94,0,0,1,629.18,517.41Z"/><path class="cls-2" d="M688,517.5a.94.94,0,0,1-.93-.78L677,460a.94.94,0,1,1,1.86-.33L689,516.39a1,1,0,0,1-.77,1.1Z"/><path class="cls-2" d="M663.2,517.41H663a1,1,0,0,1-.74-1.11l9-44.9a.94.94,0,0,1,1.85.37l-9,44.9A.94.94,0,0,1,663.2,517.41Z"/><path class="cls-4" d="M675.61,473a26.07,26.07,0,0,1-13.93,4h-41.2a3.67,3.67,0,0,1-2.59-6.26,3.63,3.63,0,0,1,2.59-1.08H672A3.67,3.67,0,0,1,675.61,473Z"/><path class="cls-4" d="M684.61,463.42a26.13,26.13,0,0,1-22.93,13.65,25.65,25.65,0,0,1-18.17-7.34c-8.62-8.44-7.19-21.51.86-32.8C655.54,421.27,669,412,685.52,416.21,704.24,421,693.55,447,684.61,463.42Z"/><path class="cls-2" d="M669.12,487.75a.94.94,0,0,1-.46-1.77l12.39-6.8a.94.94,0,1,1,.9,1.65l-12.38,6.8A.92.92,0,0,1,669.12,487.75Z"/><path class="cls-3" d="M141,460.53c9.77,5.48,15.41,14,12.59,19s-13,4.65-22.78-.83c-6.76-3.79-10.2-11.43-11.67-15.78a3.17,3.17,0,0,1,2.3-4.12C125.94,457.8,134.25,456.74,141,460.53Z"/><path class="cls-3" d="M189.58,463.58c-5.52,5.59-12.32,7.83-15.19,5s-.73-9.66,4.78-15.26c3.82-3.87,9.63-4.77,12.84-5a2.22,2.22,0,0,1,2.36,2.32C194.22,453.89,193.4,459.71,189.58,463.58Z"/><path class="cls-5" d="M157.56,516.5A1.53,1.53,0,0,1,156,515c0-21.86-3.41-44.83-10.12-68.28a1.53,1.53,0,0,1,2.94-.84c6.79,23.72,10.23,47,10.23,69.12A1.53,1.53,0,0,1,157.56,516.5Z"/><path class="cls-5" d="M144.84,439.41a1.53,1.53,0,0,1-1.46-1.06c-8.19-25.68-17.51-42.51-17.6-42.68a1.53,1.53,0,0,1,2.67-1.49c.09.17,9.55,17.24,17.84,43.24a1.53,1.53,0,0,1-1,1.92A1.47,1.47,0,0,1,144.84,439.41Z"/><circle class="cls-3" cx="131.52" cy="407.45" r="18.95" transform="translate(-285.43 504.73) rotate(-85.24)"/><path class="cls-5" d="M170.67,516.5a1.52,1.52,0,0,1-1.52-1.5c0-.59-1-59.35,13.85-101.62a1.53,1.53,0,1,1,2.88,1c-14.67,41.76-13.69,100-13.68,100.55a1.53,1.53,0,0,1-1.5,1.56Z"/><polygon class="cls-4" points="200.65 417.9 187.24 404.5 168.94 409.41 164.03 427.71 177.43 441.12 195.74 436.21 200.65 417.9"/><path class="cls-2" d="M131.52,410.43c-10.1,0-21-2.33-21-7.46a1.53,1.53,0,1,1,3,0c0,1.32,6.1,4.41,17.91,4.41s17.9-3.09,17.9-4.41a1.53,1.53,0,1,1,3.06,0C152.48,408.1,141.61,410.43,131.52,410.43Z"/><path class="cls-2" d="M131.52,410.43c-10.1,0-21-2.33-21-7.46a1.53,1.53,0,1,1,3,0c0,1.32,6.1,4.41,17.91,4.41s17.9-3.09,17.9-4.41a1.53,1.53,0,1,1,3.06,0C152.48,408.1,141.61,410.43,131.52,410.43Z"/><path class="cls-2" d="M147.2,415.48a17.82,17.82,0,0,1-4-.52,56.64,56.64,0,0,1-24.58-14.18c-4-4.28-3.86-6.87-3-8.28a1.52,1.52,0,1,1,2.64,1.52c-.25.45.23,2.11,2.63,4.68a53.63,53.63,0,0,0,23,13.28c3.42.79,5.11.38,5.36-.06a1.53,1.53,0,0,1,2.65,1.52C151.29,414.46,150,415.48,147.2,415.48Z"/><path class="cls-2" d="M147.2,415.48a17.82,17.82,0,0,1-4-.52,56.64,56.64,0,0,1-24.58-14.18c-4-4.28-3.86-6.87-3-8.28a1.52,1.52,0,1,1,2.64,1.52c-.25.45.23,2.11,2.63,4.68a53.63,53.63,0,0,0,23,13.28c3.42.79,5.11.38,5.36-.06a1.53,1.53,0,0,1,2.65,1.52C151.29,414.46,150,415.48,147.2,415.48Z"/><path class="cls-2" d="M164,429.24a1.53,1.53,0,0,1-.4-3l36.62-9.81a1.53,1.53,0,1,1,.79,2.95l-36.61,9.81A1.41,1.41,0,0,1,164,429.24Z"/><path class="cls-2" d="M182.34,424.34a1.52,1.52,0,0,1-1.08-.45l-13.4-13.4a1.53,1.53,0,1,1,2.16-2.16l13.4,13.4a1.54,1.54,0,0,1,0,2.16A1.52,1.52,0,0,1,182.34,424.34Z"/><path class="cls-3" d="M834.77,492.94c6,6.09,13.42,8.53,16.55,5.44s.8-10.53-5.22-16.63c-4.15-4.21-10.48-5.2-14-5.4a2.41,2.41,0,0,0-2.56,2.53C829.71,482.39,830.61,488.72,834.77,492.94Z"/><path class="cls-5" d="M859,512.45a1.36,1.36,0,0,1-1.36-1.27c0-.64-4.21-64.64,12-110.68a1.37,1.37,0,0,1,2.58.91c-16,45.5-11.86,109-11.82,109.59a1.35,1.35,0,0,1-1.26,1.45Z"/><path class="cls-5" d="M853,512.45h0a1.36,1.36,0,0,1-1.35-1.38c.36-29.42-7.85-47.1-14.07-57.83a1.37,1.37,0,1,1,2.37-1.37c6.37,11,14.8,29.14,14.43,59.24A1.36,1.36,0,0,1,853,512.45Z"/><path class="cls-3" d="M870.75,419.48c-1.18,5-4.23,8.64-6.82,8s-3.74-5.18-2.56-10.22c.81-3.49,3.77-6,5.51-7.21a1.46,1.46,0,0,1,2.12.5C870,412.44,871.57,416,870.75,419.48Z"/><path class="cls-3" d="M889.11,405.07a3.51,3.51,0,0,0-2.41-5.36h0a6.71,6.71,0,0,0-7,3.16l-8.59,16a5.24,5.24,0,0,1-5.81,2.62h0a5.24,5.24,0,0,1-4-4.92l-.64-18.12a6.7,6.7,0,0,0-4.88-5.93h0a4.66,4.66,0,0,0-4.5,4.83s.8,23.92.86,24.4l0,.22a9.77,9.77,0,0,0,7.47,8.21l7,1.63a9.77,9.77,0,0,0,10.33-4.06l0,0Z"/><path class="cls-4" d="M831.33,437.42h0l5.55-10.82a4.15,4.15,0,0,0-3.1-6h0a4.16,4.16,0,0,0-4.69,4.88Z"/><path class="cls-4" d="M826.56,441h0l-11.95,2.23a4.16,4.16,0,0,1-4.88-4.69h0a4.16,4.16,0,0,1,6-3.1Z"/><path class="cls-4" d="M830,445.54h0l-5.56,10.82a4.17,4.17,0,0,0,3.11,6h0a4.16,4.16,0,0,0,4.68-4.89Z"/><path class="cls-4" d="M834.74,442h0l12-2.24a4.16,4.16,0,0,1,4.88,4.69h0a4.16,4.16,0,0,1-6,3.1Z"/><path class="cls-4" d="M828.26,438.13h0l-3.72-11.58a4.16,4.16,0,0,0-6.45-2.06h0a4.16,4.16,0,0,0,.14,6.77Z"/><path class="cls-4" d="M827.4,444h0l-6.87,10a4.15,4.15,0,0,1-6.76.13h0a4.15,4.15,0,0,1,2.06-6.44Z"/><path class="cls-4" d="M833,444.84h0l3.72,11.57a4.16,4.16,0,0,0,6.45,2.06h0a4.16,4.16,0,0,0-.14-6.77Z"/><path class="cls-4" d="M833.9,439h0l6.87-10a4.15,4.15,0,0,1,6.76-.13h0a4.15,4.15,0,0,1-2.06,6.44Z"/><rect class="cls-4" x="311.85" y="443.63" width="57.3" height="13.34"/><rect class="cls-4" x="292.5" y="463.35" width="57.3" height="13.34"/><rect class="cls-4" x="292.5" y="483.07" width="57.3" height="13.34"/><rect class="cls-4" x="292.5" y="502.79" width="57.3" height="13.34"/><rect class="cls-4" x="384.46" y="483.07" width="57.3" height="13.34"/><rect class="cls-4" x="396.14" y="502.79" width="57.3" height="13.34"/><path class="cls-5" d="M947.8,517.4H584.48a.95.95,0,0,1,0-1.89H947.8a.95.95,0,0,1,0,1.89Z"/><path class="cls-5" d="M557.34,517.44H245.49a.95.95,0,0,1,0-1.89H557.34a.95.95,0,1,1,0,1.89Z"/><path class="cls-5" d="M321.22,517.4H.94a.95.95,0,0,1,0-1.89H321.22a.95.95,0,1,1,0,1.89Z"/><path class="cls-1" d="M900.52,281.31c-3.71,12.45-12.38,49.86,8.46,74.61,32-4.52,50.56-38.16,56.11-49.91-.72-.25-1.42-.51-2.1-.77-16.68-6.38-23.25-16.52-25.81-23-6.25,3.12-17.91,6.29-34.58-.09C901.91,281.88,901.22,281.6,900.52,281.31Z"/><path class="cls-5" d="M908.28,356.07a.64.64,0,0,1-.4-.15,56.48,56.48,0,0,1-15.43-22.31A86.59,86.59,0,0,1,887,309a.62.62,0,0,1,.56-.67.62.62,0,0,1,.67.57c1.7,20.15,8.5,35.58,20.24,45.88,30.13-9.47,43.12-45.1,46.65-56.92l-1.53-.3c-16.78-3.54-25.1-11.84-29.16-18.4-6.37,4.35-17.34,8.58-34.11,5-.49-.1-1-.21-1.53-.34-.39,3.1-.67,6.32-.82,9.59a.62.62,0,1,1-1.23-.06c.16-3.54.47-7,.92-10.37a.62.62,0,0,1,.76-.51c.74.18,1.47.34,2.16.49,16.82,3.55,27.6-.88,33.68-5.23a.59.59,0,0,1,.48-.1.6.6,0,0,1,.4.29c3.81,6.43,11.87,14.84,28.7,18.39.69.14,1.42.29,2.17.42a.62.62,0,0,1,.49.78,120.3,120.3,0,0,1-13.63,30.33c-9.38,14.58-20.94,24.06-34.37,28.18Z"/><path class="cls-1" d="M522.65,35.83c-1.63.77-2.76,2.18-4.36,3-8.33,4.21-7.85-11-7.81-15.4.07-9.26-.33-21.15-11.84-23.22a14.3,14.3,0,0,0-16.17,10.85c-2.24,9.07,1.36,34.76-15.54,31.25-4.5-.93-7.85-4.63-10.59-8.32-3.47-4.67-6.86-9.88-13-11-9.31-1.68-18.71,3.7-25.09,10.06a43.84,43.84,0,0,0-9.7,15.27l0,.11,18,0,23.85,0c6.78,0,84.05-.11,84.05-.06C533.9,42.6,530.73,32,522.65,35.83Z"/><polygon class="cls-4" points="313.05 373.04 317.81 370.52 320.4 365.92 323 370.52 327.76 373.04 323 375.55 320.4 380.15 317.81 375.55 313.05 373.04"/><polygon class="cls-4" points="294.24 360.98 300.44 357.69 303.82 351.7 307.21 357.69 313.4 360.98 307.21 364.25 303.82 370.25 300.44 364.25 294.24 360.98"/><path class="cls-5" d="M801.29,402.35h-.11a15,15,0,0,1-9.08-24.15l-13-36.09a15,15,0,0,1-8.46-24.4.64.64,0,0,1,.61-.22.65.65,0,0,1,.5.42l2.67,7.42a6.47,6.47,0,0,0,12.18-4.39l-2.68-7.43a.64.64,0,0,1,.72-.86,15,15,0,0,1,9.07,24.16l13,36.1a15,15,0,0,1,8.48,24.4.64.64,0,0,1-.61.22.65.65,0,0,1-.5-.42l-2.67-7.43a6.48,6.48,0,0,0-8.28-3.89h0a6.47,6.47,0,0,0-3.9,8.28l2.67,7.42a.65.65,0,0,1-.11.64A.66.66,0,0,1,801.29,402.35Zm-30.4-82.91a13.69,13.69,0,0,0,8.78,21.45.65.65,0,0,1,.5.42l13.27,36.79a.65.65,0,0,1-.11.64,13.7,13.7,0,0,0,6.95,22.08L798,394.5a7.79,7.79,0,0,1,4.68-9.95h0a7.78,7.78,0,0,1,9.94,4.68l2.28,6.32a13.67,13.67,0,0,0-8.8-21.44.65.65,0,0,1-.5-.42L792.33,336.9a.67.67,0,0,1,.12-.64,13.67,13.67,0,0,0-6.94-22.09l2.28,6.32a7.77,7.77,0,1,1-14.62,5.27Z"/><rect class="cls-5" x="33.81" y="437.52" width="11.98" height="5.33" transform="translate(-372.22 280.22) rotate(-63.62)"/><rect class="cls-5" x="13.53" y="452.61" width="35.46" height="9.59" transform="translate(-392.39 282.14) rotate(-63.62)"/><path class="cls-4" d="M31.82,422.84a23.55,23.55,0,0,1,43.7-17.56l.09.24a23.54,23.54,0,0,1-43.69,17.56Zm40.82-16.15-.08-.2A20.35,20.35,0,0,0,34.8,421.66a1.8,1.8,0,0,0,.08.21,20.35,20.35,0,0,0,37.76-15.18Z"/></g></g></svg>