<svg xmlns="http://www.w3.org/2000/svg" viewBox="0 0 827.35 553.81"><defs><style>.cls-1{fill:#cf8282;}.cls-2{fill:#dce5f7;}.cls-3{fill:#eab5b5;}.cls-4{fill:#fff;}.cls-5{fill:#333;}.cls-6{fill:#8e5e5e;}</style></defs><title>Asset 8</title><g id="Layer_2" data-name="Layer 2"><g id="Layer_2-2" data-name="Layer 2"><polygon class="cls-1" points="83.97 401.59 86.86 407.06 92.15 410.04 86.86 413.03 83.97 418.49 81.08 413.03 75.79 410.04 81.08 407.06 83.97 401.59"/><path class="cls-2" d="M175,96.11c-2.33,1.1-3.94,3.13-6.24,4.29-11.92,6-11.24-15.75-11.19-22.05.11-13.26-.46-30.29-17-33.24-10.51-1.89-20.58,5.15-23.15,15.53-3.21,13,2,49.78-22.25,44.76C88.75,104.06,84,98.75,80,93.47c-5-6.69-9.83-14.15-18.63-15.74C48.07,75.33,34.61,83,25.47,92.14A62.82,62.82,0,0,0,11.58,114s-.05.15-.06.15l25.76,0,34.14,0c9.71,0,120.36-.16,120.36-.09C191.1,105.8,186.56,90.66,175,96.11Z"/><rect class="cls-3" x="154.55" y="329.43" width="18.22" height="73.1" transform="translate(404.78 45.68) rotate(61.07)"/><path class="cls-2" d="M620.88,158.41H751.16c-.88-10.91-8-29.52-9.34-31.67-.54-.86-1-1.67-1.41-2.29-6.08-9.65-22.85-16.09-30.43-4.51-5.29,8.09-.89,23.85-11.91,27.88-12.64,4.62-15.82-12-16.94-20.52-1.38-10.47-1.15-21.2-4.24-31.39-1.31-3-3.49-6.54-7-7-3.49,0-6.54,2.61-7.85,5.67-3.87,9.39-4.93,19.52-6.35,29.48C654.57,132.18,653,150,642.25,151c-5.71.53-10.87-9.66-16.17-5.14C622.73,148.74,622.91,154.73,620.88,158.41Z"/><path class="cls-2" d="M561.26,62.69H371.34a26.25,26.25,0,0,1,.21-4.53h0a41.11,41.11,0,0,1,4.93-14.51c4-7.07,10-12.3,16.79-10.69a15,15,0,0,1,6.38,3.56c3.25,2.88,5.87,6.42,9.1,9.34s7.34,5.26,11.68,4.94c5.43-.39,9.33-5.25,10.14-10.37,2-12.31,1.84-36.62,17.23-40,.29-.07.58-.12.86-.17,13.15-2.25,22.22,10.6,25.72,22.11a39.56,39.56,0,0,1,1,3.85,49.4,49.4,0,0,1,1.11,9.61c0,.21,0,.42.07.63.1.89.22,1.77.37,2.64a21.4,21.4,0,0,0,1.82,6,2.74,2.74,0,0,0,1.59,1.59c2.1.51,3.86-1.92,5.07-3.86.34-.55.63-1,.88-1.44,3.81-6.06,14.34-10.1,19.09-2.84,3.32,5.08.56,15,7.47,17.5,7.93,2.9,9.93-7.53,10.63-12.88.87-6.57.73-13.3,2.66-19.69.82-1.91,2.19-4.1,4.38-4.38a5.67,5.67,0,0,1,4.92,3.56c2.43,5.89,3.1,12.25,4,18.5.73,5.08,1.71,16.27,8.46,16.9,3.58.33,6.82-6.06,10.14-3.23C560.11,56.63,560,60.38,561.26,62.69Z"/><rect class="cls-4" x="270.67" y="95.95" width="280.97" height="297.18" transform="translate(22.05 -33.75) rotate(4.83)"/><polygon class="cls-3" points="185.62 237.32 188.44 242.66 193.61 245.58 188.44 248.5 185.62 253.84 182.79 248.5 177.62 245.58 182.79 242.66 185.62 237.32"/><polygon class="cls-1" points="705.52 245.58 708.34 250.92 713.51 253.84 708.34 256.76 705.52 262.09 702.69 256.76 697.52 253.84 702.69 250.92 705.52 245.58"/><polygon class="cls-1" points="74.05 309.21 76.87 314.54 82.04 317.46 76.87 320.38 74.05 325.72 71.22 320.38 66.05 317.46 71.22 314.54 74.05 309.21"/><path class="cls-3" d="M185.76,162.52h0a10.94,10.94,0,0,1-10.93,10.93h0a10.94,10.94,0,0,1-10.94-10.93h0a10.94,10.94,0,0,1,10.94-10.94h0A10.94,10.94,0,0,1,185.76,162.52Z"/><path class="cls-1" d="M211.21,190.27h0a5.81,5.81,0,0,1-5.81,5.8h0a5.81,5.81,0,0,1-5.81-5.8h0a5.81,5.81,0,0,1,5.81-5.81h0A5.81,5.81,0,0,1,211.21,190.27Z"/><path class="cls-1" d="M195.56,183.46H175.67a1.06,1.06,0,0,1-1.06-1.06V162.52a1.06,1.06,0,0,1,1.06-1.06h19.89a1.05,1.05,0,0,1,1.06,1.06V182.4A1.05,1.05,0,0,1,195.56,183.46Zm-18.83-2.11H194.5V163.57H176.73Z"/><path class="cls-5" d="M370.25,494.74a1.27,1.27,0,0,1-.36-2.49,45.06,45.06,0,0,0,12.2-5.52,18.43,18.43,0,0,1-5.61-4.16c-1.82-2-2.55-3.92-2.16-5.76a6.07,6.07,0,0,1,3.5-4,8.67,8.67,0,0,1,7.63-.06,7.11,7.11,0,0,1,3.9,5.2,9.08,9.08,0,0,1-2.33,7.77,14.29,14.29,0,0,0,5,.06,11.94,11.94,0,0,0,9.16-7.38,1.27,1.27,0,1,1,2.33,1,14.4,14.4,0,0,1-11.06,8.88,17,17,0,0,1-7.59-.47c-4.32,3.57-10.65,5.81-14.26,6.88A1.13,1.13,0,0,1,370.25,494.74Zm11.47-20.32a6.29,6.29,0,0,0-2.77.65,3.93,3.93,0,0,0-2.15,2.26c-.26,1.23.7,2.59,1.55,3.52a16,16,0,0,0,5.94,4.07c1.89-1.86,3-4,2.57-6.52a4.59,4.59,0,0,0-2.55-3.39A5.86,5.86,0,0,0,381.72,474.42Z"/><path class="cls-1" d="M569.25,474.14c8.12,8.24,18.15,11.53,22.38,7.36s1.08-14.25-7-22.48c-5.63-5.71-14.18-7-18.92-7.32a3.28,3.28,0,0,0-3.47,3.43C562.4,459.87,563.62,468.44,569.25,474.14Z"/><path class="cls-1" d="M602.06,499.74a1,1,0,0,1-1-1c0-.22-1.47-22-.22-51.11,1.16-26.9,4.94-65.79,16.35-98.26a1.06,1.06,0,1,1,2,.7c-11.33,32.23-15.08,70.89-16.23,97.65a506.13,506.13,0,0,0,.21,50.88,1.05,1.05,0,0,1-1,1.12Z"/><path class="cls-1" d="M593.87,499.74h0a1,1,0,0,1-1-1.06c.48-40-10.69-64-19.14-78.63a1.05,1.05,0,0,1,1.83-1.05c8.57,14.81,19.91,39.19,19.42,79.7A1.06,1.06,0,0,1,593.87,499.74Z"/><path class="cls-1" d="M617.91,374.79c-1.59,6.82-5.72,11.68-9.23,10.87s-5-7-3.46-13.83c1.1-4.72,5.1-8.11,7.45-9.75a2,2,0,0,1,2.88.67C616.93,365.27,619,370.07,617.91,374.79Z"/><path class="cls-1" d="M642.74,355.3a4.75,4.75,0,0,0-3.26-7.24h0a9.05,9.05,0,0,0-9.48,4.27l-11.62,21.58a7.07,7.07,0,0,1-7.85,3.54h0a7.07,7.07,0,0,1-5.47-6.65l-.87-24.49a9,9,0,0,0-6.6-8h0a6.32,6.32,0,0,0-6.09,6.53s1.1,32.35,1.17,33l0,.3a13.21,13.21,0,0,0,10.09,11.1l9.45,2.21a13.22,13.22,0,0,0,14-5.5l0,0Z"/><path class="cls-3" d="M564.6,399.05h0l7.51-14.63a5.62,5.62,0,0,0-4.2-8.13h0a5.62,5.62,0,0,0-6.34,6.6Z"/><path class="cls-3" d="M558.15,403.86h0l-16.17,3a5.62,5.62,0,0,1-6.6-6.34h0a5.62,5.62,0,0,1,8.14-4.19Z"/><path class="cls-3" d="M562.75,410h0l-7.51,14.63a5.63,5.63,0,0,0,4.2,8.14h0a5.63,5.63,0,0,0,6.34-6.61Z"/><path class="cls-3" d="M569.2,405.23h0l16.17-3a5.63,5.63,0,0,1,6.6,6.34h0a5.63,5.63,0,0,1-8.14,4.19Z"/><path class="cls-3" d="M560.44,400h0l-5-15.65a5.62,5.62,0,0,0-8.72-2.79h0a5.63,5.63,0,0,0,.18,9.15Z"/><path class="cls-3" d="M559.28,408h0L550,421.54a5.62,5.62,0,0,1-9.15.19h0a5.63,5.63,0,0,1,2.79-8.72Z"/><path class="cls-3" d="M566.91,409.08h0l5,15.66a5.63,5.63,0,0,0,8.72,2.79h0a5.64,5.64,0,0,0-.18-9.16Z"/><path class="cls-3" d="M568.07,401.12h0l9.29-13.57a5.62,5.62,0,0,1,9.15-.18h0a5.63,5.63,0,0,1-2.79,8.72Z"/><path class="cls-2" d="M637.37,552.76H567.23a38.08,38.08,0,0,1,12.7-16.27,26.16,26.16,0,0,1,12.61-37.81V488h19.52v10.67a26.14,26.14,0,0,1,12.6,37.81A38.1,38.1,0,0,1,637.37,552.76Z"/><path class="cls-5" d="M623.47,549.08a1,1,0,0,1-.88-.51,36.92,36.92,0,0,0-10.12-11.25,1,1,0,0,1-.27-1.36,25.12,25.12,0,0,0-12.11-36.33,1,1,0,1,1,.76-1.9,27.16,27.16,0,0,1,13.57,38.49,38.77,38.77,0,0,1,9.94,11.32,1,1,0,0,1-.37,1.4A1,1,0,0,1,623.47,549.08Z"/><path class="cls-5" d="M565.31,530.19a1,1,0,0,1-1-.78,27.53,27.53,0,0,1-.77-6.47,27.12,27.12,0,0,1,14.53-24.05,1,1,0,1,1,.95,1.81,25.14,25.14,0,0,0-12.71,28.22,1,1,0,0,1-.76,1.24Z"/><path class="cls-5" d="M578.55,500.82a1,1,0,0,1-.48-1.93c.6-.32,1.23-.62,1.86-.89V488a1,1,0,0,1,1-1h19.51a1,1,0,0,1,1,1v10.67a1,1,0,0,1-2,0V489H582v9.65a1,1,0,0,1-.64.95A24.35,24.35,0,0,0,579,500.7,1,1,0,0,1,578.55,500.82Z"/><path class="cls-5" d="M601,218.11c-5.33,0-10.51-2.36-12.35-7.48a12.82,12.82,0,0,1-.7-3.21,15.94,15.94,0,0,1-6.3-4.58,14.36,14.36,0,0,1-3.53-7.67,1.05,1.05,0,1,1,2.1-.19,12.4,12.4,0,0,0,3,6.48,14.56,14.56,0,0,0,4.66,3.65,16.74,16.74,0,0,1,.3-2.4c.47-2.37,1.38-4,2.77-4.9a4.82,4.82,0,0,1,7.39,5,6,6,0,0,1-1.89,3.15,7.57,7.57,0,0,1-5.73,2.1l-.61-.06a10,10,0,0,0,.49,1.94c2.26,6.27,10.24,6.9,15.19,5.34l.5-.17a12.73,12.73,0,0,0,3.71-2,1.06,1.06,0,1,1,1.32,1.65,14.76,14.76,0,0,1-4.32,2.37l-.58.19A18,18,0,0,1,601,218.11Zm-11-12.3a6.64,6.64,0,0,0,.88.12,5.5,5.5,0,0,0,4.17-1.54,4,4,0,0,0,1.26-2,2.83,2.83,0,0,0-1.14-2.78,2.8,2.8,0,0,0-3,0c-.9.59-1.51,1.75-1.86,3.54A15.94,15.94,0,0,0,590,205.81Z"/><path class="cls-5" d="M826.29,553.81H569a1.06,1.06,0,1,1,0-2.11H826.29a1.06,1.06,0,1,1,0,2.11Z"/><path class="cls-5" d="M530.8,352.6a1.2,1.2,0,0,1-1.2-1.19V117.61H251v30.66a1.19,1.19,0,1,1-2.38,0V116.42a1.19,1.19,0,0,1,1.19-1.19h281a1.19,1.19,0,0,1,1.19,1.19v235A1.2,1.2,0,0,1,530.8,352.6Z"/><path class="cls-5" d="M489.9,414.79H249.83a1.19,1.19,0,0,1-1.19-1.19V163.92a1.19,1.19,0,0,1,2.38,0V412.41H489.9a1.19,1.19,0,0,1,0,2.38Z"/><rect class="cls-5" x="309.24" y="406.35" width="162.15" height="14.5" rx="7.25"/><path class="cls-5" d="M464.13,123.67H316.49a7.24,7.24,0,0,1-7.25-7.25h0a7.25,7.25,0,0,1,7.25-7.25H464.13a7.26,7.26,0,0,1,7.26,7.25h0A7.25,7.25,0,0,1,464.13,123.67Z"/><path class="cls-5" d="M324.07,552.92a1.06,1.06,0,0,1-1.06-1.06V414.13a1.06,1.06,0,0,1,2.12,0V551.86A1.06,1.06,0,0,1,324.07,552.92Z"/><path class="cls-5" d="M456.55,552.92a1.06,1.06,0,0,1-1.06-1.06V414.13a1.06,1.06,0,0,1,2.12,0V551.86A1.05,1.05,0,0,1,456.55,552.92Z"/><path class="cls-5" d="M324.07,530.41h0a6.43,6.43,0,0,1,6.43,6.43v15.91a0,0,0,0,1,0,0H317.64a0,0,0,0,1,0,0V536.84A6.43,6.43,0,0,1,324.07,530.41Z"/><path class="cls-5" d="M463,552.76H450.12V536.84a6.43,6.43,0,0,1,6.43-6.43h0a6.43,6.43,0,0,1,6.44,6.43Z"/><path class="cls-1" d="M476.82,284c-5.78,2.43-12.05,3.52-17.84,5.91s-11.38,6.51-13.2,12.51c-3.7,12.17,9.42,23.45,9.59,36.19.21,15.76-14.26,21.56-28.11,20.79-11.87-.66-23.4-5.91-32.32-13.77-.36-6.76-1.75-13.59-2.57-19-2.13-13.85-4.76-28.43,0-42.05,4-11.54,24.59-1.27,32.47-.77a24.9,24.9,0,0,0,13.61-2.62c8.32-4.62,12.17-15.09,11.13-24.22-1.07-9.51-6.48-18-13.06-25-10.8-11.38-36.78-27.14-55.21-21.93,2.28-8-.23-18.18,2.27-26a16.15,16.15,0,0,1,6.24-8.85c6.14-4.21,13.92-5.52,21.33-4.94,7.6.6,15.19,3.19,20.87,8.27,13.72,12.29,2.66,21.7,5.9,35.6,3.8,16.29,27.4,7.34,38.19,5.65,6-1,12.59-.82,17.73,2.48,5.62,3.62,8.48,10.49,8.92,17.16C503.93,258,494.33,276.65,476.82,284Z"/><path class="cls-6" d="M438.42,281.23a24.9,24.9,0,0,1-13.61,2.62c-7.88-.5-28.47-10.77-32.47.77-4.73,13.62-2.1,28.2,0,42.05.82,5.37,2.21,12.2,2.57,19-16.34-14.44-23.84-37.71-8.3-57.7,4.44-5.71,9.16-11.46,11.34-18.35,7.63-24.06-14.47-21.84-30.31-21.76-2.26,0-4.38,0-6.28-.17-8.17-.67-16.63-8-14.56-16.84,2.43-10.36,12.37-9.32,21.07-10.52,4.93-.68,9.47-2.09,12-6.73a16.18,16.18,0,0,0,1.39-3.45c18.43-5.21,44.41,10.55,55.21,21.93,6.58,6.93,12,15.46,13.06,25C450.59,266.14,446.74,276.61,438.42,281.23Z"/><path class="cls-2" d="M386.64,287.93c-15.54,20-8,43.26,8.3,57.7.5,9.23-.92,18.32-8.33,23.3-10.37,7-26.48,2.73-37.27-.86-17-5.65-42.49-15.59-46-35.62a31.32,31.32,0,0,1,0-10.58c.81-4.87,3.35-12-1.49-15.65-2.22-1.67-5.09-2.09-7.8-2.66s-5.59-1.47-7.24-3.7c-6-8.14,11.28-9.31,14.15-13.07,4.74-6.23-2.33-15-5.24-20.42-4.08-7.54-4.53-15.49,1.38-22.35,6.79-7.86,17.27-7.69,25.73-2.48,7.54,4.63,14.75,12.88,16.84,21.65,1.78,7.46,1.14,17.13,5.81,23.53,4.34,5.94,12.06,6.39,17.63,2a25.45,25.45,0,0,0,9.05-14.91c1.51-8.53-1.8-17.32-4.51-26,15.84-.08,37.94-2.3,30.31,21.76C395.8,276.47,391.08,282.22,386.64,287.93Z"/><path class="cls-4" d="M438.42,281.23a24.9,24.9,0,0,1-13.61,2.62c-7.88-.5-28.47-10.77-32.47.77-4.73,13.62-2.1,28.2,0,42.05.82,5.37,2.21,12.2,2.57,19-16.34-14.44-23.84-37.71-8.3-57.7,4.44-5.71,9.16-11.46,11.34-18.35,7.63-24.06-14.47-21.84-30.31-21.76-3-9.46-5.21-18.79.23-27.53,4.93-.68,9.47-2.09,12-6.73a16.18,16.18,0,0,0,1.39-3.45c18.43-5.21,44.41,10.55,55.21,21.93,6.58,6.93,12,15.46,13.06,25C450.59,266.14,446.74,276.61,438.42,281.23Z"/><path class="cls-5" d="M417,257.89a1.18,1.18,0,0,1-.84-.34L329.8,171.2a1.19,1.19,0,0,1,0-1.69l14.93-14.93a1.23,1.23,0,0,1,1.69,0l86.34,86.35a1.15,1.15,0,0,1,.35.84,1.16,1.16,0,0,1-.35.84l-14.93,14.94A1.2,1.2,0,0,1,417,257.89Zm-84.66-87.53L417,255l13.25-13.25-84.66-84.66Z"/><path class="cls-5" d="M403.1,382.88a1.17,1.17,0,0,1-.8-.31,1.2,1.2,0,0,1-.08-1.69l77.91-85.23a1.19,1.19,0,0,1,1.68-.08,1.2,1.2,0,0,1,.08,1.69L404,382.49A1.19,1.19,0,0,1,403.1,382.88Z"/><path class="cls-1" d="M228.49,505.29c8.49,4.76,13.38,12.15,10.94,16.51s-11.3,4-19.79-.72c-5.87-3.29-8.85-9.93-10.14-13.71a2.76,2.76,0,0,1,2-3.57C215.4,502.92,222.62,502,228.49,505.29Z"/><path class="cls-1" d="M262.79,507.94c-4.79,4.85-10.7,6.8-13.2,4.33s-.63-8.39,4.16-13.25c3.31-3.36,8.36-4.14,11.15-4.31a1.93,1.93,0,0,1,2.05,2C266.82,499.52,266.1,504.58,262.79,507.94Z"/><path class="cls-5" d="M242.86,553.44a.87.87,0,0,1-.87-.87,216.59,216.59,0,0,0-8.81-59.42.87.87,0,0,1,.6-1.08.86.86,0,0,1,1.08.6,218.17,218.17,0,0,1,8.88,59.9A.87.87,0,0,1,242.86,553.44Z"/><path class="cls-5" d="M231.82,486.5a.89.89,0,0,1-.84-.61,224.76,224.76,0,0,0-15.32-37.15.88.88,0,1,1,1.53-.85,226.71,226.71,0,0,1,15.46,37.47.88.88,0,0,1-.57,1.1A1.27,1.27,0,0,1,231.82,486.5Z"/><circle class="cls-1" cx="220.25" cy="459.19" r="16.46" transform="translate(-277.26 568.05) rotate(-76.72)"/><path class="cls-1" d="M246.37,553.44a.88.88,0,0,1-.88-.86c0-.51-.86-51.46,12-88.09a.87.87,0,1,1,1.65.58c-12.77,36.34-11.92,87-11.91,87.48a.87.87,0,0,1-.85.89Z"/><polygon class="cls-3" points="272.4 468.27 260.76 456.63 244.86 460.89 240.6 476.79 252.24 488.43 268.14 484.17 272.4 468.27"/><path class="cls-4" d="M220.25,461.33c-8.82,0-17.75-2.07-17.75-6a.88.88,0,1,1,1.75,0c0,1.79,6.09,4.28,16,4.28s16-2.49,16-4.28a.88.88,0,1,1,1.75,0C238,459.26,229.07,461.33,220.25,461.33Z"/><path class="cls-4" d="M220.25,461.33c-8.82,0-17.75-2.07-17.75-6a.88.88,0,1,1,1.75,0c0,1.79,6.09,4.28,16,4.28s16-2.49,16-4.28a.88.88,0,1,1,1.75,0C238,459.26,229.07,461.33,220.25,461.33Z"/><path class="cls-4" d="M233.88,465.72a15.31,15.31,0,0,1-3.4-.45,48.74,48.74,0,0,1-21.11-12.18c-2.6-2.78-3.49-5.08-2.58-6.66a.87.87,0,0,1,1.51.87c-.34.6.07,2.16,2.35,4.6a47.06,47.06,0,0,0,20.23,11.67c3.25.75,4.8.32,5.14-.28a.89.89,0,0,1,1.2-.32.88.88,0,0,1,.32,1.2C237,465.2,235.7,465.72,233.88,465.72Z"/><path class="cls-4" d="M233.88,465.72a15.31,15.31,0,0,1-3.4-.45,48.74,48.74,0,0,1-21.11-12.18c-2.6-2.78-3.49-5.08-2.58-6.66a.87.87,0,0,1,1.51.87c-.34.6.07,2.16,2.35,4.6a47.06,47.06,0,0,0,20.23,11.67c3.25.75,4.8.32,5.14-.28a.89.89,0,0,1,1.2-.32.88.88,0,0,1,.32,1.2C237,465.2,235.7,465.72,233.88,465.72Z"/><path class="cls-4" d="M240.6,477.67a.88.88,0,0,1-.23-1.73l31.8-8.52a.88.88,0,0,1,.45,1.7l-31.8,8.52A.83.83,0,0,1,240.6,477.67Z"/><path class="cls-4" d="M256.5,473.41a.87.87,0,0,1-.62-.26l-11.64-11.64a.88.88,0,0,1,1.24-1.24l11.64,11.64a.88.88,0,0,1-.62,1.5Z"/><path class="cls-5" d="M584.05,553.81H507.71a1.06,1.06,0,0,1,0-2.11h76.34a1.06,1.06,0,1,1,0,2.11Z"/><path class="cls-5" d="M485.24,553.81H37a1.06,1.06,0,1,1,0-2.11H485.24a1.06,1.06,0,1,1,0,2.11Z"/><path class="cls-5" d="M22,553.81H1.06a1.06,1.06,0,1,1,0-2.11H22a1.06,1.06,0,1,1,0,2.11Z"/><polygon class="cls-3" points="185.62 379.05 163.29 338.66 188.66 315.91 196.98 308.45 228.21 367.08 204.55 373.73 185.62 379.05"/><path class="cls-1" d="M204.55,373.73c-3.57-7.52-4.34-18.18-4.47-23.77-.24-10.73.09-22.83-7.89-31.13a20.7,20.7,0,0,0-3.53-2.92l8.32-7.45,31.23,58.62Z"/><path class="cls-5" d="M659.84,247.28a5.13,5.13,0,1,1-7.23-.63A5.13,5.13,0,0,1,659.84,247.28Z"/><path class="cls-5" d="M651.66,248.44c-5.11-1.48-5.52-7-2.29-9.38,2.24-1.66,5.43-.63,7.1,1.35a4.22,4.22,0,0,1,1.07,2.48,5.15,5.15,0,0,1-.92,3.25c-.09.13-.19.26-.29.38A6,6,0,0,1,651.66,248.44Z"/><path class="cls-5" d="M683.22,249.41a5.13,5.13,0,1,1-5.35-4.91A5.13,5.13,0,0,1,683.22,249.41Z"/><circle class="cls-5" cx="678.43" cy="240.6" r="5.13" transform="translate(42.42 577.72) rotate(-47.45)"/><polygon class="cls-1" points="703.01 348.56 684.53 353.57 663.46 266.82 677.26 262.6 703.01 348.56"/><polygon class="cls-1" points="677.46 263.24 663.5 267.02 647.32 226.74 673.15 219.74 677.46 263.24"/><circle class="cls-1" cx="690.77" cy="339.99" r="33.27"/><circle class="cls-1" cx="703.37" cy="386.47" r="43.11" transform="translate(-53.34 119.12) rotate(-9.33)"/><circle class="cls-4" cx="690.4" cy="338.64" r="14.51" transform="translate(-68.56 214.94) rotate(-16.87)"/><path class="cls-5" d="M696.59,398.75a.71.71,0,0,1-.69-.53l-33.09-131a.71.71,0,0,1,1.37-.34l33.09,131a.7.7,0,0,1-.51.86A.52.52,0,0,1,696.59,398.75Z"/><path class="cls-5" d="M705.83,396.25a.71.71,0,0,1-.68-.52L676.93,291.65a.71.71,0,0,1,.5-.87.72.72,0,0,1,.87.5l28.21,104.08a.7.7,0,0,1-.5.86Z"/><path class="cls-5" d="M715.07,393.74a.7.7,0,0,1-.68-.51l-30.22-105.1a.71.71,0,0,1,1.36-.39l30.22,105.1a.7.7,0,0,1-.48.87Z"/><path class="cls-5" d="M688.94,400.82a.7.7,0,0,1-.18-1.38L723.5,390a.7.7,0,1,1,.37,1.36l-34.74,9.42A.62.62,0,0,1,688.94,400.82Z"/></g></g></svg>