<?xml version="1.0" encoding="utf-8"?>
<!-- Generator: Adobe Illustrator 23.0.1, SVG Export Plug-In . SVG Version: 6.00 Build 0)  -->
<svg version="1.1" id="Layer_1" xmlns="http://www.w3.org/2000/svg" xmlns:xlink="http://www.w3.org/1999/xlink" x="0px" y="0px"
	 viewBox="0 0 506.7 566.6" style="enable-background:new 0 0 506.7 566.6;" xml:space="preserve">
<style type="text/css">
	.st0{opacity:0.79;}
	.st1{fill:url(#SVGID_1_);}
	.st2{fill:url(#SVGID_2_);}
	.st3{fill:#383333;}
	.st4{fill:#240448;}
	.st5{fill:#FFFFFF;}
	.st6{fill:url(#SVGID_3_);}
	.st7{fill:url(#SVGID_4_);}
	.st8{fill:url(#SVGID_5_);}
	.st9{fill:url(#SVGID_6_);}
	.st10{opacity:0.46;}
	.st11{fill:url(#SVGID_7_);}
	.st12{opacity:0.86;}
</style>
<g>
	<g id="Layer_2-2">
		<g class="st0">
			
				<linearGradient id="SVGID_1_" gradientUnits="userSpaceOnUse" x1="212.4534" y1="638.8009" x2="290.9734" y2="346.9509" gradientTransform="matrix(1 0 0 -1 0 568)">
				<stop  offset="0" style="stop-color:#EFC4BF"/>
				<stop  offset="1" style="stop-color:#BD6A60"/>
			</linearGradient>
			<path class="st1" d="M195.8,84.5l39.2-0.3v-1.4c-0.1-10.3,5.8-19.8,15.1-24.3c1.7-0.9,3.5-1.5,5.4-2c2-0.5,4.1-0.7,6.1-0.8
				c0.9,0,1.7,0,2.5,0.1c13.8,1.2,24.4,12.7,24.5,26.5v1.4l39.3-0.3l0.5,59.5l0,0L196.3,144L195.8,84.5z"/>
			
				<linearGradient id="SVGID_2_" gradientUnits="userSpaceOnUse" x1="491.2953" y1="-110.9664" x2="45.3653" y2="548.3036" gradientTransform="matrix(1 0 0 -1 0 568)">
				<stop  offset="0" style="stop-color:#EFC4BF"/>
				<stop  offset="1" style="stop-color:#BD6A60"/>
			</linearGradient>
			<path class="st2" d="M55.9,144.8l40,357.4l6.7,59.7l0.3,2.9h159.8l182.5-20.4c8.7-1,14.9-8.8,13.9-17.5L412,105
				c-0.9-8.7-8.8-14.9-17.4-14c0,0,0,0,0,0L69.8,127.4C61.2,128.3,54.9,136.1,55.9,144.8z"/>
			<path class="st3" d="M356.9,566h85.3c9.4,0,17-7.6,17-17v-24.8c-0.1-0.7-0.7-1.2-1.4-1.1c-0.6,0.1-1.1,0.5-1.1,1.1V549
				c0,8-6.5,14.5-14.5,14.5h-85.2c-0.7-0.1-1.3,0.4-1.4,1.1c-0.1,0.7,0.4,1.3,1.1,1.4C356.8,566,356.8,566,356.9,566L356.9,566z"/>
			<path class="st3" d="M111.7,566h202.6c0.7,0.1,1.3-0.4,1.4-1.1c0.1-0.7-0.4-1.3-1.1-1.4c-0.1,0-0.1,0-0.2,0H111.7
				c-8,0-14.5-6.5-14.6-14.5v-91.7c0.1-0.7-0.4-1.3-1.1-1.4c-0.7-0.1-1.3,0.4-1.4,1.1c0,0.1,0,0.1,0,0.2V549
				C94.7,558.4,102.3,566,111.7,566L111.7,566z"/>
			<path class="st3" d="M95.9,422.5c0.7,0,1.2-0.6,1.2-1.2V238.6c0.1-0.7-0.4-1.3-1.1-1.4c-0.7-0.1-1.3,0.4-1.4,1.1
				c0,0.1,0,0.1,0,0.2v182.6C94.7,422,95.2,422.5,95.9,422.5z"/>
			<path class="st3" d="M95.9,223.5c0.7,0,1.2-0.6,1.2-1.2v-98.6c0-8,6.5-14.6,14.6-14.6H135c0.7,0.1,1.3-0.4,1.4-1.1
				c0.1-0.7-0.4-1.3-1.1-1.4c-0.1,0-0.1,0-0.2,0h-23.3c-9.4,0-17,7.6-17,17v98.6C94.7,222.8,95.2,223.4,95.9,223.5
				C95.9,223.5,95.9,223.5,95.9,223.5z"/>
			<path class="st4" d="M154,109h53.8c0.7-0.1,1.2-0.7,1.1-1.4c-0.1-0.6-0.5-1.1-1.1-1.1H154c-0.7,0.1-1.2,0.7-1.1,1.4
				C152.9,108.5,153.4,108.9,154,109z"/>
			<path class="st3" d="M454.2,206.8c0.7,0,1.2-0.6,1.2-1.2v-81.9c0-9.4-7.6-17-17-17h-97.8c-0.7,0.1-1.2,0.7-1.1,1.4
				c0.1,0.6,0.5,1.1,1.1,1.1h97.8c8,0,14.5,6.5,14.5,14.5v81.9C453,206.2,453.5,206.7,454.2,206.8z"/>
			<path class="st3" d="M111.5,141.2v339.8c0,15.3,12.4,27.6,27.7,27.7h252.8c7.4,0,13.3-6,13.4-13.3V141.2c0-7.4-6-13.3-13.4-13.3
				l0,0H124.8C117.4,127.9,111.5,133.9,111.5,141.2z"/>
			<path class="st5" d="M122.1,482c0.5,0,1-0.4,1-1v-36.4c0.2-0.5-0.1-1.1-0.7-1.3c-0.5-0.2-1.1,0.1-1.3,0.7c-0.1,0.2-0.1,0.4,0,0.6
				v36.4C121.2,481.6,121.6,482,122.1,482z"/>
			<path class="st5" d="M122.1,415.3c0.6,0,1-0.4,1-1V183.8c-0.2-0.5-0.7-0.8-1.3-0.7c-0.3,0.1-0.6,0.3-0.7,0.7v230.6
				C121.2,414.8,121.6,415.2,122.1,415.3z"/>
			<path class="st5" d="M122.1,166.3c0.6,0,1-0.4,1-1v-24.1c0.2-0.5-0.1-1.1-0.7-1.3s-1.1,0.1-1.3,0.7c-0.1,0.2-0.1,0.4,0,0.6v24.1
				C121.2,165.9,121.6,166.3,122.1,166.3z"/>
			<path class="st5" d="M131.8,141.2v339.8c0,15.3,12.4,27.6,27.7,27.7h252.8c7.4,0,13.3-6,13.4-13.3V141.2c0-7.4-6-13.3-13.4-13.3
				l0,0H145.2C137.8,127.9,131.8,133.9,131.8,141.2L131.8,141.2z"/>
			<path class="st3" d="M157.7,508.7h319.7c16.2,0,29.4-13.1,29.4-29.4l0,0H187C187,495.6,173.9,508.7,157.7,508.7z"/>
			<path class="st3" d="M208.1,84.4l39.1-0.3v-1.4c-0.1-10.3,5.8-19.8,15.1-24.3c3.6-1.7,7.5-2.7,11.5-2.7c0.8,0,1.7,0,2.5,0.1
				c13.8,1.2,24.4,12.7,24.5,26.5v1.4l39.3-0.3l0.5,59.5l0,0l-132.1,1.1L208.1,84.4z"/>
			
				<linearGradient id="SVGID_3_" gradientUnits="userSpaceOnUse" x1="0" y1="369.26" x2="18.02" y2="369.26" gradientTransform="matrix(1 0 0 -1 0 568)">
				<stop  offset="0" style="stop-color:#EFC4BF"/>
				<stop  offset="1" style="stop-color:#BD6A60"/>
			</linearGradient>
			<polygon class="st6" points="9,189.7 5.8,195.6 0,198.7 5.8,201.9 9,207.8 12.2,201.9 18,198.7 12.2,195.6 			"/>
			
				<linearGradient id="SVGID_4_" gradientUnits="userSpaceOnUse" x1="199.11" y1="558.99" x2="217.12" y2="558.99" gradientTransform="matrix(1 0 0 -1 0 568)">
				<stop  offset="0" style="stop-color:#EFC4BF"/>
				<stop  offset="1" style="stop-color:#BD6A60"/>
			</linearGradient>
			<polygon class="st7" points="208.1,0 204.9,5.8 199.1,9 204.9,12.2 208.1,18 211.3,12.2 217.1,9 211.3,5.8 			"/>
			
				<linearGradient id="SVGID_5_" gradientUnits="userSpaceOnUse" x1="195.7973" y1="316.3899" x2="248.5427" y2="316.3899" gradientTransform="matrix(1 0 0 -1 -6.117913e-03 567.9957)">
				<stop  offset="0" style="stop-color:#EFC4BF"/>
				<stop  offset="1" style="stop-color:#BD6A60"/>
			</linearGradient>
			<circle class="st8" cx="222.2" cy="251.6" r="26.4"/>
			<path class="st3" d="M213.4,278.7c-0.6,0-1.1-0.5-1.1-1.1s0.5-1.1,1.1-1.1c1,0,2.1-0.1,3.1-0.3c0.6-0.1,1.2,0.3,1.3,0.9
				s-0.3,1.2-0.9,1.3c0,0-0.1,0-0.1,0C215.7,278.5,214.6,278.6,213.4,278.7L213.4,278.7z M207,278.1c-0.1,0-0.2,0-0.2,0
				c-1.1-0.2-2.2-0.6-3.2-0.9c-0.6-0.2-0.9-0.9-0.7-1.4s0.9-0.9,1.4-0.7c1,0.4,2,0.6,3,0.9c0.6,0.1,1,0.8,0.8,1.4
				C208,277.7,207.5,278.1,207,278.1L207,278.1z M222.9,276.6c-0.6,0-1.1-0.5-1.1-1.1c0-0.5,0.3-0.9,0.7-1c0.9-0.4,1.9-0.9,2.8-1.4
				c0.5-0.4,1.2-0.2,1.6,0.3c0.4,0.5,0.2,1.2-0.3,1.6c0,0-0.1,0.1-0.1,0.1c-1,0.6-2,1.1-3,1.5C223.2,276.6,223,276.6,222.9,276.6z
				 M198.2,274.2c-0.2,0-0.4-0.1-0.6-0.2c-0.9-0.6-1.8-1.3-2.7-2c-0.5-0.4-0.5-1.1-0.1-1.6c0.4-0.5,1.1-0.5,1.6-0.1
				c0.8,0.7,1.6,1.3,2.5,1.9c0.5,0.3,0.7,1,0.3,1.6C198.9,274.1,198.6,274.3,198.2,274.2L198.2,274.2z M230.9,271.2
				c-0.3,0-0.6-0.1-0.8-0.3c-0.4-0.4-0.4-1.2,0-1.6c0,0,0,0,0,0c0.7-0.7,1.4-1.5,2.1-2.3c0.4-0.5,1.1-0.6,1.6-0.3s0.6,1.1,0.3,1.6
				c0,0,0,0.1-0.1,0.1c-0.7,0.9-1.4,1.7-2.3,2.5C231.4,271.1,231.2,271.2,230.9,271.2L230.9,271.2z M191.3,267.4
				c-0.4,0-0.7-0.2-0.9-0.5c-0.6-0.9-1.2-1.9-1.7-2.9c-0.4-0.5-0.2-1.2,0.3-1.6c0.5-0.4,1.2-0.2,1.6,0.3c0.1,0.1,0.1,0.2,0.1,0.3
				c0.5,0.9,1,1.8,1.6,2.6c0.4,0.5,0.2,1.2-0.3,1.6c0,0,0,0,0,0C191.7,267.4,191.5,267.4,191.3,267.4z M236.3,263.2
				c-0.2,0-0.3,0-0.5-0.1c-0.6-0.2-0.8-0.9-0.6-1.5c0,0,0,0,0,0c0.4-0.9,0.8-1.9,1.1-2.9c0.2-0.6,0.8-1,1.4-0.8s1,0.8,0.8,1.4
				c0,0,0,0.1,0,0.1c-0.3,1.1-0.7,2.1-1.2,3.2C237.2,263,236.8,263.3,236.3,263.2L236.3,263.2z M187.4,258.6c-0.5,0-1-0.4-1.1-0.9
				c-0.3-1.1-0.4-2.2-0.6-3.3c-0.1-0.6,0.4-1.2,1-1.2s1.2,0.4,1.2,1c0.1,1,0.3,2,0.5,3.1c0.1,0.6-0.2,1.2-0.8,1.4
				C187.5,258.6,187.5,258.6,187.4,258.6L187.4,258.6z M238.5,253.9L238.5,253.9c-0.6,0-1.1-0.5-1.1-1.2c0,0,0,0,0,0
				c0-0.4,0-0.7,0-1.1c0-0.7,0-1.3-0.1-2c0-0.6,0.4-1.2,1-1.2c0.6,0,1.2,0.4,1.2,1c0,0.7,0.1,1.5,0.1,2.2c0,0.4,0,0.8,0,1.2
				C239.7,253.4,239.1,253.9,238.5,253.9L238.5,253.9z M186.9,249L186.9,249c-0.7-0.1-1.1-0.7-1-1.3c0,0,0,0,0,0
				c0.2-1.1,0.4-2.2,0.7-3.3c0.1-0.6,0.7-1,1.3-0.9c0.6,0.1,1,0.7,0.9,1.3c0,0.1,0,0.1-0.1,0.2c-0.3,1-0.5,2-0.6,3
				C188.1,248.6,187.6,249,186.9,249L186.9,249z M237.1,244.3c-0.5,0-0.9-0.3-1.1-0.8c-0.3-1-0.7-1.9-1.2-2.9
				c-0.4-0.5-0.2-1.2,0.3-1.6c0.5-0.4,1.2-0.2,1.6,0.3c0.1,0.1,0.1,0.2,0.1,0.3c0.5,1,0.9,2.1,1.3,3.1c0.2,0.6-0.1,1.2-0.7,1.4
				C237.4,244.3,237.3,244.3,237.1,244.3L237.1,244.3z M190.1,239.9c-0.2,0-0.4-0.1-0.6-0.1c-0.5-0.3-0.7-1-0.4-1.5
				c0.6-1,1.2-1.9,1.9-2.8c0.4-0.5,1.1-0.6,1.6-0.2c0.5,0.4,0.6,1.1,0.2,1.6c-0.6,0.8-1.2,1.7-1.7,2.6
				C190.9,239.7,190.5,239.9,190.1,239.9L190.1,239.9z M196.4,232.5c-0.6,0-1.1-0.5-1.1-1.1c0-0.3,0.2-0.7,0.4-0.9
				c0.9-0.7,1.8-1.4,2.8-1.9c0.5-0.3,1.2-0.2,1.5,0.4c0,0,0,0,0,0c0.3,0.5,0.2,1.2-0.4,1.6c0,0,0,0,0,0c-0.9,0.5-1.7,1.1-2.5,1.8
				C196.9,232.5,196.6,232.6,196.4,232.5L196.4,232.5z M226.6,230.9c-0.2,0-0.4-0.1-0.6-0.2c-0.9-0.6-1.8-1.1-2.7-1.5
				c-0.6-0.3-0.8-0.9-0.5-1.5c0.3-0.6,0.9-0.8,1.5-0.5c0,0,0,0,0,0c1,0.5,2,1,3,1.6c0.5,0.3,0.7,1,0.3,1.6
				C227.3,230.7,227,230.9,226.6,230.9L226.6,230.9z M204.9,228c-0.6,0-1.1-0.5-1.1-1.2c0-0.5,0.3-0.9,0.8-1
				c1.1-0.3,2.2-0.6,3.3-0.8c0.6-0.1,1.2,0.3,1.3,0.9c0.1,0.6-0.3,1.2-0.9,1.3c-1,0.2-2,0.4-3,0.7C205.1,228,205,228,204.9,228z
				 M217.6,227.3h-0.2c-1-0.2-2-0.3-3.1-0.4c-0.6-0.1-1.1-0.6-1-1.2c0.1-0.6,0.6-1,1.2-1c1.1,0.1,2.2,0.2,3.3,0.4
				c0.6,0.1,1,0.7,0.9,1.3C218.7,227,218.2,227.3,217.6,227.3L217.6,227.3z"/>
			<path class="st3" d="M211.6,265.4l-9.5-10.3c-0.5-0.4-0.5-1.1-0.1-1.6c0.4-0.5,1.1-0.5,1.6-0.1c0.1,0,0.1,0.1,0.1,0.2l7.7,8.3
				l28.2-38.1c0.3-0.5,1-0.7,1.6-0.4c0.5,0.3,0.7,1,0.4,1.6c0,0.1-0.1,0.1-0.1,0.2L211.6,265.4z"/>
			
				<linearGradient id="SVGID_6_" gradientUnits="userSpaceOnUse" x1="86.0661" y1="298.3715" x2="501.9662" y2="116.4214" gradientTransform="matrix(1 0 0 -1 -5.077163e-03 568.0027)">
				<stop  offset="0" style="stop-color:#EFC4BF"/>
				<stop  offset="1" style="stop-color:#BD6A60"/>
			</linearGradient>
			<circle class="st9" cx="222.2" cy="329.2" r="26.4"/>
			<path class="st3" d="M213.4,356.2c-0.6,0-1.1-0.5-1.1-1.1s0.5-1.1,1.1-1.1c1,0,2.1-0.1,3.1-0.3c0.6-0.1,1.2,0.3,1.3,0.9
				c0.1,0.6-0.3,1.2-0.9,1.3C215.7,356.1,214.6,356.2,213.4,356.2L213.4,356.2z M207,355.6h-0.2c-1.1-0.2-2.2-0.6-3.2-0.9
				c-0.6-0.2-1-0.8-0.8-1.4c0.2-0.6,0.8-1,1.4-0.8c0.1,0,0.1,0,0.2,0.1c1,0.3,2,0.6,3,0.9c0.6,0.1,1,0.7,0.9,1.3
				C208.1,355.3,207.6,355.7,207,355.6L207,355.6z M222.9,354.2c-0.6,0-1.1-0.5-1.1-1.2c0-0.4,0.3-0.8,0.7-1
				c0.9-0.4,1.9-0.9,2.8-1.4c0.5-0.3,1.2-0.1,1.6,0.4c0.3,0.5,0.1,1.2-0.4,1.6c-1,0.6-2,1.1-3,1.5
				C223.2,354.1,223,354.2,222.9,354.2z M198.2,351.8c-0.2,0-0.4-0.1-0.6-0.2c-0.9-0.6-1.8-1.3-2.7-2.1c-0.5-0.4-0.5-1.1-0.1-1.6
				s1.1-0.5,1.6-0.1c0.8,0.7,1.6,1.3,2.5,1.9c0.5,0.4,0.6,1.1,0.3,1.6C198.9,351.6,198.5,351.8,198.2,351.8L198.2,351.8z
				 M230.9,348.8c-0.6,0-1.1-0.5-1.1-1.1c0-0.3,0.1-0.6,0.3-0.8c0.7-0.7,1.4-1.5,2.1-2.3c0.3-0.6,0.9-0.8,1.5-0.6
				c0.6,0.3,0.8,0.9,0.6,1.5c-0.1,0.2-0.2,0.3-0.3,0.4c-0.7,0.9-1.4,1.7-2.3,2.5C231.4,348.7,231.1,348.8,230.9,348.8L230.9,348.8z
				 M191.3,345.1c-0.4,0-0.7-0.2-0.9-0.5c-0.6-0.9-1.2-1.9-1.7-2.9c-0.2-0.6,0.1-1.2,0.7-1.4c0.5-0.2,1,0,1.3,0.4
				c0.5,0.9,1,1.8,1.6,2.6c0.4,0.5,0.2,1.2-0.3,1.6c0,0,0,0,0,0C191.8,345,191.5,345.1,191.3,345.1L191.3,345.1z M236.3,340.9
				c-0.2,0-0.3,0-0.5-0.1c-0.6-0.2-0.8-0.9-0.6-1.5c0,0,0,0,0,0c0.4-0.9,0.8-1.9,1.1-2.9c0.2-0.6,0.9-0.9,1.5-0.7
				c0.5,0.2,0.8,0.8,0.7,1.3c-0.3,1.1-0.7,2.1-1.2,3.2C237.2,340.6,236.8,340.9,236.3,340.9L236.3,340.9z M187.4,336.3
				c-0.5,0-1-0.4-1.1-0.9c-0.3-1.1-0.4-2.2-0.6-3.3c-0.1-0.6,0.4-1.2,1-1.2c0.6-0.1,1.2,0.4,1.2,1c0.1,1,0.3,2,0.5,3
				c0.1,0.6-0.2,1.2-0.8,1.4L187.4,336.3z M238.5,331.4L238.5,331.4c-0.6,0-1.1-0.6-1.1-1.2c0-0.4,0-0.7,0-1.1c0-0.7,0-1.3-0.1-2
				c0-0.6,0.5-1.1,1.1-1.2c0.6,0,1.1,0.4,1.2,1c0,0.7,0.1,1.5,0.1,2.2c0,0.4,0,0.8,0,1.2C239.7,331,239.1,331.5,238.5,331.4
				C238.5,331.4,238.5,331.4,238.5,331.4z M187,326.6h-0.1c-0.6-0.1-1-0.7-1-1.3c0,0,0,0,0,0c0.2-1.1,0.4-2.2,0.7-3.3
				c0.2-0.6,0.8-1,1.4-0.8c0,0,0,0,0,0c0.6,0.2,1,0.8,0.8,1.4c0,0,0,0,0,0c-0.3,1-0.5,2-0.6,3C188.1,326.2,187.6,326.6,187,326.6
				L187,326.6z M237.1,321.9c-0.5,0-0.9-0.3-1.1-0.8c-0.3-1-0.7-1.9-1.2-2.9c-0.3-0.6-0.1-1.2,0.5-1.5c0,0,0,0,0,0
				c0.6-0.3,1.2,0,1.5,0.5c0.5,1,0.9,2,1.3,3.1c0.2,0.6-0.1,1.2-0.7,1.4C237.4,321.9,237.3,321.9,237.1,321.9L237.1,321.9z
				 M190.1,317.4c-0.6,0-1.1-0.5-1.2-1.1c0-0.2,0-0.4,0.2-0.6c0.6-1,1.2-1.9,1.9-2.8c0.4-0.5,1.1-0.6,1.6-0.3s0.6,1.1,0.3,1.6
				c0,0,0,0.1-0.1,0.1c-0.6,0.8-1.2,1.7-1.7,2.6C190.9,317.2,190.5,317.4,190.1,317.4L190.1,317.4z M196.4,310.1
				c-0.3,0-0.7-0.2-0.9-0.4c-0.4-0.5-0.3-1.2,0.2-1.6c0,0,0,0,0,0c0.9-0.7,1.8-1.4,2.8-2c0.5-0.3,1.2-0.2,1.5,0.4
				c0.3,0.5,0.2,1.2-0.4,1.5c0,0,0,0,0,0c-0.9,0.5-1.7,1.1-2.5,1.8C196.9,310,196.7,310.1,196.4,310.1L196.4,310.1z M226.6,308.5
				c-0.2,0-0.4-0.1-0.6-0.2c-0.9-0.6-1.8-1.1-2.7-1.5c-0.6-0.3-0.8-0.9-0.5-1.5c0,0,0,0,0,0c0.3-0.6,0.9-0.8,1.5-0.5
				c1,0.5,2,1,3,1.6c0.5,0.3,0.7,1,0.3,1.6C227.4,308.3,227,308.5,226.6,308.5L226.6,308.5z M204.9,305.6c-0.6,0-1.1-0.5-1.1-1.1
				c0-0.5,0.3-0.9,0.8-1.1c1.1-0.3,2.2-0.6,3.3-0.8c0.6-0.1,1.2,0.4,1.3,1c0.1,0.6-0.3,1.1-0.9,1.2c-1,0.2-2,0.4-3,0.7
				C205.1,305.6,205,305.6,204.9,305.6z M217.6,304.9h-0.2c-1-0.2-2-0.3-3.1-0.4c-0.6-0.1-1.1-0.7-1-1.3c0.1-0.6,0.6-1,1.1-1
				c1.1,0.1,2.2,0.2,3.3,0.4c0.6,0.1,1,0.7,0.9,1.3C218.7,304.5,218.2,304.9,217.6,304.9L217.6,304.9z"/>
			<path class="st3" d="M211.6,343l-9.5-10.3c-0.4-0.4-0.5-1.1,0-1.6c0.4-0.4,1.1-0.5,1.6,0c0,0,0.1,0.1,0.1,0.1l7.7,8.3l28.2-38.1
				c0.4-0.5,1.1-0.6,1.6-0.3s0.6,1.1,0.3,1.6c0,0,0,0.1-0.1,0.1L211.6,343z"/>
			<g class="st10">
				
					<linearGradient id="SVGID_7_" gradientUnits="userSpaceOnUse" x1="195.7982" y1="161.247" x2="248.5436" y2="161.247" gradientTransform="matrix(1 0 0 -1 4.743275e-03 567.9997)">
					<stop  offset="0" style="stop-color:#EFC4BF"/>
					<stop  offset="1" style="stop-color:#BD6A60"/>
				</linearGradient>
				<circle class="st11" cx="222.2" cy="406.8" r="26.4"/>
			</g>
			<path class="st3" d="M213.4,433.8c-0.6,0-1.1-0.5-1.1-1.1s0.5-1.1,1.1-1.1c1,0,2.1-0.1,3.1-0.3c0.6-0.1,1.2,0.3,1.3,0.9
				c0.1,0.6-0.3,1.2-0.9,1.3c0,0,0,0,0,0C215.7,433.7,214.6,433.8,213.4,433.8L213.4,433.8z M207,433.2h-0.2
				c-1.1-0.2-2.2-0.5-3.2-0.9c-0.6-0.2-0.9-0.9-0.7-1.4s0.9-0.9,1.4-0.7c1,0.4,2,0.6,3,0.9c0.6,0.1,1,0.8,0.8,1.4
				C208,432.9,207.5,433.2,207,433.2L207,433.2z M222.9,431.7c-0.6,0-1.1-0.5-1.1-1.1c0-0.5,0.3-0.9,0.7-1c0.9-0.4,1.9-0.9,2.8-1.4
				c0.5-0.3,1.2-0.1,1.5,0.4c0,0,0,0,0,0c0.3,0.5,0.1,1.2-0.4,1.5c-1,0.6-2,1.1-3,1.5C223.2,431.7,223,431.7,222.9,431.7z
				 M198.1,429.4c-0.2,0-0.4-0.1-0.6-0.2c-0.9-0.6-1.8-1.3-2.7-2.1c-0.5-0.4-0.5-1.1-0.1-1.6c0.4-0.5,1.1-0.5,1.6-0.1
				c0.8,0.7,1.6,1.3,2.5,1.9c0.5,0.3,0.6,1,0.3,1.6c0,0,0,0,0,0C198.9,429.3,198.5,429.4,198.1,429.4z M230.8,426.4
				c-0.3,0-0.6-0.1-0.8-0.3c-0.4-0.4-0.4-1.2,0-1.6c0,0,0,0,0,0c0.7-0.7,1.4-1.5,2.1-2.3c0.4-0.5,1.1-0.5,1.6-0.1
				c0.4,0.4,0.5,1,0.2,1.5c-0.7,0.9-1.4,1.7-2.3,2.5C231.4,426.3,231.1,426.4,230.8,426.4L230.8,426.4z M191.3,422.7
				c-0.4,0-0.7-0.2-0.9-0.5c-0.6-0.9-1.2-1.9-1.7-2.9c-0.3-0.5-0.1-1.2,0.4-1.5c0.5-0.3,1.2-0.1,1.5,0.4c0,0,0,0,0,0.1
				c0.5,0.9,1,1.8,1.6,2.6c0.4,0.5,0.2,1.2-0.3,1.6c0,0,0,0,0,0C191.7,422.6,191.5,422.6,191.3,422.7L191.3,422.7z M236.3,418.5
				c-0.2,0-0.3,0-0.5-0.1c-0.6-0.2-0.8-0.9-0.6-1.5c0,0,0,0,0,0c0.4-0.9,0.8-1.9,1.1-2.9c0.1-0.6,0.8-1,1.4-0.8
				c0.6,0.1,1,0.8,0.8,1.4c0,0,0,0.1,0,0.1c-0.3,1.1-0.7,2.1-1.2,3.2C237.1,418.2,236.7,418.4,236.3,418.5L236.3,418.5z
				 M187.4,413.9c-0.5,0-1-0.4-1.1-0.9c-0.3-1.1-0.4-2.2-0.6-3.3c-0.1-0.6,0.4-1.2,1-1.2c0.6-0.1,1.2,0.4,1.2,1c0,0,0,0,0,0
				c0.1,1,0.3,2,0.5,3c0.1,0.6-0.2,1.2-0.8,1.4L187.4,413.9z M238.5,409.1L238.5,409.1c-0.6,0-1.1-0.6-1.1-1.2c0-0.4,0-0.7,0-1.1
				c0-0.7,0-1.3-0.1-2c0-0.6,0.4-1.2,1-1.2s1.2,0.4,1.2,1l0,0c0,0.7,0.1,1.5,0.1,2.2c0,0.4,0,0.8,0,1.2
				C239.6,408.6,239.1,409.1,238.5,409.1L238.5,409.1z M186.9,404.3h-0.2c-0.6-0.1-1-0.7-1-1.3c0,0,0,0,0,0c0.2-1.1,0.4-2.2,0.7-3.3
				c0.2-0.6,0.8-1,1.4-0.8c0,0,0,0,0,0c0.6,0.2,1,0.8,0.8,1.4c0,0,0,0,0,0c-0.3,1-0.5,2-0.6,3C188,403.8,187.5,404.2,186.9,404.3
				L186.9,404.3z M237.1,399.6c-0.5,0-0.9-0.3-1.1-0.8c-0.3-1-0.7-1.9-1.2-2.9c-0.2-0.6,0.1-1.2,0.7-1.4c0.5-0.2,1,0,1.3,0.4
				c0.5,1,0.9,2.1,1.3,3.1c0.2,0.6-0.1,1.2-0.7,1.4c0,0,0,0,0,0C237.4,399.5,237.3,399.5,237.1,399.6L237.1,399.6z M190.1,395.1
				c-0.2,0-0.4-0.1-0.6-0.1c-0.5-0.3-0.7-1-0.4-1.5c0.6-1,1.2-1.9,1.9-2.8c0.3-0.5,1-0.7,1.6-0.3s0.7,1,0.3,1.6c0,0-0.1,0.1-0.1,0.1
				c-0.6,0.8-1.2,1.7-1.7,2.6C190.9,394.9,190.5,395.1,190.1,395.1L190.1,395.1z M196.4,387.8c-0.6,0-1.1-0.5-1.1-1.1
				c0-0.3,0.2-0.7,0.4-0.9c0.9-0.7,1.8-1.4,2.8-2c0.5-0.3,1.2-0.1,1.5,0.4c0.3,0.5,0.1,1.2-0.4,1.5c-0.9,0.5-1.7,1.1-2.5,1.8
				C196.9,387.7,196.6,387.7,196.4,387.8L196.4,387.8z M226.6,386.2c-0.2,0-0.4-0.1-0.6-0.2c-0.9-0.6-1.8-1.1-2.7-1.5
				c-0.5-0.4-0.6-1.1-0.3-1.6c0.3-0.4,0.8-0.6,1.3-0.4c1,0.5,2,1,3,1.6c0.5,0.3,0.7,1,0.3,1.6C227.4,386,227,386.2,226.6,386.2
				L226.6,386.2z M204.9,383.2c-0.6,0-1.1-0.5-1.1-1.1c0-0.5,0.3-0.9,0.8-1.1c1.1-0.3,2.2-0.6,3.3-0.8c0.6-0.1,1.2,0.3,1.3,0.9
				c0,0,0,0,0,0c0.1,0.6-0.3,1.2-0.9,1.3c0,0,0,0,0,0c-1,0.2-2,0.4-3,0.7C205.1,383.2,205,383.2,204.9,383.2z M217.6,382.5
				c-0.1,0-0.1,0-0.2,0c-1-0.2-2-0.3-3.1-0.4c-0.6,0-1.1-0.6-1.1-1.2c0-0.6,0.6-1.1,1.2-1l0,0c1.1,0.1,2.2,0.2,3.3,0.5
				c0.6,0.1,1,0.7,0.8,1.4C218.6,382.1,218.2,382.5,217.6,382.5L217.6,382.5z"/>
			<path class="st3" d="M48.7,566.6h451.8c0.6-0.1,1.1-0.6,1-1.2c-0.1-0.5-0.5-1-1-1H48.7c-0.6,0.1-1.1,0.6-1,1.2
				C47.7,566.1,48.2,566.6,48.7,566.6z"/>
		</g>
	</g>
</g>
<g class="st12">
	<path class="st3" d="M279.2,262.6c-1.6,0-3-0.4-4.2-1.1c-1.2-0.7-2-1.9-2.5-3.4c-0.1-0.3-0.2-0.6-0.3-1c-0.1-0.3-0.1-0.7-0.1-1
		c0-0.4-0.1-0.8-0.1-1.3c0-0.5,0-1.1,0-1.8s0-1.3,0-1.8c0-0.5,0-0.9,0.1-1.3c0-0.4,0.1-0.7,0.1-1c0.1-0.3,0.1-0.6,0.3-1
		c0.5-1.5,1.3-2.6,2.5-3.4c1.2-0.8,2.6-1.1,4.2-1.1s3,0.4,4.2,1.1c1.2,0.8,2,1.9,2.5,3.4c0.1,0.3,0.2,0.6,0.3,1
		c0.1,0.3,0.1,0.7,0.1,1c0,0.4,0.1,0.8,0.1,1.3c0,0.5,0,1.1,0,1.8s0,1.3,0,1.8c0,0.5,0,0.9-0.1,1.3c0,0.4-0.1,0.7-0.1,1
		c-0.1,0.3-0.1,0.6-0.3,1c-0.5,1.5-1.3,2.6-2.5,3.4C282.2,262.2,280.8,262.6,279.2,262.6z M279.2,259c0.8,0,1.4-0.2,1.9-0.5
		c0.5-0.4,0.8-0.9,1-1.5c0.1-0.2,0.1-0.3,0.1-0.6c0-0.2,0.1-0.5,0.1-0.8c0-0.3,0-0.7,0.1-1.1s0-1,0-1.5c0-0.6,0-1.1,0-1.5
		s0-0.8-0.1-1.1c0-0.3-0.1-0.6-0.1-0.8s-0.1-0.4-0.1-0.6c-0.2-0.6-0.5-1.1-1-1.5c-0.5-0.4-1.1-0.5-1.9-0.5c-0.8,0-1.4,0.2-1.9,0.5
		c-0.5,0.4-0.8,0.9-1,1.5c-0.1,0.2-0.1,0.3-0.1,0.6s-0.1,0.5-0.1,0.8s0,0.7-0.1,1.1c0,0.4,0,1,0,1.5c0,0.6,0,1.1,0,1.5
		c0,0.4,0,0.8,0.1,1.1c0,0.3,0.1,0.6,0.1,0.8c0,0.2,0.1,0.4,0.1,0.6c0.2,0.6,0.5,1.1,1,1.5C277.8,258.9,278.4,259,279.2,259z"/>
	<path class="st3" d="M297.3,262.3c-0.2,0-0.3-0.1-0.3-0.3v-1h0c-0.3,0.5-0.8,0.8-1.3,1.1c-0.5,0.3-1.2,0.4-2,0.4
		c-0.7,0-1.4-0.1-1.9-0.4c-0.6-0.2-1-0.6-1.4-1c-0.4-0.4-0.7-1-0.8-1.5c-0.2-0.6-0.3-1.2-0.3-2v-8.3c0-0.2,0.1-0.3,0.3-0.3h3.3
		c0.2,0,0.3,0.1,0.3,0.3v7.5c0,0.7,0.2,1.3,0.5,1.7c0.3,0.4,0.8,0.7,1.5,0.7c0.7,0,1.1-0.2,1.5-0.7c0.3-0.4,0.5-1,0.5-1.7v-7.5
		c0-0.2,0.1-0.3,0.3-0.3h3.3c0.2,0,0.3,0.1,0.3,0.3V262c0,0.2-0.1,0.3-0.3,0.3H297.3z"/>
	<path class="st3" d="M304.6,262.3c-0.2,0-0.3-0.1-0.3-0.3v-12.6c0-0.2,0.1-0.3,0.3-0.3h3.3c0.2,0,0.3,0.1,0.3,0.3v1.1h0
		c0.3-0.5,0.8-0.9,1.3-1.2s1.3-0.4,2.1-0.4c0.4,0,0.9,0.1,1.3,0.2c0.4,0.1,0.8,0.3,1,0.6c0.1,0.1,0.2,0.2,0.1,0.4l-1.5,2.8
		c-0.1,0.1-0.2,0.1-0.4,0.1c-0.7-0.4-1.3-0.6-1.9-0.6c-0.7,0-1.2,0.3-1.5,0.8c-0.3,0.5-0.5,1.2-0.5,2.1v6.9c0,0.2-0.1,0.3-0.3,0.3
		H304.6z"/>
	<path class="st3" d="M327.1,262.3c-0.2,0-0.3-0.1-0.4-0.3l-5.9-17.9c-0.1-0.2,0-0.3,0.2-0.3h3.5c0.2,0,0.3,0.1,0.4,0.3l3.7,12.1
		h0.1l3.6-12.1c0.1-0.2,0.2-0.3,0.4-0.3h3.5c0.2,0,0.3,0.1,0.2,0.3l-5.9,17.9c-0.1,0.2-0.2,0.3-0.3,0.3H327.1z"/>
	<path class="st3" d="M338.7,247c-0.2,0-0.3-0.1-0.3-0.3v-2.7c0-0.2,0.1-0.3,0.3-0.3h3.3c0.2,0,0.3,0.1,0.3,0.3v2.7
		c0,0.2-0.1,0.3-0.3,0.3H338.7z M338.7,262.3c-0.2,0-0.3-0.1-0.3-0.3v-12.6c0-0.2,0.1-0.3,0.3-0.3h3.3c0.2,0,0.3,0.1,0.3,0.3V262
		c0,0.2-0.1,0.3-0.3,0.3H338.7z"/>
	<path class="st3" d="M350.8,262.6c-1.4,0-2.6-0.2-3.5-0.6c-1-0.4-1.8-0.9-2.4-1.4c-0.1-0.1-0.1-0.3,0-0.4l1.8-2
		c0.1-0.1,0.2-0.1,0.4,0c0.6,0.5,1.2,0.8,1.9,1.1c0.7,0.3,1.4,0.4,2.1,0.4c0.7,0,1.2-0.1,1.5-0.4s0.5-0.5,0.5-0.9
		c0-0.3-0.1-0.6-0.4-0.7c-0.2-0.2-0.7-0.3-1.5-0.4l-1.5-0.2c-1.4-0.1-2.5-0.6-3.2-1.2c-0.7-0.7-1.1-1.6-1.1-2.8
		c0-1.3,0.5-2.3,1.4-3.1c0.9-0.8,2.3-1.1,4-1.1c1.1,0,2.1,0.2,3,0.5c0.9,0.3,1.7,0.7,2.3,1.2c0.1,0.1,0.1,0.3,0,0.4l-1.5,1.9
		c-0.1,0.1-0.2,0.1-0.4,0.1c-0.5-0.3-1-0.5-1.6-0.7c-0.6-0.2-1.3-0.3-2-0.3c-0.6,0-1,0.1-1.2,0.3c-0.3,0.2-0.4,0.5-0.4,0.8
		c0,0.3,0.1,0.5,0.4,0.7c0.2,0.2,0.7,0.3,1.5,0.4l1.4,0.2c1.6,0.1,2.7,0.6,3.4,1.3s1,1.6,1,2.7c0,1.4-0.5,2.4-1.5,3.3
		S352.7,262.6,350.8,262.6z"/>
	<path class="st3" d="M359.6,247c-0.2,0-0.3-0.1-0.3-0.3v-2.7c0-0.2,0.1-0.3,0.3-0.3h3.3c0.2,0,0.3,0.1,0.3,0.3v2.7
		c0,0.2-0.1,0.3-0.3,0.3H359.6z M359.6,262.3c-0.2,0-0.3-0.1-0.3-0.3v-12.6c0-0.2,0.1-0.3,0.3-0.3h3.3c0.2,0,0.3,0.1,0.3,0.3V262
		c0,0.2-0.1,0.3-0.3,0.3H359.6z"/>
	<path class="st3" d="M372.1,262.6c-1.4,0-2.6-0.3-3.6-1c-1-0.6-1.7-1.5-2.1-2.7c-0.1-0.5-0.3-1-0.3-1.5c-0.1-0.5-0.1-1.1-0.1-1.7
		c0-0.7,0-1.2,0.1-1.7c0.1-0.5,0.2-1,0.3-1.5c0.4-1.2,1.1-2.1,2.1-2.7c1-0.6,2.2-1,3.6-1c1.4,0,2.6,0.3,3.6,1c1,0.6,1.7,1.5,2.1,2.7
		c0.1,0.5,0.3,1,0.3,1.5c0.1,0.5,0.1,1.1,0.1,1.7c0,0.7,0,1.2-0.1,1.7c-0.1,0.5-0.2,1-0.3,1.5c-0.4,1.2-1.1,2.1-2.1,2.7
		C374.7,262.3,373.5,262.6,372.1,262.6z M372.1,259.4c1,0,1.7-0.5,2-1.4c0.1-0.3,0.2-0.6,0.2-0.9c0-0.3,0.1-0.8,0.1-1.3
		c0-0.6,0-1-0.1-1.3c0-0.3-0.1-0.6-0.2-0.9c-0.3-0.9-1-1.4-2-1.4s-1.7,0.5-2,1.4c-0.1,0.3-0.2,0.6-0.2,0.9c0,0.3-0.1,0.8-0.1,1.3
		c0,0.6,0,1,0.1,1.3c0,0.3,0.1,0.6,0.2,0.9C370.3,258.9,371,259.4,372.1,259.4z"/>
	<path class="st3" d="M389.1,262.3c-0.2,0-0.3-0.1-0.3-0.3v-7.5c0-0.7-0.2-1.3-0.5-1.7c-0.3-0.4-0.8-0.7-1.5-0.7
		c-0.7,0-1.2,0.2-1.5,0.7c-0.4,0.4-0.5,1-0.5,1.7v7.5c0,0.2-0.1,0.3-0.3,0.3h-3.3c-0.2,0-0.3-0.1-0.3-0.3v-12.6
		c0-0.2,0.1-0.3,0.3-0.3h3.3c0.2,0,0.3,0.1,0.3,0.3v0.9h0c0.3-0.4,0.7-0.8,1.3-1.1c0.6-0.3,1.3-0.4,2.1-0.4c0.7,0,1.4,0.1,1.9,0.4
		c0.6,0.2,1,0.6,1.4,1s0.7,1,0.9,1.5c0.2,0.6,0.3,1.3,0.3,2v8.3c0,0.2-0.1,0.3-0.3,0.3H389.1z"/>
</g>
<g class="st0">
	<g>
		<path class="st3" d="M279.2,336.5c-1.6,0-3-0.4-4.2-1.1c-1.2-0.7-2-1.9-2.5-3.4c-0.1-0.3-0.2-0.6-0.3-1s-0.1-0.7-0.1-1
			c0-0.4-0.1-0.8-0.1-1.3c0-0.5,0-1.1,0-1.8c0-0.7,0-1.3,0-1.8c0-0.5,0-0.9,0.1-1.3c0-0.4,0.1-0.7,0.1-1c0.1-0.3,0.1-0.6,0.3-1
			c0.5-1.5,1.3-2.6,2.5-3.4c1.2-0.8,2.6-1.1,4.2-1.1s3,0.4,4.2,1.1c1.2,0.8,2,1.9,2.5,3.4c0.1,0.3,0.2,0.6,0.3,1
			c0.1,0.3,0.1,0.7,0.1,1c0,0.4,0.1,0.8,0.1,1.3c0,0.5,0,1.1,0,1.8c0,0.7,0,1.3,0,1.8c0,0.5,0,0.9-0.1,1.3c0,0.4-0.1,0.7-0.1,1
			c-0.1,0.3-0.1,0.6-0.3,1c-0.5,1.5-1.3,2.6-2.5,3.4C282.2,336.2,280.8,336.5,279.2,336.5z M279.2,333c0.8,0,1.4-0.2,1.9-0.5
			c0.5-0.4,0.8-0.9,1-1.5c0.1-0.2,0.1-0.3,0.1-0.6s0.1-0.5,0.1-0.8c0-0.3,0-0.7,0.1-1.1s0-1,0-1.5c0-0.6,0-1.1,0-1.5s0-0.8-0.1-1.1
			c0-0.3-0.1-0.6-0.1-0.8s-0.1-0.4-0.1-0.6c-0.2-0.6-0.5-1.1-1-1.5c-0.5-0.4-1.1-0.5-1.9-0.5c-0.8,0-1.4,0.2-1.9,0.5
			c-0.5,0.4-0.8,0.9-1,1.5c-0.1,0.2-0.1,0.3-0.1,0.6s-0.1,0.5-0.1,0.8s0,0.7-0.1,1.1c0,0.4,0,1,0,1.5c0,0.6,0,1.1,0,1.5
			c0,0.4,0,0.8,0.1,1.1c0,0.3,0.1,0.6,0.1,0.8s0.1,0.4,0.1,0.6c0.2,0.6,0.5,1.1,1,1.5C277.8,332.8,278.4,333,279.2,333z"/>
		<path class="st3" d="M297.3,336.2c-0.2,0-0.3-0.1-0.3-0.3v-1h0c-0.3,0.5-0.8,0.8-1.3,1.1c-0.5,0.3-1.2,0.4-2,0.4
			c-0.7,0-1.4-0.1-1.9-0.4c-0.6-0.2-1-0.6-1.4-1c-0.4-0.4-0.7-1-0.8-1.5c-0.2-0.6-0.3-1.2-0.3-2v-8.3c0-0.2,0.1-0.3,0.3-0.3h3.3
			c0.2,0,0.3,0.1,0.3,0.3v7.5c0,0.7,0.2,1.3,0.5,1.7s0.8,0.7,1.5,0.7c0.7,0,1.1-0.2,1.5-0.7c0.3-0.4,0.5-1,0.5-1.7v-7.5
			c0-0.2,0.1-0.3,0.3-0.3h3.3c0.2,0,0.3,0.1,0.3,0.3V336c0,0.2-0.1,0.3-0.3,0.3H297.3z"/>
		<path class="st3" d="M304.6,336.2c-0.2,0-0.3-0.1-0.3-0.3v-12.6c0-0.2,0.1-0.3,0.3-0.3h3.3c0.2,0,0.3,0.1,0.3,0.3v1.1h0
			c0.3-0.5,0.8-0.9,1.3-1.2s1.3-0.4,2.1-0.4c0.4,0,0.9,0.1,1.3,0.2c0.4,0.1,0.8,0.3,1,0.6c0.1,0.1,0.2,0.2,0.1,0.4l-1.5,2.8
			c-0.1,0.1-0.2,0.1-0.4,0.1c-0.7-0.4-1.3-0.6-1.9-0.6c-0.7,0-1.2,0.3-1.5,0.8c-0.3,0.5-0.5,1.2-0.5,2.1v6.9c0,0.2-0.1,0.3-0.3,0.3
			H304.6z"/>
		<path class="st3" d="M322.4,332c-0.1-0.3-0.2-0.6-0.3-1s-0.1-0.7-0.1-1c0-0.4-0.1-0.8-0.1-1.3c0-0.5,0-1.1,0-1.8
			c0-0.7,0-1.3,0-1.8c0-0.5,0-0.9,0.1-1.3c0-0.4,0.1-0.7,0.1-1c0.1-0.3,0.1-0.6,0.3-1c0.5-1.5,1.3-2.6,2.5-3.4
			c1.2-0.7,2.6-1.1,4.3-1.1c0.9,0,1.7,0.1,2.4,0.3c0.7,0.2,1.3,0.5,1.9,0.8c0.6,0.4,1,0.8,1.4,1.2c0.4,0.5,0.7,1,0.9,1.6
			c0.1,0.2,0.1,0.3-0.1,0.4l-2.9,1.2c-0.2,0.1-0.3,0-0.4-0.1c-0.4-0.6-0.8-1.1-1.3-1.4c-0.5-0.3-1.1-0.5-1.9-0.5
			c-0.8,0-1.4,0.2-1.9,0.6c-0.5,0.4-0.8,0.9-1,1.5c-0.1,0.2-0.1,0.3-0.1,0.6s-0.1,0.5-0.1,0.8c0,0.3,0,0.7-0.1,1.1
			c0,0.4,0,0.9,0,1.5c0,0.6,0,1.1,0,1.5c0,0.4,0,0.8,0.1,1.1c0,0.3,0.1,0.6,0.1,0.8s0.1,0.4,0.1,0.6c0.2,0.6,0.5,1.1,1,1.5
			c0.5,0.4,1.2,0.5,2,0.5c0.7,0,1.3-0.2,1.8-0.5c0.5-0.3,0.9-0.8,1.1-1.4c0.1-0.2,0.1-0.5,0.2-0.8c0-0.3,0.1-0.6,0.1-1
			c0-0.1-0.1-0.2-0.2-0.2h-2.5c-0.2,0-0.3-0.1-0.3-0.3v-2.6c0-0.2,0.1-0.3,0.3-0.3h6.4c0.2,0,0.3,0.1,0.3,0.3v1.5
			c0,0.8,0,1.6-0.1,2.3c-0.1,0.7-0.2,1.3-0.4,1.8c-0.5,1.5-1.3,2.6-2.5,3.4c-1.2,0.8-2.6,1.2-4.2,1.2c-1.6,0-3.1-0.4-4.3-1.1
			C323.7,334.7,322.8,333.5,322.4,332z"/>
		<path class="st3" d="M344.8,336.5c-1.4,0-2.6-0.3-3.6-1c-1-0.6-1.7-1.5-2.1-2.7c-0.1-0.5-0.3-1-0.3-1.5c-0.1-0.5-0.1-1.1-0.1-1.7
			c0-0.7,0-1.2,0.1-1.7c0.1-0.5,0.2-1,0.3-1.5c0.4-1.2,1.1-2.1,2.1-2.7c1-0.6,2.2-1,3.6-1c1.4,0,2.6,0.3,3.6,1
			c1,0.6,1.7,1.5,2.1,2.7c0.1,0.5,0.3,1,0.3,1.5s0.1,1.1,0.1,1.7c0,0.7,0,1.2-0.1,1.7s-0.2,1-0.3,1.5c-0.4,1.2-1.1,2.1-2.1,2.7
			C347.4,336.2,346.2,336.5,344.8,336.5z M344.8,333.3c1,0,1.7-0.5,2-1.4c0.1-0.3,0.2-0.6,0.2-0.9c0-0.3,0.1-0.8,0.1-1.3
			c0-0.6,0-1-0.1-1.3c0-0.3-0.1-0.6-0.2-0.9c-0.3-0.9-1-1.4-2-1.4s-1.7,0.5-2,1.4c-0.1,0.3-0.2,0.6-0.2,0.9s-0.1,0.8-0.1,1.3
			c0,0.6,0,1,0.1,1.3s0.1,0.6,0.2,0.9C343.1,332.8,343.8,333.3,344.8,333.3z"/>
		<path class="st3" d="M361.4,336.2c-0.2,0-0.3-0.1-0.3-0.3v-0.9h0c-0.3,0.4-0.8,0.8-1.4,1c-0.6,0.3-1.3,0.4-2.2,0.4
			c-0.6,0-1.1-0.1-1.7-0.2c-0.5-0.2-1-0.4-1.4-0.7c-0.4-0.3-0.7-0.7-1-1.2s-0.4-1.1-0.4-1.8c0-1.4,0.5-2.5,1.5-3.2s2.3-1,4-1h2.3
			c0.1,0,0.2-0.1,0.2-0.2v-0.5c0-0.6-0.2-1.1-0.6-1.4c-0.4-0.3-1.1-0.4-2.1-0.4c-0.7,0-1.2,0.1-1.7,0.2c-0.5,0.2-0.9,0.4-1.2,0.6
			c-0.1,0.1-0.3,0.1-0.4-0.1l-1.2-2.1c-0.1-0.2-0.1-0.3,0.1-0.4c0.6-0.4,1.2-0.7,2-1c0.8-0.2,1.8-0.4,2.8-0.4c1.1,0,2,0.1,2.7,0.3
			c0.7,0.2,1.3,0.5,1.8,0.9c0.5,0.4,0.8,0.9,1,1.5s0.3,1.3,0.3,2.1v8.4c0,0.2-0.1,0.3-0.3,0.3H361.4z M358.7,333.7
			c1.6,0,2.4-0.6,2.4-1.8V331c0-0.1-0.1-0.2-0.2-0.2h-1.8c-1.6,0-2.3,0.5-2.3,1.5C356.8,333.2,357.4,333.7,358.7,333.7z"/>
		<path class="st3" d="M372.1,336.4c-1.5,0-2.5-0.3-3.1-1c-0.6-0.7-0.9-1.7-0.9-3.2V318c0-0.2,0.1-0.3,0.3-0.3h3.3
			c0.2,0,0.3,0.1,0.3,0.3v13.9c0,0.5,0.1,0.8,0.3,1c0.2,0.2,0.5,0.3,0.9,0.3h0.6c0.2,0,0.3,0.1,0.3,0.3v2.7c0,0.2-0.1,0.3-0.3,0.3
			H372.1z"/>
		<path class="st3" d="M381.5,336.5c-1.4,0-2.6-0.2-3.5-0.6c-1-0.4-1.8-0.9-2.4-1.4c-0.1-0.1-0.1-0.3,0-0.4l1.8-2
			c0.1-0.1,0.2-0.1,0.4,0c0.6,0.5,1.2,0.8,1.9,1.1s1.4,0.4,2.1,0.4c0.7,0,1.2-0.1,1.5-0.4s0.5-0.5,0.5-0.9c0-0.3-0.1-0.6-0.4-0.7
			c-0.2-0.2-0.7-0.3-1.5-0.4l-1.5-0.2c-1.4-0.1-2.5-0.6-3.2-1.2c-0.7-0.7-1.1-1.6-1.1-2.8c0-1.3,0.5-2.3,1.4-3.1s2.3-1.1,4-1.1
			c1.1,0,2.1,0.2,3,0.5s1.7,0.7,2.3,1.2c0.1,0.1,0.1,0.3,0,0.4l-1.5,1.9c-0.1,0.1-0.2,0.1-0.4,0.1c-0.5-0.3-1-0.5-1.6-0.7
			s-1.3-0.3-2-0.3c-0.6,0-1,0.1-1.2,0.3s-0.4,0.5-0.4,0.8c0,0.3,0.1,0.5,0.4,0.7c0.2,0.2,0.7,0.3,1.5,0.4l1.4,0.2
			c1.6,0.1,2.7,0.6,3.4,1.3s1,1.6,1,2.7c0,1.4-0.5,2.4-1.5,3.3C384.8,336.1,383.3,336.5,381.5,336.5z"/>
	</g>
</g>
</svg>
