<svg xmlns="http://www.w3.org/2000/svg" viewBox="0 0 870.2 559.68"><defs><style>.cls-1{fill:#dce5f7;}.cls-2{fill:#eeeff9;}.cls-3{fill:#ad7f7f;}.cls-4{fill:#191919;}.cls-5{fill:#fff;}.cls-6{fill:#efcbcb;}.cls-7{fill:#dd9b9b;}</style></defs><title>Asset 8</title><g id="Layer_2" data-name="Layer 2"><g id="Layer_2-2" data-name="Layer 2"><path class="cls-1" d="M538.73,65.32s-99.75,0-99.86,0H415a20.18,20.18,0,0,1-.27-4.66h0l0-.38a1.1,1.1,0,0,1,0-.24,42.11,42.11,0,0,1,1.37-6.16,33.27,33.27,0,0,1,3.63-8.1,21.89,21.89,0,0,1,7.44-7.38A29.48,29.48,0,0,1,437,34.82a22.22,22.22,0,0,1,16.48,3.24c3,2,5.73,5.16,9.48,5.65,5.74.75,7.25-5.57,7.72-9.94C471.92,22,472.91,3.64,487.28.26a8.24,8.24,0,0,1,6.51,1c3.57,2.25,5.83,7,7.12,10.92,2.08,6.31,3.22,13.14,5.82,19.26,1.93,4.52,5.75,7.26,10.78,6.59a12,12,0,0,1,4.86.35,18.28,18.28,0,0,1,9.08,6.53,25.42,25.42,0,0,1,2.22,3.37C536.43,53.34,537.61,59.69,538.73,65.32Z"/><path class="cls-1" d="M268.06,79.69H55.12a28.77,28.77,0,0,1,.23-5.09h0a46,46,0,0,1,5.52-16.27c4.5-7.93,11.25-13.8,18.83-12a16.78,16.78,0,0,1,7.15,4c3.65,3.23,6.59,7.2,10.2,10.47s8.24,5.9,13.1,5.54c6.09-.44,10.47-5.88,11.38-11.62,2.19-13.8,2-41.07,19.31-44.85.32-.07.65-.13,1-.18,14.74-2.53,24.91,11.88,28.84,24.78.44,1.47.81,2.92,1.09,4.32A55.65,55.65,0,0,1,173,49.57c0,.24.06.47.08.7.12,1,.25,2,.42,3a23.91,23.91,0,0,0,2,6.72,3.07,3.07,0,0,0,1.79,1.79c2.35.57,4.33-2.16,5.68-4.34.38-.61.71-1.17,1-1.61,4.28-6.79,16.08-11.32,21.41-3.18,3.72,5.69.63,16.78,8.38,19.62,8.89,3.25,11.13-8.44,11.92-14.44,1-7.36.81-14.91,3-22.08.92-2.14,2.45-4.6,4.9-4.9a6.37,6.37,0,0,1,5.53,4c2.72,6.6,3.46,13.73,4.46,20.74.81,5.69,1.91,18.24,9.48,18.94,4,.37,7.65-6.8,11.37-3.62C266.76,72.89,266.63,77.1,268.06,79.69Z"/><path class="cls-2" d="M103.27,461.65a46.31,46.31,0,0,1-57.86-30.54L36,400.56l88.41-27.32,9.44,30.55A46.32,46.32,0,0,1,103.27,461.65Z"/><path class="cls-2" d="M142.66,401.06l-8.43-27.28-3.74-12.12L24.39,394.44l3.74,12.12,8.43,27.28a55.52,55.52,0,1,0,106.1-32.78Zm-42.13,51.75a37,37,0,0,1-46.05-23.74h0l-.21-.7c.07.24.14.47.22.7l70.7-21.85-.1-.34-6.82-22.06,6.71,21.7c0,.12.07.24.11.36l.1.34h0A37.06,37.06,0,0,1,100.53,452.81Z"/><path class="cls-2" d="M183.18,532.2l-85.5,26.42H75.11l-.54-1.74L64.9,525.59A55.53,55.53,0,1,1,171,492.81l9.67,31.29Z"/><rect class="cls-2" x="10.42" y="365.72" width="134.13" height="25.01" transform="translate(-108.19 39.73) rotate(-17.17)"/><polygon class="cls-2" points="199.08 544.59 153.67 558.62 68.95 558.62 74.57 556.88 92.36 551.38 162.89 529.6 180.68 524.1 191.7 520.69 199.08 544.59"/><polygon class="cls-2" points="117.38 507.33 92.36 551.39 162.89 529.6 117.38 507.33"/><path class="cls-2" d="M119.83,517.1a1.85,1.85,0,0,1-1.77-1.3l-4.71-15.24a1.85,1.85,0,0,1,3.54-1.09l4.71,15.23a1.86,1.86,0,0,1-1.23,2.32A1.68,1.68,0,0,1,119.83,517.1Z"/><path class="cls-2" d="M111.44,490a1.86,1.86,0,0,1-1.77-1.3L98.07,451.1a1.85,1.85,0,0,1,3.54-1.09l11.6,37.54a1.86,1.86,0,0,1-1.22,2.32A1.79,1.79,0,0,1,111.44,490Z"/><rect class="cls-3" x="220.75" y="168.1" width="304.82" height="390.52" rx="30.55"/><path class="cls-4" d="M511.12,528.64H511a1,1,0,0,1-.92-1.11l30.56-332.34a11.45,11.45,0,0,0-10.35-12.44L251.6,157.12a1,1,0,1,1,.18-2L530.5,180.72a13.5,13.5,0,0,1,12.19,14.66L512.13,527.72A1,1,0,0,1,511.12,528.64Z"/><path class="cls-4" d="M222.65,336.83h-.1a1,1,0,0,1-.92-1.11l4-43.25a1,1,0,0,1,1.1-.92,1,1,0,0,1,.93,1.11l-4,43.24A1,1,0,0,1,222.65,336.83Z"/><rect class="cls-5" x="253.35" y="200.05" width="239.64" height="326.61"/><polygon class="cls-6" points="60.73 326.45 63.45 331.6 68.44 334.41 63.45 337.23 60.73 342.37 58 337.23 53.02 334.41 58 331.6 60.73 326.45"/><polygon class="cls-6" points="415.41 91.69 418.13 96.83 423.12 99.65 418.13 102.46 415.41 107.61 412.69 102.46 407.7 99.65 412.69 96.83 415.41 91.69"/><polygon class="cls-6" points="738.01 333.87 740.74 339.02 745.72 341.83 740.74 344.65 738.01 349.8 735.29 344.65 730.3 341.83 735.29 339.02 738.01 333.87"/><path class="cls-3" d="M628.11,226.64a4.3,4.3,0,1,1,4.3-4.29A4.29,4.29,0,0,1,628.11,226.64Z"/><path class="cls-3" d="M611.87,226.64a4.3,4.3,0,1,1,4.29-4.29A4.29,4.29,0,0,1,611.87,226.64Z"/><path class="cls-3" d="M611.87,209.06a4.3,4.3,0,1,1,4.29-4.3A4.29,4.29,0,0,1,611.87,209.06Z"/><path class="cls-3" d="M611.87,242.94a4.3,4.3,0,1,1,4.29-4.29A4.29,4.29,0,0,1,611.87,242.94Z"/><path class="cls-3" d="M595.62,226.64a4.3,4.3,0,1,1,4.29-4.29A4.29,4.29,0,0,1,595.62,226.64Z"/><path class="cls-7" d="M636.71,144.38a1,1,0,0,1-.92-1.34l6.92-18-18.34,6.57a1,1,0,0,1-1-.23,1,1,0,0,1-.25-1l6.79-20.87a1,1,0,0,1,1.87.61l-6.16,19,18.47-6.62a1,1,0,0,1,1,.24,1,1,0,0,1,.22,1l-6.91,17.92L656.54,135a1,1,0,1,1,.68,1.86l-20.17,7.49A1,1,0,0,1,636.71,144.38Z"/><path class="cls-3" d="M47.24,228.18h0A10.54,10.54,0,0,1,36.7,238.72h0a10.54,10.54,0,0,1-10.54-10.54h0A10.54,10.54,0,0,1,36.7,217.63h0A10.54,10.54,0,0,1,47.24,228.18Z"/><path class="cls-7" d="M71.78,254.93h0a5.59,5.59,0,0,1-5.6,5.6h0a5.6,5.6,0,0,1-5.6-5.6h0a5.6,5.6,0,0,1,5.6-5.59h0A5.59,5.59,0,0,1,71.78,254.93Z"/><path class="cls-6" d="M56.7,248.37H37.52a1,1,0,0,1-1-1V228.18a1,1,0,0,1,1-1H56.7a1,1,0,0,1,1,1v19.17A1,1,0,0,1,56.7,248.37Zm-18.16-2H55.68V229.2H38.54Z"/><path class="cls-4" d="M90.16,303.89a1,1,0,0,1-.29-2c2.45-.73,8.08-2.61,12.1-5.56a17.72,17.72,0,0,1-5.66-4.11c-1.7-1.86-2.39-3.67-2-5.37a5.65,5.65,0,0,1,3.27-3.73,8.17,8.17,0,0,1,7.17-.06,6.69,6.69,0,0,1,3.66,4.87,8.72,8.72,0,0,1-2.43,7.59,14.05,14.05,0,0,0,5.25.13,11.72,11.72,0,0,0,9-7.24,1,1,0,1,1,1.88.8,13.7,13.7,0,0,1-10.52,8.45,16.21,16.21,0,0,1-7.32-.48c-4.15,3.45-10.28,5.63-13.77,6.67A1.45,1.45,0,0,1,90.16,303.89Zm11.06-19.59a6.21,6.21,0,0,0-2.76.64,4,4,0,0,0-2.18,2.32c-.27,1.28.69,2.65,1.54,3.58a15.56,15.56,0,0,0,5.92,4c1.93-1.85,3.1-4.05,2.63-6.56a4.66,4.66,0,0,0-2.56-3.41A5.72,5.72,0,0,0,101.22,284.3Z"/><path class="cls-1" d="M708.12,160.11H833.74c-.85-10.52-7.73-28.46-9-30.53-.52-.84-1-1.61-1.35-2.21-5.87-9.31-22-15.51-29.35-4.35-5.1,7.8-.86,23-11.48,26.88-12.19,4.45-15.25-11.57-16.34-19.79-1.33-10.09-1.11-20.43-4.08-30.26-1.26-2.94-3.37-6.31-6.73-6.73-3.36,0-6.3,2.53-7.57,5.47-3.73,9.06-4.75,18.82-6.11,28.44-1.11,7.79-2.63,25-13,26-5.5.51-10.48-9.32-15.58-5C709.9,150.79,710.07,156.56,708.12,160.11Z"/><path class="cls-4" d="M752.6,270.54c-5.14,0-10.13-2.27-11.91-7.2a12.94,12.94,0,0,1-.67-3.1,15.28,15.28,0,0,1-6.07-4.42,13.78,13.78,0,0,1-3.41-7.4,1,1,0,1,1,2-.18,11.92,11.92,0,0,0,2.93,6.25A14.12,14.12,0,0,0,740,258a15.86,15.86,0,0,1,.3-2.32c.45-2.28,1.32-3.83,2.67-4.72a4.65,4.65,0,0,1,7.12,4.8,5.78,5.78,0,0,1-1.83,3,7.28,7.28,0,0,1-5.52,2l-.59-.05a10.13,10.13,0,0,0,.47,1.86c2.18,6.05,9.88,6.65,14.65,5.15l.49-.16a12.06,12.06,0,0,0,3.57-2,1,1,0,0,1,1.44.16,1,1,0,0,1-.16,1.43,14.23,14.23,0,0,1-4.17,2.29l-.55.19A17.74,17.74,0,0,1,752.6,270.54ZM742,258.69a6,6,0,0,0,.85.1,5.3,5.3,0,0,0,4-1.48,3.8,3.8,0,0,0,1.21-1.95,2.61,2.61,0,0,0-4-2.69,5.1,5.1,0,0,0-1.79,3.42A14.89,14.89,0,0,0,742,258.69Z"/><rect class="cls-6" x="274.5" y="241.63" width="201.13" height="27.17" transform="translate(-24.45 40.29) rotate(-5.95)"/><path class="cls-4" d="M290.15,269.44h0l-22.38-.19a1,1,0,0,1-1-1V242.72a1,1,0,0,1,1-1h17.71a1,1,0,0,1,0,2H268.78v23.47l21.38.19a1,1,0,0,1,0,2Z"/><path class="cls-4" d="M447.69,270.94h0l-140.76-1.4a1,1,0,0,1,0-2h0l140.76,1.4a1,1,0,0,1,1,1A1,1,0,0,1,447.69,270.94Z"/><path class="cls-5" d="M297.56,345.74a16,16,0,1,1,16-16A16,16,0,0,1,297.56,345.74Z"/><path class="cls-6" d="M297.56,346.76a17,17,0,1,1,17-17A17,17,0,0,1,297.56,346.76Zm0-31.95a15,15,0,1,0,14.95,15A15,15,0,0,0,297.56,314.81Z"/><path class="cls-6" d="M299.94,337.52h-3.28v-9l0-1.48.05-1.61c-.54.54-.92.9-1.13,1.07L293.83,328l-1.59-2,5-4h2.7Z"/><path class="cls-5" d="M297.56,393.07a16,16,0,1,1,16-16A16,16,0,0,1,297.56,393.07Z"/><path class="cls-6" d="M297.56,394.09a17,17,0,1,1,17-17A17,17,0,0,1,297.56,394.09Zm0-31.95a15,15,0,1,0,14.95,15A15,15,0,0,0,297.56,362.14Z"/><path class="cls-5" d="M297.56,440.4a16,16,0,1,1,16-16A16,16,0,0,1,297.56,440.4Z"/><path class="cls-6" d="M297.56,441.42a17,17,0,1,1,17-17A17,17,0,0,1,297.56,441.42Zm0-31.95a15,15,0,1,0,14.95,15A15,15,0,0,0,297.56,409.47Z"/><path class="cls-5" d="M297.56,487.74a16,16,0,1,1,16-16A16,16,0,0,1,297.56,487.74Z"/><path class="cls-6" d="M297.56,488.76a17,17,0,1,1,17-17A17,17,0,0,1,297.56,488.76Zm0-32a15,15,0,1,0,14.95,15A15,15,0,0,0,297.56,456.8Z"/><path class="cls-6" d="M302.89,384.15h-9.71v-2l3.48-3.52c1-1.06,1.71-1.79,2-2.2a5.09,5.09,0,0,0,.68-1.14,2.88,2.88,0,0,0,.21-1.08,1.57,1.57,0,0,0-.46-1.25,1.81,1.81,0,0,0-1.23-.41,3.65,3.65,0,0,0-1.57.37,8.28,8.28,0,0,0-1.59,1.06L293.14,372a10.43,10.43,0,0,1,1.7-1.24,6.29,6.29,0,0,1,1.47-.55,7.54,7.54,0,0,1,1.79-.2,5.25,5.25,0,0,1,2.3.48,3.67,3.67,0,0,1,1.55,1.33,3.59,3.59,0,0,1,.55,2,4.69,4.69,0,0,1-.34,1.8,6.8,6.8,0,0,1-1,1.72,26.78,26.78,0,0,1-2.5,2.52l-1.79,1.68v.13h6.06Z"/><path class="cls-6" d="M302.31,421.18a3.22,3.22,0,0,1-.77,2.17,4,4,0,0,1-2.17,1.23v.06a4.26,4.26,0,0,1,2.49,1,2.77,2.77,0,0,1,.85,2.14,3.64,3.64,0,0,1-1.42,3.06,6.57,6.57,0,0,1-4.07,1.1,9.87,9.87,0,0,1-3.93-.74v-2.45a8.35,8.35,0,0,0,1.74.65,7.2,7.2,0,0,0,1.88.25,3.66,3.66,0,0,0,2.1-.48,1.75,1.75,0,0,0,.68-1.55,1.4,1.4,0,0,0-.78-1.36,5.72,5.72,0,0,0-2.49-.4h-1v-2.21h1.06a5,5,0,0,0,2.31-.41,1.5,1.5,0,0,0,.73-1.42c0-1-.65-1.55-1.94-1.55a4.71,4.71,0,0,0-1.36.22,6.56,6.56,0,0,0-1.54.78l-1.33-2a7.42,7.42,0,0,1,4.44-1.34,5.76,5.76,0,0,1,3.34.86A2.76,2.76,0,0,1,302.31,421.18Z"/><path class="cls-7" d="M461,322.91H332.22a1,1,0,0,1,0-2H461a1,1,0,1,1,0,2Z"/><path class="cls-7" d="M429.19,338.66h-97a1,1,0,1,1,0-2h97a1,1,0,1,1,0,2Z"/><path class="cls-7" d="M398.73,370.24H332.22a1,1,0,0,1,0-2h66.51a1,1,0,0,1,0,2Z"/><path class="cls-7" d="M423.12,386h-90.9a1,1,0,0,1,0-2h90.9a1,1,0,0,1,0,2Z"/><path class="cls-7" d="M449.33,417.58H332.22a1,1,0,0,1,0-2H449.33a1,1,0,1,1,0,2Z"/><path class="cls-7" d="M411,433.32H332.22a1,1,0,0,1,0-2H411a1,1,0,0,1,0,2Z"/><path class="cls-7" d="M461.66,464.91H332.22a1,1,0,1,1,0-2H461.66a1,1,0,0,1,0,2Z"/><path class="cls-7" d="M422.26,480.65h-90a1,1,0,0,1,0-2h90a1,1,0,0,1,0,2Z"/><path class="cls-7" d="M684.16,464.19a18.33,18.33,0,0,1-14.35-6.88L579.35,344.4a18.37,18.37,0,0,1,28.68-23l90.45,112.9a18.37,18.37,0,0,1-14.32,29.86Z"/><path class="cls-7" d="M472.58,352.24a18.37,18.37,0,0,1-1.05-36.71l65.59-3.83a18.37,18.37,0,1,1,2.14,36.68l-65.59,3.83C473.31,352.23,472.94,352.24,472.58,352.24Z"/><path class="cls-7" d="M564.31,336l-9.63,72.78,23.76,64.1a56.11,56.11,0,0,0,54.3,38.62l41.35-.72,30.06-81.38-20.88-2.61L622.89,331.4Z"/><path class="cls-3" d="M862.24,393.56h0c25.44,54.36-13.09,117-73.08,118.81l-101.49,3.07A26.68,26.68,0,0,1,661,494.28l-11-52.35c-.14-.66-.26-1.32-.37-2a41.87,41.87,0,0,1,31.53-47.35l119.46-28.73A54.12,54.12,0,0,1,862.24,393.56Z"/><path class="cls-7" d="M581.79,401.37A18.37,18.37,0,0,1,563.87,387L552.5,335.76l-35.91-11-39.77-4.19a18.37,18.37,0,0,1,3.84-36.54l41.53,4.37a19.19,19.19,0,0,1,3.45.7l47.84,14.63A18.34,18.34,0,0,1,586,317.34L599.74,379a18.38,18.38,0,0,1-18,22.36Z"/><path class="cls-7" d="M577.06,414.49A18.37,18.37,0,0,1,561,387.25l25.32-45.95L568.5,312.38l-38.88-18.9a18.37,18.37,0,1,1,16.06-33.05l43.69,21.24a18.24,18.24,0,0,1,7.62,6.89l26.22,42.6a18.37,18.37,0,0,1,.45,18.49L593.17,405A18.36,18.36,0,0,1,577.06,414.49Z"/><path class="cls-7" d="M489.38,401.83a18.38,18.38,0,0,1-15.29-28.54l33.83-50.91a18.32,18.32,0,0,1,15.4-8.21l70.47.37a18.38,18.38,0,0,1-.1,36.75h-.1L533,351,504.7,393.62A18.37,18.37,0,0,1,489.38,401.83Z"/><path class="cls-2" d="M574.73,366.3a12.37,12.37,0,0,1-5.38-23.51L668,295.17a12.37,12.37,0,0,1,10.75,22.28L580.1,365.07A12.25,12.25,0,0,1,574.73,366.3Z"/><path class="cls-2" d="M472.12,414.31a12.37,12.37,0,0,1-5.25-23.57l102.61-48A12.37,12.37,0,1,1,580,365.13l-102.62,48A12.17,12.17,0,0,1,472.12,414.31Z"/><path class="cls-4" d="M461,412.61a5.46,5.46,0,0,1-2.31-10.4l6.38-3a5.46,5.46,0,1,1,4.63,9.89l-6.39,3A5.42,5.42,0,0,1,461,412.61Z"/><path class="cls-7" d="M568.47,442.75a22.55,22.55,0,0,1-11.28-42.08l41.24-23.78A22.54,22.54,0,1,1,621,416l-41.24,23.78A22.41,22.41,0,0,1,568.47,442.75Z"/><path class="cls-7" d="M581.8,451.27a19.59,19.59,0,0,1-8-1.73L504.5,418.39a19.59,19.59,0,0,1,16.06-35.73l69.28,31.16a19.59,19.59,0,0,1-8,37.45Z"/><path class="cls-4" d="M679.2,310.9A7.46,7.46,0,0,1,676,296.69l5-2.32a7.46,7.46,0,0,1,6.32,13.51l-4.95,2.32A7.44,7.44,0,0,1,679.2,310.9Z"/><circle class="cls-5" cx="697.68" cy="484.27" r="13.53" transform="translate(107.91 1095.37) rotate(-80.78)"/><polygon class="cls-5" points="814.56 388.97 817.28 394.12 822.26 396.93 817.28 399.75 814.56 404.89 811.83 399.75 806.85 396.93 811.83 394.12 814.56 388.97"/><polygon class="cls-5" points="799.14 404.16 803.16 411.75 810.51 415.9 803.16 420.06 799.14 427.65 795.12 420.06 787.77 415.9 795.12 411.75 799.14 404.16"/><path class="cls-7" d="M759.85,503.48c9.89,5.54,15.59,14.15,12.74,19.23s-13.16,4.71-23.05-.83c-6.84-3.84-10.31-11.57-11.8-16a3.2,3.2,0,0,1,2.33-4.16C744.6,500.72,753,499.65,759.85,503.48Z"/><path class="cls-7" d="M808.83,506.57c-5.59,5.65-12.47,7.91-15.37,5.05s-.74-9.78,4.84-15.44c3.86-3.91,9.73-4.83,13-5a2.24,2.24,0,0,1,2.38,2.35C813.52,496.77,812.69,502.65,808.83,506.57Z"/><path class="cls-4" d="M776.59,559.57a1,1,0,0,1-1-1c0-22.16-3.45-45.45-10.26-69.21a1,1,0,0,1,2-.56c6.86,23.94,10.34,47.42,10.34,69.77A1,1,0,0,1,776.59,559.57Z"/><path class="cls-4" d="M763.72,481.6a1,1,0,0,1-1-.71c-8.31-26-17.75-43.1-17.84-43.27a1,1,0,1,1,1.78-1c.1.17,9.63,17.39,18,43.64a1,1,0,0,1-.67,1.28A1.06,1.06,0,0,1,763.72,481.6Z"/><circle class="cls-6" cx="750.25" cy="449.79" r="19.17" transform="translate(228.73 1152.07) rotate(-84.35)"/><path class="cls-7" d="M789.7,559.57a1,1,0,0,1-1-1c0-.6-1-59.94,14-102.61a1,1,0,1,1,1.92.67c-14.87,42.32-13.88,101.31-13.87,101.9a1,1,0,0,1-1,1Z"/><polygon class="cls-6" points="820.02 460.37 806.46 446.81 787.94 451.77 782.98 470.29 796.54 483.85 815.06 478.88 820.02 460.37"/><path class="cls-5" d="M750.25,452.28c-10.27,0-20.67-2.41-20.67-7a1,1,0,0,1,2,0c0,2.08,7.09,5,18.63,5s18.64-2.9,18.64-5a1,1,0,0,1,2,0C770.93,449.87,760.53,452.28,750.25,452.28Z"/><path class="cls-5" d="M750.25,452.28c-10.27,0-20.67-2.41-20.67-7a1,1,0,0,1,2,0c0,2.08,7.09,5,18.63,5s18.64-2.9,18.64-5a1,1,0,0,1,2,0C770.93,449.87,760.53,452.28,750.25,452.28Z"/><path class="cls-5" d="M766.11,457.41c-4.37,0-11.06-2.56-17.14-6.07-8.9-5.13-16.7-12.42-14.4-16.41a1,1,0,1,1,1.77,1c-1,1.8,3.65,7.86,13.65,13.62s17.6,6.8,18.64,5a1,1,0,0,1,1.76,1C769.66,456.86,768.14,457.41,766.11,457.41Z"/><path class="cls-5" d="M766.11,457.41c-4.37,0-11.06-2.56-17.14-6.07-8.9-5.13-16.7-12.42-14.4-16.41a1,1,0,1,1,1.77,1c-1,1.8,3.65,7.86,13.65,13.62s17.6,6.8,18.64,5a1,1,0,0,1,1.76,1C769.66,456.86,768.14,457.41,766.11,457.41Z"/><path class="cls-5" d="M783,471.31a1,1,0,0,1-.26-2l37-9.92a1,1,0,0,1,.53,2l-37,9.92A.75.75,0,0,1,783,471.31Z"/><path class="cls-5" d="M801.5,466.35a1,1,0,0,1-.72-.3l-13.56-13.56a1,1,0,0,1,1.44-1.44l13.56,13.56a1,1,0,0,1-.72,1.74Z"/><path class="cls-4" d="M822.65,559.64H572.71a1,1,0,0,1,0-2H822.65a1,1,0,0,1,0,2Z"/><path class="cls-4" d="M597.44,559.68H347a1,1,0,0,1,0-2H597.44a1,1,0,0,1,0,2Z"/><path class="cls-4" d="M317,559.68H171.78a1,1,0,0,1,0-2H317a1,1,0,1,1,0,2Z"/><path class="cls-4" d="M272.71,559.64H1a1,1,0,1,1,0-2H272.71a1,1,0,1,1,0,2Z"/><path class="cls-7" d="M136.9,538.08c6.8,6.89,15.19,9.65,18.73,6.15s.9-11.91-5.9-18.81c-4.71-4.77-11.87-5.89-15.83-6.12a2.74,2.74,0,0,0-2.91,2.87C131.17,526.13,132.19,533.31,136.9,538.08Z"/><path class="cls-4" d="M164.36,559.64a1,1,0,0,1-1-.95c0-.18-1.23-18.4-.18-42.78,1-22.53,4.14-55.08,13.69-82.27a1,1,0,1,1,1.93.67c-18.14,51.62-13.45,123.52-13.4,124.24a1,1,0,0,1-.95,1.09Z"/><path class="cls-4" d="M157.51,559.64h0a1,1,0,0,1-1-1c.4-33.43-8.94-53.52-16-65.72a1,1,0,1,1,1.76-1c7.18,12.42,16.68,32.84,16.27,66.77A1,1,0,0,1,157.51,559.64Z"/><path class="cls-7" d="M177.62,454.94c-1.33,5.71-4.79,9.78-7.72,9.09s-4.23-5.86-2.9-11.57c.93-3.94,4.27-6.78,6.24-8.15a1.65,1.65,0,0,1,2.4.56C176.8,447,178.54,451,177.62,454.94Z"/><path class="cls-6" d="M198.4,438.64a4,4,0,0,0-2.73-6.07h0a7.59,7.59,0,0,0-7.93,3.58L178,454.21a5.94,5.94,0,0,1-6.57,3h0a5.93,5.93,0,0,1-4.58-5.57l-.73-20.5a7.56,7.56,0,0,0-5.52-6.71h0a5.27,5.27,0,0,0-5.09,5.47s.91,27.06,1,27.61l0,.25A11,11,0,0,0,165,467l7.9,1.85a11.06,11.06,0,0,0,11.69-4.6l0,0Z"/><path class="cls-3" d="M133,475.24h0L139.29,463a4.71,4.71,0,0,0-3.51-6.81h0a4.71,4.71,0,0,0-5.3,5.53Z"/><path class="cls-3" d="M127.61,479.27h0l-13.53,2.53a4.7,4.7,0,0,1-5.52-5.3h0a4.71,4.71,0,0,1,6.81-3.51Z"/><path class="cls-3" d="M131.46,484.44h0l-6.28,12.24a4.72,4.72,0,0,0,3.51,6.81h0A4.71,4.71,0,0,0,134,498Z"/><path class="cls-3" d="M136.86,480.41h0l13.53-2.53a4.71,4.71,0,0,1,5.52,5.31h0a4.7,4.7,0,0,1-6.8,3.51Z"/><path class="cls-3" d="M129.53,476.05h0L125.32,463a4.71,4.71,0,0,0-7.3-2.34h0a4.71,4.71,0,0,0,.16,7.66Z"/><path class="cls-3" d="M128.56,482.71h0l-7.77,11.35a4.71,4.71,0,0,1-7.66.16h0a4.71,4.71,0,0,1,2.33-7.3Z"/><path class="cls-3" d="M134.94,483.64h0l4.22,13.1a4.7,4.7,0,0,0,7.29,2.33h0a4.71,4.71,0,0,0-.15-7.66Z"/><path class="cls-3" d="M135.91,477h0l7.78-11.35a4.7,4.7,0,0,1,7.65-.15h0a4.7,4.7,0,0,1-2.33,7.29Z"/><path class="cls-4" d="M210,265.49a54.75,54.75,0,0,1-51.31-36c-.06-.18-.13-.37-.2-.55A54.28,54.28,0,0,1,156.7,199l-14.44-5.89-1.47,3.6a1.06,1.06,0,0,1-.54.56,1.08,1.08,0,0,1-.79,0L64.83,166.89a1,1,0,0,1-.56-1.33l8.22-20.19a1,1,0,0,1,.55-.55,1,1,0,0,1,.78,0l74.64,30.43a1,1,0,0,1,.56.55,1.05,1.05,0,0,1,0,.78l-1.42,3.48,14,5.69a54.55,54.55,0,0,1,99.66,6.67c.07.18.14.37.2.55h0A54.61,54.61,0,0,1,210,265.49ZM141.7,190.8a1.09,1.09,0,0,1,.39.08l16.18,6.6a1,1,0,0,1,.61,1.18,52.23,52.23,0,0,0,1.49,29.57c.06.17.13.35.19.53a52.49,52.49,0,0,0,98.94-35.12c-.06-.18-.12-.36-.19-.54A52.49,52.49,0,0,0,163,187.5a1,1,0,0,1-1.29.49l-15.78-6.43a1.07,1.07,0,0,1-.56-.55,1,1,0,0,1,0-.78l1.42-3.49L74,147.09l-7.46,18.29L139.29,195l1.47-3.6a1,1,0,0,1,.94-.64Z"/><path class="cls-4" d="M469.77,559.28a1,1,0,0,1-1-1c-.17-14,3.33-30.55,8.7-41.3a1,1,0,1,1,1.82.91c-5.24,10.48-8.64,26.7-8.48,40.36a1,1,0,0,1-1,1Z"/><rect class="cls-6" x="473.9" y="511.45" width="9.88" height="9.88" transform="translate(1166.34 363.72) rotate(120.32)"/><path class="cls-7" d="M473.31,509.11a3.51,3.51,0,1,0,2.5-4.29A3.51,3.51,0,0,0,473.31,509.11Z"/><path class="cls-7" d="M477.59,525.45a3.51,3.51,0,1,0,2.51-4.28A3.51,3.51,0,0,0,477.59,525.45Z"/><path class="cls-7" d="M487.91,517.64a3.5,3.5,0,1,0-4.29-2.5A3.51,3.51,0,0,0,487.91,517.64Z"/><path class="cls-7" d="M472,521.82a3.5,3.5,0,1,0-4.28-2.5A3.5,3.5,0,0,0,472,521.82Z"/><path class="cls-7" d="M448.76,538.67c4,3.63,8.76,4.9,10.63,2.85s.13-6.67-3.87-10.3c-2.77-2.51-6.8-2.91-9-2.92A1.53,1.53,0,0,0,445,530C445.2,532.19,446,536.16,448.76,538.67Z"/><path class="cls-4" d="M458,521.28a1,1,0,0,1-1-.86,168.73,168.73,0,0,0-4.09-18.74,1,1,0,0,1,2-.56,168.39,168.39,0,0,1,4.14,19,1,1,0,0,1-.84,1.17Z"/><path class="cls-4" d="M461.08,559.28h0a1,1,0,0,1-1-1,247.78,247.78,0,0,0-2.18-31.9,1,1,0,0,1,.87-1.14,1,1,0,0,1,1.15.87,248.22,248.22,0,0,1,2.2,32.2A1,1,0,0,1,461.08,559.28Z"/><path class="cls-7" d="M451.87,498.54a3.35,3.35,0,1,0-4.43-1.66A3.35,3.35,0,0,0,451.87,498.54Z"/><path class="cls-6" d="M441.44,503.16a11.66,11.66,0,1,0,12.64-16.31l0,6.93a4.12,4.12,0,0,1-2.42,3.77h0a4.09,4.09,0,0,1-4.43-.66l-5.2-4.58A11.67,11.67,0,0,0,441.44,503.16Z"/><path class="cls-3" d="M455.36,489a2.46,2.46,0,1,0-3.27-1.22A2.46,2.46,0,0,0,455.36,489Z"/><path class="cls-3" d="M442.8,494.68a2.46,2.46,0,1,0-3.27-1.22A2.47,2.47,0,0,0,442.8,494.68Z"/><path class="cls-4" d="M339.82,251.31a2.2,2.2,0,0,0,.44-1.57V239.63a.33.33,0,0,1,.38-.38h2.41a.33.33,0,0,1,.38.38v10.3a5.35,5.35,0,0,1-1,3.61,4.48,4.48,0,0,1-3.47,1.15H320.78a4.38,4.38,0,0,1-3.4-1.15,5.4,5.4,0,0,1-1-3.61V242a.33.33,0,0,1,.37-.38h2.42a.34.34,0,0,1,.38.38v7.7a2.2,2.2,0,0,0,.43,1.57,1.89,1.89,0,0,0,1.38.43h17.06A1.92,1.92,0,0,0,339.82,251.31Zm-13.45-13.57a.34.34,0,0,1-.38-.38v-2.75a.33.33,0,0,1,.38-.38h2.57c.25,0,.37.12.37.38v2.75a.33.33,0,0,1-.37.38Zm4.6,0a.33.33,0,0,1-.37-.38v-2.75c0-.26.12-.38.37-.38h2.57a.33.33,0,0,1,.38.38v2.75a.34.34,0,0,1-.38.38Z"/><path class="cls-4" d="M348.22,229.4a.34.34,0,0,1,.38-.38H351a.33.33,0,0,1,.37.38v20.34a2.2,2.2,0,0,0,.44,1.57,1.89,1.89,0,0,0,1.38.43h1.66a1.34,1.34,0,0,1,1.51,1.51c0,.63-.12,1-.36,1.19a2,2,0,0,1-1.15.25h-2.23a4.37,4.37,0,0,1-3.4-1.15,5.35,5.35,0,0,1-1-3.61Z"/><path class="cls-4" d="M355.13,254.69a1.94,1.94,0,0,1-1.13-.27,1.21,1.21,0,0,1-.38-1,1.78,1.78,0,0,1,.36-1.29,1.66,1.66,0,0,1,1.15-.34h2.57a1.85,1.85,0,0,0,1.37-.43,2.2,2.2,0,0,0,.44-1.57V239.63a.33.33,0,0,1,.38-.38h2.41a.33.33,0,0,1,.38.38v9.55a2.2,2.2,0,0,0,.92,1.92,4.28,4.28,0,0,0,2.48.64h.45a1.73,1.73,0,0,1,1.13.32,1.37,1.37,0,0,1,.38,1.08c0,.65-.12,1.08-.36,1.26a1.85,1.85,0,0,1-1.15.29h-.83a4.41,4.41,0,0,1-2.11-.49,3.3,3.3,0,0,1-1.4-1.48c-.63,1.31-1.94,2-3.93,2Zm1.93,7a.33.33,0,0,1-.38-.38v-2.76c0-.25.12-.37.38-.37h2.56a.33.33,0,0,1,.38.37v2.76a.34.34,0,0,1-.38.38Zm4.6,0a.34.34,0,0,1-.38-.38v-2.76a.33.33,0,0,1,.38-.37h2.57a.32.32,0,0,1,.37.37v2.76a.33.33,0,0,1-.37.38Z"/><path class="cls-4" d="M366.53,254.69a1.94,1.94,0,0,1-1.13-.27,1.21,1.21,0,0,1-.38-1,1.78,1.78,0,0,1,.36-1.29,1.66,1.66,0,0,1,1.15-.34h2.38a1.89,1.89,0,0,0,1.38-.43,2.25,2.25,0,0,0,.43-1.57V229.4a.34.34,0,0,1,.38-.38h2.41a.34.34,0,0,1,.38.38v20.53a5.35,5.35,0,0,1-1,3.61,4.37,4.37,0,0,1-3.4,1.15Z"/><path class="cls-4" d="M379.17,229.4a.34.34,0,0,1,.38-.38H382a.33.33,0,0,1,.37.38v20.34a2.2,2.2,0,0,0,.44,1.57,1.89,1.89,0,0,0,1.38.43h1.66a1.34,1.34,0,0,1,1.51,1.51c0,.63-.12,1-.36,1.19a2,2,0,0,1-1.15.25h-2.23a4.38,4.38,0,0,1-3.4-1.15,5.35,5.35,0,0,1-1-3.61Z"/><path class="cls-4" d="M396.08,238.57c2.7,0,4.68.53,6,1.58a5.31,5.31,0,0,1,1.92,4.31,7,7,0,0,1-.39,2.32,9.72,9.72,0,0,1-1,2,10.25,10.25,0,0,1-1.4,1.66,8.36,8.36,0,0,1-1.53,1.19,2,2,0,0,0,.55.07h6.13a2,2,0,0,1,1.14.27,1.21,1.21,0,0,1,.37,1.05,1.78,1.78,0,0,1-.36,1.29,1.64,1.64,0,0,1-1.15.34H401a12.62,12.62,0,0,1-2.58-.25,7,7,0,0,1-2.33-.92,8.55,8.55,0,0,1-2.64.92,14,14,0,0,1-2.49.25h-5.13a1.34,1.34,0,0,1-1.51-1.51c0-.63.12-1,.36-1.19a2,2,0,0,1,1.15-.25h4.87c.32,0,.76,0,1.3-.05a10.42,10.42,0,0,0,1.91-.36,11.27,11.27,0,0,0-.82-2.57,8.78,8.78,0,0,0-1.19-1.87,8.61,8.61,0,0,0-1.49-1.41c-.54-.41-1.09-.81-1.64-1.21a1.2,1.2,0,0,1-.43-.4.65.65,0,0,1-.1-.36v-2.26a.84.84,0,0,1,.38-.76c.3-.17.7-.37,1.19-.6a13.57,13.57,0,0,1,1.7-.64,14.56,14.56,0,0,1,2.13-.49A14.93,14.93,0,0,1,396.08,238.57Zm0,2.94a11.11,11.11,0,0,0-3,.36,7.35,7.35,0,0,0-1.7.63,10.83,10.83,0,0,1,3.38,3.05,12.69,12.69,0,0,1,2.1,4.68,10.39,10.39,0,0,0,1.28-1,9.91,9.91,0,0,0,1.23-1.28,7,7,0,0,0,.9-1.55,4.47,4.47,0,0,0,.36-1.76,3,3,0,0,0-.36-1.54,2.7,2.7,0,0,0-1-1,4.75,4.75,0,0,0-1.45-.51A10.41,10.41,0,0,0,396.08,241.51Z"/><path class="cls-4" d="M406.58,254.69a1.85,1.85,0,0,1-1.15-.29c-.24-.18-.36-.61-.36-1.26a1.37,1.37,0,0,1,.37-1.08,1.76,1.76,0,0,1,1.14-.32h4.26a9.65,9.65,0,0,1-1.09-4.94,11.13,11.13,0,0,1,.55-3.72,6.86,6.86,0,0,1,1.52-2.57,6.25,6.25,0,0,1,2.29-1.47,8.44,8.44,0,0,1,2.85-.47,7.11,7.11,0,0,1,5.28,1.94c1.28,1.3,1.93,3.39,1.93,6.29a11.54,11.54,0,0,1-.51,3.66,6,6,0,0,1-1.44,2.43,5.51,5.51,0,0,1-2.26,1.36,9.65,9.65,0,0,1-3,.44ZM417,241.51a3.55,3.55,0,0,0-3,1.36,6,6,0,0,0-1,3.7,6.4,6.4,0,0,0,1,4,3.71,3.71,0,0,0,3.08,1.19,3.85,3.85,0,0,0,3.07-1.11,5.84,5.84,0,0,0,1-3.83,6.72,6.72,0,0,0-1-3.89A3.46,3.46,0,0,0,417,241.51Zm-1.32-6a.33.33,0,0,1-.38-.38v-2.75a.33.33,0,0,1,.38-.38h2.56a.34.34,0,0,1,.38.38v2.75a.33.33,0,0,1-.38.38Z"/></g></g></svg>