<svg xmlns="http://www.w3.org/2000/svg" viewBox="0 0 959.68 489.56"><defs><style>.cls-1{fill:#dce5f7;}.cls-2{fill:#1e1e1e;}.cls-3{fill:#dddad3;}.cls-4{fill:#b78f8f;}.cls-5,.cls-7{fill:#cf8282;}.cls-6{fill:#fff;}.cls-7{opacity:0.65;}</style></defs><title>Asset 5</title><g id="Layer_2" data-name="Layer 2"><g id="Layer_2-2" data-name="Layer 2"><path class="cls-1" d="M170.19,106.65H19.27a20.29,20.29,0,0,1,.16-3.6h0a32.61,32.61,0,0,1,3.92-11.53c3.19-5.63,8-9.78,13.34-8.5a11.87,11.87,0,0,1,5.07,2.82c2.59,2.3,4.67,5.11,7.23,7.43s5.84,4.18,9.28,3.93c4.32-.32,7.42-4.18,8.07-8.24C67.89,79.17,67.79,59.85,80,57.17l.69-.13c10.45-1.79,17.66,8.42,20.44,17.57a31.25,31.25,0,0,1,.78,3.06,39.77,39.77,0,0,1,.88,7.64c0,.16,0,.33,0,.5.09.7.18,1.41.3,2.1a16.61,16.61,0,0,0,1.45,4.76,2.16,2.16,0,0,0,1.26,1.27c1.67.4,3.07-1.53,4-3.07.27-.44.5-.84.7-1.15,3-4.81,11.39-8,15.17-2.25,2.64,4,.44,11.89,5.94,13.9,6.3,2.31,7.89-6,8.45-10.23.68-5.22.57-10.57,2.11-15.65.65-1.52,1.74-3.26,3.48-3.47a4.5,4.5,0,0,1,3.91,2.82c1.93,4.68,2.46,9.74,3.16,14.71.58,4,1.36,12.92,6.72,13.42,2.85.27,5.42-4.82,8.06-2.56C169.27,101.83,169.19,104.82,170.19,106.65Z"/><path class="cls-2" d="M840.36,488.66s-141.24-.07-286-.11c-152,0-307.93,0-308.26.11H103.87a122.8,122.8,0,0,1-1.58-27.7h0l.15-2.26c0-.73.1-1.23.11-1.43a252.49,252.49,0,0,1,8.2-36.66,197.46,197.46,0,0,1,21.58-48.2c11.2-17.77,25.76-33.2,44.26-43.93a176.21,176.21,0,0,1,58.22-21.31c33.69-5.79,68.6-.79,98.08,19.29,17.73,12.07,34.12,30.72,56.45,33.62,18.85,2.45,30-7.9,36.73-22.05,5.45-11.48,7.94-25.46,9.18-37.12,7.48-70.09,13.42-179.28,98.9-199.44,15.1-3.57,27.94-.63,38.74,6.16,21.25,13.37,34.7,41.71,42.38,65,12.4,37.55,19.21,78.25,34.68,114.61,11.47,26.93,34.21,43.25,64.11,39.25a71.36,71.36,0,0,1,29,2.1c21.28,5.94,40,21,54,38.87a149.23,149.23,0,0,1,13.22,20C826.67,417.4,833.68,455.14,840.36,488.66Z"/><polygon class="cls-3" points="303.84 64.98 306.15 69.34 310.38 71.73 306.15 74.12 303.84 78.49 301.53 74.12 297.3 71.73 301.53 69.34 303.84 64.98"/><polygon class="cls-4" points="699.15 269.29 701.47 273.66 705.69 276.05 701.47 278.43 699.15 282.8 696.84 278.43 692.62 276.05 696.84 273.66 699.15 269.29"/><polygon class="cls-4" points="226.18 257.01 228.49 261.38 232.72 263.76 228.49 266.15 226.18 270.52 223.87 266.15 219.64 263.76 223.87 261.38 226.18 257.01"/><path class="cls-4" d="M220.13,194.93a.84.84,0,0,1-.78-1.14l5.87-15.23-15.56,5.57a.85.85,0,0,1-.86-.19.84.84,0,0,1-.22-.86l5.76-17.71a.84.84,0,1,1,1.6.52L210.7,182l15.68-5.61a.84.84,0,0,1,1.06,1.09l-5.86,15.21L237,187a.84.84,0,1,1,.59,1.57l-17.12,6.36A.93.93,0,0,1,220.13,194.93Z"/><path class="cls-2" d="M108.66,274.67a1,1,0,0,1-.29-2,37.43,37.43,0,0,0,10-4.52,15.18,15.18,0,0,1-4.59-3.41c-1.49-1.62-2.09-3.2-1.77-4.71a5,5,0,0,1,2.86-3.28,7.16,7.16,0,0,1,6.24-.05,5.84,5.84,0,0,1,3.2,4.26,7.48,7.48,0,0,1-1.91,6.36,11.53,11.53,0,0,0,4.1,0,9.73,9.73,0,0,0,7.49-6,1,1,0,0,1,1.37-.54,1,1,0,0,1,.54,1.36,11.78,11.78,0,0,1-9,7.27,13.85,13.85,0,0,1-6.2-.39c-3.55,2.92-8.72,4.76-11.67,5.64A1,1,0,0,1,108.66,274.67Zm9.39-16.62a5.14,5.14,0,0,0-2.27.53,3.21,3.21,0,0,0-1.76,1.85c-.21,1,.57,2.12,1.27,2.88a13.13,13.13,0,0,0,4.86,3.33c1.55-1.52,2.47-3.31,2.1-5.34a3.77,3.77,0,0,0-2.08-2.77A4.81,4.81,0,0,0,118.05,258.05Z"/><path class="cls-1" d="M944.4,96.87c-2.13,1-3.59,2.85-5.68,3.91-10.84,5.49-10.22-14.34-10.18-20.07.1-12.06-.42-27.55-15.42-30.24-9.56-1.71-18.73,4.69-21.06,14.13-2.92,11.82,1.77,45.29-20.25,40.72-5.86-1.22-10.22-6-13.79-10.85-4.52-6.08-8.94-12.87-16.95-14.32C828.94,78,816.69,85,808.39,93.26a57,57,0,0,0-12.64,19.89s0,.14-.06.14l23.43,0,31.06,0c8.84,0,109.5-.15,109.5-.08C959.06,105.69,954.93,91.91,944.4,96.87Z"/><path class="cls-4" d="M840.36,488.66s-141.24-.07-286-.11L426.07,338c5.45-11.48,7.94-25.46,9.18-37.12,7.48-70.09,13.42-179.28,98.9-199.44,15.1-3.57,27.94-.63,38.74,6.16,21.25,13.37,34.7,41.71,42.38,65,12.4,37.55,19.21,78.25,34.68,114.61,11.47,26.93,34.21,43.25,64.11,39.25a71.36,71.36,0,0,1,29,2.1c21.28,5.94,40,21,54,38.87a149.23,149.23,0,0,1,13.22,20C826.67,417.4,833.68,455.14,840.36,488.66Z"/><path class="cls-2" d="M462.52,432.25A144,144,0,1,1,606.13,277.61a.88.88,0,0,1-.8.93.87.87,0,0,1-.93-.8C599,203.87,536.68,146,462.52,146c-78.44,0-142.25,63.82-142.25,142.26s63.81,142.26,142.25,142.26a142.24,142.24,0,0,0,125.19-74.64.87.87,0,0,1,1.53.83A144,144,0,0,1,462.52,432.25Z"/><path class="cls-1" d="M582.77,288.26A120.24,120.24,0,1,1,462.53,168,119.8,119.8,0,0,1,582.77,288.26Z"/><path class="cls-5" d="M461.22,468.09h0c-1.17,0-2.37,0-3.55-.06a.87.87,0,1,1,0-1.73l3.51.06a.87.87,0,0,1,0,1.73Zm7.06-.08a.87.87,0,0,1,0-1.73c1.16,0,2.34-.09,3.5-.15a.87.87,0,1,1,.09,1.73l-3.54.15Zm-17.66-.3h-.05c-1.19-.07-2.38-.16-3.54-.26a.87.87,0,0,1,.14-1.73c1.16.1,2.34.19,3.51.27a.87.87,0,0,1-.06,1.73Zm28.24-.35a.87.87,0,0,1-.08-1.73c1.17-.1,2.35-.22,3.49-.35a.88.88,0,0,1,1,.77.86.86,0,0,1-.77.95c-1.15.13-2.34.25-3.53.36Zm-38.79-.66H440c-1.17-.14-2.35-.3-3.51-.47a.86.86,0,1,1,.24-1.71l3.49.47a.86.86,0,0,1-.11,1.72Zm49.3-.6a.86.86,0,0,1-.85-.74.87.87,0,0,1,.73-1c1.14-.17,2.31-.36,3.46-.55a.86.86,0,0,1,1,.71.85.85,0,0,1-.71,1c-1.16.2-2.34.39-3.5.57Zm-59.77-1h-.16l-3.48-.68a.88.88,0,0,1-.68-1,.87.87,0,0,1,1-.67c1.14.24,2.3.46,3.45.68a.86.86,0,0,1-.16,1.71Zm70.2-.86a.87.87,0,0,1-.85-.69.86.86,0,0,1,.67-1c1.15-.25,2.3-.5,3.43-.77a.88.88,0,0,1,1,.65.86.86,0,0,1-.65,1c-1.14.27-2.3.52-3.46.77Zm-80.56-1.38-.21,0c-1.14-.28-2.3-.58-3.44-.89a.86.86,0,0,1,.45-1.67c1.13.3,2.28.6,3.41.88a.87.87,0,0,1-.21,1.71Zm90.86-1.13a.86.86,0,0,1-.23-1.7c1.13-.31,2.26-.63,3.37-1a.87.87,0,0,1,.5,1.66c-1.12.33-2.27.66-3.41,1ZM409,460a1.27,1.27,0,0,1-.26,0c-1.12-.36-2.26-.72-3.39-1.1a.86.86,0,0,1,.55-1.64c1.12.37,2.25.74,3.36,1.08A.87.87,0,0,1,409,460Zm111.2-1.38a.87.87,0,0,1-.82-.59.85.85,0,0,1,.54-1.09c1.09-.38,2.21-.77,3.31-1.17a.87.87,0,1,1,.59,1.63c-1.11.4-2.24.8-3.35,1.17A.65.65,0,0,1,520.23,458.59ZM399,456.49a.8.8,0,0,1-.3-.06c-1.11-.42-2.23-.86-3.32-1.3a.86.86,0,1,1,.65-1.6c1.08.43,2.18.87,3.28,1.28a.87.87,0,0,1-.31,1.68Zm131.17-1.61a.88.88,0,0,1-.8-.54.87.87,0,0,1,.47-1.13c1.08-.44,2.17-.9,3.24-1.36a.87.87,0,1,1,.69,1.59c-1.09.47-2.19.93-3.27,1.37A.78.78,0,0,1,530.15,454.88Zm-141-2.46a.77.77,0,0,1-.35-.08c-1.08-.48-2.17-1-3.23-1.49a.86.86,0,0,1,.74-1.56c1.05.49,2.13,1,3.2,1.47a.86.86,0,0,1,.43,1.15A.85.85,0,0,1,389.16,452.42Zm150.68-1.84a.87.87,0,0,1-.37-1.65c1-.5,2.1-1,3.15-1.55a.87.87,0,0,1,.78,1.55c-1.06.53-2.13,1.06-3.19,1.56A.81.81,0,0,1,539.84,450.58Zm-160.23-2.81a1,1,0,0,1-.4-.09c-1-.55-2.09-1.12-3.13-1.69a.86.86,0,1,1,.83-1.51c1,.56,2.07,1.12,3.1,1.66a.87.87,0,0,1,.37,1.17A.85.85,0,0,1,379.61,447.77Zm169.65-2.06a.86.86,0,0,1-.42-1.62c1-.57,2-1.15,3-1.74a.87.87,0,0,1,1.19.32.86.86,0,0,1-.32,1.18c-1,.59-2,1.18-3.08,1.75A.83.83,0,0,1,549.26,445.71Zm-178.9-3.14a.89.89,0,0,1-.45-.12c-1-.61-2-1.24-3-1.87a.87.87,0,0,1-.27-1.19.85.85,0,0,1,1.19-.27c1,.62,2,1.24,3,1.84a.87.87,0,0,1-.44,1.61Zm188-2.27a.87.87,0,0,1-.47-1.6c1-.63,2-1.27,3-1.92a.87.87,0,0,1,1.2.25.86.86,0,0,1-.24,1.2c-1,.65-2,1.3-3,1.93A.86.86,0,0,1,558.37,440.3Zm-196.94-3.47a.88.88,0,0,1-.49-.15c-1-.67-2-1.36-2.91-2a.87.87,0,0,1,1-1.41c.94.68,1.91,1.36,2.88,2a.86.86,0,0,1,.22,1.2A.83.83,0,0,1,361.43,436.83Zm205.71-2.48a.89.89,0,0,1-.7-.36.87.87,0,0,1,.2-1.21c.94-.68,1.89-1.38,2.83-2.08a.85.85,0,0,1,1.21.17.86.86,0,0,1-.17,1.21c-.94.71-1.91,1.42-2.86,2.1A.8.8,0,0,1,567.14,434.35Zm-214.28-3.78a.83.83,0,0,1-.53-.18c-.92-.72-1.86-1.46-2.78-2.2a.86.86,0,0,1,1.08-1.35l2.76,2.19a.86.86,0,0,1-.53,1.54Zm-8.18-6.74a.85.85,0,0,1-.57-.22c-.89-.77-1.78-1.57-2.65-2.36a.87.87,0,1,1,1.17-1.28c.86.78,1.74,1.57,2.62,2.34a.86.86,0,0,1,.08,1.22A.85.85,0,0,1,344.68,423.83Zm-7.77-7.22a.82.82,0,0,1-.6-.25c-.84-.83-1.69-1.67-2.51-2.52a.86.86,0,1,1,1.24-1.2c.81.83,1.65,1.67,2.48,2.49a.86.86,0,0,1,0,1.22A.87.87,0,0,1,336.91,416.61ZM329.59,409a.86.86,0,0,1-.65-.28c-.78-.87-1.57-1.77-2.35-2.66a.87.87,0,0,1,1.31-1.14c.77.89,1.55,1.78,2.33,2.64a.87.87,0,0,1-.06,1.22A.88.88,0,0,1,329.59,409Zm-6.86-8.07a.87.87,0,0,1-.68-.32c-.74-.93-1.48-1.87-2.19-2.8a.86.86,0,1,1,1.37-1.05c.71.92,1.44,1.85,2.17,2.76a.87.87,0,0,1-.13,1.22A.85.85,0,0,1,322.73,400.88Zm-6.38-8.46a.87.87,0,0,1-.7-.36c-.68-1-1.36-1.94-2-2.92a.86.86,0,1,1,1.43-1c.66,1,1.33,1.94,2,2.89a.85.85,0,0,1-.21,1.2A.83.83,0,0,1,316.35,392.42Zm-5.85-8.82a.87.87,0,0,1-.74-.4c-.62-1-1.24-2-1.84-3a.86.86,0,1,1,1.48-.89c.6,1,1.22,2,1.83,3a.86.86,0,0,1-.28,1.19A.84.84,0,0,1,310.5,383.6Zm-5.33-9.14a.86.86,0,0,1-.76-.45c-.56-1-1.12-2.09-1.66-3.13a.87.87,0,0,1,.37-1.17.88.88,0,0,1,1.17.37c.53,1,1.08,2.08,1.64,3.1a.87.87,0,0,1-.35,1.18A.86.86,0,0,1,305.17,374.46ZM300.4,365a.87.87,0,0,1-.79-.49c-.5-1.07-1-2.15-1.47-3.22a.88.88,0,0,1,.44-1.15.87.87,0,0,1,1.14.44c.48,1.06,1,2.14,1.46,3.19a.87.87,0,0,1-.41,1.15A.83.83,0,0,1,300.4,365Zm-4.2-9.69a.88.88,0,0,1-.81-.55c-.43-1.1-.87-2.21-1.28-3.31a.87.87,0,1,1,1.62-.61c.41,1.09.84,2.19,1.27,3.28a.86.86,0,0,1-.48,1.12A.77.77,0,0,1,296.2,355.33Zm-3.63-10a.86.86,0,0,1-.82-.6c-.37-1.12-.74-2.26-1.08-3.38a.86.86,0,0,1,1.65-.51c.34,1.11.7,2.23,1.07,3.35a.87.87,0,0,1-.55,1.09A.86.86,0,0,1,292.57,345.37Zm-3-10.16a.86.86,0,0,1-.83-.65c-.31-1.14-.6-2.3-.88-3.44a.86.86,0,0,1,1.68-.41c.28,1.13.57,2.28.87,3.41a.87.87,0,0,1-.62,1.06A.78.78,0,0,1,289.54,335.21Zm-2.41-10.32a.87.87,0,0,1-.85-.7c-.23-1.15-.46-2.32-.67-3.49a.85.85,0,0,1,.69-1,.86.86,0,0,1,1,.69c.21,1.15.43,2.32.67,3.46a.87.87,0,0,1-.68,1Zm-1.8-10.45a.88.88,0,0,1-.86-.74c-.16-1.17-.32-2.36-.46-3.53a.87.87,0,0,1,1.72-.2c.14,1.15.29,2.33.46,3.48a.87.87,0,0,1-.74,1Zm-1.17-10.54a.87.87,0,0,1-.87-.79c-.09-1.17-.18-2.37-.25-3.54a.87.87,0,1,1,1.73-.11c.07,1.17.15,2.35.25,3.51a.86.86,0,0,1-.79.93Zm-.56-10.58a.86.86,0,0,1-.86-.85c0-1.18-.05-2.37-.05-3.55a.88.88,0,0,1,.86-.87h0a.87.87,0,0,1,.86.87c0,1.16,0,2.34.05,3.51a.87.87,0,0,1-.85.89Zm.07-10.6h0a.88.88,0,0,1-.84-.9c0-1.18.1-2.37.16-3.55a.87.87,0,0,1,.91-.81.86.86,0,0,1,.82.91c-.06,1.16-.12,2.34-.16,3.51A.86.86,0,0,1,283.67,282.72Zm.68-10.58h-.08a.85.85,0,0,1-.78-.94c.11-1.17.23-2.37.37-3.54a.85.85,0,0,1,1-.76.87.87,0,0,1,.76,1c-.14,1.16-.26,2.34-.37,3.5A.87.87,0,0,1,284.35,272.14Zm1.31-10.54h-.13a.86.86,0,0,1-.73-1c.18-1.16.38-2.34.58-3.51a.86.86,0,0,1,1-.7.87.87,0,0,1,.71,1c-.21,1.15-.4,2.32-.58,3.48A.85.85,0,0,1,285.66,261.6Zm1.93-10.44a.55.55,0,0,1-.18,0,.87.87,0,0,1-.67-1c.25-1.15.52-2.31.79-3.47a.86.86,0,0,1,1.68.4c-.27,1.14-.53,2.3-.78,3.44A.85.85,0,0,1,287.59,251.16Zm2.55-10.3a.85.85,0,0,1-.23,0,.87.87,0,0,1-.6-1.07c.31-1.14.65-2.29,1-3.42a.86.86,0,1,1,1.65.5c-.33,1.12-.66,2.26-1,3.39A.86.86,0,0,1,290.14,240.86Zm3.16-10.13a.87.87,0,0,1-.28,0,.86.86,0,0,1-.54-1.1c.39-1.12.79-2.25,1.19-3.35a.86.86,0,0,1,1.11-.51.87.87,0,0,1,.52,1.11c-.4,1.09-.8,2.21-1.18,3.32A.88.88,0,0,1,293.3,230.73Zm3.76-9.92a.75.75,0,0,1-.33-.07.85.85,0,0,1-.47-1.13c.45-1.09.92-2.19,1.39-3.27a.87.87,0,0,1,1.14-.45.85.85,0,0,1,.44,1.14c-.46,1.07-.93,2.16-1.37,3.24A.86.86,0,0,1,297.06,220.81Zm4.34-9.68A.85.85,0,0,1,301,211a.87.87,0,0,1-.4-1.16c.51-1.06,1.05-2.13,1.58-3.18a.87.87,0,0,1,1.55.79c-.54,1-1.06,2.1-1.57,3.15A.87.87,0,0,1,301.4,211.13Zm4.91-9.4a.81.81,0,0,1-.42-.12.85.85,0,0,1-.33-1.17c.58-1,1.17-2.08,1.76-3.09a.87.87,0,0,1,1.5.88c-.59,1-1.18,2-1.76,3.05A.84.84,0,0,1,306.31,201.73Zm309.9-4.37a.86.86,0,0,1-.74-.42c-.6-1-1.22-2-1.83-3a.86.86,0,1,1,1.46-.91c.62,1,1.25,2,1.86,3a.87.87,0,0,1-.3,1.19A.89.89,0,0,1,616.21,197.36Zm-304.44-4.73a.9.9,0,0,1-.47-.13.87.87,0,0,1-.26-1.2c.64-1,1.29-2,1.95-3a.86.86,0,0,1,1.2-.24.87.87,0,0,1,.24,1.2c-.65,1-1.3,2-1.93,2.94A.87.87,0,0,1,311.77,192.63Zm298.74-4.19a.89.89,0,0,1-.72-.38c-.65-1-1.33-1.93-2-2.89A.86.86,0,0,1,608,184a.85.85,0,0,1,1.2.2c.69,1,1.37,1.94,2,2.91a.87.87,0,0,1-.71,1.36Zm-292.75-4.56a.87.87,0,0,1-.7-1.38c.69-.95,1.41-1.91,2.12-2.85a.86.86,0,0,1,1.21-.16.87.87,0,0,1,.17,1.21c-.71.93-1.42,1.88-2.1,2.82A.86.86,0,0,1,317.76,183.88Zm286.52-4a.86.86,0,0,1-.68-.34c-.72-.92-1.45-1.85-2.18-2.76a.86.86,0,0,1,.13-1.21.87.87,0,0,1,1.22.13c.73.91,1.47,1.85,2.2,2.79a.87.87,0,0,1-.69,1.39Zm-280-4.37a.86.86,0,0,1-.67-1.41c.75-.92,1.52-1.83,2.29-2.72a.86.86,0,1,1,1.31,1.12c-.76.89-1.52,1.79-2.26,2.7A.85.85,0,0,1,324.25,175.49Zm273.31-3.82a.85.85,0,0,1-.65-.3c-.77-.89-1.56-1.77-2.34-2.63a.87.87,0,0,1,1.29-1.16c.78.86,1.57,1.76,2.35,2.65a.86.86,0,0,1-.08,1.22A.83.83,0,0,1,597.56,171.67Zm-266.34-4.16a.85.85,0,0,1-.58-.23.87.87,0,0,1-.05-1.22c.81-.87,1.63-1.74,2.44-2.59a.87.87,0,0,1,1.25,1.21c-.81.83-1.62,1.69-2.42,2.55A.84.84,0,0,1,331.22,167.51Zm259.15-3.63a.87.87,0,0,1-.62-.26c-.82-.84-1.66-1.67-2.49-2.49a.87.87,0,1,1,1.22-1.23c.83.82,1.68,1.66,2.51,2.51a.86.86,0,0,1,0,1.22A.82.82,0,0,1,590.37,163.88ZM338.66,160a.86.86,0,0,1-.6-1.49c.86-.82,1.73-1.64,2.59-2.44a.87.87,0,0,1,1.22,0,.88.88,0,0,1-.05,1.23c-.85.78-1.71,1.59-2.56,2.41A.88.88,0,0,1,338.66,160Zm244.07-3.42a.85.85,0,0,1-.58-.23c-.87-.78-1.75-1.57-2.63-2.33a.87.87,0,1,1,1.14-1.31c.88.77,1.78,1.57,2.65,2.36a.87.87,0,0,1-.58,1.51Zm-236.21-3.69a.88.88,0,0,1-.66-.31.87.87,0,0,1,.1-1.22c.9-.77,1.82-1.53,2.72-2.27a.87.87,0,0,1,1.1,1.34c-.9.73-1.8,1.49-2.7,2.25A.85.85,0,0,1,346.52,152.84Zm228.15-3.2a.85.85,0,0,1-.54-.19c-.92-.74-1.85-1.47-2.77-2.18a.87.87,0,0,1,1.06-1.37c.93.72,1.87,1.46,2.79,2.2a.87.87,0,0,1-.54,1.54ZM354.79,146.2a.88.88,0,0,1-.69-.34.86.86,0,0,1,.17-1.21c.94-.71,1.9-1.42,2.85-2.11a.86.86,0,0,1,1.21.19.87.87,0,0,1-.19,1.21c-.95.68-1.9,1.38-2.83,2.09A.85.85,0,0,1,354.79,146.2Zm211.42-3a.85.85,0,0,1-.5-.16c-1-.68-1.93-1.35-2.89-2a.87.87,0,0,1,1-1.43c1,.66,2,1.35,2.92,2a.87.87,0,0,1,.2,1.21A.86.86,0,0,1,566.21,143.23Zm-202.78-3.16a.87.87,0,0,1-.48-1.59c1-.65,2-1.3,3-1.94a.87.87,0,0,1,.93,1.46c-1,.63-2,1.28-2.95,1.92A.85.85,0,0,1,363.43,140.07Zm194-2.73a.89.89,0,0,1-.46-.13c-1-.62-2-1.24-3-1.84a.87.87,0,0,1,.89-1.49c1,.61,2,1.24,3,1.86a.86.86,0,0,1-.46,1.6Zm-185-2.88a.87.87,0,0,1-.74-.43.86.86,0,0,1,.31-1.19c1-.59,2.05-1.18,3.08-1.76a.87.87,0,1,1,.84,1.52c-1,.56-2,1.15-3.05,1.74A.88.88,0,0,1,372.42,134.46ZM548.24,132a.94.94,0,0,1-.42-.11c-1-.56-2.07-1.12-3.1-1.66a.85.85,0,0,1-.37-1.16.86.86,0,0,1,1.17-.37c1,.54,2.09,1.1,3.13,1.67a.87.87,0,0,1,.35,1.18A.86.86,0,0,1,548.24,132Zm-166.51-2.59a.87.87,0,0,1-.39-1.64c1.05-.53,2.12-1.06,3.18-1.57a.85.85,0,0,1,1.15.4.87.87,0,0,1-.4,1.16c-1,.5-2.11,1-3.15,1.55A.78.78,0,0,1,381.73,129.39Zm157-2.22a.84.84,0,0,1-.37-.09c-1-.49-2.13-1-3.2-1.47a.86.86,0,0,1-.44-1.14.88.88,0,0,1,1.15-.44c1.08.49,2.17,1,3.23,1.49a.87.87,0,0,1-.37,1.65Zm-147.46-2.29a.87.87,0,0,1-.79-.52.86.86,0,0,1,.44-1.14c1.09-.47,2.19-.93,3.27-1.38a.87.87,0,1,1,.66,1.6c-1.08.44-2.17.9-3.24,1.37A.83.83,0,0,1,391.32,124.88Zm137.73-1.95a.87.87,0,0,1-.32-.06c-1.09-.44-2.2-.87-3.29-1.28a.87.87,0,0,1,.62-1.62c1.1.41,2.21.85,3.31,1.29a.87.87,0,0,1-.32,1.67Zm-127.89-2a.87.87,0,0,1-.3-1.68c1.1-.4,2.23-.8,3.35-1.18a.87.87,0,0,1,.56,1.64c-1.11.38-2.22.77-3.31,1.17A.79.79,0,0,1,401.16,121Zm117.92-1.67a.86.86,0,0,1-.27,0c-1.11-.37-2.24-.73-3.36-1.08a.86.86,0,0,1,.51-1.65c1.14.35,2.28.72,3.39,1.09a.87.87,0,0,1-.27,1.69Zm-107.87-1.66a.87.87,0,0,1-.24-1.7l3.4-1a.87.87,0,1,1,.46,1.67c-1.12.31-2.26.64-3.37,1A.73.73,0,0,1,411.21,117.62Zm97.7-1.4a.91.91,0,0,1-.23,0c-1.13-.3-2.28-.59-3.41-.87a.86.86,0,1,1,.41-1.68c1.14.28,2.31.58,3.45.88a.86.86,0,0,1,.61,1.06A.85.85,0,0,1,508.91,116.22Zm-87.46-1.33a.87.87,0,0,1-.2-1.71c1.14-.27,2.31-.53,3.46-.77a.86.86,0,0,1,.36,1.69c-1.14.24-2.29.5-3.43.77Zm77.12-1.1-.18,0c-1.14-.24-2.31-.46-3.46-.67a.87.87,0,1,1,.31-1.71l3.5.68a.87.87,0,0,1-.17,1.72Zm-66.75-1a.87.87,0,0,1-.15-1.72l3.5-.57a.86.86,0,1,1,.26,1.71c-1.14.18-2.31.37-3.46.57Zm56.29-.81H488c-1.16-.16-2.33-.32-3.49-.46a.87.87,0,0,1-.75-1,.86.86,0,0,1,1-.75c1.17.14,2.35.3,3.52.47a.87.87,0,0,1,.74,1A.88.88,0,0,1,488.11,112Zm-45.81-.69a.86.86,0,0,1-.09-1.72c1.17-.13,2.35-.25,3.52-.36a.86.86,0,0,1,.16,1.72c-1.16.11-2.33.23-3.49.36Zm35.28-.5h-.08c-1.16-.1-2.34-.19-3.5-.26a.87.87,0,1,1,.11-1.73c1.17.08,2.37.16,3.54.26a.87.87,0,0,1-.07,1.73Zm-24.72-.37a.87.87,0,0,1-.05-1.73c1.18-.06,2.38-.11,3.55-.15a.87.87,0,0,1,.06,1.73c-1.17,0-2.35.09-3.52.15Zm14.13-.2h0c-1.17,0-2.35,0-3.52,0a.87.87,0,1,1,0-1.73h0c1.18,0,2.38,0,3.55,0a.87.87,0,0,1,0,1.73Z"/><path class="cls-6" d="M582.77,288.26A119.8,119.8,0,0,1,550,370.8L378.13,202.62a120.24,120.24,0,0,1,204.64,85.64Z"/><path class="cls-6" d="M394.81,288.26a67.7,67.7,0,0,0,2.56,18.5c.16.55.32,1.11.5,1.67.08.27.17.55.26.82a67.55,67.55,0,0,0,8.76,17.63q1.71,2.44,3.61,4.73l.55.65,1.12,1.28.57.62c.39.42.77.83,1.17,1.24.79.81,1.6,1.6,2.42,2.37a67.79,67.79,0,0,0,67.06,14.93h0a67.69,67.69,0,0,0,38.39-97.23,68.23,68.23,0,0,0-18.39-21.21c-.87-.65-1.75-1.29-2.65-1.91l-.9-.61c-.61-.39-1.22-.79-1.84-1.17a67.93,67.93,0,0,0-13.1-6.24h0l-.11,0a67.92,67.92,0,0,0-45.66.41l-1.34.5a67.89,67.89,0,0,0-31.62,25.53c-.2.28-.39.56-.57.85s-.46.72-.69,1.09l-.26.42h0l-.57,1c-.31.54-.62,1.07-.91,1.62-.79,1.43-1.54,2.9-2.22,4.39-.31.69-.62,1.38-.91,2.07A67.61,67.61,0,0,0,394.81,288.26Z"/><path class="cls-4" d="M462.52,316.7l2.38,9,2.36.95,3.32,10.19,5.69.47,10.42,10.43-1.42,2.6-1.88,2.36h0a67.19,67.19,0,0,0,9.71-4h0l5.45-5.92,5.21-14.93,6.17-5.21L518,306.51l-4.21-11.38h1.13l3.79-4,6.4-12.09,3-9.49-1.55-3.65-5.71-10.56,1,.15a68.23,68.23,0,0,0-18.39-21.21c-.87-.65-1.75-1.29-2.65-1.91l-.9-.61c-.61-.4-1.22-.79-1.84-1.17a55.85,55.85,0,0,0-13.1-6.24L480.3,230l-.95,10.66-1.19,5-.71,5.69,6.87.71,6.4,1.89,18.48,17.3,2.14.95.94-4-.71-1.89,1.43-1.66,2.48,1.77,2.14,1.53,3.67,2.62L520,275.11l-1.42-2.37-3.08-.47v4.26l.71,3.32-1.89,1.66,1.06,7.7-3.06,3.07-.73-1.41L507.31,288l-5.92,4h-4.27l-6.87,7.11-5.45,1.66-3.32,6.87Z"/><path class="cls-4" d="M469.46,230.86l1,4-2.61,7.82-4-.71-.95-4-9.48-4,1.63-5.29a5.17,5.17,0,0,1,4.83-3.85l3-.11,8.06.48,2.84,1.42.71,3.32Z"/><path class="cls-4" d="M394.81,288.26a67.54,67.54,0,0,0,21.52,49.51l1-.57-1-2.73L411,321.31l-1.58-13.38.72-8.06,7.1-4,14,4.51,7.58-7.35,1.66-14-1.42-4-6.17-10.66-7.82-4.5-4.5-.24-11.85.71-.22-4.68,7.1-3.14-2.14,2.37v1.66l1.19.24,1.42-1.66,2.37-.48,5-1.18,2.6-1.9,1.42,2.37,4.19,2.35,3.08,3.32,7.82.71L444,251l.79-5.13-7.11-.06-2.37-5.22,4.74-2.84,4.74-11.14-5.92.24.95-2.13-.65-.07a69.4,69.4,0,0,0-34.49,28.4h0A67.38,67.38,0,0,0,394.81,288.26Z"/><path class="cls-4" d="M462.52,357.15a68.68,68.68,0,0,1-47-18.52c-.86-.81-1.69-1.62-2.46-2.42-.4-.41-.8-.83-1.19-1.25l-.58-.63L410.16,333l-.55-.65c-1.27-1.52-2.5-3.14-3.68-4.82A69.24,69.24,0,0,1,397,309.62c-.09-.29-.18-.57-.26-.85-.18-.56-.35-1.12-.51-1.69A69.25,69.25,0,0,1,399,261.69c.3-.7.6-1.41.92-2.1.7-1.53,1.46-3,2.26-4.48.3-.55.61-1.09.92-1.63l.05-.09.54-.9,0-.06.15-.25.08-.13c.23-.37.47-.75.72-1.12s.37-.58.58-.88a68.62,68.62,0,0,1,32.15-25.94l1.36-.51a69.06,69.06,0,0,1,46.45-.41l.06,0h.06a68.7,68.7,0,0,1,13.32,6.36c.59.36,1.2.75,1.87,1.19l.92.62c.89.6,1.77,1.24,2.7,1.94a68.69,68.69,0,0,1,14.38,14.76,69.43,69.43,0,0,1,4.33,6.81,69,69,0,0,1-39.06,98.92h-.06A68.89,68.89,0,0,1,462.52,357.15Zm-56.9-103.41-.5.85-.05.07c-.29.52-.59,1-.88,1.57-.78,1.41-1.51,2.86-2.19,4.33-.3.67-.6,1.35-.89,2a66.78,66.78,0,0,0-2.61,43.84c.15.54.31,1.09.48,1.64.09.27.18.54.26.82a66.52,66.52,0,0,0,8.61,17.31c1.14,1.63,2.34,3.19,3.55,4.65l.54.64c.36.42.73.84,1.1,1.25l.57.63c.37.39.75.8,1.14,1.2.74.77,1.55,1.55,2.38,2.34A66.64,66.64,0,0,0,483,351.59l.05,0a66.56,66.56,0,0,0,19.6-116.37c-.9-.68-1.75-1.3-2.6-1.88l-.89-.6-1.8-1.15a67,67,0,0,0-12.82-6.12l-.08,0-.07,0a66.91,66.91,0,0,0-44.89.4l-1.31.49a66.35,66.35,0,0,0-31.08,25.09c-.2.28-.37.55-.54.82s-.47.73-.69,1.08l-.08.13-.19.31h0Z"/><circle class="cls-5" cx="349.49" cy="149.83" r="5.72"/><circle class="cls-7" cx="734.74" cy="206.23" r="43.62"/><path class="cls-6" d="M218.48,383.83a39.83,39.83,0,0,1-57,25.6,39.83,39.83,0,0,0,18.88-75.13,39.83,39.83,0,0,1,38.15,49.53Z"/><polygon class="cls-6" points="274.33 376.7 276.64 381.07 280.87 383.46 276.64 385.85 274.33 390.21 272.02 385.85 267.79 383.46 272.02 381.07 274.33 376.7"/><polygon class="cls-6" points="179.79 427.98 182.1 432.35 186.33 434.74 182.1 437.12 179.79 441.49 177.48 437.12 173.25 434.74 177.48 432.35 179.79 427.98"/><polygon class="cls-6" points="309.1 459.06 311.41 463.42 315.64 465.81 311.41 468.2 309.1 472.56 306.79 468.2 302.56 465.81 306.79 463.42 309.1 459.06"/><circle class="cls-6" cx="245.57" cy="431.38" r="2.92" transform="translate(-230.69 571.28) rotate(-76.72)"/><circle class="cls-6" cx="375.2" cy="408.5" r="2.92" transform="translate(-178.96 384.95) rotate(-45)"/><circle class="cls-6" cx="141.87" cy="469.64" r="2.92" transform="translate(-347.77 500.23) rotate(-76.77)"/><circle class="cls-6" cx="507.53" cy="477.94" r="2.92" transform="translate(-189.3 498.87) rotate(-45)"/><circle class="cls-6" cx="245.57" cy="333.27" r="2.92" transform="translate(-163.73 271.26) rotate(-45)"/><path class="cls-4" d="M54.21,476.32c3.81,3.87,8.51,5.41,10.49,3.45s.51-6.67-3.3-10.54c-2.64-2.67-6.65-3.29-8.87-3.42a1.53,1.53,0,0,0-1.63,1.6C51,469.63,51.57,473.65,54.21,476.32Z"/><path class="cls-2" d="M69.59,488.69a.86.86,0,0,1-.86-.8c0-.41-2.67-41,7.58-70.16a.86.86,0,1,1,1.63.57c-10.13,28.85-7.51,69.07-7.49,69.47a.85.85,0,0,1-.8.92Z"/><path class="cls-2" d="M65.75,488.69h0a.85.85,0,0,1-.85-.87c.22-18.65-5-29.86-8.92-36.66a.86.86,0,0,1,.31-1.18.87.87,0,0,1,1.19.31c4,7,9.38,18.47,9.15,37.55A.87.87,0,0,1,65.75,488.69Z"/><path class="cls-4" d="M77,429.76c-.75,3.19-2.68,5.47-4.33,5.09s-2.36-3.28-1.62-6.48a8.42,8.42,0,0,1,3.49-4.57.93.93,0,0,1,1.35.32A8.39,8.39,0,0,1,77,429.76Z"/><path class="cls-5" d="M88.66,420.63a2.23,2.23,0,0,0-1.53-3.4h0a4.23,4.23,0,0,0-4.44,2l-5.45,10.12A3.32,3.32,0,0,1,73.56,431h0A3.34,3.34,0,0,1,71,427.89l-.4-11.48a4.23,4.23,0,0,0-3.09-3.76h0a3,3,0,0,0-2.86,3.06s.51,15.16.55,15.46v.14a6.21,6.21,0,0,0,4.73,5.21l4.43,1A6.2,6.2,0,0,0,80.91,435h0Z"/><path class="cls-3" d="M52,441.13h0l3.52-6.86a2.63,2.63,0,0,0-2-3.81h0a2.64,2.64,0,0,0-3,3.09Z"/><path class="cls-3" d="M49,443.38h0l-7.58,1.42a2.63,2.63,0,0,1-3.09-3h0a2.63,2.63,0,0,1,3.81-2Z"/><path class="cls-3" d="M51.17,446.28h0l-3.52,6.86a2.63,2.63,0,0,0,2,3.81h0a2.63,2.63,0,0,0,3-3.09Z"/><path class="cls-3" d="M54.19,444h0l7.58-1.41a2.63,2.63,0,0,1,3.09,3h0a2.63,2.63,0,0,1-3.81,2Z"/><path class="cls-3" d="M50.08,441.58h0l-2.36-7.34a2.62,2.62,0,0,0-4.08-1.3h0a2.63,2.63,0,0,0,.08,4.28Z"/><path class="cls-3" d="M49.54,445.31h0l-4.35,6.36a2.64,2.64,0,0,1-4.29.09h0a2.64,2.64,0,0,1,1.3-4.09Z"/><path class="cls-3" d="M53.11,445.83h0l2.36,7.34a2.64,2.64,0,0,0,4.09,1.3h0a2.63,2.63,0,0,0-.09-4.28Z"/><path class="cls-3" d="M53.66,442.1h0L58,435.74a2.64,2.64,0,0,1,4.29-.09h0A2.64,2.64,0,0,1,61,439.74Z"/><path class="cls-2" d="M866,489.29a.88.88,0,0,1-.87-.86c-.14-11.84,2.83-25.92,7.38-35a.87.87,0,0,1,1.55.78c-4.44,8.89-7.34,22.65-7.19,34.24a.88.88,0,0,1-.86.88Z"/><rect class="cls-5" x="869.54" y="448.7" width="8.38" height="8.38" transform="translate(1705.75 -72.7) rotate(120.32)"/><path class="cls-3" d="M869,446.71a3,3,0,1,0,2.13-3.63A3,3,0,0,0,869,446.71Z"/><path class="cls-3" d="M872.67,460.58a3,3,0,1,0,2.12-3.63A3,3,0,0,0,872.67,460.58Z"/><path class="cls-3" d="M881.42,454a3,3,0,1,0-3.64-2.13A3,3,0,0,0,881.42,454Z"/><path class="cls-3" d="M867.88,457.5a3,3,0,1,0-3.64-2.12A3,3,0,0,0,867.88,457.5Z"/><path class="cls-3" d="M848.21,471.8c3.39,3.07,7.43,4.16,9,2.41s.11-5.66-3.28-8.74c-2.35-2.13-5.77-2.46-7.65-2.47a1.29,1.29,0,0,0-1.29,1.43C845.19,466.3,845.86,469.67,848.21,471.8Z"/><path class="cls-2" d="M856.05,457a.87.87,0,0,1-.86-.73,141.92,141.92,0,0,0-3.47-15.9.87.87,0,0,1,1.67-.47A143.1,143.1,0,0,1,856.9,456a.87.87,0,0,1-.71,1Z"/><path class="cls-2" d="M858.66,489.29h0a.87.87,0,0,1-.85-.88,209.5,209.5,0,0,0-1.85-27.06.87.87,0,1,1,1.72-.23,212.33,212.33,0,0,1,1.86,27.31A.87.87,0,0,1,858.66,489.29Z"/><path class="cls-4" d="M850.84,437.75a2.84,2.84,0,1,0-3.76-1.41A2.84,2.84,0,0,0,850.84,437.75Z"/><path class="cls-5" d="M842,441.67a9.9,9.9,0,1,0,10.73-13.84l0,5.88a3.48,3.48,0,0,1-2,3.2h0a3.5,3.5,0,0,1-3.76-.56l-4.41-3.89A9.88,9.88,0,0,0,842,441.67Z"/><path class="cls-3" d="M853.8,429.63a2.09,2.09,0,1,0-2.77-1A2.08,2.08,0,0,0,853.8,429.63Z"/><path class="cls-3" d="M843.14,434.48a2.09,2.09,0,1,0-2.76-1A2.09,2.09,0,0,0,843.14,434.48Z"/><path class="cls-1" d="M464.15,56.83H570.73c-.72-8.92-6.56-24.14-7.64-25.9-.45-.71-.83-1.37-1.15-1.88-5-7.89-18.7-13.16-24.9-3.69-4.33,6.62-.73,19.51-9.74,22.81C517,52,514.36,38.35,513.44,31.38,512.31,22.82,512.5,14,510,5.71c-1.07-2.5-2.85-5.35-5.7-5.71a7.38,7.38,0,0,0-6.42,4.64c-3.17,7.68-4,16-5.19,24.12-.94,6.62-2.23,21.21-11,22-4.67.43-8.89-7.9-13.22-4.21C465.66,48.92,465.81,53.82,464.15,56.83Z"/><path class="cls-3" d="M809.48,296.94h0a9,9,0,0,1-8.94-8.95h0a8.94,8.94,0,0,1,8.94-8.94h0a8.94,8.94,0,0,1,8.94,8.94h0A9,9,0,0,1,809.48,296.94Z"/><path class="cls-6" d="M786.78,317.75h0A4.74,4.74,0,0,1,782,313h0a4.75,4.75,0,0,1,4.75-4.75h0a4.75,4.75,0,0,1,4.75,4.75h0A4.75,4.75,0,0,1,786.78,317.75Z"/><path class="cls-5" d="M809.48,305.82H793.21a.87.87,0,0,1-.87-.86V288.69a.87.87,0,0,1,.87-.87h16.27a.87.87,0,0,1,.87.87V305A.87.87,0,0,1,809.48,305.82Zm-15.4-1.73h14.53V289.55H794.08Z"/><path class="cls-2" d="M849.33,193.73c-4.36,0-8.6-1.93-10.1-6.11a10.71,10.71,0,0,1-.58-2.63,13.13,13.13,0,0,1-5.15-3.75,11.7,11.7,0,0,1-2.89-6.27.86.86,0,0,1,1.72-.16,10.14,10.14,0,0,0,2.49,5.3,11.84,11.84,0,0,0,3.81,3,13.48,13.48,0,0,1,.25-2,5.83,5.83,0,0,1,2.27-4,3.95,3.95,0,0,1,6,4.07,4.92,4.92,0,0,1-1.55,2.58,6.16,6.16,0,0,1-4.69,1.71l-.5,0a8.91,8.91,0,0,0,.4,1.58c1.85,5.13,8.38,5.65,12.43,4.37l.41-.14a10.46,10.46,0,0,0,3-1.66.86.86,0,0,1,1.08,1.35,12,12,0,0,1-3.53,1.94l-.48.16A15,15,0,0,1,849.33,193.73Zm-9-10,.72.09a4.53,4.53,0,0,0,3.42-1.26,3.31,3.31,0,0,0,1-1.65,2.21,2.21,0,0,0-3.39-2.29,4.28,4.28,0,0,0-1.52,2.9A13.13,13.13,0,0,0,840.33,183.68Z"/><polygon class="cls-6" points="750.28 427.12 752.6 431.48 756.82 433.87 752.6 436.26 750.28 440.63 747.97 436.26 743.75 433.87 747.97 431.48 750.28 427.12"/><polygon class="cls-6" points="764.63 439.59 768.21 446.35 774.75 450.04 768.21 453.74 764.63 460.5 761.05 453.74 754.5 450.04 761.05 446.35 764.63 439.59"/><path class="cls-2" d="M925.94,489.52H894.18a.87.87,0,0,1,0-1.73h31.76a.87.87,0,1,1,0,1.73Z"/><path class="cls-2" d="M884.49,489.52H579.69a.87.87,0,1,1,0-1.73h304.8a.87.87,0,1,1,0,1.73Z"/><path class="cls-2" d="M563.42,489.56H429.49a.87.87,0,0,1,0-1.73H563.42a.87.87,0,0,1,0,1.73Z"/><path class="cls-2" d="M438.1,489.56H280.87a.87.87,0,1,1,0-1.73H438.1a.87.87,0,1,1,0,1.73Z"/><path class="cls-2" d="M295.05,489.52H64.54a.87.87,0,0,1,0-1.73H295.05a.87.87,0,0,1,0,1.73Z"/><path class="cls-2" d="M39.15,489.52H.87a.87.87,0,1,1,0-1.73H39.15a.87.87,0,1,1,0,1.73Z"/></g></g></svg>