<svg xmlns="http://www.w3.org/2000/svg" viewBox="0 0 904.76 490.34"><defs><style>.cls-1{fill:#cf8282;}.cls-2{fill:#2d2d2d;}.cls-3{fill:#a06a6a;}.cls-4{fill:#dce5f7;}.cls-5{fill:#fff;}</style></defs><title>Asset 6</title><g id="Layer_2" data-name="Layer 2"><g id="Layer_2-2" data-name="Layer 2"><path class="cls-1" d="M715.71,384.9H244.52a1.1,1.1,0,0,1-1.1-1.1V77.5a1.1,1.1,0,0,1,1.1-1.1H341a1.1,1.1,0,0,1,0,2.2H245.62V382.7h469V181.92a1.11,1.11,0,0,1,2.21,0V383.8A1.11,1.11,0,0,1,715.71,384.9Z"/><path class="cls-1" d="M715.71,168.38a1.11,1.11,0,0,1-1.1-1.11V78.6H356.3a1.1,1.1,0,0,1,0-2.2H715.71a1.11,1.11,0,0,1,1.11,1.1v89.77A1.11,1.11,0,0,1,715.71,168.38Z"/><path class="cls-1" d="M154.11,381.84c6.28,6.37,14,8.91,17.3,5.69s.83-11-5.45-17.38c-4.35-4.41-11-5.44-14.63-5.66a2.54,2.54,0,0,0-2.68,2.65C148.82,370.81,149.76,377.43,154.11,381.84Z"/><path class="cls-2" d="M179.47,401.92a1.11,1.11,0,0,1-1.1-1c0-.67-4.4-67.51,12.49-115.57a1.1,1.1,0,1,1,2.08.73c-16.74,47.64-12.41,114-12.37,114.69a1.09,1.09,0,0,1-1,1.17Z"/><path class="cls-2" d="M173.14,401.92h0A1.11,1.11,0,0,1,172,400.8c.37-30.84-8.24-49.37-14.75-60.62a1.1,1.1,0,1,1,1.91-1.11c6.64,11.48,15.43,30.37,15.05,61.76A1.11,1.11,0,0,1,173.14,401.92Z"/><path class="cls-1" d="M191.72,305.05c-1.23,5.27-4.42,9-7.13,8.4s-3.9-5.42-2.67-10.69c.85-3.65,3.93-6.27,5.75-7.53a1.52,1.52,0,0,1,2.22.51C191,297.69,192.57,301.4,191.72,305.05Z"/><path class="cls-1" d="M210.92,290a3.68,3.68,0,0,0-2.53-5.6h0a7,7,0,0,0-7.32,3.3l-9,16.68a5.48,5.48,0,0,1-6.07,2.74h0a5.48,5.48,0,0,1-4.23-5.15L181.12,283a7,7,0,0,0-5.1-6.2h0a4.88,4.88,0,0,0-4.71,5.05s.85,25,.9,25.5l0,.23a10.22,10.22,0,0,0,7.8,8.59l7.3,1.7a10.2,10.2,0,0,0,10.79-4.25l0,0Z"/><path class="cls-3" d="M150.52,323.8h0l5.8-11.31a4.34,4.34,0,0,0-3.24-6.28h0a4.35,4.35,0,0,0-4.9,5.1Z"/><path class="cls-3" d="M145.53,327.52h0L133,329.86a4.35,4.35,0,0,1-5.11-4.9h0a4.35,4.35,0,0,1,6.29-3.24Z"/><path class="cls-3" d="M149.09,332.3h0l-5.8,11.3a4.34,4.34,0,0,0,3.24,6.29h0a4.35,4.35,0,0,0,4.9-5.1Z"/><path class="cls-3" d="M154.08,328.58h0l12.49-2.34a4.35,4.35,0,0,1,5.1,4.9h0a4.35,4.35,0,0,1-6.29,3.24Z"/><path class="cls-3" d="M147.3,324.54h0l-3.89-12.1a4.35,4.35,0,0,0-6.74-2.15h0a4.35,4.35,0,0,0,.15,7.07Z"/><path class="cls-3" d="M146.41,330.7h0l-7.18,10.48a4.35,4.35,0,0,1-7.08.15h0a4.35,4.35,0,0,1,2.16-6.74Z"/><path class="cls-3" d="M152.3,331.56h0l3.89,12.09a4.35,4.35,0,0,0,6.74,2.16h0a4.35,4.35,0,0,0-.14-7.07Z"/><path class="cls-3" d="M153.2,325.4h0l7.18-10.49a4.35,4.35,0,0,1,7.07-.14h0a4.35,4.35,0,0,1-2.15,6.74Z"/><path class="cls-3" d="M187.2,392.56H172.11v8.24A20.21,20.21,0,0,0,162.37,430a29.26,29.26,0,0,0,2.4,48.81v8.94h29.77v-8.94a29.26,29.26,0,0,0,2.4-48.81,20.21,20.21,0,0,0-9.74-29.23v-8.24Z"/><path class="cls-2" d="M196,440.08a1.1,1.1,0,0,1-1-.55,28.21,28.21,0,0,0-7.74-8.61,1.11,1.11,0,0,1-.29-1.46,19.1,19.1,0,0,0-2.33-22.9,1.1,1.1,0,1,1,1.61-1.5,21.3,21.3,0,0,1,3.11,24.68,30.51,30.51,0,0,1,7.55,8.68,1.12,1.12,0,0,1-.4,1.51A1.15,1.15,0,0,1,196,440.08Z"/><path class="cls-2" d="M185.58,488.76a1.1,1.1,0,0,1-1.1-1.1v-8.82a1.09,1.09,0,0,1,.54-.95,28.18,28.18,0,0,0,13.08-30.76,1.1,1.1,0,0,1,2.15-.51,30.39,30.39,0,0,1-13.56,32.84v8.2A1.11,1.11,0,0,1,185.58,488.76Z"/><path class="cls-2" d="M155.82,488.76a1.11,1.11,0,0,1-1.11-1.1v-8.2a30.4,30.4,0,0,1-11-39.8,1.1,1.1,0,0,1,2,1,27.76,27.76,0,0,0-3.16,13,28.29,28.29,0,0,0,13.84,24.25,1.09,1.09,0,0,1,.54.95v8.82A1.1,1.1,0,0,1,155.82,488.76Z"/><path class="cls-2" d="M151.07,425.47a1.11,1.11,0,0,1-1.08-.84,21.57,21.57,0,0,1-.6-5.07,21.26,21.26,0,0,1,11.39-18.87,1.1,1.1,0,1,1,1,1.95,19.11,19.11,0,0,0-9.67,21.47,1.1,1.1,0,0,1-.81,1.33Z"/><path class="cls-2" d="M161.3,402.77a1.1,1.1,0,0,1-.52-2.08c.42-.22.84-.42,1.28-.62v-7.51a1.11,1.11,0,0,1,1.1-1.11h23.59a1.11,1.11,0,0,1,0,2.21H164.26v7.14a1.11,1.11,0,0,1-.69,1,18.67,18.67,0,0,0-1.76.81A1,1,0,0,1,161.3,402.77Z"/><rect class="cls-4" x="225.38" y="96.44" width="471.19" height="306.3"/><polygon class="cls-3" points="388.45 312.16 422.77 286.81 434.46 298.03 472.61 259.98 499.91 259.98 520.71 239.83 555.15 229.43 574 239.83 590.25 202.78 613 202.13 630.55 183.94 649.9 174.22 658.19 163.01 658.19 331.26 388.45 331.26 388.45 312.16"/><polygon class="cls-1" points="460.78 308.91 478.33 281.13 499.91 296.05 526.59 272.36 556.81 266.51 576.79 270.41 603.6 259.2 607.01 232.39 624.56 208.99 643.08 222.64 658.19 185.11 658.19 331.26 388.45 331.26 420.81 307.45 460.78 308.91"/><path class="cls-5" d="M388.45,332.34a1.1,1.1,0,0,1-.87-.44,1.08,1.08,0,0,1,.23-1.5l32.37-23.81a1,1,0,0,1,.67-.21l39.36,1.44,17.21-27.26a1.09,1.09,0,0,1,.7-.48,1,1,0,0,1,.82.17l20.89,14.44,26-23.13a1.13,1.13,0,0,1,.51-.26l30.22-5.85a1.13,1.13,0,0,1,.41,0l19.67,3.83,25.93-10.84,3.34-26.2a1.07,1.07,0,0,1,.2-.51l17.55-23.39a1.07,1.07,0,0,1,1.49-.22L642.6,221l15.86-36.25a1.07,1.07,0,1,1,2,.8L644.07,223a1.06,1.06,0,0,1-1.62.46l-17.67-13L608,232.8l-3.38,26.53a1,1,0,0,1-.65.85L577.2,271.39a1,1,0,0,1-.61.07l-19.78-3.86-29.73,5.75-26.46,23.5a1.07,1.07,0,0,1-1.32.08l-20.66-14.28-16.95,26.83a1.06,1.06,0,0,1-.95.5l-39.59-1.45-32.07,23.6A1.06,1.06,0,0,1,388.45,332.34Z"/><path class="cls-2" d="M388.35,332.38a1.07,1.07,0,0,1-1.07-1.07V175.52a1.07,1.07,0,1,1,2.14,0V331.31A1.07,1.07,0,0,1,388.35,332.38Z"/><path class="cls-2" d="M664.87,332.57H372.25a1.07,1.07,0,0,1,0-2.14H664.87a1.07,1.07,0,1,1,0,2.14Z"/><path class="cls-2" d="M388.28,301h-16a1.07,1.07,0,1,1,0-2.14h16a1.07,1.07,0,1,1,0,2.14Z"/><path class="cls-2" d="M388.28,269.45h-16a1.07,1.07,0,0,1,0-2.14h16a1.07,1.07,0,1,1,0,2.14Z"/><path class="cls-2" d="M388.28,237.93h-16a1.07,1.07,0,0,1,0-2.14h16a1.07,1.07,0,1,1,0,2.14Z"/><path class="cls-2" d="M388.28,206.41h-16a1.08,1.08,0,0,1,0-2.15h16a1.08,1.08,0,1,1,0,2.15Z"/><path class="cls-2" d="M388.45,348.63a1.06,1.06,0,0,1-1.07-1.07v-16a1.07,1.07,0,0,1,2.14,0v16A1.07,1.07,0,0,1,388.45,348.63Z"/><path class="cls-2" d="M453.41,348.63a1.07,1.07,0,0,1-1.08-1.07v-16a1.08,1.08,0,0,1,2.15,0v16A1.07,1.07,0,0,1,453.41,348.63Z"/><path class="cls-2" d="M420.93,348.63a1.07,1.07,0,0,1-1.08-1.07v-16a1.08,1.08,0,0,1,2.15,0v16A1.07,1.07,0,0,1,420.93,348.63Z"/><path class="cls-2" d="M485,348.63a1.07,1.07,0,0,1-1.07-1.07v-16a1.07,1.07,0,0,1,2.14,0v16A1.07,1.07,0,0,1,485,348.63Z"/><path class="cls-2" d="M517.24,348.63a1.07,1.07,0,0,1-1.07-1.07v-16a1.07,1.07,0,1,1,2.14,0v16A1.07,1.07,0,0,1,517.24,348.63Z"/><path class="cls-2" d="M549.52,348.63a1.07,1.07,0,0,1-1.07-1.07v-16a1.07,1.07,0,0,1,2.14,0v16A1.07,1.07,0,0,1,549.52,348.63Z"/><path class="cls-2" d="M581.8,348.63a1.07,1.07,0,0,1-1.07-1.07v-16a1.07,1.07,0,0,1,2.14,0v16A1.07,1.07,0,0,1,581.8,348.63Z"/><path class="cls-2" d="M614.08,348.63a1.07,1.07,0,0,1-1.07-1.07v-16a1.07,1.07,0,1,1,2.14,0v16A1.07,1.07,0,0,1,614.08,348.63Z"/><path class="cls-2" d="M633.15,169.65a1,1,0,0,1-1-.64,1.07,1.07,0,0,1,.54-1.41l5.41-2.38a1.07,1.07,0,0,1,.86,2l-5.4,2.38A1,1,0,0,1,633.15,169.65Z"/><path class="cls-2" d="M638.55,167.27a1.07,1.07,0,0,1-.45-2l6.3-2.9a1.08,1.08,0,0,1,1.42.52,1.09,1.09,0,0,1-.53,1.43l-6.29,2.9A1.2,1.2,0,0,1,638.55,167.27Z"/><path class="cls-2" d="M646.28,175.16a1.07,1.07,0,0,1-1.06-.93l-1.44-10.79a1.07,1.07,0,0,1,2.13-.28l1.43,10.78a1.07,1.07,0,0,1-.92,1.21Z"/><path class="cls-2" d="M403.72,323a1.08,1.08,0,0,1-.35-2.09l33.25-11.51,7-28a1.07,1.07,0,0,1,.23-.45l20.8-23.4a1.07,1.07,0,0,1,1.25-.26l27.4,12.45L499.52,243a1.05,1.05,0,0,1,.81-.8L535,234.7l15.57-23a1.07,1.07,0,0,1,1.17-.43l34.89,9.36,30.76-34.28a1,1,0,0,1,.87-.35l13,.92L643.9,162.8a1.07,1.07,0,1,1,1.89,1l-13,24.7a1,1,0,0,1-1,.57l-13.13-.94L587.8,222.51a1.07,1.07,0,0,1-1.08.32l-34.79-9.33-15.39,22.76a1.06,1.06,0,0,1-.66.45l-34.43,7.44-6.35,27.28a1,1,0,0,1-.57.72,1.07,1.07,0,0,1-.91,0L465.74,259.5l-20.1,22.61-7.08,28.34a1.08,1.08,0,0,1-.69.75l-33.8,11.7A1.07,1.07,0,0,1,403.72,323Z"/><circle class="cls-5" cx="445.12" cy="282.83" r="7.15"/><path class="cls-2" d="M445.12,291.05a8.22,8.22,0,1,1,8.22-8.22A8.23,8.23,0,0,1,445.12,291.05Zm0-14.3a6.08,6.08,0,1,0,6.08,6.08A6.08,6.08,0,0,0,445.12,276.75Z"/><circle class="cls-5" cx="618.41" cy="188" r="7.15"/><path class="cls-2" d="M618.41,196.22a8.22,8.22,0,1,1,8.22-8.22A8.23,8.23,0,0,1,618.41,196.22Zm0-14.3a6.08,6.08,0,1,0,6.08,6.08A6.08,6.08,0,0,0,618.41,181.92Z"/><circle class="cls-5" cx="536.25" cy="232.71" r="7.15"/><path class="cls-2" d="M536.25,240.93a8.22,8.22,0,1,1,8.22-8.22A8.23,8.23,0,0,1,536.25,240.93Zm0-14.3a6.08,6.08,0,1,0,6.08,6.08A6.09,6.09,0,0,0,536.25,226.63Z"/><circle class="cls-2" cx="426.29" cy="157.95" r="7.15"/><circle class="cls-1" cx="426.29" cy="182.33" r="7.15" transform="translate(178.03 573.9) rotate(-80.78)"/><circle class="cls-3" cx="426.29" cy="206.7" r="7.15"/><rect class="cls-5" x="444.92" y="152.19" width="96.22" height="9.86"/><rect class="cls-5" x="444.92" y="176.62" width="58.88" height="9.86"/><rect class="cls-5" x="444.92" y="201.05" width="96.22" height="9.86"/><path class="cls-3" d="M342.09,338.23l-22.66-22.65a7.41,7.41,0,0,0,1.94-7.24l31-8.27A39.63,39.63,0,0,1,342.09,338.23Z"/><path class="cls-1" d="M306.93,308.34l-31-8.26a39.52,39.52,0,0,1,76.36,0l-31,8.27a7.35,7.35,0,0,0-1.94-3.34,7.49,7.49,0,0,0-10.57,0A7.34,7.34,0,0,0,306.93,308.34Z"/><path class="cls-5" d="M286.2,338.23A39.64,39.64,0,0,1,276,300.08l31,8.26a7.43,7.43,0,0,0,1.93,7.24Z"/><path class="cls-5" d="M314.17,349.81a39.66,39.66,0,0,1-28-11.58l22.66-22.65a7.41,7.41,0,0,0,5.58,2.18l1.24,32C315.18,349.8,314.67,349.81,314.17,349.81Z"/><path class="cls-5" d="M315.68,349.78l-1.24-32a7.33,7.33,0,0,0,5-2.18l22.66,22.65A39.42,39.42,0,0,1,315.68,349.78Z"/><path class="cls-1" d="M307.66,207.18l-27.73-16.05a39.64,39.64,0,0,1,34.22-19.74v32A7.43,7.43,0,0,0,307.66,207.18Z"/><path class="cls-5" d="M314.15,250.43a39.53,39.53,0,0,1-34.22-59.3l27.73,16.05a7.31,7.31,0,0,0-1,3.73,7.49,7.49,0,0,0,7.48,7.47,7.33,7.33,0,0,0,3.73-1l16,27.74A39.59,39.59,0,0,1,314.15,250.43Z"/><path class="cls-1" d="M333.93,245.12l-16.05-27.73a7.43,7.43,0,0,0,3.74-6.48h32.05A39.65,39.65,0,0,1,333.93,245.12Z"/><path class="cls-2" d="M353.67,210.91H321.62a7.42,7.42,0,0,0-2.4-5.5L341,181.9A39.64,39.64,0,0,1,353.67,210.91Z"/><path class="cls-2" d="M319.22,205.42a7.33,7.33,0,0,0-5.07-2v-32A39.41,39.41,0,0,1,341,181.9Z"/><path class="cls-2" d="M306.4,181.77a11.11,11.11,0,0,1-4.56-1,14,14,0,0,1-3.11-1.89,17.48,17.48,0,0,1-8.43,1.54,15.58,15.58,0,0,1-8.76-3,1.1,1.1,0,0,1-.18-1.55,1.12,1.12,0,0,1,1.55-.18,13.46,13.46,0,0,0,7.5,2.52,16.4,16.4,0,0,0,6.55-1,19.33,19.33,0,0,1-1.73-2.13c-1.52-2.16-2.11-4.08-1.79-5.88a5.24,5.24,0,0,1,9.46-2.08,6.52,6.52,0,0,1,1.06,3.87,8.26,8.26,0,0,1-2.66,6.11c-.18.16-.37.33-.57.48a11.79,11.79,0,0,0,2,1.14c6.12,2.69,12.87-2,15.85-8.08.09-.17.17-.35.25-.53a14,14,0,0,0,1.2-4.51,1.12,1.12,0,0,1,1.2-1,1.1,1.1,0,0,1,1,1.2,16.38,16.38,0,0,1-1.38,5.22l-.28.6C317.83,177.26,312.25,181.77,306.4,181.77Zm-7.85-14.6a2.91,2.91,0,0,0-.6.06,3.14,3.14,0,0,0-2.34,2.43c-.21,1.19.26,2.56,1.42,4.22a17.31,17.31,0,0,0,2,2.32,7.1,7.1,0,0,0,.8-.65,6.09,6.09,0,0,0,2-4.53,4.49,4.49,0,0,0-.67-2.57A3.18,3.18,0,0,0,298.55,167.17Z"/><path class="cls-2" d="M482.94,56.59a15,15,0,0,1-7.24-1.91,17.62,17.62,0,0,1-5.93-5.4c-5.88.13-12.61-2.19-16.3-3.67a1.11,1.11,0,0,1-.61-1.44,1.1,1.1,0,0,1,1.44-.61c2.59,1,8.7,3.27,14.15,3.5a19.2,19.2,0,0,1-2-7.39c-.2-2.74.45-4.75,1.91-6a6.19,6.19,0,0,1,5.32-1,8.92,8.92,0,0,1,6.16,4.83,7.27,7.27,0,0,1-.19,6.64,9.52,9.52,0,0,1-7.25,4.83,15.38,15.38,0,0,0,4.41,3.7,12.8,12.8,0,0,0,12.61-.07,1.1,1.1,0,1,1,1.05,1.94A15.76,15.76,0,0,1,482.94,56.59ZM471.86,34.77a3.33,3.33,0,0,0-2.13.64c-1.1.91-1.22,2.74-1.12,4.11A17,17,0,0,0,470.93,47c2.92-.27,5.42-1.35,6.74-3.82a5.13,5.13,0,0,0,.13-4.67,6.65,6.65,0,0,0-5.94-3.74Z"/><path class="cls-2" d="M895,490.32H710.49a1.11,1.11,0,0,1,0-2.21H895a1.11,1.11,0,0,1,0,2.21Z"/><path class="cls-2" d="M684.85,490.32H352.55a1.11,1.11,0,0,1,0-2.21h332.3a1.11,1.11,0,0,1,0,2.21Z"/><path class="cls-2" d="M338.84,490.32H109.14a1.11,1.11,0,0,1,0-2.21h229.7a1.11,1.11,0,0,1,0,2.21Z"/><path class="cls-2" d="M109.14,490.32H1.1a1.11,1.11,0,0,1,0-2.21h108a1.11,1.11,0,0,1,0,2.21Z"/><path class="cls-2" d="M600.17,446.22a1.13,1.13,0,0,1-.53-.14L581.28,436a1.1,1.1,0,1,1,1.06-1.93l18.36,10.08a1.1,1.1,0,0,1-.53,2.07Z"/><path class="cls-2" d="M572.18,490.34l-.19,0a1.1,1.1,0,0,1-.89-1.28L583,422.21a1.12,1.12,0,0,1,1.28-.9,1.1,1.1,0,0,1,.89,1.28l-11.91,66.84A1.11,1.11,0,0,1,572.18,490.34Z"/><path class="cls-2" d="M609.2,490.21a1.12,1.12,0,0,1-1.08-.89l-13.28-66.57a1.1,1.1,0,0,1,2.16-.44l13.29,66.58a1.1,1.1,0,0,1-.87,1.3Z"/><path class="cls-2" d="M522,490.34l-.2,0a1.11,1.11,0,0,1-.89-1.28l15-84.07a1.11,1.11,0,0,1,2.18.39l-15,84.07A1.12,1.12,0,0,1,522,490.34Z"/><path class="cls-2" d="M558.76,490.21a1.1,1.1,0,0,1-1.08-.89L544.4,422.75a1.1,1.1,0,0,1,2.16-.44l13.28,66.58a1.11,1.11,0,0,1-.86,1.3Z"/><path class="cls-1" d="M540.36,424.7a38.59,38.59,0,0,0,20.65,6H622.1a5.44,5.44,0,0,0,0-10.88H545.77A5.44,5.44,0,0,0,540.36,424.7Z"/><path class="cls-1" d="M527,410.44a38.71,38.71,0,0,0,34,20.24A38,38,0,0,0,588,419.8c12.79-12.52,10.66-31.9-1.27-48.63-16.56-23.23-36.59-36.91-61-30.73C497.91,347.46,513.75,386.05,527,410.44Z"/><path class="cls-2" d="M550,446.22a1.13,1.13,0,0,1-.53-.14L531.09,436a1.1,1.1,0,0,1,1.06-1.93l18.37,10.08a1.1,1.1,0,0,1-.54,2.07Z"/><polygon class="cls-5" points="58.79 117.92 52.69 118.54 52.63 108.28 51.35 106.28 58.79 117.92"/><polygon class="cls-1" points="51.35 106.28 44.71 95.88 12.46 126.33 66.57 130.11 58.79 117.92 51.35 106.28"/><polygon class="cls-2" points="62.52 101.34 21.3 123.81 58.76 117.94 62.52 101.34"/><path class="cls-2" d="M81.54,103a1.1,1.1,0,0,1-.23-2.18l4.67-1a1.1,1.1,0,0,1,.46,2.16l-4.67,1A.93.93,0,0,1,81.54,103Zm14-3a1.11,1.11,0,0,1-.23-2.19l4.68-1a1.1,1.1,0,1,1,.45,2.15l-4.67,1A.91.91,0,0,1,95.55,100Zm14-3a1.1,1.1,0,0,1-.23-2.18l4.67-1a1.1,1.1,0,1,1,.46,2.16l-4.67,1Zm14-3a1.11,1.11,0,0,1-.23-2.19l4.68-1a1.1,1.1,0,0,1,.45,2.16l-4.67,1A.91.91,0,0,1,123.58,94.09Zm14-3a1.11,1.11,0,0,1-1.08-.88,1.09,1.09,0,0,1,.85-1.3L142,88a1.1,1.1,0,0,1,.46,2.16l-4.67,1Zm14-3a1.1,1.1,0,0,1-1.08-.87,1.11,1.11,0,0,1,.86-1.31l4.67-1a1.1,1.1,0,1,1,.45,2.16l-4.67,1Zm14-3A1.11,1.11,0,0,1,165.4,83l4.67-1a1.11,1.11,0,0,1,1.31.86,1.09,1.09,0,0,1-.85,1.3l-4.67,1Zm14-3a1.1,1.1,0,0,1-.22-2.18l4.67-1a1.1,1.1,0,1,1,.45,2.16l-4.67,1Z"/><polygon class="cls-5" points="814.7 377.56 820.06 375.41 822.79 384.7 824.48 386.18 814.7 377.56"/><polygon class="cls-3" points="824.48 386.18 833.21 393.88 854.53 357.85 804.46 368.53 814.7 377.56 824.48 386.18"/><polygon class="cls-2" points="815.63 393.57 847.16 362.44 814.72 377.54 815.63 393.57"/><path class="cls-2" d="M715.4,436.32a1.1,1.1,0,0,1-1.29-.53,1.11,1.11,0,0,1,.45-1.5l4-2.11a1.11,1.11,0,1,1,1,1.95l-4,2.11A.7.7,0,0,1,715.4,436.32ZM727.34,430a1.11,1.11,0,0,1-1.29-.54,1.09,1.09,0,0,1,.45-1.49l4-2.12a1.1,1.1,0,0,1,1.49.46,1.09,1.09,0,0,1-.45,1.49l-4,2.12Zm11.94-6.35a1.09,1.09,0,0,1-1.29-.53,1.11,1.11,0,0,1,.45-1.5l4-2.11a1.11,1.11,0,0,1,1,1.95l-4,2.11A.84.84,0,0,1,739.28,423.63Zm11.94-6.34a1.1,1.1,0,0,1-.84-2l4-2.12a1.11,1.11,0,0,1,1,1.95l-4,2.12ZM763.16,411a1.12,1.12,0,0,1-1.3-.54,1.1,1.1,0,0,1,.46-1.49l4-2.12a1.11,1.11,0,0,1,1,1.95l-4,2.11Zm11.94-6.35a1.1,1.1,0,0,1-.84-2l4-2.11a1.09,1.09,0,0,1,1.49.45,1.11,1.11,0,0,1-.46,1.5l-4,2.11ZM787,398.26a1.1,1.1,0,0,1-.84-2l4-2.12a1.11,1.11,0,0,1,1.49.46,1.1,1.1,0,0,1-.46,1.49l-4,2.12Z"/><polygon class="cls-3" points="168.32 185.47 171.26 191.03 176.65 194.08 171.26 197.12 168.32 202.69 165.37 197.12 159.98 194.08 165.37 191.03 168.32 185.47"/><polygon class="cls-1" points="331.22 0 334.17 5.57 339.56 8.61 334.17 11.66 331.22 17.22 328.27 11.66 322.88 8.61 328.27 5.57 331.22 0"/><polygon class="cls-1" points="776.77 239.38 779.71 244.95 785.1 247.99 779.71 251.03 776.77 256.6 773.82 251.03 768.43 247.99 773.82 244.95 776.77 239.38"/><polygon class="cls-4" points="779.43 6.92 904.76 6.35 887.48 83.37 865.7 83.53 876.54 117.74 832.65 83.56 762.14 83.94 779.43 6.92"/><path class="cls-5" d="M873.53,104.57c-9.13,0-19.21-9-25.91-15l-1.71-1.52C836.7,80,829.35,70,822.24,60.27l-1.78-2.42c-5.27-7.16-12-14-15.14-13.09-1.52.43-2,3-2.21,5a30.91,30.91,0,0,0,.62,7.49,42.2,42.2,0,0,1,.69,6c.1,4.45-1.68,8.24-4.51,9.65-2.26,1.13-5,.61-7.61-1.46-8.63-6.78-8.5-18.58-8-23.34.3-3.08.87-6.15,1.43-9.13s1.1-5.88,1.39-8.83c.46-4.65.76-15.8-6.31-19a7.2,7.2,0,0,0-6.61.12c-3,1.53-5.46,5.18-6.21,9.07-1.19,6.2-.43,12.7.31,19,.25,2.11.5,4.29.68,6.42.57,6.84-.82,13.2-3.91,17.89-3.68,5.59-11.27,9.83-17.59,7.25-5.76-2.36-7.75-8.57-9.51-14.06A50.42,50.42,0,0,0,735.8,51a.89.89,0,1,1,1.61-.76,48,48,0,0,1,2.2,6c1.73,5.36,3.51,10.91,8.49,12.95,5.48,2.24,12.15-1.59,15.43-6.58,2.87-4.36,4.16-10.32,3.62-16.77-.17-2.09-.42-4.26-.67-6.35-.75-6.42-1.53-13-.29-19.52.86-4.47,3.66-8.52,7.14-10.33a9.07,9.07,0,0,1,8.17-.15c7.83,3.55,8,14.56,7.35,20.8-.3,3-.87,6.06-1.42,9s-1.11,6-1.4,9c-.43,4.46-.57,15.53,7.37,21.76,2.1,1.65,4.08,2.09,5.72,1.28,2.18-1.09,3.6-4.32,3.52-8a41.17,41.17,0,0,0-.67-5.75,32.54,32.54,0,0,1-.64-7.93c.32-3.78,1.49-6,3.51-6.56,5.18-1.47,13.65,9.12,17,13.74l1.78,2.43c7.06,9.6,14.35,19.54,23.41,27.52l1.73,1.53c6.55,5.85,16.46,14.69,25,14.51,2.88,0,4.92-1,6.23-2.93,3.09-4.5,1.42-13.67-.94-20.16A55.6,55.6,0,0,0,860,54.2c-2.58-1.9-5.39-3.61-8.1-5.27a77.32,77.32,0,0,1-11.72-8.19c-5.15-4.64-10-14-8.78-21.06a10.47,10.47,0,0,1,6.68-8.14c6-2.52,10.44,4,12.1,6.39l1.44,2.16c2.52,3.83,4.91,7.44,8.66,9.92s8.46,3.8,12.92,5c6,1.65,12.29,3.36,17,8.26a.89.89,0,0,1-1.29,1.23c-4.35-4.54-10.09-6.11-16.16-7.77-4.6-1.25-9.34-2.54-13.43-5.25s-6.66-6.61-9.17-10.42c-.47-.71-.94-1.43-1.42-2.13-2.45-3.6-5.79-7.5-10-5.76a8.66,8.66,0,0,0-5.6,6.8c-1.16,6.82,4,15.67,8.21,19.44a77,77,0,0,0,11.46,8c2.74,1.68,5.58,3.41,8.23,5.36a57.47,57.47,0,0,1,19.7,26.31c.9,2.49,5.21,15.26.73,21.78-1.63,2.39-4.22,3.64-7.67,3.71Z"/></g></g></svg>