<svg xmlns="http://www.w3.org/2000/svg" viewBox="0 0 1492.67 573.62"><defs><style>.cls-1{fill:#dce5f7;}.cls-2,.cls-6{fill:#e2a3a3;}.cls-3{fill:#161616;}.cls-4{fill:#fff;}.cls-5{fill:#e0cece;}.cls-6{opacity:0.73;}</style></defs><title>Asset 6</title><g id="Layer_2" data-name="Layer 2"><g id="Layer_5" data-name="Layer 5"><rect class="cls-1" x="1162.41" y="262.39" width="330.26" height="73.43" rx="36.71"/><path class="cls-1" d="M130.64,54.65H0A30.09,30.09,0,0,1,30.1,24.56a29.22,29.22,0,0,1,5,.41,41.13,41.13,0,0,1,76.43,7.44A22.5,22.5,0,0,1,130.64,54.65Z"/><path class="cls-1" d="M173.12,432.46H36.56A31.45,31.45,0,0,1,68,401a30.9,30.9,0,0,1,5.22.43,43,43,0,0,1,79.89,7.78A23.52,23.52,0,0,1,173.12,432.46Z"/><path class="cls-1" d="M583,94.75H379.59a32.15,32.15,0,0,1,29.06-18.4c.42,0,.82,0,1.23,0a37.71,37.71,0,0,1,30.93-16.09,36.22,36.22,0,0,1,5,.34,53.62,53.62,0,0,1,98.85-.33h.65A37.76,37.76,0,0,1,583,94.75Z"/><path class="cls-2" d="M1331.45,208.39a48.09,48.09,0,0,1,40.38-54.72l56.92-8.58a48.09,48.09,0,0,1,54.72,40.39h0a48.09,48.09,0,0,1-40.39,54.72l-56.91,8.57-26.65,26a4.08,4.08,0,0,1-6.7-1.6l-19-55.5h0a48.59,48.59,0,0,1-2.34-9.25Z"/><path class="cls-2" d="M476.48,511a68.7,68.7,0,0,1-86.9,43.45l-78-26a68.7,68.7,0,0,1-43.44-86.9h0A68.69,68.69,0,0,1,355,398.08l78,26,50.77-15.75a5.82,5.82,0,0,1,7.49,6.38l-11.8,83h0a68.54,68.54,0,0,1-3,13.28Z"/><path class="cls-3" d="M1351.91,270c-.22,0-.45,0-.67,0a5.24,5.24,0,0,1-4.1-3l-24.84-53.15a49.7,49.7,0,0,1-3.39-9.15l1.13-.29-1.13.29a49.3,49.3,0,0,1,35.14-60.15l55.67-14.62a49.26,49.26,0,0,1,25,95.3l-55.31,14.52L1356,268.05A5.23,5.23,0,0,1,1351.91,270Zm70.31-139.36a46.56,46.56,0,0,0-11.9,1.54l-55.67,14.61A47,47,0,0,0,1321.18,204h0a47.06,47.06,0,0,0,3.24,8.72l24.85,53.17a2.91,2.91,0,0,0,4.87.62l23.72-28.66a1.24,1.24,0,0,1,.61-.39l55.67-14.61a46.91,46.91,0,0,0-11.92-92.29Z"/><path class="cls-3" d="M430.46,573.62a72,72,0,0,1-7.72-.42l-81.73-9a70.38,70.38,0,1,1,15.34-139.92l81.2,8.9,45.82-25.84a7.51,7.51,0,0,1,11.18,6l6,83.6a70.52,70.52,0,0,1-.15,13.93l-1.67-.18,1.67.18A70.48,70.48,0,0,1,430.46,573.62ZM348.63,427.26a67,67,0,0,0-7.26,133.64l81.74,9A67,67,0,0,0,497,510.55h0a67.19,67.19,0,0,0,.14-13.3l-6-83.63a4.09,4.09,0,0,0-2.18-3.36,4.05,4.05,0,0,0-4,0l-46.3,26.11a1.63,1.63,0,0,1-1,.21l-81.74-9A67.45,67.45,0,0,0,348.63,427.26Z"/><rect class="cls-1" x="104.84" y="221.68" width="471.8" height="104.9" rx="52.45"/><path class="cls-3" d="M371.7,245.64a167,167,0,0,1-148.27-90.41,25.45,25.45,0,1,1,45.23-23.35,115.65,115.65,0,0,0,113.62,62.38l7.9-.71a25.45,25.45,0,1,1,4.58,50.69l-7.9.72Q379.27,245.65,371.7,245.64Z"/><path class="cls-3" d="M317.37,265.68q-76,22.15-152.4,0c-2.9-.84-.74-37.32-.45-41.75a199,199,0,0,1,6.72-39.35c9.28-33.87,27.87-66.87,67.6-66.87,32.23,0,52,22.94,62.45,51.26a282.71,282.71,0,0,1,12.11,44C314.46,218.43,321.6,264.44,317.37,265.68Z"/><polygon class="cls-3" points="212.47 107.34 265.38 107.34 270.78 137.88 207.06 137.88 212.47 107.34"/><path class="cls-4" d="M249.17,134.89H234.94a7.5,7.5,0,0,1-7.5-7.5h0a7.5,7.5,0,0,1,7.5-7.5h14.23a7.5,7.5,0,0,1,7.5,7.5h0A7.49,7.49,0,0,1,249.17,134.89Z"/><path class="cls-4" d="M234.22,129.66c4.4,1,7.34,61.82-7.55,105.68l16.56-18.25,20.28,9.64c1.82-14.63-12-106.41-21-98.9Z"/><path class="cls-3" d="M216.41,313c-25.24,0-46.59-7.72-62-22.45-19.59-18.78-27.95-47.58-21.82-75.17,6-26.85,23.7-51.1,54.22-74.15a25.45,25.45,0,0,1,30.67,40.62c-20.17,15.24-32,30.23-35.2,44.57-2.26,10.18.62,20.93,7.35,27.37,6.21,6,16.12,8.74,29.45,8.26,12.65-.45,27.9-4.06,41.85-9.9a25.45,25.45,0,0,1,19.65,47c-11.4,4.77-34.31,12.9-59.68,13.81C219.41,313,217.9,313,216.41,313Z"/><path class="cls-4" d="M296.83,278.42a1.67,1.67,0,0,1-1.66-1.47c-1.37-10.88-8.87-23.13-22.09-24.33-6.71-.61-13.37,1.09-21.31,3.82-21.16,7.31-47.47,13.75-63.27-1.39-7.15-6.85-10.22-18.21-7.83-29,2.17-9.76,8.24-19.86,18-30a1.68,1.68,0,0,1,2.42,2.33c-9.36,9.7-15.14,19.26-17.17,28.41-2.14,9.62.56,19.74,6.87,25.79,14.49,13.88,39.6,7.64,59.86.65,6.72-2.32,14.57-4.74,22.7-4a25.55,25.55,0,0,1,17.37,9.19,34.68,34.68,0,0,1,7.75,18.07,1.69,1.69,0,0,1-1.46,1.88Z"/><path class="cls-2" d="M440,237.22a1.68,1.68,0,0,1-1.05-3c1.13-.91,5.95-4.14,12.63-8.6,3.87-2.58,7.52-5,8.19-5.53,5.55-4.23,7.06-7.51,5.06-11a6.9,6.9,0,0,0-4.28-3.08,6.72,6.72,0,0,0-5.1.6l0,0-6.86,4.12a1.66,1.66,0,0,1-1.56.09,1.7,1.7,0,0,1-1-1.24c0-.13,0-.27-.08-.41l0-.17a1.68,1.68,0,0,1,.78-1.77l18.89-11.37a6.69,6.69,0,0,0,2.28-9.2c-2.8-4.66-7.76-3-10.47-1.53-.46.24-2.3,1.46-4.25,2.74-2.54,1.67-5.7,3.74-8.31,5.34-4.38,2.7-5.68,3.27-6.82,2.34l-.72-.54a1.69,1.69,0,0,1-.11-2.59,30.74,30.74,0,0,1,6.9-4.3,45.36,45.36,0,0,0,4-2.2,10.31,10.31,0,0,0,4.9-6.56,6.73,6.73,0,0,0-1.54-5.43,7.4,7.4,0,0,0-5.28-3c-7.19-.71-17.18,7.8-23.15,12.89-1.22,1-2.28,1.94-3.2,2.68a1.68,1.68,0,0,1-2.1-2.63c.88-.7,1.92-1.58,3.12-2.61,6.79-5.78,17.06-14.53,25.66-13.68a10.78,10.78,0,0,1,7.58,4.28,10.06,10.06,0,0,1,2.22,8.08,10.33,10.33,0,0,1-.68,2.33l.17-.09c6.3-3.33,11.88-2.29,14.92,2.77a10,10,0,0,1-3.43,13.81l-6.43,3.87.49.11a10.28,10.28,0,0,1,6.36,4.66c4.34,7.48-3.39,13.37-5.94,15.31-.71.55-3.64,2.5-8.35,5.65-5,3.36-11.29,7.54-12.4,8.43A1.66,1.66,0,0,1,440,237.22Z"/><circle class="cls-4" cx="239.84" cy="57.04" r="28.6" transform="translate(-6.52 66.09) rotate(-15.48)"/><path class="cls-1" d="M239.84,87.32A30.28,30.28,0,1,1,270.12,57,30.31,30.31,0,0,1,239.84,87.32Zm0-57.2A26.92,26.92,0,1,0,266.76,57,26.95,26.95,0,0,0,239.84,30.12Z"/><path class="cls-3" d="M272.49,49c-8.7.67-19.08-1.66-26.65-5.14-5.17-2.38-11.38-8.18-16.61-5.92-4.94,2.14-12.79,8.88-12.81,14.2,0,1.36,3.22,5.71,3.25,7.47,0,1.55,4.28.6,3.85,1.85-3.89,11.26-16.75,6.84-22.9.33-7.55-8-10.06-23.92,1.79-29.5a12.39,12.39,0,0,1,4.72-1.06c3.4-.14,7.05,1.55,10.07,0,4.9-2.59,2.71-9.35,3.3-13.73,2.77-20.55,27.74-20,41.63-13.08a41.62,41.62,0,0,1,18.93,19.15c3.21,6.6,4,19.85-3.65,24.15A12.06,12.06,0,0,1,272.49,49Z"/><path class="cls-2" d="M221.67,62.3a1.77,1.77,0,0,1-.6-.11,9.28,9.28,0,0,1-6.18-7.66c-1.13-7.58,4-16,11.25-18.49s14.68,1,20.62,3.78a1.68,1.68,0,1,1-1.43,3c-5.39-2.52-12.1-5.67-18.12-3.63-5.68,1.92-9.89,8.84-9,14.8a6,6,0,0,0,4.06,5,1.68,1.68,0,0,1-.6,3.25Z"/><path class="cls-5" d="M407.27,264.26v0Z"/><path class="cls-4" d="M286.3,277.87V293.2h230a24,24,0,0,0,23-17.28l46.89-114.34A7.68,7.68,0,0,0,579.09,151l-156.8.44a10.87,10.87,0,0,0-10,6.72l-44.1,111.63H296.83a10.54,10.54,0,0,0-10.53,10.53h0Z"/><path class="cls-3" d="M516.32,294.88h-230a1.68,1.68,0,0,1-1.68-1.68V277.87a1.7,1.7,0,0,1,.56-1.25,12.24,12.24,0,0,1,11.65-8.55H367L410.71,157.5a12.52,12.52,0,0,1,11.58-7.78l156.79-.44h0a9.37,9.37,0,0,1,8.66,12.94L540.91,276.48A25.85,25.85,0,0,1,516.32,294.88ZM288,291.52H516.32a22.48,22.48,0,0,0,21.39-16.07l.06-.17,46.89-114.34a6,6,0,0,0-5.55-8.3h0l-156.79.44a9.16,9.16,0,0,0-8.47,5.68l-44.1,111.61a1.67,1.67,0,0,1-1.56,1.06H296.83a8.86,8.86,0,0,0-8.85,8.85Z"/><path class="cls-4" d="M438.88,152.55a10.88,10.88,0,0,0-10,6.72L382.69,269.75H517.05Z"/><path class="cls-3" d="M517.05,271.43H382.69a1.68,1.68,0,0,1-1.55-2.33l46.18-110.47a12.5,12.5,0,0,1,11.56-7.76h0a1.68,1.68,0,0,1,0,3.36,9.15,9.15,0,0,0-8.47,5.69L385.21,268.07H517.05a1.68,1.68,0,1,1,0,3.36Z"/><path class="cls-2" d="M320.19,294.05a1.68,1.68,0,0,1-.17-3.35c9-.92,33-3.39,38.55-11.19a5.58,5.58,0,0,0,.91-4.8,6.69,6.69,0,0,0-8.08-5L337,273.19a1.69,1.69,0,0,1-2.06-1.86c.05-.31.09-.63.12-.95a1.66,1.66,0,0,1,1.28-1.47l21.31-5.1a6.7,6.7,0,1,0-3.11-13l-21.45,5.13a1.68,1.68,0,0,1-1.79-.72l-.09-.13-.24-.36a1.69,1.69,0,0,1,1-2.59l7.86-1.88a6.69,6.69,0,0,0,4-3.13,6.91,6.91,0,0,0,.9-5.21c-1-3.86-4.37-5.14-11.29-4.27-2.54.33-5.61.63-8.85,1-4.86.49-10.38,1-16.13,1.82a1.67,1.67,0,0,1-1.89-1.43,1.7,1.7,0,0,1,1.44-1.9c5.81-.79,11.35-1.34,16.25-1.83,3.36-.34,6.26-.63,8.76-.95,3.17-.4,12.81-1.61,15,6.77a10.23,10.23,0,0,1-1.27,7.77c-.09.14-.18.29-.27.42l7.3-1.74a10.07,10.07,0,0,1,4.68,19.58l-.92.22a10,10,0,0,1,5.23,6.63,8.91,8.91,0,0,1-1.44,7.52c-5.65,8-23.87,10.84-40.95,12.6Z"/><path class="cls-3" d="M207.09,50.24h0A16.23,16.23,0,0,0,204.31,54a13.73,13.73,0,0,0,5.54,18.63,8.21,8.21,0,0,0,2.71.87C221.61,74.86,228.07,64.62,223,57c-2.16-3.29-5.52-5.74-9.61-7.67A5.84,5.84,0,0,0,207.09,50.24Z"/><path class="cls-3" d="M242.73,95q-1.41,0-2.76-.06A8.47,8.47,0,0,1,240.73,78a55.48,55.48,0,0,0,8.47-.34,8.47,8.47,0,0,1,1.9,16.84A74.18,74.18,0,0,1,242.73,95Z"/><path class="cls-3" d="M240.36,90.18h-.17c-14-.63-21.17-6.48-24.73-11.28A22.49,22.49,0,0,1,211,68a3.74,3.74,0,0,1,7.45-.6c.07.66,1.66,14.39,22,15.31a3.74,3.74,0,0,1-.16,7.47Z"/><circle class="cls-4" cx="361.89" cy="495.16" r="10.64" transform="translate(-184.84 773.06) rotate(-80.78)"/><circle class="cls-4" cx="393.89" cy="495.16" r="10.64" transform="translate(-157.97 804.65) rotate(-80.78)"/><circle class="cls-4" cx="425.89" cy="495.16" r="10.64" transform="translate(-131.1 836.23) rotate(-80.78)"/><path class="cls-4" d="M866.13,336.9H770.92a1.68,1.68,0,0,1,0-3.36h95.21a1.68,1.68,0,0,1,0,3.36Z"/><path class="cls-4" d="M866.13,355.35H741a1.68,1.68,0,1,1,0-3.36H866.13a1.68,1.68,0,0,1,0,3.36Z"/><path class="cls-4" d="M1438.19,195.3H1399.1a1.18,1.18,0,0,1,0-2.35h39.09a1.18,1.18,0,0,1,0,2.35Z"/><path class="cls-6" d="M1276.05,241.68a42.48,42.48,0,0,1-.74,7.57c-.08.37-.16.73-.26,1.08a7.73,7.73,0,0,1-.26-1.08h-7.12c-6.71-8.58-14.08-17-19.1-26.67-.36-.71-.71-1.43-1.06-2.15-3.71-7.93-5.74-29.93,9.63-23.77,7.74,3.1,12.52,11,15.34,19.89a80.31,80.31,0,0,1,3.29,17.42C1276,236.75,1276.07,239.36,1276.05,241.68Z"/><path class="cls-6" d="M1291.42,189.77c-.32,8.88-1.73,17.7-2,20-.62,5-1.44,10.06-2.51,15.06a132,132,0,0,1-6.87,22.7,24.49,24.49,0,0,1-2.75,4.8l-15.19,2.33c0,.4-.1.79-.17,1.17a7,7,0,0,1-.52-1.07,16.09,16.09,0,0,1-.86-4.83q-.33-5.61-.3-11.27a176.48,176.48,0,0,1,3.12-32,110.36,110.36,0,0,1,6.71-23.34c1.89-4.38,5.84-11.69,11.31-14C1290.31,165.69,1291.85,177.77,1291.42,189.77Z"/><path class="cls-2" d="M1270.86,249.25h-17.92a156.28,156.28,0,0,1-14.3-10.32c-4.91-4.08-11.77-12.05-4.46-17.41a10.71,10.71,0,0,1,6.9-1.92,17.4,17.4,0,0,1,8.08,3,32.82,32.82,0,0,1,3,2.2C1260.24,231.27,1266.16,240,1270.86,249.25Z"/><path class="cls-2" d="M1302,232.83a137.28,137.28,0,0,1-17.24,16.42h-28a26.49,26.49,0,0,1,2.66-7.61,57.18,57.18,0,0,1,23.8-23.57,42.33,42.33,0,0,1,12-4.06,22.45,22.45,0,0,1,6.81-.18,13.9,13.9,0,0,1,3.15.82C1314,218.17,1305.78,228.58,1302,232.83Z"/><polygon class="cls-4" points="1267.93 249.25 1296.29 249.25 1287.36 295.68 1250.61 295.68 1241.68 249.25 1267.41 249.25 1267.93 249.25"/></g></g></svg>