<svg xmlns="http://www.w3.org/2000/svg" viewBox="0 0 1096.49 551.69"><defs><style>.cls-1{fill:#d28d88;}.cls-2{fill:#1e1e1e;}.cls-3{fill:#dce5f7;}.cls-4{fill:#e2afaf;}.cls-5{fill:#fff;}</style></defs><title>Asset 4</title><g id="Layer_2" data-name="Layer 2"><g id="Layer_3" data-name="Layer 3"><polygon class="cls-1" points="633.28 60.96 641.13 95.46 674 108.56 643.61 126.68 641.31 161.99 614.68 138.69 580.39 147.41 594.33 114.89 575.43 84.97 610.67 88.17 633.28 60.96"/><path class="cls-2" d="M640.68,149.59a1.15,1.15,0,0,1-.62-.18l-29-19.17-32.25,13a1.12,1.12,0,0,1-1.16-.2,1.08,1.08,0,0,1-.33-1.12l9.25-33.55L564.15,81.78A1.1,1.1,0,0,1,565,80l34.76-1.57,18.43-29.52a1.11,1.11,0,0,1,1.05-.52,1.13,1.13,0,0,1,.93.72l12.23,32.58L666.12,90a1.11,1.11,0,0,1,.81.85,1.1,1.1,0,0,1-.39,1.1l-27.21,21.7,2.45,34.71a1.12,1.12,0,0,1-.54,1A1.15,1.15,0,0,1,640.68,149.59Zm-29.53-21.71a1.14,1.14,0,0,1,.61.18l27.65,18.25-2.33-33a1.09,1.09,0,0,1,.41-.94L663.4,91.66l-32.16-8a1.1,1.1,0,0,1-.77-.68L618.83,52,601.29,80.07a1.12,1.12,0,0,1-.89.52l-33.1,1.48,21.31,25.37a1.09,1.09,0,0,1,.22,1L580,140.39,610.73,128A1,1,0,0,1,611.15,127.88Z"/><path class="cls-3" d="M318,104.94H0a44.16,44.16,0,0,1,.35-7.59h0A68.93,68.93,0,0,1,8.63,73.06c6.72-11.85,16.8-20.6,28.11-17.9a25,25,0,0,1,10.68,6c5.45,4.82,9.84,10.75,15.23,15.63S75,85.55,82.2,85c9.1-.66,15.63-8.79,17-17.36C102.46,47.06,102.26,6.35,128,.71c.48-.1,1-.2,1.45-.28,22-3.76,37.19,17.74,43.05,37,.67,2.19,1.21,4.35,1.63,6.44A83.22,83.22,0,0,1,176,60l.12,1.05c.17,1.49.37,3,.62,4.42a35.59,35.59,0,0,0,3.05,10,4.58,4.58,0,0,0,2.66,2.67c3.52.85,6.47-3.23,8.48-6.47.57-.91,1.06-1.76,1.48-2.42,6.38-10.13,24-16.89,32-4.73,5.56,8.49.93,25,12.51,29.28,13.27,4.85,16.61-12.6,17.79-21.55,1.45-11,1.21-22.26,4.45-33,1.37-3.2,3.66-6.86,7.32-7.32,3.67,0,6.87,2.75,8.25,6,4.06,9.86,5.18,20.49,6.66,31,1.21,8.5,2.86,27.23,14.15,28.29,6,.55,11.42-10.15,17-5.41C316,94.79,315.83,101.08,318,104.94Z"/><polygon class="cls-4" points="426.17 38.71 429.14 44.32 434.56 47.38 429.14 50.45 426.17 56.05 423.2 50.45 417.77 47.38 423.2 44.32 426.17 38.71"/><polygon class="cls-4" points="888.74 78.63 891.7 84.23 897.13 87.3 891.7 90.37 888.74 95.97 885.77 90.37 880.34 87.3 885.77 84.23 888.74 78.63"/><polygon class="cls-4" points="656.72 444.37 659.69 449.98 665.12 453.04 659.69 456.11 656.72 461.71 653.75 456.11 648.33 453.04 653.75 449.98 656.72 444.37"/><polygon class="cls-4" points="941.75 509.23 944.72 514.84 950.14 517.9 944.72 520.97 941.75 526.58 938.78 520.97 933.35 517.9 938.78 514.84 941.75 509.23"/><path class="cls-4" d="M853,475.35a4.68,4.68,0,1,1,4.68-4.68A4.69,4.69,0,0,1,853,475.35Z"/><path class="cls-4" d="M835.29,475.35a4.68,4.68,0,1,1,4.67-4.68A4.68,4.68,0,0,1,835.29,475.35Z"/><path class="cls-4" d="M835.29,456.2a4.68,4.68,0,1,1,4.67-4.68A4.68,4.68,0,0,1,835.29,456.2Z"/><path class="cls-4" d="M835.29,493.1a4.68,4.68,0,1,1,4.67-4.68A4.67,4.67,0,0,1,835.29,493.1Z"/><path class="cls-4" d="M817.59,475.35a4.68,4.68,0,1,1,4.68-4.68A4.68,4.68,0,0,1,817.59,475.35Z"/><path class="cls-1" d="M441.48,118.36h0A11.48,11.48,0,0,1,430,129.84h0a11.48,11.48,0,0,1-11.48-11.48h0A11.48,11.48,0,0,1,430,106.88h0A11.48,11.48,0,0,1,441.48,118.36Z"/><path class="cls-4" d="M468.21,147.51h0a6.1,6.1,0,0,1-6.1,6.09h0a6.1,6.1,0,0,1-6.1-6.09h0a6.1,6.1,0,0,1,6.1-6.1h0A6.1,6.1,0,0,1,468.21,147.51Z"/><path class="cls-1" d="M451.78,140.36H430.89a1.11,1.11,0,0,1-1.11-1.11V118.36a1.11,1.11,0,0,1,1.11-1.11h20.89a1.11,1.11,0,0,1,1.11,1.11v20.89A1.11,1.11,0,0,1,451.78,140.36ZM432,138.14h18.67V119.47H432Z"/><path class="cls-3" d="M1006.7,145.54s-92.41,0-92.51,0H892.05a19.4,19.4,0,0,1-.25-4.31h0l0-.35c0-.12,0-.19,0-.22a39.92,39.92,0,0,1,1.28-5.71,30.43,30.43,0,0,1,3.36-7.5,20.13,20.13,0,0,1,6.89-6.84,27.49,27.49,0,0,1,9.06-3.32,20.59,20.59,0,0,1,15.27,3c2.76,1.88,5.31,4.78,8.79,5.24,5.32.69,6.72-5.17,7.15-9.22,1.16-10.91,2.09-27.91,15.39-31a7.63,7.63,0,0,1,6,1c3.31,2.09,5.41,6.5,6.6,10.12,1.93,5.84,3,12.18,5.4,17.84,1.79,4.19,5.33,6.73,10,6.11a11.16,11.16,0,0,1,4.51.33,16.88,16.88,0,0,1,8.41,6,23.67,23.67,0,0,1,2.06,3.12C1004.57,134.45,1005.66,140.33,1006.7,145.54Z"/><path class="cls-3" d="M953.22,438.66h143.27c-1-12-8.81-32.47-10.27-34.83-.59-.95-1.11-1.84-1.54-2.52-6.69-10.62-25.14-17.69-33.47-5-5.82,8.89-1,26.23-13.1,30.66-13.9,5.08-17.4-13.2-18.63-22.57-1.52-11.51-1.27-23.31-4.66-34.52-1.44-3.35-3.84-7.19-7.67-7.67-3.84,0-7.19,2.88-8.64,6.24-4.25,10.33-5.42,21.47-7,32.43-1.27,8.89-3,28.51-14.82,29.62-6.28.58-12-10.63-17.78-5.67C955.25,428,955.45,434.61,953.22,438.66Z"/><path class="cls-2" d="M751.88,62.5c-7,0-14.28-3.89-15.17-11a13.31,13.31,0,0,1,0-3.45,16.75,16.75,0,0,1-5.39-6.15,15.05,15.05,0,0,1-1.85-8.68,1.11,1.11,0,0,1,2.2.29,13,13,0,0,0,1.61,7.35,15.38,15.38,0,0,0,3.93,4.81,19.74,19.74,0,0,1,.87-2.39c1-2.32,2.33-3.75,4-4.37a5.06,5.06,0,0,1,6.41,6.8,6.31,6.31,0,0,1-2.66,2.8,7.94,7.94,0,0,1-6.36.82l-.61-.2a10.45,10.45,0,0,0,.06,2.1c.86,6.94,8.89,9.43,14.32,9a5.32,5.32,0,0,0,.56-.06,13.49,13.49,0,0,0,4.27-1.22,1.11,1.11,0,0,1,1,2,15.66,15.66,0,0,1-5,1.43l-.64.06C752.91,62.48,752.4,62.5,751.88,62.5ZM739.21,46.89a7.08,7.08,0,0,0,.88.31,5.76,5.76,0,0,0,4.63-.61,4.11,4.11,0,0,0,1.75-1.78,2.84,2.84,0,0,0-3.6-3.81c-1.06.4-2,1.44-2.73,3.19A16.31,16.31,0,0,0,739.21,46.89Z"/><rect class="cls-3" x="208.29" y="195.81" width="691.77" height="197.03" rx="87.22"/><path class="cls-2" d="M486.71,397.67a1.11,1.11,0,0,1-.06-2.22L768.35,380a1.12,1.12,0,0,1,1.17,1.05,1.1,1.1,0,0,1-1,1.17l-281.7,15.45Z"/><path class="cls-2" d="M210.31,341.53a1.11,1.11,0,0,1-1.11-1l-5-91.32a35.53,35.53,0,0,1,33.5-37.38l622.06-34.12a35.49,35.49,0,0,1,37.39,33.5l1.14,20.77a1.12,1.12,0,0,1-1,1.17,1.11,1.11,0,0,1-1.17-1l-1.14-20.77a33.27,33.27,0,0,0-35-31.4L237.81,214a33.31,33.31,0,0,0-31.4,35l5,91.32a1.1,1.1,0,0,1-1,1.17Z"/><path class="cls-2" d="M246.62,410.78a35.4,35.4,0,0,1-33.08-22.68,1.11,1.11,0,1,1,2.07-.8,33.21,33.21,0,0,0,32.87,21.21,1.11,1.11,0,0,1,.12,2.22C247.94,410.77,247.28,410.78,246.62,410.78Z"/><polygon class="cls-5" points="313.14 241.38 328.8 273.11 363.81 278.2 338.48 302.9 344.46 337.77 313.14 321.31 281.82 337.77 287.8 302.9 262.47 278.2 297.48 273.11 313.14 241.38"/><polygon class="cls-1" points="292.76 234.63 308.42 266.36 343.44 271.44 318.1 296.14 324.08 331.02 292.76 314.55 261.44 331.02 267.42 296.14 242.09 271.44 277.1 266.36 292.76 234.63"/><polygon class="cls-5" points="433.66 241.38 449.32 273.11 484.33 278.2 459 302.9 464.98 337.77 433.66 321.31 402.34 337.77 408.32 302.9 382.98 278.2 418 273.11 433.66 241.38"/><polygon class="cls-5" points="554.17 241.38 569.83 273.11 604.85 278.2 579.51 302.9 585.49 337.77 554.17 321.31 522.86 337.77 528.84 302.9 503.5 278.2 538.52 273.11 554.17 241.38"/><polygon class="cls-5" points="674.69 241.38 690.35 273.11 725.37 278.2 700.03 302.9 706.01 337.77 674.69 321.31 643.37 337.77 649.36 302.9 624.02 278.2 659.03 273.11 674.69 241.38"/><polygon class="cls-1" points="676.13 241.19 691.79 272.92 726.81 278.01 701.47 302.7 707.45 337.58 676.13 321.11 644.81 337.58 650.79 302.7 625.46 278.01 660.47 272.92 676.13 241.19"/><polygon class="cls-5" points="795.21 241.38 810.87 273.11 845.88 278.2 820.55 302.9 826.53 337.77 795.21 321.31 763.89 337.77 769.87 302.9 744.54 278.2 779.55 273.11 795.21 241.38"/><path class="cls-4" d="M389.55,445.05a9.56,9.56,0,0,1-9.35-11.6l1.33-6.05a9.56,9.56,0,1,1,18.67,4.08l-1.33,6A9.55,9.55,0,0,1,389.55,445.05Z"/><path class="cls-4" d="M375,445.78a3.38,3.38,0,0,1-2.36-5.81l10.05-9.76a3.38,3.38,0,1,1,4.71,4.85l-10,9.76A3.38,3.38,0,0,1,375,445.78Z"/><path class="cls-4" d="M376,454.24a3.38,3.38,0,0,1-2.44-5.73l11.29-11.77a3.39,3.39,0,0,1,4.89,4.69L378.49,453.2A3.39,3.39,0,0,1,376,454.24Z"/><path class="cls-4" d="M383,456.76a3.38,3.38,0,0,1-2.61-5.54l8.5-10.28a3.38,3.38,0,0,1,5.22,4.31l-8.5,10.28A3.38,3.38,0,0,1,383,456.76Z"/><path class="cls-2" d="M363.11,524l4.41,4,6-3.17,3,2.76-2.09,6.7L392.94,551l2.76-3a8.26,8.26,0,0,0,1.73-8.32l-1.22-3.5-2.06-5.92,3.67-8.65.22-.53-6.69-5.45-.85-.69-10.88-8.85L376.08,510l-7.22,7.82-3,3.24Z"/><path class="cls-2" d="M401,490.06a1.15,1.15,0,0,1-.26,0l-55.56-13.51a1.11,1.11,0,0,1-.82-1.34l9.89-40.68a1.11,1.11,0,0,1,1.35-.82l15.12,3.68a1.11,1.11,0,1,1-.52,2.16l-14.05-3.42-9.37,38.53,53.4,13,9.37-38.53-6.19-1.5a1.11,1.11,0,0,1,.52-2.16l7.28,1.77a1.11,1.11,0,0,1,.68.5,1.08,1.08,0,0,1,.13.84l-9.89,40.68a1.1,1.1,0,0,1-1.08.85Z"/><polygon class="cls-2" points="470.46 403.37 438 382.35 448.38 366.3 475.81 384.06 515.25 382.71 515.91 401.81 470.46 403.37"/><rect class="cls-4" x="515.36" y="382.58" width="9.32" height="19.11" transform="translate(-54.6 85.54) rotate(-8.94)"/><path class="cls-4" d="M524.12,401.22a3.39,3.39,0,0,1-.59-6.72l13.58-2.42a3.39,3.39,0,0,1,1.18,6.67l-13.58,2.41A3,3,0,0,1,524.12,401.22Z"/><path class="cls-4" d="M525.72,394.34a3.39,3.39,0,0,1-.63-6.72l16-3a3.39,3.39,0,0,1,1.27,6.66l-16,3A3.55,3.55,0,0,1,525.72,394.34Z"/><path class="cls-4" d="M524.64,388.65a3.39,3.39,0,0,1-.87-6.66l12.89-3.44a3.39,3.39,0,0,1,1.75,6.54l-12.89,3.44A3.33,3.33,0,0,1,524.64,388.65Z"/><path class="cls-4" d="M520.05,389.27a3.39,3.39,0,0,1-2.61-5.55l6-7.22a3.38,3.38,0,0,1,5.22,4.31l-6,7.23A3.38,3.38,0,0,1,520.05,389.27Z"/><path class="cls-2" d="M514.55,404.35h-.14a3.37,3.37,0,0,1-3.24-3.5l.68-17a3.37,3.37,0,0,1,6.74.27l-.68,17A3.37,3.37,0,0,1,514.55,404.35Z"/><path class="cls-5" d="M502.74,398.19a2.55,2.55,0,1,0,1.92-3.05A2.55,2.55,0,0,0,502.74,398.19Z"/><path class="cls-2" d="M460.48,551.69h6l2.31-6.37h4.11l2.94,6.37h24.93l0-4.07v-.09a8.26,8.26,0,0,0-4.3-7.24l-3.26-1.78-5.51-3-3.09-8.87-.19-.55-8.62.46-1.08.06-14,.75,0,5.06-.1,11,0,4.19Z"/><rect class="cls-2" x="454.92" y="493.68" width="26.38" height="32.33" transform="translate(-102.62 118.26) rotate(-12.99)"/><path class="cls-2" d="M464.47,507.28a13.21,13.21,0,0,1-12.85-10.23l-8-34.65-27.34-25.53a25.13,25.13,0,0,1-8-18l-.16-14.74a13.18,13.18,0,0,1,13.05-13.33h.15a13.19,13.19,0,0,1,13.18,13.05l.15,14.17,29.87,27.88a13.18,13.18,0,0,1,3.85,6.68l8.9,38.58a13.2,13.2,0,0,1-12.86,16.16Z"/><path class="cls-1" d="M459.11,529.46a3.37,3.37,0,0,1-.09-6.74l27.19-.81a3.37,3.37,0,0,1,.2,6.74l-27.19.81Z"/><rect class="cls-2" x="384.53" y="488.91" width="27.57" height="26.38" transform="translate(-241.91 531.71) rotate(-54.22)"/><path class="cls-2" d="M406.36,504.11a13.19,13.19,0,0,1-10.69-20.91L413,459.15l11.06-45.41A13.19,13.19,0,0,1,449.7,420L438,467.9a13.12,13.12,0,0,1-2.12,4.58l-18.84,26.15A13.17,13.17,0,0,1,406.36,504.11Z"/><path class="cls-2" d="M437.1,429.48H421.37a13.19,13.19,0,1,1,0-26.38H437.1a13.19,13.19,0,1,1,0,26.38Z"/><path class="cls-1" d="M400.56,523.46a3.4,3.4,0,0,1-1.87-.56l-20.94-14a3.37,3.37,0,1,1,3.74-5.6l20.94,14a3.37,3.37,0,0,1-1.87,6.17Z"/><path class="cls-1" d="M408.15,405.19l42.69,10.52,5.87-30a24.35,24.35,0,0,0-10.13-24.62,24.65,24.65,0,0,0-13.82-4.22h0a24.71,24.71,0,0,0-24.71,24.71Z"/><path class="cls-4" d="M445.71,361.42l-.58-11.58-.52-7.44-.24-3.53a5.88,5.88,0,0,0-6.27-5.46,6.42,6.42,0,0,0-.75.1,5.88,5.88,0,0,0-4.62,4.67,6.21,6.21,0,0,0-.09,1.5l.86,12.48.34,4.86C434.06,360.26,445.93,364.66,445.71,361.42Z"/><path class="cls-1" d="M424.75,467.76a10.41,10.41,0,0,0,7.1,10.36l4.14-5.74a12.74,12.74,0,0,0,2-4.36l2.17-8.9a10.42,10.42,0,0,0-15.42,8.64Z"/><polygon class="cls-5" points="432.13 352.56 447.88 361.38 445.71 364.03 431.66 361.98 432.13 352.56"/><path class="cls-4" d="M447.82,348.49h0a7.26,7.26,0,0,0,3.62-9.6L449,333.41a9.56,9.56,0,0,0-12.64-4.78h0a9.57,9.57,0,0,0-4.78,12.65l.58,1.28A11.87,11.87,0,0,0,447.82,348.49Z"/><path class="cls-4" d="M448.34,334.85l5.84,4.53a1,1,0,0,1-.37,1.78l-4,1.07Z"/><path class="cls-2" d="M439.46,334a10.44,10.44,0,0,1,0,2.66,3.28,3.28,0,0,1-2.2,2.3,15.07,15.07,0,0,1-4.5.5c-3.28.06-7.5-2.06-5.89-6a3.71,3.71,0,0,1,3.38-2.33,3.14,3.14,0,0,1-2.68-.84,2.45,2.45,0,0,1-.52-2.69,3,3,0,0,1,2.79-1.47,8.64,8.64,0,0,1,3.18.94,4.94,4.94,0,0,1,2.42-3.39,4,4,0,0,1,4.09.17,1.86,1.86,0,0,1,.82,1.07,1,1,0,0,1-.52,1.15,3,3,0,0,1,5.53-1.95,2.34,2.34,0,0,1,.32,1.06,5.17,5.17,0,0,0-.35,1.05c1.51.25,4.52-1.51,2.76-3.26a4.78,4.78,0,0,1,4.52,2.51,3.91,3.91,0,0,1-.28,3.84c-1.6,2.57-4.82,3.06-7.55,3.53-1.57.27-4.68,1-4.68,1l-.58.17Z"/><path class="cls-5" d="M450.84,416.83a1.26,1.26,0,0,1-.27,0l-42.5-10.48a1.11,1.11,0,0,1-.81-1.34,1.12,1.12,0,0,1,1.35-.82l42.5,10.49a1.1,1.1,0,0,1,.81,1.34A1.12,1.12,0,0,1,450.84,416.83Z"/><path class="cls-5" d="M435.15,413.44a4.89,4.89,0,1,0,4.89-4.89A4.89,4.89,0,0,0,435.15,413.44Z"/><path class="cls-5" d="M447.37,467.54a1.07,1.07,0,0,1-.75-.29l-30.31-28a1.11,1.11,0,1,1,1.51-1.63l30.3,28a1.11,1.11,0,0,1,.07,1.57A1.14,1.14,0,0,1,447.37,467.54Z"/><path class="cls-1" d="M454.52,453.69a10.42,10.42,0,0,0,16.18,8.67l-2.27-9.82a13.18,13.18,0,0,0-3.85-6.68l-2.37-2.21A10.4,10.4,0,0,0,454.52,453.69Z"/><rect class="cls-1" x="442.37" y="382.47" width="10.36" height="10.36" transform="translate(1038.12 345.3) rotate(135)"/><rect class="cls-5" x="434.4" y="382.47" width="10.36" height="10.36" transform="translate(1024.51 350.93) rotate(135)"/><rect class="cls-1" x="353.89" y="447.38" width="57.18" height="41.87" transform="translate(643.49 1013.73) rotate(-166.33)"/><path class="cls-2" d="M452.29,341.61a4.28,4.28,0,0,0-2-.7,5.29,5.29,0,0,0-3.37.86c-1.1.72-2,1.67-3.44,1.27a9,9,0,0,1-1.53-.65,18.37,18.37,0,0,1-3.38-2.21h0l-5.69,2.74c-.55.38,2,3.17,2.21,3.46A12.92,12.92,0,0,0,445.16,351a11.07,11.07,0,0,0,6.25-2.18C453.77,347,454.53,343.2,452.29,341.61Z"/><circle class="cls-4" cx="435.2" cy="340.17" r="4.51" transform="translate(-61.32 98.13) rotate(-12.02)"/><path class="cls-2" d="M399.3,400.41a9.56,9.56,0,0,1-6.47-16.6l23.39-21.44a9.55,9.55,0,1,1,12.92,14.08L405.75,397.9A9.52,9.52,0,0,1,399.3,400.41Z"/><path class="cls-4" d="M394.34,455h-.19a3.39,3.39,0,0,1-3.2-3.57l.64-11.73a3.38,3.38,0,1,1,6.76.36l-.64,11.74A3.38,3.38,0,0,1,394.34,455Z"/><rect class="cls-2" x="375.33" y="400.59" width="39.49" height="19.11" transform="translate(-89.97 708.54) rotate(-77.67)"/><path class="cls-2" d="M399.3,435a3.19,3.19,0,0,1-.75-.08l-16.81-3.8a3.37,3.37,0,1,1,1.48-6.57L400,428.35a3.37,3.37,0,0,1-.74,6.66Z"/><path class="cls-5" d="M385.36,420.09a2.55,2.55,0,1,0,2.81-2.26A2.55,2.55,0,0,0,385.36,420.09Z"/><path class="cls-5" d="M382.4,477.79a1.09,1.09,0,0,1-.92-.49l-5.8-8.59a1.11,1.11,0,0,1,.3-1.54l8.59-5.79a1.11,1.11,0,0,1,1.54.29l5.8,8.59a1.19,1.19,0,0,1,.17.84,1.11,1.11,0,0,1-.47.7L383,477.6A1.1,1.1,0,0,1,382.4,477.79Zm-4.25-9.4,4.55,6.74,6.74-4.55-4.55-6.74Z"/><path class="cls-4" d="M457.73,544.31a.93.93,0,0,1-.53-.17.91.91,0,0,1-.35-.72l.1-11a.9.9,0,0,1,.44-.75.85.85,0,0,1,.86,0l12.76,7a.87.87,0,0,1,.45.85.89.89,0,0,1-.61.75l-12.86,4A.82.82,0,0,1,457.73,544.31Zm1-10.42-.08,8.35,9.75-3Z"/><path class="cls-4" d="M377.35,523.07a.88.88,0,0,1-.44-.12l-10.76-6.12a.91.91,0,0,1-.43-.63.88.88,0,0,1,.22-.73l7.22-7.82a.89.89,0,0,1,1.5.38l3.54,14a.88.88,0,0,1-.32.91A.89.89,0,0,1,377.35,523.07ZM368,515.85l8,4.56L373.35,510Z"/><polygon class="cls-1" points="558.15 312.1 559.96 347.44 590.09 365.98 557.04 378.62 548.71 413.01 526.48 385.48 491.2 388.18 510.51 358.54 497.04 325.82 531.2 335.02 558.15 312.1"/><path class="cls-2" d="M560.15,410.92a1.07,1.07,0,0,1-.7-.25L532,388.3a1.11,1.11,0,1,1,1.4-1.72l25.67,20.95,1-33.12a1.11,1.11,0,0,1,.51-.9l27.86-17.94-31.19-11.2a1.13,1.13,0,0,1-.7-.76l-8.45-32-20.29,26.19a1.09,1.09,0,0,1-.94.43l-33.08-1.85,18.65,27.38a1.11,1.11,0,1,1-1.84,1.25l-19.91-29.24a1.11,1.11,0,0,1,1-1.74L526.46,336l21.31-27.51a1.11,1.11,0,0,1,1.1-.41,1.12,1.12,0,0,1,.85.8l8.88,33.65,32.75,11.76a1.11,1.11,0,0,1,.23,2l-29.26,18.84-1.06,34.78a1.1,1.1,0,0,1-.65,1A1,1,0,0,1,560.15,410.92Z"/><path class="cls-2" d="M206.44,535.07a1.33,1.33,0,0,1-.38-2.61c2.59-.78,8.49-2.74,12.82-5.8a19.31,19.31,0,0,1-5.9-4.38c-1.91-2.08-2.68-4.11-2.27-6a6.34,6.34,0,0,1,3.67-4.21,9.15,9.15,0,0,1,8-.07,7.5,7.5,0,0,1,4.1,5.46,9.59,9.59,0,0,1-2.45,8.17,14.76,14.76,0,0,0,5.26.06,12.54,12.54,0,0,0,9.62-7.75,1.33,1.33,0,1,1,2.45,1,15.11,15.11,0,0,1-11.62,9.34,17.78,17.78,0,0,1-8-.5c-4.54,3.75-11.18,6.11-15,7.23A1.31,1.31,0,0,1,206.44,535.07Zm12.05-21.34a6.54,6.54,0,0,0-2.91.68,4.09,4.09,0,0,0-2.26,2.38c-.27,1.29.73,2.72,1.62,3.69a16.81,16.81,0,0,0,6.24,4.28c2-2,3.18-4.25,2.7-6.85a4.84,4.84,0,0,0-2.67-3.56A6.16,6.16,0,0,0,218.49,513.73Z"/><polygon class="cls-1" points="824.06 197.36 829.52 232.32 861.42 247.63 829.87 263.63 825.16 298.7 800.19 273.63 765.38 279.99 781.5 248.5 764.7 217.36 799.64 222.96 824.06 197.36"/><path class="cls-2" d="M833.89,291.62a1.12,1.12,0,0,1-.58-.17l-29.67-18.18-31.8,14.13a1.11,1.11,0,0,1-1.16-.17,1.09,1.09,0,0,1-.37-1.11l8.13-33.84-23.27-25.87a1.12,1.12,0,0,1-.2-1.16,1.09,1.09,0,0,1,.94-.69l34.69-2.73L808,191.71a1.11,1.11,0,0,1,2,.13L823.33,224l34,7.26a1.11,1.11,0,0,1,.84.82,1.08,1.08,0,0,1-.35,1.11l-26.47,22.6L835,290.39a1.11,1.11,0,0,1-.51,1.06A1.15,1.15,0,0,1,833.89,291.62ZM803.72,270.9a1.09,1.09,0,0,1,.58.17l28.25,17.31-3.44-32.95a1.14,1.14,0,0,1,.39-1L854.7,233,822.29,226a1.08,1.08,0,0,1-.79-.66l-12.68-30.61-16.59,28.68a1.12,1.12,0,0,1-.87.55l-33,2.59,22.15,24.64a1.13,1.13,0,0,1,.25,1L773,284.45,803.27,271A1.22,1.22,0,0,1,803.72,270.9Z"/><rect class="cls-1" x="624.32" y="442.85" width="90.39" height="15.55"/><rect class="cls-1" x="598.73" y="467.79" width="90.39" height="15.55"/><rect class="cls-1" x="624.32" y="492.73" width="90.39" height="15.55"/><rect class="cls-1" x="624.32" y="517.68" width="90.39" height="15.55"/></g></g></svg>