<svg xmlns="http://www.w3.org/2000/svg" viewBox="0 0 909.38 547.89"><defs><style>.cls-1{fill:#dd9b9b;}.cls-2{fill:#1e1e1e;}.cls-3{fill:#b58181;}.cls-4{fill:#fff;}.cls-5{fill:#dce5f7;}.cls-6{fill:#eeeff9;}</style></defs><title>Asset 7</title><g id="Layer_2" data-name="Layer 2"><g id="Layer_2-2" data-name="Layer 2"><polygon class="cls-1" points="217.36 22.31 220.46 28.17 226.13 31.37 220.46 34.58 217.36 40.43 214.26 34.58 208.59 31.37 214.26 28.17 217.36 22.31"/><path class="cls-1" d="M82.91,489.91c10.1,5.66,15.93,14.46,13,19.65s-13.46,4.81-23.56-.85c-7-3.92-10.54-11.82-12.07-16.32a3.29,3.29,0,0,1,2.39-4.26C67.32,487.09,75.92,486,82.91,489.91Z"/><path class="cls-1" d="M123.73,493.06c-5.7,5.78-12.73,8.09-15.71,5.16s-.75-10,5-15.77c4-4,10-4.94,13.28-5.13a2.28,2.28,0,0,1,2.43,2.4C128.53,483.05,127.68,489.06,123.73,493.06Z"/><path class="cls-2" d="M100,547.23a1,1,0,0,1-1-1c0-22.65-3.53-46.45-10.48-70.73a1,1,0,0,1,2-.58c7,24.47,10.57,48.46,10.57,71.31A1,1,0,0,1,100,547.23Z"/><path class="cls-2" d="M86.86,467.54a1,1,0,0,1-1-.73c-8.49-26.61-18.14-44-18.24-44.21a1,1,0,0,1,1.82-1c.1.17,9.85,17.78,18.41,44.6a1,1,0,0,1-.68,1.31A1.13,1.13,0,0,1,86.86,467.54Z"/><circle class="cls-1" cx="73.1" cy="435.03" r="19.59"/><path class="cls-1" d="M104.18,547.23a1,1,0,0,1-1-1c0-.61-1-61.26,14.3-104.87a1,1,0,1,1,2,.69c-15.19,43.25-14.18,103.53-14.17,104.14a1,1,0,0,1-1,1.06Z"/><polygon class="cls-3" points="135.17 445.84 121.31 431.98 102.39 437.06 97.32 455.98 111.17 469.84 130.1 464.77 135.17 445.84"/><path class="cls-4" d="M73.1,437.58c-10.51,0-21.14-2.47-21.14-7.18a1,1,0,0,1,2.09,0c0,2.13,7.24,5.09,19,5.09s19-3,19-5.09a1,1,0,0,1,2.09,0C94.23,435.11,83.6,437.58,73.1,437.58Z"/><path class="cls-4" d="M73.1,437.58c-10.51,0-21.14-2.47-21.14-7.18a1,1,0,0,1,2.09,0c0,2.13,7.24,5.09,19,5.09s19-3,19-5.09a1,1,0,0,1,2.09,0C94.23,435.11,83.6,437.58,73.1,437.58Z"/><path class="cls-4" d="M89.32,442.8a17.88,17.88,0,0,1-4-.53,51.47,51.47,0,0,1-13.49-5.65,51.52,51.52,0,0,1-11.65-8.85c-3.09-3.31-4.15-6-3.07-7.93a1,1,0,1,1,1.8,1c-.4.71.08,2.57,2.79,5.47a49.6,49.6,0,0,0,11.17,8.46,49.7,49.7,0,0,0,12.92,5.43c3.87.89,5.71.38,6.12-.32a1.06,1.06,0,0,1,1.43-.39,1,1,0,0,1,.38,1.43C93,442.18,91.49,442.8,89.32,442.8Z"/><path class="cls-4" d="M89.32,442.8a17.88,17.88,0,0,1-4-.53,51.47,51.47,0,0,1-13.49-5.65,51.52,51.52,0,0,1-11.65-8.85c-3.09-3.31-4.15-6-3.07-7.93a1,1,0,1,1,1.8,1c-.4.71.08,2.57,2.79,5.47a49.6,49.6,0,0,0,11.17,8.46,49.7,49.7,0,0,0,12.92,5.43c3.87.89,5.71.38,6.12-.32a1.06,1.06,0,0,1,1.43-.39,1,1,0,0,1,.38,1.43C93,442.18,91.49,442.8,89.32,442.8Z"/><path class="cls-4" d="M97.32,457a1,1,0,0,1-1-.78,1,1,0,0,1,.74-1.27l37.85-10.15a1,1,0,1,1,.54,2L97.59,457A1.26,1.26,0,0,1,97.32,457Z"/><path class="cls-4" d="M116.24,452a1,1,0,0,1-.73-.3l-13.86-13.86a1,1,0,0,1,0-1.47,1,1,0,0,1,1.48,0L117,450.17a1,1,0,0,1-.74,1.78Z"/><path class="cls-4" d="M208,502.91V239.8a8.71,8.71,0,0,1,8.7-8.7H668.53a8.71,8.71,0,0,1,8.69,8.7V502.91Z"/><path class="cls-1" d="M668.53,238.29A1.52,1.52,0,0,1,670,239.8V495.73H215.17V239.8a1.52,1.52,0,0,1,1.52-1.51Zm0-14.37H216.69A15.88,15.88,0,0,0,200.8,239.8V510.09H684.41V239.8a15.88,15.88,0,0,0-15.88-15.88Z"/><path class="cls-2" d="M687.82,387.58a1,1,0,0,1-1-.95L673,205.94A14.87,14.87,0,0,0,657,192.26L647,193a1,1,0,1,1-.15-2.05l10-.77A16.92,16.92,0,0,1,675,205.78l13.82,180.69a1,1,0,0,1-1,1.1Z"/><path class="cls-2" d="M489.42,205.07a1,1,0,0,1-.08-2l126.33-9.66a1,1,0,0,1,.15,2L489.5,205.07Z"/><path class="cls-2" d="M315.92,218.34a1,1,0,0,1-.08-2.05l153.58-11.74a1,1,0,1,1,.15,2L316,218.34Z"/><path class="cls-2" d="M197.46,372.72a1,1,0,0,1-1-1l-5.3-121a1,1,0,0,1,1-1.07,1,1,0,0,1,1.07,1l5.3,121a1,1,0,0,1-1,1.07Z"/><path class="cls-2" d="M203,498.19a1,1,0,0,1-1-1l-4.18-95.28a1,1,0,0,1,2.06-.09L204,497.12a1,1,0,0,1-1,1.07Z"/><path class="cls-1" d="M710.55,510.09H174.66a18.32,18.32,0,0,0-18.32,18.32h0a18.32,18.32,0,0,0,18.32,18.32H710.55a18.32,18.32,0,0,0,18.32-18.32h0A18.32,18.32,0,0,0,710.55,510.09Z"/><rect class="cls-5" x="261.72" y="277.89" width="368.76" height="30.63"/><circle class="cls-4" cx="281.4" cy="294.43" r="5.56" transform="translate(-125.77 285.22) rotate(-45)"/><path class="cls-4" d="M307.31,294.43a5.57,5.57,0,1,1-5.57-5.57A5.56,5.56,0,0,1,307.31,294.43Z"/><circle class="cls-4" cx="322.08" cy="294.43" r="5.56" transform="translate(-88.15 145.67) rotate(-22.5)"/><rect class="cls-5" x="263.55" y="434.38" width="141.94" height="33.22"/><rect class="cls-5" x="263.55" y="379.06" width="141.94" height="33.22"/><polygon class="cls-3" points="92.53 275.61 95.63 281.47 101.3 284.67 95.63 287.88 92.53 293.73 89.43 287.88 83.76 284.67 89.43 281.47 92.53 275.61"/><polygon class="cls-3" points="709.66 248.78 712.76 254.63 718.43 257.84 712.76 261.04 709.66 266.9 706.56 261.04 700.89 257.84 706.56 254.63 709.66 248.78"/><polygon class="cls-1" points="755.38 308.1 758.48 313.95 764.15 317.16 758.48 320.36 755.38 326.22 752.28 320.36 746.61 317.16 752.28 313.95 755.38 308.1"/><path class="cls-2" d="M509.62,173.66a1.16,1.16,0,0,1-.33-2.28c2.79-.83,9.19-3,13.77-6.32a20.17,20.17,0,0,1-6.44-4.69c-1.94-2.11-2.72-4.17-2.31-6.11A6.41,6.41,0,0,1,518,150a9.32,9.32,0,0,1,8.16-.07,7.6,7.6,0,0,1,4.16,5.54,9.9,9.9,0,0,1-2.76,8.64,16,16,0,0,0,6,.15A13.38,13.38,0,0,0,543.79,156a1.16,1.16,0,1,1,2.13.91,15.56,15.56,0,0,1-12,9.61,18.23,18.23,0,0,1-8.33-.54c-4.72,3.93-11.7,6.41-15.67,7.59A1.26,1.26,0,0,1,509.62,173.66Zm12.59-22.3a7,7,0,0,0-3.14.73c-.65.33-2.2,1.24-2.49,2.65s.79,3,1.75,4.06a17.68,17.68,0,0,0,6.74,4.58c2.2-2.11,3.53-4.61,3-7.47a5.33,5.33,0,0,0-2.91-3.88A6.61,6.61,0,0,0,522.21,151.36Z"/><path class="cls-5" d="M895,165.59c-2,.94-3.38,2.68-5.35,3.68-10.2,5.17-9.62-13.49-9.57-18.88.08-11.35-.41-25.93-14.52-28.46-9-1.61-17.62,4.42-19.81,13.3-2.75,11.12,1.66,42.61-19.06,38.31-5.51-1.14-9.62-5.68-13-10.2-4.25-5.73-8.41-12.12-15.94-13.48-11.42-2.06-22.94,4.53-30.76,12.34a53.91,53.91,0,0,0-11.9,18.71.58.58,0,0,1,0,.14l22,0,29.23,0c8.31,0,103-.14,103-.08C908.81,173.89,904.92,160.93,895,165.59Z"/><path class="cls-5" d="M414.26,76.24h143c-.74-9.17-3.85-18.33-7-26.92-2.83-7.7-7.11-15.12-14.54-19.17s-17.06-4.24-22.78,2.69c-7.31,8.84-1,27-13.95,31.78-13.86,5.07-17.36-13.17-18.59-22.52-1.52-11.49-1.26-23.26-4.65-34.45C474.3,4.31,471.9.48,468.08,0c-3.83,0-7.18,2.87-8.62,6.22-4.24,10.31-5.41,21.43-7,32.37-1.26,8.87-3,28.45-14.79,29.55-6.26.58-11.93-10.61-17.74-5.65C416.29,65.63,416.48,72.21,414.26,76.24Z"/><path class="cls-2" d="M146.49,379.29c-5.85,0-11.53-2.59-13.55-8.2a14,14,0,0,1-.77-3.53,17.36,17.36,0,0,1-6.91-5,15.71,15.71,0,0,1-3.88-8.42,1.16,1.16,0,1,1,2.31-.21A13.56,13.56,0,0,0,127,361a16.28,16.28,0,0,0,5.11,4,20.3,20.3,0,0,1,.34-2.64c.52-2.6,1.51-4.36,3-5.37a5.29,5.29,0,0,1,8.11,5.45,6.55,6.55,0,0,1-2.08,3.47,8.33,8.33,0,0,1-6.29,2.3l-.67-.07a11.86,11.86,0,0,0,.54,2.13c2.48,6.88,11.24,7.57,16.67,5.86l.55-.18a14.41,14.41,0,0,0,4.08-2.23,1.16,1.16,0,0,1,1.45,1.81,16.31,16.31,0,0,1-4.74,2.6l-.64.22A20.25,20.25,0,0,1,146.49,379.29ZM134.43,365.8a7.87,7.87,0,0,0,1,.12,6.05,6.05,0,0,0,4.58-1.69,4.32,4.32,0,0,0,1.37-2.22,3,3,0,0,0-4.55-3.06c-1,.66-1.65,1.93-2,3.89A16.13,16.13,0,0,0,134.43,365.8Z"/><path class="cls-2" d="M677.89,547.89H60.25a1.17,1.17,0,0,1,0-2.33H677.89a1.17,1.17,0,1,1,0,2.33Z"/><path class="cls-2" d="M43.07,547.89H1.16a1.17,1.17,0,0,1,0-2.33H43.07a1.17,1.17,0,0,1,0,2.33Z"/><path class="cls-2" d="M906.82,547.89H698.56a1.17,1.17,0,0,1,0-2.33H906.82a1.17,1.17,0,0,1,0,2.33Z"/><path class="cls-3" d="M383.1,520.65V545.3h41.42v-6a5.46,5.46,0,0,0-2.88-4.81l-5-2.65-5.7-3-3.26-9.1-.2-.56-8.87.56-1.12.07Z"/><rect class="cls-1" x="383.1" y="539.88" width="41.43" height="5.42" transform="translate(807.62 1085.18) rotate(180)"/><path class="cls-1" d="M383.1,523.34v13.55a5.29,5.29,0,0,0,.9.07,6.84,6.84,0,0,0,0-13.68A6.58,6.58,0,0,0,383.1,523.34Z"/><path class="cls-3" d="M336.27,520.65V545.3H294.85v-6a5.46,5.46,0,0,1,2.88-4.81l5-2.65,5.7-3,3.26-9.1.2-.56,8.87.56,1.12.07Z"/><rect class="cls-3" x="270.65" y="443.1" width="126.5" height="27.15" transform="matrix(0.16, -0.99, 0.99, 0.16, -169.94, 713.94)"/><rect class="cls-3" x="368.58" y="392.85" width="27.15" height="126.73" transform="translate(-84.55 86.95) rotate(-11.7)"/><path class="cls-1" d="M310.93,395.14a9.85,9.85,0,0,1-8.17-4.36L270.05,342A9.83,9.83,0,1,1,286.39,331l24.43,36.46,3.11-4.78a9.84,9.84,0,0,1,16.48,10.75l-11.24,17.23a9.86,9.86,0,0,1-8.18,4.47Z"/><polygon class="cls-1" points="322.21 518.23 322.19 518.3 319.06 531.82 302.72 531.82 308.42 528.78 312 518.23 322.21 518.23"/><rect class="cls-2" x="319.57" y="353.43" width="11.46" height="19.67" transform="translate(-156.67 437.32) rotate(-56.89)"/><polygon class="cls-1" points="397.16 518.23 397.18 518.3 400.31 531.82 416.65 531.82 410.95 528.78 407.37 518.23 397.16 518.23"/><path class="cls-2" d="M331.81,377.39a3.14,3.14,0,0,1-1.7-.5l-17.16-11a3.15,3.15,0,0,1,3.39-5.31l17.16,11a3.15,3.15,0,0,1-1.69,5.81Z"/><path class="cls-2" d="M328.42,368.3a9.72,9.72,0,0,1-5.36-1.6,9.83,9.83,0,0,1-2.87-13.61l4.86-7.44a9.83,9.83,0,1,1,16.47,10.74l-4.85,7.45A9.84,9.84,0,0,1,328.42,368.3Z"/><path class="cls-3" d="M367.15,407.47H345.76a11.81,11.81,0,0,1,0-23.61h21.39a11.81,11.81,0,0,1,0,23.61Z"/><path class="cls-2" d="M382.16,392.78H331.29l-7-39.3a12,12,0,0,1,11.82-14.12h41.23a12,12,0,0,1,11.82,14.12Z"/><path class="cls-1" d="M355.43,345a6,6,0,0,0,6.77-5.23l.56-4.3.28-2.22,1-7.61.46-3.61a6,6,0,0,0-5.23-6.77,5,5,0,0,0-.77-.05,6,6,0,0,0-5.61,3.78,6.12,6.12,0,0,0-.39,1.5l-.69,5.41-1,7.35-.63,5A6,6,0,0,0,355.43,345Z"/><path class="cls-2" d="M353.71,326c1.14,5.25,3.7,9,9.05,9.45l.28-2.22,1-7.61.46-3.61a6,6,0,0,0-5.23-6.77,5,5,0,0,0-.77-.05,6,6,0,0,0-5.61,3.78,6.12,6.12,0,0,0-.39,1.5Z"/><path class="cls-1" d="M366,332.4h0a7.46,7.46,0,0,0,5.58-8.95l-1.39-6a9.84,9.84,0,0,0-11.81-7.36h0a9.83,9.83,0,0,0-7.36,11.8l.33,1.41A12.2,12.2,0,0,0,366,332.4Z"/><path class="cls-4" d="M408.72,521.74H381.29a3.47,3.47,0,1,1,0-6.94h27.43a3.47,3.47,0,0,1,0,6.94Z"/><path class="cls-4" d="M336.91,521.74H310.07a3.47,3.47,0,1,1,0-6.94h26.84a3.47,3.47,0,0,1,0,6.94Z"/><path class="cls-1" d="M369.52,317.63l5,5.75a1,1,0,0,1-.72,1.72l-4.28.27Z"/><circle class="cls-2" cx="370.07" cy="309.32" r="6.12" transform="translate(-110.33 352.28) rotate(-45)"/><circle class="cls-2" cx="361.86" cy="309.23" r="4.33" transform="translate(-112.67 346.44) rotate(-45)"/><path class="cls-2" d="M353.58,315.44h15.95a3.86,3.86,0,0,0,3.85-3.86h0a3.85,3.85,0,0,0-3.85-3.85H353.58a3.85,3.85,0,0,0-3.86,3.85h0A3.86,3.86,0,0,0,353.58,315.44Z"/><polygon class="cls-2" points="349.72 323.08 356.61 323.08 359.59 311.55 349.72 311.55 349.72 323.08"/><circle class="cls-1" cx="353.13" cy="321.88" r="4.64" transform="translate(-36.68 45.56) rotate(-7.02)"/><path class="cls-1" d="M407.67,432.79a9.83,9.83,0,0,1-9.26-6.53l-19.57-54.64A9.84,9.84,0,1,1,397.36,365l19.56,54.64a9.84,9.84,0,0,1-9.25,13.16Z"/><rect class="cls-2" x="376.29" y="357.19" width="19.67" height="11.46" transform="translate(-101.44 155.36) rotate(-20.17)"/><path class="cls-2" d="M384.15,367.38a9.86,9.86,0,0,1-9.24-6.45l-3.06-8.34a9.83,9.83,0,1,1,18.46-6.78l3.07,8.34a9.85,9.85,0,0,1-9.23,13.23Z"/><path class="cls-2" d="M378.94,375a3.15,3.15,0,0,1-1.1-6.1l18.37-6.83a3.15,3.15,0,0,1,2.19,5.9L380,374.82A3,3,0,0,1,378.94,375Z"/><rect class="cls-1" x="294.85" y="539.88" width="41.43" height="5.42"/><path class="cls-1" d="M336.27,523.34v13.55a5.29,5.29,0,0,1-.9.07,6.84,6.84,0,0,1,0-13.68A6.58,6.58,0,0,1,336.27,523.34Z"/><path class="cls-2" d="M356.08,404.78h-3.57a1.14,1.14,0,0,1-1.13-1l-1.12-10.18a1.14,1.14,0,1,1,2.27-.26l1,9.17h2.54a1.15,1.15,0,1,1,0,2.29Z"/><path class="cls-2" d="M342.17,398.64H330.08a1.15,1.15,0,0,1,0-2.29h12.09a1.15,1.15,0,0,1,0,2.29Z"/><path class="cls-2" d="M383.88,398.64H371.8a1.15,1.15,0,1,1,0-2.29h12.08a1.15,1.15,0,1,1,0,2.29Z"/><path class="cls-2" d="M319.06,533H302.72a1.15,1.15,0,0,1,0-2.29h16.34a1.15,1.15,0,0,1,0,2.29Z"/><path class="cls-2" d="M416.65,533H400.31a1.15,1.15,0,0,1,0-2.29h16.34a1.15,1.15,0,0,1,0,2.29Z"/><circle class="cls-4" cx="346.69" cy="367.55" r="7.74" transform="translate(-90.68 620.52) rotate(-76.72)"/><circle class="cls-4" cx="362.43" cy="367.55" r="7.74" transform="translate(-58.43 666.42) rotate(-80.78)"/><rect class="cls-3" x="347.18" y="360.73" width="13.31" height="13.31" transform="translate(363.41 -142.59) rotate(45)"/><path class="cls-1" d="M272.27,342a3.46,3.46,0,0,1-2.89-1.53l-8.07-11.95a3.48,3.48,0,0,1,5.77-3.9l8.07,11.95a3.48,3.48,0,0,1-2.88,5.43Z"/><path class="cls-1" d="M275.94,336a3.48,3.48,0,0,1-3-1.64l-8.9-14.23a3.48,3.48,0,1,1,5.91-3.69l8.9,14.22a3.49,3.49,0,0,1-2.95,5.34Z"/><path class="cls-1" d="M281,332.87a3.48,3.48,0,0,1-3.08-1.86l-6.41-12.15a3.49,3.49,0,0,1,6.17-3.25l6.4,12.15a3.48,3.48,0,0,1-1.46,4.7A3.39,3.39,0,0,1,281,332.87Z"/><path class="cls-1" d="M283.27,336.37a3.48,3.48,0,0,1-2.83-5.52l1.33-1.85-2-1.17a3.48,3.48,0,1,1,3.48-6l5.36,3.1a3.46,3.46,0,0,1,1.66,2.28,3.5,3.5,0,0,1-.57,2.77l-3.58,5A3.47,3.47,0,0,1,283.27,336.37Z"/><path class="cls-1" d="M418.12,438.36a3.48,3.48,0,0,1-3.32-2.44l-4.35-13.74a3.49,3.49,0,1,1,6.65-2.1l4.34,13.74a3.51,3.51,0,0,1-3.32,4.54Z"/><path class="cls-1" d="M413,445.51a3.48,3.48,0,0,1-3.35-2.56l-4.49-16.16a3.48,3.48,0,0,1,6.71-1.87l4.49,16.17a3.49,3.49,0,0,1-2.42,4.29A3.38,3.38,0,0,1,413,445.51Z"/><path class="cls-1" d="M405.49,444.39a3.47,3.47,0,0,1-3.41-2.8l-2.69-13.46a3.48,3.48,0,1,1,6.83-1.36l2.69,13.46a3.49,3.49,0,0,1-2.74,4.1A4,4,0,0,1,405.49,444.39Z"/><path class="cls-1" d="M397.78,435.51a3.69,3.69,0,0,1-.92-.12,3.49,3.49,0,0,1-2.44-4.29l2.36-8.55a3.49,3.49,0,1,1,6.72,1.85L401.14,433A3.48,3.48,0,0,1,397.78,435.51Z"/><polygon class="cls-1" points="190.69 100.31 261.06 107.84 246.54 149.98 234.31 148.7 238.25 168.58 215.76 146.66 176.17 142.45 190.69 100.31"/><path class="cls-6" d="M238.24,161.1l-.71,0c-5.19-.48-10.36-6.24-13.79-10l-.86-1c-4.67-5.13-8.17-11.21-11.55-17.09-.29-.49-.57-1-.85-1.47-2.42-4.19-5.84-8.57-7.62-8.27-.85.14-1.29,1.51-1.51,2.62a17.1,17.1,0,0,0-.12,4.24,25.85,25.85,0,0,1,0,3.41c-.23,2.53-1.47,4.56-3.17,5.18-1.36.5-2.86,0-4.23-1.31-4.44-4.36-3.63-11-3.07-13.65.36-1.71.87-3.4,1.37-5s1-3.23,1.33-4.87c.55-2.57,1.42-8.78-2.32-11a4.4,4.4,0,0,0-1.88-.62.56.56,0,0,1-.52-.59.55.55,0,0,1,.6-.51,5.39,5.39,0,0,1,2.36.77c4.2,2.5,3.59,8.71,2.85,12.19-.36,1.69-.87,3.35-1.36,5s-1,3.28-1.35,4.94c-.51,2.47-1.28,8.65,2.76,12.63,1.07,1,2.13,1.41,3.08,1.06,1.28-.47,2.26-2.17,2.45-4.24a25.18,25.18,0,0,0,0-3.25,18,18,0,0,1,.14-4.51c.42-2.13,1.23-3.3,2.42-3.5,3-.51,7.13,6,8.76,8.8l.85,1.47c3.35,5.83,6.82,11.86,11.41,16.91.27.3.56.63.87,1,3.31,3.69,8.3,9.26,13.06,9.69a4,4,0,0,0,3.64-1.23c2-2.32,1.64-7.55.72-11.33a31.27,31.27,0,0,0-9.09-15.47c-1.33-1.23-2.8-2.37-4.22-3.47a44.23,44.23,0,0,1-6.07-5.33c-2.61-2.94-4.73-8.52-3.61-12.42a5.94,5.94,0,0,1,4.28-4.18c3.58-1,5.67,2.88,6.46,4.37.22.43.45.86.67,1.3,1.17,2.3,2.29,4.47,4.23,6.09a25,25,0,0,0,6.92,3.62c3.29,1.3,6.7,2.65,9,5.71a.55.55,0,1,1-.88.67c-2.15-2.81-5.26-4-8.56-5.35a25.63,25.63,0,0,1-7.22-3.8c-2.12-1.76-3.33-4.14-4.51-6.44l-.66-1.28c-1.14-2.15-2.76-4.53-5.16-3.83a4.87,4.87,0,0,0-3.54,3.43c-1.07,3.74,1.28,9,3.38,11.37a43.65,43.65,0,0,0,5.92,5.2c1.44,1.11,2.93,2.26,4.29,3.52a32.42,32.42,0,0,1,9.42,16c.36,1.46,2,8.91-1,12.31A4.84,4.84,0,0,1,238.24,161.1Z"/><rect class="cls-5" x="437.89" y="347.33" width="192.59" height="120.27"/><circle class="cls-4" cx="534.18" cy="407.47" r="30.3"/><polygon class="cls-1" points="547.05 407.47 536.2 413.74 525.34 420.01 525.34 407.47 525.34 394.93 536.2 401.2 547.05 407.47"/><path class="cls-4" d="M454.08,378.2a1,1,0,0,1-1-1V359.06a1,1,0,1,1,2.05,0v18.11A1,1,0,0,1,454.08,378.2Z"/><path class="cls-4" d="M472.19,360.08H454.08a1,1,0,1,1,0-2.05h18.11a1,1,0,0,1,0,2.05Z"/><path class="cls-4" d="M618.32,360.08H600.21a1,1,0,1,1,0-2.05h18.11a1,1,0,0,1,0,2.05Z"/><path class="cls-4" d="M618.32,378.2a1,1,0,0,1-1-1V359.06a1,1,0,1,1,2.05,0v18.11A1,1,0,0,1,618.32,378.2Z"/><path class="cls-4" d="M618.32,454.79a1,1,0,0,1-1-1V435.65a1,1,0,1,1,2.05,0v18.11A1,1,0,0,1,618.32,454.79Z"/><path class="cls-4" d="M618.32,454.79H600.21a1,1,0,0,1,0-2.06h18.11a1,1,0,0,1,0,2.06Z"/><path class="cls-4" d="M472.19,454.79H454.08a1,1,0,1,1,0-2.06h18.11a1,1,0,0,1,0,2.06Z"/><path class="cls-4" d="M454.08,454.79a1,1,0,0,1-1-1V435.65a1,1,0,1,1,2.05,0v18.11A1,1,0,0,1,454.08,454.79Z"/><polygon class="cls-4" points="176.08 218.49 170.03 219.1 169.96 208.92 168.69 206.93 176.08 218.49"/><polygon class="cls-1" points="168.69 206.93 162.1 196.6 130.07 226.84 183.81 230.6 176.08 218.49 168.69 206.93"/><polygon class="cls-2" points="179.79 202.03 138.86 224.34 176.05 218.5 179.79 202.03"/><path class="cls-2" d="M198.67,204a1.39,1.39,0,0,1-.39-2.73l4.56-1.32a1.39,1.39,0,0,1,.77,2.68l-4.55,1.32A1.31,1.31,0,0,1,198.67,204ZM212.33,200a1.39,1.39,0,0,1-.38-2.73L216.5,196a1.39,1.39,0,1,1,.78,2.67l-4.56,1.32A1.32,1.32,0,0,1,212.33,200ZM226,196a1.39,1.39,0,0,1-.39-2.73l4.56-1.32a1.39,1.39,0,1,1,.77,2.67L226.39,196A1.32,1.32,0,0,1,226,196Zm13.66-4a1.39,1.39,0,0,1-.39-2.73l4.56-1.32a1.39,1.39,0,1,1,.77,2.68L240.05,192A1.74,1.74,0,0,1,239.66,192.08Zm13.67-4a1.38,1.38,0,0,1-1.34-1,1.39,1.39,0,0,1,.95-1.73l4.55-1.32a1.4,1.4,0,0,1,.78,2.68l-4.56,1.32A1.28,1.28,0,0,1,253.33,188.12Zm13.66-4a1.41,1.41,0,0,1-1.34-1,1.39,1.39,0,0,1,1-1.72l4.56-1.32a1.39,1.39,0,0,1,.77,2.67l-4.55,1.32A1.32,1.32,0,0,1,267,184.17Zm13.66-4a1.39,1.39,0,0,1-.38-2.73l4.55-1.32a1.39,1.39,0,1,1,.78,2.67L281,180.15A1.32,1.32,0,0,1,280.65,180.21Zm13.67-4a1.39,1.39,0,0,1-.39-2.73l4.56-1.32a1.39,1.39,0,0,1,.77,2.68l-4.55,1.32A1.74,1.74,0,0,1,294.32,176.25Z"/><path class="cls-3" d="M372.79,134.45h0a12,12,0,0,1-12,12h0a12,12,0,0,1-12-12h0a12,12,0,0,1,12-12h0A12,12,0,0,1,372.79,134.45Z"/><path class="cls-1" d="M400.72,165.52h0a6.38,6.38,0,0,1-6.38,6.37h0a6.37,6.37,0,0,1-6.37-6.37h0a6.37,6.37,0,0,1,6.37-6.37h0A6.38,6.38,0,0,1,400.72,165.52Z"/><path class="cls-1" d="M383.55,158.05H361.72a1.16,1.16,0,0,1-1.16-1.16V135.06a1.16,1.16,0,0,1,1.16-1.16h21.83a1.16,1.16,0,0,1,1.16,1.16v21.83A1.16,1.16,0,0,1,383.55,158.05Zm-20.67-2.32h19.51v-19.5H362.88Z"/><path class="cls-1" d="M768.69,525.71c7,7,15.54,9.87,19.16,6.3s.93-12.2-6-19.25c-4.82-4.88-12.15-6-16.21-6.27a2.82,2.82,0,0,0-3,2.94C762.83,513.49,763.87,520.83,768.69,525.71Z"/><path class="cls-2" d="M796.78,547.89a1.16,1.16,0,0,1-1.15-1.08c0-.75-4.88-74.77,13.83-128a1.16,1.16,0,1,1,2.19.77c-18.55,52.79-13.76,126.34-13.71,127.08a1.15,1.15,0,0,1-1.08,1.23Z"/><path class="cls-2" d="M789.77,547.89h0a1.18,1.18,0,0,1-1.15-1.18c.42-34.17-9.13-54.71-16.34-67.18a1.16,1.16,0,0,1,2-1.17c7.35,12.71,17.08,33.63,16.65,68.38A1.15,1.15,0,0,1,789.77,547.89Z"/><path class="cls-1" d="M810.36,440.64c-1.37,5.84-4.9,10-7.9,9.3s-4.33-6-3-11.83c.94-4,4.36-6.95,6.38-8.35a1.7,1.7,0,0,1,2.46.57C809.52,432.49,811.3,436.6,810.36,440.64Z"/><path class="cls-1" d="M831.62,424a4.08,4.08,0,0,0-2.8-6.21h0a7.75,7.75,0,0,0-8.11,3.66l-10,18.48a6.06,6.06,0,0,1-6.72,3h0a6.08,6.08,0,0,1-4.69-5.7l-.74-21a7.75,7.75,0,0,0-5.65-6.87h0a5.39,5.39,0,0,0-5.21,5.59s.93,27.7,1,28.25l0,.26a11.33,11.33,0,0,0,8.64,9.51l8.09,1.89a11.31,11.31,0,0,0,12-4.71l0,0Z"/><path class="cls-3" d="M764.71,461.42h0l6.43-12.53a4.82,4.82,0,0,0-3.59-7h0a4.82,4.82,0,0,0-5.43,5.66Z"/><path class="cls-3" d="M759.18,465.54h0l-13.84,2.59a4.82,4.82,0,0,1-5.65-5.43h0a4.82,4.82,0,0,1,7-3.59Z"/><path class="cls-3" d="M763.13,470.82h0l-6.43,12.53a4.82,4.82,0,0,0,3.59,7h0a4.82,4.82,0,0,0,5.43-5.66Z"/><path class="cls-3" d="M768.65,466.7h0l13.84-2.59a4.82,4.82,0,0,1,5.65,5.43h0a4.81,4.81,0,0,1-7,3.59Z"/><path class="cls-3" d="M761.15,462.24h0l-4.31-13.41a4.82,4.82,0,0,0-7.47-2.38h0a4.82,4.82,0,0,0,.16,7.83Z"/><path class="cls-3" d="M760.16,469.05h0l-8,11.62a4.81,4.81,0,0,1-7.83.16h0a4.82,4.82,0,0,1,2.38-7.47Z"/><path class="cls-3" d="M766.69,470h0L771,483.41a4.81,4.81,0,0,0,7.46,2.38h0a4.81,4.81,0,0,0-.16-7.83Z"/><path class="cls-3" d="M767.68,463.19h0l8-11.62a4.82,4.82,0,0,1,7.84-.16h0a4.81,4.81,0,0,1-2.39,7.46Z"/><rect class="cls-2" x="577.16" y="357.3" width="58.67" height="41.65"/><path class="cls-2" d="M554.28,547.89a1.07,1.07,0,0,1-.39-.07,1.17,1.17,0,0,1-.71-1.48L605.4,398.57a1.16,1.16,0,1,1,2.19.77L555.37,547.11A1.16,1.16,0,0,1,554.28,547.89Z"/><path class="cls-2" d="M658.71,547.89a1.17,1.17,0,0,1-1.1-.78L605.4,399.34a1.15,1.15,0,0,1,.71-1.48,1.16,1.16,0,0,1,1.48.71L659.8,546.34a1.15,1.15,0,0,1-.7,1.48A1.07,1.07,0,0,1,658.71,547.89Z"/><path class="cls-2" d="M616.53,399a10,10,0,1,1-20.08,0Z"/><path class="cls-2" d="M596.45,357.38a10,10,0,1,1,20.08,0Z"/><path class="cls-2" d="M644.11,423.46a4.29,4.29,0,0,1-2.05-.51L633,418.18a4.41,4.41,0,1,1,4.1-7.81l9.09,4.77a4.41,4.41,0,0,1-2,8.32Z"/><path class="cls-2" d="M635,415.44a1.16,1.16,0,0,1-.54-.13l-24.11-12.65a1.16,1.16,0,0,1,1.07-2.06l24.12,12.65a1.16,1.16,0,0,1-.54,2.19Z"/><path class="cls-2" d="M606.49,546.46a1.16,1.16,0,0,1-1.16-1.16V399a1.16,1.16,0,1,1,2.32,0V545.3A1.16,1.16,0,0,1,606.49,546.46Z"/><circle class="cls-1" cx="622.09" cy="370.55" r="4.18"/><rect class="cls-4" x="588.11" y="375.86" width="23.34" height="13.24"/><path class="cls-2" d="M498.9,546.53a1.16,1.16,0,0,1-1.16-1.15c-.23-19,4.53-41.63,11.85-56.28a1.16,1.16,0,1,1,2.08,1c-7.17,14.34-11.84,36.53-11.61,55.21a1.17,1.17,0,0,1-1.15,1.18Z"/><rect class="cls-1" x="504.54" y="481.45" width="13.49" height="13.49" transform="translate(1190.82 293.29) rotate(120.32)"/><path class="cls-3" d="M503.73,478.25a4.79,4.79,0,1,0,3.42-5.84A4.79,4.79,0,0,0,503.73,478.25Z"/><path class="cls-3" d="M509.58,500.57a4.79,4.79,0,1,0,3.42-5.85A4.79,4.79,0,0,0,509.58,500.57Z"/><path class="cls-3" d="M523.66,489.91a4.79,4.79,0,1,0-5.85-3.42A4.79,4.79,0,0,0,523.66,489.91Z"/><path class="cls-3" d="M501.87,495.61A4.79,4.79,0,1,0,496,492.2,4.78,4.78,0,0,0,501.87,495.61Z"/><path class="cls-3" d="M470.22,518.61c5.46,5,12,6.7,14.51,3.89s.18-9.1-5.29-14.06c-3.78-3.43-9.28-4-12.3-4a2.08,2.08,0,0,0-2.09,2.3C465.36,509.77,466.44,515.19,470.22,518.61Z"/><path class="cls-2" d="M482.83,494.63a1.15,1.15,0,0,1-1.14-1,228.27,228.27,0,0,0-5.59-25.61,1.16,1.16,0,0,1,2.24-.63A230.25,230.25,0,0,1,484,493.29a1.16,1.16,0,0,1-1,1.33Z"/><path class="cls-2" d="M487,546.53h0a1.16,1.16,0,0,1-1.15-1.18,337.27,337.27,0,0,0-3-43.58,1.16,1.16,0,1,1,2.3-.31,338.41,338.41,0,0,1,3,43.92A1.16,1.16,0,0,1,487,546.53Z"/><path class="cls-1" d="M474.45,463.82a4.56,4.56,0,1,0-6-2.27A4.56,4.56,0,0,0,474.45,463.82Z"/><path class="cls-1" d="M460.22,470.13a15.92,15.92,0,1,0,17.26-22.27l0,9.46a5.64,5.64,0,0,1-3.3,5.16h0a5.63,5.63,0,0,1-6.05-.9l-7.1-6.26A15.89,15.89,0,0,0,460.22,470.13Z"/><path class="cls-3" d="M479.22,450.77a3.37,3.37,0,1,0-4.45-1.67A3.37,3.37,0,0,0,479.22,450.77Z"/><path class="cls-3" d="M462.07,458.56a3.36,3.36,0,1,0-4.45-1.67A3.36,3.36,0,0,0,462.07,458.56Z"/></g></g></svg>