<svg xmlns="http://www.w3.org/2000/svg" viewBox="0 0 782.28 530.19"><defs><style>.cls-1{fill:#dce5f7;}.cls-2{fill:#fff;}.cls-3{fill:#232323;}.cls-4{fill:#cf8282;}.cls-5{fill:#333;}.cls-6{fill:#240448;}.cls-7{fill:#353535;}.cls-8{fill:#282828;}</style></defs><title>Asset 9</title><g id="Layer_2" data-name="Layer 2"><g id="Layer_2-2" data-name="Layer 2"><path class="cls-1" d="M745.56,205.49a1.71,1.71,0,0,1-.67-.14L662.12,170.8a1.48,1.48,0,0,1-.83-2l31-63.64a1.62,1.62,0,0,1,.92-.8,1.77,1.77,0,0,1,1.26,0l82.77,34.55a1.48,1.48,0,0,1,.82,2l-31,63.64a1.62,1.62,0,0,1-.92.8A1.86,1.86,0,0,1,745.56,205.49ZM665,168.65,744.74,202l29.65-60.86-79.78-33.3Z"/><polygon class="cls-1" points="666.7 171.04 650.8 164.41 681.8 100.77 697.7 107.41 666.7 171.04"/><path class="cls-1" d="M666.7,172.57a1.76,1.76,0,0,1-.68-.14l-15.89-6.63a1.47,1.47,0,0,1-.82-2l31-63.64a1.7,1.7,0,0,1,2.17-.77L698.37,106a1.53,1.53,0,0,1,.86.85,1.39,1.39,0,0,1,0,1.16l-31,63.64a1.54,1.54,0,0,1-.91.8A2,2,0,0,1,666.7,172.57ZM653,163.65,665.87,169l29.65-60.86-12.89-5.39Z"/><ellipse class="cls-2" cx="684.79" cy="114.27" rx="4.43" ry="4.1"/><ellipse class="cls-2" cx="677.76" cy="128.7" rx="4.43" ry="4.1"/><ellipse class="cls-2" cx="670.74" cy="143.12" rx="4.43" ry="4.1"/><ellipse class="cls-2" cx="663.71" cy="157.54" rx="4.43" ry="4.1"/><polygon class="cls-1" points="745.56 203.96 729.67 197.33 760.67 133.69 776.56 140.32 745.56 203.96"/><path class="cls-1" d="M745.56,205.49a1.71,1.71,0,0,1-.67-.14L729,198.72a1.63,1.63,0,0,1-.86-.85,1.45,1.45,0,0,1,0-1.17l31-63.63a1.7,1.7,0,0,1,2.17-.77l15.9,6.64a1.59,1.59,0,0,1,.86.85,1.42,1.42,0,0,1,0,1.16l-31,63.64A1.66,1.66,0,0,1,745.56,205.49Zm-13.72-8.92,12.9,5.38,29.65-60.86-12.9-5.39Z"/><ellipse class="cls-2" cx="763.65" cy="147.19" rx="4.43" ry="4.1"/><ellipse class="cls-2" cx="756.63" cy="161.62" rx="4.43" ry="4.1"/><ellipse class="cls-2" cx="749.6" cy="176.04" rx="4.43" ry="4.1"/><ellipse class="cls-2" cx="742.58" cy="190.46" rx="4.43" ry="4.1"/><path class="cls-3" d="M77.18,452.37c7.08,5.82,15.27,7.61,18.28,4s-.27-11.24-7.36-17.05c-4.9-4-11.77-4.4-15.54-4.25a2.59,2.59,0,0,0-2.47,3C70.63,441.73,72.28,448.35,77.18,452.37Z"/><path class="cls-3" d="M104.36,461.38a1,1,0,0,1-.34-.06.84.84,0,0,1-.43-1.1c7.13-16.31,14.86-30.3,23-41.56a.84.84,0,0,1,1.17-.19.82.82,0,0,1,.2,1.16c-8,11.17-15.73,25.05-22.81,41.25A.84.84,0,0,1,104.36,461.38Z"/><path class="cls-3" d="M97.55,461.5a.85.85,0,0,1-.84-.71c-3.82-26.07-13.42-41.67-20.31-51.13a.83.83,0,0,1,.19-1.16.85.85,0,0,1,1.18.18c7,9.61,16.73,25.44,20.61,51.87a.83.83,0,0,1-.71.94Z"/><path class="cls-3" d="M121.53,438c-2.72,4.81-7,7.58-9.44,6.2s-2.31-6.41.41-11.22c1.89-3.32,5.69-5,7.85-5.73a1.57,1.57,0,0,1,2,1.13C122.9,430.62,123.42,434.71,121.53,438Z"/><path class="cls-4" d="M144.81,428.75a3.73,3.73,0,0,0-.9-6.2h0a7.23,7.23,0,0,0-8.17,1.15l-13.65,13.77a5.68,5.68,0,0,1-6.78,1h0a5.54,5.54,0,0,1-2.7-6.23l4.76-18.71a7.09,7.09,0,0,0-3.26-7.51h0a5,5,0,0,0-6.1,3.6s-6.33,24.7-6.41,25.2l0,.24a10.38,10.38,0,0,0,5.24,10.61l6.72,3.73a10.58,10.58,0,0,0,11.88-1.09l0,0Z"/><path class="cls-4" d="M67.55,393.92h0l4.78-12.05a4.43,4.43,0,0,0-4-6h0a4.44,4.44,0,0,0-4.49,5.67Z"/><path class="cls-4" d="M62.83,398.19h0l-12.54,3.64a4.46,4.46,0,0,1-5.73-4.45h0a4.48,4.48,0,0,1,6.11-3.92Z"/><path class="cls-4" d="M67,402.67h0l-4.78,12.05a4.43,4.43,0,0,0,4,6h0a4.44,4.44,0,0,0,4.5-5.67Z"/><path class="cls-4" d="M71.68,398.4h0l12.55-3.64A4.45,4.45,0,0,1,90,399.21h0a4.47,4.47,0,0,1-6.1,3.92Z"/><path class="cls-4" d="M64.34,395h0l-5.22-11.87a4.49,4.49,0,0,0-7.12-1.5h0a4.4,4.4,0,0,0,.87,7.15Z"/><path class="cls-4" d="M64.05,401.32h0l-6.27,11.36a4.48,4.48,0,0,1-7.22.86h0a4.4,4.4,0,0,1,1.51-7Z"/><path class="cls-4" d="M70.17,401.6h0l5.23,11.86a4.48,4.48,0,0,0,7.11,1.5h0a4.4,4.4,0,0,0-.87-7.15Z"/><path class="cls-4" d="M70.46,395.27h0l6.27-11.36a4.5,4.5,0,0,1,7.22-.86h0a4.4,4.4,0,0,1-1.51,7Z"/><path class="cls-1" d="M135.58,526.74q0,1.14-.09,2.25h-60c-.06-.74-.08-1.49-.08-2.25a29.65,29.65,0,0,1,12.31-24.05,20.31,20.31,0,0,1-3-10.67,20.61,20.61,0,0,1,13-19.1v-8.4h15.51v8.4a20.5,20.5,0,0,1,10,29.77A29.67,29.67,0,0,1,135.58,526.74Z"/><path class="cls-5" d="M122.32,512.6a.83.83,0,0,1-.71-.4,29,29,0,0,0-8-8.86.8.8,0,0,1-.21-1.07,19.68,19.68,0,0,0-9.63-28.6.8.8,0,0,1-.45-1.05.83.83,0,0,1,1.06-.45,21.29,21.29,0,0,1,10.78,30.31,30.47,30.47,0,0,1,7.9,8.91.79.79,0,0,1-.29,1.1A.77.77,0,0,1,122.32,512.6Z"/><path class="cls-5" d="M126.28,529.8h-.06a.82.82,0,0,1-.75-.87c.06-.71.08-1.45.08-2.19a29,29,0,0,0-.78-6.71.81.81,0,0,1,1.58-.37,30.53,30.53,0,0,1,.83,7.08c0,.78,0,1.56-.09,2.31A.81.81,0,0,1,126.28,529.8Z"/><path class="cls-5" d="M66.27,529.8a.82.82,0,0,1-.81-.75c-.06-.75-.09-1.53-.09-2.31a30.44,30.44,0,0,1,3.47-14.1.82.82,0,0,1,1.1-.34.81.81,0,0,1,.34,1.09A28.9,28.9,0,0,0,67,526.74c0,.74,0,1.48.09,2.19a.82.82,0,0,1-.75.87Z"/><path class="cls-5" d="M76.09,497.73a.81.81,0,0,1-.79-.62,21.27,21.27,0,0,1,10.93-24,.81.81,0,0,1,1.1.34.8.8,0,0,1-.34,1.08,19.7,19.7,0,0,0-10.11,22.22.82.82,0,0,1-.6,1Z"/><path class="cls-5" d="M86.61,474.61a.81.81,0,0,1-.38-1.52c.48-.25,1-.49,1.48-.7v-7.87a.8.8,0,0,1,.81-.8H104a.81.81,0,0,1,.82.8v8.4a.82.82,0,0,1-.82.81.81.81,0,0,1-.81-.81v-7.59H89.34v7.59a.8.8,0,0,1-.51.75,17.06,17.06,0,0,0-1.84.85A.88.88,0,0,1,86.61,474.61Z"/><path class="cls-3" d="M605.91,193.82l-389.7-34.33A12.11,12.11,0,0,0,203,170.4L179.47,432.9A12.6,12.6,0,0,0,191,446.53l388.62,34.24a12.65,12.65,0,0,0,13.76-11.4l23.58-262.51A12.06,12.06,0,0,0,605.91,193.82ZM576.28,463,197.39,429.62l22.67-252.33L599,210.67Z"/><polygon class="cls-2" points="598.95 210.67 576.28 463 197.39 429.62 220.06 177.29 598.95 210.67"/><path class="cls-3" d="M418.32,526.25l-76.72-6.76c-3.9-.34-7-1.46-6.9-2.49l5.15-57.36h0l90.87,8L425.56,525C425.47,526,422.23,526.59,418.32,526.25Z"/><path class="cls-3" d="M454.73,528.58l-70.11-2.28-80-7a20.9,20.9,0,0,1,22.72-18.83L435.73,510A20.87,20.87,0,0,1,454.73,528.58Z"/><path class="cls-5" d="M573.77,467.08H519.39a1,1,0,1,1,0-1.93h54.38a11.66,11.66,0,0,0,11.7-11.59V406.08a1,1,0,0,1,1.95,0v47.48A13.6,13.6,0,0,1,573.77,467.08Z"/><path class="cls-5" d="M424.3,508.8a1,1,0,0,1-1-1V466.11a1,1,0,0,1,1-1H482a1,1,0,1,1,0,1.93H425.27v40.76A1,1,0,0,1,424.3,508.8Z"/><path class="cls-5" d="M454,529.55H346.46a1,1,0,1,1,0-1.93H453a19.93,19.93,0,0,0-20-18.82H424.3a1,1,0,1,1,0-1.93h8.78A21.84,21.84,0,0,1,455,528.58,1,1,0,0,1,454,529.55Z"/><path class="cls-5" d="M303.34,529.55a1,1,0,0,1-1-1,21.84,21.84,0,0,1,21.92-21.71h7.81V465.41a1,1,0,0,1,1.95,0v42.43a1,1,0,0,1-1,1h-8.78a19.9,19.9,0,0,0-20,19.78A1,1,0,0,1,303.34,529.55Z"/><path class="cls-5" d="M586.45,278.28a1,1,0,0,1-1-1v-88a11.13,11.13,0,0,0-11.17-11.06H480.86a1,1,0,1,1,0-1.93H574.3a13.07,13.07,0,0,1,13.12,13v88A1,1,0,0,1,586.45,278.28Z"/><path class="cls-5" d="M170.93,217.76a1,1,0,0,1-1-1V189.31a13.07,13.07,0,0,1,13.12-13H449.33a1,1,0,1,1,0,1.93H183.07a11.13,11.13,0,0,0-11.17,11.06V216.8A1,1,0,0,1,170.93,217.76Z"/><path class="cls-5" d="M333.07,466.38H187.37A17.35,17.35,0,0,1,170,449.13v-10.8a1,1,0,0,1,2,0v10.8a15.41,15.41,0,0,0,15.47,15.32h145.7a1,1,0,1,1,0,1.93Z"/><path class="cls-5" d="M170.93,378.91a1,1,0,0,1-1-1V276.72a1,1,0,0,1,2,0V378A1,1,0,0,1,170.93,378.91Z"/><path class="cls-4" d="M634.2,481.57h56.32a0,0,0,0,1,0,0v19.65a28.16,28.16,0,0,1-28.16,28.16h0a28.16,28.16,0,0,1-28.16-28.16V481.57a0,0,0,0,1,0,0Z"/><path class="cls-5" d="M679,490.09a.71.71,0,0,1-.71-.7v-7.12H651.59a.7.7,0,0,1,0-1.4H679a.7.7,0,0,1,.71.7v7.82A.71.71,0,0,1,679,490.09Z"/><path class="cls-5" d="M650.86,530.07A28.76,28.76,0,0,1,622,501.49V481.57a.7.7,0,0,1,.7-.7h16.84a.7.7,0,1,1,0,1.4H623.41v19.22a27.51,27.51,0,0,0,51.59,13,.72.72,0,0,1,1-.29.7.7,0,0,1,.28,1A28.89,28.89,0,0,1,650.86,530.07Z"/><path class="cls-5" d="M685.3,512.11h-5.11a.7.7,0,1,1,0-1.4h5.11a16,16,0,0,0,14.25-8.81,5.66,5.66,0,0,0-.29-5.55,5.79,5.79,0,0,0-4.92-2.7h-8.72a.7.7,0,1,1,0-1.4h8.72a7.16,7.16,0,0,1,6.11,3.35,7,7,0,0,1,.37,6.91A17.41,17.41,0,0,1,685.3,512.11Z"/><path class="cls-4" d="M636.29,467.44a.87.87,0,0,1-.88-.86c0-2.87,2.76-4.23,5.19-5.44,2.17-1.07,4.22-2.08,4.22-3.88s-2.05-2.8-4.22-3.88c-2.43-1.2-5.19-2.57-5.19-5.43s2.76-4.23,5.19-5.43c2.17-1.08,4.22-2.09,4.22-3.88s-2.05-2.81-4.22-3.88c-2.43-1.21-5.19-2.57-5.19-5.44s2.76-4.23,5.19-5.43c2.17-1.07,4.22-2.09,4.22-3.88a.88.88,0,0,1,1.75,0c0,2.86-2.76,4.23-5.19,5.43-2.17,1.08-4.22,2.09-4.22,3.88s2.05,2.81,4.22,3.88c2.43,1.21,5.19,2.57,5.19,5.44s-2.76,4.22-5.19,5.43c-2.17,1.07-4.22,2.09-4.22,3.88s2.05,2.81,4.22,3.88c2.43,1.2,5.19,2.57,5.19,5.43s-2.76,4.23-5.19,5.44c-2.17,1.07-4.22,2.08-4.22,3.88A.86.86,0,0,1,636.29,467.44Z"/><path class="cls-4" d="M664.39,472.62a.87.87,0,0,1-.87-.87c0-2.86,2.75-4.23,5.18-5.43,2.17-1.08,4.22-2.09,4.22-3.88s-2-2.81-4.22-3.88c-2.43-1.21-5.18-2.57-5.18-5.44s2.75-4.23,5.18-5.43c2.17-1.07,4.22-2.09,4.22-3.88s-2-2.81-4.22-3.88c-2.43-1.2-5.18-2.57-5.18-5.43a.88.88,0,0,1,1.75,0c0,1.79,2.05,2.8,4.22,3.88,2.43,1.2,5.18,2.57,5.18,5.43s-2.75,4.23-5.18,5.43c-2.17,1.08-4.22,2.09-4.22,3.88s2.05,2.81,4.22,3.88c2.43,1.21,5.18,2.57,5.18,5.44s-2.75,4.23-5.18,5.43c-2.17,1.07-4.22,2.09-4.22,3.88A.87.87,0,0,1,664.39,472.62Z"/><path class="cls-1" d="M0,140.71H123.74c-.83-10.27-7.61-27.77-8.87-29.79-.52-.81-1-1.57-1.34-2.16-5.77-9.08-21.71-15.13-28.9-4.24-5,7.61-.85,22.44-11.31,26.22-12,4.35-15-11.28-16.1-19.3-1.31-9.85-1.09-19.94-4-29.52-1.24-2.87-3.31-6.15-6.63-6.56-3.31,0-6.21,2.46-7.45,5.33-3.68,8.83-4.69,18.36-6,27.74C32,116,30.51,132.82,20.3,133.76c-5.43.5-10.33-9.09-15.36-4.84C1.75,131.61,1.92,137.25,0,140.71Z"/><path class="cls-5" d="M89.12,215.25a1.11,1.11,0,0,1-1.05-.78,1.08,1.08,0,0,1,.74-1.34,34.77,34.77,0,0,0,8.94-3.95,14.18,14.18,0,0,1-4-3c-1.4-1.51-2-3-1.66-4.4a4.63,4.63,0,0,1,2.7-3.08,6.73,6.73,0,0,1,5.86,0,5.4,5.4,0,0,1,3,4A6.76,6.76,0,0,1,102,208.3a10.42,10.42,0,0,0,3.48,0,8.81,8.81,0,0,0,6.78-5.41,1.09,1.09,0,0,1,1.43-.56,1.07,1.07,0,0,1,.58,1.42,10.94,10.94,0,0,1-8.42,6.69,12.9,12.9,0,0,1-5.69-.34c-3.27,2.64-8,4.31-10.7,5.1A1.12,1.12,0,0,1,89.12,215.25Zm8.62-15.11a4.59,4.59,0,0,0-2,.46c-.41.2-1.37.76-1.54,1.59a3.25,3.25,0,0,0,1.13,2.5,11.84,11.84,0,0,0,4.32,3,5.19,5.19,0,0,0,1.83-4.67,3.29,3.29,0,0,0-1.84-2.42A4.28,4.28,0,0,0,97.74,200.14Z"/><path class="cls-6" d="M258.25,529.72H238.42a1.08,1.08,0,1,1,0-2.16h19.83a1.08,1.08,0,1,1,0,2.16Z"/><path class="cls-6" d="M543.26,529.77h-285a1.09,1.09,0,1,1,0-2.17h285a1.09,1.09,0,1,1,0,2.17Z"/><polygon class="cls-4" points="552.92 425.17 259.39 438.67 249.09 220.12 542.62 206.61 552.92 425.17"/><polygon class="cls-2" points="519.87 254.76 275.78 265.98 274.76 244.44 518.85 233.22 519.87 254.76"/><polygon class="cls-2" points="526.94 404.9 287.82 415.9 286.81 394.36 525.93 383.36 526.94 404.9"/><polygon class="cls-2" points="525.16 367.18 286.05 378.18 281.51 281.94 520.63 270.94 525.16 367.18"/><path class="cls-3" d="M313.76,253.77a4,4,0,1,1-4.24-3.81A4,4,0,0,1,313.76,253.77Z"/><path class="cls-4" d="M328.2,253.11A4,4,0,1,1,324,249.3,4,4,0,0,1,328.2,253.11Z"/><path class="cls-4" d="M342.64,252.45a4.05,4.05,0,1,1-4.24-3.82A4,4,0,0,1,342.64,252.45Z"/><polygon class="cls-4" points="426.07 299.63 428.59 353.04 379.61 328.53 379.61 328.53 426.07 299.63"/><path class="cls-5" d="M413.17,354.68a.9.9,0,0,1-.42-.1l-49-24.51a.94.94,0,0,1-.52-.79,1,1,0,0,1,.44-.83l46.46-28.9a1,1,0,0,1,.94,0,.93.93,0,0,1,.51.78l2.51,53.42a.89.89,0,0,1-.43.82A.92.92,0,0,1,413.17,354.68Zm-47.06-25.53,46.05,23.05L409.79,302Z"/><rect class="cls-4" x="478.02" y="51" width="74.6" height="47.36" transform="translate(1030.64 149.37) rotate(180)"/><path class="cls-5" d="M468.08,87V39.62a1,1,0,0,1,1-1h74.61a1,1,0,0,1,1,1V87a1,1,0,0,1-1,1H469.12A1,1,0,0,1,468.08,87Zm74.61-46.33H470.16V86h72.53Z"/><path class="cls-5" d="M490.24,73.86h34.22a1,1,0,1,0,0-2.06H490.24a1,1,0,1,0,0,2.06Z"/><path class="cls-5" d="M490.24,62.38h34.22a1,1,0,1,0,0-2.06H490.24a1,1,0,1,0,0,2.06Z"/><path class="cls-5" d="M503.34,50.91h21.12a1,1,0,1,0,0-2.06H503.34a1,1,0,1,0,0,2.06Z"/><ellipse class="cls-1" cx="228.64" cy="55.33" rx="42.04" ry="41.63"/><path class="cls-7" d="M255.53,68.91a.76.76,0,0,1-.21,0,.68.68,0,0,1-.44-.86,40.6,40.6,0,0,0,2-12.69,41.5,41.5,0,0,0-69.13-30.47.69.69,0,0,1-1-.05.66.66,0,0,1,.05-1A42.92,42.92,0,0,1,215.49,13c23.59,0,42.78,19,42.78,42.37a42.1,42.1,0,0,1-2.08,13.11A.7.7,0,0,1,255.53,68.91Z"/><path class="cls-7" d="M215.49,97.7c-23.59,0-42.79-19-42.79-42.37A41.67,41.67,0,0,1,177,36.86a.69.69,0,0,1,.92-.31.67.67,0,0,1,.32.9,40.36,40.36,0,0,0-4.13,17.88,41.49,41.49,0,0,0,75.17,23.75.71.71,0,0,1,1-.16.68.68,0,0,1,.16,1A43,43,0,0,1,215.49,97.7Z"/><path class="cls-5" d="M216.27,56.59a1.25,1.25,0,0,1-.93-.42L199.24,38a1.21,1.21,0,0,1,.12-1.72,1.23,1.23,0,0,1,1.74.11l15.42,17.44L227,47.66a1.26,1.26,0,0,1,1.7.43,1.23,1.23,0,0,1-.44,1.68L216.9,56.42A1.32,1.32,0,0,1,216.27,56.59Z"/><path class="cls-5" d="M216.31,25.62a.68.68,0,0,1-.69-.68V19.36a.69.69,0,0,1,1.37,0v5.58A.68.68,0,0,1,216.31,25.62Z"/><path class="cls-5" d="M216.31,92a.68.68,0,0,1-.69-.68V85.72a.69.69,0,0,1,1.37,0V91.3A.68.68,0,0,1,216.31,92Z"/><path class="cls-5" d="M185.62,56H180a.68.68,0,1,1,0-1.36h5.63a.68.68,0,1,1,0,1.36Z"/><path class="cls-5" d="M252.62,56H247a.68.68,0,1,1,0-1.36h5.63a.68.68,0,1,1,0,1.36Z"/><path class="cls-4" d="M164,36.55a.84.84,0,0,1-.72-.42l-2.18-3.82a.82.82,0,0,1,.31-1.13.85.85,0,0,1,1.14.32l1.32,2.31A57.35,57.35,0,0,1,203.7,0a.83.83,0,1,1,.38,1.61A55.44,55.44,0,0,0,164.82,36a.86.86,0,0,1-.72.53Z"/><path class="cls-4" d="M164,36.55a.82.82,0,0,1-.12-1.64l4.32-.65a.82.82,0,1,1,.25,1.63l-4.32.65Z"/><ellipse class="cls-2" cx="216.27" cy="55.36" rx="3.71" ry="3.67"/><rect class="cls-4" x="627.83" y="335.94" width="84.45" height="58.91"/><polygon class="cls-8" points="706.62 293.85 629.98 328.98 625.82 320.08 702.47 284.95 706.62 293.85"/><path class="cls-2" d="M701.23,351H641.48a1,1,0,1,1,0-2h59.75a1,1,0,1,1,0,2Z"/><path class="cls-2" d="M701.23,364H641.48a1,1,0,1,1,0-2h59.75a1,1,0,1,1,0,2Z"/><path class="cls-2" d="M701.23,377H657.77a1,1,0,1,1,0-2h43.46a1,1,0,1,1,0,2Z"/><path class="cls-2" d="M657.77,363.16a1,1,0,0,1-1-1V350a1,1,0,0,1,2,0v12.12A1,1,0,0,1,657.77,363.16Z"/><path class="cls-2" d="M687.51,376a1,1,0,0,1-1-1V363a1,1,0,0,1,2,0V375A1,1,0,0,1,687.51,376Z"/><path class="cls-6" d="M770.4,529.72H485.26a1.08,1.08,0,1,1,0-2.16H770.4a1.08,1.08,0,1,1,0,2.16Z"/><path class="cls-6" d="M213.39,530.19H15.1a.6.6,0,0,1-.61-.59.6.6,0,0,1,.61-.6H213.39a.6.6,0,0,1,.6.6A.59.59,0,0,1,213.39,530.19Z"/><path class="cls-5" d="M663.39,251c-5.09,0-10-2.24-11.81-7.09a12.64,12.64,0,0,1-.67-3,15.23,15.23,0,0,1-6-4.32,13.48,13.48,0,0,1-3.38-7.26,1.09,1.09,0,0,1,2.17-.2,11.47,11.47,0,0,0,2.87,6,14.06,14.06,0,0,0,4.27,3.36,18.15,18.15,0,0,1,.29-2.15c.45-2.25,1.32-3.77,2.67-4.65a4.81,4.81,0,0,1,5.18,0,4.73,4.73,0,0,1,2,4.75,5.61,5.61,0,0,1-1.83,3,7.29,7.29,0,0,1-5.5,2l-.47,0a10,10,0,0,0,.44,1.69c2.13,5.85,9.66,6.43,14.32,5l.48-.15a12.13,12.13,0,0,0,3.5-1.9,1.09,1.09,0,0,1,1.53.17,1.07,1.07,0,0,1-.17,1.52,14.13,14.13,0,0,1-4.13,2.24l-.55.19A17.66,17.66,0,0,1,663.39,251ZM653,239.28a4.8,4.8,0,0,0,.75.09,5.15,5.15,0,0,0,3.9-1.42,3.72,3.72,0,0,0,1.16-1.86,2.53,2.53,0,0,0-1.05-2.52,2.58,2.58,0,0,0-2.75,0,4.81,4.81,0,0,0-1.73,3.28A13.94,13.94,0,0,0,653,239.28Z"/><polygon class="cls-4" points="774.69 323.13 777.37 328.15 782.28 330.9 777.37 333.65 774.69 338.67 772 333.65 767.1 330.9 772 328.15 774.69 323.13"/><polygon class="cls-4" points="366.11 51.27 368.79 56.29 373.7 59.04 368.79 61.78 366.11 66.8 363.42 61.78 358.51 59.04 363.42 56.29 366.11 51.27"/><polygon class="cls-4" points="406.88 132.67 409.56 137.69 414.47 140.44 409.56 143.18 406.88 148.2 404.19 143.18 399.28 140.44 404.19 137.69 406.88 132.67"/><ellipse class="cls-4" cx="116.83" cy="307.74" rx="31.75" ry="31.45"/><path class="cls-5" d="M103.93,339.59h-.05c-.86,0-1.73-.11-2.59-.22l-1.4-.21a1,1,0,1,1,.33-1.9l1.32.2c.81.1,1.62.17,2.43.2a1,1,0,0,1,0,1.93Zm7.73-.6a1,1,0,0,1-.19-1.91,30.38,30.38,0,0,0,3.63-1,1,1,0,0,1,1.24.6,1,1,0,0,1-.61,1.22,32,32,0,0,1-3.87,1.05Zm-19-2a1,1,0,0,1-.4-.09A34.08,34.08,0,0,1,88.68,335a1,1,0,0,1-.33-1.33,1,1,0,0,1,1.34-.32A29.3,29.3,0,0,0,93,335.1a1,1,0,0,1,.49,1.27A1,1,0,0,1,92.63,337Zm-9.53-6.57a1,1,0,0,1-.7-.29,32.52,32.52,0,0,1-2.62-3,1,1,0,0,1,.18-1.35,1,1,0,0,1,1.36.18,31.74,31.74,0,0,0,2.47,2.82,1,1,0,0,1,0,1.37A1,1,0,0,1,83.1,330.38Zm46.19-1.84a1,1,0,0,1-.62-.23,1,1,0,0,1-.12-1.35,31.21,31.21,0,0,0,2.23-3,1,1,0,0,1,1.35-.29,1,1,0,0,1,.29,1.33,30.85,30.85,0,0,1-2.38,3.2A1,1,0,0,1,129.29,328.54Zm-52.65-7.71a1,1,0,0,1-.89-.58,29.91,29.91,0,0,1-1.34-3.75,1,1,0,0,1,.66-1.19,1,1,0,0,1,1.21.67,27.71,27.71,0,0,0,1.26,3.51,1,1,0,0,1-.52,1.26A.84.84,0,0,1,76.64,320.83ZM135,318.5a.79.79,0,0,1-.3-.05,1,1,0,0,1-.62-1.22,29.35,29.35,0,0,0,1-3.6,1,1,0,0,1,1.15-.76,1,1,0,0,1,.76,1.13,31.45,31.45,0,0,1-1,3.84A1,1,0,0,1,135,318.5Zm-60.79-8.89a1,1,0,0,1-1-.94c0-.29,0-.58,0-.87,0-1,0-2.07.15-3.1a1,1,0,0,1,1.93.19c-.09,1-.14,1.94-.14,2.91,0,.27,0,.54,0,.82a1,1,0,0,1-.94,1Zm62.35-2.5a1,1,0,0,1-1-.92,28.71,28.71,0,0,0-.43-3.7,1,1,0,0,1,1.92-.34,30.66,30.66,0,0,1,.45,3.94,1,1,0,0,1-.92,1ZM76,298.25a1,1,0,0,1-.33-.05,1,1,0,0,1-.59-1.23,31.27,31.27,0,0,1,1.6-3.65,1,1,0,1,1,1.73.87,28.9,28.9,0,0,0-1.49,3.43A1,1,0,0,1,76,298.25Zm57.77-2.31a1,1,0,0,1-.88-.56,29,29,0,0,0-1.78-3.29,1,1,0,0,1,1.66-1,32.75,32.75,0,0,1,1.89,3.5,1,1,0,0,1-.49,1.28A.92.92,0,0,1,133.76,295.94Zm-51.87-7.59a1,1,0,0,1-.64-.24,1,1,0,0,1-.09-1.36A31.27,31.27,0,0,1,84,283.94a1,1,0,0,1,1.37.08,1,1,0,0,1-.08,1.36A30.12,30.12,0,0,0,82.62,288,1,1,0,0,1,81.89,288.35Zm45.19-1.8a.94.94,0,0,1-.68-.28,31.63,31.63,0,0,0-2.86-2.43,1,1,0,0,1-.19-1.35,1,1,0,0,1,1.36-.18,32.5,32.5,0,0,1,3.05,2.58,1,1,0,0,1-.68,1.66Zm-36-5.28a1,1,0,0,1-.45-1.82,31.34,31.34,0,0,1,3.67-1.6,1,1,0,1,1,.67,1.81,29.1,29.1,0,0,0-3.44,1.5A1,1,0,0,1,91,281.27Zm26.36-1.06a1,1,0,0,1-.37-.07,29.89,29.89,0,0,0-3.56-1.22,1,1,0,1,1,.52-1.86,32,32,0,0,1,3.79,1.3,1,1,0,0,1,.52,1.26A1,1,0,0,1,117.39,280.21ZM102.15,278a1,1,0,0,1-.1-1.92,31.49,31.49,0,0,1,4-.16,1,1,0,0,1,1,1,1,1,0,0,1-1,.94,29.41,29.41,0,0,0-3.76.15Z"/><polygon class="cls-2" points="119.55 308.71 95.18 322.64 95.18 294.78 119.55 308.71"/></g></g></svg>