<svg xmlns="http://www.w3.org/2000/svg" viewBox="0 0 1077.2 560.03"><defs><style>.cls-1{fill:#cf8282;}.cls-2{fill:#fff;}.cls-3{fill:#1e1e1e;}.cls-4{fill:#dce5f7;}</style></defs><title>Asset 7</title><g id="Layer_2" data-name="Layer 2"><g id="Layer_2-2" data-name="Layer 2"><path class="cls-1" d="M814.93,544.58c-7.08,3.08-11.53,8.53-9.94,12.16s8.6,4.09,15.67,1c4.9-2.13,7.78-7.13,9.09-10a2.19,2.19,0,0,0-1.3-3C825.45,543.74,819.82,542.44,814.93,544.58Z"/><path class="cls-1" d="M780.49,283.54l36-34.71L853,186.28l84.22,52.82-27.34,56.44-9.56,24.14c3.78,10.79-1.64,31.8-10.6,42.35l-47.82,3.76-69.31-19.88Z"/><path class="cls-1" d="M927.13,279.5l22.47-28.33c19.84-25,45.06-63.38,13.84-90.29-33.79-29.13-89.7-19.71-109.75,20.48,0,0-21.22,42.51-21.22,42.51Z"/><rect class="cls-2" x="846.91" y="165.73" width="71" height="148.17" rx="13.25" transform="translate(291.1 937.32) rotate(-64.91)"/><circle class="cls-1" cx="817.78" cy="312.69" r="41.31"/><path class="cls-1" d="M698.09,430.21a17.69,17.69,0,0,1-13.7-28.88L779.14,285.2a17.69,17.69,0,1,1,27.42,22.37L711.81,423.7A17.66,17.66,0,0,1,698.09,430.21Z"/><path class="cls-1" d="M788.54,412.51a17.69,17.69,0,0,1-14.37-28l33.49-46.8a17.7,17.7,0,0,1,28.78,20.6L803,405.12A17.69,17.69,0,0,1,788.54,412.51Z"/><path class="cls-1" d="M826.13,412.52a17.71,17.71,0,0,1-15.65-25.93l23.61-44.95a17.7,17.7,0,1,1,31.33,16.46l-23.61,44.95A17.71,17.71,0,0,1,826.13,412.52Z"/><path class="cls-1" d="M863.72,412.52a17.7,17.7,0,0,1-15.64-26l21.53-40.81a17.69,17.69,0,1,1,31.3,16.51l-21.53,40.81A17.7,17.7,0,0,1,863.72,412.52Z"/><path class="cls-3" d="M788.54,413.69a1.18,1.18,0,1,1,0-2.35A16.59,16.59,0,0,0,802,404.43l33.49-46.8a16.53,16.53,0,0,0-9.8-25.73,1.18,1.18,0,0,1,.52-2.3A18.89,18.89,0,0,1,837.4,359l-33.5,46.8A18.92,18.92,0,0,1,788.54,413.69Z"/><path class="cls-3" d="M826.13,413.69a18.9,18.9,0,0,1-8.76-2.17,18.71,18.71,0,0,1-9.82-13.47,1.18,1.18,0,0,1,2.32-.41,16.41,16.41,0,0,0,8.59,11.8,16.51,16.51,0,0,0,22.31-6.94l23.61-44.95a16.52,16.52,0,0,0-26.87-18.77,1.18,1.18,0,1,1-1.75-1.57,18.88,18.88,0,0,1,30.71,21.44l-23.62,44.94A18.83,18.83,0,0,1,826.13,413.69Z"/><path class="cls-3" d="M863.72,413.69a18.88,18.88,0,0,1-18.86-18.27,1.18,1.18,0,1,1,2.36-.08,16.52,16.52,0,0,0,31.12,7.18l21.53-40.81a16.52,16.52,0,1,0-29.22-15.41l-2.25,4.26a1.17,1.17,0,1,1-2.08-1.09l2.25-4.27A18.87,18.87,0,1,1,902,362.81l-21.53,40.81A18.82,18.82,0,0,1,863.72,413.69Z"/><circle class="cls-1" cx="914.74" cy="252.79" r="9.44" transform="translate(346.32 1012.75) rotate(-68.65)"/><path class="cls-3" d="M920.68,263.1a10.31,10.31,0,1,1,5.75-1.76A10.3,10.3,0,0,1,920.68,263.1Zm0-18.87a8.56,8.56,0,1,0,7.11,3.78A8.54,8.54,0,0,0,920.65,244.23Z"/><path class="cls-2" d="M887.44,364.62a10.25,10.25,0,0,1-2.05-.2,10.59,10.59,0,1,1,2.05.2Zm0-18.88a8.34,8.34,0,1,0,1.59.16A7.8,7.8,0,0,0,887.41,345.74Z"/><path class="cls-2" d="M852.83,361.48a11,11,0,0,1-2.05-.2,10.53,10.53,0,1,1,2.05.2Zm0-18.88a8.22,8.22,0,1,0,1.6.15A8.75,8.75,0,0,0,852.79,342.6Z"/><path class="cls-2" d="M822.07,358.06a10.18,10.18,0,0,1-2.05-.2,10.61,10.61,0,1,1,8-1.61h0A10.57,10.57,0,0,1,822.07,358.06Zm0-18.88a8.26,8.26,0,1,0,4.64,15.12h0a8.28,8.28,0,0,0,2.23-11.47,8.2,8.2,0,0,0-5.27-3.49A7.89,7.89,0,0,0,822,339.18Zm5.29,16.09h0Z"/><path class="cls-3" d="M825.05,269.31l-.21,0-17.68-4.35a14.13,14.13,0,0,1-10.35-17.1l10.63-43.2a14.15,14.15,0,0,1,17.1-10.35L890,210.4a.88.88,0,0,1-.42,1.71L824.12,196a12.38,12.38,0,0,0-15,9.06l-10.63,43.2a12.38,12.38,0,0,0,9.06,15l17.68,4.35a.87.87,0,0,1,.64,1.06A.88.88,0,0,1,825.05,269.31Z"/><path class="cls-3" d="M924.49,293.72a14.36,14.36,0,0,1-3.36-.41l-81.42-19.78a.89.89,0,0,1-.65-1.07.87.87,0,0,1,1.06-.64l81.43,19.78a12.35,12.35,0,0,0,14.94-9.1L947,239.27a12.39,12.39,0,0,0-9.1-15l-34.82-8.46a.88.88,0,0,1,.42-1.7l34.81,8.45a14.16,14.16,0,0,1,10.4,17.07L938.2,282.92a14.15,14.15,0,0,1-13.71,10.8Z"/><path class="cls-4" d="M170.29,219.3H0a23.84,23.84,0,0,1,.19-4.07h0a36.78,36.78,0,0,1,4.41-13c3.6-6.34,9-11,15.06-9.58a13.46,13.46,0,0,1,5.72,3.18c2.92,2.59,5.27,5.76,8.16,8.38s6.58,4.71,10.47,4.43c4.87-.35,8.37-4.71,9.09-9.3,1.76-11,1.65-32.83,15.45-35.85l.77-.15c11.79-2,19.92,9.5,23.06,19.82a34.17,34.17,0,0,1,.87,3.45,44.14,44.14,0,0,1,1,8.62l.06.56c.09.8.2,1.59.34,2.37a18.57,18.57,0,0,0,1.63,5.37A2.41,2.41,0,0,0,97.73,205c1.88.46,3.46-1.72,4.54-3.46.3-.49.56-.94.79-1.29,3.42-5.43,12.85-9,17.11-2.54,3,4.55.5,13.42,6.7,15.68,7.11,2.6,8.9-6.75,9.53-11.54.78-5.89.65-11.92,2.39-17.66.73-1.71,2-3.67,3.92-3.92a5.07,5.07,0,0,1,4.41,3.19c2.18,5.28,2.78,11,3.57,16.59.65,4.55,1.53,14.58,7.58,15.15,3.21.29,6.12-5.44,9.09-2.9C169.25,213.86,169.15,217.23,170.29,219.3Z"/><path class="cls-4" d="M519.55,59.28c-2.69,1.27-4.55,3.61-7.21,5-13.77,7-13-18.2-12.92-25.48.12-15.32-.54-35-19.59-38.41-12.15-2.17-23.78,6-26.74,18-3.71,15,2.24,57.51-25.72,51.71-7.44-1.55-13-7.68-17.52-13.78-5.74-7.72-11.35-16.35-21.52-18.18-15.4-2.78-31,6.12-41.51,16.64A72.48,72.48,0,0,0,330.77,80s-.06.18-.07.18l29.76,0q19.73,0,39.44-.06c11.22,0,139.06-.18,139.06-.1C538.18,70.48,532.93,53,519.55,59.28Z"/><path class="cls-4" d="M1077.2,263.48s-77.42,0-77.51,0H981.14a16.24,16.24,0,0,1-.2-3.62h0v-.29c0-.1,0-.16,0-.19A32.39,32.39,0,0,1,982,254.6a25.53,25.53,0,0,1,2.81-6.29,16.86,16.86,0,0,1,5.78-5.73,22.84,22.84,0,0,1,7.59-2.78,17.24,17.24,0,0,1,12.79,2.52c2.32,1.57,4.45,4,7.37,4.38,4.45.58,5.62-4.32,6-7.71,1-9.15,1.76-23.39,12.9-26a6.41,6.41,0,0,1,5.06.81c2.77,1.74,4.52,5.44,5.52,8.47,1.62,4.9,2.51,10.2,4.53,14.95,1.49,3.51,4.46,5.64,8.36,5.12a9.36,9.36,0,0,1,3.78.27,14.22,14.22,0,0,1,7,5.07,19.33,19.33,0,0,1,1.73,2.61C1075.42,254.18,1076.33,259.1,1077.2,263.48Z"/><path class="cls-4" d="M642.4,95.06H775.7c-.9-11.16-8.2-30.2-9.56-32.39-.55-.89-1-1.71-1.44-2.35-6.22-9.88-23.38-16.46-31.14-4.62-5.41,8.28-.91,24.41-12.18,28.53C708.45,89,705.19,72,704,63.23c-1.41-10.71-1.17-21.68-4.33-32.11-1.34-3.12-3.57-6.69-7.14-7.14-3.56,0-6.69,2.68-8,5.81-3.95,9.6-5,20-6.49,30.17-1.18,8.27-2.78,26.52-13.78,27.55-5.85.54-11.13-9.89-16.55-5.27C644.29,85.17,644.47,91.3,642.4,95.06Z"/><path class="cls-3" d="M336.41,560H255.6a1.18,1.18,0,1,1,0-2.35h80.81a1.18,1.18,0,0,1,0,2.35Z"/><path class="cls-3" d="M650.07,349.62c-4.06,0-8-1.81-9.41-5.73a9.8,9.8,0,0,1-.51-2.2,12.1,12.1,0,0,1-4.53-3.37,10.79,10.79,0,0,1-2.68-5.83,1.17,1.17,0,1,1,2.34-.21,8.61,8.61,0,0,0,2.13,4.51,10.56,10.56,0,0,0,2.74,2.29c0-.39.1-.79.18-1.19a5.64,5.64,0,0,1,2.2-3.84,3.92,3.92,0,0,1,6,4.05,4.72,4.72,0,0,1-1.5,2.53,6,6,0,0,1-4.41,1.64c.07.28.15.56.24.83,1.56,4.32,7.14,4.74,10.6,3.65l.35-.12a8.91,8.91,0,0,0,2.6-1.42,1.18,1.18,0,0,1,1.47,1.84,11.29,11.29,0,0,1-3.28,1.8l-.43.14A13.62,13.62,0,0,1,650.07,349.62Zm-7.63-9.73.25,0a3.57,3.57,0,0,0,2.75-1,2.47,2.47,0,0,0,.8-1.25,1.67,1.67,0,0,0-.67-1.62,1.63,1.63,0,0,0-1.74,0,3.51,3.51,0,0,0-1.19,2.33A12.42,12.42,0,0,0,642.44,339.89Z"/><path class="cls-3" d="M142.56,259a1.18,1.18,0,0,1-.33-2.31,37.11,37.11,0,0,0,9.62-4.29,15.09,15.09,0,0,1-4.36-3.3c-1.51-1.64-2.11-3.25-1.79-4.79a5.09,5.09,0,0,1,2.92-3.35,7.18,7.18,0,0,1,6.3,0,5.87,5.87,0,0,1,3.24,4.31,7.44,7.44,0,0,1-1.75,6.21,11,11,0,0,0,3.75,0,9.49,9.49,0,0,0,7.29-5.88,1.18,1.18,0,0,1,2.17.93,11.81,11.81,0,0,1-9.07,7.27,13.83,13.83,0,0,1-6.13-.36c-3.52,2.87-8.61,4.68-11.52,5.55A1.33,1.33,0,0,1,142.56,259Zm9.28-16.44a4.87,4.87,0,0,0-2.17.51c-.44.22-1.47.82-1.66,1.72s.55,2,1.21,2.72a12.69,12.69,0,0,0,4.67,3.22,5.68,5.68,0,0,0,2-5.08,3.6,3.6,0,0,0-2-2.63A4.54,4.54,0,0,0,151.84,242.56Z"/><path class="cls-3" d="M385.85,560H86.32a1.18,1.18,0,1,1,0-2.35H385.85a1.18,1.18,0,0,1,0,2.35Z"/><path class="cls-3" d="M703,156.88H496.9a1.18,1.18,0,1,1,0-2.36H703a1.18,1.18,0,0,1,0,2.36Z"/><path class="cls-3" d="M472.65,156.88H127.38a1.18,1.18,0,1,1,0-2.36H472.65a1.18,1.18,0,1,1,0,2.36Z"/><circle class="cls-3" cx="179.72" cy="388.4" r="38.97" transform="translate(-222 240.84) rotate(-45)"/><circle class="cls-3" cx="296.96" cy="388.46" r="38.97" transform="translate(-187.7 323.76) rotate(-45)"/><circle class="cls-3" cx="460.64" cy="387.84" r="38.97"/><circle class="cls-3" cx="579.49" cy="387.51" r="38.97" transform="matrix(0.14, -0.99, 0.99, 0.14, 115.69, 907.95)"/><circle class="cls-3" cx="740.92" cy="388.75" r="38.97"/><path class="cls-1" d="M184.19,339h-.1a1.17,1.17,0,0,1-1.07-1.27l15-169.87a1.18,1.18,0,1,1,2.35.21L185.36,338A1.17,1.17,0,0,1,184.19,339Z"/><path class="cls-1" d="M305,289.94h-.1a1.18,1.18,0,0,1-1.07-1.27l9.74-120.87a1.17,1.17,0,1,1,2.34.19l-9.74,120.87A1.18,1.18,0,0,1,305,289.94Z"/><path class="cls-1" d="M301,339.05H301a1.17,1.17,0,0,1-1.08-1.27l2.55-31.72a1.19,1.19,0,0,1,1.27-1.08,1.18,1.18,0,0,1,1.08,1.27L302.21,338A1.17,1.17,0,0,1,301,339.05Z"/><path class="cls-1" d="M432.41,191.2a1.18,1.18,0,0,1-1.16-1l-3-21.24a1.18,1.18,0,1,1,2.33-.33l3,21.23a1.17,1.17,0,0,1-1,1.33Z"/><path class="cls-1" d="M453.47,338.78a1.17,1.17,0,0,1-1.16-1l-19-133.14a1.18,1.18,0,0,1,2.33-.33l19,133.14a1.18,1.18,0,0,1-1,1.33Z"/><path class="cls-1" d="M571.13,338.63a1.18,1.18,0,0,1-1.16-1l-28.1-168.2a1.18,1.18,0,1,1,2.32-.39l28.1,168.2a1.18,1.18,0,0,1-1,1.36Z"/><path class="cls-1" d="M729.14,340.14a1.17,1.17,0,0,1-1.09-.74L658.28,167.06a1.18,1.18,0,0,1,.65-1.53,1.16,1.16,0,0,1,1.53.65l69.77,172.34a1.18,1.18,0,0,1-.65,1.53A1.12,1.12,0,0,1,729.14,340.14Z"/><circle class="cls-2" cx="654.95" cy="155.7" r="11.78"/><path class="cls-3" d="M655,168.65a13,13,0,1,1,12.95-13A13,13,0,0,1,655,168.65Zm0-23.55a10.6,10.6,0,1,0,10.6,10.6A10.62,10.62,0,0,0,655,145.1Z"/><circle class="cls-2" cx="541.57" cy="155.7" r="11.78"/><path class="cls-3" d="M541.57,168.65a13,13,0,1,1,12.95-13A13,13,0,0,1,541.57,168.65Zm0-23.55a10.6,10.6,0,1,0,10.6,10.6A10.62,10.62,0,0,0,541.57,145.1Z"/><circle class="cls-2" cx="428.19" cy="155.7" r="11.78"/><path class="cls-3" d="M428.19,168.65a13,13,0,1,1,12.95-13A13,13,0,0,1,428.19,168.65Zm0-23.55a10.6,10.6,0,1,0,10.6,10.6A10.62,10.62,0,0,0,428.19,145.1Z"/><circle class="cls-2" cx="314.81" cy="155.7" r="11.78"/><path class="cls-3" d="M314.81,168.65a13,13,0,1,1,12.95-13A13,13,0,0,1,314.81,168.65Zm0-23.55a10.6,10.6,0,1,0,10.6,10.6A10.61,10.61,0,0,0,314.81,145.1Z"/><circle class="cls-2" cx="201.43" cy="155.7" r="11.78"/><path class="cls-3" d="M201.43,168.65a13,13,0,1,1,12.95-13A13,13,0,0,1,201.43,168.65Zm0-23.55A10.6,10.6,0,1,0,212,155.7,10.61,10.61,0,0,0,201.43,145.1Z"/><path class="cls-1" d="M183.16,362.53a11.18,11.18,0,0,1-1.15,0,13,13,0,1,1,14.05-11.76h0A13,13,0,0,1,183.16,362.53Zm0-23.55a10.6,10.6,0,0,0-.91,21.16,10.62,10.62,0,0,0,11.49-9.63A10.61,10.61,0,0,0,184.09,339C183.77,339,183.45,339,183.13,339Zm11.75,11.64h0Z"/><path class="cls-1" d="M300.12,362.57c-.36,0-.71,0-1.07,0a13,13,0,1,1,14-11.87h0a13,13,0,0,1-12.89,11.91Zm0-23.55a10.6,10.6,0,1,0,10.58,11.45h0A10.61,10.61,0,0,0,301,339.05Q300.52,339,300.08,339Z"/><path class="cls-1" d="M455.11,362.22a13.1,13.1,0,1,1,1.86-.14A12.89,12.89,0,0,1,455.11,362.22Zm.05-23.56a11.1,11.1,0,0,0-1.52.11,10.59,10.59,0,1,0,12,9h0a10.59,10.59,0,0,0-10.47-9.1Z"/><path class="cls-1" d="M573,362a13,13,0,0,1-2.1-25.74,13,13,0,0,1,14.91,10.65h0a13,13,0,0,1-10.64,14.91A13.33,13.33,0,0,1,573,362Zm.05-23.56a10.6,10.6,0,1,0,10.44,8.85h0a10.6,10.6,0,0,0-10.44-8.85Z"/><path class="cls-1" d="M733.79,362.74a13,13,0,1,1,13-13A13,13,0,0,1,733.79,362.74Zm0-23.56a10.6,10.6,0,1,0,10.59,10.6A10.61,10.61,0,0,0,733.79,339.18Z"/><path class="cls-1" d="M763.65,387.8a17.7,17.7,0,0,1-15.22-26.69l22.3-37.78a17.51,17.51,0,0,1,3.33-4.09l32.65-29.74a17.7,17.7,0,0,1,23.83,26.17l-30.69,27.94L778.91,379.1A17.69,17.69,0,0,1,763.65,387.8Z"/><path class="cls-3" d="M763.65,389a18.89,18.89,0,0,1-16.23-28.47l22.3-37.78a18.91,18.91,0,0,1,3.54-4.37l12.08-11a1.18,1.18,0,0,1,1.59,1.74l-12.08,11a16.53,16.53,0,0,0-3.11,3.81L749.45,361.7a16.52,16.52,0,1,0,28.45,16.8l21.94-34.81a.86.86,0,0,1,.14-.18l11.28-11.87a1.18,1.18,0,0,1,1.67,0,1.17,1.17,0,0,1,0,1.66L801.77,345l-21.86,34.68A19,19,0,0,1,763.65,389Z"/><path class="cls-2" d="M756.42,382.12a12.88,12.88,0,0,1-2.3-.22,12,12,0,1,1,14.07-9.52,12,12,0,0,1-11.77,9.74Zm0-21.68a9.65,9.65,0,0,0-8,15.07,9.66,9.66,0,1,0,9.83-14.89A9.62,9.62,0,0,0,756.4,360.44Z"/><path class="cls-1" d="M596.15,504.8c9.72,5.44,15.32,13.9,12.52,18.89s-12.93,4.62-22.64-.82c-6.72-3.77-10.14-11.36-11.6-15.69a3.14,3.14,0,0,1,2.29-4.09C581.17,502.09,589.44,501,596.15,504.8Z"/><path class="cls-1" d="M635.4,507.83c-5.48,5.56-12.24,7.78-15.1,5s-.72-9.61,4.76-15.16c3.79-3.85,9.56-4.75,12.76-4.94a2.21,2.21,0,0,1,2.34,2.31C640,498.2,639.2,504,635.4,507.83Z"/><path class="cls-3" d="M612.6,560a1.08,1.08,0,0,1-1.08-1.08c0-21.77-3.39-44.64-10.08-68a1.08,1.08,0,0,1,.75-1.34,1.07,1.07,0,0,1,1.33.74c6.75,23.53,10.16,46.6,10.16,68.57A1.08,1.08,0,0,1,612.6,560Z"/><path class="cls-3" d="M600,483.37a1.08,1.08,0,0,1-1-.75c-8.17-25.59-17.43-42.33-17.53-42.49a1.09,1.09,0,0,1,.42-1.48,1.08,1.08,0,0,1,1.47.42c.1.17,9.47,17.1,17.7,42.89a1.08,1.08,0,0,1-.7,1.36A1,1,0,0,1,600,483.37Z"/><circle class="cls-1" cx="586.72" cy="452.04" r="18.84" transform="translate(87.83 999.48) rotate(-85.27)"/><path class="cls-1" d="M616.61,560a1.08,1.08,0,0,1-1.08-1.06c0-.58-1-58.9,13.75-100.84a1.08,1.08,0,0,1,2,.72c-14.61,41.57-13.64,99.5-13.63,100.08a1.07,1.07,0,0,1-1.06,1.1Z"/><polygon class="cls-1" points="646.4 462.43 633.08 449.11 614.88 453.99 610.01 472.19 623.33 485.5 641.52 480.63 646.4 462.43"/><path class="cls-2" d="M586.72,454.57c-10.13,0-20.39-2.4-20.39-7a1.08,1.08,0,0,1,2.16,0c0,2,7.11,4.82,18.23,4.82S605,449.55,605,447.59a1.09,1.09,0,0,1,2.17,0C607.12,452.17,596.86,454.57,586.72,454.57Z"/><path class="cls-2" d="M586.72,454.57c-10.13,0-20.39-2.4-20.39-7a1.08,1.08,0,0,1,2.16,0c0,2,7.11,4.82,18.23,4.82S605,449.55,605,447.59a1.09,1.09,0,0,1,2.17,0C607.12,452.17,596.86,454.57,586.72,454.57Z"/><path class="cls-2" d="M602.3,459.6c-4.31,0-10.9-2.51-16.87-6a49.88,49.88,0,0,1-11.22-8.52c-3-3.21-4-5.88-3-7.72a1.08,1.08,0,1,1,1.87,1.08c-.38.66.1,2.4,2.67,5.16a47.49,47.49,0,0,0,10.72,8.12c9.64,5.56,17.21,6.64,18.2,4.94a1.07,1.07,0,0,1,1.47-.4,1.08,1.08,0,0,1,.4,1.48C605.85,459.05,604.33,459.6,602.3,459.6Z"/><path class="cls-2" d="M602.3,459.6c-4.31,0-10.9-2.51-16.87-6a49.88,49.88,0,0,1-11.22-8.52c-3-3.21-4-5.88-3-7.72a1.08,1.08,0,1,1,1.87,1.08c-.38.66.1,2.4,2.67,5.16a47.49,47.49,0,0,0,10.72,8.12c9.64,5.56,17.21,6.64,18.2,4.94a1.07,1.07,0,0,1,1.47-.4,1.08,1.08,0,0,1,.4,1.48C605.85,459.05,604.33,459.6,602.3,459.6Z"/><path class="cls-2" d="M610,473.27a1.08,1.08,0,0,1-.28-2.13l36.39-9.75a1.08,1.08,0,1,1,.56,2.09l-36.39,9.75A.9.9,0,0,1,610,473.27Z"/><path class="cls-2" d="M628.2,468.39a1,1,0,0,1-.76-.32l-13.32-13.32a1.08,1.08,0,0,1,1.53-1.53L629,466.54a1.09,1.09,0,0,1,0,1.53A1.05,1.05,0,0,1,628.2,468.39Z"/><path class="cls-3" d="M559.25,560H305.53a1.18,1.18,0,1,1,0-2.35H559.25a1.18,1.18,0,1,1,0,2.35Z"/><path class="cls-1" d="M173.65,538.33c6.69,6.78,14.93,9.49,18.41,6s.88-11.71-5.8-18.48c-4.63-4.69-11.66-5.79-15.56-6a2.7,2.7,0,0,0-2.85,2.82C168,526.6,169,533.65,173.65,538.33Z"/><path class="cls-3" d="M200.63,559.6a1.09,1.09,0,0,1-1.08-1c-.05-.71-4.67-71.79,13.28-122.9a1.09,1.09,0,0,1,2,.72c-17.81,50.68-13.22,121.32-13.17,122a1.08,1.08,0,0,1-1,1.15Z"/><path class="cls-3" d="M193.9,559.6h0a1.08,1.08,0,0,1-1.07-1.1c.4-32.82-8.77-52.55-15.7-64.53a1.08,1.08,0,1,1,1.87-1.08c7.06,12.2,16.4,32.28,16,65.64A1.08,1.08,0,0,1,193.9,559.6Z"/><path class="cls-1" d="M213.66,456.65c-1.3,5.61-4.7,9.6-7.58,8.93s-4.16-5.76-2.85-11.37c.91-3.87,4.19-6.66,6.13-8a1.62,1.62,0,0,1,2.36.55C212.86,448.82,214.57,452.77,213.66,456.65Z"/><path class="cls-1" d="M234.08,440.63a3.91,3.91,0,0,0-2.69-6h0a7.44,7.44,0,0,0-7.78,3.51l-9.56,17.75a5.82,5.82,0,0,1-6.45,2.91h0a5.82,5.82,0,0,1-4.5-5.47l-.71-20.14a7.45,7.45,0,0,0-5.43-6.6h0a5.19,5.19,0,0,0-5,5.37s.9,26.6,1,27.13l0,.25a10.87,10.87,0,0,0,8.3,9.13l7.76,1.81a10.86,10.86,0,0,0,11.49-4.52l0,0Z"/><path class="cls-1" d="M169.83,476.6h0l6.17-12a4.62,4.62,0,0,0-3.44-6.69h0a4.63,4.63,0,0,0-5.22,5.43Z"/><path class="cls-1" d="M164.53,480.55h0L151.24,483a4.62,4.62,0,0,1-5.43-5.21h0a4.63,4.63,0,0,1,6.69-3.45Z"/><path class="cls-1" d="M168.31,485.63h0l-6.17,12a4.63,4.63,0,0,0,3.45,6.69h0a4.62,4.62,0,0,0,5.21-5.43Z"/><path class="cls-1" d="M173.62,481.68h0l13.29-2.49a4.62,4.62,0,0,1,5.43,5.21h0a4.63,4.63,0,0,1-6.69,3.45Z"/><path class="cls-1" d="M166.42,477.38h0l-4.14-12.87a4.63,4.63,0,0,0-7.17-2.29h0a4.63,4.63,0,0,0,.15,7.53Z"/><path class="cls-1" d="M165.46,483.93h0l-7.64,11.16a4.63,4.63,0,0,1-7.52.15h0a4.62,4.62,0,0,1,2.29-7.17Z"/><path class="cls-1" d="M171.73,484.84h0l4.14,12.87A4.63,4.63,0,0,0,183,500h0a4.64,4.64,0,0,0-.15-7.53Z"/><path class="cls-1" d="M172.68,478.3h0l7.64-11.16a4.63,4.63,0,0,1,7.53-.15h0a4.63,4.63,0,0,1-2.3,7.17Z"/><path class="cls-3" d="M804.67,560h-.18a1.18,1.18,0,0,1-1-1.34C806.18,541.1,814,521,823,508.57a1.19,1.19,0,0,1,1.65-.26,1.18,1.18,0,0,1,.26,1.64c-8.77,12.12-16.44,31.84-19.06,49.08A1.18,1.18,0,0,1,804.67,560Z"/><rect class="cls-1" x="817.93" y="501.23" width="13.63" height="13.63" transform="translate(1742.33 197.65) rotate(129.68)"/><path class="cls-1" d="M818.84,496.89a4.84,4.84,0,1,0,4.37-5.26A4.84,4.84,0,0,0,818.84,496.89Z"/><path class="cls-1" d="M821,520.1a4.84,4.84,0,1,0,4.37-5.27A4.83,4.83,0,0,0,821,520.1Z"/><path class="cls-1" d="M836.79,511.78a4.84,4.84,0,1,0-5.26-4.36A4.82,4.82,0,0,0,836.79,511.78Z"/><path class="cls-1" d="M814.14,513.9a4.84,4.84,0,1,0-5.27-4.37A4.85,4.85,0,0,0,814.14,513.9Z"/><path class="cls-1" d="M784.38,532.89c6.29,4.48,13.25,5.5,15.55,2.27s-.92-9.48-7.21-14c-4.34-3.1-10.12-3-13.26-2.64a2.19,2.19,0,0,0-1.89,2.65C778.25,524.3,780,529.79,784.38,532.89Z"/><path class="cls-3" d="M794.42,506.41a1.19,1.19,0,0,1-1.13-.85,236.42,236.42,0,0,0-8.93-25.93,1.18,1.18,0,1,1,2.18-.9,243.9,243.9,0,0,1,9,26.18,1.19,1.19,0,0,1-.81,1.46A1.24,1.24,0,0,1,794.42,506.41Z"/><path class="cls-3" d="M805.11,559.81a1.17,1.17,0,0,1-1.17-1,351.79,351.79,0,0,0-8.41-44.92,1.18,1.18,0,0,1,.85-1.43,1.16,1.16,0,0,1,1.43.84,354,354,0,0,1,8.47,45.26,1.18,1.18,0,0,1-1,1.3Z"/><path class="cls-1" d="M782.1,475.45a4.78,4.78,0,1,0-6.56-1.62A4.78,4.78,0,0,0,782.1,475.45Z"/><path class="cls-1" d="M768.08,483.74A16.66,16.66,0,1,0,783.3,458.5l1.21,9.83a5.88,5.88,0,0,1-2.8,5.75h0a5.87,5.87,0,0,1-6.4-.2l-8.14-5.64A16.68,16.68,0,0,0,768.08,483.74Z"/><path class="cls-1" d="M785.46,461.31a3.52,3.52,0,1,0-4.83-1.2A3.52,3.52,0,0,0,785.46,461.31Z"/><path class="cls-1" d="M768.6,471.5a3.52,3.52,0,1,0-4.83-1.2A3.53,3.53,0,0,0,768.6,471.5Z"/><path class="cls-3" d="M992,560H496.25a1.18,1.18,0,1,1,0-2.35H992a1.18,1.18,0,1,1,0,2.35Z"/><polygon class="cls-2" points="798.91 142.44 793.27 143.01 793.21 133.51 792.03 131.66 798.91 142.44"/><polygon class="cls-1" points="792.03 131.66 785.88 122.04 756.02 150.22 806.12 153.72 798.91 142.44 792.03 131.66"/><polygon class="cls-3" points="802.37 127.09 764.21 147.89 798.88 142.45 802.37 127.09"/><path class="cls-3" d="M820,128.89a1.3,1.3,0,0,1-.27-2.57l4.33-.92a1.3,1.3,0,1,1,.54,2.54l-4.33.92Zm13-2.75a1.3,1.3,0,0,1-.27-2.57l4.32-.91a1.3,1.3,0,0,1,.54,2.54l-4.32.91Zm13-2.75a1.29,1.29,0,0,1-.26-2.56l4.32-.92a1.3,1.3,0,0,1,.54,2.54l-4.33.92A1.23,1.23,0,0,1,845.92,123.39Zm13-2.74a1.3,1.3,0,0,1-.27-2.57l4.33-.92a1.3,1.3,0,1,1,.53,2.55l-4.32.91A1.24,1.24,0,0,1,858.9,120.65Zm13-2.75a1.3,1.3,0,0,1-.26-2.57l4.32-.91a1.3,1.3,0,0,1,.54,2.54l-4.33.91A1.24,1.24,0,0,1,871.87,117.9Zm13-2.74a1.3,1.3,0,0,1-.27-2.57l4.33-.92a1.3,1.3,0,1,1,.53,2.54l-4.32.92A1.24,1.24,0,0,1,884.85,115.16Zm13-2.75a1.3,1.3,0,0,1-.26-2.57l4.32-.91a1.3,1.3,0,1,1,.54,2.54l-4.33.91A1.24,1.24,0,0,1,897.82,112.41Zm13-2.75a1.3,1.3,0,0,1-.27-2.57l4.33-.91a1.3,1.3,0,1,1,.53,2.54l-4.32.92A1.23,1.23,0,0,1,910.8,109.66Z"/><polygon class="cls-1" points="372.02 297.7 374.92 303.16 380.2 306.15 374.92 309.14 372.02 314.6 369.13 309.14 363.85 306.15 369.13 303.16 372.02 297.7"/><polygon class="cls-1" points="733.7 207.93 736.6 213.39 741.88 216.38 736.6 219.36 733.7 224.82 730.81 219.36 725.52 216.38 730.81 213.39 733.7 207.93"/><polygon class="cls-2" points="591.76 379.39 594.65 384.85 599.94 387.84 594.65 390.83 591.76 396.29 588.87 390.83 583.58 387.84 588.87 384.85 591.76 379.39"/><polygon class="cls-2" points="581.25 395.07 583.29 398.93 587.03 401.04 583.29 403.14 581.25 407 579.21 403.14 575.47 401.04 579.21 398.93 581.25 395.07"/><polygon class="cls-1" points="980.91 89.55 983.8 95.01 989.09 98 983.8 100.98 980.91 106.44 978.02 100.98 972.73 98 978.02 95.01 980.91 89.55"/><polygon class="cls-1" points="177.17 98 180.06 103.46 185.35 106.44 180.06 109.43 177.17 114.89 174.28 109.43 168.99 106.44 174.28 103.46 177.17 98"/><polygon class="cls-2" points="286.98 371 289.02 374.85 292.75 376.96 289.02 379.07 286.98 382.93 284.93 379.07 281.2 376.96 284.93 374.85 286.98 371"/><polygon class="cls-2" points="750.34 403.29 752.38 407.15 756.12 409.26 752.38 411.37 750.34 415.23 748.3 411.37 744.57 409.26 748.3 407.15 750.34 403.29"/><path class="cls-1" d="M637.94,209.23h-4.42a1.3,1.3,0,1,1,0-2.6h4.42a1.3,1.3,0,0,1,0,2.6Zm-13.26,0h-4.42a1.3,1.3,0,1,1,0-2.6h4.42a1.3,1.3,0,1,1,0,2.6Zm-13.27,0H607a1.3,1.3,0,1,1,0-2.6h4.42a1.3,1.3,0,1,1,0,2.6Zm-13.26,0h-4.42a1.3,1.3,0,1,1,0-2.6h4.42a1.3,1.3,0,1,1,0,2.6Zm-13.26,0h-4.42a1.3,1.3,0,1,1,0-2.6h4.42a1.3,1.3,0,1,1,0,2.6Z"/><path class="cls-1" d="M670.34,306.37h-4.42a1.3,1.3,0,1,1,0-2.6h4.42a1.3,1.3,0,0,1,0,2.6Zm-13.26,0h-4.42a1.3,1.3,0,1,1,0-2.6h4.42a1.3,1.3,0,0,1,0,2.6Zm-13.26,0h-4.43a1.3,1.3,0,0,1,0-2.6h4.43a1.3,1.3,0,0,1,0,2.6Zm-13.27,0h-4.42a1.3,1.3,0,1,1,0-2.6h4.42a1.3,1.3,0,1,1,0,2.6Zm-13.26,0h-4.42a1.3,1.3,0,1,1,0-2.6h4.42a1.3,1.3,0,1,1,0,2.6Z"/><path class="cls-1" d="M575.75,215.17a1.2,1.2,0,0,1-.65-.19l-9.23-6.06a1.18,1.18,0,0,1,0-2l9.23-6.07a1.18,1.18,0,0,1,1.63.34,1.17,1.17,0,0,1-.34,1.63l-7.73,5.08,7.73,5.08a1.18,1.18,0,0,1-.64,2.16Z"/><path class="cls-1" d="M645.61,215.17a1.2,1.2,0,0,1-1-.53A1.19,1.19,0,0,1,645,213l7.74-5.08L645,202.85a1.18,1.18,0,0,1,1.29-2l9.24,6.06a1.18,1.18,0,0,1,0,2L646.25,215A1.16,1.16,0,0,1,645.61,215.17Z"/><path class="cls-1" d="M677.5,312.31a1.19,1.19,0,0,1-1-.53,1.17,1.17,0,0,1,.34-1.63l7.73-5.08L676.86,300a1.17,1.17,0,0,1-.34-1.63,1.19,1.19,0,0,1,1.63-.34l9.24,6.06a1.18,1.18,0,0,1,0,2l-9.24,6.07A1.17,1.17,0,0,1,677.5,312.31Z"/><path class="cls-1" d="M605.19,312.31a1.2,1.2,0,0,1-.65-.19l-9.23-6.06a1.18,1.18,0,0,1,0-2l9.23-6.07a1.18,1.18,0,0,1,1.3,2l-7.74,5.08,7.74,5.08a1.18,1.18,0,0,1-.65,2.16Z"/></g></g></svg>