<svg xmlns="http://www.w3.org/2000/svg" viewBox="0 0 770.59 481.24"><defs><style>.cls-1{fill:#dce5f7;}.cls-2{fill:#161616;}.cls-3{fill:#383838;}.cls-4{fill:#e2a8a8;}.cls-5{fill:#cf8282;}.cls-6{fill:#fff;}</style></defs><title>Asset 10</title><g id="Layer_2" data-name="Layer 2"><g id="Layer_2-2" data-name="Layer 2"><path class="cls-1" d="M535.7,53.3H374.24a22.32,22.32,0,0,1,.18-3.86h0a34.63,34.63,0,0,1,4.19-12.34c3.41-6,8.53-10.46,14.27-9.09a12.8,12.8,0,0,1,5.43,3c2.76,2.46,5,5.46,7.73,7.94s6.25,4.48,9.93,4.21c4.62-.34,7.94-4.47,8.63-8.82,1.66-10.46,1.55-31.13,14.64-34L440,.22c11.18-1.91,18.89,9,21.87,18.79a33.55,33.55,0,0,1,.83,3.28,41.94,41.94,0,0,1,.94,8.17l.06.53c.09.76.19,1.51.32,2.25a17.93,17.93,0,0,0,1.55,5.1,2.28,2.28,0,0,0,1.35,1.35c1.78.44,3.28-1.63,4.3-3.28.29-.46.54-.89.75-1.23,3.25-5.14,12.2-8.58,16.24-2.4,2.82,4.31.47,12.72,6.35,14.87,6.74,2.46,8.44-6.4,9-10.95.73-5.58.61-11.3,2.25-16.74.7-1.63,1.86-3.49,3.72-3.72a4.83,4.83,0,0,1,4.19,3c2.06,5,2.63,10.41,3.38,15.72.62,4.32,1.46,13.83,7.19,14.37,3.05.28,5.8-5.16,8.62-2.75C534.71,48.14,534.62,51.33,535.7,53.3Z"/><path class="cls-2" d="M635.59,202.39c-3.42,0-6.74-1.52-7.92-4.81a8.15,8.15,0,0,1-.44-2,10.15,10.15,0,0,1-3.92-2.88,9.21,9.21,0,0,1-2.26-4.92.84.84,0,0,1,.76-.91.85.85,0,0,1,.92.76,7.55,7.55,0,0,0,1.86,4,9.3,9.3,0,0,0,2.62,2.13c0-.42.1-.84.18-1.27a4.68,4.68,0,0,1,1.82-3.18,3.2,3.2,0,0,1,4.91,3.3,4,4,0,0,1-1.25,2.08,5,5,0,0,1-3.72,1.36H629a7,7,0,0,0,.26.95c1.38,3.82,6.28,4.2,9.31,3.24l.31-.1a8,8,0,0,0,2.28-1.25.84.84,0,0,1,1.18.13.85.85,0,0,1-.13,1.19,9.8,9.8,0,0,1-2.76,1.52l-.37.12A11.75,11.75,0,0,1,635.59,202.39Zm-6.72-8,.38,0a3.26,3.26,0,0,0,2.48-.92,2.23,2.23,0,0,0,.73-1.17,1.52,1.52,0,0,0-2.32-1.57,3.15,3.15,0,0,0-1.09,2.11A10,10,0,0,0,628.87,194.35Z"/><path class="cls-3" d="M455.11,171.08h0a15,15,0,0,1,15,15v8.26a0,0,0,0,1,0,0h-30a0,0,0,0,1,0,0v-8.26A15,15,0,0,1,455.11,171.08Z"/><path class="cls-1" d="M770.59,117.5c-.78-3.87-1.59-7.82-3.48-11.28-2.17-4-6.33-7.69-11.12-7-3.45.46-6.08-1.42-7.41-4.53-1.78-4.2-2.57-8.91-4-13.25-1.34-4-4.19-9.44-9.38-8.21-9.87,2.33-10.56,14.94-11.42,23-.32,3-1.36,7.35-5.31,6.84-2.58-.34-4.47-2.49-6.52-3.89-5.47-3.72-12.55-3-18.06.24-3.93,2.28-6.32,6.4-7.61,10.64a28.18,28.18,0,0,0-.94,4.24c0,.21-.2,3.21-.2,3.21Z"/><path class="cls-4" d="M220.31,437.42c7.57,4.24,11.93,10.83,9.75,14.71s-10.07,3.6-17.64-.64c-5.23-2.93-7.89-8.85-9-12.21a2.45,2.45,0,0,1,1.79-3.19C208.65,435.31,215.08,434.49,220.31,437.42Z"/><path class="cls-4" d="M250.88,439.78c-4.27,4.33-9.54,6.06-11.76,3.86s-.57-7.48,3.7-11.81c3-3,7.45-3.69,9.94-3.84a1.72,1.72,0,0,1,1.82,1.8C254.47,432.28,253.83,436.79,250.88,439.78Z"/><path class="cls-2" d="M233.12,480.4a.85.85,0,0,1-.84-.85,192.64,192.64,0,0,0-7.85-52.93.84.84,0,0,1,1.62-.47,194.56,194.56,0,0,1,7.91,53.4A.84.84,0,0,1,233.12,480.4Z"/><path class="cls-2" d="M223.28,420.74a.86.86,0,0,1-.81-.59,198.63,198.63,0,0,0-13.65-33.09.85.85,0,0,1,.33-1.15.84.84,0,0,1,1.15.33,202.27,202.27,0,0,1,13.78,33.4.85.85,0,0,1-.55,1.06A1.09,1.09,0,0,1,223.28,420.74Z"/><circle class="cls-3" cx="212.97" cy="396.33" r="14.67" transform="translate(-199.69 575.64) rotate(-85.23)"/><path class="cls-4" d="M236.24,480.4a.85.85,0,0,1-.84-.83c0-.46-.77-45.87,10.71-78.53a.84.84,0,0,1,1.07-.52.86.86,0,0,1,.52,1.08c-11.38,32.37-10.62,77.48-10.61,77.94a.85.85,0,0,1-.83.86Z"/><polygon class="cls-5" points="259.44 404.43 249.07 394.06 234.9 397.85 231.1 412.02 241.47 422.39 255.64 418.6 259.44 404.43"/><path class="cls-6" d="M213,398.31c-7.89,0-15.88-1.87-15.88-5.44a.84.84,0,1,1,1.68,0c0,1.53,5.53,3.75,14.2,3.75s14.2-2.22,14.2-3.75a.84.84,0,1,1,1.68,0C228.85,396.44,220.86,398.31,213,398.31Z"/><path class="cls-6" d="M213,398.31c-7.89,0-15.88-1.87-15.88-5.44a.84.84,0,1,1,1.68,0c0,1.53,5.53,3.75,14.2,3.75s14.2-2.22,14.2-3.75a.84.84,0,1,1,1.68,0C228.85,396.44,220.86,398.31,213,398.31Z"/><path class="cls-6" d="M225.11,402.22a14.2,14.2,0,0,1-3-.4A43.66,43.66,0,0,1,203.22,391c-2.33-2.51-3.13-4.58-2.3-6a.83.83,0,0,1,1.15-.3.84.84,0,0,1,.31,1.15c-.3.51.07,1.87,2.08,4a41.94,41.94,0,0,0,18,10.38c2.87.66,4.23.29,4.52-.22a.84.84,0,1,1,1.46.85C227.89,401.74,226.76,402.22,225.11,402.22Z"/><path class="cls-6" d="M225.11,402.22a14.2,14.2,0,0,1-3-.4A43.66,43.66,0,0,1,203.22,391c-2.33-2.51-3.13-4.58-2.3-6a.83.83,0,0,1,1.15-.3.84.84,0,0,1,.31,1.15c-.3.51.07,1.87,2.08,4a41.94,41.94,0,0,0,18,10.38c2.87.66,4.23.29,4.52-.22a.84.84,0,1,1,1.46.85C227.89,401.74,226.76,402.22,225.11,402.22Z"/><path class="cls-6" d="M231.1,412.87a.85.85,0,0,1-.22-1.66l28.34-7.6a.85.85,0,0,1,1,.6.83.83,0,0,1-.59,1l-28.34,7.6A.83.83,0,0,1,231.1,412.87Z"/><path class="cls-6" d="M245.27,409.07a.81.81,0,0,1-.59-.25L234.3,398.45a.84.84,0,0,1,1.19-1.19l10.38,10.37a.85.85,0,0,1-.6,1.44Z"/><path class="cls-4" d="M400.83,379H372a3.71,3.71,0,1,1,0-7.42h28.82a3.71,3.71,0,1,1,0,7.42Z"/><path class="cls-4" d="M475.47,481.24H466l-1.18-1.69-4.16-5.94a4.58,4.58,0,0,1-.07-5.11,4.52,4.52,0,0,1,1.2-1.23,4.37,4.37,0,0,1,1.56-.7,4.56,4.56,0,0,1,4.78,1.82l6.56,9.4a4.54,4.54,0,0,1,.75,1.76A4.8,4.8,0,0,1,475.47,481.24Z"/><path class="cls-4" d="M308.41,472.69a1.64,1.64,0,0,1-1-.31A1.68,1.68,0,0,1,307,470l77.58-111a1.65,1.65,0,0,1,.18-.61,1.69,1.69,0,0,1,1.5-.91h.26a1.69,1.69,0,0,1,1.5.91,1.65,1.65,0,0,1,.18.61l77.58,111A1.69,1.69,0,1,1,463,472l-76.62-109.6L309.8,472A1.7,1.7,0,0,1,308.41,472.69Z"/><path class="cls-4" d="M312.14,473.61,308,479.55l-1.18,1.69h-9.43a4.44,4.44,0,0,1,.74-3.45l6.56-9.4a4.55,4.55,0,0,1,6.34-1.12,4.54,4.54,0,0,1,1.12,6.34Z"/><path class="cls-4" d="M392.07,480.37a4.94,4.94,0,0,1-.08.87H383a4.47,4.47,0,0,1-.08-.82v-.87l0-8.53a4.54,4.54,0,0,1,4.52-4.57h0A4.54,4.54,0,0,1,392,471l.05,8.58Z"/><path class="cls-4" d="M387.46,472.68a1.68,1.68,0,0,1-1.69-1.67l-.56-97a1.67,1.67,0,0,1,1.67-1.69h0a1.68,1.68,0,0,1,1.69,1.67l.56,97a1.67,1.67,0,0,1-1.67,1.69Z"/><path class="cls-3" d="M388.45,373.41h-4.06A24.36,24.36,0,0,1,360,349.05h52.78A24.36,24.36,0,0,1,388.45,373.41Z"/><rect class="cls-4" x="41.85" y="120.48" width="204.32" height="134.88" transform="translate(-56.11 61.41) rotate(-20.24)"/><rect class="cls-6" x="51.8" y="130.61" width="184.43" height="114.62" transform="translate(-56.11 61.41) rotate(-20.24)"/><circle class="cls-3" cx="104.82" cy="209.62" r="33.39" transform="translate(-103.24 101.73) rotate(-36.02)"/><polygon class="cls-4" points="147.57 247.68 77.31 273.58 70.23 254.38 84.95 209.49 147.57 247.68"/><polygon class="cls-4" points="127.25 170.52 105.99 263.18 203.56 227.21 127.25 170.52"/><circle class="cls-5" cx="201.6" cy="177.77" r="25.4" transform="translate(-10.31 343.1) rotate(-79.37)"/><path class="cls-2" d="M217.82,222.62a.85.85,0,0,1-.79-.55l-16.85-45.7a.85.85,0,0,1,1.59-.58l16.84,45.7a.84.84,0,0,1-.5,1.08A.71.71,0,0,1,217.82,222.62Z"/><polygon class="cls-4" points="697.65 395.94 557.07 308.92 613.92 215.15 754.5 302.18 697.65 395.94"/><polygon class="cls-6" points="743.39 304.98 695.07 384.66 568.18 306.11 616.5 226.43 743.39 304.98"/><ellipse class="cls-3" cx="622.45" cy="291.42" rx="26.95" ry="27.23"/><polygon class="cls-4" points="619.71 338.01 568.18 306.11 576.8 291.89 612.6 278.64 619.71 338.01"/><polygon class="cls-4" points="658.43 286.04 589.11 319.21 660.65 363.5 658.43 286.04"/><ellipse class="cls-5" cx="690.99" cy="337.28" rx="20.5" ry="20.71"/><path class="cls-2" d="M670.68,370.32a.69.69,0,0,1,0-.78l20.53-33.87a.68.68,0,0,1,1.16.72L671.8,370.25a.68.68,0,0,1-.94.23A.69.69,0,0,1,670.68,370.32Z"/><rect class="cls-3" x="359.47" y="130.37" width="33.71" height="57.4"/><rect class="cls-3" x="443.73" y="171.08" width="11.39" height="57.4"/><rect class="cls-3" x="275.03" y="186.55" width="263.4" height="172.68"/><path class="cls-3" d="M395.61,130.37h0a49.73,49.73,0,0,1,49.73,49.73v62.32a0,0,0,0,1,0,0H345.87a0,0,0,0,1,0,0V180.1A49.73,49.73,0,0,1,395.61,130.37Z"/><path class="cls-1" d="M78.65,64.41h103.8c-.7-8.69-6.38-23.52-7.44-25.23-.43-.69-.81-1.33-1.12-1.83-4.84-7.69-18.21-12.81-24.25-3.59-4.22,6.44-.71,19-9.49,22.21-10.07,3.68-12.6-9.56-13.5-16.35-1.1-8.34-.91-16.89-3.37-25-1-2.43-2.78-5.21-5.56-5.55a7.21,7.21,0,0,0-6.26,4.52c-3.08,7.48-3.92,15.55-5,23.49-.92,6.44-2.17,20.66-10.73,21.46-4.55.42-8.67-7.7-12.89-4.1C80.12,56.71,80.26,61.48,78.65,64.41Z"/><path class="cls-2" d="M717.12,481.24H438.48a.85.85,0,0,1,0-1.69H717.12a.85.85,0,0,1,0,1.69Z"/><path class="cls-2" d="M.84,305.55A.84.84,0,0,1,.6,303.9a28.76,28.76,0,0,0,7.62-3.43,11.74,11.74,0,0,1-3.49-2.61,4.19,4.19,0,0,1-1.37-3.66,3.88,3.88,0,0,1,2.23-2.56,5.54,5.54,0,0,1,4.85,0,4.51,4.51,0,0,1,2.48,3.3,5.75,5.75,0,0,1-1.43,4.88,9,9,0,0,0,3.07,0,7.46,7.46,0,0,0,5.73-4.62.85.85,0,0,1,1.11-.45.84.84,0,0,1,.44,1.11,9.08,9.08,0,0,1-7,5.62,10.74,10.74,0,0,1-4.78-.29,27.23,27.23,0,0,1-9,4.33A.67.67,0,0,1,.84,305.55Zm7.23-12.8a3.81,3.81,0,0,0-1.72.4c-.35.18-1.18.66-1.34,1.4a2.79,2.79,0,0,0,1,2.17,9.93,9.93,0,0,0,3.7,2.55,4.48,4.48,0,0,0,1.58-4,2.82,2.82,0,0,0-1.58-2.1A3.56,3.56,0,0,0,8.07,292.75Z"/><path class="cls-2" d="M539.27,480.4a.85.85,0,0,1-.84.84H252.81a.85.85,0,0,1,0-1.69H538.43A.85.85,0,0,1,539.27,480.4Z"/><path class="cls-2" d="M278.44,481.24H198.3a.85.85,0,0,1,0-1.69h80.14a.85.85,0,0,1,0,1.69Z"/><path class="cls-2" d="M180.32,481.24H169.08a.85.85,0,0,1,0-1.69h11.24a.85.85,0,1,1,0,1.69Z"/><path class="cls-2" d="M207.51,481.24H71a.85.85,0,1,1,0-1.69H207.51a.85.85,0,0,1,0,1.69Z"/><rect class="cls-5" x="228.33" y="186.55" width="263.4" height="172.68"/><path class="cls-5" d="M359.47,130.37h0A49.73,49.73,0,0,1,409.2,180.1v62.32a0,0,0,0,1,0,0H309.74a0,0,0,0,1,0,0V180.1A49.73,49.73,0,0,1,359.47,130.37Z"/><path class="cls-6" d="M411.73,272.21a47.85,47.85,0,1,1-18.32-37.66A47.79,47.79,0,0,1,411.73,272.21Z"/><path class="cls-3" d="M411.73,272.21a47.79,47.79,0,0,1-18.32,37.67c-.51,0-1,0-1.56,0a37.7,37.7,0,1,1,0-75.39q.78,0,1.56,0A47.75,47.75,0,0,1,411.73,272.21Z"/><path class="cls-2" d="M335.21,328.35a56.14,56.14,0,1,1,56.14-56.14A56.2,56.2,0,0,1,335.21,328.35Zm0-110.59a54.46,54.46,0,1,0,54.46,54.45A54.52,54.52,0,0,0,335.21,217.76Z"/><circle class="cls-3" cx="444.45" cy="231.02" r="11.74" transform="translate(-33.18 381.94) rotate(-45)"/><circle class="cls-3" cx="360.66" cy="164.67" r="12.43"/><circle class="cls-6" cx="346.23" cy="164.67" r="15.07"/><path class="cls-4" d="M435.16,430.82H337.68a1.69,1.69,0,0,1,0-3.37h97.48a1.69,1.69,0,0,1,0,3.37Z"/><path class="cls-5" d="M443.73,171.08h0a15,15,0,0,1,15,15v8.26a0,0,0,0,1,0,0h-30a0,0,0,0,1,0,0v-8.26A15,15,0,0,1,443.73,171.08Z"/><path class="cls-5" d="M518.67,211.15h0a15,15,0,0,1,15,15v8.26a0,0,0,0,1,0,0h-30a0,0,0,0,1,0,0v-8.26A15,15,0,0,1,518.67,211.15Z" transform="translate(741.45 -295.9) rotate(90)"/><path class="cls-5" d="M518.67,266.76h0a15,15,0,0,1,15,15V290a0,0,0,0,1,0,0h-30a0,0,0,0,1,0,0v-8.26A15,15,0,0,1,518.67,266.76Z" transform="translate(797.06 -240.28) rotate(90)"/><rect class="cls-5" x="507.04" y="325.25" width="22.08" height="13.48"/><path class="cls-2" d="M117.49,369c-12.47,0-22.64-5.81-23.79-14.24a.62.62,0,0,1,.12-.46.61.61,0,0,1,.41-.23L147,346.92a.6.6,0,0,1,.69.52c1.31,9.66-9.72,19.17-24.6,21.18A41,41,0,0,1,117.49,369ZM95,355.2c1.69,8.64,14,14.09,27.87,12.21s24.3-10.41,23.62-19.19Z"/><polygon class="cls-3" points="84.07 313.44 76.65 336.99 89.97 337.41 84.07 313.44 84.07 313.44"/><path class="cls-4" d="M85.11,350.5c-1.06,18.79,16.84,35.08,40,36.39,15.92.9,15.1-8.44,5.45-19.5C122,357.56,110.84,352,99.13,351.3Z"/><path class="cls-2" d="M114.07,395.79a18.69,18.69,0,0,1-9.07-2.63c-5.31-3-10.11-8.14-13.5-14.52s-5-13.23-4.49-19.3,3.1-10.8,7.32-13a.61.61,0,0,1,.83.25l25,47a.63.63,0,0,1-.26.83A12.37,12.37,0,0,1,114.07,395.79Zm-19.7-48.1c-3.52,2.14-5.69,6.29-6.14,11.75-.48,5.84,1.07,12.45,4.35,18.63s7.91,11.15,13,14c4.78,2.68,9.43,3.2,13.18,1.48Z"/><circle class="cls-4" cx="88.8" cy="346.33" r="15.7" transform="translate(-83.19 32.88) rotate(-14.37)"/><path class="cls-3" d="M143,401.64a.59.59,0,0,1-.41-.16l-9.78-8.82A13.61,13.61,0,0,1,136.66,370l13.57-5.69a.6.6,0,0,1,.67.13.64.64,0,0,1,.13.67l-3.59,8.5,10.5,9.75a.62.62,0,0,1,.18.59.6.6,0,0,1-.42.45l-13.87,4.11-.2,12.53a.63.63,0,0,1-.37.55A.7.7,0,0,1,143,401.64Zm6.3-35.62-12.18,5.11a12.39,12.39,0,0,0-3.49,20.62l8.78,7.92.19-11.63a.61.61,0,0,1,.44-.57l13.27-3.94-10-9.31a.63.63,0,0,1-.14-.69Z"/><path class="cls-4" d="M597.74,463.84c5.2,5.27,11.62,7.38,14.33,4.71s.69-9.12-4.51-14.4c-3.61-3.65-9.08-4.5-12.12-4.68a2.09,2.09,0,0,0-2.22,2.19C593.36,454.7,594.14,460.19,597.74,463.84Z"/><path class="cls-2" d="M618.75,480.4a.84.84,0,0,1-.84-.79c0-.55-3.64-55.9,10.34-95.71a.85.85,0,0,1,1.08-.51.84.84,0,0,1,.51,1.07c-13.87,39.48-10.29,94.48-10.25,95a.84.84,0,0,1-.78.89Z"/><path class="cls-2" d="M613.51,480.4h0a.86.86,0,0,1-.84-.86c.31-25.56-6.83-40.92-12.22-50.25a.84.84,0,0,1,.3-1.15.85.85,0,0,1,1.16.31c5.49,9.5,12.77,25.14,12.45,51.11A.85.85,0,0,1,613.51,480.4Z"/><path class="cls-4" d="M628.9,400.23c-1,4.36-3.67,7.48-5.91,6.95s-3.24-4.48-2.22-8.85c.71-3,3.27-5.19,4.77-6.24a1.26,1.26,0,0,1,1.84.43C628.27,394.13,629.6,397.21,628.9,400.23Z"/><path class="cls-3" d="M644.8,387.75a3,3,0,0,0-2.09-4.64h0a5.8,5.8,0,0,0-6.07,2.73l-7.44,13.82a4.53,4.53,0,0,1-5,2.27h0a4.54,4.54,0,0,1-3.5-4.26L620.12,382a5.8,5.8,0,0,0-4.23-5.14h0A4,4,0,0,0,612,381s.7,20.71.75,21.13l0,.19a8.45,8.45,0,0,0,6.46,7.11l6,1.41a8.45,8.45,0,0,0,8.94-3.52l0,0Z"/><path class="cls-5" d="M594.76,415.76h0l4.81-9.37a3.6,3.6,0,0,0-2.69-5.21h0a3.6,3.6,0,0,0-4,4.23Z"/><path class="cls-5" d="M590.63,418.84h0l-10.35,1.94a3.6,3.6,0,0,1-4.22-4.06h0a3.6,3.6,0,0,1,5.21-2.69Z"/><path class="cls-5" d="M593.58,422.8h0l-4.81,9.36a3.6,3.6,0,0,0,2.69,5.21h0a3.61,3.61,0,0,0,4.06-4.23Z"/><path class="cls-5" d="M597.71,419.71h0l10.35-1.93a3.6,3.6,0,0,1,4.23,4.06h0a3.6,3.6,0,0,1-5.21,2.68Z"/><path class="cls-5" d="M592.1,416.37h0l-3.22-10a3.6,3.6,0,0,0-5.58-1.78h0a3.6,3.6,0,0,0,.11,5.85Z"/><path class="cls-5" d="M591.36,421.47h0l-6,8.69a3.6,3.6,0,0,1-5.86.12h0a3.6,3.6,0,0,1,1.79-5.58Z"/><path class="cls-5" d="M596.24,422.18h0l3.23,10a3.6,3.6,0,0,0,5.58,1.78h0a3.6,3.6,0,0,0-.12-5.86Z"/><path class="cls-5" d="M597,417.08h0l5.95-8.68a3.6,3.6,0,0,1,5.86-.12h0a3.6,3.6,0,0,1-1.78,5.58Z"/><polygon class="cls-5" points="279.08 131.55 281.33 135.8 285.45 138.12 281.33 140.45 279.08 144.7 276.82 140.45 272.71 138.12 276.82 135.8 279.08 131.55"/><polygon class="cls-5" points="160.86 327.24 163.11 331.49 167.23 333.81 163.11 336.14 160.86 340.39 158.61 336.14 154.49 333.81 158.61 331.49 160.86 327.24"/><polygon class="cls-3" points="491.73 397.01 493.98 401.26 498.1 403.59 493.98 405.91 491.73 410.17 489.48 405.91 485.36 403.59 489.48 401.26 491.73 397.01"/><polygon class="cls-6" points="286.63 216.48 294.07 230.53 307.68 238.22 294.07 245.91 286.63 259.96 279.19 245.91 265.58 238.22 279.19 230.53 286.63 216.48"/><polygon class="cls-6" points="306.19 194.35 310.61 202.68 318.68 207.24 310.61 211.8 306.19 220.14 301.78 211.8 293.71 207.24 301.78 202.68 306.19 194.35"/></g></g></svg>