<svg xmlns="http://www.w3.org/2000/svg" viewBox="0 0 826.21 527.93"><defs><style>.cls-1{fill:#cf8282;}.cls-2{fill:#dce5f7;}.cls-3{fill:#fff;}.cls-4{fill:#232323;}</style></defs><title>Asset 13</title><g id="Layer_2" data-name="Layer 2"><g id="Layer_2-2" data-name="Layer 2"><path class="cls-1" d="M556.35,397.15H521.57a1,1,0,0,1-1-1V376.05q-1-.36-2-.78l-13.65,14.38a1.06,1.06,0,0,1-.73.31,1.08,1.08,0,0,1-.74-.29l-25-24.66a1,1,0,0,1,0-1.44l13.05-13.73a52.69,52.69,0,0,1-2.16-5H470.92a1,1,0,0,1-1-1V309a1,1,0,0,1,1-1H489.3c.35-1,.73-1.91,1.13-2.82l-13.25-12.73a1,1,0,0,1,0-1.45l24.09-25.08a1,1,0,0,1,.72-.32,1,1,0,0,1,.73.29L516,278.65c1.52-.73,3.08-1.4,4.66-2V258.29a1,1,0,0,1,1-1h34.78a1,1,0,0,1,1,1V276.7c1.2.45,2.38.94,3.54,1.46l13-13a1.06,1.06,0,0,1,.73-.3h0a1.06,1.06,0,0,1,.73.3l24.63,24.55a1,1,0,0,1,0,1.45l-13,13c.57,1.23,1.09,2.49,1.57,3.78h18.41a1,1,0,0,1,1,1V344.4a1,1,0,0,1-1,1H588.46c-.4,1-.83,2.06-1.29,3.06l13.4,13.33a1,1,0,0,1,0,1.44L576.3,388.62a1,1,0,0,1-.73.31,1,1,0,0,1-.74-.29l-14-14c-1.12.51-2.27,1-3.42,1.41v20A1,1,0,0,1,556.35,397.15Zm-33.75-2.06h32.72V375.37a1,1,0,0,1,.69-1c1.55-.55,3.09-1.18,4.58-1.88a1,1,0,0,1,1.16.2l13.79,13.72,22.87-23.88-13.2-13.13a1,1,0,0,1-.2-1.17c.65-1.38,1.25-2.8,1.78-4.22a1,1,0,0,1,1-.67h18.31V310H588a1,1,0,0,1-1-.68,50.9,50.9,0,0,0-2-4.92,1,1,0,0,1,.2-1.17l12.75-12.8-23.18-23.1L562,280.12a1,1,0,0,1-1.17.21,49.21,49.21,0,0,0-4.69-1.94,1,1,0,0,1-.68-1v-18.1H522.69v18.07a1,1,0,0,1-.69,1,50.28,50.28,0,0,0-5.76,2.45,1,1,0,0,1-1.17-.18L502,268.09l-22.67,23.6,13,12.52a1,1,0,0,1,.23,1.16c-.59,1.28-1.13,2.63-1.61,4a1,1,0,0,1-1,.68H472v32.72h18.1a1,1,0,0,1,1,.68,48.56,48.56,0,0,0,2.62,6.09,1,1,0,0,1-.17,1.18l-12.85,13.53,23.53,23.21,13.42-14.13a1,1,0,0,1,1.15-.23c1,.45,2.13.88,3.2,1.26a1,1,0,0,1,.68,1Zm16.41-37a30.84,30.84,0,1,1,30.84-30.84A30.88,30.88,0,0,1,539,358.05Zm0-59.63a28.79,28.79,0,1,0,28.78,28.79A28.82,28.82,0,0,0,539,298.42Z"/><path class="cls-2" d="M555.87,85.48H296.93a35.71,35.71,0,0,1,.29-6.19h0a56.05,56.05,0,0,1,6.71-19.79c5.48-9.64,13.68-16.77,22.9-14.57a20.37,20.37,0,0,1,8.7,4.84c4.43,3.93,8,8.76,12.4,12.74s10,7.17,15.93,6.74c7.4-.54,12.72-7.16,13.83-14.14,2.67-16.78,2.5-49.94,23.48-54.53.4-.09.79-.16,1.18-.23,17.93-3.07,30.3,14.45,35.07,30.15.54,1.78,1,3.54,1.33,5.24a67.34,67.34,0,0,1,1.51,13.11c0,.29.06.57.1.86.14,1.21.3,2.42.51,3.6a28.69,28.69,0,0,0,2.48,8.17,3.71,3.71,0,0,0,2.17,2.18c2.86.69,5.26-2.63,6.9-5.27.47-.74.87-1.43,1.2-2,5.21-8.26,19.56-13.76,26-3.86,4.53,6.92.76,20.4,10.19,23.84,10.8,4,13.53-10.26,14.49-17.55,1.18-9,1-18.13,3.62-26.85,1.12-2.61,3-5.59,6-6a7.71,7.71,0,0,1,6.71,4.85c3.31,8,4.22,16.7,5.43,25.22,1,6.92,2.33,22.18,11.52,23,4.89.45,9.31-8.27,13.83-4.4C554.3,77.21,554.14,82.33,555.87,85.48Z"/><rect class="cls-1" x="210.82" y="199.15" width="403.26" height="240.57" rx="11.71" transform="translate(70.19 713.15) rotate(-86.76)"/><path class="cls-3" d="M353.55,509.39h-.06l-49.38-2.79a12.76,12.76,0,0,1-12-13.44l15.74-277.7a1,1,0,0,1,2,.12L294.16,493.26a10.7,10.7,0,0,0,10.07,11.28l49.37,2.79a1,1,0,0,1-.05,2.06Z"/><path class="cls-3" d="M496.73,517.5h-.06l-109.89-6.23a1,1,0,0,1,.12-2l109.88,6.23a1,1,0,0,1,0,2Z"/><path class="cls-1" d="M535.88,462.81h-.06a1,1,0,0,1-1-1.09l2.64-46.48a1,1,0,0,1,1.08-1,1,1,0,0,1,1,1.08l-2.64,46.49A1,1,0,0,1,535.88,462.81Z"/><path class="cls-1" d="M383.32,107.17h-.06l-39.84-2.26a1,1,0,0,1,.11-2l39.85,2.26a1,1,0,0,1-.06,2Z"/><path class="cls-4" d="M515.26,512.56a1.63,1.63,0,0,1-1.64-1.64V137.39a1.64,1.64,0,1,1,3.28,0V510.92A1.63,1.63,0,0,1,515.26,512.56ZM267.71,493.3a1.64,1.64,0,0,1-1.65-1.64V366.33a1.65,1.65,0,0,1,3.29,0V491.66A1.64,1.64,0,0,1,267.71,493.3Zm0-148.45a1.64,1.64,0,0,1-1.65-1.64V138.35a18.44,18.44,0,0,1,18.42-18.42h172a1.65,1.65,0,0,1,0,3.29h-172a15.14,15.14,0,0,0-15.13,15.13V343.21A1.64,1.64,0,0,1,267.71,344.85Z"/><polygon class="cls-1" points="105.25 273.18 108 278.36 113.01 281.19 108 284.02 105.25 289.2 102.51 284.02 97.5 281.19 102.51 278.36 105.25 273.18"/><polygon class="cls-1" points="642.91 111.92 645.65 117.1 650.66 119.93 645.65 122.77 642.91 127.94 640.16 122.77 635.15 119.93 640.16 117.1 642.91 111.92"/><polygon class="cls-1" points="740 391.34 742.74 396.51 747.76 399.35 742.74 402.18 740 407.36 737.26 402.18 732.24 399.35 737.26 396.51 740 391.34"/><polygon class="cls-1" points="199.01 111.92 201.76 117.1 206.77 119.93 201.76 122.77 199.01 127.94 196.27 122.77 191.26 119.93 196.27 117.1 199.01 111.92"/><polygon class="cls-1" points="680.81 321.85 683.55 327.03 688.56 329.86 683.55 332.7 680.81 337.88 678.06 332.7 673.05 329.86 678.06 327.03 680.81 321.85"/><path class="cls-1" d="M187.26,221.41h0A10.61,10.61,0,0,1,176.65,232h0a10.61,10.61,0,0,1-10.6-10.61h0a10.61,10.61,0,0,1,10.6-10.6h0A10.61,10.61,0,0,1,187.26,221.41Z"/><path class="cls-1" d="M212,248.34h0a5.64,5.64,0,0,1-5.64,5.64h0a5.63,5.63,0,0,1-5.63-5.64h0a5.63,5.63,0,0,1,5.63-5.63h0A5.64,5.64,0,0,1,212,248.34Z"/><path class="cls-1" d="M196.78,241.74h-19.3a1,1,0,0,1-1-1v-19.3a1,1,0,0,1,1-1h19.3a1,1,0,0,1,1,1v19.3A1,1,0,0,1,196.78,241.74Zm-18.28-2.05h17.25V222.44H178.5Z"/><path class="cls-4" d="M74.43,412.58a1.23,1.23,0,0,1-.35-2.41,44,44,0,0,0,11.85-5.35,18,18,0,0,1-5.45-4.05c-1.77-1.92-2.47-3.8-2.1-5.58a5.91,5.91,0,0,1,3.4-3.9,8.43,8.43,0,0,1,7.4-.05,6.9,6.9,0,0,1,3.79,5,8.83,8.83,0,0,1-2.26,7.54,13.46,13.46,0,0,0,4.86.06,11.58,11.58,0,0,0,8.89-7.16,1.23,1.23,0,1,1,2.26,1A14,14,0,0,1,96,406.31a16.39,16.39,0,0,1-7.36-.46c-4.2,3.46-10.33,5.64-13.84,6.68A1,1,0,0,1,74.43,412.58Zm11.14-19.71a6,6,0,0,0-2.69.63,3.76,3.76,0,0,0-2.09,2.19c-.25,1.2.68,2.52,1.5,3.42a15.56,15.56,0,0,0,5.77,3.95c1.83-1.8,2.93-3.92,2.49-6.33a4.47,4.47,0,0,0-2.47-3.29A5.7,5.7,0,0,0,85.57,392.87Z"/><path class="cls-2" d="M699.79,173.76H826.21c-.85-10.59-7.78-28.65-9.07-30.73-.52-.84-1-1.63-1.36-2.23-5.9-9.37-22.18-15.61-29.53-4.38-5.14,7.85-.86,23.15-11.56,27.06-12.26,4.48-15.35-11.64-16.44-19.91-1.34-10.16-1.12-20.57-4.11-30.46-1.27-3-3.38-6.35-6.77-6.77-3.38,0-6.34,2.54-7.62,5.5C736,121,735,130.78,733.6,140.46c-1.12,7.84-2.64,25.16-13.08,26.13-5.54.51-10.55-9.38-15.68-5C701.58,164.37,701.75,170.19,699.79,173.76Z"/><path class="cls-4" d="M642.18,264.31c-5.17,0-10.19-2.29-12-7.25a12.75,12.75,0,0,1-.68-3.12,15.45,15.45,0,0,1-6.11-4.45,13.82,13.82,0,0,1-3.43-7.44,1,1,0,1,1,2-.19,11.89,11.89,0,0,0,3,6.29,14.33,14.33,0,0,0,4.52,3.55,15.65,15.65,0,0,1,.3-2.33c.45-2.3,1.33-3.86,2.68-4.75a4.68,4.68,0,0,1,7.17,4.82,5.69,5.69,0,0,1-1.84,3.06,7.31,7.31,0,0,1-5.56,2l-.59-.06a10.15,10.15,0,0,0,.48,1.88c2.19,6.09,9.94,6.69,14.74,5.18l.49-.16a12.48,12.48,0,0,0,3.6-2,1,1,0,0,1,1.28,1.6,14.37,14.37,0,0,1-4.19,2.3l-.56.19A17.62,17.62,0,0,1,642.18,264.31Zm-10.67-11.93c.29.05.57.09.85.11a5.33,5.33,0,0,0,4-1.5,3.78,3.78,0,0,0,1.22-2,2.62,2.62,0,0,0-4-2.7,5,5,0,0,0-1.81,3.43A15.11,15.11,0,0,0,631.51,252.38Z"/><path class="cls-4" d="M554.77,527.93H1a1,1,0,1,1,0-2.06H554.77a1,1,0,0,1,0,2.06Z"/><path class="cls-4" d="M801.85,527.93H590.8a1,1,0,0,1,0-2.06H801.85a1,1,0,0,1,0,2.06Z"/><circle class="cls-3" cx="412.45" cy="250.53" r="65.77"/><path class="cls-1" d="M412.47,262.35a13.91,13.91,0,0,1-13.91-13.91V225.06a13.92,13.92,0,1,1,27.83,0v23.38A13.92,13.92,0,0,1,412.47,262.35Z"/><path class="cls-1" d="M414.25,276.46H410.7a24.61,24.61,0,0,1-24.16-20,3,3,0,1,1,6-1.13,18.55,18.55,0,0,0,18.2,15h3.55A18.58,18.58,0,0,0,432.4,255.6a3,3,0,1,1,6,1.21A24.68,24.68,0,0,1,414.25,276.46Z"/><path class="cls-1" d="M412.47,292a3,3,0,0,1-3-3V273.42a3,3,0,0,1,6.07,0V289A3,3,0,0,1,412.47,292Z"/><path class="cls-2" d="M14.11,145.67H140.53c-.85-10.59-7.77-28.64-9.06-30.72-.52-.85-1-1.63-1.36-2.23-5.9-9.37-22.18-15.61-29.54-4.38-5.13,7.85-.86,23.14-11.55,27-12.26,4.49-15.35-11.64-16.44-19.91C71.23,105.32,71.46,94.91,68.46,85c-1.26-3-3.38-6.34-6.76-6.77-3.39,0-6.35,2.54-7.62,5.51-3.75,9.11-4.79,18.94-6.16,28.61-1.11,7.85-2.64,25.16-13.07,26.14-5.54.51-10.55-9.38-15.69-5C15.9,136.29,16.08,142.1,14.11,145.67Z"/><path class="cls-1" d="M164.08,486.65c6.57,3.68,10.36,9.4,8.47,12.77s-8.75,3.13-15.32-.55c-4.54-2.55-6.85-7.69-7.84-10.61a2.13,2.13,0,0,1,1.55-2.77C154,484.81,159.54,484.1,164.08,486.65Z"/><path class="cls-1" d="M196.73,488.7c-3.71,3.75-8.28,5.26-10.21,3.35s-.49-6.5,3.21-10.25c2.57-2.6,6.47-3.21,8.63-3.34A1.5,1.5,0,0,1,200,480C199.85,482.19,199.29,486.1,196.73,488.7Z"/><path class="cls-4" d="M175.21,524.26a1,1,0,0,1-1-1,167.22,167.22,0,0,0-6.8-45.88,1,1,0,0,1,2-.57,169.06,169.06,0,0,1,6.88,46.45A1,1,0,0,1,175.21,524.26Z"/><path class="cls-4" d="M166.66,472.45a1,1,0,0,1-1-.71,173.94,173.94,0,0,0-11.83-28.68,1,1,0,0,1,.4-1.4,1,1,0,0,1,1.39.4,174.69,174.69,0,0,1,12,29.05,1,1,0,0,1-.67,1.3A1.1,1.1,0,0,1,166.66,472.45Z"/><circle class="cls-1" cx="157.71" cy="450.97" r="12.74" transform="translate(-304.79 570.75) rotate(-85.24)"/><path class="cls-4" d="M184,524.26a1,1,0,0,1-1-1c0-.39-.67-39.88,9.31-68.29a1,1,0,1,1,1.93.68c-9.86,28.06-9.2,67.18-9.19,67.57a1,1,0,0,1-1,1Z"/><polygon class="cls-1" points="204.16 458 195.16 448.99 182.85 452.29 179.56 464.59 188.56 473.6 200.87 470.3 204.16 458"/><path class="cls-3" d="M157.71,453c-6.79,0-14.09-1.57-14.09-5a1,1,0,0,1,2,0c0,.89,4.1,3,12,3s12-2.07,12-3a1,1,0,0,1,2,0C171.79,451.41,164.49,453,157.71,453Z"/><path class="cls-3" d="M157.71,453c-6.79,0-14.09-1.57-14.09-5a1,1,0,0,1,2,0c0,.89,4.1,3,12,3s12-2.07,12-3a1,1,0,0,1,2,0C171.79,451.41,164.49,453,157.71,453Z"/><path class="cls-3" d="M168.24,456.37a11.94,11.94,0,0,1-2.69-.35A37.92,37.92,0,0,1,149,446.49c-2.69-2.87-2.59-4.61-2-5.57a1,1,0,1,1,1.77,1c-.17.3.16,1.41,1.77,3.14A36.07,36.07,0,0,0,166,454c2.3.53,3.43.25,3.6,0a1,1,0,0,1,1.4-.37,1,1,0,0,1,.38,1.4C171,455.69,170.13,456.37,168.24,456.37Z"/><path class="cls-3" d="M168.24,456.37a11.94,11.94,0,0,1-2.69-.35A37.92,37.92,0,0,1,149,446.49c-2.69-2.87-2.59-4.61-2-5.57a1,1,0,1,1,1.77,1c-.17.3.16,1.41,1.77,3.14A36.07,36.07,0,0,0,166,454c2.3.53,3.43.25,3.6,0a1,1,0,0,1,1.4-.37,1,1,0,0,1,.38,1.4C171,455.69,170.13,456.37,168.24,456.37Z"/><path class="cls-3" d="M179.56,465.62a1,1,0,0,1-.27-2L203.9,457a1,1,0,1,1,.53,2l-24.61,6.59A.82.82,0,0,1,179.56,465.62Z"/><path class="cls-3" d="M191.86,462.32a1,1,0,0,1-.73-.3l-9-9a1,1,0,1,1,1.45-1.45l9,9a1,1,0,0,1,0,1.45A1,1,0,0,1,191.86,462.32Z"/><path class="cls-1" d="M628.2,505.84c6.61,6.71,14.76,9.38,18.21,6s.87-11.59-5.74-18.29c-4.57-4.64-11.53-5.72-15.39-6a2.65,2.65,0,0,0-2.82,2.78C622.63,494.23,623.62,501.21,628.2,505.84Z"/><path class="cls-4" d="M654.89,527.31a1.51,1.51,0,0,1-1.5-1.4c0-.7-4.63-71.11,13.16-121.76a1.51,1.51,0,0,1,2.84,1c-17.59,50.05-13,119.86-13,120.56a1.51,1.51,0,0,1-1.4,1.6Z"/><path class="cls-4" d="M648.23,527.31h0a1.5,1.5,0,0,1-1.48-1.52c.39-32.37-8.64-51.81-15.48-63.62a1.5,1.5,0,0,1,2.6-1.51c7,12.12,16.29,32.06,15.88,65.17A1.5,1.5,0,0,1,648.23,527.31Z"/><path class="cls-1" d="M667.78,425c-1.29,5.54-4.65,9.5-7.5,8.84s-4.11-5.7-2.82-11.25c.9-3.84,4.15-6.6,6.06-7.93a1.61,1.61,0,0,1,2.34.54C667,417.28,668.68,421.19,667.78,425Z"/><path class="cls-1" d="M688,409.18a3.88,3.88,0,0,0-2.66-5.9h0a7.38,7.38,0,0,0-7.71,3.48l-9.45,17.55a5.75,5.75,0,0,1-6.39,2.88h0a5.76,5.76,0,0,1-4.45-5.41l-.7-19.92a7.36,7.36,0,0,0-5.37-6.53h0a5.15,5.15,0,0,0-5,5.31s.89,26.31,1,26.84l0,.25a10.75,10.75,0,0,0,8.21,9l7.68,1.79a10.73,10.73,0,0,0,11.36-4.47l0,0Z"/><path class="cls-1" d="M624.42,444.76h0l6.11-11.9a4.57,4.57,0,0,0-3.42-6.61h0a4.57,4.57,0,0,0-5.15,5.37Z"/><path class="cls-1" d="M619.17,448.68h0L606,451.14a4.58,4.58,0,0,1-5.37-5.16h0a4.58,4.58,0,0,1,6.62-3.41Z"/><path class="cls-1" d="M622.92,453.7h0l-6.11,11.9a4.58,4.58,0,0,0,3.41,6.62h0a4.58,4.58,0,0,0,5.16-5.37Z"/><path class="cls-1" d="M628.16,449.79h0l13.15-2.46a4.57,4.57,0,0,1,5.37,5.15h0a4.58,4.58,0,0,1-6.62,3.42Z"/><path class="cls-1" d="M621,445.54h0l-4.1-12.73a4.58,4.58,0,0,0-7.09-2.27h0A4.58,4.58,0,0,0,610,438Z"/><path class="cls-1" d="M620.09,452h0l-7.55,11a4.58,4.58,0,0,1-7.45.15h0a4.58,4.58,0,0,1,2.27-7.09Z"/><path class="cls-1" d="M626.3,452.92h0l4.09,12.74a4.57,4.57,0,0,0,7.09,2.26h0a4.57,4.57,0,0,0-.15-7.44Z"/><path class="cls-1" d="M627.24,446.45h0l7.56-11a4.57,4.57,0,0,1,7.44-.15h0a4.57,4.57,0,0,1-2.27,7.09Z"/><circle class="cls-2" cx="210.46" cy="325.25" r="41.94" transform="translate(-65.95 53.81) rotate(-12.61)"/><path class="cls-1" d="M201,374.82h-.38a1.32,1.32,0,1,1,0-2.63H201c1.35,0,2.71-.07,4.05-.2a1.31,1.31,0,0,1,.26,2.61A41.47,41.47,0,0,1,201,374.82Zm-9.41-1.07a1.43,1.43,0,0,1-.29,0,42.3,42.3,0,0,1-4.52-1.3,1.31,1.31,0,1,1,.86-2.48,41.83,41.83,0,0,0,4.24,1.22,1.31,1.31,0,0,1-.29,2.59Zm22.49-1a1.31,1.31,0,0,1-.41-2.56,41.16,41.16,0,0,0,4.11-1.61,1.31,1.31,0,0,1,1.09,2.39,41.78,41.78,0,0,1-4.38,1.71A1.18,1.18,0,0,1,214,372.72Zm-35.1-4.12a1.3,1.3,0,0,1-.68-.19,44.44,44.44,0,0,1-3.87-2.68,1.31,1.31,0,1,1,1.61-2.07,39.06,39.06,0,0,0,3.63,2.51,1.31,1.31,0,0,1-.69,2.43Zm47.17-2.19a1.33,1.33,0,0,1-1.06-.52,1.32,1.32,0,0,1,.27-1.84,41.62,41.62,0,0,0,3.38-2.84,1.31,1.31,0,1,1,1.79,1.92,41.68,41.68,0,0,1-3.6,3A1.26,1.26,0,0,1,226.1,366.41Zm-57.45-6.73a1.33,1.33,0,0,1-1-.48c-1-1.2-1.93-2.47-2.8-3.77-.69-1.05-1.35-2.14-2-3.25a1.31,1.31,0,0,1,2.31-1.25c.56,1,1.18,2.06,1.83,3.05a44,44,0,0,0,2.63,3.55,1.29,1.29,0,0,1-.17,1.84A1.27,1.27,0,0,1,168.65,359.68Zm66.87-3.1a1.25,1.25,0,0,1-.74-.23,1.32,1.32,0,0,1-.35-1.82,42.62,42.62,0,0,0,2.3-3.77A1.31,1.31,0,1,1,239,352a44.34,44.34,0,0,1-2.44,4A1.3,1.3,0,0,1,235.52,356.58Zm-74.93-12.13a1.31,1.31,0,0,1-1.26-.95,44.66,44.66,0,0,1-1.05-4.58,1.31,1.31,0,0,1,2.59-.45,38.86,38.86,0,0,0,1,4.3,1.32,1.32,0,0,1-.9,1.63A1.57,1.57,0,0,1,160.59,344.45Zm80.69-.2a1.49,1.49,0,0,1-.36-.05,1.32,1.32,0,0,1-.91-1.62,39.49,39.49,0,0,0,1-4.31,1.31,1.31,0,0,1,2.59.43,44.77,44.77,0,0,1-1,4.59A1.31,1.31,0,0,1,241.28,344.25ZM159,330.93H159a1.3,1.3,0,0,1-1.25-1.37,42.94,42.94,0,0,1,.47-4.67,1.32,1.32,0,1,1,2.6.4,40.74,40.74,0,0,0-.45,4.4A1.31,1.31,0,0,1,159,330.93Zm83.78-.21a1.31,1.31,0,0,1-1.31-1.25,40.33,40.33,0,0,0-.47-4.39,1.32,1.32,0,0,1,2.6-.42,45.81,45.81,0,0,1,.49,4.68,1.3,1.3,0,0,1-1.25,1.37Zm-81-13.11a1.27,1.27,0,0,1-.47-.09,1.31,1.31,0,0,1-.75-1.7,43.42,43.42,0,0,1,1.94-4.28,1.32,1.32,0,0,1,1.77-.56,1.3,1.3,0,0,1,.56,1.77,40.25,40.25,0,0,0-1.82,4A1.33,1.33,0,0,1,161.85,317.61Zm78.05-.2a1.31,1.31,0,0,1-1.22-.83,41.23,41.23,0,0,0-1.85-4,1.31,1.31,0,1,1,2.32-1.23,43.12,43.12,0,0,1,2,4.26,1.32,1.32,0,0,1-.73,1.71A1.41,1.41,0,0,1,239.9,317.41ZM168.8,305.9a1.32,1.32,0,0,1-1-2.16,43.53,43.53,0,0,1,3.22-3.43,1.31,1.31,0,1,1,1.81,1.9,39.94,39.94,0,0,0-3,3.22A1.3,1.3,0,0,1,168.8,305.9Zm64.09-.16a1.33,1.33,0,0,1-1-.46,41.8,41.8,0,0,0-3-3.21,1.31,1.31,0,0,1,1.8-1.91,45.35,45.35,0,0,1,3.23,3.42,1.31,1.31,0,0,1-1,2.16ZM179.14,297a1.32,1.32,0,0,1-.68-2.44,44.37,44.37,0,0,1,4.13-2.22,1.32,1.32,0,1,1,1.12,2.38,40.52,40.52,0,0,0-3.89,2.09A1.3,1.3,0,0,1,179.14,297Zm43.37-.12a1.35,1.35,0,0,1-.67-.18,40.51,40.51,0,0,0-3.91-2.07,1.31,1.31,0,0,1,1.1-2.38,43.37,43.37,0,0,1,4.16,2.19,1.32,1.32,0,0,1,.45,1.8A1.3,1.3,0,0,1,222.51,296.92Zm-30.75-5a1.31,1.31,0,0,1-.28-2.59,42.57,42.57,0,0,1,4.63-.77,1.31,1.31,0,0,1,.29,2.61,39.85,39.85,0,0,0-4.35.72A1.43,1.43,0,0,1,191.76,291.94Zm18.1,0a1.43,1.43,0,0,1-.29,0,40.22,40.22,0,0,0-4.35-.71,1.31,1.31,0,1,1,.28-2.61,45.09,45.09,0,0,1,4.63.75,1.31,1.31,0,0,1-.27,2.6Z"/><polygon class="cls-1" points="189.47 316.15 205.79 324.29 222.12 332.44 206.9 342.5 191.69 352.56 190.58 334.36 189.47 316.15"/><path class="cls-3" d="M409.44,461.24a49.34,49.34,0,1,1,49.34-49.33A49.39,49.39,0,0,1,409.44,461.24Zm0-96.62a47.29,47.29,0,1,0,47.28,47.29A47.34,47.34,0,0,0,409.44,364.62Z"/><path class="cls-3" d="M434.8,390.41a1,1,0,0,1-.34-.06,76.14,76.14,0,0,0-50,0,1,1,0,0,1-1.3-.64,1,1,0,0,1,.64-1.3,78,78,0,0,1,51.38,0,1,1,0,0,1-.33,2Z"/><path class="cls-3" d="M431.17,402a1,1,0,0,1-.3-.05A71.7,71.7,0,0,0,388,402a1,1,0,0,1-1.28-.68,1,1,0,0,1,.68-1.28,73.59,73.59,0,0,1,44.06,0,1,1,0,0,1,.68,1.28A1,1,0,0,1,431.17,402Z"/><path class="cls-3" d="M425.52,413.55a1,1,0,0,1-.29,0,55.47,55.47,0,0,0-31.58,0,1,1,0,1,1-.58-2,57.51,57.51,0,0,1,32.73,0,1,1,0,0,1-.28,2Z"/><circle class="cls-3" cx="409.44" cy="431.4" r="6.84" transform="translate(-81.98 766.45) rotate(-80.78)"/></g></g></svg>