<svg xmlns="http://www.w3.org/2000/svg" viewBox="0 0 913.81 542.62"><defs><style>.cls-1{fill:#cf8282;}.cls-2{fill:#d1a7a7;}.cls-3{fill:#dce5f7;}.cls-4{fill:#1e1e1e;}.cls-5{fill:#fff;}.cls-6{fill:#212121;}.cls-7{fill:#e2a6a6;}</style></defs><title>Asset 3</title><g id="Layer_2" data-name="Layer 2"><g id="Layer_2-2" data-name="Layer 2"><path class="cls-1" d="M636.78,406.48c8,8.12,17.88,11.36,22.05,7.25s1.07-14-6.94-22.16c-5.55-5.61-14-6.93-18.65-7.2a3.23,3.23,0,0,0-3.42,3.37C630,392.41,631.24,400.86,636.78,406.48Z"/><path class="cls-1" d="M669.11,431.71a1.06,1.06,0,0,1-1-1c0-.21-1.45-21.65-.21-50.35,1.15-26.51,4.87-64.83,16.11-96.82a1,1,0,0,1,2,.69c-11.16,31.75-14.86,69.85-16,96.22-1.23,28.59.2,49.91.21,50.12a1,1,0,0,1-1,1.11Z"/><path class="cls-1" d="M661,431.71h0a1.05,1.05,0,0,1-1-1.06c.48-39.4-10.53-63.08-18.85-77.46a1,1,0,1,1,1.8-1.05c8.45,14.6,19.62,38.62,19.14,78.54A1.05,1.05,0,0,1,661,431.71Z"/><path class="cls-1" d="M684.73,308.59c-1.57,6.72-5.64,11.51-9.09,10.7s-5-6.9-3.41-13.62c1.08-4.65,5-8,7.34-9.61a2,2,0,0,1,2.83.66C683.76,299.2,685.81,303.94,684.73,308.59Z"/><path class="cls-1" d="M709.2,289.39a4.69,4.69,0,0,0-3.22-7.14h0a8.92,8.92,0,0,0-9.34,4.21l-11.45,21.26a7,7,0,0,1-7.73,3.49h0a7,7,0,0,1-5.4-6.55l-.85-24.14a8.92,8.92,0,0,0-6.5-7.91h0a6.23,6.23,0,0,0-6,6.44s1.07,31.87,1.15,32.51l0,.3a13,13,0,0,0,9.94,10.94l9.31,2.17a13,13,0,0,0,13.76-5.41l0,0Z"/><path class="cls-2" d="M632.2,332.49h0l7.4-14.41a5.55,5.55,0,0,0-4.14-8h0a5.54,5.54,0,0,0-6.24,6.51Z"/><path class="cls-2" d="M625.84,337.23h0l-15.92,3a5.54,5.54,0,0,1-6.51-6.24h0a5.55,5.55,0,0,1,8-4.13Z"/><path class="cls-2" d="M630.38,343.32h0L623,357.73a5.55,5.55,0,0,0,4.13,8h0a5.54,5.54,0,0,0,6.25-6.5Z"/><path class="cls-2" d="M636.74,338.58h0l15.92-3a5.54,5.54,0,0,1,6.51,6.25h0a5.55,5.55,0,0,1-8,4.13Z"/><path class="cls-2" d="M628.1,333.44h0l-5-15.43a5.54,5.54,0,0,0-8.59-2.74h0a5.54,5.54,0,0,0,.19,9Z"/><path class="cls-2" d="M627,341.28h0l-9.15,13.37a5.54,5.54,0,0,1-9,.18h0a5.55,5.55,0,0,1,2.75-8.59Z"/><path class="cls-2" d="M634.47,342.38h0l5,15.42a5.54,5.54,0,0,0,8.59,2.75h0a5.55,5.55,0,0,0-.19-9Z"/><path class="cls-2" d="M635.62,334.53h0l9.15-13.37a5.54,5.54,0,0,1,9-.18h0a5.54,5.54,0,0,1-2.75,8.59Z"/><path class="cls-3" d="M706.65,498a37.24,37.24,0,0,0-15.27-30.1A25.77,25.77,0,0,0,679,430.65V420.14H659.73v10.51a25.77,25.77,0,0,0-12.42,37.26,37.3,37.3,0,0,0,3.06,62.22v11.4h38v-11.4A37.28,37.28,0,0,0,706.65,498Z"/><path class="cls-4" d="M690.21,480.32a1,1,0,0,1-.87-.5,36.24,36.24,0,0,0-10-11.09,1,1,0,0,1-.27-1.34,24.75,24.75,0,0,0-11.93-35.8,1,1,0,0,1,.75-1.87,26.79,26.79,0,0,1,13.37,37.93,38.16,38.16,0,0,1,9.79,11.15,1,1,0,0,1-.36,1.38A1.06,1.06,0,0,1,690.21,480.32Z"/><path class="cls-4" d="M676.9,542.38a1,1,0,0,1-1-1V530.13a1,1,0,0,1,.5-.87A36.47,36.47,0,0,0,694.22,498a36.94,36.94,0,0,0-1-8.4,1,1,0,0,1,.74-1.21,1,1,0,0,1,1.22.75,38.37,38.37,0,0,1-17.3,41.55v10.67A1,1,0,0,1,676.9,542.38Z"/><path class="cls-4" d="M639,542.38a1,1,0,0,1-1-1V530.7a38.32,38.32,0,0,1-14-50.33,1,1,0,0,1,1.36-.43,1,1,0,0,1,.43,1.36,36.31,36.31,0,0,0,13.76,48,1,1,0,0,1,.5.87v11.24A1,1,0,0,1,639,542.38Z"/><path class="cls-4" d="M632.9,461.7a1,1,0,0,1-1-.77,26.83,26.83,0,0,1,13.55-30.07,1,1,0,0,1,.94,1.79,24.75,24.75,0,0,0-12.53,27.8,1,1,0,0,1-.74,1.23Z"/><path class="cls-4" d="M645.94,432.76a1,1,0,0,1-.89-.54,1,1,0,0,1,.42-1.36c.6-.31,1.21-.61,1.84-.88v-9.84a1,1,0,0,1,1-1h19.22a1,1,0,0,1,1,1v10.51a1,1,0,0,1-2,0v-9.5h-17.2v9.5a1,1,0,0,1-.64.94,24.75,24.75,0,0,0-2.28,1.06A1,1,0,0,1,645.94,432.76Z"/><polygon class="cls-2" points="254.5 438.09 257.28 443.35 262.37 446.22 257.28 449.1 254.5 454.36 251.71 449.1 246.62 446.22 251.71 443.35 254.5 438.09"/><polygon class="cls-1" points="125.43 245.44 128.21 250.7 133.3 253.57 128.21 256.45 125.43 261.71 122.64 256.45 117.55 253.57 122.64 250.7 125.43 245.44"/><polygon class="cls-1" points="413.69 74.3 416.47 79.55 421.56 82.43 416.47 85.31 413.69 90.56 410.9 85.31 405.81 82.43 410.9 79.55 413.69 74.3"/><path class="cls-1" d="M391.21,511.25a1.06,1.06,0,0,1-.72-.3,1,1,0,0,1-.22-1.08l7.07-18.34-18.74,6.71a1,1,0,0,1-1.3-1.27l6.94-21.32a1,1,0,0,1,1.92.62l-6.3,19.37,18.87-6.76a1,1,0,0,1,1.07.25,1,1,0,0,1,.21,1.07L393,508.51l18.51-6.87a1,1,0,1,1,.7,1.89l-20.61,7.65A.84.84,0,0,1,391.21,511.25Z"/><path class="cls-2" d="M667.89,180h0a10.77,10.77,0,0,1-10.77-10.77h0a10.77,10.77,0,0,1,10.77-10.77h0a10.77,10.77,0,0,1,10.77,10.77h0A10.77,10.77,0,0,1,667.89,180Z"/><path class="cls-1" d="M640.55,205h0a5.73,5.73,0,0,1-5.73-5.72h0a5.73,5.73,0,0,1,5.73-5.72h0a5.73,5.73,0,0,1,5.72,5.72h0A5.73,5.73,0,0,1,640.55,205Z"/><path class="cls-1" d="M667.89,190.65h-19.6a1,1,0,0,1-1-1V170a1,1,0,0,1,1-1h19.6a1,1,0,0,1,1,1v19.6A1,1,0,0,1,667.89,190.65Zm-18.55-2.08h17.51V171.05H649.34Z"/><path class="cls-4" d="M733.18,337.9a1.25,1.25,0,0,1-.35-2.45,44.84,44.84,0,0,0,12-5.44,18.22,18.22,0,0,1-5.53-4.11c-1.79-1.95-2.51-3.86-2.13-5.67a6,6,0,0,1,3.45-4,8.56,8.56,0,0,1,7.52-.06,7,7,0,0,1,3.84,5.12,9,9,0,0,1-2.29,7.66,13.85,13.85,0,0,0,4.93.06,11.76,11.76,0,0,0,9-7.27,1.25,1.25,0,1,1,2.3,1,14.2,14.2,0,0,1-10.91,8.76,16.72,16.72,0,0,1-7.47-.47c-4.26,3.51-10.49,5.73-14.05,6.79A1.49,1.49,0,0,1,733.18,337.9Zm11.31-20a6,6,0,0,0-2.73.64,3.8,3.8,0,0,0-2.12,2.23c-.26,1.21.69,2.55,1.52,3.46a15.71,15.71,0,0,0,5.85,4c1.87-1.84,3-4,2.53-6.43a4.51,4.51,0,0,0-2.5-3.34A5.71,5.71,0,0,0,744.49,317.88Z"/><path class="cls-3" d="M190.11,61.43c-2.72,1.28-4.59,3.64-7.26,5-13.87,7-13.07-18.33-13-25.65.12-15.42-.55-35.23-19.72-38.66-12.23-2.19-23.94,6-26.92,18.06-3.74,15.11,2.26,57.89-25.88,52.05-7.5-1.55-13.08-7.72-17.64-13.86C73.9,50.59,68.25,41.91,58,40.06c-15.51-2.8-31.17,6.16-41.79,16.76A73.09,73.09,0,0,0,.07,82.25s-.06.18-.07.18l30,0,39.71-.06c11.3,0,140-.19,140-.11C208.85,72.71,203.57,55.09,190.11,61.43Z"/><path class="cls-3" d="M785.45,166H913.81c-.86-10.75-7.89-29.09-9.2-31.2-.54-.85-1-1.65-1.39-2.26-6-9.51-22.52-15.85-30-4.45-5.22,8-.88,23.5-11.74,27.47-12.45,4.55-15.58-11.82-16.69-20.21-1.36-10.32-1.14-20.89-4.18-30.93-1.28-3-3.43-6.44-6.87-6.87-3.43,0-6.44,2.57-7.73,5.58-3.81,9.25-4.86,19.24-6.25,29.06-1.14,8-2.68,25.54-13.28,26.53-5.62.52-10.71-9.52-15.93-5.07C787.27,156.45,787.44,162.35,785.45,166Z"/><path class="cls-4" d="M214.64,310.83c-5.26,0-10.36-2.32-12.17-7.36a12.5,12.5,0,0,1-.69-3.17,15.55,15.55,0,0,1-6.2-4.51,14.15,14.15,0,0,1-3.49-7.56,1,1,0,0,1,2.07-.19,12.22,12.22,0,0,0,3,6.39,14.46,14.46,0,0,0,4.58,3.6,17.9,17.9,0,0,1,.31-2.37c.46-2.33,1.35-3.91,2.73-4.82a4.74,4.74,0,0,1,7.27,4.9,5.86,5.86,0,0,1-1.86,3.11,7.46,7.46,0,0,1-5.65,2.06l-.6-.06a10.48,10.48,0,0,0,.49,1.91c2.22,6.18,10.09,6.8,15,5.26l.49-.16a12.75,12.75,0,0,0,3.66-2,1,1,0,0,1,1.3,1.62,14.49,14.49,0,0,1-4.26,2.34L220,310A18.09,18.09,0,0,1,214.64,310.83ZM203.8,298.72c.29,0,.58.09.86.11a5.41,5.41,0,0,0,4.12-1.52,3.85,3.85,0,0,0,1.23-2,2.66,2.66,0,0,0-4.08-2.75,5.16,5.16,0,0,0-1.84,3.49A15.56,15.56,0,0,0,203.8,298.72Z"/><path class="cls-4" d="M803,542.57H752.78a1,1,0,1,1,0-2.08H803a1,1,0,1,1,0,2.08Z"/><path class="cls-4" d="M736.93,542.57H552.73a1,1,0,1,1,0-2.08h184.2a1,1,0,1,1,0,2.08Z"/><path class="cls-4" d="M514.09,542.62H177.71a1,1,0,0,1,0-2.09H514.09a1,1,0,0,1,0,2.09Z"/><path class="cls-4" d="M194.79,542.57H24.91a1,1,0,1,1,0-2.08H194.79a1,1,0,1,1,0,2.08Z"/><polygon class="cls-3" points="610.05 393.24 352.49 420.66 327.12 149.12 581.97 121.98 610.05 393.24"/><path class="cls-4" d="M310.26,113V541.58H307V113a1.64,1.64,0,1,1,3.28,0Z"/><path class="cls-4" d="M566.71,113V541.53h-3.28V113a1.64,1.64,0,1,1,3.28,0Z"/><polygon class="cls-5" points="512.57 372.92 253.36 372.92 306.99 112.97 566.2 112.97 512.57 372.92"/><polygon class="cls-5" points="398.82 372.92 512.57 372.92 566.2 112.97 306.99 112.97 253.36 372.92 350.21 372.92 398.82 372.92"/><path class="cls-4" d="M513.93,374.59H398.82a1.67,1.67,0,0,1,0-3.34H511.2l52.95-256.61H308.35L255.41,371.25h94.8a1.67,1.67,0,0,1,0,3.34H251.3l54.33-263.3H568.25Z"/><path class="cls-4" d="M309.6,318H298.35a1.64,1.64,0,1,1,0-3.28H309.6a1.64,1.64,0,0,1,0,3.28Z"/><polygon class="cls-2" points="370.48 303.08 328.3 303.08 344.79 223.15 386.96 223.15 370.48 303.08"/><polygon class="cls-1" points="429.48 303.08 387.31 303.08 396.84 256.87 439.02 256.87 429.48 303.08"/><polygon class="cls-1" points="487 303.08 444.82 303.08 449.01 282.8 491.19 282.8 487 303.08"/><path class="cls-4" d="M488.05,318H307.59l15.16-73.5a1.64,1.64,0,0,1,3.21.66L311.61,314.7H488.05a1.64,1.64,0,0,1,0,3.28Z"/><path class="cls-4" d="M328.16,228a1.84,1.84,0,0,1-.33,0,1.64,1.64,0,0,1-1.28-1.94l6.87-33.28a1.64,1.64,0,1,1,3.21.66l-6.87,33.29A1.63,1.63,0,0,1,328.16,228Z"/><path class="cls-4" d="M469.74,329.22l-.34,0a1.64,1.64,0,0,1-1.27-1.93L470.45,316a1.64,1.64,0,1,1,3.21.66l-2.32,11.25A1.63,1.63,0,0,1,469.74,329.22Z"/><path class="cls-4" d="M429.12,329.22l-.33,0a1.62,1.62,0,0,1-1.27-1.93L429.84,316a1.63,1.63,0,1,1,3.2.66l-2.32,11.25A1.63,1.63,0,0,1,429.12,329.22Z"/><path class="cls-4" d="M388.51,329.22l-.34,0a1.64,1.64,0,0,1-1.27-1.93L389.22,316a1.64,1.64,0,1,1,3.21.66l-2.32,11.25A1.63,1.63,0,0,1,388.51,329.22Z"/><path class="cls-4" d="M347.89,329.22l-.33,0a1.62,1.62,0,0,1-1.27-1.93L348.61,316a1.63,1.63,0,1,1,3.2.66l-2.32,11.25A1.63,1.63,0,0,1,347.89,329.22Z"/><path class="cls-4" d="M307.28,329.22l-.34,0a1.64,1.64,0,0,1-1.27-1.93L308,316a1.64,1.64,0,1,1,3.21.66l-2.32,11.25A1.63,1.63,0,0,1,307.28,329.22Z"/><path class="cls-2" d="M521.28,195c-.18.84-.38,1.67-.62,2.49-4.42,15.29-19.7,27.29-35.31,27.29-16.45,0-27-13.33-23.64-29.78s19.21-29.56,35.51-29.78h.42C514.09,165.19,524.67,178.52,521.28,195Z"/><path class="cls-4" d="M460.84,181.72a1.66,1.66,0,0,1-1.25-.58l-13.36-15.59H427.94a1.64,1.64,0,0,1,0-3.28h19.79L462.08,179a1.63,1.63,0,0,1-.18,2.31A1.61,1.61,0,0,1,460.84,181.72Z"/><path class="cls-4" d="M471.73,276.52l-.33,0a1.63,1.63,0,0,1-1.27-1.94l7.48-36.25a1.63,1.63,0,1,1,3.2.67l-7.48,36.24A1.63,1.63,0,0,1,471.73,276.52Z"/><path class="cls-4" d="M421.23,243a1.84,1.84,0,0,1-.33,0,1.63,1.63,0,0,1-1.27-1.94L426,210.32a1.64,1.64,0,0,1,3.21.66l-6.33,30.66A1.63,1.63,0,0,1,421.23,243Z"/><path class="cls-4" d="M367.19,216.33a1.24,1.24,0,0,1-.33,0,1.62,1.62,0,0,1-1.27-1.93l1.86-9a1.63,1.63,0,0,1,3.2.66l-1.86,9A1.64,1.64,0,0,1,367.19,216.33Z"/><polygon class="cls-1" points="411.05 169.56 358.79 169.56 361.42 156.77 413.69 156.77 411.05 169.56"/><polygon class="cls-1" points="441.35 202.47 402.25 202.47 404.88 189.68 443.99 189.68 441.35 202.47"/><path class="cls-1" d="M528.56,186c-.17.84-.38,1.67-.62,2.5H497.85l6.66-32.27h.41C521.37,156.25,532,169.58,528.56,186Z"/><path class="cls-4" d="M570.72,439.9H559.43a4.09,4.09,0,1,1,0-8.18h11.29a4.09,4.09,0,0,1,0,8.18Z"/><path class="cls-4" d="M563.37,437.45H361.5a1.64,1.64,0,0,1,0-3.28H563.37a1.64,1.64,0,0,1,0,3.28Z"/><path class="cls-4" d="M378.8,437.45H308.62a1.64,1.64,0,0,1,0-3.28H378.8a1.64,1.64,0,0,1,0,3.28Z"/><path class="cls-4" d="M314.35,439.9H302.47a4.09,4.09,0,0,1,0-8.18h11.88a4.09,4.09,0,0,1,0,8.18Z"/><path class="cls-3" d="M690.28,54.65s-82.86-.82-82.95-.78l-19.85-.19a17.27,17.27,0,0,1-.19-3.87h0l0-.32a1.8,1.8,0,0,1,0-.2,34.61,34.61,0,0,1,1.19-5.1,27.47,27.47,0,0,1,3.07-6.7,18.16,18.16,0,0,1,6.24-6.08A24.38,24.38,0,0,1,606,28.52a18.43,18.43,0,0,1,13.67,2.82c2.46,1.71,4.72,4.33,7.83,4.77,4.77.66,6.07-4.58,6.49-8.2,1.14-9.78,2.11-25,14.07-27.71a6.84,6.84,0,0,1,5.4.91C656.4,3,658.24,7,659.28,10.23c1.68,5.26,2.58,11,4.69,16.05,1.56,3.77,4.72,6.08,8.9,5.56a9.87,9.87,0,0,1,4,.33,15.14,15.14,0,0,1,7.49,5.5,19.48,19.48,0,0,1,1.82,2.81C688.46,44.68,689.39,50,690.28,54.65Z"/><path class="cls-2" d="M257.89,217.51a4.39,4.39,0,1,1,4.39-4.39A4.4,4.4,0,0,1,257.89,217.51Z"/><path class="cls-2" d="M241.29,217.51a4.39,4.39,0,1,1,4.39-4.39A4.4,4.4,0,0,1,241.29,217.51Z"/><path class="cls-2" d="M241.29,199.54a4.39,4.39,0,1,1,4.39-4.39A4.39,4.39,0,0,1,241.29,199.54Z"/><path class="cls-2" d="M241.29,234.17a4.39,4.39,0,1,1,4.39-4.39A4.4,4.4,0,0,1,241.29,234.17Z"/><path class="cls-2" d="M224.69,217.51a4.39,4.39,0,1,1,4.39-4.39A4.39,4.39,0,0,1,224.69,217.51Z"/><path class="cls-1" d="M146.47,475.76c13.72,7.7,21.64,19.65,17.69,26.7s-18.28,6.53-32-1.16c-9.5-5.32-14.32-16.06-16.39-22.17a4.45,4.45,0,0,1,3.24-5.78C125.3,471.93,137,470.44,146.47,475.76Z"/><path class="cls-1" d="M201.93,480.05c-7.75,7.85-17.3,11-21.34,7s-1-13.58,6.73-21.43c5.36-5.44,13.51-6.71,18-7a3.12,3.12,0,0,1,3.31,3.26C208.45,466.44,207.29,474.61,201.93,480.05Z"/><path class="cls-6" d="M169.45,541.1a1.24,1.24,0,0,1-1.23-1.18A333,333,0,0,0,164,499c-.31-1.85-.57-3.37-.83-4.77a386.82,386.82,0,0,0-8.9-38.15,1.23,1.23,0,0,1,2.37-.68,389.45,389.45,0,0,1,9,38.39c.26,1.41.52,2.94.83,4.81a336,336,0,0,1,4.3,41.22,1.23,1.23,0,0,1-1.18,1.28Z"/><path class="cls-6" d="M151.85,445.19a1.23,1.23,0,0,1-1.17-.86c-11.54-36.17-24.66-59.87-24.79-60.1A1.23,1.23,0,1,1,128,383c.14.24,13.37,24.13,25,60.56a1.22,1.22,0,0,1-.8,1.54A1.19,1.19,0,0,1,151.85,445.19Z"/><circle class="cls-7" cx="133.15" cy="401.21" r="26.62" transform="translate(-279.23 494.17) rotate(-84.35)"/><path class="cls-1" d="M175.42,541.1h0a1.23,1.23,0,0,1-1.21-1.25c.23-12.91,1-33.05,3.64-55.73.28-2.49.6-5.11.95-7.79,1.29-9.92,2.84-19.46,4.61-28.35s3.82-17.44,6.06-25.23l.33-1.11c1.19-4.08,2.46-8.05,3.78-11.8a1.23,1.23,0,1,1,2.32.82c-1.3,3.7-2.56,7.63-3.74,11.67l-.33,1.1c-2.22,7.73-4.24,16.15-6,25s-3.3,18.32-4.59,28.18c-.34,2.67-.66,5.28-.94,7.75-2.58,22.59-3.39,42.65-3.62,55.5A1.23,1.23,0,0,1,175.42,541.1Z"/><polygon class="cls-1" points="217.47 415.9 198.65 397.08 172.94 403.97 166.05 429.68 184.87 448.5 210.58 441.61 217.47 415.9"/><path class="cls-5" d="M133.15,404.29c-13.74,0-28.33-3.28-28.33-9.37a1,1,0,0,1,2.07,0c0,3.46,10.78,7.3,26.26,7.3s26.25-3.84,26.25-7.3a1,1,0,0,1,2.07,0C161.47,401,146.88,404.29,133.15,404.29Z"/><path class="cls-5" d="M133.15,404.29c-13.74,0-28.33-3.28-28.33-9.37a1,1,0,0,1,2.07,0c0,3.46,10.78,7.3,26.26,7.3s26.25-3.84,26.25-7.3a1,1,0,0,1,2.07,0C161.47,401,146.88,404.29,133.15,404.29Z"/><path class="cls-5" d="M155.2,411.4c-6,0-15.39-3.6-23.64-8.36-11.9-6.86-22.9-17-19.86-22.27a1,1,0,1,1,1.8,1c-1.73,3,5.69,11.71,19.09,19.44S157.26,411,159,408a1,1,0,0,1,1.8,1C159.84,410.69,157.86,411.4,155.2,411.4Z"/><path class="cls-5" d="M155.2,411.4c-6,0-15.39-3.6-23.64-8.36-11.9-6.86-22.9-17-19.86-22.27a1,1,0,1,1,1.8,1c-1.73,3,5.69,11.71,19.09,19.44S157.26,411,159,408a1,1,0,0,1,1.8,1C159.84,410.69,157.86,411.4,155.2,411.4Z"/><path class="cls-5" d="M166.05,430.71a1,1,0,0,1-.27-2L217.2,414.9a1,1,0,1,1,.54,2l-51.42,13.78Z"/><path class="cls-5" d="M191.76,423.82a1,1,0,0,1-.73-.3L172.21,404.7a1,1,0,0,1,1.46-1.47l18.82,18.83a1,1,0,0,1,0,1.46A1,1,0,0,1,191.76,423.82Z"/></g></g></svg>