<svg xmlns="http://www.w3.org/2000/svg" viewBox="0 0 854.04 529.04"><defs><style>.cls-1{fill:#d1a7a7;}.cls-2{fill:#cf8282;}.cls-3{fill:#1e1e1e;}.cls-4{fill:#dce5f7;}.cls-5{fill:#212121;}.cls-6{fill:#e2a6a6;}.cls-7{fill:#fff;}.cls-8{fill:#e5a8a8;}.cls-9{fill:#161616;}.cls-10{fill:#b57c7c;}</style></defs><title>Asset 4</title><g id="Layer_2" data-name="Layer 2"><g id="Layer_2-2" data-name="Layer 2"><polygon class="cls-1" points="255.32 414.96 258.11 420.24 263.22 423.12 258.11 426.01 255.32 431.28 252.52 426.01 247.41 423.12 252.52 420.24 255.32 414.96"/><polygon class="cls-2" points="33.15 196.16 35.94 201.43 41.05 204.32 35.94 207.2 33.15 212.48 30.36 207.2 25.25 204.32 30.36 201.43 33.15 196.16"/><polygon class="cls-2" points="431.67 32.3 434.46 37.58 439.57 40.47 434.46 43.35 431.67 48.63 428.88 43.35 423.77 40.47 428.88 37.58 431.67 32.3"/><path class="cls-2" d="M392.47,488.35a1,1,0,0,1-.94-1.37l7.09-18.41-18.8,6.73a1,1,0,0,1-1.3-1.26l7-21.4a1,1,0,1,1,1.92.63l-6.32,19.43L400,465.92a1,1,0,0,1,1.29,1.32l-7.08,18.37,18.57-6.9a1,1,0,0,1,1.3.6,1,1,0,0,1-.6,1.3l-20.67,7.68A1.13,1.13,0,0,1,392.47,488.35Z"/><path class="cls-1" d="M674,94.94h0a10.8,10.8,0,0,1-10.8-10.81h0A10.8,10.8,0,0,1,674,73.33h0a10.81,10.81,0,0,1,10.81,10.8h0A10.81,10.81,0,0,1,674,94.94Z"/><path class="cls-2" d="M646.57,120.09h0a5.74,5.74,0,0,1-5.74-5.74h0a5.74,5.74,0,0,1,5.74-5.74h0a5.74,5.74,0,0,1,5.74,5.74h0A5.74,5.74,0,0,1,646.57,120.09Z"/><path class="cls-2" d="M674,105.67H654.34a1,1,0,0,1-1-1V85a1,1,0,0,1,1-1H674a1,1,0,0,1,1,1v19.66A1,1,0,0,1,674,105.67Zm-18.61-2.09H673V86H655.39Z"/><path class="cls-3" d="M648.3,252.78a1.25,1.25,0,0,1-.35-2.45A44.84,44.84,0,0,0,660,244.87a18.33,18.33,0,0,1-5.55-4.12c-1.8-2-2.52-3.87-2.14-5.69a6,6,0,0,1,3.46-4,8.59,8.59,0,0,1,7.55-.06,7,7,0,0,1,3.86,5.14,9,9,0,0,1-2.31,7.68,14,14,0,0,0,5,.06,11.82,11.82,0,0,0,9.06-7.3,1.25,1.25,0,1,1,2.3,1,14.22,14.22,0,0,1-10.93,8.78,16.71,16.71,0,0,1-7.5-.46c-4.28,3.52-10.53,5.74-14.1,6.8A1.12,1.12,0,0,1,648.3,252.78Zm11.34-20.08a6.08,6.08,0,0,0-2.73.64,3.89,3.89,0,0,0-2.13,2.24c-.26,1.22.69,2.56,1.53,3.47a15.61,15.61,0,0,0,5.87,4c1.87-1.84,3-4,2.54-6.45a4.56,4.56,0,0,0-2.51-3.35A5.79,5.79,0,0,0,659.64,232.7Z"/><path class="cls-4" d="M190.72,59.86c-2.73,1.28-4.6,3.65-7.28,5-13.91,7-13.11-18.38-13.06-25.73.13-15.47-.54-35.34-19.78-38.78-12.26-2.2-24,6-27,18.12-3.74,15.15,2.27,58.08-26,52.22C90.11,69.14,84.51,63,79.93,56.79,74.13,49,68.47,40.28,58.2,38.42c-15.55-2.8-31.26,6.18-41.92,16.81A73.34,73.34,0,0,0,.07,80.74a2,2,0,0,1-.07.19l30.05,0,39.84-.06c11.33,0,140.43-.18,140.43-.1C209.53,71.17,204.23,53.5,190.72,59.86Z"/><path class="cls-3" d="M315.42,41.51c-5.26,0-10.38-2.34-12.2-7.39a12.58,12.58,0,0,1-.69-3.18,15.69,15.69,0,0,1-6.23-4.53,14.2,14.2,0,0,1-3.5-7.58,1,1,0,0,1,2.09-.19,12.17,12.17,0,0,0,3,6.41,14.57,14.57,0,0,0,4.6,3.61,18.27,18.27,0,0,1,.31-2.38c.46-2.34,1.36-3.92,2.74-4.83a4.76,4.76,0,0,1,7.29,4.91A5.78,5.78,0,0,1,311,29.48a7.47,7.47,0,0,1-5.66,2.07q-.3,0-.6-.06a10,10,0,0,0,.48,1.92c2.24,6.2,10.13,6.82,15,5.28l.5-.17a12.54,12.54,0,0,0,3.66-2,1,1,0,0,1,1.31,1.64,14.78,14.78,0,0,1-4.27,2.34l-.57.19A18,18,0,0,1,315.42,41.51ZM304.56,29.35a4.94,4.94,0,0,0,.86.11,5.41,5.41,0,0,0,4.13-1.52,3.9,3.9,0,0,0,1.24-2,2.68,2.68,0,0,0-4.1-2.76c-.89.59-1.49,1.73-1.84,3.5A14.62,14.62,0,0,0,304.56,29.35Z"/><path class="cls-3" d="M805.55,529H755.21a1,1,0,1,1,0-2.09h50.34a1,1,0,0,1,0,2.09Z"/><path class="cls-3" d="M739.31,529H554.51a1,1,0,1,1,0-2.09h184.8a1,1,0,1,1,0,2.09Z"/><path class="cls-3" d="M515.75,529H178.29a1,1,0,1,1,0-2.09H515.75a1,1,0,1,1,0,2.09Z"/><path class="cls-3" d="M195.41,529H25a1,1,0,1,1,0-2.09H195.41a1,1,0,1,1,0,2.09Z"/><path class="cls-4" d="M640.83,57s-83.13-.82-83.22-.78L537.7,56a17.36,17.36,0,0,1-.19-3.88h0l0-.32c0-.1,0-.17,0-.2a34.6,34.6,0,0,1,1.2-5.12,27.43,27.43,0,0,1,3.08-6.72,18.19,18.19,0,0,1,6.26-6.1,24.78,24.78,0,0,1,8.18-2.9A18.47,18.47,0,0,1,570,33.63c2.47,1.71,4.74,4.34,7.86,4.78,4.78.67,6.09-4.59,6.51-8.23,1.14-9.8,2.11-25.08,14.11-27.79a6.85,6.85,0,0,1,5.42.91c3,1.9,4.8,5.89,5.85,9.15,1.68,5.28,2.58,11,4.7,16.1,1.57,3.78,4.74,6.1,8.93,5.58a10,10,0,0,1,4,.33A15.17,15.17,0,0,1,634.92,40a20.54,20.54,0,0,1,1.83,2.82C639,47,639.94,52.31,640.83,57Z"/><path class="cls-1" d="M182.37,204.81a4.41,4.41,0,1,1,4.4-4.41A4.42,4.42,0,0,1,182.37,204.81Z"/><path class="cls-1" d="M165.71,204.81a4.41,4.41,0,1,1,4.4-4.41A4.41,4.41,0,0,1,165.71,204.81Z"/><path class="cls-1" d="M165.71,186.78a4.41,4.41,0,1,1,4.4-4.4A4.4,4.4,0,0,1,165.71,186.78Z"/><path class="cls-1" d="M165.71,221.52a4.41,4.41,0,1,1,4.4-4.41A4.4,4.4,0,0,1,165.71,221.52Z"/><path class="cls-1" d="M149.05,204.81a4.41,4.41,0,1,1,4.41-4.41A4.41,4.41,0,0,1,149.05,204.81Z"/><path class="cls-2" d="M146.94,452.76c13.77,7.71,21.72,19.7,17.75,26.78s-18.34,6.55-32.11-1.16c-9.52-5.34-14.36-16.11-16.44-22.24a4.46,4.46,0,0,1,3.25-5.8C125.71,448.91,137.42,447.42,146.94,452.76Z"/><path class="cls-2" d="M202.58,457.05c-7.77,7.88-17.35,11-21.4,7s-1-13.62,6.74-21.5c5.38-5.45,13.56-6.73,18.09-7a3.13,3.13,0,0,1,3.32,3.28C209.12,443.4,208,451.6,202.58,457.05Z"/><path class="cls-5" d="M170,518.3a1.23,1.23,0,0,1-1.23-1.18,334.94,334.94,0,0,0-4.28-41.05c-.31-1.86-.57-3.38-.83-4.79A389.94,389.94,0,0,0,154.73,433a1.23,1.23,0,1,1,2.37-.68,392,392,0,0,1,9,38.51c.25,1.42.52,3,.83,4.82A336.27,336.27,0,0,1,171.23,517a1.23,1.23,0,0,1-1.18,1.28Z"/><path class="cls-5" d="M152.34,422.08a1.24,1.24,0,0,1-1.18-.86c-11.58-36.28-24.73-60.06-24.87-60.29a1.24,1.24,0,1,1,2.16-1.2c.13.23,13.4,24.21,25.06,60.74a1.23,1.23,0,0,1-.8,1.55A1.19,1.19,0,0,1,152.34,422.08Z"/><circle class="cls-6" cx="133.57" cy="377.96" r="26.7" transform="translate(-255.71 473.64) rotate(-84.35)"/><path class="cls-2" d="M176,518.3h0a1.22,1.22,0,0,1-1.21-1.25c.22-12.95,1-33.16,3.64-55.91.28-2.5.6-5.13.95-7.82,1.3-9.95,2.86-19.52,4.63-28.43s3.83-17.5,6.08-25.32l.33-1.12c1.2-4.09,2.47-8.07,3.79-11.83a1.24,1.24,0,0,1,2.33.82c-1.31,3.72-2.57,7.66-3.75,11.71l-.33,1.11c-2.23,7.75-4.26,16.2-6,25.11s-3.31,18.37-4.6,28.27c-.35,2.68-.67,5.29-1,7.78-2.59,22.65-3.4,42.78-3.63,55.67A1.23,1.23,0,0,1,176,518.3Z"/><polygon class="cls-2" points="218.17 392.7 199.29 373.82 173.5 380.73 166.58 406.52 185.47 425.4 211.26 418.49 218.17 392.7"/><path class="cls-7" d="M133.57,381.06c-13.77,0-28.41-3.3-28.41-9.4a1,1,0,1,1,2.07,0c0,3.46,10.82,7.32,26.34,7.32s26.35-3.86,26.35-7.32a1,1,0,1,1,2.07,0C162,377.76,147.35,381.06,133.57,381.06Z"/><path class="cls-7" d="M133.57,381.06c-13.77,0-28.41-3.3-28.41-9.4a1,1,0,1,1,2.07,0c0,3.46,10.82,7.32,26.34,7.32s26.35-3.86,26.35-7.32a1,1,0,1,1,2.07,0C162,377.76,147.35,381.06,133.57,381.06Z"/><path class="cls-7" d="M155.7,388.18c-6,0-15.44-3.61-23.72-8.38-11.93-6.88-23-17.05-19.92-22.34a1,1,0,1,1,1.8,1c-1.73,3,5.71,11.74,19.16,19.5s24.75,9.82,26.48,6.82a1,1,0,1,1,1.79,1C160.36,387.48,158.36,388.18,155.7,388.18Z"/><path class="cls-7" d="M155.7,388.18c-6,0-15.44-3.61-23.72-8.38-11.93-6.88-23-17.05-19.92-22.34a1,1,0,1,1,1.8,1c-1.73,3,5.71,11.74,19.16,19.5s24.75,9.82,26.48,6.82a1,1,0,1,1,1.79,1C160.36,387.48,158.36,388.18,155.7,388.18Z"/><path class="cls-7" d="M166.58,407.56a1.05,1.05,0,0,1-1-.77,1,1,0,0,1,.74-1.27L217.9,391.7a1,1,0,1,1,.54,2l-51.59,13.82A.84.84,0,0,1,166.58,407.56Z"/><path class="cls-7" d="M192.38,400.65a1,1,0,0,1-.74-.31l-18.88-18.88a1,1,0,0,1,1.47-1.47l18.88,18.89a1,1,0,0,1,0,1.46A1,1,0,0,1,192.38,400.65Z"/><path class="cls-3" d="M473.68,112.51,441.07,114l-.06-1.16a22.33,22.33,0,0,0-13.66-19.56,21.06,21.06,0,0,0-4.6-1.37,21.79,21.79,0,0,0-5.13-.36c-.71,0-1.41.1-2.11.2A22.36,22.36,0,0,0,396.34,115l.05,1.16-32.7,1.55,2.36,49.52h0L476,162Z"/><path class="cls-8" d="M543.41,518.65,272.73,488a13.16,13.16,0,0,1-11.6-14.57L301,121.65a13.17,13.17,0,0,1,14.57-11.6l270.68,30.69a13.17,13.17,0,0,1,11.6,14.57L558,507.05A13.17,13.17,0,0,1,543.41,518.65Z"/><path class="cls-9" d="M298.84,522a14.5,14.5,0,0,1-15.26-13.67l-1.14-20.62a1.32,1.32,0,1,1,2.64-.14l1.14,20.62a11.86,11.86,0,0,0,12.48,11.17,1.32,1.32,0,1,1,.14,2.64Z"/><path class="cls-9" d="M369.84,518l-71,3.92a1.32,1.32,0,1,1-.14-2.64l71-3.92a1.32,1.32,0,0,1,.15,2.64Z"/><path class="cls-9" d="M570.85,506.94l-168.63,9.31a1.32,1.32,0,1,1-.15-2.64L570.7,504.3a11.87,11.87,0,0,0,11.18-12.49l-4.22-76.33a1.32,1.32,0,0,1,2.64-.15l4.22,76.34A14.51,14.51,0,0,1,570.85,506.94Z"/><path class="cls-9" d="M568.29,221.73a1.32,1.32,0,0,1-1.39-1.25l-4.54-82.12a11.86,11.86,0,0,0-12.48-11.17l-19.44,1.07a1.32,1.32,0,1,1-.14-2.64l19.43-1.07A14.51,14.51,0,0,1,565,138.22l4.54,82.11A1.34,1.34,0,0,1,568.29,221.73Z"/><path class="cls-9" d="M514.7,129.13l-44.82,2.47a1.32,1.32,0,1,1-.14-2.64l44.82-2.47a1.32,1.32,0,0,1,.14,2.64Z"/><path class="cls-9" d="M268.42,209.75a1.33,1.33,0,0,1-1.4-1.25l-3-53.67a14.51,14.51,0,0,1,13.67-15.27l81.42-4.49a1.32,1.32,0,1,1,.15,2.64l-81.42,4.49a11.87,11.87,0,0,0-11.18,12.49l3,53.66A1.31,1.31,0,0,1,268.42,209.75Z"/><path class="cls-9" d="M551.53,153.7l15.62,282.91a23.13,23.13,0,0,1-21.76,24.3L334.93,472.53A11.11,11.11,0,0,1,323.21,462L306.93,167.21a11.12,11.12,0,0,1,10.49-11.72l222.39-12.28A11.13,11.13,0,0,1,551.53,153.7Z"/><path class="cls-7" d="M558.32,437.89a.79.79,0,0,1-.84-.75l-1.67-30.29a.8.8,0,1,1,1.59-.09l1.68,30.29A.8.8,0,0,1,558.32,437.89Z"/><path class="cls-7" d="M543.81,175.08a.8.8,0,0,1-.84-.75l-1.11-20.09a.8.8,0,0,1,.76-.84.79.79,0,0,1,.84.75l1.11,20.09A.81.81,0,0,1,543.81,175.08Z"/><path class="cls-7" d="M534.59,154.64l15.62,282.9a23.14,23.14,0,0,1-21.76,24.31L318,473.47A11.13,11.13,0,0,1,306.27,463L290,168.14a11.13,11.13,0,0,1,10.5-11.72l222.38-12.28A11.12,11.12,0,0,1,534.59,154.64Z"/><path class="cls-9" d="M530,461.76l-266.18,14.7A24.48,24.48,0,0,1,238,453.37l266.17-14.69A24.48,24.48,0,0,0,530,461.76Z"/><path class="cls-10" d="M463.46,113l-32.61,1.54-.06-1.16a22.42,22.42,0,0,0-13.66-19.57,21.62,21.62,0,0,0-4.6-1.37,22.33,22.33,0,0,0-5.13-.35,20.93,20.93,0,0,0-2.11.2,22.37,22.37,0,0,0-19.18,23.2l.06,1.16-32.7,1.54,2.36,49.52h0l110-5.19Z"/><path class="cls-9" d="M274.53,490a1.33,1.33,0,0,1-1.33-1.32V325.28a1.33,1.33,0,0,1,2.65,0V488.67A1.32,1.32,0,0,1,274.53,490Z"/><polygon class="cls-2" points="230.73 392.83 234.07 399.13 240.17 402.58 234.07 406.02 230.73 412.33 227.39 406.02 221.29 402.58 227.39 399.13 230.73 392.83"/><polygon class="cls-10" points="507.27 78.92 510.61 85.22 516.71 88.67 510.61 92.12 507.27 98.42 503.93 92.12 497.83 88.67 503.93 85.22 507.27 78.92"/><path class="cls-2" d="M733.91,309a9.79,9.79,0,0,1-1.76-19.42l18-3.32a9.78,9.78,0,1,1,3.56,19.24l-18,3.33A10.06,10.06,0,0,1,733.91,309Z"/><path class="cls-7" d="M721.47,311.28a9.79,9.79,0,0,1-1.77-19.41l12.45-2.31a9.79,9.79,0,0,1,3.56,19.25l-12.45,2.3A9.11,9.11,0,0,1,721.47,311.28Z"/><path class="cls-10" d="M510,350.4A9.79,9.79,0,0,1,508.23,331L719.7,291.87a9.78,9.78,0,1,1,3.56,19.24L511.8,350.24A10.12,10.12,0,0,1,510,350.4Z"/><path class="cls-9" d="M497.22,348a5,5,0,0,1-.91-9.92l8.18-1.51a5,5,0,1,1,1.82,9.84l-8.18,1.51A4.67,4.67,0,0,1,497.22,348Z"/><polygon class="cls-4" points="720.75 74.93 854.04 74.33 835.67 156.25 812.5 156.41 824.03 192.8 777.36 156.45 702.37 156.85 720.75 74.93"/><path class="cls-7" d="M820.83,179.16c-9.85,0-20.64-9.62-27.81-16l-1.82-1.62c-9.82-8.65-17.65-19.32-25.23-29.63l-1.89-2.58c-5.35-7.26-12.54-14.67-15.69-13.78-1.1.32-1.84,2.09-2.08,5a32.2,32.2,0,0,0,.65,7.88,44.85,44.85,0,0,1,.74,6.43c.11,4.87-1.86,9-5,10.6-1.47.74-4.54,1.51-8.5-1.59-9.32-7.33-9.18-20-8.69-25.16.31-3.29.93-6.56,1.52-9.73s1.17-6.24,1.48-9.37c.47-4.86.8-16.52-6.5-19.83a7.57,7.57,0,0,0-4.36-.67,1.32,1.32,0,1,1-.4-2.61,10.2,10.2,0,0,1,5.85.87c8.54,3.87,8.7,15.76,8,22.5-.32,3.24-.93,6.47-1.51,9.59s-1.19,6.33-1.49,9.51c-.45,4.69-.6,16.3,7.7,22.82,1.47,1.15,3.65,2.32,5.68,1.31,2.2-1.1,3.62-4.39,3.54-8.19a41.48,41.48,0,0,0-.71-6,34.89,34.89,0,0,1-.68-8.53c.35-4.2,1.69-6.66,4-7.31,5.73-1.63,14.87,9.78,18.54,14.75l1.89,2.58c7.5,10.2,15.24,20.75,24.85,29.22l1.83,1.63c6.93,6.18,17.41,15.49,26.29,15.34,2.94-.06,5-1,6.33-3,3.2-4.67,1.44-14.28-1-21.1a58.85,58.85,0,0,0-20.16-26.94c-2.74-2-5.71-3.83-8.59-5.58a82.51,82.51,0,0,1-12.53-8.76c-5.55-5-10.74-15.11-9.45-22.74A11.49,11.49,0,0,1,783,79.51c6.7-2.81,11.52,4.27,13.33,6.93.52.76,1,1.53,1.53,2.3,2.67,4,5.19,7.85,9.11,10.44s8.92,4,13.63,5.29c6.48,1.76,13.17,3.59,18.23,8.88a1.32,1.32,0,1,1-1.91,1.83c-4.55-4.76-10.6-6.41-17-8.16-4.91-1.34-10-2.73-14.39-5.64s-7.16-7.1-9.85-11.18c-.5-.76-1-1.52-1.52-2.27-3.74-5.5-6.86-7.35-10.11-6a8.84,8.84,0,0,0-5.74,6.94c-1.21,7.12,4.23,16.38,8.61,20.33A81.51,81.51,0,0,0,799,117.68c2.93,1.79,6,3.63,8.78,5.71a61.48,61.48,0,0,1,21.08,28.16c1,2.69,5.6,16.42.74,23.51-1.81,2.64-4.66,4-8.46,4.1Z"/><path class="cls-4" d="M225.08,256.89a4.16,4.16,0,1,1,4.16-4.16A4.17,4.17,0,0,1,225.08,256.89Z"/><path class="cls-4" d="M209.33,256.89a4.16,4.16,0,1,1,4.17-4.16A4.16,4.16,0,0,1,209.33,256.89Z"/><path class="cls-4" d="M209.33,239.86a4.17,4.17,0,1,1,4.17-4.17A4.17,4.17,0,0,1,209.33,239.86Z"/><path class="cls-4" d="M209.33,272.68a4.16,4.16,0,1,1,4.17-4.16A4.16,4.16,0,0,1,209.33,272.68Z"/><path class="cls-4" d="M193.59,256.89a4.16,4.16,0,1,1,4.16-4.16A4.16,4.16,0,0,1,193.59,256.89Z"/><path class="cls-2" d="M432.57,272.11l-1-.67c-.89-.61-1.8-1.2-2.71-1.78-5.16-3.32-10.49-6.39-15.67-9.68-5.35-3.4-10.48-7.08-12.95-13.28-.68-1.68-1.09-3.47-1.62-5.21a53.91,53.91,0,0,0-3.75,10.72c-1.42,5.76.39,10.7,4.3,15,3,3.24,6.64,5.6,10.26,8,6,4.06,10.58,9.25,12.27,17.16-5.82-3.08-11.13-5.92-15.92-9.61-4.4-3.4-7.32-7.67-8-13.31L397,269c-.63,1.69-1.31,3.37-1.87,5.08-3.81,11.68-1.92,17.49,8,24.75,4.35,3.18,13,7.67,18,10.56h0a0,0,0,0,0,0,0h0l.09.06c.31.17.62.37.9.53,7.64,4.24,14.66,9.23,19.78,17,1.51-4.62,2.91-8.69,4.17-12.81,1.64-5.33,3-10.73,2.7-16.38C448.23,286.19,441.59,278.29,432.57,272.11Zm-6,23.08-.48-.27a1.86,1.86,0,0,1-1-2.64c.66-1.94,1.06-3.95,1.68-6.36.74.49,1.47,1,2.18,1.51,6.94,5,12.35,11.11,14.81,20.62A68.42,68.42,0,0,0,426.53,295.19Z"/><path class="cls-2" d="M441.66,201.41a1.84,1.84,0,0,0-.44-.39,16.21,16.21,0,0,0-3.58-1.66l-.48-.18c.32-.51.63-1,.92-1.44a14.88,14.88,0,0,0,1.45-3.17c.21-.67-.12-1.16-.87-1.27a18.63,18.63,0,0,0-4.54-.06c-.19,0-.38,0-.59,0,.06-.49.14-.95.18-1.41a12.12,12.12,0,0,0,0-3.24.88.88,0,0,0-.94-.75,13.48,13.48,0,0,0-3.85.39,14.36,14.36,0,0,0-10.18,8.19,11.91,11.91,0,0,0-1,6.59c.06.53.17,1.05.26,1.59l-.56.28a21.08,21.08,0,0,0-10.26,10.42,18.37,18.37,0,0,0-1.48,10h0c0,.25.06.5.11.75,0,.08.06.42.1.72v0c0,.16,0,.3,0,.37l-.16-.13-.12.24c-.25.5-.49,1-.7,1.48h0a2.56,2.56,0,0,0-.11.24l-.07.15,1.17,1.17a42.62,42.62,0,0,1,5.68,7.14l.25.42.23-2.29s-.19.12-.21-.14a11.39,11.39,0,0,1-1.07-2.54,19.32,19.32,0,0,1-1.88-3.37c-.18-.43-.35-.87-.5-1.32a.69.69,0,0,0,0-.13,15.45,15.45,0,0,1-.55-2.1s0,0,0,0l-.06-.37a15.94,15.94,0,0,1,.13-5.95,18.32,18.32,0,0,1,9.14-12.43c.62-.36,1.28-.67,1.92-1l.47.37a15.62,15.62,0,0,0,4,2.45,11.53,11.53,0,0,0,6.37.79,14.5,14.5,0,0,0,4.84-1.71,26.31,26.31,0,0,0,5.8-4.49c.37-.36.73-.73,1.08-1.12A.85.85,0,0,0,441.66,201.41Zm-21.91.45c-.32-2,.62-5.85,3.59-8.63a13,13,0,0,1,8.37-3.41l0,.24a13.23,13.23,0,0,1-.31,3.19c-.08.37-.27.51-.65.61A19.28,19.28,0,0,0,420,201.49C419.94,201.6,419.86,201.71,419.75,201.86Zm6-3.54a17.91,17.91,0,0,1,11.41-3.27,14.87,14.87,0,0,1-6,6.91,16.57,16.57,0,0,1-10.46,2.42C421.16,203,423.24,200.11,425.79,198.32Zm13.13,4.12c-.72.65-1.42,1.33-2.16,1.95a17.73,17.73,0,0,1-4.88,3,10.05,10.05,0,0,1-4.63.72,10.29,10.29,0,0,1-4.44-1.5l-.24-.18.33,0a22.6,22.6,0,0,0,2.84-.3,18.48,18.48,0,0,0,7.22-2.94,16.91,16.91,0,0,0,2.53-2.07.49.49,0,0,1,.58-.15c.51.18,1,.31,1.54.5s1,.45,1.59.7A4.26,4.26,0,0,1,438.92,202.44Z"/><path class="cls-2" d="M458.09,284.24a64.28,64.28,0,0,1-4.23,14.91c.15-5.47-.21-10.79-2.55-15.81-3.31-7.13-9.13-11.8-15.53-15.82q-2-1.27-4.13-2.49c-1-.6-2.06-1.2-3.1-1.79-2.93-1.67-5.88-3.3-8.79-5-2.4-1.41-4.8-2.84-7.07-4.45-7.63-5.44-10.83-11.9-9.49-19.38a24.21,24.21,0,0,1,1.59-5.22l.07-.15a2.56,2.56,0,0,1,.11-.24h0c.21-.49.45-1,.7-1.48l.12-.24.12-.24.29-.53h0q.62-1.12,1.35-2.28a20,20,0,0,0,.3,2s0,0,0,0c0,.21.09.41.13.61.13.51.27,1,.42,1.49a.69.69,0,0,1,0,.13c.15.45.32.89.5,1.32a19.32,19.32,0,0,0,1.88,3.37c2.65,3.77,6.56,6.48,10.71,9,1.76,1.06,3.52,2.1,5.3,3.13h0c5,2.93,10.06,5.8,15,8.79a42,42,0,0,1,8.43,6.86A26.72,26.72,0,0,1,458.09,284.24Z"/><path class="cls-2" d="M430.69,322.37l-.05,0a142.69,142.69,0,0,0-12.95-7.92L417,314q-2.16-1.17-4.39-2.34h0a10.7,10.7,0,0,1-2.18-1.11l-.76-.48c-2.55-1.43-4.8-2.84-6.78-4.21l-.06,0c-4.45-2.91-8.54-6.16-11.2-10.78a15.8,15.8,0,0,1-2.78-7.59c-1.24,3.06-2.12,6-3.09,8.94-2.14,6.36-.55,11.86,3.74,16.79,3.39,3.9,7.61,6.7,12,9.36,1.35.82,4.84,2.85,6.48,3.8l.15.09c7.46,4.23,15,8.26,21.94,13.4,7.23,5.38,13.24,11.75,15.17,21a71.74,71.74,0,0,1,.8,7.9C455.54,347.45,447.09,333.86,430.69,322.37Z"/><path class="cls-2" d="M389.84,370.78l1.66.94c-.48-.92-.8-1.52-1.1-2.11,2.11-1.92,4-2.13,5.66-.61a3.76,3.76,0,0,1,.9,5.06,3.91,3.91,0,0,1-4.8,1.94C390.06,375.37,389.19,373.3,389.84,370.78Z"/><path class="cls-2" d="M395,362.08l1.67.94c-.49-.92-.8-1.52-1.11-2.11,2.11-1.92,3.95-2.13,5.66-.61a3.76,3.76,0,0,1,.9,5.06,3.9,3.9,0,0,1-4.79,1.94C395.26,366.67,394.39,364.6,395,362.08Z"/><path class="cls-2" d="M447.1,378v0c0,1.39.16,3.41.08,5.77,0,0,0,.05,0,.08a34.3,34.3,0,0,1-3.83,13.66,31.59,31.59,0,0,1-7.35,9.29,28.12,28.12,0,0,1-15,6.7h-.05a28.33,28.33,0,0,1-19.17-6,28.2,28.2,0,0,1-10-29.1,27.32,27.32,0,0,0-.78,5.32,26.05,26.05,0,0,0,.3,5.37,26.72,26.72,0,0,0,3.74,10,27.06,27.06,0,0,0,7.28,7.68,26.73,26.73,0,0,0,19.95,4.41,26.73,26.73,0,0,0,13-6.27h0l0,0c.81-.9,23.1-28.17-21.86-47.18l0,0-2.93-1.5a28.28,28.28,0,0,1-2.75-1.62c-1.51-1-3-2-4.45-3.14a32.37,32.37,0,0,1-4.13-3.74c-3.78-4.1-5.53-8.87-4.16-14.43.33-1.35.82-3,1.36-4.68.38-1.15.77-2.3,1.16-3.34a.34.34,0,0,1,.06-.12h0a.57.57,0,0,1,1,.06c.11.24.23.48.35.72v0a26,26,0,0,0,1.82,3.61l0,0a23.49,23.49,0,0,0,4.09,5.25A47.94,47.94,0,0,0,418,344.26l2.73,1.51c2.38,1.45,4.75,2.9,7.09,4.4l1,.63c.55.36,1.1.72,1.64,1.09l1,.65a48.68,48.68,0,0,1,6.65,5.41,36,36,0,0,1,4.86,6.4A35.36,35.36,0,0,1,447.1,378Z"/><path class="cls-2" d="M692.3,499.34c7,7.07,15.57,9.9,19.2,6.31s.93-12.22-6-19.28c-4.82-4.89-12.16-6-16.23-6.28a2.82,2.82,0,0,0-3,2.94C686.43,487.1,687.47,494.45,692.3,499.34Z"/><path class="cls-5" d="M720.45,521.31a.91.91,0,0,1-.9-.85,435.35,435.35,0,0,1-.19-43.84c1-23.08,4.24-56.44,14-84.3a.91.91,0,0,1,1.71.6c-18.6,52.94-13.8,126.68-13.75,127.42a.89.89,0,0,1-.84,1Z"/><path class="cls-5" d="M713.43,521.31h0a.9.9,0,0,1-.89-.92c.42-34.31-9.17-54.92-16.41-67.45a.9.9,0,0,1,1.57-.9c7.35,12.7,17.07,33.62,16.65,68.37A.9.9,0,0,1,713.43,521.31Z"/><path class="cls-2" d="M734.05,414.12c-1.37,5.84-4.91,10-7.92,9.32s-4.33-6-3-11.87c1-4,4.37-6.95,6.39-8.36a1.71,1.71,0,0,1,2.47.58C733.21,405.94,735,410.07,734.05,414.12Z"/><path class="cls-6" d="M755.35,397.4a4.09,4.09,0,0,0-2.8-6.22h0a7.76,7.76,0,0,0-8.12,3.67l-10,18.51a6.08,6.08,0,0,1-6.74,3h0a6.08,6.08,0,0,1-4.69-5.71l-.74-21a7.78,7.78,0,0,0-5.66-6.89h0a5.43,5.43,0,0,0-5.23,5.61s.94,27.75,1,28.3l0,.26a11.34,11.34,0,0,0,8.66,9.53l8.1,1.89a11.33,11.33,0,0,0,12-4.71h0Z"/><path class="cls-2" d="M688.31,434.93h0l6.44-12.55a4.83,4.83,0,0,0-3.6-7h0a4.82,4.82,0,0,0-5.43,5.66Z"/><path class="cls-2" d="M682.78,439.06h0l-13.87,2.59a4.82,4.82,0,0,1-5.66-5.44h0a4.83,4.83,0,0,1,7-3.6Z"/><path class="cls-2" d="M686.73,444.35h0l-6.44,12.55a4.82,4.82,0,0,0,3.6,7h0a4.82,4.82,0,0,0,5.43-5.66Z"/><path class="cls-2" d="M692.26,440.23h0l13.87-2.6a4.83,4.83,0,0,1,5.66,5.44h0a4.83,4.83,0,0,1-7,3.6Z"/><path class="cls-2" d="M684.75,435.75h0l-4.32-13.43a4.83,4.83,0,0,0-7.48-2.39h0a4.83,4.83,0,0,0,.16,7.85Z"/><path class="cls-2" d="M683.75,442.58h0l-8,11.64a4.83,4.83,0,0,1-7.85.16h0a4.83,4.83,0,0,1,2.39-7.48Z"/><path class="cls-2" d="M690.29,443.53h0L694.61,457a4.83,4.83,0,0,0,7.48,2.39h0a4.83,4.83,0,0,0-.16-7.85Z"/><path class="cls-2" d="M691.29,436.7h0l8-11.64a4.83,4.83,0,0,1,7.85-.16h0a4.82,4.82,0,0,1-2.39,7.48Z"/></g></g></svg>