<svg xmlns="http://www.w3.org/2000/svg" viewBox="0 0 912.71 516.23"><defs><style>.cls-1{fill:#d8b2b2;}.cls-2{fill:#cf8282;}.cls-3{fill:#dce5f7;}.cls-4{fill:#191919;}.cls-5{fill:#fff;}</style></defs><title>Asset 1</title><g id="Layer_2" data-name="Layer 2"><g id="Layer_2-2" data-name="Layer 2"><polygon class="cls-1" points="95.37 216.48 98.06 221.55 102.97 224.33 98.06 227.1 95.37 232.18 92.69 227.1 87.77 224.33 92.69 221.55 95.37 216.48"/><polygon class="cls-2" points="273.12 33.02 275.8 38.1 280.71 40.87 275.8 43.65 273.12 48.72 270.43 43.65 265.52 40.87 270.43 38.1 273.12 33.02"/><polygon class="cls-1" points="590.24 0 592.93 5.07 597.84 7.85 592.93 10.62 590.24 15.7 587.55 10.62 582.64 7.85 587.55 5.07 590.24 0"/><path class="cls-1" d="M276.26,239.87h0a10.39,10.39,0,0,1-10.39,10.39h0a10.39,10.39,0,0,1-10.39-10.39h0a10.39,10.39,0,0,1,10.39-10.39h0A10.39,10.39,0,0,1,276.26,239.87Z"/><path class="cls-2" d="M300.45,266.25h0a5.52,5.52,0,0,1-5.52,5.52h0a5.52,5.52,0,0,1-5.52-5.52h0a5.52,5.52,0,0,1,5.52-5.52h0A5.52,5.52,0,0,1,300.45,266.25Z"/><path class="cls-2" d="M285.58,259.78H266.67a1,1,0,0,1-1-1V239.87a1,1,0,0,1,1-1h18.91a1,1,0,0,1,1,1v18.91A1,1,0,0,1,285.58,259.78Zm-17.9-2h16.89V240.88H267.68Z"/><path class="cls-3" d="M235.53,146.26H0a33.05,33.05,0,0,1,.26-5.62h0a50.82,50.82,0,0,1,6.11-18c5-8.77,12.44-15.26,20.82-13.25a18.51,18.51,0,0,1,7.91,4.4c4,3.58,7.28,8,11.28,11.58s9.11,6.53,14.49,6.13c6.73-.48,11.57-6.51,12.58-12.85,2.42-15.27,2.27-45.42,21.36-49.6.36-.08.71-.15,1.07-.2,16.3-2.8,27.55,13.14,31.89,27.41A48.37,48.37,0,0,1,129,101,61.66,61.66,0,0,1,130.39,113c0,.27.05.52.08.78.13,1.11.28,2.2.47,3.28a26,26,0,0,0,2.25,7.43,3.36,3.36,0,0,0,2,2c2.6.63,4.79-2.39,6.28-4.79.42-.68.78-1.3,1.09-1.79,4.73-7.51,17.78-12.51,23.68-3.51,4.11,6.3.69,18.56,9.26,21.69,9.83,3.6,12.31-9.33,13.18-16,1.08-8.15.9-16.49,3.3-24.42,1-2.37,2.71-5.09,5.43-5.43a7,7,0,0,1,6.1,4.42c3,7.3,3.84,15.18,4.94,22.94.89,6.29,2.11,20.17,10.48,21,4.44.41,8.46-7.52,12.58-4C234.1,138.74,234,143.4,235.53,146.26Z"/><path class="cls-3" d="M786.08,73.89H909.92c-.83-10.37-7.61-28.06-8.88-30.1-.51-.82-1-1.59-1.33-2.18-5.78-9.18-21.73-15.29-28.93-4.29-5,7.69-.85,22.68-11.32,26.5-12,4.4-15-11.4-16.11-19.5-1.31-10-1.09-20.15-4-29.84-1.24-2.9-3.31-6.22-6.63-6.63-3.31,0-6.21,2.49-7.46,5.39-3.68,8.93-4.69,18.56-6,28-1.1,7.69-2.59,24.65-12.81,25.6C801,67.38,796.05,57.69,791,62,787.83,64.7,788,70.4,786.08,73.89Z"/><path class="cls-4" d="M622.88,516.23H127.19a1,1,0,0,1,0-2H622.88a1,1,0,0,1,0,2Z"/><path class="cls-4" d="M911.7,516.23H674.11a1,1,0,0,1,0-2H911.7a1,1,0,0,1,0,2Z"/><polygon class="cls-1" points="769.67 91.68 766.63 97.44 761.05 100.58 766.63 103.73 769.67 109.49 772.72 103.73 778.29 100.58 772.72 97.44 769.67 91.68"/><path class="cls-4" d="M822.12,279.25a19.91,19.91,0,0,1-5.9-.9l-.62-.21a16,16,0,0,1-4.66-2.56,1.14,1.14,0,1,1,1.42-1.78,13.89,13.89,0,0,0,4,2.19l.54.18c5.34,1.68,14,1,16.39-5.76a11.63,11.63,0,0,0,.53-2.09q-.33,0-.66.06a8.15,8.15,0,0,1-6.18-2.25,6.48,6.48,0,0,1-2-3.41,5.2,5.2,0,0,1,8-5.36c1.5,1,2.48,2.72,3,5.28a18,18,0,0,1,.34,2.59,16.08,16.08,0,0,0,5-3.94,13.26,13.26,0,0,0,3.27-7,1.14,1.14,0,1,1,2.28.2,15.47,15.47,0,0,1-3.82,8.28,17.18,17.18,0,0,1-6.79,4.94,14,14,0,0,1-.75,3.47C833.45,276.7,827.86,279.25,822.12,279.25ZM830,258.8a2.9,2.9,0,0,0-1.63.47,3,3,0,0,0-1.23,3,4.26,4.26,0,0,0,1.35,2.18,6,6,0,0,0,4.5,1.66A7.55,7.55,0,0,0,834,266a15.61,15.61,0,0,0-.32-2.91c-.38-1.93-1-3.18-2-3.82A2.93,2.93,0,0,0,830,258.8Z"/><path class="cls-4" d="M350.4,401.34l4.93,10.44a336.22,336.22,0,0,0,67.2,95.12,28.83,28.83,0,0,0,22.86,8.21h0c24.3-2.17,35.21-31.59,18.15-49-23.39-23.92-49.28-53.43-60.36-76.89l-4.93-10.44a26.46,26.46,0,1,0-47.85,22.59Z"/><path class="cls-1" d="M308,311.53l52.79,111.8L350,428.4q-2.88,1.35-5.81,2.39a61.69,61.69,0,0,1-69.37-20.33,60.58,60.58,0,0,1-6.45-10.41c-.18-.37-.36-.74-.53-1.12a61.71,61.71,0,0,1,29.37-82.33Z"/><path class="cls-2" d="M594.34,244.82l39.09,134.54c-125.55-10.93-163.74.72-272.57,44.22l-52.9-112c13.16-7.22,25.36-14.06,36.78-20.71,14.24-8.29,27.26-16.29,39.42-24.38,54.17-36.05,91.14-73.93,141.94-147.91l34.56,64Z"/><path class="cls-1" d="M667.47,374.76a47.26,47.26,0,0,1-21.21,4.39c-37.65-.7-84-40.66-112.29-100.69-22-46.67-27.82-94-18.31-126.64,5.16-17.68,14.8-31,28.77-37.64,39.75-18.77,99.52,24.35,133.5,96.3S707.23,356,667.47,374.76Z"/><path class="cls-5" d="M591.46,330.06a20.3,20.3,0,0,1-9.11,1.89c-16.17-.3-36.06-17.47-48.23-43.25-9.47-20.05-12-40.39-7.87-54.4,2.22-7.6,6.36-13.33,12.36-16.17,17.08-8.06,42.75,10.46,57.35,41.36S608.54,322,591.46,330.06Z"/><path class="cls-5" d="M660.28,380.93c-19.38,4.87-42.16-1.34-65.27-18-26-18.74-49.56-48.69-66.4-84.34s-25-72.9-22.94-104.86c2.11-33.18,14.93-56.95,36.11-66.95s47.68-4.8,74.64,14.65c26,18.74,49.56,48.69,66.39,84.34s25,72.9,23,104.86c-2.11,33.18-14.94,56.95-36.11,67A51.55,51.55,0,0,1,660.28,380.93ZM553.87,114.4a39.46,39.46,0,0,0-7.26,2.59c-17.29,8.16-27.82,28.56-29.66,57.45-1.91,30.09,5.86,65.35,21.89,99.31,32.59,69,89.11,111,126,93.6s40.36-87.73,7.77-156.75c-16-34-38.33-62.37-62.79-80C589.5,116,570,110.36,553.87,114.4Z"/><path class="cls-4" d="M592.6,320.33a1.11,1.11,0,0,1-.86-.41,246.71,246.71,0,0,1-31.29-50.19c-10.68-22.62-18-46.45-21.08-68.91-3-21.83-2.08-42.06,2.71-58.52,5.42-18.55,15.57-31.81,29.36-38.32,8.71-4.11,18.51-5.42,29.12-3.88,10.2,1.48,20.89,5.54,31.78,12.07a1.11,1.11,0,0,1-1.14,1.9c-21.58-12.94-42.47-15.81-58.82-8.09-13.2,6.24-22.94,19-28.17,36.94-9.85,33.77-3,80.83,18.24,125.86a244.24,244.24,0,0,0,31,49.75,1.11,1.11,0,0,1-.16,1.55A1.09,1.09,0,0,1,592.6,320.33Z"/><path class="cls-4" d="M674.7,371.06h-1c-16.9-.31-35.62-8.32-54.15-23.14a1.11,1.11,0,0,1,1.39-1.73c18.14,14.52,36.4,22.35,52.8,22.66a46.29,46.29,0,0,0,20.71-4.28c23.62-11.15,35.55-42.93,31.9-85a1.1,1.1,0,1,1,2.2-.19c3.73,43-8.66,75.62-33.15,87.18A48.19,48.19,0,0,1,674.7,371.06Z"/><path class="cls-2" d="M656.73,256.39a1.37,1.37,0,0,1-.36-2.69l76.37-21.09a1.37,1.37,0,1,1,.73,2.64L657.1,256.34A1.5,1.5,0,0,1,656.73,256.39Z"/><path class="cls-2" d="M632.31,229.06a1.38,1.38,0,0,1-.69-2.56L809.79,123.38a1.37,1.37,0,1,1,1.37,2.37L633,228.87A1.36,1.36,0,0,1,632.31,229.06Z"/><path class="cls-4" d="M611.85,194.57a1.37,1.37,0,0,1-1.37-1.37c0-1,0-2.84,43.77-64.38,21.51-30.24,43.3-60.4,43.52-60.71A1.37,1.37,0,0,1,700,69.72c-34,47.12-85.14,118.77-86.78,123.66A1.37,1.37,0,0,1,611.85,194.57Zm1.37-1.37h0Z"/><circle class="cls-1" cx="478.16" cy="435.71" r="20.77"/><path class="cls-5" d="M430.69,383.32a1.12,1.12,0,0,1-.95-.54L401.46,336a1.1,1.1,0,0,1,.29-1.45l106.32-79.16a1.11,1.11,0,0,1,1-.15,1.13,1.13,0,0,1,.7.79l20.53,88a1.1,1.1,0,0,1-.68,1.28l-98.57,38A1.14,1.14,0,0,1,430.69,383.32Zm-26.82-47.64,27.29,45.17L528,343.54,508,258.13Z"/><path class="cls-4" d="M744.51,153a.93.93,0,0,1-.32-.05c-3.9-1.15-10.77-3.59-15.4-7.45a18,18,0,0,1-8.19.53,15.29,15.29,0,0,1-11.76-9.45,1.14,1.14,0,0,1,2.09-.89A13.09,13.09,0,0,0,721,143.75a15.21,15.21,0,0,0,5.86-.14,9.74,9.74,0,0,1-2.71-8.49,7.43,7.43,0,0,1,4.09-5.44,9.15,9.15,0,0,1,8,.06,6.36,6.36,0,0,1,3.66,4.17c.39,1.91-.37,3.93-2.28,6a19.72,19.72,0,0,1-6.33,4.6c4.5,3.3,10.8,5.4,13.54,6.22a1.14,1.14,0,0,1-.33,2.23Zm-12.37-21.91a6.56,6.56,0,0,0-2.9.66,5.24,5.24,0,0,0-2.86,3.82c-.52,2.81.79,5.26,3,7.34a17.4,17.4,0,0,0,6.62-4.5c.95-1,2-2.58,1.72-4a4.43,4.43,0,0,0-2.44-2.6A6.94,6.94,0,0,0,732.14,131.06Z"/><polygon class="cls-2" points="701.26 270.56 698.22 276.32 692.64 279.46 698.22 282.61 701.26 288.37 704.31 282.61 709.89 279.46 704.31 276.32 701.26 270.56"/><polygon class="cls-2" points="899.81 190.25 896.76 196.01 891.19 199.16 896.76 202.31 899.81 208.06 902.86 202.31 908.43 199.16 902.86 196.01 899.81 190.25"/><path class="cls-2" d="M748.12,335.55a2.92,2.92,0,0,1-1.85.05,3,3,0,0,1-2-3.75l.55-1.89-2-.38a3,3,0,0,1,1.13-5.93l5.26,1a3,3,0,0,1,2.34,3.82l-1.5,5.09A3,3,0,0,1,748.12,335.55Z"/><path class="cls-3" d="M533.81,427.64l15.31-1.21q10.46-.82,15.43,1.78t5.47,9.1a11.91,11.91,0,0,1-1.5,7.39,8.29,8.29,0,0,1-5.23,3.84l0,.33c3.17.45,5.52,1.58,7,3.37a12.75,12.75,0,0,1,2.68,7.44,12.58,12.58,0,0,1-4,10.89q-4.56,4.14-12.9,4.81l-18.41,1.45Zm12,18.66,6.06-.48c2.82-.22,4.84-.82,6-1.8a4.9,4.9,0,0,0,1.56-4.49,4.35,4.35,0,0,0-2.39-3.89c-1.44-.71-3.66-.95-6.64-.71l-5.48.43Zm.66,8.28,1,12.81,6.8-.53c2.87-.23,4.94-.95,6.23-2.15a6.12,6.12,0,0,0,1.65-5.21q-.48-6.13-9.23-5.43Z"/><path class="cls-3" d="M592.94,453.47l1.49,18.88-10.43.82L580.11,424l14.33-1.13q10-.8,15.13,2.47c3.4,2.19,5.29,5.75,5.69,10.71a13.19,13.19,0,0,1-1.78,7.91,15.9,15.9,0,0,1-6.35,5.84q12.42,15.71,16.17,20.28l-11.58.92-13.23-18Zm-.67-8.48,3.36-.26c3.3-.26,5.69-1,7.17-2.23a5.93,5.93,0,0,0,2-5.37q-.29-3.5-2.8-4.79c-1.69-.86-4.21-1.15-7.57-.89l-3.17.25Z"/><path class="cls-3" d="M659.6,467.19l-4.49-11.42-17.94,1.41-2.64,12-11.23.89,13.45-50.76,12.75-1,21.34,48Zm-7.67-20q-6.21-15.51-7-17.56c-.52-1.35-.9-2.43-1.15-3.22q-.76,4.4-4.67,21.8Z"/><path class="cls-3" d="M720.67,462.36l-13.26,1.05-24.34-35.52-.3,0q1.41,9.81,1.75,14l1.83,23.15-9.32.73-3.89-49.19,13.16-1,24.27,35.16.24,0q-1.26-9.56-1.58-13.52l-1.84-23.29,9.39-.74Z"/><path class="cls-3" d="M771.88,433.09q1,12.15-5.44,19.15t-19.46,8l-13.93,1.1-3.89-49.19L744.6,411q12-.95,19.21,4.88T771.88,433.09Zm-10.81,1.12q-1.26-15.84-15.25-14.74l-5.55.44,2.53,32,4.47-.35Q762.35,450.41,761.07,434.21Z"/><path class="cls-4" d="M533.56,480.53a1,1,0,0,1-1-.89l-5.86-49a1,1,0,0,1,.88-1.12l17.09-2c6.82-.82,12.11-.39,15.73,1.27,3.79,1.74,6,4.92,6.52,9.45a12.78,12.78,0,0,1-1.39,7.9,10.49,10.49,0,0,1-3.44,3.76,11.13,11.13,0,0,1,5.31,3.06,13.21,13.21,0,0,1,3.18,7.62,13.62,13.62,0,0,1-4.05,11.94c-3.19,3.11-7.82,5-13.78,5.75l-19.07,2.28Zm-4.74-49.12,5.62,47,18.07-2.15c5.51-.66,9.75-2.41,12.61-5.2a11.52,11.52,0,0,0,3.46-10.26,11.29,11.29,0,0,0-2.66-6.5,10.58,10.58,0,0,0-6.48-2.92,1,1,0,0,1-.86-.88l0-.33a1,1,0,0,1,.65-1.06,8.42,8.42,0,0,0,4.58-4,10.72,10.72,0,0,0,1.15-6.68c-.45-3.84-2.21-6.41-5.36-7.86s-8.21-1.88-14.65-1.11Zm16.75,37.31a1,1,0,0,1-1-.88l-1.23-10.29a1,1,0,0,1,.21-.74,1,1,0,0,1,.67-.38l4.4-.52a8.62,8.62,0,0,1,5.6.87,5.53,5.53,0,0,1,2.59,4.29,5.87,5.87,0,0,1-1.35,4.92,8.11,8.11,0,0,1-5.11,2.17l-4.66.56Zm-.11-10.41,1,8.29,3.66-.44a6.14,6.14,0,0,0,3.88-1.55,3.91,3.91,0,0,0,.82-3.3,3.53,3.53,0,0,0-1.63-2.81,6.73,6.73,0,0,0-4.33-.59Zm-2.27-9.56a1,1,0,0,1-.63-.21,1.05,1.05,0,0,1-.37-.67l-1.05-8.79a1,1,0,0,1,.21-.74A1,1,0,0,1,542,438l3.72-.45c6-.71,7.56,1.92,7.84,4.26a5.12,5.12,0,0,1-1.44,4.52,8.29,8.29,0,0,1-4.85,2l-4,.47Zm.07-8.91.81,6.79,3-.36a6.36,6.36,0,0,0,3.69-1.43,3.12,3.12,0,0,0,.83-2.82c-.1-.86-.37-3.13-5.6-2.5Z"/><path class="cls-4" d="M579.8,475a1,1,0,0,1-1-.88l-5.86-49a1,1,0,0,1,.88-1.12l16-1.92c13.92-1.66,21.6,2.7,22.82,13,.69,5.71-1.43,10.56-6.28,14.44l16.14,18.83a1,1,0,0,1-.64,1.66l-15,1.79a1,1,0,0,1-.92-.39l-12.17-16.13-1.78.22,2,16.82a1,1,0,0,1-.88,1.12L579.92,475Zm-4.73-49.12,5.61,47,11.24-1.35-2-16.82a1,1,0,0,1,.88-1.12l3.35-.4a1,1,0,0,1,.93.39l12.17,16.12,12.57-1.5L604.2,450a1,1,0,0,1-.23-.77,1,1,0,0,1,.41-.7c4.89-3.57,7-7.89,6.33-13.23-1.09-9.07-7.82-12.74-20.59-11.21Zm14.65,19.76a1,1,0,0,1-1-.89l-1.33-11.19a1,1,0,0,1,.88-1.12l2.61-.31c6.44-.77,8.19,2.36,8.53,5.12a6.87,6.87,0,0,1-1.44,5.6,8.67,8.67,0,0,1-5.65,2.48l-2.48.3Zm-.22-11.32,1.1,9.19,1.48-.17a6.82,6.82,0,0,0,4.39-1.83,4.88,4.88,0,0,0,.94-4c-.21-1.74-1.09-4-6.29-3.37Z"/><path class="cls-4" d="M621,470.08a1,1,0,0,1-.74-.32,1,1,0,0,1-.25-.88l10.11-51.1A1,1,0,0,1,631,417l17.66-2.11a1,1,0,0,1,1,.58L671.7,462.7a1,1,0,0,1,0,.91,1,1,0,0,1-.76.51l-14.48,1.73a1,1,0,0,1-1-.63l-3.23-8.17-14.38,1.72-1.27,8.72a1,1,0,0,1-.88.85l-14.54,1.74Zm10.95-51.2-9.7,49,12.41-1.49,1.27-8.71a1,1,0,0,1,.88-.86l15.91-1.9a1,1,0,0,1,1.06.63l3.22,8.17,12.33-1.47L648.12,417Zm6.43,28.8a1,1,0,0,1-1-1.15c1.11-7.9,1.81-13.24,2.09-15.88s.45-4.59.51-5.72a1,1,0,0,1,2-.24c.36,1.17,1.06,3.15,2.09,5.87s1.92,5,2.62,6.7l3.07,7.8a1,1,0,0,1-.07.88,1,1,0,0,1-.74.49l-10.42,1.24Zm3.2-17.95c0,.36-.07.73-.11,1.13-.27,2.55-.9,7.35-1.92,14.66l7.83-.93L644.75,438c-.7-1.72-1.58-4-2.63-6.74Z"/><path class="cls-4" d="M676.09,463.5a1,1,0,0,1-1-.89l-5.86-49a1,1,0,0,1,.88-1.11l17.3-2.07a1,1,0,0,1,.94.43l19.54,28.48c-.52-3-.91-5.64-1.16-7.74l-2.64-22.15a1,1,0,0,1,.88-1.12l11.79-1.41a1,1,0,0,1,.74.21,1,1,0,0,1,.38.67l5.86,49a1,1,0,0,1-.88,1.11L705.5,460a1,1,0,0,1-1-.43l-19.7-29c.64,3.44,1.09,6.22,1.34,8.3L688.81,461a1,1,0,0,1-.2.74,1,1,0,0,1-.67.38l-11.73,1.4Zm-4.74-49.13,5.62,47,9.73-1.16-2.52-21.09c-.34-2.81-1-6.94-2.11-12.28a1,1,0,0,1,.17-.78,1,1,0,0,1,.7-.41l.3,0a1,1,0,0,1,1,.43l21.67,31.88L721.62,456,716,409l-9.8,1.17,2.53,21.15c.35,3,1,6.93,1.88,11.78a1,1,0,0,1-.87,1.18l-.2,0a1,1,0,0,1-.95-.43L687,412.5Z"/><path class="cls-4" d="M733.33,456.66a1,1,0,0,1-.63-.22,1,1,0,0,1-.37-.67l-5.86-49a1,1,0,0,1,.88-1.11l17-2c8.09-1,14.7.39,19.65,4s8,9.51,8.9,17.35h0c1,8.42-.58,15.3-4.71,20.46s-10.47,8.27-18.85,9.27l-15.85,1.9Zm-4.74-49.13,5.62,47,14.85-1.77c7.84-.94,13.74-3.81,17.53-8.54s5.22-11.1,4.28-19c-.87-7.27-3.6-12.64-8.1-16s-10.66-4.57-18.22-3.66Zm16.68,36.69a1,1,0,0,1-1-.89L741,415.88a1,1,0,0,1,.88-1.12l3.85-.46c3.92-.46,7,.4,9.3,2.56s3.6,5.57,4.16,10.28h0c.6,5,0,8.94-1.68,11.69s-4.84,4.51-9.16,5l-3,.35Zm-2.17-27.58,3,25.45,2-.23c3.73-.45,6.25-1.79,7.69-4.09s1.94-5.85,1.39-10.4c-.5-4.23-1.7-7.28-3.55-9.06s-4.33-2.41-7.67-2Z"/><polygon class="cls-3" points="432.25 205.91 349.27 225.73 335.15 167.03 418.01 147.52 432.25 205.91"/><polygon class="cls-3" points="394.38 232.39 370.86 216.7 389.64 212.28 408.43 207.85 394.38 232.39"/><path class="cls-4" d="M379,207a1,1,0,0,1-.33-.06l-22.09-7.32a10.79,10.79,0,0,1,6.79-20.49L366,180l.88-2.64h0a10.8,10.8,0,0,1,13.64-6.84,10.82,10.82,0,0,1,6.84,13.64c-.41,1.24-1.08,3.26-1.17,3.57,0,0,0,.06,0,.09-4.64,14-5.76,17.36-6.11,18.27h0l-.06.17A1.08,1.08,0,0,1,379,207Zm-19-26.28a8.73,8.73,0,0,0-3.89.93,8.65,8.65,0,0,0,1.15,15.93l21.08,7c1-3,4.38-13.17,5.79-17.43h0c.13-.54.47-1.56,1.17-3.67a8.65,8.65,0,0,0-16.42-5.44h0l-1.21,3.65a1.08,1.08,0,0,1-1.36.68l-3.63-1.21A8.73,8.73,0,0,0,360,180.74Z"/><path class="cls-4" d="M346.62,237a1.07,1.07,0,0,1-1-.59l-27.34-53.82a1.06,1.06,0,0,1-.06-.82,1.08,1.08,0,0,1,.53-.62l54.36-27.28a1.07,1.07,0,0,1,1,1.91l-53.39,26.8,26.37,51.91L369.86,223a1.09,1.09,0,0,1,.85-.05l20.63,7.63,6.24-21.23a1.08,1.08,0,0,1,.55-.65L421.3,197l-26.42-51.6-10.7,5.38a1.07,1.07,0,0,1-1-1.92L394.87,143a1.08,1.08,0,0,1,1.44.47L423.69,197a1.05,1.05,0,0,1-.47,1.44l-23.71,12-6.44,21.89a1.08,1.08,0,0,1-.55.65,1.09,1.09,0,0,1-.85.05l-21.26-7.87-23.31,11.8A1.2,1.2,0,0,1,346.62,237Z"/><polygon class="cls-3" points="876.07 413.35 818.08 386.04 837.34 344.97 895.12 372.41 876.07 413.35"/><polygon class="cls-3" points="841.42 411.12 834.98 390.87 848.08 397.09 861.18 403.31 841.42 411.12"/><path class="cls-4" d="M844.79,389.17l-.17,0a.8.8,0,0,1-.51-.35l-9.52-14.67a8.11,8.11,0,0,1,13.6-8.83l1.13,1.74,1.75-1.13h0a8.14,8.14,0,0,1,11.22,2.38,8.13,8.13,0,0,1-2.39,11.22l-2.36,1.54-.06,0c-9.27,6-11.52,7.49-12.15,7.86h0l-.11.08A.9.9,0,0,1,844.79,389.17Zm-3.43-25.94a6.46,6.46,0,0,0-6.32,5.14,6.47,6.47,0,0,0,.9,4.89l9.09,14,11.58-7.51v0c.33-.26,1-.69,2.41-1.6a6.5,6.5,0,0,0-7.08-10.9l-2.43,1.57a.76.76,0,0,1-.6.11.8.8,0,0,1-.51-.34l-1.57-2.42a6.49,6.49,0,0,0-5.48-2.95Z"/><path class="cls-4" d="M840.24,410.58a.5.5,0,0,1-.17,0,.76.76,0,0,1-.52-.37l-8.79-14.59-19.21-4a.81.81,0,0,1-.62-.95l9.22-44.42a.84.84,0,0,1,.35-.51.82.82,0,0,1,.61-.11l44.69,9.5a.81.81,0,0,1-.33,1.58l-43.91-9.34-8.89,42.84,18.77,3.93a.76.76,0,0,1,.52.37l8.52,14.16,13.63-9.53a.82.82,0,0,1,.63-.13l19.1,4,8.71-42.67-8.8-1.87a.81.81,0,0,1-.62-1,.8.8,0,0,1,1-.61l9.58,2a.81.81,0,0,1,.62.95l-9,44.24a.77.77,0,0,1-.35.51.8.8,0,0,1-.6.12l-19.55-4.09-14,9.82A.86.86,0,0,1,840.24,410.58Z"/><path class="cls-2" d="M244.29,486.16c6.43,3.6,10.15,9.21,8.29,12.51s-8.57,3.06-15-.54c-4.45-2.5-6.71-7.53-7.68-10.39a2.08,2.08,0,0,1,1.52-2.71C234.37,484.36,239.84,483.66,244.29,486.16Z"/><path class="cls-2" d="M276.27,488.16c-3.63,3.69-8.11,5.16-10,3.29s-.48-6.36,3.15-10c2.51-2.55,6.33-3.15,8.45-3.27a1.46,1.46,0,0,1,1.55,1.53C279.33,481.79,278.78,485.62,276.27,488.16Z"/><path class="cls-4" d="M256,515.22h-2A155.27,155.27,0,0,0,252.37,499q-.54-3.51-1.25-7.07-1.45-7.38-3.6-14.88a1,1,0,1,1,1.93-.56A169.84,169.84,0,0,1,256,515.22Z"/><path class="cls-4" d="M246.81,472.25a1,1,0,0,1-1-.7,169.78,169.78,0,0,0-11.58-28.09,1,1,0,1,1,1.75-1,172,172,0,0,1,11.75,28.46,1,1,0,0,1-.65,1.27A1.15,1.15,0,0,1,246.81,472.25Z"/><circle class="cls-2" cx="238.04" cy="451.21" r="12.48" transform="translate(-231.26 651.22) rotate(-85.27)"/><path class="cls-4" d="M273.84,455.78c-.49,1.39-.95,2.8-1.39,4.24-.07.21-.13.43-.19.64-.16.54-.32,1.08-.47,1.62h0c-1,3.53-1.86,7.17-2.59,10.84s-1.32,7.22-1.83,10.76c-.37,2.62-.69,5.19-1,7.69-1,9.56-1.41,18.07-1.54,23.64h-2a256.36,256.36,0,0,1,4.44-42.81c.65-3.21,1.39-6.4,2.24-9.52.15-.55.3-1.1.46-1.65.05-.2.11-.4.17-.61.15-.53.31-1.06.48-1.58.4-1.34.83-2.65,1.29-3.94a1,1,0,0,1,1.28-.61A1,1,0,0,1,273.84,455.78Z"/><polygon class="cls-1" points="283.55 458.09 274.73 449.27 262.68 452.5 259.45 464.55 268.27 473.38 280.32 470.15 283.55 458.09"/><path class="cls-5" d="M238,453.17c-6.64,0-13.8-1.53-13.8-4.91a1,1,0,1,1,2,0c0,.87,4,2.9,11.79,2.9s11.79-2,11.79-2.9a1,1,0,1,1,2,0C251.84,451.64,244.69,453.17,238,453.17Z"/><path class="cls-5" d="M238,453.17c-6.64,0-13.8-1.53-13.8-4.91a1,1,0,1,1,2,0c0,.87,4,2.9,11.79,2.9s11.79-2,11.79-2.9a1,1,0,1,1,2,0C251.84,451.64,244.69,453.17,238,453.17Z"/><path class="cls-5" d="M248.36,456.5a11.55,11.55,0,0,1-2.64-.35,37.2,37.2,0,0,1-16.18-9.33c-2.63-2.82-2.54-4.52-2-5.46a1,1,0,0,1,1.74,1c-.17.29.15,1.39,1.73,3.08a31.65,31.65,0,0,0,7,5.32,31.09,31.09,0,0,0,8.14,3.42c2.25.52,3.36.25,3.52,0a1,1,0,0,1,1.75,1C251.06,455.83,250.21,456.5,248.36,456.5Z"/><path class="cls-5" d="M248.36,456.5a11.55,11.55,0,0,1-2.64-.35,37.2,37.2,0,0,1-16.18-9.33c-2.63-2.82-2.54-4.52-2-5.46a1,1,0,0,1,1.74,1c-.17.29.15,1.39,1.73,3.08a31.65,31.65,0,0,0,7,5.32,31.09,31.09,0,0,0,8.14,3.42c2.25.52,3.36.25,3.52,0a1,1,0,0,1,1.75,1C251.06,455.83,250.21,456.5,248.36,456.5Z"/><path class="cls-5" d="M259.45,465.56a1,1,0,0,1-.26-2l24.1-6.46a1,1,0,0,1,1.24.71,1,1,0,0,1-.72,1.23l-24.1,6.46A.82.82,0,0,1,259.45,465.56Z"/><path class="cls-5" d="M271.5,462.33a1,1,0,0,1-.71-.3L262,453.21a1,1,0,0,1,1.42-1.42l8.82,8.82a1,1,0,0,1,0,1.42A1,1,0,0,1,271.5,462.33Z"/><path class="cls-3" d="M440.94,53s-59.46,0-59.53,0H367.17a12.21,12.21,0,0,1-.16-2.77h0V50a.88.88,0,0,1,0-.14,24.44,24.44,0,0,1,.82-3.68A19.49,19.49,0,0,1,370,41.4a13,13,0,0,1,4.43-4.4,17.57,17.57,0,0,1,5.84-2.14,13.22,13.22,0,0,1,9.82,1.93c1.78,1.21,3.42,3.08,5.65,3.37,3.43.45,4.33-3.32,4.6-5.93.75-7,1.35-18,9.91-20a4.94,4.94,0,0,1,3.88.62c2.13,1.34,3.48,4.18,4.25,6.51,1.24,3.76,1.92,7.84,3.47,11.48,1.15,2.7,3.43,4.33,6.42,3.93a7.2,7.2,0,0,1,2.9.21,10.81,10.81,0,0,1,5.41,3.9,14.77,14.77,0,0,1,1.33,2C439.57,45.9,440.28,49.68,440.94,53Z"/></g></g></svg>