<svg xmlns="http://www.w3.org/2000/svg" viewBox="0 0 829.63 518.9"><defs><style>.cls-1{fill:#dd9b9b;}.cls-2{fill:#232323;}.cls-3{fill:#ba8a8a;}.cls-4{fill:#fff;}.cls-5{fill:#dce5f7;}</style></defs><title>Asset 5</title><g id="Layer_2" data-name="Layer 2"><g id="Layer_2-2" data-name="Layer 2"><path class="cls-1" d="M62,462.18c10,5.6,15.75,14.3,12.87,19.43s-13.3,4.75-23.29-.84c-6.91-3.88-10.42-11.69-11.92-16.14a3.23,3.23,0,0,1,2.35-4.2C46.56,459.39,55.06,458.31,62,462.18Z"/><path class="cls-1" d="M102.33,465.3c-5.64,5.71-12.59,8-15.53,5.1s-.74-9.88,4.9-15.6c3.9-3.95,9.83-4.87,13.12-5.07a2.28,2.28,0,0,1,2.41,2.38C107.08,455.4,106.23,461.34,102.33,465.3Z"/><path class="cls-2" d="M78.88,518.85a1,1,0,0,1-1-1c0-22.39-3.48-45.92-10.36-69.93a1,1,0,1,1,2-.56c6.93,24.19,10.44,47.91,10.44,70.49A1,1,0,0,1,78.88,518.85Z"/><path class="cls-2" d="M65.88,439.93a.89.89,0,0,1-.85-.62c-8.4-26.34-17.94-43.57-18-43.74a.89.89,0,0,1,.35-1.22.88.88,0,0,1,1.21.35c.1.17,9.73,17.56,18.19,44.06a.89.89,0,0,1-.86,1.17Z"/><circle class="cls-3" cx="52.27" cy="407.93" r="19.37" transform="translate(-358.83 419.37) rotate(-84.29)"/><path class="cls-2" d="M83,518.85a1,1,0,0,1-1-1c0-.6-1-60.56,14.13-103.68a1,1,0,1,1,1.94.69C83,457.61,84,517.2,84,517.8a1,1,0,0,1-1,1.05Z"/><polygon class="cls-1" points="113.64 418.61 99.94 404.92 81.23 409.93 76.22 428.64 89.92 442.34 108.63 437.33 113.64 418.61"/><path class="cls-4" d="M52.27,410.17c-10,0-20.61-2.39-20.61-6.82a.75.75,0,0,1,1.5,0c0,2.51,7.85,5.31,19.11,5.31s19.11-2.8,19.11-5.31a.76.76,0,0,1,1.51,0C72.89,407.78,62.27,410.17,52.27,410.17Z"/><path class="cls-4" d="M52.27,410.17c-10,0-20.61-2.39-20.61-6.82a.75.75,0,0,1,1.5,0c0,2.51,7.85,5.31,19.11,5.31s19.11-2.8,19.11-5.31a.76.76,0,0,1,1.51,0C72.89,407.78,62.27,410.17,52.27,410.17Z"/><path class="cls-4" d="M68.33,415.34c-4.37,0-11.21-2.62-17.21-6.08-8.66-5-16.66-12.37-14.45-16.21a.76.76,0,0,1,1-.28.75.75,0,0,1,.27,1c-1.25,2.18,4.15,8.53,13.9,14.15s17.95,7.12,19.21,4.95a.74.74,0,0,1,1-.28.75.75,0,0,1,.28,1C71.7,414.83,70.25,415.34,68.33,415.34Z"/><path class="cls-4" d="M68.33,415.34c-4.37,0-11.21-2.62-17.21-6.08-8.66-5-16.66-12.37-14.45-16.21a.76.76,0,0,1,1-.28.75.75,0,0,1,.27,1c-1.25,2.18,4.15,8.53,13.9,14.15s17.95,7.12,19.21,4.95a.74.74,0,0,1,1-.28.75.75,0,0,1,.28,1C71.7,414.83,70.25,415.34,68.33,415.34Z"/><path class="cls-4" d="M76.22,429.4a.76.76,0,0,1-.2-1.49l37.43-10a.75.75,0,1,1,.39,1.45l-37.43,10A.63.63,0,0,1,76.22,429.4Z"/><path class="cls-4" d="M94.93,424.38a.73.73,0,0,1-.53-.22l-13.7-13.7a.75.75,0,1,1,1.06-1.06l13.7,13.7a.75.75,0,0,1-.53,1.28Z"/><path class="cls-1" d="M487.83,422.69a13.15,13.15,0,0,1,.79,9.94c-18.32,56.93-67.24,93.58-115.11,83.6-52.15-10.88-83.31-73-69.59-138.78q1.2-5.74,2.79-11.27l11.78,26.76,22-20.31,12.07,27.43,22-20.32,12.07,27.43,22-20.31,12.07,27.42,22-20.31,12.07,27.43,22-20.32Z"/><path class="cls-2" d="M511.42,442.89a1,1,0,0,1-1-.79l-4.63-19.29-24.91,14a1,1,0,0,1-1.52-.71l-5.19-28-24.85,14a1,1,0,0,1-.94,0,1,1,0,0,1-.58-.75l-5.19-28-24.85,14a1,1,0,0,1-.94,0,1.06,1.06,0,0,1-.58-.75l-5.18-28.05-24.85,14a1,1,0,0,1-.94,0,1,1,0,0,1-.58-.74l-5.19-28.05-24.85,14a1,1,0,0,1-.94,0,1,1,0,0,1-.58-.75l-4.79-25.92c-1.36,2.53-2.66,5.12-3.89,7.75-11.47,24.54-16,50.66-13.15,75.54a1,1,0,0,1-.91,1.15,1,1,0,0,1-1.14-.91c-2.91-25.26,1.7-51.77,13.33-76.65,1.66-3.56,3.46-7.06,5.35-10.41a1,1,0,0,1,1.91.32l5.06,27.34,24.84-14a1,1,0,0,1,1.52.71l5.19,28,24.85-14a1,1,0,0,1,1.52.71L418,404.85l24.85-14a1,1,0,0,1,.94,0,1,1,0,0,1,.58.74l5.18,28.05,24.85-14a1,1,0,0,1,.94,0,1,1,0,0,1,.58.74l5.19,28.05,24.85-14a1,1,0,0,1,.92-.05,1.06,1.06,0,0,1,.59.7l4.95,20.62a1,1,0,0,1-.76,1.24A1.07,1.07,0,0,1,511.42,442.89Z"/><path class="cls-2" d="M413,517.93A80,80,0,0,1,379,510.5c-22.37-10.45-38.78-31-46.21-57.76a1,1,0,0,1,2-.55c7.27,26.2,23.29,46.25,45.11,56.45C421.14,528,474.2,507.5,506,460a1,1,0,0,1,1.71,1.15c-15.5,23.15-36.84,40.91-60.08,50A95.1,95.1,0,0,1,413,517.93Z"/><polygon class="cls-4" points="374.3 430.5 377.05 435.7 382.08 438.55 377.05 441.39 374.3 446.59 371.54 441.39 366.51 438.55 371.54 435.7 374.3 430.5"/><polygon class="cls-4" points="389.87 441.86 394.25 450.12 402.24 454.63 394.25 459.15 389.87 467.41 385.5 459.15 377.5 454.63 385.5 450.12 389.87 441.86"/><path class="cls-1" d="M532.56,419.79a13.1,13.1,0,0,0-1,9.93C548.78,487,597,524.6,645,515.55c52.36-9.86,84.73-71.37,72.3-137.39q-1.1-5.78-2.58-11.33l-12.3,26.53-21.63-20.73-12.6,27.18-21.63-20.74L634,406.26l-21.63-20.74L599.74,412.7,578.12,392l-12.61,27.19-21.63-20.74Z"/><path class="cls-2" d="M555.77,441.24a1,1,0,0,1-.24,0,1,1,0,0,1-.76-1.24l4.55-19a1.06,1.06,0,0,1,.59-.7,1,1,0,0,1,.92.05l24.85,14,5.19-28.05a1,1,0,0,1,.58-.74,1,1,0,0,1,.94,0l24.85,14,5.18-28.05a1,1,0,0,1,.58-.74,1,1,0,0,1,.94,0l24.85,14L654,376.8a1,1,0,0,1,1.52-.71l24.85,14,5.19-28a1,1,0,0,1,1.52-.71l24.84,14L717,348a1,1,0,0,1,1.91-.32c1.89,3.35,3.69,6.85,5.35,10.41a150.77,150.77,0,0,1,12.66,41.73,1,1,0,1,1-2,.3A148.67,148.67,0,0,0,722.35,359c-1.23-2.63-2.53-5.22-3.89-7.75l-4.79,25.92a1,1,0,0,1-.58.75,1,1,0,0,1-.94,0l-24.85-14-5.19,28.05a1,1,0,0,1-.58.74,1,1,0,0,1-.94,0l-24.85-14-5.18,28.05a1.06,1.06,0,0,1-.58.75,1,1,0,0,1-.94,0l-24.85-14-5.19,28a1,1,0,0,1-.58.75,1,1,0,0,1-.94,0l-24.85-14-5.19,28a1,1,0,0,1-1.52.71l-24.91-14-4.24,17.64A1,1,0,0,1,555.77,441.24Z"/><path class="cls-2" d="M653.85,517.94c-34.53,0-70.88-20.88-95-57.21a1,1,0,0,1,.29-1.43,1,1,0,0,1,1.43.29C592.31,507.4,645.48,528,687,508.64c15.48-7.24,28.22-19.57,36.85-35.67a1,1,0,0,1,1.81,1c-8.83,16.5-21.9,29.14-37.78,36.56A79.81,79.81,0,0,1,653.85,517.94Z"/><polygon class="cls-4" points="660.09 470.25 654.89 473 652.04 478.04 649.2 473 644 470.25 649.2 467.5 652.04 462.46 654.89 467.5 660.09 470.25"/><polygon class="cls-4" points="648.73 485.82 640.47 490.2 635.95 498.19 631.44 490.2 623.18 485.82 631.44 481.45 635.95 473.46 640.47 481.45 648.73 485.82"/><polygon class="cls-1" points="275.66 218.26 278.41 223.46 283.45 226.3 278.41 229.14 275.66 234.34 272.9 229.14 267.87 226.3 272.9 223.46 275.66 218.26"/><polygon class="cls-1" points="626.4 348.01 629.15 353.21 634.19 356.06 629.15 358.9 626.4 364.1 623.64 358.9 618.61 356.06 623.64 353.21 626.4 348.01"/><polygon class="cls-1" points="685.76 270.11 688.52 275.31 693.55 278.16 688.52 281 685.76 286.2 683.01 281 677.98 278.16 683.01 275.31 685.76 270.11"/><polygon class="cls-1" points="228.08 175.22 230.84 180.42 235.87 183.26 230.84 186.11 228.08 191.31 225.33 186.11 220.29 183.26 225.33 180.42 228.08 175.22"/><path class="cls-1" d="M364.76,223.32h0A10.65,10.65,0,0,1,354.11,234h0a10.65,10.65,0,0,1-10.65-10.65h0a10.65,10.65,0,0,1,10.65-10.65h0A10.65,10.65,0,0,1,364.76,223.32Z"/><path class="cls-1" d="M389.56,250.36h0A5.67,5.67,0,0,1,383.9,256h0a5.66,5.66,0,0,1-5.66-5.66h0a5.65,5.65,0,0,1,5.66-5.66h0A5.66,5.66,0,0,1,389.56,250.36Z"/><path class="cls-3" d="M374.31,243.73H354.94a1,1,0,0,1-1-1V223.32a1,1,0,0,1,1-1h19.37a1,1,0,0,1,1,1V242.7A1,1,0,0,1,374.31,243.73ZM356,241.67h17.31V224.35H356Z"/><path class="cls-2" d="M74.77,298.69a1.23,1.23,0,0,1-1.18-.88,1.25,1.25,0,0,1,.83-1.54,44,44,0,0,0,11.89-5.37,18.39,18.39,0,0,1-5.47-4.06c-1.77-1.93-2.48-3.82-2.1-5.61a5.9,5.9,0,0,1,3.41-3.91,8.47,8.47,0,0,1,7.43-.06,7,7,0,0,1,3.81,5.07,8.84,8.84,0,0,1-2.28,7.57A13.8,13.8,0,0,0,96,290a11.65,11.65,0,0,0,8.93-7.2,1.24,1.24,0,1,1,2.27,1,14,14,0,0,1-10.78,8.66,16.52,16.52,0,0,1-7.39-.46c-4.21,3.47-10.38,5.66-13.89,6.7A1.12,1.12,0,0,1,74.77,298.69ZM86,278.9a6.11,6.11,0,0,0-2.7.63c-.55.28-1.85,1-2.09,2.2s.68,2.53,1.5,3.43a15.64,15.64,0,0,0,5.79,4c1.85-1.81,3-3.94,2.5-6.36a4.43,4.43,0,0,0-2.47-3.29A5.62,5.62,0,0,0,86,278.9Z"/><path class="cls-1" d="M665.38,171.37A104.51,104.51,0,0,0,583.72,46.92c-56.15-11.26-111.41,25.43-122.9,81.54a104,104,0,0,0,4.65,58c12.7,33.42,29,43.51,20.06,99.08l-1.1-.24a12.5,12.5,0,0,0-14.84,9.59h0a12.48,12.48,0,0,0,8.85,14.63,12.47,12.47,0,0,0,5.42,21.38,12.45,12.45,0,0,0-2,4.54h0a12.48,12.48,0,0,0,9.58,14.83l8.31,1.79a13.12,13.12,0,0,0-.76,2.37h0a12.48,12.48,0,0,0,9.59,14.83L520,371.69a12.48,12.48,0,0,0,14.83-9.59h0a12.31,12.31,0,0,0,.28-2.47l8.31,1.79a12.48,12.48,0,0,0,14.9-14.53,12.48,12.48,0,0,0,14.51-9.64h0a12.47,12.47,0,0,0-.78-7.62,12.47,12.47,0,0,0,14.08-9.71h0a12.48,12.48,0,0,0-8.2-14.44c14.89-56.22,34.67-57.13,60-83.07A104.08,104.08,0,0,0,665.38,171.37Z"/><path class="cls-2" d="M610.78,209.72a1.49,1.49,0,0,1-.87-.29,1.44,1.44,0,0,1-.29-2A103,103,0,0,0,474.33,57.31a1.44,1.44,0,1,1-1.48-2.48A105.9,105.9,0,0,1,611.93,209.14,1.42,1.42,0,0,1,610.78,209.72Z"/><path class="cls-2" d="M514.51,373.28c-.38,0-.76,0-1.14,0l-11.64-.93a14,14,0,0,1-12.78-15c0-.35.07-.69.12-1l-6.83-.55a13.94,13.94,0,0,1-12.78-15,14.13,14.13,0,0,1,.75-3.54,13.91,13.91,0,0,1-8.57-20.66,13.92,13.92,0,0,1,4.9-27.18c.9-41.13-8.64-55.51-20.68-73.65-3.94-5.94-8-12.08-12.13-19.69A105.64,105.64,0,0,1,445.4,78.39a1.44,1.44,0,1,1,2.22,1.84,102.76,102.76,0,0,0-11.35,114.42c4.05,7.5,8.09,13.58,12,19.47,12.47,18.78,22.31,33.62,21.12,76.83a1.44,1.44,0,0,1-.48,1,1.47,1.47,0,0,1-1.08.36l-1.13-.09a11,11,0,0,0-2.42,21.93,1.44,1.44,0,0,1,.89,2.36,11,11,0,0,0,7.25,18.11,1.44,1.44,0,0,1,1.12,2.1,11.05,11.05,0,0,0,8.93,16.1l8.48.67a1.49,1.49,0,0,1,1.07.62,1.43,1.43,0,0,1,.2,1.22,11.49,11.49,0,0,0-.39,2.17A11.06,11.06,0,0,0,502,369.43l11.64.93A11.07,11.07,0,0,0,525.45,358a1.44,1.44,0,0,1,.39-1.17,1.46,1.46,0,0,1,1.16-.44l8.47.68A11,11,0,0,0,547.36,347a10.81,10.81,0,0,0-.52-4.34,1.46,1.46,0,0,1,1.45-1.9,11,11,0,0,0,11.59-10.13,10.84,10.84,0,0,0-1.57-6.59,1.46,1.46,0,0,1,0-1.47,1.44,1.44,0,0,1,1.25-.73h0A11,11,0,0,0,561.92,300a1.45,1.45,0,0,1-1.15-1.6C566.29,255,578.94,241.54,593.6,226l.61-.65a1.44,1.44,0,1,1,2.1,2l-.61.65c-14.75,15.68-26.43,28.1-31.9,69.5a13.92,13.92,0,0,1-2,27.11,13.91,13.91,0,0,1-11.75,19,13.6,13.6,0,0,1,.18,3.61,13.92,13.92,0,0,1-15,12.78l-6.83-.55c0,.35,0,.69,0,1a13.93,13.93,0,0,1-13.86,12.82Z"/><path class="cls-4" d="M530.73,287.08a1.44,1.44,0,0,1-1.44-1.43c-.17-15.2,1-40.13,3.23-68.4a1.44,1.44,0,0,1,2.88.23c-2.22,28.19-3.39,53-3.22,68.14a1.45,1.45,0,0,1-1.43,1.46Z"/><path class="cls-4" d="M535.08,205.39H535a1.44,1.44,0,0,1-1.31-1.56c1-11.56,2.1-22.36,3.2-32a63.85,63.85,0,0,1-11.11,1.76c-14.59,1-28.13-3.32-37.13-11.86a35.56,35.56,0,0,1-11.27-28.52,25.47,25.47,0,0,1,6.52-15.4,18,18,0,0,1,15.84-5.6,16.62,16.62,0,0,1,1.82.44,1.46,1.46,0,0,1,1,1.81,1.44,1.44,0,0,1-1.81,1,12.28,12.28,0,0,0-1.48-.36,15.06,15.06,0,0,0-13.24,4.75,22.57,22.57,0,0,0-5.73,13.66c-.81,9.31,3.16,19.34,10.37,26.18,12.18,11.54,30.62,13.53,46.61,9.11,1.82-15.41,3.66-27.52,5.3-34.54,1.08-4.62,2.5-9.43,5.61-13.36,3.52-4.45,8.84-6.75,13.58-5.88,7.31,1.36,11.36,9.47,11.59,16.79.3,9.45-3.85,19.12-11.38,26.51a53.82,53.82,0,0,1-22,12.72c-1.14,9.88-2.27,21.06-3.33,33.07A1.44,1.44,0,0,1,535.08,205.39Zm24.54-87.71a12.26,12.26,0,0,0-9.25,5c-2.76,3.48-4.07,7.93-5.07,12.22-1.58,6.75-3.34,18.28-5.09,33a51.17,51.17,0,0,0,19.66-11.62c6.85-6.73,10.78-15.84,10.52-24.36-.2-6.16-3.43-13-9.24-14A8.62,8.62,0,0,0,559.62,117.68Z"/><path class="cls-4" d="M508.85,285.37a1.45,1.45,0,0,1-1.44-1.4,637.72,637.72,0,0,1,2.29-81.69c.54-5.81,1.28-11.76,2-17.52,2.44-19.64,5-40,.3-59.43a1.44,1.44,0,1,1,2.8-.67c4.79,20,2.23,40.56-.24,60.46-.71,5.73-1.45,11.66-2,17.43a637.43,637.43,0,0,0-2.28,81.32,1.43,1.43,0,0,1-1.39,1.49Z"/><path class="cls-2" d="M516.14,321.39H516l-53.41-4.59a1.44,1.44,0,0,1,.25-2.87l53.4,4.59a1.44,1.44,0,0,1,1.32,1.56A1.45,1.45,0,0,1,516.14,321.39Z"/><path class="cls-2" d="M548.21,343.61h-.12L495,339a1.45,1.45,0,0,1,.25-2.88l53.09,4.57a1.44,1.44,0,0,1-.13,2.88Z"/><path class="cls-2" d="M562.2,300h-.12l-94.22-8.1a1.44,1.44,0,0,1,.25-2.87l94.21,8.09a1.45,1.45,0,0,1-.12,2.89Z"/><path class="cls-5" d="M93.55,183.26s-75.06,0-75.14,0H.43a15.77,15.77,0,0,1-.21-3.5h0l0-.29c0-.09,0-.15,0-.18a31.61,31.61,0,0,1,1-4.63A25.48,25.48,0,0,1,4,168.56,16.43,16.43,0,0,1,9.62,163a22.21,22.21,0,0,1,7.36-2.7,16.69,16.69,0,0,1,12.4,2.44c2.25,1.53,4.32,3.89,7.14,4.25,4.32.56,5.46-4.19,5.81-7.48.94-8.86,1.69-22.67,12.5-25.22a6.19,6.19,0,0,1,4.9.78c2.69,1.69,4.39,5.28,5.36,8.22,1.57,4.74,2.43,9.89,4.39,14.49,1.45,3.4,4.32,5.47,8.1,5a9,9,0,0,1,3.66.27,13.66,13.66,0,0,1,6.83,4.91,19.13,19.13,0,0,1,1.68,2.53C91.82,174.25,92.71,179,93.55,183.26Z"/><path class="cls-5" d="M422.26,79.6H183a32.69,32.69,0,0,1,.26-5.76h0a52.38,52.38,0,0,1,6.2-18.42c5.06-9,12.64-15.63,21.15-13.58a18.81,18.81,0,0,1,8,4.51c4.1,3.66,7.4,8.16,11.46,11.86s9.25,6.68,14.72,6.28c6.84-.5,11.75-6.67,12.78-13.16C260.1,35.7,259.94,4.82,279.33.54l1.09-.21c16.56-2.86,28,13.45,32.4,28.07.5,1.66.91,3.3,1.23,4.89a62.93,62.93,0,0,1,1.39,12.21l.09.79c.13,1.13.28,2.26.47,3.36a27,27,0,0,0,2.3,7.61,3.45,3.45,0,0,0,2,2c2.65.64,4.87-2.45,6.38-4.91.43-.69.8-1.33,1.11-1.83,4.81-7.69,18.07-12.81,24-3.6,4.19,6.45.71,19,9.41,22.22,10,3.68,12.51-9.56,13.39-16.35,1.1-8.34.91-16.89,3.35-25,1-2.43,2.76-5.2,5.52-5.55a7.15,7.15,0,0,1,6.2,4.52c3.06,7.48,3.9,15.55,5,23.49.91,6.44,2.15,20.65,10.65,21.45,4.51.42,8.59-7.7,12.78-4.1C420.8,71.9,420.66,76.67,422.26,79.6Z"/><path class="cls-5" d="M700.64,172.73H827.57c-.86-10.63-7.81-28.76-9.1-30.85-.53-.84-1-1.63-1.37-2.24-5.93-9.4-22.27-15.67-29.65-4.39-5.16,7.88-.87,23.24-11.6,27.16-12.32,4.5-15.42-11.69-16.51-20-1.35-10.2-1.12-20.65-4.13-30.58-1.27-3-3.4-6.37-6.79-6.79-3.4,0-6.38,2.54-7.65,5.52-3.77,9.15-4.81,19-6.18,28.73-1.12,7.88-2.65,25.26-13.13,26.24-5.56.51-10.6-9.42-15.75-5C702.44,163.31,702.61,169.15,700.64,172.73Z"/><path class="cls-2" d="M828.59,518.85H779a1,1,0,0,1,0-2.06h49.61a1,1,0,1,1,0,2.06Z"/><path class="cls-2" d="M813.86,518.85H565.17a1,1,0,0,1,0-2.06H813.86a1,1,0,0,1,0,2.06Z"/><path class="cls-2" d="M596.13,518.9H335.19a1,1,0,0,1,0-2.07H596.13a1,1,0,0,1,0,2.07Z"/><path class="cls-2" d="M318.29,518.9H194.35a1,1,0,0,1,0-2.07H318.29a1,1,0,0,1,0,2.07Z"/><path class="cls-2" d="M211.23,518.85H67.76a1,1,0,0,1,0-2.06H211.23a1,1,0,1,1,0,2.06Z"/><path class="cls-2" d="M46.63,518.85H1a1,1,0,0,1,0-2.06h45.6a1,1,0,1,1,0,2.06Z"/><path class="cls-1" d="M165.07,392.18a11.6,11.6,0,0,1-2.4-.26,11.23,11.23,0,0,1-8.57-13.37l1.55-7.11a11.22,11.22,0,0,1,21.93,4.79L176,383.35A11.24,11.24,0,0,1,165.07,392.18Z"/><path class="cls-1" d="M148,393a4,4,0,0,1-2.77-6.83L157,374.74a4,4,0,1,1,5.54,5.71l-11.8,11.46A4,4,0,0,1,148,393Z"/><path class="cls-1" d="M149.21,403a4,4,0,0,1-2.87-6.73l13.26-13.82a4,4,0,0,1,5.74,5.51l-13.26,13.82A3.93,3.93,0,0,1,149.21,403Z"/><path class="cls-1" d="M157.39,405.94a3.93,3.93,0,0,1-2.53-.92,4,4,0,0,1-.53-5.6l10-12.07a4,4,0,0,1,6.13,5.07l-10,12.07A4,4,0,0,1,157.39,405.94Z"/><path class="cls-2" d="M134,484.92l5.18,4.69,7-3.72,3.58,3.24L147.36,497l21.7,19.66,3.24-3.51a9.7,9.7,0,0,0,2-9.78l-1.44-4.11-2.43-7,4.32-10.16.26-.62-7.87-6.41-1-.8-12.78-10.4-4.15,4.51-8.49,9.18-3.5,3.8Z"/><polygon class="cls-1" points="264 331.51 219.05 324.92 222.31 302.71 260.29 308.28 301.76 287.58 311.79 307.66 264 331.51"/><rect class="cls-1" x="305.98" y="284.1" width="10.95" height="22.45" transform="translate(-111.26 220.98) rotate(-33.5)"/><path class="cls-1" d="M318.62,303.37a4,4,0,0,1-2.26-7.25l13.32-9.21a4,4,0,0,1,4.53,6.55l-13.33,9.21A4,4,0,0,1,318.62,303.37Z"/><path class="cls-1" d="M317,295.24a4,4,0,0,1-2.31-7.22L330.3,277a4,4,0,1,1,4.6,6.49l-15.63,11.07A4,4,0,0,1,317,295.24Z"/><path class="cls-1" d="M313,289.69a4,4,0,0,1-2.53-7l12.08-10a4,4,0,0,1,5.07,6.14l-12.09,10A4,4,0,0,1,313,289.69Z"/><path class="cls-1" d="M308.44,292.6a3.77,3.77,0,0,1-1-.14,4,4,0,0,1-2.81-4.87L307.45,277a4,4,0,1,1,7.68,2.06l-2.85,10.65A4,4,0,0,1,308.44,292.6Z"/><path class="cls-1" d="M309.93,311.4a4,4,0,0,1-3.67-2.46l-7.56-18.46a4,4,0,0,1,7.32-3l7.57,18.45a4,4,0,0,1-2.16,5.17A4,4,0,0,1,309.93,311.4Z"/><path class="cls-4" d="M296,310.22a3,3,0,1,0,.56-4.2A3,3,0,0,0,296,310.22Z"/><path class="cls-2" d="M248.39,517.44h7l2.72-7.48h4.82l3.46,7.48h29.28l.05-4.78v-.1a9.7,9.7,0,0,0-5.06-8.51L286.84,502l-6.47-3.52L276.74,488l-.22-.64-10.13.54-1.28.07-16.45.88,0,5.94-.13,12.94,0,4.92Z"/><rect class="cls-2" x="241.86" y="449.3" width="30.99" height="37.97" transform="translate(-98.67 69.83) rotate(-12.99)"/><path class="cls-2" d="M253.07,465.28a15.5,15.5,0,0,1-15.08-12l-9.39-40.71-32.12-30a29.54,29.54,0,0,1-9.33-21.17L187,344.07a15.5,15.5,0,1,1,31-.33l.18,16.64,35.08,32.75a15.54,15.54,0,0,1,4.52,7.84l10.46,45.33a15.51,15.51,0,0,1-15.12,19Z"/><path class="cls-1" d="M246.79,491.33a4,4,0,0,1-.12-7.92l31.94-1h.12a4,4,0,0,1,.12,7.92l-31.94.95Z"/><rect class="cls-2" x="159.18" y="443.7" width="32.38" height="30.99" transform="translate(-299.7 333.01) rotate(-54.22)"/><path class="cls-2" d="M184.82,461.55A15.5,15.5,0,0,1,172.27,437l20.36-28.25,13-53.33a15.49,15.49,0,1,1,30.1,7.34L222,419a15.63,15.63,0,0,1-2.49,5.38l-22.12,30.71A15.5,15.5,0,0,1,184.82,461.55Z"/><path class="cls-2" d="M220.93,373.89H202.46a15.5,15.5,0,1,1,0-31h18.47a15.5,15.5,0,0,1,0,31Z"/><path class="cls-1" d="M178,484.29a4,4,0,0,1-2.2-.67l-24.6-16.41a4,4,0,0,1,4.4-6.59L180.21,477a4,4,0,0,1-2.2,7.26Z"/><path class="cls-3" d="M186.93,345.35l50.14,12.37,6.9-35.29a28.47,28.47,0,0,0-28.14-33.87h0a29,29,0,0,0-29,29Z"/><path class="cls-1" d="M231,293.94l-.68-13.6-.6-8.73-.29-4.15a6.89,6.89,0,0,0-7.36-6.41,5.28,5.28,0,0,0-.89.11,6.91,6.91,0,0,0-5.42,5.49,6.84,6.84,0,0,0-.11,1.76l1,14.65.4,5.72C217.36,292.58,231.3,297.75,231,293.94Z"/><path class="cls-3" d="M206.42,418.85A12.23,12.23,0,0,0,214.77,431l4.85-6.74a14.75,14.75,0,0,0,2.36-5.12l2.55-10.45a12.13,12.13,0,0,0-6.57-1.5A12.27,12.27,0,0,0,206.42,418.85Z"/><polygon class="cls-4" points="215.09 283.53 233.59 293.9 231.04 297.01 214.53 294.61 215.09 283.53"/><path class="cls-1" d="M233.52,278.75h0a8.52,8.52,0,0,0,4.25-11.27L234.86,261A11.23,11.23,0,0,0,220,255.43h0a11.24,11.24,0,0,0-5.61,14.86l.68,1.5A13.94,13.94,0,0,0,233.52,278.75Z"/><path class="cls-1" d="M234.14,262.73l6.85,5.32a1.19,1.19,0,0,1-.43,2.09l-4.73,1.26Z"/><path class="cls-2" d="M223.7,261.78a12.32,12.32,0,0,1,0,3.13,3.84,3.84,0,0,1-2.57,2.7,17.38,17.38,0,0,1-5.29.59c-3.86.06-8.81-2.43-6.93-7.1a4.42,4.42,0,0,1,4-2.74,3.67,3.67,0,0,1-3.15-1,2.88,2.88,0,0,1-.61-3.16,3.49,3.49,0,0,1,3.27-1.73,10.4,10.4,0,0,1,3.74,1.1,5.8,5.8,0,0,1,2.85-4,4.74,4.74,0,0,1,4.81.2,2.24,2.24,0,0,1,.95,1.26,1.16,1.16,0,0,1-.61,1.35,3.5,3.5,0,0,1,6.5-2.29,2.79,2.79,0,0,1,.37,1.25,6.05,6.05,0,0,0-.4,1.23c1.77.29,5.3-1.77,3.24-3.83a5.6,5.6,0,0,1,5.3,2.94,4.59,4.59,0,0,1-.32,4.52c-1.88,3-5.66,3.6-8.88,4.15-1.84.32-5.49,1.19-5.49,1.19l-.68.19Z"/><path class="cls-4" d="M237.07,358.75a1.07,1.07,0,0,1-.25,0L186.9,346.41a1,1,0,0,1-.75-1.25,1,1,0,0,1,1.24-.75l49.93,12.31a1,1,0,0,1-.25,2Z"/><circle class="cls-4" cx="224.38" cy="355.05" r="5.74" transform="translate(-75.57 61.05) rotate(-13.28)"/><path class="cls-4" d="M233,418.33a1,1,0,0,1-.7-.28L196.7,385.17a1,1,0,1,1,1.4-1.52l35.59,32.89a1,1,0,0,1-.7,1.79Z"/><path class="cls-3" d="M241.39,402.33a12.22,12.22,0,0,0,19,10.18L257.73,401a15.54,15.54,0,0,0-4.52-7.84l-2.79-2.6A12.22,12.22,0,0,0,241.39,402.33Z"/><rect class="cls-1" x="227.11" y="318.67" width="12.17" height="12.17" transform="translate(627.73 389.5) rotate(135)"/><rect class="cls-4" x="217.75" y="318.67" width="12.17" height="12.17" transform="translate(611.75 396.12) rotate(135)"/><path class="cls-2" d="M238.78,270.68a4.85,4.85,0,0,0-2.41-.82,6.15,6.15,0,0,0-4,1c-1.3.85-2.37,2-4,1.5a10.6,10.6,0,0,1-1.8-.77,22.2,22.2,0,0,1-4-2.59h0l-6.69,3.22c-.65.44,2.31,3.71,2.6,4.05a15.17,15.17,0,0,0,11.89,5.43,13,13,0,0,0,7.34-2.56C240.51,277,241.41,272.55,238.78,270.68Z"/><circle class="cls-1" cx="218.7" cy="268.99" r="5.3" transform="translate(-126.45 301.46) rotate(-56.26)"/><path class="cls-1" d="M176.52,339.75a11.23,11.23,0,0,1-7.59-19.5l27.47-25.19a11.23,11.23,0,0,1,15.18,16.54l-27.47,25.19A11.2,11.2,0,0,1,176.52,339.75Z"/><path class="cls-1" d="M170.7,403.9h-.22a4,4,0,0,1-3.76-4.19l.75-13.78a4,4,0,1,1,7.94.43l-.74,13.78A4,4,0,0,1,170.7,403.9Z"/><rect class="cls-1" x="148.38" y="339.95" width="46.39" height="22.45" transform="translate(-208.14 443.81) rotate(-77.67)"/><path class="cls-1" d="M176.52,380.39a3.69,3.69,0,0,1-.87-.1l-19.75-4.46a4,4,0,0,1,1.74-7.72l19.75,4.45a4,4,0,0,1-.87,7.83Z"/><path class="cls-4" d="M160.16,362.86a3,3,0,1,0,3.29-2.65A3,3,0,0,0,160.16,362.86Z"/><path class="cls-1" d="M245.16,508.77a1.07,1.07,0,0,1-.62-.2,1,1,0,0,1-.41-.84l.12-12.94a1,1,0,0,1,.51-.88,1,1,0,0,1,1,0l15,8.23a1,1,0,0,1,.53,1,1,1,0,0,1-.72.88l-15.11,4.7A.79.79,0,0,1,245.16,508.77Zm1.13-12.23-.09,9.8,11.44-3.57Z"/><path class="cls-1" d="M150.74,483.82a1,1,0,0,1-.51-.13l-12.64-7.2a1,1,0,0,1-.24-1.6l8.48-9.18a1,1,0,0,1,1-.3,1,1,0,0,1,.74.75l4.16,16.38a1,1,0,0,1-.37,1.07A1.06,1.06,0,0,1,150.74,483.82Zm-11-8.48,9.41,5.36-3.1-12.19Z"/><path class="cls-2" d="M314.14,297a1,1,0,0,1-.67-1.81c1.76-1.51,2.59-3,2.48-4.49-.21-2.57-3.22-4.48-3.25-4.49a1,1,0,0,1-.43-1.23l2.16-6.1a1,1,0,0,1,1.95.69l-1.91,5.36c1.15.88,3.31,2.87,3.53,5.6.17,2.17-.9,4.27-3.2,6.23A1,1,0,0,1,314.14,297Z"/><path class="cls-2" d="M339.68,160.74a1,1,0,0,1-1-1.4l7-18.08-18.46,6.61a1,1,0,0,1-1.07-.23,1,1,0,0,1-.26-1.06l6.86-21.08a1,1,0,1,1,2,.63l-6.21,19.09,18.6-6.66a1.07,1.07,0,0,1,1.09.25,1,1,0,0,1,.22,1.09l-7,18,18.24-6.78a1,1,0,0,1,.71,1.94L340,160.67A.84.84,0,0,1,339.68,160.74Z"/><path class="cls-1" d="M738,496c6.87,7,15.35,9.75,18.93,6.22s.91-12-6-19c-4.75-4.82-12-5.94-16-6.18a2.77,2.77,0,0,0-2.94,2.89C732.21,483.93,733.24,491.18,738,496Z"/><path class="cls-2" d="M765.74,517.79a1,1,0,0,1-1-1c0-.19-1.25-18.59-.18-43.23,1-22.76,4.18-55.65,13.83-83.12a1,1,0,0,1,1.94.68C762,443.3,766.72,516,766.77,516.69a1,1,0,0,1-.95,1.1Z"/><path class="cls-2" d="M758.82,517.79h0a1,1,0,0,1-1-1c.41-33.77-9-54.07-16.16-66.4a1,1,0,1,1,1.79-1c7.25,12.54,16.85,33.17,16.43,67.46A1,1,0,0,1,758.82,517.79Z"/><path class="cls-1" d="M779.15,412c-1.35,5.77-4.84,9.88-7.8,9.19s-4.28-5.93-2.93-11.69c.93-4,4.31-6.86,6.3-8.25a1.68,1.68,0,0,1,2.43.57C778.32,404,780.08,408,779.15,412Z"/><path class="cls-3" d="M800.14,395.53a4,4,0,0,0-2.76-6.13h0a7.65,7.65,0,0,0-8,3.61l-9.82,18.25a6,6,0,0,1-6.64,3h0a6,6,0,0,1-4.63-5.62l-.73-20.71a7.66,7.66,0,0,0-5.58-6.79h0a5.34,5.34,0,0,0-5.15,5.52s.92,27.35,1,27.9l0,.26a11.19,11.19,0,0,0,8.54,9.39l8,1.86a11.16,11.16,0,0,0,11.81-4.65l0,0Z"/><path class="cls-1" d="M734.07,432.52h0l6.35-12.37a4.76,4.76,0,0,0-3.55-6.88h0a4.75,4.75,0,0,0-5.36,5.58Z"/><path class="cls-1" d="M728.61,436.58h0L715,439.14a4.75,4.75,0,0,1-5.58-5.36h0a4.76,4.76,0,0,1,6.88-3.55Z"/><path class="cls-1" d="M732.51,441.81h0l-6.35,12.36a4.76,4.76,0,0,0,3.55,6.88h0a4.75,4.75,0,0,0,5.36-5.58Z"/><path class="cls-1" d="M738,437.74h0l13.67-2.56a4.75,4.75,0,0,1,5.58,5.36h0a4.76,4.76,0,0,1-6.88,3.55Z"/><path class="cls-1" d="M730.56,433.32h0l-4.26-13.23a4.76,4.76,0,0,0-7.37-2.36h0a4.76,4.76,0,0,0,.15,7.74Z"/><path class="cls-1" d="M729.58,440.06h0l-7.86,11.47a4.76,4.76,0,0,1-7.74.16h0a4.76,4.76,0,0,1,2.36-7.38Z"/><path class="cls-1" d="M736,441h0l4.26,13.23a4.76,4.76,0,0,0,7.37,2.36h0a4.75,4.75,0,0,0-.16-7.74Z"/><path class="cls-1" d="M737,434.26h0l7.86-11.47a4.76,4.76,0,0,1,7.74-.16h0a4.77,4.77,0,0,1-2.36,7.38Z"/></g></g></svg>