<svg xmlns="http://www.w3.org/2000/svg" viewBox="0 0 920.41 507.24"><defs><style>.cls-1,.cls-4{fill:#b77979;}.cls-1{opacity:0.19;}.cls-2{fill:#cf8282;}.cls-3{fill:#232323;}.cls-5{fill:#fff;}.cls-6{fill:#dce5f7;}</style></defs><title>Asset 12</title><g id="Layer_2" data-name="Layer 2"><g id="Layer_2-2" data-name="Layer 2"><circle class="cls-1" cx="202.55" cy="109.02" r="47.18"/><path class="cls-2" d="M222.43,440.6c11.59,6.5,18.27,16.59,14.94,22.54s-15.44,5.52-27-1c-8-4.49-12.09-13.56-13.84-18.72a3.76,3.76,0,0,1,2.74-4.88C204.55,437.36,214.41,436.11,222.43,440.6Z"/><path class="cls-2" d="M269.26,444.22c-6.54,6.63-14.61,9.28-18,5.92s-.86-11.47,5.68-18.1c4.53-4.59,11.41-5.66,15.23-5.88a2.62,2.62,0,0,1,2.79,2.75C274.76,432.73,273.78,439.63,269.26,444.22Z"/><path class="cls-3" d="M242.05,506.35a1.19,1.19,0,0,1-1.19-1.19c0-26-4.05-53.28-12-81.14a1.2,1.2,0,0,1,2.3-.66c8,28.07,12.12,55.59,12.12,81.8A1.19,1.19,0,0,1,242.05,506.35Z"/><path class="cls-3" d="M227,414.94a1.19,1.19,0,0,1-1.14-.83c-9.74-30.53-20.81-50.52-20.92-50.72a1.2,1.2,0,0,1,2.09-1.17c.11.2,11.29,20.39,21.11,51.16a1.19,1.19,0,0,1-.78,1.5A1.13,1.13,0,0,1,227,414.94Z"/><circle class="cls-2" cx="211.18" cy="377.65" r="22.48" transform="translate(-178.96 564.75) rotate(-86.41)"/><path class="cls-2" d="M246.84,506.35a1.2,1.2,0,0,1-1.2-1.17c0-.7-1.18-70.27,16.4-120.29a1.2,1.2,0,1,1,2.26.79C246.86,435.3,248,504.44,248,505.13a1.19,1.19,0,0,1-1.17,1.22Z"/><polygon class="cls-4" points="282.38 390.05 266.49 374.16 244.78 379.98 238.96 401.69 254.85 417.58 276.56 411.76 282.38 390.05"/><path class="cls-5" d="M211.18,380.57c-12.05,0-24.24-2.82-24.24-8.23a1.2,1.2,0,1,1,2.39,0c0,2.44,8.31,5.84,21.85,5.84s21.84-3.4,21.84-5.84a1.2,1.2,0,0,1,2.4,0C235.42,377.75,223.22,380.57,211.18,380.57Z"/><path class="cls-5" d="M211.18,380.57c-12.05,0-24.24-2.82-24.24-8.23a1.2,1.2,0,1,1,2.39,0c0,2.44,8.31,5.84,21.85,5.84s21.84-3.4,21.84-5.84a1.2,1.2,0,0,1,2.4,0C235.42,377.75,223.22,380.57,211.18,380.57Z"/><path class="cls-5" d="M229.79,386.57a21.38,21.38,0,0,1-4.64-.61,66.85,66.85,0,0,1-28.84-16.63c-3.54-3.8-4.76-6.95-3.52-9.1a1.2,1.2,0,0,1,1.64-.44,1.19,1.19,0,0,1,.43,1.63c-.46.82.09,2.94,3.2,6.27a64.3,64.3,0,0,0,27.63,15.94c4.44,1,6.56.44,7-.37a1.19,1.19,0,1,1,2.07,1.19C234,385.86,232.28,386.57,229.79,386.57Z"/><path class="cls-5" d="M229.79,386.57a21.38,21.38,0,0,1-4.64-.61,66.85,66.85,0,0,1-28.84-16.63c-3.54-3.8-4.76-6.95-3.52-9.1a1.2,1.2,0,0,1,1.64-.44,1.19,1.19,0,0,1,.43,1.63c-.46.82.09,2.94,3.2,6.27a64.3,64.3,0,0,0,27.63,15.94c4.44,1,6.56.44,7-.37a1.19,1.19,0,1,1,2.07,1.19C234,385.86,232.28,386.57,229.79,386.57Z"/><path class="cls-5" d="M239,402.88a1.19,1.19,0,0,1-.31-2.35l43.42-11.63a1.2,1.2,0,1,1,.62,2.31l-43.42,11.63A1.1,1.1,0,0,1,239,402.88Z"/><path class="cls-5" d="M260.67,397.06a1.18,1.18,0,0,1-.85-.35l-15.89-15.89a1.2,1.2,0,0,1,1.69-1.69L261.52,395a1.21,1.21,0,0,1,0,1.69A1.18,1.18,0,0,1,260.67,397.06Z"/><path class="cls-6" d="M115.36,240c-1-5.23-2.14-10.56-4.7-15.23-2.93-5.34-8.54-10.39-15-9.52-4.66.63-8.21-1.92-10-6.12-2.41-5.68-3.48-12-5.41-17.88-1.81-5.47-5.66-12.75-12.65-11.1-13.34,3.15-14.27,20.18-15.43,31.12-.43,4.06-1.84,9.92-7.17,9.23-3.48-.46-6-3.36-8.8-5.25-7.38-5-16.94-4-24.38.32C6.5,218.66,3.28,224.23,1.54,230a38.45,38.45,0,0,0-1.28,5.72C.22,236,0,240,0,240Z"/><polygon class="cls-6" points="726.44 315.6 600.02 469.71 298.47 469.71 424.88 315.6 726.44 315.6"/><path class="cls-3" d="M600,506.35a1.19,1.19,0,0,1-1.19-1.19V469.71a1.18,1.18,0,0,1,.27-.76L723.91,316.79H439.33a1.2,1.2,0,1,1,0-2.39H726.44a1.21,1.21,0,0,1,.93,2L601.22,470.14v35A1.19,1.19,0,0,1,600,506.35Z"/><path class="cls-3" d="M600,470.91H429.46a1.2,1.2,0,0,1,0-2.39H600a1.2,1.2,0,1,1,0,2.39Z"/><polygon class="cls-3" points="600.02 447.17 456.84 447.17 298.47 447.17 424.88 293.06 548.67 293.06 726.44 293.06 600.02 447.17"/><polygon class="cls-5" points="591.08 406.52 462.51 426.21 320.32 406.52 433.82 268.15 544.98 287.84 704.59 268.15 591.08 406.52"/><path class="cls-3" d="M462.51,427.41h-.16l-142.2-19.69a1.21,1.21,0,0,1-.95-.75,1.19,1.19,0,0,1,.19-1.19L432.9,267.39A1.19,1.19,0,0,1,434,267l111,19.66L704.44,267a1.2,1.2,0,0,1,1.2.61,1.21,1.21,0,0,1-.12,1.34L592,407.28a1.25,1.25,0,0,1-.75.43L462.7,427.4ZM322.59,405.63,462.51,425l127.94-19.6L701.77,269.7,545.12,289a1,1,0,0,1-.35,0L434.31,269.45Zm268.49.9h0Z"/><polygon class="cls-2" points="490.17 126.02 493.37 132.06 499.21 135.35 493.37 138.65 490.17 144.69 486.98 138.65 481.14 135.35 486.98 132.06 490.17 126.02"/><polygon class="cls-4" points="232.31 267.75 235.5 273.78 241.35 277.08 235.5 280.38 232.31 286.41 229.12 280.38 223.27 277.08 229.12 273.78 232.31 267.75"/><polygon class="cls-4" points="768.56 340.55 771.76 346.59 777.6 349.89 771.76 353.19 768.56 359.22 765.37 353.19 759.53 349.89 765.37 346.59 768.56 340.55"/><path class="cls-3" d="M147.8,342.18a1.44,1.44,0,0,1-.41-2.81c2.8-.83,9.15-2.95,13.8-6.24a21,21,0,0,1-6.35-4.71c-2.05-2.24-2.88-4.43-2.44-6.5a6.84,6.84,0,0,1,4-4.54,9.81,9.81,0,0,1,8.62-.07,8.05,8.05,0,0,1,4.42,5.88,10.33,10.33,0,0,1-2.64,8.79,16.07,16.07,0,0,0,5.66.06,13.51,13.51,0,0,0,10.36-8.34,1.44,1.44,0,1,1,2.64,1.13,16.29,16.29,0,0,1-12.51,10,19.17,19.17,0,0,1-8.58-.53c-4.89,4-12,6.57-16.12,7.78A1.45,1.45,0,0,1,147.8,342.18Zm13-23a7,7,0,0,0-3.13.74,4.37,4.37,0,0,0-2.43,2.55c-.29,1.4.79,2.94,1.75,4a18.11,18.11,0,0,0,6.71,4.61c2.14-2.11,3.42-4.57,2.9-7.38a5.17,5.17,0,0,0-2.87-3.83A6.66,6.66,0,0,0,160.77,319.21Z"/><path class="cls-6" d="M563.81,64.57H368.19a26.89,26.89,0,0,1,.22-4.67h0A42.3,42.3,0,0,1,373.48,45c4.14-7.28,10.34-12.67,17.3-11a15.45,15.45,0,0,1,6.57,3.66c3.35,3,6,6.61,9.37,9.62s7.57,5.42,12,5.09c5.59-.4,9.61-5.4,10.45-10.68,2-12.67,1.89-37.72,17.74-41.19.3-.07.6-.13.89-.17C461.37-2,470.72,11.18,474.32,23a39,39,0,0,1,1,4,50.85,50.85,0,0,1,1.14,9.91c0,.21,0,.43.07.64.11.92.23,1.83.39,2.72a21.59,21.59,0,0,0,1.87,6.18,2.82,2.82,0,0,0,1.64,1.64c2.17.52,4-2,5.22-4,.35-.56.65-1.08.91-1.48,3.93-6.24,14.77-10.4,19.66-2.92,3.42,5.23.58,15.41,7.7,18,8.16,3,10.22-7.75,11-13.26.89-6.77.74-13.7,2.74-20.29.84-2,2.25-4.22,4.5-4.5a5.85,5.85,0,0,1,5.08,3.66c2.49,6.07,3.18,12.62,4.09,19.06.75,5.22,1.76,16.75,8.71,17.4,3.69.34,7-6.24,10.45-3.33C562.62,58.32,562.5,62.19,563.81,64.57Z"/><path class="cls-6" d="M753.71,153.47h166.7c-1.12-14-10.25-37.77-11.95-40.52-.69-1.11-1.29-2.14-1.8-2.94-7.78-12.35-29.25-20.58-38.94-5.77-6.77,10.35-1.14,30.52-15.24,35.68-16.17,5.91-20.24-15.35-21.68-26.26-1.77-13.4-1.47-27.12-5.42-40.16-1.67-3.91-4.46-8.37-8.93-8.93-4.46,0-8.36,3.35-10,7.26-4.95,12-6.31,25-8.12,37.73-1.47,10.35-3.48,33.18-17.24,34.46-7.3.68-13.91-12.36-20.69-6.59C756.07,141.1,756.3,148.76,753.71,153.47Z"/><path class="cls-3" d="M811.18,280.57c-6,0-11.88-2.67-14-8.45a14.83,14.83,0,0,1-.79-3.64,17.91,17.91,0,0,1-7.12-5.17,16.2,16.2,0,0,1-4-8.67,1.2,1.2,0,0,1,2.38-.22,14,14,0,0,0,3.44,7.33,16.74,16.74,0,0,0,5.26,4.13,20.06,20.06,0,0,1,.35-2.72c.53-2.68,1.56-4.49,3.13-5.53a5.45,5.45,0,0,1,8.35,5.62,6.73,6.73,0,0,1-2.14,3.57,8.51,8.51,0,0,1-6.48,2.36l-.69-.06a11.91,11.91,0,0,0,.56,2.19c2.55,7.09,11.58,7.8,17.17,6l.57-.19a14.58,14.58,0,0,0,4.19-2.3,1.2,1.2,0,0,1,1.5,1.87,17.07,17.07,0,0,1-4.89,2.68l-.65.22A20.81,20.81,0,0,1,811.18,280.57Zm-12.43-13.9a8.39,8.39,0,0,0,1,.13,6.23,6.23,0,0,0,4.72-1.74,4.55,4.55,0,0,0,1.42-2.29,3.06,3.06,0,0,0-4.69-3.15c-1,.67-1.7,2-2.1,4A17.16,17.16,0,0,0,798.75,266.67Z"/><path class="cls-3" d="M483.38,374.23a1.15,1.15,0,0,1-.7-.23,1.21,1.21,0,0,1-.27-1.67L544,287.14a1.19,1.19,0,1,1,1.93,1.4l-61.59,85.2A1.19,1.19,0,0,1,483.38,374.23Z"/><path class="cls-4" d="M514.18,302.1a.9.9,0,0,1-.23,0l-73.16-14.37a1.19,1.19,0,1,1,.46-2.34l73.16,14.36a1.2,1.2,0,0,1-.23,2.37Z"/><path class="cls-4" d="M501.19,318.66l-.23,0L427.8,304.27a1.19,1.19,0,0,1-.94-1.4,1.21,1.21,0,0,1,1.4-.95l73.16,14.37a1.2,1.2,0,0,1-.23,2.37Z"/><path class="cls-4" d="M488.2,335.22l-.23,0-73.16-14.37a1.2,1.2,0,0,1,.46-2.35l73.16,14.37a1.2,1.2,0,0,1-.23,2.37Z"/><path class="cls-4" d="M475.21,351.78a.91.91,0,0,1-.23,0l-73.16-14.36a1.2,1.2,0,0,1,.46-2.35l73.16,14.37a1.18,1.18,0,0,1,.94,1.4A1.2,1.2,0,0,1,475.21,351.78Z"/><path class="cls-4" d="M462.22,368.33a.9.9,0,0,1-.23,0l-73.16-14.37a1.19,1.19,0,0,1,.46-2.34L462.45,366a1.2,1.2,0,0,1-.23,2.37Z"/><path class="cls-4" d="M449.23,384.89l-.23,0L375.84,370.5a1.19,1.19,0,0,1-.94-1.4,1.21,1.21,0,0,1,1.4-1l73.16,14.37a1.2,1.2,0,0,1-.23,2.37Z"/><path class="cls-4" d="M558.38,306.57a1.2,1.2,0,0,1-.11-2.39l92.16-8.61a1.2,1.2,0,1,1,.22,2.38l-92.16,8.61Z"/><path class="cls-4" d="M545,323a1.2,1.2,0,0,1-.11-2.39L637,312a1.2,1.2,0,1,1,.23,2.38L545.09,323Z"/><path class="cls-4" d="M531.57,339.36a1.19,1.19,0,0,1-.11-2.38l92.16-8.61a1.2,1.2,0,1,1,.23,2.38l-92.17,8.61Z"/><path class="cls-4" d="M518.17,355.76a1.19,1.19,0,0,1-1.19-1.08,1.21,1.21,0,0,1,1.08-1.31l92.16-8.61a1.2,1.2,0,0,1,.22,2.39l-92.16,8.61Z"/><path class="cls-4" d="M504.77,372.16a1.2,1.2,0,0,1-.11-2.39l92.16-8.61a1.2,1.2,0,0,1,.22,2.38l-92.16,8.61Z"/><path class="cls-4" d="M491.37,388.56a1.2,1.2,0,0,1-.11-2.39l92.16-8.61a1.2,1.2,0,1,1,.22,2.38l-92.16,8.61Z"/><path class="cls-3" d="M726.44,347.15a1.19,1.19,0,0,1-1.19-1.19V315.6a1.2,1.2,0,1,1,2.39,0V346A1.19,1.19,0,0,1,726.44,347.15Z"/><path class="cls-2" d="M715.46,489.53c5.08,5.15,11.34,7.2,14,4.59s.67-8.9-4.41-14c-3.51-3.57-8.86-4.4-11.82-4.57a2,2,0,0,0-2.17,2.14C711.19,480.61,712,486,715.46,489.53Z"/><path class="cls-3" d="M736,505.53a.66.66,0,0,1-.66-.62c0-.13-.92-13.73-.14-31.93.73-16.81,3.09-41.11,10.22-61.4a.66.66,0,0,1,1.25.43c-7.08,20.14-9.42,44.29-10.15,61-.78,18.13.13,31.67.14,31.8a.66.66,0,0,1-.62.7Z"/><path class="cls-3" d="M730.85,505.53h0a.67.67,0,0,1-.65-.67c.3-25-6.68-40-12-49.13a.65.65,0,0,1,.24-.9.67.67,0,0,1,.9.24c5.35,9.26,12.44,24.49,12.13,49.8A.66.66,0,0,1,730.85,505.53Z"/><path class="cls-2" d="M745.87,427.45c-1,4.26-3.58,7.3-5.77,6.79s-3.15-4.38-2.16-8.64c.69-3,3.18-5.07,4.66-6.09a1.23,1.23,0,0,1,1.79.42C745.26,421.5,746.56,424.5,745.87,427.45Z"/><path class="cls-2" d="M761.39,415.27a3,3,0,0,0-2-4.52h0a5.64,5.64,0,0,0-5.91,2.67l-7.26,13.48a4.43,4.43,0,0,1-4.91,2.21h0a4.41,4.41,0,0,1-3.42-4.15l-.54-15.31a5.65,5.65,0,0,0-4.13-5h0a3.94,3.94,0,0,0-3.8,4.08s.68,20.21.73,20.61l0,.19a8.25,8.25,0,0,0,6.3,6.94l5.9,1.38a8.26,8.26,0,0,0,8.73-3.43h0Z"/><path class="cls-4" d="M712.56,442.61h0l4.69-9.14a3.51,3.51,0,0,0-2.62-5.08h0a3.51,3.51,0,0,0-4,4.12Z"/><path class="cls-4" d="M708.53,445.62h0l-10.1,1.89a3.52,3.52,0,0,1-4.13-4h0a3.52,3.52,0,0,1,5.09-2.63Z"/><path class="cls-4" d="M711.4,449.48h0l-4.69,9.14a3.52,3.52,0,0,0,2.62,5.08h0a3.52,3.52,0,0,0,4-4.12Z"/><path class="cls-4" d="M715.44,446.47h0l10.1-1.89a3.52,3.52,0,0,1,4.12,4h0a3.51,3.51,0,0,1-5.08,2.62Z"/><path class="cls-4" d="M710,443.21h0l-3.14-9.78a3.51,3.51,0,0,0-5.45-1.74h0a3.51,3.51,0,0,0,.11,5.71Z"/><path class="cls-4" d="M709.24,448.18h0l-5.81,8.48a3.52,3.52,0,0,1-5.72.12h0a3.52,3.52,0,0,1,1.75-5.45Z"/><path class="cls-4" d="M714,448.88h0l3.15,9.78a3.51,3.51,0,0,0,5.44,1.74h0a3.51,3.51,0,0,0-.11-5.72Z"/><path class="cls-4" d="M714.73,443.9h0l5.8-8.48a3.52,3.52,0,0,1,5.72-.11h0a3.52,3.52,0,0,1-1.74,5.45Z"/><path class="cls-2" d="M409.53,388.43c17.5-3.23,32.88-13.19,45.12-25.83,5.72-5.92,10.91-12.82,13.55-20.71,2.34-7,3.08-16.09-2.33-21.92s-13.76-4.45-18.75,1.14c-5.48,6.12-5.12,14.46-.63,21,5,7.32,13.65,11.79,22,14.11a52.66,52.66,0,0,0,29.42-.38c8.45-2.61,16-7.44,22.76-13.1,6.5-5.48,12.3-11.52,16-19.26a41.26,41.26,0,0,0,4.06-22.57,32.49,32.49,0,0,0-3.5-11.25c-1.78-3.38-4.18-7-7.69-8.75-6.79-3.37-15.35,0-18.87,6.45-4.26,7.78-1.66,17,2.54,24.22,8.37,14.36,23.21,23.93,39.23,27.52a71.24,71.24,0,0,0,47.74-6.22,76.76,76.76,0,0,0,33.25-33.75A81.38,81.38,0,0,0,641.53,272a72.79,72.79,0,0,0,.13-15.05c-.3-3.15-.76-6.07-2.61-8.72-5.44-7.76-19.5-10.52-26.14-2.8-4.67,5.42-3,13.39.3,19,4.49,7.63,11.91,13.84,19.49,18.22a62.47,62.47,0,0,0,50.13,5.64,64.43,64.43,0,0,0,21.91-12.17,62.15,62.15,0,0,0,8.88-9.25c2.7-3.49,5.36-7.4,6.51-11.71,2.36-8.93-4.54-15.38-12.06-18.67-8.88-3.89-18.69-4.65-28.27-4.67-9.89,0-19.82.8-29.69-.19s-19.51-3.95-27.48-9.84c-13.93-10.29-21-31.59-8.35-45.71a19.49,19.49,0,0,1,10.42-6.26c4.92-1,10.15.06,14.92,1.35,10,2.72,20.06,6.57,30.64,4.82,7.22-1.19,13.87-5.25,17.06-12a16.38,16.38,0,0,0,1.4-11.06,23.4,23.4,0,0,0-6.28-10.28c-6.28-6.39-15-9.85-23-13.72-1.2-.59-3.17,1.16-1.58,1.94,4.51,2.21,9,4.44,13.44,6.77a34.52,34.52,0,0,1,9.3,7,20.67,20.67,0,0,1,5.51,10A15.5,15.5,0,0,1,683.89,165c-4.21,7.16-12.6,9.6-20.47,9.21-9.78-.49-18.66-4.79-28.2-6.41-7.73-1.31-15.34-.08-21.28,5.32a28.25,28.25,0,0,0-9.11,19.14C603.9,209,616,223,630.69,229.15c16.82,7.11,34.92,4.34,52.62,4.82,8.82.24,18.29,1.38,26.07,5.87,3.33,1.92,6.55,4.65,7.85,8.38,1.57,4.5-.29,9.11-2.63,13-8.38,13.74-22.94,23.5-38.61,26.75-16.21,3.35-33.51-.9-46.79-10.63-6.58-4.81-13.72-11.58-15.84-19.73-1.34-5.12-.18-11.3,5.08-13.62,4.12-1.81,9.25-1,13.1,1.13a14.45,14.45,0,0,1,5.15,4.61c1.66,2.5,2,5.35,2.23,8.28,3,32.86-17.57,66.38-49,77.08a67.05,67.05,0,0,1-45.13-.64,59.11,59.11,0,0,1-19.09-11.76c-5.89-5.45-11.14-12.48-13.38-20.27-2.14-7.45-.67-17.63,7.9-20.13a10.15,10.15,0,0,1,9.85,2.1,26.52,26.52,0,0,1,6.22,10.06c5.2,14.16-.49,30.61-10.83,40.95-6,6.05-12.87,11.62-20.55,15.46a49,49,0,0,1-26,5c-9-.75-18.39-4-25.32-9.95-5.74-4.93-10-12.86-6.5-20.31,1.49-3.18,4.23-6.1,7.68-7.08,3.82-1.08,7.5,1,9.68,4.05,4.43,6.27,2.84,15.19,0,21.78-3,7-7.9,13.14-13.28,18.5a101.53,101.53,0,0,1-17.51,14A70.82,70.82,0,0,1,409,386.43c-1.77.33-1.2,2.32.53,2Z"/><path class="cls-4" d="M823.35,463.56h0a24.4,24.4,0,0,1,24.4,24.4v17.43a0,0,0,0,1,0,0h-48.8a0,0,0,0,1,0,0V488A24.4,24.4,0,0,1,823.35,463.56Z" transform="translate(1646.69 968.96) rotate(-180)"/><path class="cls-3" d="M638.93,117.41l.14,0c.09,0,.23-.09.41-.14l.64-.19.84-.21a21.81,21.81,0,0,1,2.17-.38,21.57,21.57,0,0,1,2.65-.19,23.44,23.44,0,0,1,6,.66,24.16,24.16,0,0,1,15,10.84,21.57,21.57,0,0,1,1.25,2.34,20.24,20.24,0,0,1,.84,2c.11.3.2.57.27.83s.14.46.19.64.07.32.1.42l0,.15-.14.05-.41.14c-.18.06-.4.13-.64.19l-.85.21a23.73,23.73,0,0,1-4.82.59,23.73,23.73,0,0,1-12-3,24,24,0,0,1-9-8.53,23.53,23.53,0,0,1-1.26-2.33,21.24,21.24,0,0,1-.84-2c-.11-.3-.2-.57-.27-.82s-.14-.46-.19-.64-.08-.33-.1-.42Z"/><path class="cls-3" d="M638.93,117.41l.14,0c.09,0,.23-.09.41-.14l.64-.19.84-.21a21.81,21.81,0,0,1,2.17-.38,21.57,21.57,0,0,1,2.65-.19,23.44,23.44,0,0,1,6,.66,24.16,24.16,0,0,1,15,10.84,21.57,21.57,0,0,1,1.25,2.34,20.24,20.24,0,0,1,.84,2c.11.3.2.57.27.83s.14.46.19.64.07.32.1.42l0,.15-.14.05-.41.14c-.18.06-.4.13-.64.19l-.85.21a23.73,23.73,0,0,1-4.82.59,23.73,23.73,0,0,1-12-3,24,24,0,0,1-9-8.53,23.53,23.53,0,0,1-1.26-2.33,21.24,21.24,0,0,1-.84-2c-.11-.3-.2-.57-.27-.82s-.14-.46-.19-.64-.08-.33-.1-.42Z"/><path class="cls-3" d="M697.72,117.77l-.07.15c0,.09-.1.25-.19.42s-.19.41-.33.66-.28.53-.46.83c-.35.62-.8,1.31-1.33,2.06a27.24,27.24,0,0,1-1.86,2.36,31.51,31.51,0,0,1-5.16,4.69,33.23,33.23,0,0,1-6.63,3.73,32.84,32.84,0,0,1-7.28,2.18,31.23,31.23,0,0,1-7,.45,28.67,28.67,0,0,1-3-.31c-.91-.14-1.72-.31-2.41-.48-.34-.09-.65-.17-.92-.26s-.5-.15-.7-.22l-.44-.16-.15-.06.06-.15c.05-.1.11-.25.2-.43s.19-.41.32-.65.28-.54.46-.84c.35-.62.8-1.31,1.33-2.07a27.24,27.24,0,0,1,1.86-2.36,31.51,31.51,0,0,1,5.16-4.69,32.67,32.67,0,0,1,6.63-3.71,33.56,33.56,0,0,1,7.29-2.16,31.27,31.27,0,0,1,7-.45,28.5,28.5,0,0,1,3,.3c.91.14,1.72.31,2.41.48.34.08.64.17.92.25l.69.22.44.16Z"/><path class="cls-3" d="M434.86,242.4l.11-.12c.08-.07.18-.2.33-.33s.32-.32.52-.5.45-.4.71-.62c.54-.46,1.19-1,1.94-1.48a28.57,28.57,0,0,1,2.53-1.56,31.24,31.24,0,0,1,6.39-2.61,33.44,33.44,0,0,1,7.4-1.2,32.6,32.6,0,0,1,7.49.49,30.47,30.47,0,0,1,6.61,2,28.65,28.65,0,0,1,2.66,1.33c.79.45,1.49.89,2.06,1.29.29.2.55.38.77.56a6.71,6.71,0,0,1,.57.45c.16.12.28.23.36.3l.12.11-.11.12L475,241c-.14.15-.32.32-.52.5s-.45.41-.72.63a22.78,22.78,0,0,1-1.93,1.48,26.4,26.4,0,0,1-2.53,1.57,30.68,30.68,0,0,1-6.39,2.6,33.07,33.07,0,0,1-14.89.68,30.31,30.31,0,0,1-6.61-2,28.71,28.71,0,0,1-2.66-1.31c-.8-.45-1.49-.89-2.07-1.29-.28-.2-.54-.38-.76-.55s-.42-.32-.57-.45-.28-.23-.36-.3Z"/><path class="cls-3" d="M434.86,242.4l.11-.12c.08-.07.18-.2.33-.33s.32-.32.52-.5.45-.4.71-.62c.54-.46,1.19-1,1.94-1.48a28.57,28.57,0,0,1,2.53-1.56,31.24,31.24,0,0,1,6.39-2.61,33.44,33.44,0,0,1,7.4-1.2,32.6,32.6,0,0,1,7.49.49,30.47,30.47,0,0,1,6.61,2,28.65,28.65,0,0,1,2.66,1.33c.79.45,1.49.89,2.06,1.29.29.2.55.38.77.56a6.71,6.71,0,0,1,.57.45c.16.12.28.23.36.3l.12.11-.11.12L475,241c-.14.15-.32.32-.52.5s-.45.41-.72.63a22.78,22.78,0,0,1-1.93,1.48,26.4,26.4,0,0,1-2.53,1.57,30.68,30.68,0,0,1-6.39,2.6,33.07,33.07,0,0,1-14.89.68,30.31,30.31,0,0,1-6.61-2,28.71,28.71,0,0,1-2.66-1.31c-.8-.45-1.49-.89-2.07-1.29-.28-.2-.54-.38-.76-.55s-.42-.32-.57-.45-.28-.23-.36-.3Z"/><path class="cls-3" d="M494.36,219.22l0,.16c0,.11,0,.27,0,.47s-.07.44-.12.71-.11.59-.19.93c-.15.68-.37,1.47-.65,2.34a28.27,28.27,0,0,1-1.07,2.77,30.57,30.57,0,0,1-3.51,5.94,33.45,33.45,0,0,1-11.43,9.58,30.54,30.54,0,0,1-6.47,2.4,28,28,0,0,1-2.92.56c-.91.12-1.73.19-2.43.22l-.95,0-.72,0-.47,0-.16,0v-.16c0-.1,0-.27.06-.46s.06-.45.11-.72.12-.59.19-.93c.15-.69.37-1.48.65-2.35a28.27,28.27,0,0,1,1.07-2.77,30.28,30.28,0,0,1,3.51-5.94,32,32,0,0,1,5.19-5.42,32.57,32.57,0,0,1,6.26-4.13,30.54,30.54,0,0,1,6.47-2.4,28,28,0,0,1,2.92-.56c.91-.12,1.72-.2,2.42-.23l.95,0h.72l.47,0Z"/><path class="cls-3" d="M572.86,202.39l-.08.05-.22.15c-.19.1-.48.29-.83.45a13.56,13.56,0,0,1-6.3,1.45,12.83,12.83,0,0,1-3.71-.63,12.7,12.7,0,0,1-1.76-.71,12.44,12.44,0,0,1-1.61-1,13,13,0,0,1-2.63-2.42,13.78,13.78,0,0,1-1.61-2.46c-.18-.34-.31-.66-.4-.86s-.07-.19-.1-.25l0-.08.08-.06.22-.14c.19-.1.49-.29.83-.46a14.14,14.14,0,0,1,2.75-1A12.8,12.8,0,0,1,561,194a12.68,12.68,0,0,1,3.71.64,13,13,0,0,1,6,4.1,14.23,14.23,0,0,1,1.62,2.45c.18.34.31.66.4.86s.07.19.1.25Z"/><path class="cls-3" d="M543,215.32a3.1,3.1,0,0,1-.08-.38,10.11,10.11,0,0,1-.14-1,16.78,16.78,0,0,1,0-3.32,17.76,17.76,0,0,1,.94-4.07,18.55,18.55,0,0,1,2-4,17.5,17.5,0,0,1,6.36-5.82,16.36,16.36,0,0,1,3.07-1.27,10.1,10.1,0,0,1,1.39-.33,10.45,10.45,0,0,1,.22,1.41,16.69,16.69,0,0,1,0,3.32,17.64,17.64,0,0,1-.94,4.07,18.6,18.6,0,0,1-5,7.43,17.59,17.59,0,0,1-3.42,2.4,17.08,17.08,0,0,1-3.05,1.28c-.41.12-.76.2-1,.25Z"/><path class="cls-4" d="M388.78,294.6l-46.15,20.57L282.49,199.59a33.15,33.15,0,0,1,16.78-43.76h0A33.13,33.13,0,0,1,343,172.61Z"/><path class="cls-3" d="M380.51,339.29a1.19,1.19,0,0,1-1.08-.7l-71.1-159.52a1.2,1.2,0,0,1,.6-1.56,1.18,1.18,0,0,1,1.56.6l71.1,159.52a1.18,1.18,0,0,1-.6,1.56A1.15,1.15,0,0,1,380.51,339.29Z"/><path class="cls-3" d="M334.74,236.61a1.23,1.23,0,0,1-.63-.18,1.19,1.19,0,0,1-.37-1.64L355,201a1.19,1.19,0,0,1,2,1.26l-21.23,33.75A1.19,1.19,0,0,1,334.74,236.61Z"/><path class="cls-3" d="M327.31,219.92h-.11L287,216.37a1.18,1.18,0,1,1,.21-2.35l40.16,3.53a1.19,1.19,0,0,1-.1,2.37Z"/><path class="cls-5" d="M324.18,241.31h-.1l-22.76-2a1.18,1.18,0,0,1-1.07-1.29,1.17,1.17,0,0,1,1.28-1.07l22.76,2a1.18,1.18,0,0,1-.11,2.36Z"/><path class="cls-5" d="M347.19,292.92h-.11l-18.18-1.6a1.18,1.18,0,1,1,.21-2.36l18.18,1.6a1.18,1.18,0,0,1-.1,2.36Z"/><path class="cls-3" d="M352.78,277.08a1.18,1.18,0,0,1-1-1.77l13.12-22.92a1.18,1.18,0,0,1,2.06,1.17l-13.13,22.92A1.18,1.18,0,0,1,352.78,277.08Z"/><path class="cls-5" d="M369.94,280.6a1.16,1.16,0,0,1-.59-.16,1.19,1.19,0,0,1-.44-1.61l8.4-14.67a1.19,1.19,0,0,1,2.06,1.18L371,280A1.18,1.18,0,0,1,369.94,280.6Z"/><path class="cls-5" d="M334.76,201.67a1.18,1.18,0,0,1-1-1.77L346.86,177a1.19,1.19,0,0,1,2.06,1.18l-13.13,22.92A1.19,1.19,0,0,1,334.76,201.67Z"/><path class="cls-3" d="M344.45,263.72h0l-23.94-.28a1.19,1.19,0,0,1,0-2.37h0l23.94.29a1.18,1.18,0,0,1,0,2.36Z"/><path class="cls-2" d="M342.32,354.86a11.6,11.6,0,0,1-1-23.16l27.78-2.39a11.6,11.6,0,0,1,2,23.12l-27.79,2.39C343,354.85,342.65,354.86,342.32,354.86Z"/><path class="cls-2" d="M805.28,454.09a.74.74,0,0,1-.73-.69c-.16-2.86,2.54-4.41,4.93-5.78,2.21-1.27,4.31-2.46,4.2-4.43s-2.33-2.93-4.67-3.94c-2.53-1.09-5.39-2.32-5.55-5.18s2.54-4.42,4.93-5.78c2.21-1.27,4.3-2.47,4.19-4.44s-2.32-2.92-4.67-3.93c-2.52-1.09-5.38-2.32-5.54-5.19s2.54-4.41,4.92-5.78c2.22-1.27,4.31-2.46,4.2-4.43a.73.73,0,1,1,1.45-.08c.16,2.86-2.54,4.41-4.92,5.78-2.22,1.26-4.31,2.46-4.2,4.43s2.33,2.92,4.67,3.93c2.52,1.09,5.38,2.32,5.54,5.19s-2.54,4.41-4.92,5.78c-2.22,1.27-4.31,2.46-4.2,4.43s2.33,2.93,4.67,3.94c2.53,1.09,5.39,2.32,5.55,5.18s-2.54,4.42-4.93,5.78c-2.21,1.27-4.31,2.47-4.19,4.44a.74.74,0,0,1-.69.77Z"/><path class="cls-2" d="M834.47,457.83a.72.72,0,0,1-.72-.69c-.16-2.87,2.54-4.41,4.92-5.78,2.22-1.27,4.31-2.47,4.2-4.43S840.55,444,838.2,443c-2.52-1.09-5.38-2.32-5.54-5.19s2.54-4.41,4.92-5.78c2.22-1.26,4.31-2.46,4.2-4.43s-2.33-2.92-4.67-3.93c-2.52-1.09-5.38-2.33-5.55-5.19a.73.73,0,1,1,1.46-.08c.11,2,2.32,2.92,4.67,3.93,2.52,1.09,5.38,2.32,5.54,5.19s-2.54,4.41-4.93,5.78c-2.21,1.27-4.3,2.46-4.19,4.43s2.32,2.92,4.67,3.94c2.52,1.08,5.38,2.32,5.54,5.18s-2.54,4.42-4.92,5.78c-2.22,1.27-4.31,2.47-4.2,4.44a.72.72,0,0,1-.68.76Z"/><path class="cls-3" d="M896.62,507.2h-15a.85.85,0,1,1,0-1.7h15a.85.85,0,1,1,0,1.7Z"/><path class="cls-3" d="M833,507.2H672a.85.85,0,0,1,0-1.7H833a.85.85,0,1,1,0,1.7Z"/><path class="cls-3" d="M882.06,507.2H727.63a.85.85,0,0,1,0-1.7H882.06a.85.85,0,1,1,0,1.7Z"/><path class="cls-3" d="M860.58,507.2H833a.85.85,0,0,1,0-1.7h27.6a.85.85,0,1,1,0,1.7Z"/><path class="cls-3" d="M833,507.2H731.12a.85.85,0,0,1,0-1.7H833a.85.85,0,1,1,0,1.7Z"/><path class="cls-3" d="M697.51,507.24H512.06a.85.85,0,1,1,0-1.7H697.51a.85.85,0,1,1,0,1.7Z"/><path class="cls-3" d="M487.09,507.24H366a.85.85,0,0,1,0-1.7H487.09a.85.85,0,0,1,0,1.7Z"/><path class="cls-3" d="M379.94,507.2H260.21a.85.85,0,1,1,0-1.7H379.94a.85.85,0,0,1,0,1.7Z"/><path class="cls-3" d="M245.18,507.2H86.3c-.85-.75-.33-1.7.41-1.7H245.14a.88.88,0,0,1,.89.77A.85.85,0,0,1,245.18,507.2Z"/></g></g></svg>