<svg xmlns="http://www.w3.org/2000/svg" viewBox="0 0 1065.79 477.04"><defs><style>.cls-1{fill:#fff;}.cls-2{fill:#dce5f7;}.cls-3{fill:#eeeff9;}.cls-4{fill:#d2d2d8;}.cls-5{fill:#e5d6d6;}.cls-6{fill:#dd9b9b;}.cls-7{fill:#1c1c1c;}</style></defs><title>Asset 8</title><g id="Layer_2" data-name="Layer 2"><g id="Layer_2-2" data-name="Layer 2"><rect class="cls-1" x="855.51" y="436.7" width="77.27" height="37.33" transform="translate(1788.28 910.73) rotate(180)"/><path class="cls-2" d="M852.88,476h172.73a10,10,0,0,0,10-10V445.09a10,10,0,0,0-10-10H852.88a1.94,1.94,0,1,0,0,3.88h172.73a6.15,6.15,0,0,1,6.14,6.14V466a6.15,6.15,0,0,1-6.14,6.14H852.88a1.94,1.94,0,1,0,0,3.88Z"/><path class="cls-2" d="M913.88,475h111.56a8.28,8.28,0,0,0,8.25-8.3V443.83a8.27,8.27,0,0,0-8.25-8.3H913.88a8.27,8.27,0,0,1,8.24,8.3v22.82A8.27,8.27,0,0,1,913.88,475Z"/><polygon class="cls-3" points="896.56 468.37 902.15 462.6 907.74 468.37 907.74 450.88 896.56 450.88 896.56 468.37"/><rect class="cls-1" x="886.79" y="406.32" width="77.27" height="26.47" transform="translate(1850.85 839.11) rotate(180)"/><rect class="cls-2" x="936.23" y="362.51" width="77.27" height="26.46"/><path class="cls-2" d="M948.11,409.49a14.37,14.37,0,0,1-4.83,23.34v1h106.57a14.1,14.1,0,0,0,14-14.24,14.29,14.29,0,0,0-4.09-10.06,13.79,13.79,0,0,0-9.88-4.17H943.28v1A13.86,13.86,0,0,1,948.11,409.49Z"/><path class="cls-2" d="M883,435.16h167.17a15.61,15.61,0,0,0,0-31.22H883a2.38,2.38,0,0,0,0,4.76h167.17a10.86,10.86,0,1,1,0,21.71H883a2.38,2.38,0,0,0,0,4.75Z"/><rect class="cls-1" x="925.04" y="362.51" width="115.54" height="38.41"/><path class="cls-2" d="M869,404h180.55a2.32,2.32,0,1,0,0-4.63H869a17.47,17.47,0,0,1,0-34.94h180.55a2.32,2.32,0,0,0,0-4.64H869A22.11,22.11,0,0,0,869,404Z"/><path class="cls-2" d="M848.73,381.85a20.66,20.66,0,0,0,20.66,20.65h99.88V402a20.66,20.66,0,0,1,0-40.27v-.52H869.39a20.66,20.66,0,0,0-20.66,20.66Z"/><rect class="cls-1" x="936.05" y="332.07" width="73.27" height="26.47"/><path class="cls-2" d="M952,335.24a14.37,14.37,0,0,0,4.83,23.34v1H874.31a14.1,14.1,0,0,1-14-14.24,14.29,14.29,0,0,1,4.09-10.06,13.79,13.79,0,0,1,9.88-4.17h82.52v1A13.86,13.86,0,0,0,952,335.24Z"/><path class="cls-2" d="M1017,361.06a2.22,2.22,0,0,0,0-4.43l-143.47-.74a11,11,0,0,1,0-22h.06l143.47.73h0a2.21,2.21,0,1,0,0-4.42l-143.47-.74h-.08a15.45,15.45,0,0,0-.07,30.89l143.47.74Z"/><path class="cls-4" d="M640.35,33.83l19.44-22.38L644.4,6.92A3.54,3.54,0,0,1,642,2.53h0A3.53,3.53,0,0,1,646.39.14L666.15,6a4.36,4.36,0,0,1,3,5.41h0a4.34,4.34,0,0,1-.84,1.57L646.4,39a4,4,0,0,1-4.17,1.25h0A4,4,0,0,1,640.35,33.83Z"/><path class="cls-4" d="M720.41,36.87q-1.62,5.15-4.82,7.24a8.43,8.43,0,0,1-7.49.75,8.15,8.15,0,0,1-5.46-4.92,12.8,12.8,0,0,1,.13-8.61c1.07-3.43,2.67-5.83,4.78-7.2a8.24,8.24,0,0,1,7.3-.75,8.39,8.39,0,0,1,5.6,4.92C721.46,30.72,721.44,33.58,720.41,36.87Zm-10.63-3.24a13.12,13.12,0,0,0-.78,4c0,.89.37,1.42,1,1.61s1.16-.06,1.69-.75a12.79,12.79,0,0,0,1.66-3.78,12.81,12.81,0,0,0,.79-4c0-.88-.35-1.42-1-1.6s-1.18.07-1.72.79A12.77,12.77,0,0,0,709.78,33.63Zm27,2.13L712.31,59a3.22,3.22,0,0,1-3.15.73h0a3.19,3.19,0,0,1-1.24-5.35l24.44-23.23a3.18,3.18,0,0,1,3.15-.73h0A3.19,3.19,0,0,1,736.75,35.76Zm5.4,22.91q-1.6,5.11-4.82,7.21a8.48,8.48,0,0,1-7.48.75,8.13,8.13,0,0,1-5.46-4.92q-1.44-3.65.12-8.59,1.62-5.15,4.78-7.2a8.29,8.29,0,0,1,7.31-.75,8.44,8.44,0,0,1,5.6,4.93A12.35,12.35,0,0,1,742.15,58.67Zm-10.63-3.24a13.07,13.07,0,0,0-.78,4c0,.88.37,1.42,1,1.61s1.28-.1,1.83-.93a15.22,15.22,0,0,0,1.55-3.59,14.94,14.94,0,0,0,.78-3.83c0-1-.29-1.6-1-1.81s-1.19.08-1.73.8A12.77,12.77,0,0,0,731.52,55.43Z"/><path class="cls-4" d="M683.86,25.82a12.79,12.79,0,0,1,7.88,5.69q2.35,4.06.76,9.45-1.87,6.39-6.82,8.67t-12.27.12a26.75,26.75,0,0,1-7.68-3.46,3.44,3.44,0,0,1-1.34-3.79h0a3.42,3.42,0,0,1,5.12-1.91l.56.33a22.05,22.05,0,0,0,5,2.22q7.37,2.17,9.15-3.87,1.69-5.76-5.94-8a20.43,20.43,0,0,0-3.12-.63c-.58-.07-1.11-.12-1.59-.16a3.63,3.63,0,0,1-2.3-1h0a3.65,3.65,0,0,1-.86-3.89l5.43-14.41a2.71,2.71,0,0,1,3.3-1.65L694,13.84a3.56,3.56,0,0,1,2.41,4.42h0a3.56,3.56,0,0,1-4.42,2.41l-10.18-3-2.91,7.27,1,.08A18.92,18.92,0,0,1,683.86,25.82Z"/><path class="cls-3" d="M161.27,314.63q-1.4,4.74-4.28,6.72a7.75,7.75,0,0,1-6.84.81,7.45,7.45,0,0,1-5.09-4.4,11.71,11.71,0,0,1,0-7.89q1.38-4.74,4.25-6.67a7.54,7.54,0,0,1,6.67-.82,7.74,7.74,0,0,1,5.22,4.4A11.33,11.33,0,0,1,161.27,314.63Zm-9.79-2.77a11.71,11.71,0,0,0-.64,3.7c.06.81.36,1.3.91,1.46s1.06-.08,1.53-.73a17.09,17.09,0,0,0,2.1-7.17c0-.81-.35-1.3-.89-1.46s-1.08.09-1.57.76A12.32,12.32,0,0,0,151.48,311.86Zm24.73,1.46-22,21.7a2.93,2.93,0,0,1-2.87.72h0a2.91,2.91,0,0,1-1.23-4.87l22-21.7a2.92,2.92,0,0,1,2.87-.72h0A2.91,2.91,0,0,1,176.21,313.32Zm5.35,20.87q-1.38,4.72-4.29,6.69a7.74,7.74,0,0,1-6.83.82,7.43,7.43,0,0,1-5.08-4.4,11.65,11.65,0,0,1-.05-7.87q1.38-4.74,4.25-6.67a7.57,7.57,0,0,1,6.67-.82,7.75,7.75,0,0,1,5.22,4.41A11.3,11.3,0,0,1,181.56,334.19Zm-9.79-2.77a11.75,11.75,0,0,0-.64,3.7c.06.81.36,1.3.91,1.46s1.17-.12,1.65-.89a17.07,17.07,0,0,0,2-6.83c0-.91-.29-1.45-.91-1.64s-1.08.09-1.57.76A12.32,12.32,0,0,0,171.77,331.42Z"/><path class="cls-3" d="M101.74,322,84,317.12a3.77,3.77,0,0,1-2.65-4.65h0a3.78,3.78,0,0,1,1.75-2.28L93,304.47c3.34-2,5.55-3.34,6.63-4.15a12.64,12.64,0,0,0,2.51-2.39,7.54,7.54,0,0,0,1.27-2.59,4.1,4.1,0,0,0-.3-3.46,4.67,4.67,0,0,0-2.82-1.88,9.23,9.23,0,0,0-4.22-.15,18.14,18.14,0,0,0-2,.52,3.27,3.27,0,0,1-4-1.74h0a3.28,3.28,0,0,1,1.89-4.48,14.3,14.3,0,0,1,1.82-.55,16.18,16.18,0,0,1,4.1-.39,20.15,20.15,0,0,1,4.65.74,13.81,13.81,0,0,1,5.47,2.79,9.55,9.55,0,0,1,3,4.43,9.17,9.17,0,0,1,0,5.32,12.62,12.62,0,0,1-2.09,4.31,18.14,18.14,0,0,1-3.83,3.63,66.74,66.74,0,0,1-8,4.63l-5.67,3-.1.33,12.16,3.33a3.23,3.23,0,0,1,2.27,4h0A3.23,3.23,0,0,1,101.74,322Z"/><path class="cls-3" d="M127.27,304.88a11.67,11.67,0,0,1,7.31,5.06,10.63,10.63,0,0,1,.87,8.65q-1.6,5.87-6.09,8.05t-11.23.33a24.25,24.25,0,0,1-7.08-3,3.14,3.14,0,0,1-1.3-3.45h0a3.14,3.14,0,0,1,4.65-1.85l.52.3a20.26,20.26,0,0,0,4.59,1.94q6.8,1.86,8.31-3.71,1.45-5.3-5.57-7.22a18.15,18.15,0,0,0-2.88-.52l-1.46-.12a3.32,3.32,0,0,1-2.12-.91h0a3.35,3.35,0,0,1-.85-3.55l4.71-13.29a2.48,2.48,0,0,1,3-1.56l13.65,3.74a3.26,3.26,0,0,1,2.29,4h0a3.27,3.27,0,0,1-4,2.28l-9.37-2.56-2.53,6.7.88.06A17.23,17.23,0,0,1,127.27,304.88Z"/><path class="cls-5" d="M278.41,475.53a10.1,10.1,0,0,1,0-20.19l13.19,0h0a10.1,10.1,0,0,1,0,20.19l-13.19,0Z"/><path class="cls-1" d="M269.29,475.55a10.1,10.1,0,0,1,0-20.19l9.12,0h0a10.1,10.1,0,0,1,0,20.19l-9.12,0Z"/><path class="cls-6" d="M269.29,475.55h0l-135.15-.21a10.1,10.1,0,0,1,0-20.19h0l135.14.21a10.1,10.1,0,0,1,0,20.19Z"/><path class="cls-7" d="M132,470h-9.12a4.76,4.76,0,0,1,0-9.52H132a4.77,4.77,0,0,1,0,9.53Z"/><path class="cls-6" d="M844.35,354.93c8.54,4.79,13.47,12.23,11,16.62s-11.38,4.06-19.93-.73c-5.91-3.31-8.91-10-10.2-13.8a2.78,2.78,0,0,1,2-3.6C831.17,352.54,838.43,351.61,844.35,354.93Z"/><path class="cls-6" d="M878.87,357.59c-4.82,4.89-10.77,6.85-13.28,4.37s-.64-8.45,4.18-13.34c3.34-3.39,8.42-4.18,11.23-4.34a1.94,1.94,0,0,1,2.06,2C882.93,349.12,882.21,354.21,878.87,357.59Z"/><path class="cls-7" d="M858.81,403.47a1,1,0,0,1-.95-1,217.87,217.87,0,0,0-8.86-59.8,1,1,0,0,1,1.83-.52,219.75,219.75,0,0,1,8.94,60.32A1,1,0,0,1,858.81,403.47Z"/><path class="cls-7" d="M847.69,336.08a.94.94,0,0,1-.9-.66A226.79,226.79,0,0,0,831.37,298a.95.95,0,1,1,1.66-.92c.08.14,8.33,15,15.57,37.73A1,1,0,0,1,848,336,.93.93,0,0,1,847.69,336.08Z"/><circle class="cls-5" cx="836.05" cy="308.51" r="16.57" transform="translate(459.63 1116.27) rotate(-85.27)"/><path class="cls-6" d="M862.34,403.47a1,1,0,0,1-1-.93c0-.51-.87-51.82,12.09-88.71a1,1,0,1,1,1.8.63c-12.85,36.56-12,87.53-12,88a.94.94,0,0,1-.93,1Z"/><polygon class="cls-6" points="888.55 317.66 876.83 305.94 860.82 310.23 856.53 326.24 868.25 337.95 884.26 333.66 888.55 317.66"/><path class="cls-1" d="M836.05,310.74c-8.92,0-17.94-2.11-17.94-6.14a.95.95,0,0,1,1.9,0c0,1.73,6.25,4.24,16,4.24s16-2.51,16-4.24a.95.95,0,0,1,1.9,0C854,308.63,845,310.74,836.05,310.74Z"/><path class="cls-1" d="M836.05,310.74c-8.92,0-17.94-2.11-17.94-6.14a.95.95,0,0,1,1.9,0c0,1.73,6.25,4.24,16,4.24s16-2.51,16-4.24a.95.95,0,0,1,1.9,0C854,308.63,845,310.74,836.05,310.74Z"/><path class="cls-1" d="M849.77,315.16a15.63,15.63,0,0,1-3.44-.45,44.22,44.22,0,0,1-11.42-4.79c-7.73-4.46-14.49-10.79-12.48-14.29a1,1,0,0,1,1.3-.34.94.94,0,0,1,.35,1.3c-.86,1.49,3.3,6.79,11.78,11.68a41.79,41.79,0,0,0,10.9,4.58c3.24.75,4.78.34,5.11-.24a1,1,0,1,1,1.65.95C852.91,314.62,851.63,315.16,849.77,315.16Z"/><path class="cls-1" d="M849.77,315.16a15.63,15.63,0,0,1-3.44-.45,44.22,44.22,0,0,1-11.42-4.79c-7.73-4.46-14.49-10.79-12.48-14.29a1,1,0,0,1,1.3-.34.94.94,0,0,1,.35,1.3c-.86,1.49,3.3,6.79,11.78,11.68a41.79,41.79,0,0,0,10.9,4.58c3.24.75,4.78.34,5.11-.24a1,1,0,1,1,1.65.95C852.91,314.62,851.63,315.16,849.77,315.16Z"/><path class="cls-1" d="M856.53,327.19a1,1,0,0,1-.24-1.87l32-8.58a1,1,0,0,1,1.17.67,1,1,0,0,1-.68,1.17l-32,8.58A1.07,1.07,0,0,1,856.53,327.19Z"/><path class="cls-1" d="M872.54,322.9a.92.92,0,0,1-.67-.28L860.15,310.9a1,1,0,0,1,1.35-1.34l11.71,11.71a1,1,0,0,1,0,1.35A.92.92,0,0,1,872.54,322.9Z"/><path class="cls-6" d="M194.26,410.76H267.8a0,0,0,0,1,0,0v28.48A36.77,36.77,0,0,1,231,476h0a36.77,36.77,0,0,1-36.77-36.77V410.76a0,0,0,0,1,0,0Z"/><path class="cls-6" d="M890.37,476H841.48A49.19,49.19,0,0,1,847,387.92a48.15,48.15,0,0,1,7.26-2.39A49.2,49.2,0,0,1,890.37,476Z"/><path class="cls-7" d="M883.6,477a.93.93,0,0,1-.75-.38,1,1,0,0,1,.18-1.33,49.47,49.47,0,0,0-1-79.33,1,1,0,1,1,1.11-1.55,51.42,51.42,0,0,1,1,82.4A.94.94,0,0,1,883.6,477Zm-61.28,0a1,1,0,0,1-.58-.19,51.34,51.34,0,0,1-17.47-57.25,1,1,0,0,1,1.81.61,49.4,49.4,0,0,0,16.82,55.12,1,1,0,0,1,.18,1.34A1,1,0,0,1,822.32,477ZM817,401.55a.93.93,0,0,1-.66-.27,1,1,0,0,1,0-1.35,51.41,51.41,0,0,1,38-15.36c1.19,0,2.39.11,3.58.23a.95.95,0,1,1-.19,1.89c-1.14-.11-2.3-.18-3.45-.21a49.49,49.49,0,0,0-36.59,14.78A1,1,0,0,1,817,401.55Z"/><path class="cls-7" d="M850.1,464.47a11.09,11.09,0,0,1-6.49-1.85,6.73,6.73,0,0,1-2.76-6.08,1,1,0,0,1,1-.9.94.94,0,0,1,.9,1,4.9,4.9,0,0,0,2,4.45c2.58,1.87,6.92,1.78,9.7.73,6.05-2.28,9.59-9.42,7.87-15.93a14.16,14.16,0,0,0-7.13-8.72,35.67,35.67,0,0,0-4.68-1.89c-4-1.4-8.13-2.84-10.26-7.09s-1.59-10.19,1.62-15.11,8.26-7.81,13.19-7.56h0a8.82,8.82,0,0,1,8.35,9.24,1,1,0,0,1-1,.9,1,1,0,0,1-.91-1,6.9,6.9,0,0,0-6.53-7.24h0c-4.26-.21-8.65,2.35-11.49,6.7s-3.42,9.42-1.52,13.22c1.79,3.56,5.38,4.81,9.18,6.14a38.08,38.08,0,0,1,4.94,2,16.08,16.08,0,0,1,8.09,9.93c2,7.42-2.1,15.58-9,18.19A14.4,14.4,0,0,1,850.1,464.47Z"/><path class="cls-7" d="M850.34,472.47h0a.94.94,0,0,1-.91-1l2.87-72.74a1,1,0,1,1,1.9.08l-2.87,72.74A1,1,0,0,1,850.34,472.47Z"/><path class="cls-2" d="M994.46,118.35H807.81a25.33,25.33,0,0,1,.2-4.46h0a40.49,40.49,0,0,1,4.84-14.26c3.95-7,9.86-12.1,16.5-10.51a14.58,14.58,0,0,1,6.27,3.49c3.2,2.83,5.78,6.31,9,9.18s7.22,5.17,11.48,4.86c5.33-.39,9.17-5.16,10-10.19,1.92-12.1,1.8-36,16.93-39.31.28-.06.57-.12.85-.16,12.92-2.21,21.83,10.41,25.27,21.73a35.53,35.53,0,0,1,1,3.78A47.77,47.77,0,0,1,911.12,92c0,.2,0,.41.07.61.1.88.22,1.75.37,2.6a20.63,20.63,0,0,0,1.79,5.89,2.66,2.66,0,0,0,1.56,1.57c2.07.5,3.8-1.89,5-3.8.33-.53.62-1,.86-1.41,3.75-6,14.1-9.92,18.77-2.79,3.26,5,.55,14.71,7.34,17.2,7.8,2.84,9.76-7.4,10.45-12.66.85-6.45.71-13.07,2.61-19.35.81-1.88,2.15-4,4.3-4.3a5.58,5.58,0,0,1,4.85,3.5c2.38,5.79,3,12,3.91,18.18.71,5,1.67,16,8.3,16.6,3.52.33,6.71-6,10-3.17C993.32,112.39,993.21,116.08,994.46,118.35Z"/><polygon class="cls-1" points="847.4 255.59 852.06 257.38 848.33 264.86 848.52 266.78 847.4 255.59"/><polygon class="cls-6" points="848.52 266.78 849.51 276.78 884.16 266.54 846.24 243.87 847.4 255.59 848.52 266.78"/><polygon class="cls-7" points="838.59 266.25 876.8 265.11 847.43 255.59 838.59 266.25"/><path class="cls-7" d="M821.94,253.71a1,1,0,0,1-.3,0l-3.76-1a1.14,1.14,0,1,1,.59-2.21l3.76,1a1.14,1.14,0,0,1-.29,2.25Zm-11.28-3a1,1,0,0,1-.29,0l-3.76-1a1.14,1.14,0,0,1,.59-2.21l3.76,1a1.14,1.14,0,0,1-.3,2.24Zm-11.27-3a1.54,1.54,0,0,1-.3,0l-3.75-1a1.14,1.14,0,0,1,.58-2.21l3.76,1a1.14,1.14,0,0,1-.29,2.25Zm-11.27-3a1,1,0,0,1-.3,0l-3.76-1a1.14,1.14,0,1,1,.59-2.21l3.76,1a1.13,1.13,0,0,1,.81,1.39A1.15,1.15,0,0,1,788.12,244.69Zm-11.28-3a1.45,1.45,0,0,1-.29,0l-3.76-1a1.14,1.14,0,1,1,.59-2.21l3.76,1a1.15,1.15,0,0,1-.3,2.25Zm-11.27-3a1,1,0,0,1-.3,0l-3.76-1a1.14,1.14,0,0,1,.59-2.21l3.76,1a1.14,1.14,0,0,1-.29,2.25Zm-11.28-3a1.55,1.55,0,0,1-.29,0l-3.76-1a1.15,1.15,0,0,1-.81-1.4,1.14,1.14,0,0,1,1.4-.81l3.76,1a1.14,1.14,0,0,1-.3,2.25Z"/><path class="cls-6" d="M721.39,155.68l-369.3-32.85a11.51,11.51,0,0,0-12.48,10.44L317.27,384.46a12,12,0,0,0,10.9,13l368.28,32.76a12,12,0,0,0,13-10.9l22.35-251.19A11.51,11.51,0,0,0,721.39,155.68ZM693.31,413.26l-359-31.94,21.48-241.45,359,31.94Z"/><rect class="cls-3" x="403.32" y="96.33" width="242.41" height="360.47" transform="translate(202.57 774.52) rotate(-84.92)"/><path class="cls-6" d="M543.62,473.78l-72.7-6.47c-3.7-.33-6.63-1.4-6.54-2.39L469.26,410h0l86.11,7.66-4.89,54.88C550.4,473.57,547.32,474.11,543.62,473.78Z"/><path class="cls-6" d="M578.12,476l-66.44-2.18-75.78-6.75a19.85,19.85,0,0,1,21.53-18l102.69,9.14A19.86,19.86,0,0,1,578.12,476Z"/><path class="cls-7" d="M549.28,457.08a.92.92,0,0,1-.92-.92V416.23a.92.92,0,0,1,.92-.92H604a.93.93,0,0,1,0,1.85H550.21v39A.93.93,0,0,1,549.28,457.08Z"/><path class="cls-7" d="M577.46,476.93H475.52a.92.92,0,1,1,0-1.84h101a19,19,0,0,0-18.91-18h-8.33a.93.93,0,0,1,0-1.85h8.33A20.8,20.8,0,0,1,578.38,476,.92.92,0,0,1,577.46,476.93Z"/><path class="cls-7" d="M434.66,476.93a.92.92,0,0,1-.92-.92,20.8,20.8,0,0,1,20.77-20.78h7.4V415.56a.93.93,0,0,1,1.85,0v40.6a.92.92,0,0,1-.92.92h-8.33A19,19,0,0,0,435.58,476,.92.92,0,0,1,434.66,476.93Z"/><path class="cls-7" d="M702.94,232.83a.93.93,0,0,1-.92-.93V151.37a10.59,10.59,0,0,0-10.59-10.58H602.88a.93.93,0,0,1,0-1.85h88.55a12.44,12.44,0,0,1,12.43,12.43V231.9A.93.93,0,0,1,702.94,232.83Z"/><path class="cls-7" d="M309.18,298.78a.93.93,0,0,1-.93-.92V198.39a.93.93,0,0,1,1.85,0v99.47A.92.92,0,0,1,309.18,298.78Z"/><path class="cls-7" d="M309.18,178.6a.93.93,0,0,1-.93-.92V151.37a12.45,12.45,0,0,1,12.43-12.43h80.91a.93.93,0,0,1,0,1.85H320.68a10.59,10.59,0,0,0-10.58,10.58v26.31A.92.92,0,0,1,309.18,178.6Z"/><path class="cls-7" d="M462.84,416.48H396.42a.92.92,0,0,1,0-1.84h66.42a.92.92,0,0,1,0,1.84Z"/><path class="cls-7" d="M327.19,416.48h-2.43A16.52,16.52,0,0,1,308.25,400V281.13a.93.93,0,0,1,1.85,0V400a14.67,14.67,0,0,0,14.66,14.66h2.43a.92.92,0,0,1,0,1.84Z"/><path class="cls-2" d="M26.41,85.15H166.17c-.94-11.7-8.59-31.67-10-34-.58-.93-1.08-1.79-1.5-2.46-6.53-10.36-24.53-17.26-32.65-4.84-5.68,8.68-1,25.59-12.78,29.91-13.56,5-17-12.87-18.18-22C89.56,40.54,89.81,29,86.5,18.1c-1.41-3.27-3.74-7-7.49-7.48-3.74,0-7,2.8-8.42,6.08-4.15,10.08-5.29,20.94-6.8,31.64C62.55,57,60.87,76.16,49.33,77.23,43.21,77.8,37.66,66.86,32,71.71,28.39,74.78,28.58,81.21,26.41,85.15Z"/><path class="cls-7" d="M359.9,477h-83a1,1,0,0,1,0-2.07h83a1,1,0,0,1,0,2.07Z"/><path class="cls-7" d="M264.53,477H1A1,1,0,1,1,1,475H264.53a1,1,0,1,1,0,2.07Z"/><path class="cls-7" d="M624,477H359.9a1,1,0,1,1,0-2.07H624a1,1,0,1,1,0,2.07Z"/><path class="cls-3" d="M396.41,83.55a8.11,8.11,0,0,1-3.59,4.16,5.31,5.31,0,0,1-4.75-.12,5.12,5.12,0,0,1-3-3.51,8,8,0,0,1,.75-5.39,8,8,0,0,1,3.56-4.15,5.23,5.23,0,0,1,4.64.1,5.32,5.32,0,0,1,3.13,3.53A7.81,7.81,0,0,1,396.41,83.55ZM390,80.68a8.25,8.25,0,0,0-.81,2.47q-.06.84.48,1.08c.36.17.73,0,1.12-.34a8.32,8.32,0,0,0,1.34-2.23,8.65,8.65,0,0,0,.81-2.47c0-.55-.12-.92-.47-1.08s-.75,0-1.15.36A8.15,8.15,0,0,0,390,80.68Zm16.76,3.44L389.6,96.79a2,2,0,0,1-2,.21h0a2,2,0,0,1-.36-3.45l17.15-12.67a2,2,0,0,1,2-.21h0A2,2,0,0,1,406.76,84.12Zm1.59,14.8a8.08,8.08,0,0,1-3.59,4.15A5.34,5.34,0,0,1,400,103a5.13,5.13,0,0,1-3-3.52,9.61,9.61,0,0,1,4.31-9.52,5.2,5.2,0,0,1,4.64.1,5.33,5.33,0,0,1,3.13,3.52A7.81,7.81,0,0,1,408.35,98.92Zm-6.42-2.86a8.12,8.12,0,0,0-.8,2.46c0,.56.12.93.48,1.09s.81,0,1.22-.44A9.71,9.71,0,0,0,404.08,97a9.56,9.56,0,0,0,.79-2.34c.09-.63-.06-1-.46-1.21s-.75,0-1.15.36A8.38,8.38,0,0,0,401.93,96.06Z"/><rect class="cls-6" x="246.24" y="173.11" width="122.78" height="157.12" transform="translate(-0.35 0.43) rotate(-0.08)"/><path class="cls-7" d="M265.57,341.5,245.4,238.37a1,1,0,0,1,1.87-.37l19.8,101.27,45.32-8.86a1,1,0,0,1,1.12.75,1,1,0,0,1-.75,1.12Z"/><path class="cls-7" d="M331.87,328.52a.95.95,0,0,1-.18-1.88l48.09-9.41L350,164.9l-112.71,22,5,25.38a1,1,0,0,1-1.87.37l-5.32-27.25L351.5,162.66,382,318.74l-50,9.76A.55.55,0,0,1,331.87,328.52Z"/><path class="cls-1" d="M336.68,207.43l-65.24,12.76a11.88,11.88,0,0,1-13.94-9.38h0a11.88,11.88,0,0,1,9.38-13.94l65.25-12.75a11.88,11.88,0,0,1,13.93,9.38h0A11.88,11.88,0,0,1,336.68,207.43Z"/><path class="cls-1" d="M280.18,247.64l-5.79,1.13a7.65,7.65,0,0,1-9-6h0a7.65,7.65,0,0,1,6-9l5.79-1.13a7.65,7.65,0,0,1,9,6h0A7.65,7.65,0,0,1,280.18,247.64Z"/><path class="cls-1" d="M313.63,241.1l-5.79,1.13a7.65,7.65,0,0,1-9-6h0a7.65,7.65,0,0,1,6-9l5.79-1.13a7.65,7.65,0,0,1,9,6h0A7.65,7.65,0,0,1,313.63,241.1Z"/><path class="cls-5" d="M347.08,234.56l-5.79,1.13a7.65,7.65,0,0,1-9-6h0a7.64,7.64,0,0,1,6-9l5.79-1.14a7.65,7.65,0,0,1,9,6h0A7.65,7.65,0,0,1,347.08,234.56Z"/><path class="cls-1" d="M285,272.08l-5.79,1.14a7.65,7.65,0,0,1-9-6h0a7.64,7.64,0,0,1,6-9l5.79-1.13a7.65,7.65,0,0,1,9,6h0A7.64,7.64,0,0,1,285,272.08Z"/><path class="cls-1" d="M318.41,265.55l-5.79,1.13a7.65,7.65,0,0,1-9-6h0a7.65,7.65,0,0,1,6-9l5.79-1.13a7.65,7.65,0,0,1,9,6h0A7.66,7.66,0,0,1,318.41,265.55Z"/><path class="cls-7" d="M351.86,259l-5.79,1.13a7.64,7.64,0,0,1-9-6h0a7.65,7.65,0,0,1,6-9l5.79-1.13a7.66,7.66,0,0,1,9,6h0A7.65,7.65,0,0,1,351.86,259Z"/><path class="cls-1" d="M289.74,296.53,284,297.66a7.65,7.65,0,0,1-9-6h0a7.65,7.65,0,0,1,6-9l5.79-1.13a7.65,7.65,0,0,1,9,6h0A7.65,7.65,0,0,1,289.74,296.53Z"/><path class="cls-1" d="M323.19,290l-5.79,1.13a7.64,7.64,0,0,1-9-6h0a7.65,7.65,0,0,1,6-9l5.78-1.13a7.65,7.65,0,0,1,9,6h0A7.65,7.65,0,0,1,323.19,290Z"/><path class="cls-1" d="M356.64,283.45l-5.79,1.13a7.64,7.64,0,0,1-9-6h0a7.65,7.65,0,0,1,6-9l5.79-1.13a7.65,7.65,0,0,1,9,6h0A7.65,7.65,0,0,1,356.64,283.45Z"/><path class="cls-1" d="M294.52,321l-5.79,1.14a7.65,7.65,0,0,1-9-6h0a7.64,7.64,0,0,1,6-9l5.78-1.14a7.66,7.66,0,0,1,9,6h0A7.65,7.65,0,0,1,294.52,321Z"/><path class="cls-1" d="M328,314.43l-5.79,1.14a7.65,7.65,0,0,1-9-6h0a7.64,7.64,0,0,1,6-9l5.79-1.13a7.64,7.64,0,0,1,9,6h0A7.64,7.64,0,0,1,328,314.43Z"/><rect class="cls-1" x="343.94" y="267.33" width="21.19" height="41.51" rx="10.6" transform="translate(-48.69 73.37) rotate(-11.06)"/><rect class="cls-2" x="448.31" y="79.98" width="201.22" height="241.22" transform="translate(85.69 -155.73) rotate(17.49)"/><rect class="cls-6" x="429.29" y="93.02" width="201.22" height="241.22" transform="translate(38.41 -77.69) rotate(8.7)"/><path class="cls-7" d="M397.34,316.28h-.15a.93.93,0,0,1-.77-1L432.91,76.77a.92.92,0,1,1,1.82.28L398.25,315.5A.93.93,0,0,1,397.34,316.28Z"/><path class="cls-7" d="M609,214h-.14L502.12,197.61a.91.91,0,0,1-.77-1.05.92.92,0,0,1,1-.77l106.77,16.34a.91.91,0,0,1,.77,1.05A.92.92,0,0,1,609,214Z"/><path class="cls-7" d="M606.09,233.16H606L457.18,210.39a.93.93,0,0,1,.28-1.83l148.77,22.77a.92.92,0,0,1-.14,1.83Z"/><path class="cls-7" d="M603.15,252.36H603l-99.28-15.19a.92.92,0,0,1,.28-1.82l99.28,15.19a.92.92,0,0,1-.14,1.83Z"/><path class="cls-7" d="M484.79,234.25h-.14l-30.41-4.65a.92.92,0,0,1-.77-1.05.91.91,0,0,1,1-.77l30.41,4.65a.92.92,0,0,1-.14,1.83Z"/><rect class="cls-1" x="465.4" y="139.09" width="9.48" height="22.84" transform="translate(28.18 -69.38) rotate(8.7)"/><rect class="cls-5" x="490" y="117.95" width="9.48" height="47.61" transform="translate(27.13 -73.2) rotate(8.7)"/><rect class="cls-1" x="511.57" y="136.82" width="9.48" height="32.13" transform="translate(29.06 -76.34) rotate(8.7)"/><rect class="cls-7" x="536.16" y="115.88" width="9.48" height="56.69" transform="translate(28.04 -80.15) rotate(8.7)"/><rect class="cls-1" x="558.06" y="130.3" width="9.48" height="45.69" transform="translate(29.64 -83.36) rotate(8.7)"/><rect class="cls-1" x="579.77" y="147.26" width="9.48" height="32.13" transform="translate(31.43 -86.53) rotate(8.7)"/><rect class="cls-5" x="603.53" y="137.26" width="9.48" height="45.69" transform="matrix(0.99, 0.15, -0.15, 0.99, 31.21, -90.16)"/><path class="cls-7" d="M509,294.47a26.35,26.35,0,0,1-19.1,21.44L483,290.48Z"/><path class="cls-1" d="M473.5,281.34l7,25.43a26.36,26.36,0,1,1,19.1-21.44Z"/><path class="cls-5" d="M499.56,285.33l-26.06-4,4-26A26.36,26.36,0,0,1,499.56,285.33Z"/><path class="cls-6" d="M480.46,306.77A26.38,26.38,0,0,1,457,301.9l16.5-20.56Z"/><path class="cls-7" d="M591.08,270.17h-.14l-44.25-6.77a.93.93,0,0,1,.28-1.83l44.25,6.77a.93.93,0,0,1-.14,1.84Z"/><rect class="cls-1" x="530.45" y="297.04" width="59.46" height="21.55" transform="matrix(0.99, 0.15, -0.15, 0.99, 53.01, -81.19)"/><path class="cls-5" d="M754.05,369.47a9.61,9.61,0,0,1-9.38-7.55l-1.32-6.09a9.6,9.6,0,1,1,18.76-4.1l1.33,6.09a9.6,9.6,0,0,1-9.39,11.65Z"/><path class="cls-5" d="M768.67,370.21a3.39,3.39,0,0,1-2.37-1l-10.09-9.8a3.4,3.4,0,0,1,4.74-4.88l10.1,9.8a3.41,3.41,0,0,1-2.38,5.85Z"/><path class="cls-5" d="M767.61,378.71a3.38,3.38,0,0,1-2.45-1l-11.34-11.82a3.4,3.4,0,1,1,4.91-4.71L770.07,373a3.41,3.41,0,0,1-2.46,5.76Z"/><path class="cls-5" d="M760.62,381.24A3.42,3.42,0,0,1,758,380l-8.54-10.33a3.41,3.41,0,0,1,5.25-4.34l8.54,10.33a3.41,3.41,0,0,1-.46,4.79A3.34,3.34,0,0,1,760.62,381.24Z"/><path class="cls-7" d="M780.61,448.8l-4.43,4-6-3.18-3.06,2.77,2.1,6.73L750.64,476l-2.78-3a8.31,8.31,0,0,1-1.74-8.36l1.23-3.52,2.08-5.95-3.69-8.69-.23-.53,6.73-5.48.85-.69L764,430.84l3.56,3.85,7.25,7.85,3,3.25Z"/><path class="cls-7" d="M742.54,414.47a.88.88,0,0,1-.86-.68l-9.94-40.88a.88.88,0,0,1,.65-1.06l7.31-1.78a.9.9,0,0,1,1.07.65.88.88,0,0,1-.65,1.06l-6.46,1.57,9.53,39.17,54.11-13.16-9.52-39.16-14.35,3.48a.87.87,0,0,1-1.06-.64A.88.88,0,0,1,773,362l15.2-3.69a.87.87,0,0,1,.67.1.85.85,0,0,1,.39.54l9.94,40.88a.88.88,0,0,1-.65,1.07l-55.82,13.57Z"/><polygon class="cls-6" points="645.08 340.05 640.74 321.34 679.37 312.37 701.37 288 715.62 300.87 689.59 329.72 645.08 340.05"/><rect class="cls-5" x="633.89" y="322.13" width="9.37" height="19.21" transform="translate(-31.6 69.65) rotate(-6.09)"/><path class="cls-5" d="M636.91,329.07a3.37,3.37,0,0,1-2-.63L627.26,323a3.4,3.4,0,1,1,3.94-5.55l7.68,5.46a3.4,3.4,0,0,1-2,6.17Z"/><path class="cls-6" d="M646.19,342.27a3.4,3.4,0,0,1-3.24-2.38l-5.07-16.29a3.39,3.39,0,0,1,6.47-2l5.07,16.29a3.39,3.39,0,0,1-2.22,4.25A3.58,3.58,0,0,1,646.19,342.27Z"/><path class="cls-1" d="M656.92,333.1a2.56,2.56,0,1,1-2.66-2.46A2.57,2.57,0,0,1,656.92,333.1Z"/><path class="cls-7" d="M682.77,476.63h-6l-2.33-6.4h-4.13l-3,6.4h-25l0-4.1v-.08a8.29,8.29,0,0,1,4.32-7.28l3.27-1.78,5.54-3,3.1-8.92.19-.54,8.67.46,1.09.05,14.07.76.05,5.08.1,11.07,0,4.2Z"/><rect class="cls-7" x="658.86" y="421.32" width="32.48" height="26.51" transform="translate(99.92 994.73) rotate(-77.01)"/><path class="cls-7" d="M678.77,432a13.3,13.3,0,0,1-12.93-16.24L674.78,377a13.26,13.26,0,0,1,3.87-6.71l30-28,.16-14.23a13.25,13.25,0,0,1,13.25-13.12h.14a13.24,13.24,0,0,1,13.11,13.39l-.16,14.82a25.25,25.25,0,0,1-8,18.11L699.7,386.9l-8,34.83A13.27,13.27,0,0,1,678.77,432Z"/><path class="cls-6" d="M684.14,454.29H684l-27.32-.81a3.39,3.39,0,1,1,.2-6.77l27.32.81a3.39,3.39,0,0,1-.1,6.77Z"/><rect class="cls-7" x="731.98" y="412.94" width="26.51" height="27.7" transform="translate(-108.89 516.23) rotate(-35.78)"/><path class="cls-7" d="M737.15,428.81a13.24,13.24,0,0,1-10.76-5.5L707.46,397a13.37,13.37,0,0,1-2.13-4.61L693.6,344.29A13.25,13.25,0,0,1,719.35,338l11.13,45.62,17.41,24.17a13.25,13.25,0,0,1-10.74,21Z"/><path class="cls-7" d="M722.07,353.83h-15.8a13.26,13.26,0,1,1,0-26.51h15.8a13.26,13.26,0,0,1,0,26.51Z"/><path class="cls-6" d="M743,448.27a3.39,3.39,0,0,1-1.88-6.21l21-14a3.39,3.39,0,1,1,3.76,5.64l-21,14A3.42,3.42,0,0,1,743,448.27Z"/><path class="cls-7" d="M735.35,329.42,692.46,340l-5.9-30.18a24.36,24.36,0,0,1,24.06-29h0a24.84,24.84,0,0,1,24.84,24.83Z"/><path class="cls-5" d="M697.62,285.43l.58-11.63.51-7.47.25-3.55a5.9,5.9,0,0,1,6.3-5.48,4.82,4.82,0,0,1,.75.1,5.9,5.9,0,0,1,4.65,4.69,5.75,5.75,0,0,1,.08,1.5l-.86,12.54-.34,4.89C709.32,284.27,697.39,288.69,697.62,285.43Z"/><path class="cls-5" d="M718.68,392.29a10.46,10.46,0,0,1-7.14,10.41l-4.16-5.77a12.63,12.63,0,0,1-2-4.37l-2.18-8.95a10.47,10.47,0,0,1,15.5,8.68Z"/><polygon class="cls-1" points="711.26 276.53 695.43 285.4 697.61 288.06 711.74 286 711.26 276.53"/><path class="cls-5" d="M694.57,271.35h0a7.29,7.29,0,0,1-2.3-10.05l3.21-5.12a9.6,9.6,0,0,1,13.24-3h0a9.61,9.61,0,0,1,3,13.24l-.75,1.2A11.92,11.92,0,0,1,694.57,271.35Z"/><path class="cls-5" d="M695.9,257.69l-6.42,3.72a1,1,0,0,0,.12,1.82l3.86,1.61Z"/><path class="cls-7" d="M704.85,258.1a10.25,10.25,0,0,0-.33,2.65,3.28,3.28,0,0,0,1.87,2.59,14.72,14.72,0,0,0,4.41,1.1c3.26.51,7.75-1,6.69-5.2a3.77,3.77,0,0,0-3-2.79,3.12,3.12,0,0,0,2.78-.46,2.45,2.45,0,0,0,.88-2.61,3,3,0,0,0-2.57-1.85,9.05,9.05,0,0,0-3.29.5,5,5,0,0,0-2-3.7,4,4,0,0,0-4.1-.39,1.93,1.93,0,0,0-.95,1,1,1,0,0,0,.36,1.22,3,3,0,0,0-5.25-2.7,2.55,2.55,0,0,0-.46,1,5.12,5.12,0,0,1,.21,1.08c-1.54,0-4.29-2.11-2.31-3.62a4.8,4.8,0,0,0-4.83,1.89,3.91,3.91,0,0,0-.25,3.86c1.24,2.78,4.38,3.7,7,4.55,1.53.48,4.52,1.64,4.52,1.64l.55.24Z"/><path class="cls-1" d="M692.46,340.88a.88.88,0,0,1-.21-1.74L735,328.61a.88.88,0,0,1,.43,1.71l-42.71,10.53Z"/><path class="cls-1" d="M708.23,337.71a4.92,4.92,0,1,1-4.92-4.91A4.92,4.92,0,0,1,708.23,337.71Z"/><path class="cls-1" d="M696,391.84a.86.86,0,0,1-.65-.28.88.88,0,0,1,.05-1.25l30.45-28.13a.87.87,0,0,1,1.24.05.88.88,0,0,1,0,1.25l-30.45,28.13A.89.89,0,0,1,696,391.84Z"/><path class="cls-5" d="M688.76,378.16a10.45,10.45,0,0,1-16.25,8.7l2.27-9.86a13.37,13.37,0,0,1,3.87-6.71l2.39-2.23A10.46,10.46,0,0,1,688.76,378.16Z"/><rect class="cls-6" x="690.57" y="306.59" width="10.41" height="10.41" transform="translate(424.26 -400.66) rotate(45)"/><rect class="cls-1" x="698.57" y="306.59" width="10.41" height="10.41" transform="translate(426.6 -406.32) rotate(45)"/><rect class="cls-6" x="732.42" y="371.81" width="57.46" height="42.07" transform="translate(-71.26 190.94) rotate(-13.67)"/><path class="cls-7" d="M691.05,263.89a4.27,4.27,0,0,1,2.13-.42,5.36,5.36,0,0,1,3.23,1.31c1,.87,1.79,1.94,3.26,1.74a10.1,10.1,0,0,0,1.61-.44,19.26,19.26,0,0,0,3.67-1.74h0l5.29,3.5c.5.45-2.39,2.88-2.67,3.14a13,13,0,0,1-10.71,3.22,11.07,11.07,0,0,1-5.92-3C688.85,269,688.6,265.17,691.05,263.89Z"/><path class="cls-5" d="M712.54,266.26a4.53,4.53,0,1,1-2.8-5.76A4.53,4.53,0,0,1,712.54,266.26Z"/><path class="cls-6" d="M744.25,324.62a9.59,9.59,0,0,1-6.49-2.53l-23.49-21.55a9.6,9.6,0,1,1,13-14.15l23.49,21.55a9.6,9.6,0,0,1-6.49,16.68Z"/><path class="cls-5" d="M749.24,379.5a3.4,3.4,0,0,1-3.4-3.22l-.64-11.79a3.41,3.41,0,0,1,6.8-.37l.64,11.8a3.41,3.41,0,0,1-3.22,3.58Z"/><rect class="cls-6" x="738.89" y="314.56" width="19.21" height="39.68" transform="translate(-54.14 167.52) rotate(-12.33)"/><path class="cls-6" d="M744.25,359.39a3.39,3.39,0,0,1-.74-6.7l16.89-3.81a3.39,3.39,0,0,1,1.5,6.61L745,359.3A3.2,3.2,0,0,1,744.25,359.39Z"/><path class="cls-1" d="M758.25,344.4a2.56,2.56,0,1,1-2.82-2.28A2.56,2.56,0,0,1,758.25,344.4Z"/><path class="cls-1" d="M761.23,402.13a.88.88,0,0,1-.49-.15l-8.63-5.82a.88.88,0,0,1-.24-1.22l5.82-8.63a.85.85,0,0,1,.56-.37.89.89,0,0,1,.67.13l8.63,5.82a.88.88,0,0,1,.23,1.23L762,401.75A.88.88,0,0,1,761.23,402.13Zm-7.4-6.94L761,400l4.84-7.17L758.66,388Z"/><path class="cls-6" d="M685.54,469.21a.75.75,0,0,1-.26,0l-12.93-4a.9.9,0,0,1-.61-.76.87.87,0,0,1,.45-.86l12.82-7a.87.87,0,0,1,.87,0,.9.9,0,0,1,.44.75l.1,11.07a.91.91,0,0,1-.35.72A.93.93,0,0,1,685.54,469.21Zm-10.68-5.13,9.79,3.05-.08-8.39Z"/><path class="cls-6" d="M766.31,447.87a.88.88,0,0,1-.86-1.1l3.56-14a.88.88,0,0,1,1.5-.38l7.26,7.85a.89.89,0,0,1-.22,1.37l-10.81,6.15A.82.82,0,0,1,766.31,447.87Zm4-13.1-2.65,10.42,8.05-4.58Z"/><path class="cls-7" d="M637.14,334.48h0c-2.58,0-4.43-.84-5.5-2.36a7.22,7.22,0,0,1-.73-5.62L626.72,324a.89.89,0,0,1,.91-1.52l4.75,2.84a.88.88,0,0,1,.38,1.05s-1,2.91.31,4.73c.73,1,2.11,1.57,4.08,1.6a.89.89,0,0,1,0,1.77Z"/><rect class="cls-5" x="598.8" y="275.31" width="11.3" height="25.42" transform="translate(-59.25 376.46) rotate(-33.07)"/><rect class="cls-7" x="616.53" y="284.58" width="20.35" height="75.24" transform="translate(-74.29 394.13) rotate(-33.07)"/><path class="cls-1" d="M564.16,283.89a50,50,0,0,1,15-98.77l.54.08a50,50,0,0,1-15,98.77Zm14.51-92-.46-.08a43.18,43.18,0,0,0-13,85.37l.47.07a43.17,43.17,0,0,0,13-85.36Z"/><path class="cls-5" d="M619.78,343.11a3.4,3.4,0,0,1-.32-6.79l7.44-.72a3.4,3.4,0,1,1,.65,6.77l-7.44.72Z"/><path class="cls-5" d="M616.38,336.69a3.4,3.4,0,0,1-.25-6.79l8.81-.66a3.4,3.4,0,1,1,.51,6.78l-8.81.66Z"/><path class="cls-5" d="M624.77,330.23h-.22l-7.26-.44a3.4,3.4,0,0,1,.42-6.79l7.26.44a3.4,3.4,0,0,1-.2,6.8Z"/><path class="cls-7" d="M256.41,422.94a.92.92,0,0,1-.92-.92v-9.39h-34.9a.92.92,0,0,1,0-1.84h35.82a.92.92,0,0,1,.92.92V422A.92.92,0,0,1,256.41,422.94Z"/><path class="cls-7" d="M219.64,475.67A37.74,37.74,0,0,1,181.94,438V411.71a.92.92,0,0,1,.92-.92h22a.92.92,0,0,1,0,1.84H183.79V438a35.85,35.85,0,0,0,67.37,17.09.92.92,0,1,1,1.62.88A37.7,37.7,0,0,1,219.64,475.67Z"/><path class="cls-7" d="M264.62,452h-6.69a.92.92,0,0,1,0-1.84h6.69a20.83,20.83,0,0,0,18.6-11.62,7.56,7.56,0,0,0-6.8-10.88H265a.92.92,0,1,1,0-1.84h11.39a9.4,9.4,0,0,1,8.45,13.53A22.66,22.66,0,0,1,264.62,452Z"/><path class="cls-6" d="M200.6,392.87a.93.93,0,0,1-.92-.93c0-3.64,3.54-5.4,6.65-7,2.9-1.45,5.63-2.82,5.63-5.32s-2.73-3.87-5.63-5.31c-3.11-1.56-6.65-3.33-6.65-7s3.54-5.41,6.65-7c2.9-1.45,5.63-2.82,5.63-5.32s-2.73-3.87-5.63-5.32c-3.11-1.55-6.65-3.32-6.65-7s3.54-5.41,6.65-7c2.9-1.44,5.63-2.81,5.63-5.31a.93.93,0,0,1,1.85,0c0,3.64-3.54,5.41-6.65,7-2.9,1.45-5.63,2.82-5.63,5.32s2.73,3.87,5.63,5.32c3.11,1.55,6.65,3.32,6.65,7s-3.54,5.41-6.65,7c-2.9,1.45-5.63,2.82-5.63,5.32s2.73,3.87,5.63,5.32c3.11,1.56,6.65,3.32,6.65,7s-3.54,5.41-6.65,7c-2.9,1.45-5.63,2.81-5.63,5.31A.93.93,0,0,1,200.6,392.87Z"/><path class="cls-6" d="M237.31,399.69a.92.92,0,0,1-.92-.92c0-3.64,3.53-5.41,6.65-7,2.89-1.45,5.63-2.81,5.63-5.32s-2.74-3.86-5.63-5.31c-3.12-1.56-6.65-3.33-6.65-7s3.53-5.4,6.65-7c2.89-1.45,5.63-2.82,5.63-5.32s-2.74-3.87-5.63-5.31c-3.12-1.56-6.65-3.33-6.65-7a.92.92,0,0,1,1.84,0c0,2.5,2.74,3.87,5.63,5.32,3.12,1.56,6.65,3.32,6.65,7s-3.53,5.41-6.65,7c-2.89,1.45-5.63,2.81-5.63,5.31s2.74,3.87,5.63,5.32c3.12,1.56,6.65,3.32,6.65,7s-3.53,5.41-6.65,7c-2.89,1.45-5.63,2.82-5.63,5.32A.92.92,0,0,1,237.31,399.69Z"/><path class="cls-6" d="M361,458.25c5.88,6,13.12,8.35,16.19,5.32s.78-10.3-5.1-16.26c-4.07-4.12-10.26-5.08-13.69-5.29a2.38,2.38,0,0,0-2.51,2.48C356.05,447.93,356.93,454.13,361,458.25Z"/><path class="cls-7" d="M384.73,477a1,1,0,0,1-1-.89c0-.62-4.11-63.15,11.68-108.11a1,1,0,0,1,1.8.63c-15.67,44.59-11.62,106.73-11.58,107.35a1,1,0,0,1-.88,1Z"/><path class="cls-7" d="M378.81,477h0a1,1,0,0,1-.94-1c.35-28.88-7.72-46.23-13.82-56.77a1,1,0,0,1,.35-1.3,1,1,0,0,1,1.3.34c6.21,10.74,14.43,28.4,14.07,57.75A1,1,0,0,1,378.81,477Z"/><path class="cls-6" d="M396.19,386.4c-1.15,4.93-4.13,8.44-6.67,7.85s-3.65-5.07-2.5-10c.79-3.41,3.68-5.86,5.39-7.05a1.42,1.42,0,0,1,2.07.49C395.49,379.51,397,383,396.19,386.4Z"/><path class="cls-5" d="M414.16,372.3a3.44,3.44,0,0,0-2.37-5.24h0a6.55,6.55,0,0,0-6.85,3.09l-8.4,15.61a5.12,5.12,0,0,1-5.68,2.56h0a5.13,5.13,0,0,1-4-4.81l-.63-17.72a6.54,6.54,0,0,0-4.77-5.8h0a4.56,4.56,0,0,0-4.4,4.72s.78,23.4.84,23.87l0,.21a9.58,9.58,0,0,0,7.3,8l6.83,1.59a9.54,9.54,0,0,0,10.1-4h0Z"/><path class="cls-6" d="M357.63,403.94h0l5.43-10.58a4.06,4.06,0,0,0-3-5.88h0a4.06,4.06,0,0,0-4.58,4.77Z"/><path class="cls-6" d="M353,407.42h0l-11.69,2.19A4.07,4.07,0,0,1,336.5,405h0a4.07,4.07,0,0,1,5.89-3Z"/><path class="cls-6" d="M356.3,411.89h0l-5.43,10.58a4.07,4.07,0,0,0,3,5.89h0a4.08,4.08,0,0,0,4.59-4.78Z"/><path class="cls-6" d="M361,408.41h0l11.69-2.19a4.07,4.07,0,0,1,4.77,4.59h0a4.06,4.06,0,0,1-5.88,3Z"/><path class="cls-6" d="M354.63,404.64h0L351,393.31a4.07,4.07,0,0,0-6.31-2h0a4.07,4.07,0,0,0,.13,6.62Z"/><path class="cls-6" d="M353.79,410.4h0l-6.72,9.81a4.07,4.07,0,0,1-6.62.13h0a4.06,4.06,0,0,1,2-6.3Z"/><path class="cls-6" d="M359.3,411.2h0L363,422.52a4.06,4.06,0,0,0,6.3,2h0a4.07,4.07,0,0,0-.13-6.62Z"/><path class="cls-6" d="M360.14,405.44h0l6.72-9.82a4.07,4.07,0,0,1,6.62-.13h0a4.07,4.07,0,0,1-2,6.31Z"/><path class="cls-7" d="M1018.87,477H635.45a1,1,0,1,1,0-2.07h383.42a1,1,0,0,1,0,2.07Z"/><path class="cls-4" d="M299.71,33.1q2.94,10,1.06,15.79t-8.7,7.77c-4.41,1.3-8.22.61-11.43-2S274.87,47.4,273,40.93q-3-10.12-1.1-15.88t8.66-7.75q6.63-1.93,11.48,2.09T299.71,33.1ZM281,38.58q2.06,7,4.17,9.72c1.4,1.8,3.07,2.41,5,1.85s2.95-2,3.18-4.28-.33-5.77-1.69-10.41-2.78-7.94-4.22-9.74-3.11-2.43-5-1.88-3,2-3.18,4.27S279.64,33.88,281,38.58Z"/><path class="cls-4" d="M325.57,19.79q1.43,5.24-.14,8.73a8.47,8.47,0,0,1-5.92,4.69A8.17,8.17,0,0,1,312.23,32q-3.19-2.31-4.57-7.34c-1-3.48-.91-6.38.13-8.68a8.28,8.28,0,0,1,5.76-4.59,8.46,8.46,0,0,1,7.4,1.11C323.12,14,324.65,16.45,325.57,19.79Zm-10.73,3a12.43,12.43,0,0,0,1.53,3.82q.78,1.08,1.68.84c.6-.17.94-.68,1-1.56a13.17,13.17,0,0,0-.65-4.08A12.88,12.88,0,0,0,316.9,18c-.51-.73-1.07-1-1.67-.85s-1,.71-1,1.61A13.45,13.45,0,0,0,314.84,22.83ZM338.76,10l-8,32.88a3.2,3.2,0,0,1-2.27,2.32h0a3.19,3.19,0,0,1-3.94-3.84l8-32.87a3.2,3.2,0,0,1,2.26-2.33h0A3.2,3.2,0,0,1,338.76,10Zm17,16.41c.95,3.47.89,6.37-.16,8.71a8.5,8.5,0,0,1-5.9,4.69,8.16,8.16,0,0,1-7.28-1.19q-3.2-2.3-4.57-7.31c-.95-3.48-.9-6.38.13-8.68A8.3,8.3,0,0,1,343.73,18a8.46,8.46,0,0,1,7.4,1.11C353.3,20.63,354.83,23.05,355.75,26.39Zm-10.73,3a12.69,12.69,0,0,0,1.53,3.82q.78,1.08,1.68.84c.68-.19,1-.78,1-1.78a15,15,0,0,0-.63-3.87,15.32,15.32,0,0,0-1.42-3.65c-.52-.86-1.12-1.19-1.8-1s-1,.71-1,1.61A13,13,0,0,0,345,29.43Z"/><path class="cls-4" d="M255.86,39.92q5.53-1.62,9.74.53T271.38,48q1.88,6.42-1.07,11T260,65.79A26.76,26.76,0,0,1,251.67,67a3.44,3.44,0,0,1-3.19-2.46h0a3.44,3.44,0,0,1,3.28-4.4l.65,0a22.06,22.06,0,0,0,5.41-.83q7.4-2.16,5.62-8.23-1.69-5.79-9.36-3.54a20.24,20.24,0,0,0-3,1.17c-.52.25-1,.5-1.42.73a3.71,3.71,0,0,1-2.51.36h0A3.68,3.68,0,0,1,244.33,47l-3.24-15.11a2.73,2.73,0,0,1,1.9-3.18l14.89-4.36a3.57,3.57,0,0,1,4.43,2.43h0a3.57,3.57,0,0,1-2.42,4.43l-10.23,3,1.49,7.71.87-.45A19,19,0,0,1,255.86,39.92Z"/><polygon class="cls-1" points="200.78 143.83 195.81 144.34 195.76 135.98 194.72 134.35 200.78 143.83"/><polygon class="cls-6" points="194.72 134.35 189.31 125.88 163.04 150.68 207.12 153.76 200.78 143.83 194.72 134.35"/><polygon class="cls-7" points="203.82 130.33 170.25 148.63 200.75 143.84 203.82 130.33"/><path class="cls-7" d="M219.31,131.91a1.14,1.14,0,0,1-.24-2.26l3.8-.8a1.14,1.14,0,1,1,.48,2.23l-3.81.81Zm11.41-2.41a1.14,1.14,0,0,1-.24-2.26l3.81-.81a1.13,1.13,0,0,1,1.35.88,1.15,1.15,0,0,1-.88,1.36l-3.8.8A1,1,0,0,1,230.72,129.5Zm11.41-2.42a1.14,1.14,0,0,1-.23-2.26l3.8-.81a1.15,1.15,0,0,1,.48,2.24l-3.81.81Zm11.42-2.42a1.14,1.14,0,0,1-.24-2.26l3.81-.8a1.14,1.14,0,1,1,.47,2.23l-3.8.81A1,1,0,0,1,253.55,124.66ZM265,122.25a1.14,1.14,0,0,1-.23-2.26l3.8-.81a1.15,1.15,0,0,1,.48,2.24l-3.81.8A1,1,0,0,1,265,122.25Zm11.42-2.42a1.14,1.14,0,0,1-.24-2.26l3.81-.8a1.14,1.14,0,1,1,.47,2.23l-3.8.81Zm11.41-2.41a1.14,1.14,0,0,1-.23-2.26l3.8-.81a1.15,1.15,0,1,1,.48,2.24l-3.81.8A1,1,0,0,1,287.79,117.42ZM299.21,115a1.14,1.14,0,0,1-.24-2.26l3.81-.81a1.14,1.14,0,0,1,.47,2.24l-3.81.81Z"/><path class="cls-7" d="M822.49,146.65c-4.8,0-9.45-2.13-11.11-6.73a11.26,11.26,0,0,1-.63-2.89,14.37,14.37,0,0,1-5.67-4.13,12.76,12.76,0,0,1-3.18-6.9.95.95,0,1,1,1.89-.17,11.11,11.11,0,0,0,2.73,5.83,13.15,13.15,0,0,0,4.2,3.29,16.34,16.34,0,0,1,.27-2.16,6.45,6.45,0,0,1,2.5-4.41,4.34,4.34,0,0,1,6.64,4.48,5.29,5.29,0,0,1-1.7,2.84,6.78,6.78,0,0,1-5.16,1.88l-.54-.05a9.15,9.15,0,0,0,.44,1.75c2,5.64,9.22,6.2,13.67,4.8l.45-.15a11.43,11.43,0,0,0,3.34-1.83,1,1,0,0,1,1.19,1.49,13.27,13.27,0,0,1-3.89,2.13c-.17.07-.34.12-.52.18A16.62,16.62,0,0,1,822.49,146.65Zm-9.89-11.07a5.2,5.2,0,0,0,.78.1,5,5,0,0,0,3.76-1.38,3.5,3.5,0,0,0,1.13-1.82,2.54,2.54,0,0,0-1-2.5,2.51,2.51,0,0,0-2.7,0,4.73,4.73,0,0,0-1.68,3.19A13.65,13.65,0,0,0,812.6,135.58Z"/><path class="cls-7" d="M148.06,279.78a1,1,0,0,1-.3-2,32.36,32.36,0,0,0,8.47-3.78,13.28,13.28,0,0,1-3.84-2.9c-1.32-1.44-1.85-2.86-1.57-4.21a4.43,4.43,0,0,1,2.57-2.94,6.31,6.31,0,0,1,5.54-.05,5.21,5.21,0,0,1,2.85,3.8,6.52,6.52,0,0,1-1.54,5.46,9.88,9.88,0,0,0,3.3,0A8.39,8.39,0,0,0,170,268a1,1,0,1,1,1.9.81,10.4,10.4,0,0,1-8,6.41,12.34,12.34,0,0,1-5.4-.32c-3.1,2.52-7.57,4.11-10.14,4.88A.92.92,0,0,1,148.06,279.78Zm8.16-14.46a4.29,4.29,0,0,0-1.91.45c-.38.19-1.29.72-1.46,1.52a3.12,3.12,0,0,0,1.07,2.38,11.15,11.15,0,0,0,4.1,2.84,5,5,0,0,0,1.73-4.47,3.14,3.14,0,0,0-1.74-2.31A4.05,4.05,0,0,0,156.22,265.32Z"/><polygon class="cls-5" points="116.23 361.24 118.78 366.05 123.43 368.67 118.78 371.3 116.23 376.11 113.69 371.3 109.04 368.67 113.69 366.05 116.23 361.24"/><polygon class="cls-5" points="420.31 36.53 422.86 41.34 427.51 43.97 422.86 46.59 420.31 51.4 417.77 46.59 413.12 43.97 417.77 41.34 420.31 36.53"/><polygon class="cls-5" points="828.55 185.89 831.1 190.69 835.75 193.32 831.1 195.95 828.55 200.75 826.01 195.95 821.36 193.32 826.01 190.69 828.55 185.89"/><path class="cls-2" d="M446.87,356.14A10.26,10.26,0,0,1,446,363a6.74,6.74,0,0,1-5.07,3.22,6.48,6.48,0,0,1-5.66-1.54,10.18,10.18,0,0,1-3-6.18c-.46-2.83-.19-5.12.82-6.85a6.6,6.6,0,0,1,4.94-3.16,6.75,6.75,0,0,1,5.76,1.49A9.88,9.88,0,0,1,446.87,356.14Zm-8.74,1.51a10.23,10.23,0,0,0,.89,3.15c.36.62.78.89,1.27.8s.8-.46.93-1.14a10.66,10.66,0,0,0-.17-3.28,10.34,10.34,0,0,0-.89-3.15c-.34-.62-.76-.89-1.25-.81s-.82.48-1,1.19A10.67,10.67,0,0,0,438.13,357.65Zm20-8.18L449,374.81a2.54,2.54,0,0,1-2,1.65h0a2.53,2.53,0,0,1-2.8-3.36l9.07-25.34a2.52,2.52,0,0,1,2-1.65h0A2.53,2.53,0,0,1,458.11,349.47Zm12.08,14.39a10.09,10.09,0,0,1-.84,6.87,6.74,6.74,0,0,1-5.06,3.22,6.51,6.51,0,0,1-5.66-1.54,10.2,10.2,0,0,1-3-6.16c-.47-2.84-.19-5.12.82-6.85a6.57,6.57,0,0,1,4.94-3.16,6.72,6.72,0,0,1,5.76,1.49A9.88,9.88,0,0,1,470.19,363.86Zm-8.73,1.51a10.23,10.23,0,0,0,.89,3.15c.35.61.77.88,1.26.8s.88-.53,1-1.32a11.9,11.9,0,0,0-.19-3.11,11.66,11.66,0,0,0-.82-3c-.33-.72-.78-1-1.33-.94s-.82.48-.95,1.18A10.41,10.41,0,0,0,461.46,365.37Z"/><path class="cls-3" d="M766.74,185.6c-1.39,3-3.14,5.07-5.27,6.11a7.83,7.83,0,0,1-7-.17,7.56,7.56,0,0,1-4.46-5.15,11.88,11.88,0,0,1,1.1-7.91c1.39-3,3.13-5.06,5.23-6.07a7.65,7.65,0,0,1,6.8.14,7.82,7.82,0,0,1,4.59,5.17A11.41,11.41,0,0,1,766.74,185.6Zm-9.41-4.19a11.87,11.87,0,0,0-1.17,3.61q-.09,1.23.69,1.59a1.4,1.4,0,0,0,1.64-.5,11.76,11.76,0,0,0,2-3.28,12,12,0,0,0,1.19-3.6q.11-1.23-.69-1.59c-.54-.25-1.1-.07-1.68.53A12.14,12.14,0,0,0,757.33,181.41Zm24.57,5L756.75,205a3,3,0,0,1-3,.31h0a3,3,0,0,1-.53-5.06l25.15-18.57a2.94,2.94,0,0,1,3-.31h0A3,3,0,0,1,781.9,186.45Zm2.34,21.69q-2.07,4.53-5.27,6.09a7.84,7.84,0,0,1-7-.17,7.56,7.56,0,0,1-4.46-5.15,11.86,11.86,0,0,1,1.09-7.89c1.39-3,3.13-5.06,5.23-6.07a7.67,7.67,0,0,1,6.81.14,7.83,7.83,0,0,1,4.58,5.17A11.41,11.41,0,0,1,784.24,208.14ZM774.83,204a11.87,11.87,0,0,0-1.17,3.61q-.09,1.23.69,1.59c.6.27,1.19.06,1.79-.64a14.24,14.24,0,0,0,1.84-3.13,13.56,13.56,0,0,0,1.15-3.43c.14-.91-.08-1.5-.68-1.77s-1.09-.07-1.68.53A12.14,12.14,0,0,0,774.83,204Z"/></g></g></svg>