<svg xmlns="http://www.w3.org/2000/svg" viewBox="0 0 814.68 524.88"><defs><style>.cls-1{fill:#edb0b0;}.cls-2{fill:#cf8282;}.cls-3{fill:#dce5f7;}.cls-4{fill:#2b2b2b;}.cls-5{fill:#fff;}</style></defs><title>Asset 14</title><g id="Layer_2" data-name="Layer 2"><g id="Layer_2-2" data-name="Layer 2"><path class="cls-1" d="M116,501.88c9.64,8.32,21.1,11.24,25.59,6.52s.31-15.27-9.33-23.59c-6.66-5.75-16.35-6.67-21.69-6.68a3.57,3.57,0,0,0-3.68,3.86C107.46,487,109.36,496.13,116,501.88Z"/><path class="cls-1" d="M147.41,453.69c-7,10.46-8,21.7-2.38,25.1s15.87-2.31,22.83-12.77c4.82-7.24,4.11-16.48,3.21-21.49a3.69,3.69,0,0,0-4.63-2.79C161.3,443.11,152.22,446.45,147.41,453.69Z"/><path class="cls-2" d="M136,436.67a1.93,1.93,0,0,1-1.91-1.55,367.56,367.56,0,0,0-9.85-43,1.84,1.84,0,0,1,1.33-2.28,2,2,0,0,1,2.4,1.27,372.7,372.7,0,0,1,10,43.41,1.86,1.86,0,0,1-1.6,2.11A1.73,1.73,0,0,1,136,436.67Z"/><path class="cls-2" d="M143.41,523.75h0a1.88,1.88,0,0,1-1.91-1.86,538.84,538.84,0,0,0-5.26-73.16,1.87,1.87,0,0,1,1.67-2.07,1.91,1.91,0,0,1,2.17,1.58,540.06,540.06,0,0,1,5.29,73.69A1.89,1.89,0,0,1,143.41,523.75Z"/><path class="cls-2" d="M121.24,385.06a7.52,7.52,0,0,0,4-10.15,8.22,8.22,0,0,0-10.66-3.8,7.52,7.52,0,0,0-4,10.15A8.22,8.22,0,0,0,121.24,385.06Z"/><path class="cls-2" d="M96.14,395.65c6.47,13.56,23.37,19.49,37.57,13.1,13.56-6.1,19.71-21.52,13.81-34.65a27.85,27.85,0,0,0-20.94-15.82l.09,15.88a9.44,9.44,0,0,1-5.82,8.65h0a10.32,10.32,0,0,1-10.68-1.52l-12.51-10.5A25.53,25.53,0,0,0,96.14,395.65Z"/><path class="cls-1" d="M129.64,363.15a5.53,5.53,0,0,0,2.94-7.47,6,6,0,0,0-7.85-2.8,5.53,5.53,0,0,0-2.94,7.47A6,6,0,0,0,129.64,363.15Z"/><path class="cls-1" d="M99.4,376.23a5.53,5.53,0,0,0,2.94-7.47,6,6,0,0,0-7.85-2.8,5.53,5.53,0,0,0-2.94,7.47A6,6,0,0,0,99.4,376.23Z"/><path class="cls-3" d="M814.68,234.94c-.82-4.11-1.68-8.3-3.7-12-2.3-4.2-6.72-8.17-11.8-7.49-3.67.49-6.46-1.51-7.87-4.81-1.9-4.47-2.74-9.46-4.26-14.07-1.42-4.3-4.45-10-9.95-8.73-10.49,2.48-11.22,15.88-12.14,24.48-.34,3.19-1.44,7.8-5.64,7.26-2.74-.36-4.75-2.64-6.92-4.12-5.81-4-13.33-3.15-19.18.24-4.18,2.42-6.72,6.8-8.08,11.31a30.17,30.17,0,0,0-1,4.5c0,.22-.2,3.41-.2,3.41Z"/><path class="cls-3" d="M168.22,107.62c-.82-4.11-1.68-8.3-3.7-12-2.3-4.2-6.72-8.17-11.8-7.49-3.67.49-6.47-1.51-7.87-4.81-1.9-4.47-2.74-9.46-4.26-14.07-1.42-4.3-4.45-10-10-8.73C120.15,63,119.42,76.42,118.5,85c-.34,3.19-1.44,7.8-5.64,7.26-2.74-.36-4.75-2.64-6.92-4.13-5.81-4-13.33-3.14-19.18.25-4.18,2.42-6.72,6.8-8.09,11.31a31.44,31.44,0,0,0-1,4.5c0,.22-.2,3.41-.2,3.41Z"/><polygon class="cls-1" points="630.78 200.43 633.5 205.57 638.47 208.38 633.5 211.19 630.78 216.33 628.06 211.19 623.08 208.38 628.06 205.57 630.78 200.43"/><polygon class="cls-2" points="156.4 328.97 159.12 334.11 164.09 336.92 159.12 339.73 156.4 344.87 153.68 339.73 148.7 336.92 153.68 334.11 156.4 328.97"/><polygon class="cls-2" points="560.58 282.41 563.3 287.55 568.27 290.36 563.3 293.17 560.58 298.31 557.86 293.17 552.88 290.36 557.86 287.55 560.58 282.41"/><polygon class="cls-1" points="30.62 376.53 33.34 381.67 38.31 384.48 33.34 387.29 30.62 392.43 27.89 387.29 22.92 384.48 27.89 381.67 30.62 376.53"/><path class="cls-4" d="M588.64,269.57c-5.13,0-10.11-2.27-11.89-7.19a12.48,12.48,0,0,1-.67-3.1,15.12,15.12,0,0,1-6.06-4.41,13.72,13.72,0,0,1-3.41-7.38,1,1,0,0,1,2-.19,11.84,11.84,0,0,0,2.92,6.24,14.19,14.19,0,0,0,4.48,3.52,18.74,18.74,0,0,1,.3-2.31c.45-2.29,1.33-3.83,2.67-4.72a4.64,4.64,0,0,1,7.11,4.79,5.7,5.7,0,0,1-1.82,3,7.28,7.28,0,0,1-5.52,2c-.19,0-.39,0-.58-.06a10.24,10.24,0,0,0,.47,1.87c2.17,6,9.86,6.64,14.62,5.14l.49-.16a12.66,12.66,0,0,0,3.57-2,1,1,0,1,1,1.27,1.59,14.39,14.39,0,0,1-4.16,2.28l-.55.19A17.72,17.72,0,0,1,588.64,269.57Zm-10.58-11.83a6,6,0,0,0,.84.1,5.31,5.31,0,0,0,4-1.48,3.8,3.8,0,0,0,1.2-1.94,2.6,2.6,0,0,0-4-2.69,5.05,5.05,0,0,0-1.79,3.41A14.85,14.85,0,0,0,578.06,257.74Z"/><path class="cls-4" d="M127.8,198.45a1,1,0,0,1-1-.73,1,1,0,0,1,.69-1.26c2.44-.73,8.07-2.61,12.08-5.55a17.68,17.68,0,0,1-5.65-4.11c-1.7-1.86-2.39-3.66-2-5.36a5.65,5.65,0,0,1,3.26-3.73,8.17,8.17,0,0,1,7.17-.05,6.67,6.67,0,0,1,3.65,4.86,8.68,8.68,0,0,1-2.43,7.57,13.8,13.8,0,0,0,5.24.13,11.7,11.7,0,0,0,9-7.23,1,1,0,0,1,1.88.8,13.69,13.69,0,0,1-10.51,8.44,16.17,16.17,0,0,1-7.31-.48c-4.13,3.45-10.26,5.62-13.74,6.66A1,1,0,0,1,127.8,198.45Zm11-19.56a6.13,6.13,0,0,0-2.75.64,4,4,0,0,0-2.19,2.32c-.26,1.27.69,2.64,1.54,3.57a15.68,15.68,0,0,0,5.91,4c1.93-1.86,3.1-4.05,2.64-6.56a4.66,4.66,0,0,0-2.56-3.4A5.86,5.86,0,0,0,138.84,178.89Z"/><path class="cls-3" d="M509.49,49.23H360.34a20.87,20.87,0,0,1,.17-3.56h0a32.13,32.13,0,0,1,3.86-11.39c3.16-5.56,7.88-9.67,13.19-8.4a11.71,11.71,0,0,1,5,2.79c2.56,2.26,4.61,5,7.15,7.33s5.77,4.14,9.17,3.89c4.27-.31,7.33-4.13,8-8.14C408.39,22.08,408.3,3,420.38.33l.68-.13c10.33-1.76,17.45,8.33,20.2,17.37a30.44,30.44,0,0,1,.77,3,38.93,38.93,0,0,1,.87,7.55l.06.49c.08.7.17,1.4.29,2.08a16.67,16.67,0,0,0,1.43,4.71,2.17,2.17,0,0,0,1.25,1.25c1.65.4,3-1.51,4-3,.26-.42.49-.82.69-1.13,3-4.75,11.26-7.92,15-2.22,2.61,4,.44,11.75,5.87,13.74,6.23,2.27,7.8-5.92,8.35-10.11.68-5.16.57-10.45,2.09-15.47.64-1.5,1.72-3.22,3.43-3.44a4.46,4.46,0,0,1,3.87,2.8c1.91,4.62,2.43,9.62,3.13,14.53.56,4,1.34,12.77,6.64,13.27,2.81.26,5.35-4.77,8-2.54C508.58,44.47,508.5,47.42,509.49,49.23Z"/><path class="cls-4" d="M239.76,524.83H1a1,1,0,0,1,0-2H239.76a1,1,0,1,1,0,2Z"/><rect class="cls-3" x="218.54" y="106.65" width="279.08" height="358.73" transform="translate(775.75 474.65) rotate(165.69)"/><rect class="cls-2" x="219.49" y="110.4" width="279.08" height="358.73" transform="translate(672.92 627.91) rotate(-171.77)"/><path class="cls-4" d="M211.64,442.34a1,1,0,0,1-1-1v-182a1,1,0,1,1,2,0v182A1,1,0,0,1,211.64,442.34Z"/><path class="cls-4" d="M418.16,107.62H215.46a1,1,0,0,1,0-1.94h202.7a1,1,0,0,1,0,1.94Z"/><path class="cls-4" d="M497.62,356.6a1,1,0,0,1-1-1v-248h-58a1,1,0,1,1,0-1.94h59a1,1,0,0,1,1,1v249A1,1,0,0,1,497.62,356.6Z"/><path class="cls-4" d="M497.62,466.35h-245a1,1,0,1,1,0-1.94H496.65V374.56a1,1,0,0,1,1.94,0v90.82A1,1,0,0,1,497.62,466.35Z"/><path class="cls-5" d="M391.27,211.31h-.14L362,207.09a1,1,0,0,1-.85-1.14l6.24-43.14a1,1,0,0,1,1.14-.85l69.24,10a1,1,0,1,1-.29,2l-68.25-9.86-5.95,41.16,28.11,4.06a1,1,0,0,1-.14,2Z"/><path class="cls-5" d="M480.32,224.18h-.15L409.71,214a1,1,0,1,1,.29-2l69.47,10,5.95-41.16-25.87-3.74a1,1,0,0,1,.28-2L486.7,179a1,1,0,0,1,.66.39,1,1,0,0,1,.19.74l-6.24,43.15A1,1,0,0,1,480.32,224.18Z"/><rect class="cls-5" x="264.31" y="153.53" width="74.66" height="43.6" transform="translate(575.09 392) rotate(-171.77)"/><rect class="cls-5" x="252.26" y="242.02" width="217.18" height="43.6" transform="matrix(-0.99, -0.14, 0.14, -0.99, 680.24, 576.54)"/><rect class="cls-5" x="231.78" y="369.45" width="218.06" height="49.27" transform="translate(621.73 832.88) rotate(-171.77)"/><rect class="cls-5" x="245.95" y="295.25" width="43.46" height="43.6" transform="translate(485.41 670.27) rotate(-171.48)"/><rect class="cls-5" x="301.69" y="303.61" width="43.46" height="43.6" transform="translate(595.04 695.15) rotate(-171.48)"/><rect class="cls-5" x="357.43" y="311.96" width="43.46" height="43.6" transform="translate(704.68 720.03) rotate(-171.48)"/><rect class="cls-5" x="413.18" y="320.31" width="43.46" height="43.6" transform="translate(814.31 744.9) rotate(-171.48)"/><path class="cls-4" d="M381.39,398.09h-.14L254.88,379.81a1,1,0,0,1-.85-1.14,1,1,0,0,1,1.13-.84l126.37,18.26a1,1,0,0,1-.14,2Z"/><path class="cls-4" d="M378.94,415.73h-.15L252.42,397.45a1,1,0,0,1,.29-2l126.37,18.27a1,1,0,0,1-.14,2Z"/><path class="cls-4" d="M316.7,425.67l-.15,0-59.31-8.57a1,1,0,1,1,.29-2l59.31,8.58a1,1,0,0,1-.14,2Z"/><path class="cls-4" d="M469.08,191.64h-.14L423.65,185a1,1,0,1,1,.28-1.92l45.29,6.64a1,1,0,0,1,.82,1.1A1,1,0,0,1,469.08,191.64Z"/><path class="cls-4" d="M467,201.46h-.14l-45.29-6.64a1,1,0,0,1-.82-1.1,1,1,0,0,1,1.1-.82l45.29,6.64a1,1,0,0,1-.14,1.93Z"/><path class="cls-4" d="M464.93,211.28h-.14l-26.31-3.86a1,1,0,1,1,.28-1.92l26.31,3.86a1,1,0,0,1-.14,1.93Z"/><path class="cls-4" d="M437.64,266.43h-.13l-20.38-2.81a1,1,0,0,1-.83-1.1,1,1,0,0,1,1.09-.83l20.39,2.82a1,1,0,0,1-.14,1.93Z"/><path class="cls-4" d="M402.45,261.53h-.14l-127.8-18a1,1,0,1,1,.27-1.92l127.8,18a1,1,0,0,1-.13,1.93Z"/><path class="cls-4" d="M379.37,273.58h-.13l-72.86-10.24a1,1,0,0,1,.27-1.92l72.86,10.24a1,1,0,0,1-.14,1.93Z"/><path class="cls-4" d="M290.47,260.32h-.15l-22.46-3.16a1,1,0,1,1,.28-2l22.47,3.16a1,1,0,0,1-.14,2Z"/><circle class="cls-4" cx="526.37" cy="505.02" r="14.46" transform="translate(-202.93 520.12) rotate(-45)"/><path class="cls-1" d="M510.15,524.5l-234-.39a8.09,8.09,0,0,1-7.33-4.73h0A8.07,8.07,0,0,1,275.46,508L508.57,487.6a18.48,18.48,0,0,1,20.1,18.45h0A18.48,18.48,0,0,1,510.15,524.5Z"/><path class="cls-2" d="M511.4,496.76h0a2.24,2.24,0,0,1-2.24-2.24,11.67,11.67,0,0,0-12.64-11.65l-62.26,5.21a2.24,2.24,0,0,1-.38-4.47l62.27-5.2a16.13,16.13,0,0,1,17.49,16.12A2.23,2.23,0,0,1,511.4,496.76Z"/><path class="cls-4" d="M279.8,516.11c.16,3.74-5.87,7-13.45,7.34-4.35.17-8.31-1.9-10.91-3.7a3.33,3.33,0,0,1-.21-5.3c2.44-2,6.22-4.39,10.57-4.57C273.38,509.57,279.65,512.36,279.8,516.11Z"/><path class="cls-2" d="M332.66,505.75a2.24,2.24,0,0,1-.23-4.47l48.49-5a2.24,2.24,0,0,1,.46,4.46l-48.49,5Z"/><path class="cls-4" d="M616.71,524.88H270.52a1,1,0,0,1,0-2H616.71a1,1,0,0,1,0,2Z"/><path class="cls-4" d="M192.3,524.88H121.41a1,1,0,0,1,0-2H192.3a1,1,0,1,1,0,2Z"/><path class="cls-4" d="M758.9,524.83H446a1,1,0,0,1,0-2H758.9a1,1,0,1,1,0,2Z"/><path class="cls-4" d="M296.5,170.42H265.26a1,1,0,0,1-.94-1.2l9.89-39.83a1,1,0,0,1,.94-.74h31.24a1,1,0,0,1,.76.37,1,1,0,0,1,.18.84l-9.89,39.83A1,1,0,0,1,296.5,170.42Zm-30-1.94h29.24l9.41-37.89H275.91Z"/><path class="cls-2" d="M280.23,174.92a3.74,3.74,0,0,1-1-.13,3.69,3.69,0,0,1-2.56-4.53l1.79-6.42a3.68,3.68,0,0,1,7.09,2l-1.79,6.42A3.67,3.67,0,0,1,280.23,174.92Z"/><path class="cls-1" d="M105.18,258.68h0a10.53,10.53,0,0,1-10.53,10.53h0a10.52,10.52,0,0,1-10.52-10.53h0a10.52,10.52,0,0,1,10.52-10.52h0A10.53,10.53,0,0,1,105.18,258.68Z"/><path class="cls-2" d="M129.68,285.4h0a5.59,5.59,0,0,1-5.59,5.59h0a5.59,5.59,0,0,1-5.59-5.59h0a5.59,5.59,0,0,1,5.59-5.59h0A5.59,5.59,0,0,1,129.68,285.4Z"/><path class="cls-2" d="M114.61,278.85H95.47a1,1,0,0,1-1-1V258.68a1,1,0,0,1,1-1h19.14a1,1,0,0,1,1,1v19.15A1,1,0,0,1,114.61,278.85Zm-18.13-2H113.6V259.7H96.48Z"/><path class="cls-2" d="M562.86,523.32a2.28,2.28,0,0,1-2.27-2.24c-.47-39.16,9.34-85.73,24.4-115.88a2.27,2.27,0,0,1,4,2c-14.77,29.56-24.39,75.29-23.92,113.8a2.25,2.25,0,0,1-2.24,2.29Z"/><rect class="cls-2" x="574.48" y="389.38" width="27.79" height="27.79" transform="translate(1233.52 98.96) rotate(120.32)"/><path class="cls-1" d="M572.81,382.79a9.87,9.87,0,1,0,7.05-12A9.88,9.88,0,0,0,572.81,382.79Z"/><path class="cls-1" d="M584.86,428.76a9.87,9.87,0,1,0,7-12A9.87,9.87,0,0,0,584.86,428.76Z"/><path class="cls-1" d="M613.87,406.8a9.87,9.87,0,1,0-12-7A9.87,9.87,0,0,0,613.87,406.8Z"/><circle class="cls-1" cx="566.48" cy="409.01" r="9.87" transform="translate(36.41 864.23) rotate(-76.49)"/></g></g></svg>