<svg xmlns="http://www.w3.org/2000/svg" viewBox="0 0 910.07 484.14"><defs><style>.cls-1{fill:#dce5f7;}.cls-2{fill:#cf8282;}.cls-3{fill:#232323;}.cls-4{fill:#e29393;}.cls-5{fill:#fff;}</style></defs><title>Asset 15</title><g id="Layer_2" data-name="Layer 2"><g id="Layer_2-2" data-name="Layer 2"><path class="cls-1" d="M0,130.81H124.45c-.84-10.42-7.65-28.2-8.92-30.25-.52-.83-1-1.6-1.34-2.19C108.38,89.15,92.35,83,85.11,94.06c-5,7.73-.85,22.78-11.37,26.63-12.08,4.41-15.11-11.46-16.19-19.6-1.32-10-1.1-20.25-4-30-1.25-2.92-3.33-6.25-6.66-6.67-3.33,0-6.25,2.5-7.5,5.42-3.69,9-4.71,18.65-6.06,28.17-1.1,7.72-2.6,24.77-12.87,25.73C15,124.26,10,114.52,5,118.84,1.76,121.57,1.93,127.3,0,130.81Z"/><path class="cls-2" d="M367.09,80.65,449,85.29a11.52,11.52,0,0,1,10.86,12.16L438.66,470.76a11.52,11.52,0,0,1-12.16,10.86L213.08,469.53a11.53,11.53,0,0,1-10.86-12.17L223.38,84.05a11.52,11.52,0,0,1,12.16-10.86l131.55,7.46Z"/><path class="cls-2" d="M273,464.4H273l-48.61-2.76a12.55,12.55,0,0,1-11.81-13.23l15.49-273.36a1,1,0,0,1,2,.11L214.58,448.53a10.51,10.51,0,0,0,9.9,11.09l48.61,2.76a1,1,0,0,1,0,2Z"/><path class="cls-2" d="M414,472.39h-.05l-108.17-6.13a1,1,0,1,1,.11-2L414,470.37a1,1,0,0,1-.06,2Z"/><path class="cls-2" d="M452.52,418.55h0a1,1,0,0,1-1-1.07l2.6-45.76a1,1,0,0,1,1.06-1,1,1,0,0,1,1,1.06l-2.6,45.76A1,1,0,0,1,452.52,418.55Z"/><path class="cls-2" d="M457.61,328.78h-.06a1,1,0,0,1-.95-1.07L470.16,88.5a10.53,10.53,0,0,0-9.91-11.1l-18.07-1a1,1,0,0,1-1-1.07,1,1,0,0,1,1.07-1l18.08,1a12.55,12.55,0,0,1,11.81,13.23L458.62,327.83A1,1,0,0,1,457.61,328.78Z"/><path class="cls-2" d="M302.35,68.45h-.06l-39.22-2.22a1,1,0,1,1,.11-2l39.22,2.22a1,1,0,0,1,0,2Z"/><path class="cls-3" d="M415.72,484H205a18.14,18.14,0,0,1-18.12-18.13V323.57a1.62,1.62,0,0,1,3.23,0V465.91A14.91,14.91,0,0,0,205,480.8H415.72a14.88,14.88,0,0,0,11.33-5.24h0a14.86,14.86,0,0,0,3.56-9.65V447.07a1.62,1.62,0,1,1,3.23,0v18.84a18.1,18.1,0,0,1-4.32,11.74h0A18.12,18.12,0,0,1,415.72,484Zm16.51-64.89a1.61,1.61,0,0,1-1.62-1.61V199a1.62,1.62,0,1,1,3.23,0V417.54A1.61,1.61,0,0,1,432.23,419.15ZM188.53,302.43a1.61,1.61,0,0,1-1.61-1.61V99.15A18.14,18.14,0,0,1,205,81h85.54a1.62,1.62,0,1,1,0,3.23H205a14.91,14.91,0,0,0-14.89,14.9V300.82A1.61,1.61,0,0,1,188.53,302.43ZM432.23,169a1.62,1.62,0,0,1-1.62-1.62V99.15a14.91,14.91,0,0,0-14.89-14.9,1.62,1.62,0,1,1,0-3.23,18.14,18.14,0,0,1,18.12,18.13v68.27A1.62,1.62,0,0,1,432.23,169Z"/><path class="cls-3" d="M129.54,335.6a1,1,0,0,1-.29-2,33.76,33.76,0,0,0,9.13-4.11,13.86,13.86,0,0,1-4.18-3.12c-1.38-1.51-1.94-3-1.64-4.39a4.68,4.68,0,0,1,2.67-3.07,6.66,6.66,0,0,1,5.81,0,5.47,5.47,0,0,1,3,4,6.91,6.91,0,0,1-1.72,5.85,10.58,10.58,0,0,0,3.68,0,9,9,0,0,0,6.88-5.55,1,1,0,0,1,1.86.8,10.94,10.94,0,0,1-8.4,6.74,12.79,12.79,0,0,1-5.73-.35c-3.27,2.69-8,4.38-10.77,5.19A.9.9,0,0,1,129.54,335.6Zm8.66-15.34a4.69,4.69,0,0,0-2.07.48,2.92,2.92,0,0,0-1.6,1.67,3.4,3.4,0,0,0,1.16,2.62,12.07,12.07,0,0,0,4.44,3.05,5.41,5.41,0,0,0,1.9-4.86,3.45,3.45,0,0,0-1.89-2.52A4.41,4.41,0,0,0,138.2,320.26Z"/><path class="cls-3" d="M438.89,484.09H410.64a1,1,0,0,1,0-2h28.25a1,1,0,0,1,0,2Z"/><path class="cls-3" d="M525.26,158.38c-4.1,0-8.08-1.82-9.5-5.76a9.84,9.84,0,0,1-.52-2.34,12.17,12.17,0,0,1-4.7-3.46,10.9,10.9,0,0,1-2.71-5.89,1,1,0,1,1,2-.18,9.06,9.06,0,0,0,2.23,4.75,11.18,11.18,0,0,0,3.15,2.56,13.53,13.53,0,0,1,.21-1.52,5.61,5.61,0,0,1,2.18-3.82,3.84,3.84,0,0,1,5.88,4,4.63,4.63,0,0,1-1.49,2.5,6,6,0,0,1-4.47,1.63l-.18,0a7.93,7.93,0,0,0,.31,1.14c1.65,4.58,7.52,5,11.16,3.89l.37-.13a9.3,9.3,0,0,0,2.73-1.49,1,1,0,0,1,1.26,1.58,11.37,11.37,0,0,1-3.31,1.82l-.44.15A14,14,0,0,1,525.26,158.38Zm-8.06-9.64.45,0a4,4,0,0,0,3-1.1,2.77,2.77,0,0,0,.87-1.41,1.81,1.81,0,0,0-2.78-1.87,3.7,3.7,0,0,0-1.31,2.52A10.51,10.51,0,0,0,517.2,148.74Z"/><path class="cls-3" d="M752,484.14H438.89a1,1,0,0,1,0-2H752a1,1,0,0,1,0,2Z"/><path class="cls-4" d="M636.44,440.77h0A31.6,31.6,0,0,0,676.52,421l39.32-115.79a31.6,31.6,0,0,0-19.76-40.08h0A31.6,31.6,0,0,0,656,284.9L616.68,400.68A31.6,31.6,0,0,0,636.44,440.77Z"/><polygon class="cls-3" points="808.35 233.31 763.65 199.13 799.43 157.1 816.99 176.24 783.87 198.62 813.5 227.22 808.35 233.31"/><path class="cls-2" d="M848.28,239.68V223.4h-8.79a23.39,23.39,0,0,0-1-2.31l6.19-6.22L833.4,203.59l-6.2,6.23a23.64,23.64,0,0,0-2.2-.91v-8.79H809v8.78a21.46,21.46,0,0,0-2.7,1.15L800,204l-11.07,11.52,6.33,6.08c-.28.61-.53,1.24-.76,1.88h-8.77v16h8.79a23.46,23.46,0,0,0,1.23,2.86l-6.22,6.55L801,260.15l6.5-6.84c.49.21,1,.41,1.49.59v9.55h16v-9.54a21.08,21.08,0,0,0,2.15-.88l6.68,6.65L845,248l-6.39-6.36c.3-.64.58-1.3.83-2Z"/><path class="cls-3" d="M691.31,454.1H538.67l5.39-14.76C553.21,414.27,582.12,397,615,397h0c32.87,0,61.78,17.25,70.93,42.32Z"/><path class="cls-3" d="M558.56,440.78H671.42a41.87,41.87,0,0,1,41.87,41.87v0a0,0,0,0,1,0,0H516.69a0,0,0,0,1,0,0v0a41.87,41.87,0,0,1,41.87-41.87Z"/><path class="cls-3" d="M593.54,440.77h0A31.6,31.6,0,0,1,553.46,421L514.14,305.22a31.59,31.59,0,0,1,19.76-40.08h0A31.6,31.6,0,0,1,574,284.9L613.3,400.68A31.61,31.61,0,0,1,593.54,440.77Z"/><path class="cls-4" d="M423.43,191.47h0A22.61,22.61,0,0,1,455,187.33l106.93,81.16a29.93,29.93,0,0,1,4.74,43.19h0a29.93,29.93,0,0,1-43.41,2.38l-97.47-92.3A22.61,22.61,0,0,1,423.43,191.47Z"/><circle class="cls-5" cx="544.03" cy="292.84" r="14.99" transform="translate(-17.81 549.86) rotate(-52.88)"/><path class="cls-3" d="M580.29,203.87a13.43,13.43,0,0,1-7.63-24.5L775.22,40a13.43,13.43,0,0,1,15.23,22.13L587.9,201.5A13.4,13.4,0,0,1,580.29,203.87Z"/><path class="cls-3" d="M691.3,305.9a13.33,13.33,0,0,1-9.08-3.55l-111-102a13.44,13.44,0,0,1,18.18-19.79l111,102a13.44,13.44,0,0,1-9.1,23.33Z"/><circle class="cls-5" cx="783.45" cy="52.74" r="13.36" transform="translate(122.83 477.19) rotate(-36.57)"/><circle class="cls-5" cx="691.31" cy="292.84" r="5.6" transform="translate(291.52 928.31) rotate(-80.78)"/><path class="cls-3" d="M358.6,224.85a13.44,13.44,0,0,1-.9-26.84l77.53-5.3a13.44,13.44,0,0,1,1.83,26.81l-77.53,5.29C359.22,224.84,358.91,224.85,358.6,224.85Z"/><circle class="cls-4" cx="584.76" cy="190.43" r="21.9"/><circle class="cls-5" cx="584.76" cy="190.43" r="8.47" transform="translate(-28.36 238.27) rotate(-22.5)"/><polygon class="cls-3" points="296.42 244.62 301.32 188.57 355.99 196.25 349.23 221.34 312.59 205.36 304.32 245.7 296.42 244.62"/><polygon class="cls-3" points="840.6 229.75 875.9 185.94 831.16 153.6 818.65 176.37 856.14 190.24 834.15 225.05 840.6 229.75"/><path class="cls-4" d="M816.52,187.86h0a22.61,22.61,0,0,0,17.57-26.5L812.28,47.42a29.92,29.92,0,0,0-36.7-23.23h0a29.92,29.92,0,0,0-21.22,37.94l36,110.34A22.63,22.63,0,0,0,816.52,187.86Z"/><circle class="cls-5" cx="811.86" cy="165.57" r="8.47" transform="translate(507.05 936.04) rotate(-79.94)"/><path class="cls-4" d="M111.74,432.39c9.07,5.08,14.3,13,11.69,17.64s-12.08,4.31-21.15-.77c-6.27-3.52-9.46-10.61-10.83-14.65a2.94,2.94,0,0,1,2.14-3.82C97.75,429.85,105.47,428.87,111.74,432.39Z"/><path class="cls-4" d="M148.38,435.22c-5.12,5.18-11.43,7.26-14.1,4.63s-.67-9,4.45-14.16c3.54-3.59,8.93-4.43,11.91-4.61a2.07,2.07,0,0,1,2.19,2.16C152.69,426.23,151.92,431.63,148.38,435.22Z"/><path class="cls-3" d="M127.09,483.91a1,1,0,0,1-1-1,231.22,231.22,0,0,0-9.4-63.46,1,1,0,0,1,1.94-.56,233.32,233.32,0,0,1,9.48,64A1,1,0,0,1,127.09,483.91Z"/><path class="cls-3" d="M115.29,412.38a1,1,0,0,1-1-.7C106.71,387.8,98.05,372.16,98,372a1,1,0,1,1,1.76-1c.09.16,8.84,16,16.52,40.05a1,1,0,0,1-.65,1.27A1.1,1.1,0,0,1,115.29,412.38Z"/><circle class="cls-2" cx="102.93" cy="383.13" r="17.59" transform="translate(-287.48 453.53) rotate(-85.18)"/><path class="cls-4" d="M130.84,483.91a1,1,0,0,1-1-1c0-.55-.93-55,12.83-94.15a1,1,0,1,1,1.91.67c-13.64,38.8-12.73,92.9-12.72,93.44a1,1,0,0,1-1,1Z"/><polygon class="cls-2" points="158.65 392.83 146.21 380.4 129.22 384.95 124.67 401.94 137.11 414.37 154.1 409.82 158.65 392.83"/><path class="cls-5" d="M102.93,385.49c-9.46,0-19-2.24-19-6.52a1,1,0,1,1,2,0c0,1.84,6.63,4.5,17,4.5s17-2.66,17-4.5a1,1,0,0,1,2,0C122,383.25,112.4,385.49,102.93,385.49Z"/><path class="cls-5" d="M102.93,385.49c-9.46,0-19-2.24-19-6.52a1,1,0,1,1,2,0c0,1.84,6.63,4.5,17,4.5s17-2.66,17-4.5a1,1,0,0,1,2,0C122,383.25,112.4,385.49,102.93,385.49Z"/><path class="cls-5" d="M117.49,390.18a16.42,16.42,0,0,1-3.64-.48,46.39,46.39,0,0,1-12.13-5.08c-8.2-4.73-15.37-11.45-13.24-15.16a1,1,0,1,1,1.75,1c-.91,1.59,3.5,7.21,12.5,12.4a44.53,44.53,0,0,0,11.57,4.86c3.44.8,5.07.36,5.42-.25a1,1,0,0,1,1.38-.37,1,1,0,0,1,.37,1.38C120.83,389.61,119.47,390.18,117.49,390.18Z"/><path class="cls-5" d="M117.49,390.18a16.42,16.42,0,0,1-3.64-.48,46.39,46.39,0,0,1-12.13-5.08c-8.2-4.73-15.37-11.45-13.24-15.16a1,1,0,1,1,1.75,1c-.91,1.59,3.5,7.21,12.5,12.4a44.53,44.53,0,0,0,11.57,4.86c3.44.8,5.07.36,5.42-.25a1,1,0,0,1,1.38-.37,1,1,0,0,1,.37,1.38C120.83,389.61,119.47,390.18,117.49,390.18Z"/><path class="cls-5" d="M124.67,403a1,1,0,0,1-.26-2l34-9.1a1,1,0,0,1,1.24.71,1,1,0,0,1-.72,1.24l-34,9.1A.75.75,0,0,1,124.67,403Z"/><path class="cls-5" d="M141.66,398.4a1,1,0,0,1-.71-.3l-12.44-12.44a1,1,0,0,1,1.43-1.43l12.44,12.44a1,1,0,0,1-.72,1.73Z"/><path class="cls-3" d="M374.46,484.09H30.94a1,1,0,0,1,0-2H374.46a1,1,0,1,1,0,2Z"/><path class="cls-4" d="M808.42,463.23c6.24,6.33,13.93,8.86,17.18,5.65s.83-10.93-5.41-17.26c-4.32-4.37-10.89-5.4-14.53-5.61a2.51,2.51,0,0,0-2.66,2.63C803.17,452.28,804.1,458.86,808.42,463.23Z"/><path class="cls-3" d="M833.61,483.09a1,1,0,0,1-1-.94c-.05-.67-4.37-67,12.4-114.75a1,1,0,1,1,1.91.67C830.28,415.39,834.57,481.35,834.62,482a1,1,0,0,1-.94,1.07Z"/><path class="cls-3" d="M827.32,483.09h0a1,1,0,0,1-1-1c.38-30.64-8.19-49.06-14.66-60.25a1,1,0,0,1,1.75-1c6.59,11.4,15.31,30.14,14.93,61.29A1,1,0,0,1,827.32,483.09Z"/><path class="cls-4" d="M845.77,387c-1.22,5.23-4.39,9-7.08,8.34s-3.88-5.38-2.65-10.61c.84-3.62,3.91-6.23,5.71-7.49a1.52,1.52,0,0,1,2.21.52C845,379.66,846.62,383.35,845.77,387Z"/><path class="cls-2" d="M864.84,372a3.65,3.65,0,0,0-2.51-5.56h0a7,7,0,0,0-7.27,3.28l-8.92,16.56a5.44,5.44,0,0,1-6,2.72h0a5.43,5.43,0,0,1-4.2-5.1l-.66-18.81a7,7,0,0,0-5.07-6.16h0a4.84,4.84,0,0,0-4.67,5s.83,24.83.89,25.32l0,.24a10.12,10.12,0,0,0,7.74,8.52l7.25,1.69a10.12,10.12,0,0,0,10.72-4.22l0,0Z"/><path class="cls-2" d="M804.85,405.59h0l5.76-11.23a4.31,4.31,0,0,0-3.22-6.24h0a4.31,4.31,0,0,0-4.86,5.07Z"/><path class="cls-2" d="M799.9,409.29h0l-12.41,2.32a4.33,4.33,0,0,1-5.07-4.87h0a4.32,4.32,0,0,1,6.25-3.22Z"/><path class="cls-2" d="M803.43,414h0l-5.76,11.23a4.32,4.32,0,0,0,3.22,6.24h0a4.32,4.32,0,0,0,4.87-5.06Z"/><path class="cls-2" d="M808.39,410.34h0l12.4-2.33a4.32,4.32,0,0,1,5.07,4.87h0a4.32,4.32,0,0,1-6.24,3.22Z"/><path class="cls-2" d="M801.66,406.33h0l-3.86-12a4.33,4.33,0,0,0-6.7-2.14h0a4.33,4.33,0,0,0,.14,7Z"/><path class="cls-2" d="M800.77,412.44h0l-7.13,10.42a4.33,4.33,0,0,1-7,.14h0a4.31,4.31,0,0,1,2.14-6.69Z"/><path class="cls-2" d="M806.62,413.29h0l3.87,12a4.32,4.32,0,0,0,6.69,2.14h0a4.31,4.31,0,0,0-.14-7Z"/><path class="cls-2" d="M807.51,407.18h0l7.13-10.41a4.32,4.32,0,0,1,7-.15h0a4.33,4.33,0,0,1-2.14,6.7Z"/><path class="cls-3" d="M909.06,484.09H575a1,1,0,0,1,0-2H909.06a1,1,0,1,1,0,2Z"/><path class="cls-5" d="M378.36,300.3,382,273.83l-14.29-2a38,38,0,0,0-1-4l11.46-8.72-15.88-20.85-11.48,8.73c-1.08-.71-2.2-1.36-3.36-2l2-14.28-26-3.56-1.95,14.26a37.94,37.94,0,0,0-4.65,1.27l-8.95-11.31-20.56,16.26L296.2,259q-.88,1.39-1.65,2.88l-14.26-2-3.56,26,14.28,2a39.22,39.22,0,0,0,1.37,4.91l-11.57,9.26,16.13,21L309,313.35c.75.46,1.52.89,2.3,1.3l-2.13,15.52,26,3.56,2.13-15.5a34.82,34.82,0,0,0,3.68-1l9.38,12.29,20.73-16.46-9-11.76q1-1.47,1.8-3Z"/><circle class="cls-2" cx="329.28" cy="280.49" r="22.47" transform="matrix(0.16, -0.99, 0.99, 0.16, 0.54, 561.62)"/><polygon class="cls-3" points="380.11 279.08 416.39 236.08 372.4 202.74 359.37 225.22 396.54 239.94 373.77 274.24 380.11 279.08"/><circle class="cls-4" cx="358.62" cy="211.41" r="21.9" transform="translate(102.58 539.65) rotate(-82.56)"/><circle class="cls-5" cx="358.62" cy="211.41" r="8.47" transform="translate(-27.72 56.36) rotate(-8.65)"/><path class="cls-3" d="M387.88,367.16H276.73a1.62,1.62,0,0,1,0-3.24H387.88a1.62,1.62,0,0,1,0,3.24Z"/><path class="cls-3" d="M387.88,389.69h-128a1.62,1.62,0,1,1,0-3.23h128a1.62,1.62,0,1,1,0,3.23Z"/><path class="cls-3" d="M387.88,412.22h-128a1.62,1.62,0,1,1,0-3.23h128a1.62,1.62,0,1,1,0,3.23Z"/><path class="cls-3" d="M471.19,434.75H318.07a1.62,1.62,0,1,1,0-3.23H471.19a1.62,1.62,0,0,1,0,3.23Z"/><polygon class="cls-1" points="595.56 0 558.54 0 540.03 32.06 558.54 64.12 595.56 64.12 614.07 32.06 595.56 0"/><circle class="cls-5" cx="564.84" cy="20.52" r="7.36" transform="translate(35.14 217.72) rotate(-22.5)"/><circle class="cls-5" cx="592.59" cy="26.38" r="7.36" transform="translate(154.91 426.75) rotate(-45)"/><circle class="cls-5" cx="575.15" cy="48.58" r="7.36"/><polygon class="cls-5" points="576.08 50.93 572.72 48.29 588.79 27.76 564.4 22.61 565.28 18.43 596.39 24.99 576.08 50.93"/><circle class="cls-5" cx="816.99" cy="231.23" r="13.05" transform="translate(457.88 1000.63) rotate(-80.78)"/><polygon class="cls-5" points="325.48 118.24 320.64 120.4 317.82 111.99 316.23 110.69 325.48 118.24"/><polygon class="cls-5" points="316.23 110.69 307.97 103.95 289.7 137.65 335.16 126.15 325.48 118.24 316.23 110.69"/><polygon class="cls-3" points="324.07 103.62 296.29 133.2 325.45 118.26 324.07 103.62"/><path class="cls-3" d="M339.82,99.94a1,1,0,0,1-.63-1.8l3.2-2.6a1,1,0,0,1,1.43.15,1,1,0,0,1-.15,1.42l-3.21,2.6A1,1,0,0,1,339.82,99.94Zm9.62-7.8a1,1,0,0,1-.63-1.8l3.2-2.6a1,1,0,0,1,1.28,1.57l-3.21,2.6A1,1,0,0,1,349.44,92.14Zm9.62-7.8a1,1,0,0,1-.64-1.8l3.21-2.6a1,1,0,1,1,1.27,1.57l-3.2,2.6A1,1,0,0,1,359.06,84.34Zm9.62-7.8a1,1,0,0,1-.79-.37,1,1,0,0,1,.15-1.42l3.21-2.6a1,1,0,0,1,1.42.14,1,1,0,0,1-.15,1.43l-3.2,2.6A1,1,0,0,1,368.68,76.54Zm9.62-7.8a1,1,0,0,1-.79-.37,1,1,0,0,1,.15-1.42l3.21-2.6a1,1,0,1,1,1.27,1.57l-3.21,2.6A1,1,0,0,1,378.3,68.74Zm9.62-7.8a1,1,0,0,1-.79-.37,1,1,0,0,1,.15-1.42l3.21-2.6a1,1,0,1,1,1.27,1.57l-3.21,2.6A1,1,0,0,1,387.92,60.94Zm9.62-7.79a1,1,0,0,1-.64-1.8l3.2-2.6a1,1,0,0,1,1.43.15,1,1,0,0,1-.15,1.42l-3.21,2.6A1,1,0,0,1,397.54,53.15Zm9.61-7.8a1,1,0,0,1-.63-1.8l3.2-2.6A1,1,0,0,1,411,42.52l-3.21,2.6A1,1,0,0,1,407.15,45.35Z"/><polygon class="cls-2" points="702.45 191.02 705.15 196.12 710.09 198.91 705.15 201.69 702.45 206.79 699.75 201.69 694.82 198.91 699.75 196.12 702.45 191.02"/><polygon class="cls-2" points="503.83 38 506.53 43.09 511.46 45.88 506.53 48.67 503.83 53.77 501.13 48.67 496.19 45.88 501.13 43.09 503.83 38"/><polygon class="cls-2" points="480.44 383.94 483.14 389.03 488.07 391.82 483.14 394.61 480.44 399.71 477.74 394.61 472.8 391.82 477.74 389.03 480.44 383.94"/><polygon class="cls-2" points="129.22 219.36 131.93 224.46 136.86 227.25 131.93 230.04 129.22 235.13 126.53 230.04 121.59 227.25 126.53 224.46 129.22 219.36"/><polygon class="cls-2" points="22.29 327.72 24.99 332.82 29.93 335.6 24.99 338.39 22.29 343.49 19.59 338.39 14.66 335.6 19.59 332.82 22.29 327.72"/></g></g></svg>