<svg xmlns="http://www.w3.org/2000/svg" viewBox="0 0 1021.89 493.34"><defs><style>.cls-1{fill:#4f4f4f;}.cls-2{fill:#303030;}.cls-3{fill:#b57f7f;}.cls-4{fill:#dd9b9b;}.cls-5{fill:#fff;}.cls-6{fill:#dce5f7;}</style></defs><title>Asset 4</title><g id="Layer_2" data-name="Layer 2"><g id="Layer_2-2" data-name="Layer 2"><path class="cls-1" d="M819,354.74c11.78,6.6,18.58,16.86,15.19,22.91s-15.69,5.61-27.48-1c-8.15-4.57-12.29-13.79-14.07-19a3.83,3.83,0,0,1,2.79-5C800.85,351.44,810.87,350.17,819,354.74Z"/><path class="cls-1" d="M866.64,358.41c-6.66,6.74-14.86,9.44-18.32,6s-.88-11.66,5.77-18.4c4.6-4.66,11.6-5.75,15.48-6a2.67,2.67,0,0,1,2.84,2.8C872.24,346.73,871.24,353.75,866.64,358.41Z"/><path class="cls-2" d="M839,421.43a1.06,1.06,0,0,1-1.06-1.06c0-26.43-4.12-54.2-12.23-82.53a1.06,1.06,0,1,1,2-.59c8.17,28.53,12.31,56.49,12.31,83.12A1.06,1.06,0,0,1,839,421.43Z"/><path class="cls-2" d="M823.64,328.49a1.07,1.07,0,0,1-1-.74c-9.9-31.05-21.17-51.4-21.28-51.6a1.05,1.05,0,0,1,.41-1.43,1,1,0,0,1,1.43.4c.12.21,11.48,20.72,21.46,52a1.07,1.07,0,0,1-.69,1.33A1.19,1.19,0,0,1,823.64,328.49Z"/><circle class="cls-3" cx="807.58" cy="290.73" r="22.85" transform="translate(438.69 1065.73) rotate(-84.35)"/><path class="cls-1" d="M843.84,421.43a1.05,1.05,0,0,1-1.05-1c0-.71-1.2-71.41,16.66-122.25a1.05,1.05,0,0,1,1.34-.65,1.07,1.07,0,0,1,.65,1.35c-17.73,50.47-16.56,120.81-16.54,121.51a1.07,1.07,0,0,1-1,1.08Z"/><polygon class="cls-4" points="879.98 303.34 863.82 287.18 841.75 293.1 835.83 315.17 851.99 331.33 874.06 325.41 879.98 303.34"/><path class="cls-5" d="M807.58,293.38c-11.79,0-24.32-2.82-24.32-8.05a.89.89,0,0,1,1.78,0c0,3,9.26,6.27,22.54,6.27s22.54-3.3,22.54-6.27a.89.89,0,1,1,1.78,0C831.9,290.56,819.37,293.38,807.58,293.38Z"/><path class="cls-5" d="M807.58,293.38c-11.79,0-24.32-2.82-24.32-8.05a.89.89,0,0,1,1.78,0c0,3,9.26,6.27,22.54,6.27s22.54-3.3,22.54-6.27a.89.89,0,1,1,1.78,0C831.9,290.56,819.37,293.38,807.58,293.38Z"/><path class="cls-5" d="M826.52,299.47c-5.15,0-13.22-3.08-20.3-7.17A60.1,60.1,0,0,1,792.71,282c-3.5-3.74-4.72-6.81-3.54-8.86a.89.89,0,0,1,1.22-.32.88.88,0,0,1,.32,1.21c-.71,1.23.56,3.82,3.3,6.76a58.06,58.06,0,0,0,13.1,9.93c11.51,6.64,21.17,8.4,22.66,5.84a.88.88,0,1,1,1.53.88C830.5,298.87,828.8,299.47,826.52,299.47Z"/><path class="cls-5" d="M826.52,299.47c-5.15,0-13.22-3.08-20.3-7.17A60.1,60.1,0,0,1,792.71,282c-3.5-3.74-4.72-6.81-3.54-8.86a.89.89,0,0,1,1.22-.32.88.88,0,0,1,.32,1.21c-.71,1.23.56,3.82,3.3,6.76a58.06,58.06,0,0,0,13.1,9.93c11.51,6.64,21.17,8.4,22.66,5.84a.88.88,0,1,1,1.53.88C830.5,298.87,828.8,299.47,826.52,299.47Z"/><path class="cls-5" d="M835.83,316.06a.89.89,0,0,1-.23-1.75l44.15-11.83a.89.89,0,1,1,.46,1.72L836.06,316A.91.91,0,0,1,835.83,316.06Z"/><path class="cls-5" d="M857.9,310.14a.85.85,0,0,1-.62-.26l-16.16-16.16a.88.88,0,0,1,1.25-1.25l16.16,16.16a.88.88,0,0,1,0,1.25A.85.85,0,0,1,857.9,310.14Z"/><path class="cls-6" d="M240.23,105.14H0A32.43,32.43,0,0,1,.3,99.4h0A51.83,51.83,0,0,1,6.52,81.05c5.08-9,12.69-15.57,21.24-13.53A19,19,0,0,1,35.83,72c4.12,3.64,7.43,8.12,11.51,11.81s9.29,6.65,14.77,6.25C69,89.59,73.92,83.44,74.94,77c2.48-15.57,2.32-46.32,21.79-50.59l1.09-.21c16.63-2.84,28.11,13.41,32.53,28,.51,1.65.92,3.28,1.24,4.86A63.37,63.37,0,0,1,133,71.16l.09.8c.13,1.12.28,2.24.47,3.34a26.78,26.78,0,0,0,2.3,7.58,3.44,3.44,0,0,0,2,2c2.65.64,4.88-2.44,6.4-4.89.43-.69.8-1.33,1.11-1.82,4.83-7.66,18.14-12.76,24.15-3.58,4.2,6.42.71,18.93,9.45,22.12,10,3.67,12.56-9.52,13.45-16.28,1.1-8.31.91-16.82,3.36-24.91,1-2.42,2.77-5.19,5.54-5.53a7.18,7.18,0,0,1,6.23,4.5c3.06,7.45,3.91,15.49,5,23.4.91,6.41,2.16,20.57,10.69,21.37,4.53.42,8.63-7.67,12.83-4.09C238.77,97.46,238.63,102.22,240.23,105.14Z"/><path class="cls-6" d="M516.37,185.81c-9,6.84-19.37,12-33.21,7.84-10-3-18.28-9.08-26.23-14.43-7.53-5.08-15.28-10.76-24.57-13.93-12.73-4.34-22.68-1-31.43,4.87-6.64-8.32-15.17-14.64-28.76-14.28-9.82.25-18.91,3.37-27.61,6-9.18,2.74-18.86,6.07-29.34,6-14.45-.16-22.8-8.17-29.37-17.37q-6.69,34.45-13.4,68.92c6.56,9.21,14.91,17.22,29.36,17.38,10.48.11,20.16-3.22,29.35-6,8.69-2.6,17.78-5.72,27.6-6,15.17-.39,24,7.52,31,17.26l0,.34c9.58-7.26,20.44-12.24,34.87-7.32,9.3,3.16,17.05,8.85,24.57,13.92,7.95,5.36,16.2,11.43,26.24,14.44,13.84,4.15,24.19-1,33.2-7.84Q512.51,220.71,516.37,185.81Z"/><path class="cls-4" d="M223.37,444.49s142.15-64.13,244-55.17a109.79,109.79,0,0,1,67.19,31.1h0v41.2l-347.62,22Z"/><path class="cls-4" d="M845.65,444.49S703.5,380.36,601.7,389.32a109.79,109.79,0,0,0-67.19,31.1h0v41.2l347.61,22Z"/><path class="cls-4" d="M394.3,439.37,186.9,452.51l36.47-39.15s13.1-5.91,34.2-13.89C306,381.16,396.43,352,467.32,358.2a108.55,108.55,0,0,1,36.28,9.71,110.25,110.25,0,0,1,30.91,21.38A109.77,109.77,0,0,1,601.7,358.2c70.89-6.24,161.35,23,209.74,41.27,21.11,8,34.21,13.89,34.21,13.89l36.47,39.15-347.61-22L394.3,439.37Z"/><path class="cls-5" d="M505,467.65a29.53,29.53,0,0,1,59,0l-29.47,1.82Z"/><polygon class="cls-4" points="602.58 162.45 605.82 168.58 611.76 171.94 605.82 175.29 602.58 181.43 599.33 175.29 593.39 171.94 599.33 168.58 602.58 162.45"/><polygon class="cls-1" points="611.76 11.72 615.01 17.85 620.95 21.21 615.01 24.56 611.76 30.7 608.51 24.56 602.58 21.21 608.51 17.85 611.76 11.72"/><polygon class="cls-4" points="891.31 123.8 894.56 129.93 900.5 133.28 894.56 136.64 891.31 142.77 888.06 136.64 882.12 133.28 888.06 129.93 891.31 123.8"/><polygon class="cls-4" points="142.81 247.71 146.06 253.84 152 257.19 146.06 260.55 142.81 266.68 139.56 260.55 133.62 257.19 139.56 253.84 142.81 247.71"/><polygon class="cls-1" points="951.56 393.42 954.81 399.56 960.75 402.91 954.81 406.27 951.56 412.4 948.32 406.27 942.38 402.91 948.32 399.56 951.56 393.42"/><path class="cls-3" d="M410.73,42.42a1.22,1.22,0,0,1-1.13-1.66l8.21-21.32L396,27.24a1.22,1.22,0,0,1-1.57-1.52L402.56.84a1.21,1.21,0,0,1,2.31.75l-7.32,22.52,21.94-7.85A1.22,1.22,0,0,1,421,17.84l-8.2,21.28,21.51-8a1.22,1.22,0,0,1,1.56.72,1.2,1.2,0,0,1-.71,1.56l-24,8.93A1.26,1.26,0,0,1,410.73,42.42Z"/><path class="cls-4" d="M532.45,126.06h0a12.56,12.56,0,0,1-12.56,12.56h0a12.56,12.56,0,0,1-12.57-12.56h0a12.57,12.57,0,0,1,12.57-12.57h0A12.57,12.57,0,0,1,532.45,126.06Z"/><path class="cls-1" d="M561.7,158h0a6.68,6.68,0,0,1-6.68,6.68h0a6.68,6.68,0,0,1-6.67-6.68h0a6.67,6.67,0,0,1,6.67-6.67h0A6.68,6.68,0,0,1,561.7,158Z"/><path class="cls-3" d="M543.72,150.13H520.86a1.22,1.22,0,0,1-1.22-1.21V126.06a1.22,1.22,0,0,1,1.22-1.22h22.86a1.22,1.22,0,0,1,1.21,1.22v22.86A1.21,1.21,0,0,1,543.72,150.13Zm-21.65-2.43H542.5V127.27H522.07Z"/><path class="cls-2" d="M218.74,301.71a1.46,1.46,0,0,1-.41-2.86c2.84-.84,9.29-3,14-6.34a21.28,21.28,0,0,1-6.45-4.79c-2.09-2.28-2.93-4.5-2.49-6.61a7,7,0,0,1,4-4.62,10,10,0,0,1,8.77-.06,8.21,8.21,0,0,1,4.49,6,10.52,10.52,0,0,1-2.68,8.94,16.34,16.34,0,0,0,5.75.07,13.74,13.74,0,0,0,10.53-8.49,1.46,1.46,0,1,1,2.68,1.15,16.54,16.54,0,0,1-12.71,10.21,19.36,19.36,0,0,1-8.72-.54c-5,4.1-12.24,6.68-16.39,7.91A1.52,1.52,0,0,1,218.74,301.71Zm13.19-23.35a7.28,7.28,0,0,0-3.19.74c-.64.33-2.18,1.23-2.47,2.6s.8,3,1.78,4.05a18.2,18.2,0,0,0,6.83,4.68c2.17-2.14,3.47-4.64,3-7.5a5.29,5.29,0,0,0-2.92-3.89A6.75,6.75,0,0,0,231.93,278.36Z"/><path class="cls-6" d="M352.65,311.77c-1.36.64-2.29,1.82-3.63,2.5-6.93,3.51-6.54-9.17-6.51-12.83.06-7.71-.27-17.62-9.86-19.34a11.91,11.91,0,0,0-13.47,9c-1.87,7.56,1.13,29-12.94,26-3.75-.78-6.54-3.86-8.83-6.93-2.89-3.9-5.72-8.24-10.83-9.16-7.76-1.4-15.59,3.08-20.9,8.38a36.61,36.61,0,0,0-8.09,12.72l0,.09h15l19.86,0c5.65,0,70-.1,70-.06C362,317.41,359.39,308.6,352.65,311.77Z"/><path class="cls-6" d="M802.18,79.85H951.92c-1-12.54-9.21-33.93-10.74-36.39-.62-1-1.16-1.93-1.61-2.64-7-11.1-26.28-18.49-35-5.19-6.08,9.3-1,27.41-13.69,32C876.38,73,872.72,53.89,871.43,44.09c-1.59-12-1.33-24.36-4.87-36.07-1.51-3.51-4-7.52-8-8-4,0-7.51,3-9,6.52-4.45,10.79-5.67,22.43-7.29,33.89-1.32,9.29-3.13,29.8-15.49,31-6.56.61-12.5-11.11-18.58-5.92C804.3,68.74,804.51,75.62,802.18,79.85Z"/><path class="cls-2" d="M930,185.78c-6.13,0-12.08-2.71-14.2-8.59a15.13,15.13,0,0,1-.8-3.69,18.25,18.25,0,0,1-7.24-5.27,16.4,16.4,0,0,1-4.06-8.81,1.22,1.22,0,0,1,2.42-.23,14.14,14.14,0,0,0,3.49,7.46,17.14,17.14,0,0,0,5.35,4.19,19.34,19.34,0,0,1,.36-2.76c.54-2.72,1.58-4.56,3.18-5.62a5.54,5.54,0,0,1,8.49,5.71,6.89,6.89,0,0,1-2.18,3.63,8.66,8.66,0,0,1-6.59,2.4q-.35,0-.69-.06a12.34,12.34,0,0,0,.56,2.23c2.6,7.2,11.77,7.92,17.46,6.14l.58-.2A14.67,14.67,0,0,0,940.4,180a1.21,1.21,0,1,1,1.52,1.89,17.1,17.1,0,0,1-5,2.73l-.67.22A20.84,20.84,0,0,1,930,185.78Zm-12.64-14.13a6.8,6.8,0,0,0,1,.13,6.3,6.3,0,0,0,4.8-1.77,4.53,4.53,0,0,0,1.43-2.32,3.11,3.11,0,0,0-4.76-3.21c-1,.69-1.73,2-2.14,4.07A17.81,17.81,0,0,0,917.37,171.65Z"/><path class="cls-2" d="M671.49,492.36H399.16a1.22,1.22,0,0,1,0-2.43H671.49a1.22,1.22,0,1,1,0,2.43Z"/><path class="cls-2" d="M366.35,492.36H72.19a1.22,1.22,0,0,1,0-2.43H366.35a1.22,1.22,0,1,1,0,2.43Z"/><path class="cls-2" d="M891.6,489.71h-.38L563.61,469.5l-29.1-1.8-29.1,1.8L177.8,489.7a6.08,6.08,0,0,1-.75-12.13l327.61-20.2,29.48-1.82a4.69,4.69,0,0,1,.75,0l29.47,1.82L892,477.57a6.08,6.08,0,0,1-.37,12.14Z"/><path class="cls-2" d="M1020.67,492.36H733.43a1.22,1.22,0,1,1,0-2.43h287.24a1.22,1.22,0,1,1,0,2.43Z"/><path class="cls-2" d="M564,463.43a29.53,29.53,0,0,1-59,0l29.48-1.81Z"/><path class="cls-2" d="M810.32,395.54a1.1,1.1,0,0,1-.47-.1c-47-20-136.29-53.17-207.31-49.9a108.76,108.76,0,0,0-67.67,27.94,1.22,1.22,0,0,1-1.71-.07A108.84,108.84,0,0,0,503.51,351a107.41,107.41,0,0,0-35.44-11.09A248.4,248.4,0,0,0,437.83,338a1.22,1.22,0,1,1,0-2.43h0a249.15,249.15,0,0,1,30.53,2,109.72,109.72,0,0,1,36.25,11.34,111.16,111.16,0,0,1,29.49,22.05,111.23,111.23,0,0,1,68.31-27.78c71.51-3.3,161.24,30,208.37,50.09a1.22,1.22,0,0,1-.48,2.34Z"/><path class="cls-2" d="M256.94,372.39a1.22,1.22,0,0,1-.39-2.37C292.25,358.19,346,343,399,337.54a1.22,1.22,0,0,1,1.34,1.08,1.23,1.23,0,0,1-1.09,1.34c-52.87,5.39-106.39,20.58-142,32.37A1.31,1.31,0,0,1,256.94,372.39Z"/><path class="cls-5" d="M811.43,446.64a1.26,1.26,0,0,1-.43-.08c-47.73-18.1-138.36-47.54-209.18-41.37a108.07,108.07,0,0,0-22.15,4.31,1.21,1.21,0,1,1-.71-2.32,110.13,110.13,0,0,1,22.65-4.41c71.3-6.22,162.33,23.34,210.25,41.52a1.22,1.22,0,0,1-.43,2.35Z"/><path class="cls-5" d="M257.56,446.19a1.22,1.22,0,0,1-1.14-.79,1.2,1.2,0,0,1,.71-1.56c47.94-18.1,139-47.51,210.32-41.18a109.77,109.77,0,0,1,36.68,9.85,111.84,111.84,0,0,1,13.23,7.27,1.22,1.22,0,0,1-1.32,2.05,108.22,108.22,0,0,0-48.81-16.75c-70.81-6.29-161.49,23-209.24,41A1.35,1.35,0,0,1,257.56,446.19Z"/><path class="cls-5" d="M811.43,425.43a1.26,1.26,0,0,1-.43-.08c-47.73-18.1-138.36-47.54-209.18-41.37a108.85,108.85,0,0,0-66.47,30.69,1.2,1.2,0,0,1-1.7,0A109.11,109.11,0,0,0,503.1,393.5a107.08,107.08,0,0,0-35.87-9.63c-31.38-2.79-69.84,1.13-114.31,11.63a1.21,1.21,0,0,1-.56-2.36c44.72-10.57,83.44-14.5,115.09-11.69a110,110,0,0,1,36.68,9.84,111.32,111.32,0,0,1,30.37,20.82,111.23,111.23,0,0,1,67.11-30.55c71.3-6.22,162.33,23.34,210.25,41.51a1.22,1.22,0,0,1-.43,2.36Z"/><path class="cls-5" d="M801.35,461a1,1,0,0,1-.34,0c-40.7-12.05-101.19-26.79-158.32-28.6a1.22,1.22,0,1,1,.08-2.43c57.38,1.82,118.1,16.61,158.93,28.7a1.22,1.22,0,0,1-.35,2.38Z"/><path class="cls-5" d="M491.55,440.56a1.26,1.26,0,0,1-.38-.06,107.67,107.67,0,0,0-23.94-4.92c-19.8-1.76-42.64-.83-67.89,2.75a1.22,1.22,0,0,1-.35-2.41c25.44-3.61,48.48-4.54,68.46-2.76a110.25,110.25,0,0,1,24.48,5,1.21,1.21,0,0,1,.77,1.53A1.2,1.2,0,0,1,491.55,440.56Z"/><path class="cls-5" d="M257.56,425a1.22,1.22,0,0,1-.43-2.36c20.71-7.82,41.5-14.76,61.77-20.65a1.21,1.21,0,0,1,1.51.83,1.23,1.23,0,0,1-.83,1.51c-20.22,5.86-40.94,12.79-61.59,20.59A1.35,1.35,0,0,1,257.56,425Z"/><path class="cls-1" d="M478.35,265.76a32.92,32.92,0,0,1-15.19-3.84c-8.47-4.35-15-10.77-21.25-17l-2.17-2.14c-.74-.72-1.49-1.46-2.23-2.2-5.77-5.7-11.73-11.6-19.21-15.79-13.74-7.69-25.27-3.85-34.73.91a.94.94,0,0,1-1-.12,1,1,0,0,1-.31-1c-4.48-9.43-11.18-19.3-26.51-21.72-8.46-1.33-16.79-.38-24.85.54l-3.12.34-3,.34c-8.78,1-17.85,2-27.2.2-15.21-3-21.89-13.26-26.41-22.94a1,1,0,0,1,0-.75l25.66-65.36a1,1,0,0,1,1.78.7l-25.51,65c4.32,9.12,10.7,18.73,24.88,21.5,9.06,1.77,18,.76,26.62-.22l3-.34,3.11-.35c8.19-.93,16.65-1.89,25.37-.52,16.11,2.53,23.34,13.21,27.79,22.47,9.21-4.48,21.39-8.2,35.43-.33,7.7,4.31,13.76,10.3,19.62,16.09l2.23,2.2,2.17,2.14c6.18,6.11,12.57,12.43,20.78,16.64,12.87,6.59,23.81,3,32.85-1.52L516.38,194c-9.15,4.32-20.11,7.31-33,.72-8.47-4.34-15-10.76-21.25-17L460,175.57l-2.23-2.2c-5.77-5.71-11.73-11.6-19.21-15.79-9.9-5.55-19.45-5.81-30.95-.86a.94.94,0,0,1-1.21-.43c-6-11.19-13.72-17-25-18.75-6.9-1.09-13.83-.63-19.7,0a1,1,0,0,1-.19-1.9c6-.6,13.08-1.07,20.19.05,14.95,2.35,22,11.76,26,19,11.6-4.79,21.73-4.37,31.83,1.28,7.7,4.32,13.76,10.31,19.62,16.1l2.23,2.2,2.17,2.14c6.18,6.11,12.57,12.43,20.78,16.64,13,6.67,24.11,2.88,33.22-1.7a1,1,0,0,1,1.34,1.12l-20.25,67.23a.93.93,0,0,1-.48.58C492.3,263.15,485.72,265.76,478.35,265.76Z"/><path class="cls-6" d="M801.12,168.36c-3,8.35-7.52,16.19-18.37,19.42-7.87,2.35-15.88,1.93-23.39,1.84-7.11-.08-14.62-.47-22.07,1.45-10.2,2.64-15.27,9.12-18.49,16.71-7.92-2.59-16.22-3.05-25,3-6.32,4.39-10.93,10.35-15.5,15.79-4.84,5.75-9.74,12.09-16.65,16.53-9.53,6.11-18.44,4.45-26.7,1.25l20.88,50.89c8.26,3.2,17.17,4.86,26.7-1.26,6.91-4.43,11.81-10.77,16.64-16.52,4.58-5.44,9.19-11.4,15.51-15.79,9.76-6.78,19-5.41,27.72-2l.13.24c3.15-8.88,8.11-16.81,19.68-19.8,7.45-1.92,15-1.53,22.07-1.45,7.52.09,15.52.51,23.39-1.84,10.85-3.23,15.41-11.07,18.37-19.42Q813.59,192.87,801.12,168.36Z"/><path class="cls-1" d="M671.87,295a47.78,47.78,0,0,1-8.06-.78,1.05,1.05,0,0,1-.68-.44L632.62,248a1,1,0,0,1,1-1.58c7.81,1.35,16.89,1.67,25-6.23,5.17-5,8.5-11.17,11.73-17.14l1.14-2.1q.59-1.06,1.17-2.16c3.08-5.69,6.26-11.58,11.07-16.59,8.19-8.54,17.34-8.95,23.82-8.31,2.16-9.55,7-15.87,15.18-19.83a50.71,50.71,0,0,1,9.61-3.42,1,1,0,0,1,.51,2,49,49,0,0,0-9.23,3.28c-7.92,3.85-12.32,9.8-14.27,19.32a1,1,0,0,1-1.12.81c-9.78-1.15-16.89,1.19-23,7.59-4.62,4.82-7.73,10.58-10.74,16.15l-1.18,2.17c-.38.69-.75,1.39-1.13,2.09-3.31,6.11-6.72,12.42-12.11,17.64-8,7.75-16.73,8.2-24.5,7.13l29,43.47c7.7,1.29,16.6,1.45,24.61-6.3,5.16-5,8.5-11.17,11.73-17.15l1.14-2.1,1.17-2.15c3.07-5.69,6.25-11.58,11.07-16.6,8.83-9.2,18.89-9.17,26.86-7.91,1.28-7.94,4.43-17.37,15.76-22.86,6.25-3,12.83-4.25,19.2-5.43l2.41-.44,2.35-.44c6.67-1.23,13.58-2.51,19.92-5.88,9.84-5.23,12.43-13.75,13.58-21.47l-32.43-41c-1.38,7.72-4.49,15.88-14.33,21.11-1,.52-2,1-3.06,1.47a1,1,0,0,1-.81-1.88c1-.43,2-.9,2.91-1.39,10-5.33,12.52-14.06,13.64-21.9a1,1,0,0,1,1.81-.49l34.14,43.12a1,1,0,0,1,.21.78c-1.19,8.35-3.87,17.66-14.7,23.42-6.63,3.52-13.68,4.82-20.51,6.08l-2.34.44-2.42.45c-6.23,1.15-12.68,2.34-18.68,5.25-11,5.33-13.65,14.38-14.82,22.53a1,1,0,0,1-1.72.58c-8-1.32-17.2-1.4-25.5,7.24-4.62,4.82-7.74,10.59-10.75,16.16l-1.17,2.16-1.14,2.1c-3.3,6.1-6.71,12.42-12.1,17.63A25.68,25.68,0,0,1,671.87,295Z"/><path class="cls-4" d="M303.55,86.45a5.12,5.12,0,1,1,5.12-5.12A5.12,5.12,0,0,1,303.55,86.45Z"/><path class="cls-4" d="M284.19,86.45a5.12,5.12,0,1,1,5.12-5.12A5.12,5.12,0,0,1,284.19,86.45Z"/><path class="cls-4" d="M284.19,65.49a5.12,5.12,0,1,1,5.12-5.12A5.12,5.12,0,0,1,284.19,65.49Z"/><path class="cls-4" d="M284.19,105.88a5.12,5.12,0,1,1,5.12-5.12A5.12,5.12,0,0,1,284.19,105.88Z"/><path class="cls-4" d="M264.82,86.45a5.12,5.12,0,1,1,5.12-5.12A5.12,5.12,0,0,1,264.82,86.45Z"/><path class="cls-1" d="M139.81,467.8c8.11,8.22,18.1,11.51,22.33,7.34s1.07-14.21-7-22.42c-5.61-5.69-14.14-7-18.87-7.3a3.27,3.27,0,0,0-3.46,3.42C133,453.57,134.2,462.12,139.81,467.8Z"/><path class="cls-2" d="M172.54,493.34a1,1,0,0,1-1-1c0-.22-1.47-21.92-.21-51,1.16-26.83,4.93-65.62,16.31-98a1.05,1.05,0,0,1,1.34-.65,1.07,1.07,0,0,1,.65,1.35c-21.63,61.54-16,147.29-16,148.14a1,1,0,0,1-1,1.13Z"/><path class="cls-2" d="M164.38,493.34h0a1.05,1.05,0,0,1-1-1.07c.48-39.88-10.66-63.85-19.08-78.41a1.07,1.07,0,0,1,.38-1.45,1.06,1.06,0,0,1,1.44.39c8.55,14.78,19.86,39.09,19.37,79.5A1.05,1.05,0,0,1,164.38,493.34Z"/><path class="cls-1" d="M188.35,368.71c-1.59,6.8-5.71,11.65-9.2,10.83s-5-7-3.46-13.79c1.1-4.7,5.09-8.08,7.44-9.72a2,2,0,0,1,2.86.67C187.37,359.21,189.45,364,188.35,368.71Z"/><path class="cls-3" d="M213.12,349.27a4.75,4.75,0,0,0-3.26-7.23h0a9,9,0,0,0-9.45,4.26l-11.59,21.53a7.06,7.06,0,0,1-7.83,3.53h0a7.06,7.06,0,0,1-5.46-6.63l-.86-24.44a9,9,0,0,0-6.58-8h0a6.3,6.3,0,0,0-6.08,6.52s1.09,32.26,1.16,32.91l0,.3a13.18,13.18,0,0,0,10.06,11.07l9.42,2.2a13.19,13.19,0,0,0,13.94-5.48l0,0Z"/><path class="cls-4" d="M135.17,392.91h0l7.49-14.59a5.61,5.61,0,0,0-4.18-8.12h0a5.61,5.61,0,0,0-6.32,6.59Z"/><path class="cls-4" d="M128.74,397.71h0l-16.12,3A5.61,5.61,0,0,1,106,394.4h0a5.61,5.61,0,0,1,8.12-4.18Z"/><path class="cls-4" d="M133.33,403.87h0l-7.49,14.59a5.61,5.61,0,0,0,4.19,8.11h0a5.6,5.6,0,0,0,6.32-6.58Z"/><path class="cls-4" d="M139.77,399.07h0l16.12-3a5.61,5.61,0,0,1,6.58,6.32h0a5.61,5.61,0,0,1-8.11,4.19Z"/><path class="cls-4" d="M131,393.86h0l-5-15.61a5.61,5.61,0,0,0-8.7-2.78h0a5.61,5.61,0,0,0,.19,9.13Z"/><path class="cls-4" d="M129.87,401.81h0l-9.26,13.53a5.61,5.61,0,0,1-9.13.18h0a5.6,5.6,0,0,1,2.78-8.69Z"/><path class="cls-4" d="M137.48,402.91h0l5,15.62a5.62,5.62,0,0,0,8.7,2.78h0a5.61,5.61,0,0,0-.19-9.13Z"/><path class="cls-4" d="M138.63,395h0l9.27-13.53a5.61,5.61,0,0,1,9.13-.19h0a5.62,5.62,0,0,1-2.78,8.7Z"/></g></g></svg>