<svg xmlns="http://www.w3.org/2000/svg" viewBox="0 0 1095.97 504.31"><defs><style>.cls-1{fill:#f8e7e7;}.cls-2{fill:#333;}.cls-3{fill:#dd9b9b;}.cls-4{fill:#fff;}.cls-5{fill:#232323;}.cls-6{fill:#cc8f8f;}.cls-7{fill:#e8b3b3;}</style></defs><title>Asset 4</title><g id="Layer_2" data-name="Layer 2"><g id="Layer_2-2" data-name="Layer 2"><path class="cls-1" d="M301.83,268.58H0a41.55,41.55,0,0,1,.33-7.2h0A65.16,65.16,0,0,1,8.2,238.32c6.38-11.25,15.94-19.56,26.68-17A23.75,23.75,0,0,1,45,227c5.17,4.58,9.33,10.21,14.46,14.85s11.67,8.36,18.56,7.85c8.63-.62,14.83-8.34,16.12-16.47,3.11-19.56,2.91-58.2,27.37-63.56.46-.1.92-.19,1.37-.26,20.9-3.58,35.31,16.84,40.87,35.13a62.94,62.94,0,0,1,1.55,6.11,78.17,78.17,0,0,1,1.76,15.28l.12,1c.16,1.41.35,2.82.59,4.2a33.75,33.75,0,0,0,2.89,9.52,4.31,4.31,0,0,0,2.53,2.54c3.34.81,6.14-3.06,8-6.14.54-.87,1-1.67,1.4-2.29,6.06-9.62,22.79-16,30.34-4.5,5.28,8.07.89,23.78,11.87,27.79,12.6,4.61,15.77-11.95,16.89-20.45,1.38-10.44,1.15-21.13,4.23-31.29,1.3-3.05,3.48-6.52,6.95-7,3.48,0,6.52,2.61,7.83,5.66,3.85,9.36,4.91,19.46,6.32,29.4,1.15,8.06,2.71,25.84,13.43,26.84,5.7.53,10.85-9.63,16.12-5.13C300,259,299.81,264.92,301.83,268.58Z"/><rect class="cls-1" x="517.66" y="74.97" width="250.59" height="311.14" transform="translate(-12.55 38.58) rotate(-3.4)"/><path class="cls-2" d="M741.55,183h-.09a1.14,1.14,0,0,1-1.05-1.23l6-78.25-38.16-3a1.15,1.15,0,0,1,.17-2.29l39.31,3a1.11,1.11,0,0,1,.79.4,1.14,1.14,0,0,1,.27.83l-6.13,79.39A1.14,1.14,0,0,1,741.55,183Z"/><path class="cls-2" d="M711.38,412.86h-.09L473.8,394.52a1.14,1.14,0,0,1-.79-.39,1.2,1.2,0,0,1-.27-.84L496.68,83.08A1.15,1.15,0,0,1,497.92,82L515,83.34a1.15,1.15,0,1,1-.18,2.29L498.88,84.4,475.12,392.33l236.35,18.24a1.15,1.15,0,0,1-.09,2.29Z"/><path class="cls-2" d="M726.75,374.78h-.09a1.15,1.15,0,0,1-1.06-1.23l12.8-165.78a1.14,1.14,0,0,1,1.23-1,1.16,1.16,0,0,1,1.06,1.23l-12.8,165.78A1.15,1.15,0,0,1,726.75,374.78Z"/><rect class="cls-3" x="461.99" y="117.8" width="250.59" height="311.14" transform="translate(22.78 -44.38) rotate(4.41)"/><circle class="cls-4" cx="587.29" cy="283.8" r="65.99" transform="translate(-28.67 498.4) rotate(-45)"/><polygon class="cls-5" points="610.39 285.3 590.51 296.78 570.63 308.25 570.63 285.3 570.63 262.34 590.51 273.82 610.39 285.3"/><circle class="cls-4" cx="522.99" cy="130" r="6.79"/><circle class="cls-4" cx="547.28" cy="132.85" r="6.79"/><circle class="cls-4" cx="658.62" cy="139.77" r="6.79"/><circle class="cls-4" cx="682.91" cy="142.62" r="6.79"/><path class="cls-2" d="M523.2,129.48H523a1.16,1.16,0,0,1-1-1.29l5.28-38.55a1.15,1.15,0,0,1,2.28.31l-5.28,38.55A1.16,1.16,0,0,1,523.2,129.48Z"/><path class="cls-2" d="M547.28,132.27h-.15a1.14,1.14,0,0,1-1-1.29l5.28-38.55a1.15,1.15,0,1,1,2.27.31l-5.28,38.55A1.14,1.14,0,0,1,547.28,132.27Z"/><path class="cls-2" d="M659.07,138.26h-.16a1.14,1.14,0,0,1-1-1.29l5.28-38.55a1.15,1.15,0,0,1,1.29-1,1.14,1.14,0,0,1,1,1.29l-5.28,38.55A1.14,1.14,0,0,1,659.07,138.26Z"/><path class="cls-2" d="M683.15,141.06H683a1.15,1.15,0,0,1-1-1.29l5.28-38.56a1.15,1.15,0,1,1,2.27.31l-5.28,38.56A1.14,1.14,0,0,1,683.15,141.06Z"/><path class="cls-2" d="M999.8,485.52a16.25,16.25,0,0,1-16-13.48L959.23,329.87a16.24,16.24,0,1,1,32-5.53l24.59,142.16a16.25,16.25,0,0,1-13.24,18.78A16.6,16.6,0,0,1,999.8,485.52Z"/><path class="cls-2" d="M949,486.93h-.48a16.25,16.25,0,0,1-15.77-16.7l3.77-131.46a16.24,16.24,0,0,1,32.47.93l-3.77,131.46A16.24,16.24,0,0,1,949,486.93Z"/><path class="cls-6" d="M1001.58,375.63a11.77,11.77,0,0,1-11.71-10.74l-.67-7.6a11.77,11.77,0,0,1,23.45-2.07l.67,7.61a11.77,11.77,0,0,1-10.69,12.75C1002.28,375.61,1001.93,375.63,1001.58,375.63Z"/><path class="cls-6" d="M1018.29,378.73a4.14,4.14,0,0,1-3.26-1.57l-10.75-13.49a4.17,4.17,0,1,1,6.52-5.19L1021.55,372a4.16,4.16,0,0,1-3.26,6.76Z"/><path class="cls-6" d="M1015.68,388.9a4.15,4.15,0,0,1-3.35-1.69l-12-16.13a4.17,4.17,0,1,1,6.7-5L1019,382.25a4.17,4.17,0,0,1-.87,5.83A4.12,4.12,0,0,1,1015.68,388.9Z"/><path class="cls-6" d="M1006.78,390.89a4.15,4.15,0,0,1-3.53-1.94l-8.78-13.88a4.17,4.17,0,0,1,7-4.46l8.78,13.89a4.17,4.17,0,0,1-1.3,5.75A4.11,4.11,0,0,1,1006.78,390.89Z"/><path class="cls-3" d="M887.94,369.31a11.77,11.77,0,0,1-8.15-20.26l38.37-36.86,17.58-37.84a11.77,11.77,0,0,1,21.34,9.92l-18.51,39.84a11.75,11.75,0,0,1-2.52,3.53L896.1,366A11.76,11.76,0,0,1,887.94,369.31Z"/><rect class="cls-6" x="877.5" y="348.55" width="11.48" height="23.54" transform="translate(-70.51 377.68) rotate(-23.24)"/><path class="cls-6" d="M867,379.5a4.17,4.17,0,0,1-1.57-8l15.73-6.38a4.17,4.17,0,0,1,3.14,7.72l-15.73,6.39A4.18,4.18,0,0,1,867,379.5Z"/><path class="cls-6" d="M857.82,374.33a4.17,4.17,0,0,1-1.52-8.05L875,358.94a4.17,4.17,0,0,1,3,7.76L859.34,374A4.06,4.06,0,0,1,857.82,374.33Z"/><path class="cls-6" d="M858.21,365.21a4.17,4.17,0,0,1-1.23-8.15l15.69-4.86a4.17,4.17,0,0,1,2.47,8L859.45,365A4.43,4.43,0,0,1,858.21,365.21Z"/><path class="cls-6" d="M879.1,358a4.21,4.21,0,0,1-1.3-.21l-11-3.61a4.17,4.17,0,1,1,2.6-7.92l11,3.61A4.17,4.17,0,0,1,879.1,358Z"/><path class="cls-4" d="M894.74,370.09a4.17,4.17,0,0,1-3.43-1.8l-11.82-17.24a4.15,4.15,0,1,1,6.84-4.7l11.83,17.24a4.14,4.14,0,0,1-3.42,6.5Z"/><path class="cls-4" d="M903.66,348.55c3.53,2.33,1.2,7.17-2.82,5.87-3.52-2.33-1.2-7.17,2.82-5.87Z"/><path class="cls-6" d="M965.37,472.33,965,502.27l-7.33.21-3.07-7.76-5.06.14-3.4,7.94-14.58.4-1.67.05-14.44.4v-.45l-.17-4.56v-.1a10.21,10.21,0,0,1,5-9.07l4-2.3,6.68-3.88,3.5-11,.21-.67,10.63.27,1.34,0Z"/><path class="cls-3" d="M965.75,474.87h0l-33.49-.07a4.15,4.15,0,1,1,0-8.3h0l33.5.07a4.15,4.15,0,0,1,0,8.3Z"/><path class="cls-2" d="M955.14,352a16.24,16.24,0,0,1-.45-32.48l19.36-.54h.46a16.24,16.24,0,0,1,.44,32.48L955.6,352Z"/><path class="cls-4" d="M991.14,324.79l-52.93,10.73L930,298.74a29.85,29.85,0,0,1,28.49-36.32h0A30.43,30.43,0,0,1,989.71,292Z"/><path class="cls-6" d="M942.67,268.5l.31-14.26.38-9.17.18-4.36a7.24,7.24,0,0,1,7.53-6.94c.31,0,.62,0,.93.1a7.24,7.24,0,0,1,5.84,5.59,7,7,0,0,1,.16,1.84l-.63,15.39-.24,6C957,266.68,942.5,272.5,942.67,268.5Z"/><polygon class="cls-2" points="959.08 257.13 939.99 268.53 942.75 271.72 959.98 268.72 959.08 257.13"/><path class="cls-6" d="M937.61,252.35h0a8.92,8.92,0,0,1-3.52-12.13l3.57-6.49a11.77,11.77,0,0,1,16-4.63h0a11.76,11.76,0,0,1,4.63,16l-.83,1.52A14.61,14.61,0,0,1,937.61,252.35Z"/><path class="cls-6" d="M937.54,235.34l-7.6,5a1.25,1.25,0,0,0,.27,2.22l4.84,1.7Z"/><path class="cls-2" d="M949.26,235.42a13,13,0,0,0-.22,3.28,4,4,0,0,0,2.46,3,18.17,18.17,0,0,0,5.48,1.05c4,.39,9.41-1.8,7.83-6.84a4.6,4.6,0,0,0-3.93-3.19,3.85,3.85,0,0,0,3.37-.77,3,3,0,0,0,.9-3.25,3.63,3.63,0,0,0-3.28-2.07,10.65,10.65,0,0,0-4,.84,6.09,6.09,0,0,0-2.65-4.4,4.93,4.93,0,0,0-5-.19,2.35,2.35,0,0,0-1.11,1.24,1.23,1.23,0,0,0,.53,1.46,3.67,3.67,0,0,0-6.6-2.93,2.92,2.92,0,0,0-.5,1.27,6.7,6.7,0,0,1,.33,1.32c-1.87.16-5.4-2.29-3.07-4.27a5.89,5.89,0,0,0-5.79,2.64,4.8,4.8,0,0,0,0,4.74c1.71,3.32,5.62,4.23,8.93,5.08,1.9.48,5.64,1.69,5.64,1.69l.7.26Z"/><path class="cls-3" d="M937.92,335.33a1.08,1.08,0,0,1-.18-2.15l52.46-9.3a1.08,1.08,0,1,1,.38,2.12l-52.47,9.31Z"/><path class="cls-3" d="M957.45,332.18a6,6,0,1,1-6.19-5.85A6,6,0,0,1,957.45,332.18Z"/><rect class="cls-3" x="934.93" y="294.48" width="12.76" height="12.76" transform="translate(464.18 -564.54) rotate(43.41)"/><rect class="cls-2" x="944.73" y="294.21" width="12.76" height="12.76" transform="translate(466.67 -571.36) rotate(43.41)"/><path class="cls-2" d="M932.78,243.48a5.21,5.21,0,0,1,2.57-.67,6.58,6.58,0,0,1,4.06,1.38c1.28,1,2.31,2.25,4.1,1.9a11.06,11.06,0,0,0,1.94-.65,23.33,23.33,0,0,0,4.36-2.38h0l6.72,3.91c.64.52-2.73,3.69-3.06,4a15.87,15.87,0,0,1-12.87,4.68,13.67,13.67,0,0,1-7.46-3.27C930.45,249.91,929.87,245.21,932.78,243.48Z"/><circle class="cls-6" cx="953.9" cy="243.37" r="5.55" transform="translate(-19.6 389.83) rotate(-22.87)"/><path class="cls-3" d="M996.66,319.59a11.74,11.74,0,0,1-9-4.18l-25.21-29.84a11.77,11.77,0,1,1,18-15.19l25.21,29.84a11.77,11.77,0,0,1-9,19.37Z"/><path class="cls-6" d="M993.22,387h-.31a4.17,4.17,0,0,1-3.85-4.46l1.06-14.44a4.17,4.17,0,1,1,8.31.61l-1,14.44A4.17,4.17,0,0,1,993.22,387Z"/><rect class="cls-3" x="987.02" y="307.72" width="23.54" height="48.63" transform="translate(-25.31 89.05) rotate(-5.04)"/><path class="cls-3" d="M990.28,361.79a4.15,4.15,0,0,1-.39-8.29l21.13-2a4.15,4.15,0,0,1,.79,8.27l-21.13,2Z"/><path class="cls-4" d="M1009.1,345.71a3.14,3.14,0,1,1-3.07-3.21A3.13,3.13,0,0,1,1009.1,345.71Z"/><path class="cls-6" d="M985.14,502.17h7.33l2.85-7.84h5.06l3.62,7.84h30.7l0-5v-.1a10.18,10.18,0,0,0-5.3-8.93l-4-2.18-6.79-3.7-3.8-10.93-.23-.67-10.62.57-1.34.07-19,1Z"/><path class="cls-3" d="M1016.56,474.91h0l-33.5-.07a4.15,4.15,0,0,1,0-8.3h0l33.5.07a4.15,4.15,0,0,1,0,8.3Z"/><path class="cls-4" d="M969,385.63a1.08,1.08,0,0,1-1.05-.83l-5.39-22.14-5.94-1.48a1.07,1.07,0,0,1-.8-.81l-4-17.77a1.08,1.08,0,1,1,2.11-.47l3.83,17.12,5.94,1.46a1.1,1.1,0,0,1,.79.8L970,384.29a1.09,1.09,0,0,1-.8,1.31A1.07,1.07,0,0,1,969,385.63Z"/><path class="cls-2" d="M814.11,457a1.18,1.18,0,0,1-.56-2.21L833.14,444a1.18,1.18,0,0,1,1.13,2.07l-19.59,10.76A1.26,1.26,0,0,1,814.11,457Z"/><path class="cls-2" d="M844,504a1.17,1.17,0,0,1-1.15-1L830.1,431.74a1.18,1.18,0,0,1,2.32-.41l12.71,71.31a1.18,1.18,0,0,1-1,1.37Z"/><path class="cls-2" d="M804.47,503.89l-.23,0a1.18,1.18,0,0,1-.92-1.39l14.17-71a1.18,1.18,0,1,1,2.31.46l-14.17,71A1.19,1.19,0,0,1,804.47,503.89Z"/><path class="cls-2" d="M897.56,504a1.19,1.19,0,0,1-1.16-1l-16-89.7a1.18,1.18,0,0,1,2.32-.41l16,89.7a1.18,1.18,0,0,1-1,1.37Z"/><path class="cls-2" d="M858.3,503.89l-.23,0a1.18,1.18,0,0,1-.93-1.39l14.17-71a1.19,1.19,0,0,1,1.39-.93,1.18,1.18,0,0,1,.92,1.39l-14.17,71A1.18,1.18,0,0,1,858.3,503.89Z"/><path class="cls-7" d="M877.93,434a41.17,41.17,0,0,1-22,6.38H790.72a5.81,5.81,0,1,1,0-11.61h81.44A5.81,5.81,0,0,1,877.93,434Z"/><path class="cls-7" d="M892.17,418.77a41.28,41.28,0,0,1-36.27,21.6,40.56,40.56,0,0,1-28.75-11.61c-13.64-13.35-11.38-34,1.36-51.89,17.66-24.78,39-39.38,65.1-32.78C923.22,351.58,906.32,392.75,892.17,418.77Z"/><path class="cls-2" d="M867.66,457a1.18,1.18,0,0,1-.57-2.21L886.68,444a1.18,1.18,0,0,1,1.6.47,1.17,1.17,0,0,1-.46,1.6l-19.59,10.76A1.3,1.3,0,0,1,867.66,457Z"/><path class="cls-7" d="M150,446.23c10.21,5.72,16.11,14.62,13.17,19.88s-13.61,4.86-23.83-.87c-7.07-4-10.67-12-12.21-16.51a3.31,3.31,0,0,1,2.41-4.3C134.24,443.37,142.94,442.26,150,446.23Z"/><path class="cls-7" d="M191.31,449.41c-5.77,5.85-12.89,8.19-15.89,5.22s-.77-10.11,5-15.95c4-4.05,10.07-5,13.43-5.2a2.33,2.33,0,0,1,2.47,2.44C196.16,439.28,195.3,445.37,191.31,449.41Z"/><path class="cls-2" d="M167.31,504.21a1,1,0,0,1-1.05-1c0-22.91-3.57-47-10.61-71.56a1.06,1.06,0,0,1,2-.58c7.09,24.76,10.69,49,10.69,72.14A1.05,1.05,0,0,1,167.31,504.21Z"/><path class="cls-2" d="M154,423.59a1,1,0,0,1-1-.73c-8.6-26.94-18.36-44.56-18.45-44.73a1.05,1.05,0,0,1,.4-1.44,1.06,1.06,0,0,1,1.44.41c.1.18,10,18,18.61,45.12a1,1,0,0,1-.68,1.32A.89.89,0,0,1,154,423.59Z"/><circle class="cls-6" cx="140.08" cy="390.7" r="19.82" transform="translate(-262.62 491.23) rotate(-84.29)"/><path class="cls-7" d="M171.53,504.21a1.05,1.05,0,0,1-1.05-1c0-.61-1-62,14.46-106.09a1.05,1.05,0,1,1,2,.7c-15.37,43.75-14.35,104.74-14.34,105.35a1.05,1.05,0,0,1-1,1.07Z"/><polygon class="cls-3" points="202.88 401.64 188.86 387.63 169.72 392.76 164.59 411.9 178.6 425.92 197.75 420.79 202.88 401.64"/><path class="cls-4" d="M140.08,393.29c-10.62,0-21.38-2.5-21.38-7.27a1.06,1.06,0,0,1,2.11,0c0,2.15,7.33,5.16,19.27,5.16s19.27-3,19.27-5.16a1.06,1.06,0,0,1,2.11,0C161.46,390.79,150.71,393.29,140.08,393.29Z"/><path class="cls-4" d="M140.08,393.29c-10.62,0-21.38-2.5-21.38-7.27a1.06,1.06,0,0,1,2.11,0c0,2.15,7.33,5.16,19.27,5.16s19.27-3,19.27-5.16a1.06,1.06,0,0,1,2.11,0C161.46,390.79,150.71,393.29,140.08,393.29Z"/><path class="cls-4" d="M156.5,398.57a18.57,18.57,0,0,1-4.1-.54A58.82,58.82,0,0,1,127,383.36c-3.12-3.34-4.2-6.12-3.1-8a1,1,0,0,1,1.44-.38,1.06,1.06,0,0,1,.39,1.44c-.42.71.07,2.59,2.82,5.52A56.48,56.48,0,0,0,152.88,396c3.91.9,5.78.39,6.2-.33a1.05,1.05,0,1,1,1.82,1.05C160.19,397.94,158.69,398.57,156.5,398.57Z"/><path class="cls-4" d="M156.5,398.57a18.57,18.57,0,0,1-4.1-.54A58.82,58.82,0,0,1,127,383.36c-3.12-3.34-4.2-6.12-3.1-8a1,1,0,0,1,1.44-.38,1.06,1.06,0,0,1,.39,1.44c-.42.71.07,2.59,2.82,5.52A56.48,56.48,0,0,0,152.88,396c3.91.9,5.78.39,6.2-.33a1.05,1.05,0,1,1,1.82,1.05C160.19,397.94,158.69,398.57,156.5,398.57Z"/><path class="cls-4" d="M164.58,413a1,1,0,0,1-1-.78,1.06,1.06,0,0,1,.74-1.3l38.3-10.26a1.06,1.06,0,0,1,.54,2l-38.29,10.26A.9.9,0,0,1,164.58,413Z"/><path class="cls-4" d="M183.73,407.83a1,1,0,0,1-.74-.31l-14-14a1.05,1.05,0,0,1,1.49-1.49l14,14a1.06,1.06,0,0,1-.75,1.8Z"/><rect class="cls-7" x="265.43" y="376.21" width="97.42" height="126.99"/><rect class="cls-3" x="346.22" y="429.48" width="84.72" height="73.72"/><path class="cls-2" d="M372.3,388.34H294.81a.92.92,0,0,1,0-1.83h76.58v-20.6H256.9v20.6h25.19a.92.92,0,1,1,0,1.83H256a.92.92,0,0,1-.92-.92V365a.92.92,0,0,1,.92-.92H372.3a.92.92,0,0,1,.92.92v22.42A.92.92,0,0,1,372.3,388.34Z"/><path class="cls-2" d="M439.38,441.31H415.54a.92.92,0,0,1,0-1.83h22.92v-20.6H335.25v20.6H403.1a.92.92,0,0,1,0,1.83H334.34a.92.92,0,0,1-.92-.92V418a.92.92,0,0,1,.92-.91h105a.92.92,0,0,1,.92.91v22.43A.92.92,0,0,1,439.38,441.31Z"/><path class="cls-2" d="M323.09,359.55a73.4,73.4,0,0,1-8.32-.5,1,1,0,0,1,.24-2,56.36,56.36,0,0,0,19.55-.77c6.38-1.53,11.13-8.37,10.6-15.23a12.19,12.19,0,0,0-6.83-9.84,9.86,9.86,0,0,0-10.06.69c-7.33,5-12.92,13.18-17,19.77a1,1,0,0,1-1.73-1.07c4.16-6.76,9.91-15.18,17.56-20.39a11.86,11.86,0,0,1,12.09-.84,14.27,14.27,0,0,1,8,11.52c.62,8-4.73,15.59-12.16,17.38A51.48,51.48,0,0,1,323.09,359.55Z"/><path class="cls-2" d="M306.74,359.55a51.45,51.45,0,0,1-11.94-1.31c-7.44-1.79-12.78-9.42-12.16-17.38a14.27,14.27,0,0,1,8-11.52,11.86,11.86,0,0,1,12.09.84c7.65,5.21,13.4,13.63,17.56,20.39A1,1,0,0,1,320,352a1,1,0,0,1-1.41-.33c-4.05-6.59-9.64-14.78-17-19.77a9.86,9.86,0,0,0-10.06-.69,12.19,12.19,0,0,0-6.83,9.84c-.54,6.86,4.22,13.7,10.6,15.23a56.36,56.36,0,0,0,19.55.77,1,1,0,1,1,.23,2A73.26,73.26,0,0,1,306.74,359.55Z"/><path class="cls-3" d="M255.34,480.71a1,1,0,0,1-.64-1.82l23.5-19.18-44.65,7.9a1,1,0,0,1-1.1-.56,1,1,0,0,1,.25-1.21l42.61-37.13a1,1,0,0,1,1.34,1.54L236.82,465,281.71,457a1,1,0,0,1,.82,1.8l-21.94,17.91,36.56-13.12a1,1,0,0,1,1.31.62,1,1,0,0,1-.62,1.3l-42.15,15.13A1.07,1.07,0,0,1,255.34,480.71Z"/><polygon class="cls-7" points="1054.23 227.11 1057.05 232.43 1062.2 235.34 1057.05 238.25 1054.23 243.57 1051.41 238.25 1046.26 235.34 1051.41 232.43 1054.23 227.11"/><polygon class="cls-3" points="208.42 330.11 211.23 335.43 216.39 338.34 211.23 341.25 208.42 346.57 205.6 341.25 200.45 338.34 205.6 335.43 208.42 330.11"/><polygon class="cls-7" points="540.58 0 543.39 5.32 548.54 8.23 543.39 11.14 540.58 16.46 537.76 11.14 532.61 8.23 537.76 5.32 540.58 0"/><path class="cls-3" d="M816.2,53a4.44,4.44,0,1,1,4.44-4.44A4.44,4.44,0,0,1,816.2,53Z"/><path class="cls-3" d="M799.4,53a4.44,4.44,0,1,1,4.44-4.44A4.44,4.44,0,0,1,799.4,53Z"/><path class="cls-3" d="M799.4,34.77a4.44,4.44,0,1,1,4.44-4.44A4.44,4.44,0,0,1,799.4,34.77Z"/><path class="cls-3" d="M799.4,69.81a4.44,4.44,0,1,1,4.44-4.44A4.44,4.44,0,0,1,799.4,69.81Z"/><path class="cls-3" d="M782.6,53A4.44,4.44,0,1,1,787,48.51,4.44,4.44,0,0,1,782.6,53Z"/><path class="cls-3" d="M396.06,143.39h0a10.9,10.9,0,0,1-10.9,10.9h0a10.9,10.9,0,0,1-10.89-10.9h0a10.9,10.9,0,0,1,10.89-10.9h0A10.9,10.9,0,0,1,396.06,143.39Z"/><path class="cls-7" d="M421.43,171.06h0a5.78,5.78,0,0,1-5.78,5.79h0a5.79,5.79,0,0,1-5.79-5.79h0a5.79,5.79,0,0,1,5.79-5.79h0A5.78,5.78,0,0,1,421.43,171.06Z"/><path class="cls-6" d="M405.84,164.27H386a1.06,1.06,0,0,1-1.06-1.05V143.39a1.06,1.06,0,0,1,1.06-1h19.83a1,1,0,0,1,1.05,1v19.83A1,1,0,0,1,405.84,164.27Zm-18.78-2.11h17.72V144.45H387.06Z"/><path class="cls-2" d="M392.87,312a1.27,1.27,0,0,1-.36-2.48,45,45,0,0,0,12.17-5.5,18.64,18.64,0,0,1-5.6-4.15c-1.81-2-2.53-3.91-2.15-5.74a6,6,0,0,1,3.49-4,8.69,8.69,0,0,1,7.61-.06,7.1,7.1,0,0,1,3.89,5.18,9.07,9.07,0,0,1-2.33,7.75,14.24,14.24,0,0,0,5,.06,11.89,11.89,0,0,0,9.13-7.36,1.27,1.27,0,1,1,2.33,1,14.38,14.38,0,0,1-11,8.86,16.85,16.85,0,0,1-7.56-.48c-4.31,3.56-10.62,5.8-14.21,6.87A1.57,1.57,0,0,1,392.87,312Zm11.44-20.25a6.21,6.21,0,0,0-2.76.64c-.56.28-1.9,1.06-2.14,2.26s.69,2.58,1.54,3.5a16,16,0,0,0,5.92,4.07c1.89-1.86,3-4,2.56-6.51a4.57,4.57,0,0,0-2.53-3.38A5.85,5.85,0,0,0,404.31,291.73Z"/><path class="cls-1" d="M385.66,72.74s-70.72,0-70.8,0H297.92a14.61,14.61,0,0,1-.19-3.3h0l0-.26c0-.09,0-.15,0-.18a29.84,29.84,0,0,1,1-4.36,23.16,23.16,0,0,1,2.57-5.75,15.51,15.51,0,0,1,5.27-5.23,21.1,21.1,0,0,1,6.94-2.54,15.73,15.73,0,0,1,11.68,2.3c2.12,1.44,4.07,3.66,6.73,4,4.07.52,5.14-4,5.47-7.05C338.29,42,339,29,349.18,26.6a5.86,5.86,0,0,1,4.62.74c2.53,1.59,4.13,5,5.05,7.74,1.47,4.47,2.28,9.32,4.13,13.65,1.36,3.21,4.08,5.16,7.64,4.68a8.48,8.48,0,0,1,3.45.25,13,13,0,0,1,6.43,4.63,17.32,17.32,0,0,1,1.58,2.39C384,64.25,384.87,68.74,385.66,72.74Z"/><path class="cls-1" d="M949,139.41h147c-1-12.31-9-33.31-10.54-35.73-.61-1-1.14-1.89-1.59-2.59C1077,90.2,1058.05,82.94,1049.5,96c-6,9.13-1,26.91-13.44,31.46-14.26,5.21-17.85-13.54-19.12-23.16-1.56-11.81-1.3-23.92-4.79-35.42-1.47-3.44-3.93-7.38-7.87-7.87-3.93,0-7.38,3-8.86,6.4-4.36,10.6-5.56,22-7.15,33.28-1.3,9.12-3.07,29.26-15.21,30.39-6.44.6-12.27-10.91-18.25-5.81C951,128.5,951.23,135.26,949,139.41Z"/><path class="cls-2" d="M938.52,84.88c-5.31,0-10.47-2.35-12.31-7.45a13.28,13.28,0,0,1-.7-3.21,15.7,15.7,0,0,1-6.27-4.56A14.26,14.26,0,0,1,915.71,62a1.05,1.05,0,0,1,2.1-.19,12.29,12.29,0,0,0,3,6.46,14.43,14.43,0,0,0,4.64,3.64,16.83,16.83,0,0,1,.31-2.39c.46-2.36,1.37-4,2.76-4.88a4.8,4.8,0,0,1,7.36,4.95A5.89,5.89,0,0,1,934,72.75a7.51,7.51,0,0,1-5.71,2.09l-.61-.06a11,11,0,0,0,.49,1.94c2.26,6.25,10.22,6.87,15.15,5.32l.5-.17a12.79,12.79,0,0,0,3.7-2,1.05,1.05,0,0,1,1.32,1.64,15,15,0,0,1-4.31,2.37l-.58.19A18.23,18.23,0,0,1,938.52,84.88Zm-11-12.26a6.5,6.5,0,0,0,.87.12,5.52,5.52,0,0,0,4.17-1.54,3.86,3.86,0,0,0,1.24-2,2.69,2.69,0,0,0-4.13-2.78c-.9.59-1.5,1.75-1.86,3.53A15.68,15.68,0,0,0,927.56,72.62Z"/><path class="cls-3" d="M988,145.78l-.26,2.57-2.56-.25a6.54,6.54,0,1,0-1.3,13l2.71.27,12.73,1.27h.13v-.12s1.3-12.88,1.3-12.88.25-2.58.25-2.58a6.54,6.54,0,1,0-13-1.3Z"/><path class="cls-6" d="M630.05,65.17l-4,1.66-1.65-3.95a10.87,10.87,0,0,0-20.06,8.39l1.75,4.18,8.21,19.62.09.21.18-.08s19.88-8.29,19.88-8.29,4-1.68,4-1.68a10.87,10.87,0,0,0-8.39-20.06Z"/><path class="cls-4" d="M670.27,357l-3.63,2.86-2.84-3.61a11.64,11.64,0,0,0-18.29,14.41l3,3.82,14.1,17.89.15.19.17-.13c.05,0,18.13-14.26,18.13-14.26s3.61-2.87,3.61-2.87a11.64,11.64,0,0,0-14.4-18.3Z"/><path class="cls-2" d="M665.49,368.23a.82.82,0,0,1-.63-.31L652.31,352a9.27,9.27,0,0,1,14.57-11.48l1.57,2,2-1.58a9.29,9.29,0,0,1,13,1.55,9.31,9.31,0,0,1-1.55,13c-.9.71-2.37,1.87-2.57,2l-.06.05c-10.22,8.05-12.58,9.91-13.21,10.36v0l-.12.09A.79.79,0,0,1,665.49,368.23Zm-5.92-29.65a7.68,7.68,0,0,0-6,12.41l12.06,15.31,12.69-10v0c.34-.31,1.06-.88,2.62-2.1a7.62,7.62,0,0,0,2.85-5.13,7.63,7.63,0,0,0-6.7-8.5,7.6,7.6,0,0,0-5.65,1.58l-.49-.63.49.63-2.63,2.07a.8.8,0,0,1-1.13-.13l-2.07-2.62a7.57,7.57,0,0,0-5.12-2.86A7.26,7.26,0,0,0,659.57,338.58Z"/><path class="cls-7" d="M833.39,138.05l-1.74.89-.89-1.73a4.94,4.94,0,1,0-8.77,4.53l.94,1.83,4.43,8.57,0,.1.08,0,8.7-4.48s1.73-.9,1.73-.9a4.93,4.93,0,1,0-4.52-8.77Z"/><path class="cls-3" d="M264,129l-.46,2.92-2.91-.46a7.45,7.45,0,0,0-2.33,14.72l3.07.49,14.4,2.28.16,0,0-.14s2.32-14.58,2.32-14.58.45-2.92.45-2.92A7.45,7.45,0,0,0,264,129Z"/><path class="cls-2" d="M530.58,503.08a1.06,1.06,0,0,1-1.06-1c-.22-18.07,4.31-39.56,11.26-53.47a1,1,0,0,1,1.41-.47,1.06,1.06,0,0,1,.48,1.42c-6.82,13.63-11.25,34.73-11,52.49a1.06,1.06,0,0,1-1,1.07Z"/><rect class="cls-6" x="535.94" y="441.28" width="12.82" height="12.82" transform="translate(1202.59 205.52) rotate(120.32)"/><path class="cls-3" d="M535.17,438.24a4.55,4.55,0,1,0,3.25-5.56A4.56,4.56,0,0,0,535.17,438.24Z"/><path class="cls-3" d="M540.72,459.45a4.55,4.55,0,1,0,3.25-5.56A4.56,4.56,0,0,0,540.72,459.45Z"/><path class="cls-3" d="M554.11,449.31a4.55,4.55,0,1,0-5.56-3.25A4.55,4.55,0,0,0,554.11,449.31Z"/><path class="cls-3" d="M533.4,454.74a4.55,4.55,0,1,0-5.56-3.25A4.56,4.56,0,0,0,533.4,454.74Z"/><path class="cls-3" d="M503.32,476.6c5.19,4.71,11.37,6.36,13.79,3.69s.17-8.65-5-13.36c-3.59-3.26-8.81-3.78-11.69-3.79a2,2,0,0,0-2,2.19C498.7,468.19,499.72,473.34,503.32,476.6Z"/><path class="cls-2" d="M515.31,453.76a1.05,1.05,0,0,1-1-.89A220.71,220.71,0,0,0,509,428.53a1,1,0,0,1,.72-1.3A1.06,1.06,0,0,1,511,428a220.52,220.52,0,0,1,5.36,24.58,1.05,1.05,0,0,1-.87,1.21Z"/><path class="cls-2" d="M519.3,503.08h0a1.06,1.06,0,0,1-1-1.07,320.78,320.78,0,0,0-2.83-41.43,1.05,1.05,0,0,1,2.09-.28A321.42,321.42,0,0,1,520.35,502,1.06,1.06,0,0,1,519.3,503.08Z"/><path class="cls-7" d="M507.34,424.52a4.34,4.34,0,1,0-5.74-2.15A4.33,4.33,0,0,0,507.34,424.52Z"/><path class="cls-6" d="M493.82,430.52a15.13,15.13,0,1,0,16.4-21.16l0,9a5.35,5.35,0,0,1-3.14,4.9h0a5.36,5.36,0,0,1-5.75-.86l-6.74-5.95A15.08,15.08,0,0,0,493.82,430.52Z"/><path class="cls-7" d="M511.87,412.12a3.2,3.2,0,1,0-4.23-1.59A3.21,3.21,0,0,0,511.87,412.12Z"/><circle class="cls-7" cx="494.25" cy="416.61" r="3.2" transform="translate(-146.88 499.08) rotate(-47.46)"/><path class="cls-6" d="M853.55,223.13l-1.87,5.62-5.6-1.85a15,15,0,1,0-9.41,28.39l5.92,2,27.77,9.21.3.1.08-.26c0-.06,9.36-28.12,9.36-28.12s1.84-5.64,1.84-5.64a15,15,0,1,0-28.39-9.41Z"/><path class="cls-2" d="M818.9,267.87l-.21,0a1.2,1.2,0,0,1-.74-.48l-.13-.2-15.4-22.45a12.62,12.62,0,0,1,20.82-14.27l1.91,2.78,2.8-1.92h0a12.62,12.62,0,0,1,14.27,20.81c-1.28.88-3.36,2.31-3.65,2.53l-.09.06C824,264.63,820.63,267,819.71,267.52v0l-.17.12A1.16,1.16,0,0,1,818.9,267.87Zm-6.11-40.6a10.19,10.19,0,0,0-5.8,1.8,10.35,10.35,0,0,0-2.68,14.35l14.89,21.71c2.92-2,13.57-9.28,18-12.31v0c.5-.41,1.53-1.11,3.72-2.62a10.32,10.32,0,0,0-11.67-17l-3.75,2.57a1.14,1.14,0,0,1-1.6-.3l-2.56-3.73a10.21,10.21,0,0,0-6.62-4.29A10.5,10.5,0,0,0,812.79,227.27Z"/><path class="cls-2" d="M1014.9,504.26H937.18a1.06,1.06,0,1,1,0-2.11h77.72a1.06,1.06,0,1,1,0,2.11Z"/><path class="cls-2" d="M948.1,504.26H608.22a1.06,1.06,0,1,1,0-2.11H948.1a1.06,1.06,0,1,1,0,2.11Z"/><path class="cls-2" d="M766,504.31H598.07a1.06,1.06,0,1,1,0-2.11H766a1.06,1.06,0,0,1,0,2.11Z"/><path class="cls-2" d="M567.11,504.31H416.94a1.06,1.06,0,0,1,0-2.11H567.11a1.06,1.06,0,0,1,0,2.11Z"/><path class="cls-2" d="M434.22,504.26H153.31a1.06,1.06,0,1,1,0-2.11H434.22a1.06,1.06,0,0,1,0,2.11Z"/><path class="cls-2" d="M122.36,504.26H75.71a1.06,1.06,0,1,1,0-2.11h46.65a1.06,1.06,0,1,1,0,2.11Z"/><path class="cls-7" d="M338.53,210.05a9.23,9.23,0,0,1,.48,1.82,22,22,0,0,0-9,1.4,21.78,21.78,0,0,0-7.66,4.89,9.41,9.41,0,0,1-.84-1.68,9.09,9.09,0,0,1,17-6.43Z"/><path class="cls-3" d="M337.81,258.19a24.28,24.28,0,1,1,22.72-32.86h0a24.29,24.29,0,0,1-22.72,32.86Zm0-44.14a19.9,19.9,0,1,0,1.1,0C338.52,214.06,338.16,214.05,337.79,214.05Z"/><path class="cls-3" d="M369,270a24.28,24.28,0,0,1-17-41.6,24.31,24.31,0,0,1,18.32-6.91,24.28,24.28,0,0,1,21.39,15.66h0A24.28,24.28,0,0,1,369,270ZM369,225.85a20,20,0,0,0-13.89,5.69,19.86,19.86,0,1,0,15-5.66C369.72,225.86,369.35,225.85,369,225.85Z"/></g></g></svg>