<svg xmlns="http://www.w3.org/2000/svg" viewBox="0 0 997.32 462.72"><defs><style>.cls-1{fill:none;stroke:#cf8282;stroke-linecap:round;stroke-linejoin:round;stroke-width:3px;}.cls-2{fill:#b7b7b7;}.cls-3{fill:#e2c5c5;}.cls-4{fill:#232323;}.cls-5{fill:#cf8282;}.cls-6{fill:#fff;}.cls-7{fill:#d6d6d6;}</style></defs><title>الخدمات (ابداع بصري)</title><g id="Layer_2" data-name="Layer 2"><g id="Layer_2-2" data-name="Layer 2"><line class="cls-1" x1="981.74" y1="427.99" x2="981.73" y2="427.99"/><path class="cls-2" d="M834.76,70.67H954.68c-.8-10.05-7.37-27.18-8.6-29.15-.49-.8-.93-1.54-1.29-2.11-5.6-8.89-21-14.81-28-4.16-4.87,7.45-.82,22-11,25.67C894.18,65.17,891.25,49.87,890.22,42c-1.27-9.64-1.06-19.51-3.9-28.89-1.21-2.81-3.21-6-6.42-6.42-3.21,0-6,2.4-7.23,5.22-3.56,8.64-4.54,18-5.84,27.14-1.06,7.44-2.5,23.87-12.4,24.79-5.26.48-10-8.9-14.88-4.74C836.46,61.77,836.62,67.28,834.76,70.67Z"/><polygon class="cls-3" points="204.91 99.15 207.51 104.06 212.26 106.75 207.51 109.44 204.91 114.35 202.3 109.44 197.55 106.75 202.3 104.06 204.91 99.15"/><polygon class="cls-3" points="779.54 421.71 782.14 426.62 786.9 429.31 782.14 432 779.54 436.91 776.94 432 772.18 429.31 776.94 426.62 779.54 421.71"/><polygon class="cls-3" points="455.7 0 458.3 4.91 463.06 7.6 458.3 10.29 455.7 15.2 453.1 10.29 448.34 7.6 453.1 4.91 455.7 0"/><path class="cls-4" d="M803.27,57.39a1.15,1.15,0,0,1-1.12-.83,1.18,1.18,0,0,1,.78-1.46A41.4,41.4,0,0,0,814.17,50,17,17,0,0,1,809,46.19c-1.67-1.82-2.34-3.61-2-5.3a5.58,5.58,0,0,1,3.22-3.69,8,8,0,0,1,7-.06,6.58,6.58,0,0,1,3.59,4.79,8.34,8.34,0,0,1-2.15,7.15,13,13,0,0,0,4.62.06,11,11,0,0,0,8.43-6.8,1.16,1.16,0,0,1,1.53-.61,1.17,1.17,0,0,1,.62,1.53,13.27,13.27,0,0,1-10.19,8.18,15.56,15.56,0,0,1-7-.43c-4,3.28-9.81,5.35-13.13,6.34A1.24,1.24,0,0,1,803.27,57.39Zm10.56-18.7a5.69,5.69,0,0,0-2.55.6,3.59,3.59,0,0,0-2,2.08c-.24,1.14.64,2.39,1.42,3.24a14.72,14.72,0,0,0,5.47,3.75c1.74-1.71,2.78-3.72,2.36-6a4.19,4.19,0,0,0-2.34-3.11A5.26,5.26,0,0,0,813.83,38.69Z"/><path class="cls-2" d="M133.24,160.92c-1.9.9-3.21,2.55-5.08,3.5-9.72,4.92-9.16-12.84-9.12-18,.08-10.81-.38-24.69-13.82-27.1-8.57-1.54-16.78,4.2-18.87,12.66-2.62,10.59,1.59,40.58-18.14,36.48-5.25-1.09-9.16-5.41-12.36-9.72-4.06-5.45-8-11.53-15.19-12.83-10.87-2-21.84,4.32-29.28,11.75A51.15,51.15,0,0,0,.05,175.51a.5.5,0,0,1,0,.13l21,0,27.83-.05c7.91,0,98.11-.13,98.11-.07C146.39,168.82,142.68,156.48,133.24,160.92Z"/><path class="cls-2" d="M205,54.21s-77.32,0-77.4,0H109.1a16.77,16.77,0,0,1-.21-3.61h0l0-.29c0-.1,0-.16,0-.19A32.51,32.51,0,0,1,110,45.35a25.87,25.87,0,0,1,2.82-6.28,16.77,16.77,0,0,1,5.76-5.72,22.79,22.79,0,0,1,7.58-2.78,17.25,17.25,0,0,1,12.78,2.51c2.3,1.58,4.44,4,7.35,4.38,4.44.58,5.62-4.31,6-7.7,1-9.13,1.74-23.35,12.88-26a6.4,6.4,0,0,1,5,.8C173,6.33,174.7,10,175.7,13.05c1.62,4.89,2.5,10.19,4.52,14.92,1.49,3.51,4.45,5.63,8.35,5.11a9.33,9.33,0,0,1,3.77.28,14.11,14.11,0,0,1,7,5.06A17.8,17.8,0,0,1,201.09,41C203.23,44.93,204.15,49.84,205,54.21Z"/><path class="cls-4" d="M230,319.45c-4.91,0-9.67-2.18-11.37-6.88a11.9,11.9,0,0,1-.64-3,14.58,14.58,0,0,1-5.8-4.22,13.25,13.25,0,0,1-3.26-7.06,1,1,0,1,1,1.94-.18,11.33,11.33,0,0,0,2.8,6,13.55,13.55,0,0,0,4.28,3.36,17.4,17.4,0,0,1,.29-2.21,6.55,6.55,0,0,1,2.55-4.5,4.43,4.43,0,0,1,6.79,4.57,5.48,5.48,0,0,1-1.74,2.91,6.93,6.93,0,0,1-5.27,1.92,5.29,5.29,0,0,1-.56-.05,10.42,10.42,0,0,0,.45,1.79c2.08,5.77,9.43,6.35,14,4.91l.46-.15a12.16,12.16,0,0,0,3.41-1.87,1,1,0,1,1,1.22,1.52,13.89,13.89,0,0,1-4,2.18l-.53.18A16.77,16.77,0,0,1,230,319.45Zm-10.12-11.32a5.3,5.3,0,0,0,.8.1,5.08,5.08,0,0,0,3.85-1.41,3.71,3.71,0,0,0,1.15-1.86,2.49,2.49,0,0,0-3.82-2.57,4.78,4.78,0,0,0-1.71,3.26A13.43,13.43,0,0,0,219.88,308.13Z"/><polygon class="cls-5" points="438.2 401.46 335.68 401.58 335.32 89.77 777.5 89.25 777.86 401.06 593.21 401.28 438.2 401.46"/><path class="cls-4" d="M749.11,371.46H564.45a1.36,1.36,0,0,1,0-2.72H747.74V110.86a1.37,1.37,0,1,1,2.73,0V370.1A1.36,1.36,0,0,1,749.11,371.46Z"/><path class="cls-4" d="M306.92,241.84a1.36,1.36,0,0,1-1.36-1.36V136.15a1.37,1.37,0,1,1,2.73,0V240.48A1.37,1.37,0,0,1,306.92,241.84Z"/><path class="cls-4" d="M520.87,371.46H370.13a1.36,1.36,0,1,1,0-2.72H520.87a1.36,1.36,0,1,1,0,2.72Z"/><circle class="cls-6" cx="538.37" cy="210.88" r="69.35" transform="translate(8.57 442.45) rotate(-45)"/><polygon class="cls-4" points="562.65 212.45 541.76 224.52 520.87 236.58 520.87 212.45 520.87 188.33 541.76 200.39 562.65 212.45"/><path class="cls-4" d="M705.87,316H412.44a1.36,1.36,0,0,1,0-2.72H705.87a1.36,1.36,0,0,1,0,2.72Z"/><circle class="cls-3" cx="465.03" cy="314.66" r="14.1" transform="translate(-86.29 420.99) rotate(-45)"/><polygon class="cls-6" points="695.34 193.74 671.65 166.59 647.96 193.74 647.96 110.86 695.34 110.86 695.34 193.74"/><path class="cls-4" d="M719,112.22H267.84a1.36,1.36,0,0,1-1.36-1.36V44.24a1.36,1.36,0,0,1,1.36-1.37H573a1.37,1.37,0,0,1,0,2.73H269.2v63.89H717.66V45.6H679.31a1.37,1.37,0,1,1,0-2.73H719a1.36,1.36,0,0,1,1.36,1.37v66.62A1.36,1.36,0,0,1,719,112.22Z"/><path class="cls-4" d="M310.84,91.49a13.95,13.95,0,1,1,14-13.94A14,14,0,0,1,310.84,91.49Zm0-25.16a11.22,11.22,0,1,0,11.22,11.22A11.23,11.23,0,0,0,310.84,66.33Z"/><path class="cls-4" d="M351.57,91.49a13.95,13.95,0,1,1,13.95-13.94A14,14,0,0,1,351.57,91.49Zm0-25.16a11.22,11.22,0,1,0,11.22,11.22A11.23,11.23,0,0,0,351.57,66.33Z"/><path class="cls-4" d="M392.31,91.49a13.95,13.95,0,1,1,13.95-13.94A14,14,0,0,1,392.31,91.49Zm0-25.16a11.22,11.22,0,1,0,11.22,11.22A11.23,11.23,0,0,0,392.31,66.33Z"/><path class="cls-3" d="M671.24,323.62c3,4.94,4.17,10.66,5.9,16.38a51.29,51.29,0,0,0,3.18,7.17l1.31,2.64,13.79,27.41,27.09,36.57-51.34,35.56L645.34,419.6l-11.58-11.5c-22.9-1.48-48.1-37.44-52-45.22l12.67-41.62,36.77-30.85c.19-.17,10.45,9.9,11.08,10.52,6.13,6,13.48,10.27,20.81,14.65A25.59,25.59,0,0,1,666,317.5a21,21,0,0,1,2.55,2.37A24.27,24.27,0,0,1,671.24,323.62Z"/><path class="cls-5" d="M650.33,432.66l14.47,28.21H765.2c-14-18-35.79-41.34-40-46.29l-6.82-8.05-4.88-5.75-7.64-9-40.64,29.93-.87.64-5.44,4-4.26,3.14-1.59,1.17Z"/><path class="cls-3" d="M644.62,331.37a11.6,11.6,0,0,1-9-4.25l-64.3-78.5a11.61,11.61,0,1,1,18-14.72l64.31,78.51a11.6,11.6,0,0,1-9,19Z"/><path class="cls-3" d="M620.78,337.87a11.61,11.61,0,0,1-7.33-2.61L576.06,304.8a11.61,11.61,0,1,1,14.67-18l37.39,30.45a11.61,11.61,0,0,1-7.34,20.62Z"/><path class="cls-3" d="M608.44,358.2a11.53,11.53,0,0,1-7.38-2.66l-36.2-29.88a11.61,11.61,0,0,1,14.78-17.91l36.2,29.89a11.61,11.61,0,0,1-7.4,20.56Z"/><path class="cls-3" d="M608,385.82a11.53,11.53,0,0,1-7.22-2.52l-38.19-30.4A11.61,11.61,0,0,1,577,334.73l38.19,30.4A11.61,11.61,0,0,1,608,385.82Z"/><path class="cls-3" d="M675.16,371.25A12.82,12.82,0,0,1,662.36,359l-1.84-41.42L647.8,288.27a12.82,12.82,0,0,1,23.52-10.22L685,309.53a13,13,0,0,1,1,4.54L688,357.86a12.81,12.81,0,0,1-12.24,13.38Z"/><rect class="cls-7" x="628.77" y="384.38" width="93.09" height="44.6" rx="8.33" transform="translate(-110.2 473.08) rotate(-35.89)"/><path class="cls-4" d="M906.4,462.72H883.05a1,1,0,1,1,0-2H906.4a1,1,0,0,1,0,2Z"/><path class="cls-4" d="M865.44,462.72H676.34a1,1,0,0,1,0-2h189.1a1,1,0,0,1,0,2Z"/><rect class="cls-7" x="844.31" y="234.02" width="153.01" height="46.83"/><rect class="cls-7" x="844.31" y="311.03" width="153.01" height="46.83"/><path class="cls-4" d="M973.23,247.39H868.39a1,1,0,0,1,0-1.95H973.23a1,1,0,1,1,0,1.95Z"/><path class="cls-4" d="M973.23,258.4H868.39a1,1,0,0,1,0-1.95H973.23a1,1,0,1,1,0,1.95Z"/><path class="cls-4" d="M973.23,269.42H900.92a1,1,0,1,1,0-1.95h72.31a1,1,0,1,1,0,1.95Z"/><path class="cls-4" d="M886.37,269.42h-18a1,1,0,0,1,0-1.95h18a1,1,0,1,1,0,1.95Z"/><path class="cls-4" d="M973.23,324.4H868.39a1,1,0,0,1,0-1.94H973.23a1,1,0,1,1,0,1.94Z"/><path class="cls-4" d="M973.23,335.42H868.39a1,1,0,0,1,0-1.95H973.23a1,1,0,1,1,0,1.95Z"/><path class="cls-4" d="M973.23,346.43H900.92a1,1,0,1,1,0-1.95h72.31a1,1,0,1,1,0,1.95Z"/><path class="cls-4" d="M886.37,346.43h-18a1,1,0,0,1,0-1.95h18a1,1,0,1,1,0,1.95Z"/><path class="cls-4" d="M254.83,218.54a1.34,1.34,0,0,1-.83-.28l-32.92-25.53a1.36,1.36,0,0,1-.53-1.06,1.38,1.38,0,0,1,.5-1.07L254,163.46a1.37,1.37,0,0,1,1.74,2.11l-31.6,26.05,31.57,24.48a1.36,1.36,0,0,1-.84,2.44Z"/><circle class="cls-5" cx="254.83" cy="164.52" r="8.89" transform="translate(48.8 387.13) rotate(-80.06)"/><circle class="cls-5" cx="254.83" cy="217.18" r="8.89" transform="translate(-3.07 430.7) rotate(-80.06)"/><circle class="cls-5" cx="221.92" cy="191.65" r="8.89"/><path class="cls-4" d="M605,78.91a1.49,1.49,0,0,1-.36,0,1.36,1.36,0,0,1-1-1.67l16.64-61.35a1.36,1.36,0,1,1,2.63.72L606.3,77.9A1.35,1.35,0,0,1,605,78.91Z"/><path class="cls-4" d="M630.85,78.91a1.49,1.49,0,0,1-.36,0,1.37,1.37,0,0,1-1-1.67l16.64-61.35a1.36,1.36,0,1,1,2.63.72L632.17,77.9A1.37,1.37,0,0,1,630.85,78.91Z"/><path class="cls-4" d="M663,33.34h-60.4a1.37,1.37,0,1,1,0-2.73H663a1.37,1.37,0,1,1,0,2.73Z"/><path class="cls-4" d="M653,58.55h-60.4a1.37,1.37,0,0,1,0-2.73H653a1.37,1.37,0,1,1,0,2.73Z"/><path class="cls-3" d="M674,461.28h0l-19.16,0a13.45,13.45,0,0,1,0-26.89H674a13.45,13.45,0,0,1,0,26.9Z"/><path class="cls-6" d="M654.81,461.26H641.56a13.45,13.45,0,0,1,0-26.89h13.26a13.45,13.45,0,1,1,0,26.89Z"/><path class="cls-5" d="M641.56,461.25h0l-225.17-.15a13.45,13.45,0,0,1,0-26.9h0l225.16.16a13.45,13.45,0,1,1,0,26.89Z"/><path class="cls-4" d="M411.48,453.3h-8.71a5.65,5.65,0,1,1,0-11.3h8.71a5.66,5.66,0,1,1,0,11.31Z"/><path class="cls-4" d="M657.12,462.72H146.76a1,1,0,1,1,0-2H657.12a1,1,0,0,1,0,2Z"/><path class="cls-5" d="M818.75,448.28c4.29,4.34,9.58,6.08,11.81,3.88s.57-7.51-3.72-11.86c-3-3-7.48-3.71-10-3.86a1.73,1.73,0,0,0-1.83,1.81C815.14,440.75,815.79,445.27,818.75,448.28Z"/><path class="cls-4" d="M836.06,462.2a1,1,0,0,1-1-.91c0-.46-3-46.11,8.53-78.94a1,1,0,0,1,1.84.64C834.05,415.45,837,460.7,837,461.16a1,1,0,0,1-.9,1Z"/><path class="cls-4" d="M831.74,462.2h0a1,1,0,0,1-1-1c.25-21-5.61-33.59-10-41.25a1,1,0,0,1,1.69-1c4.54,7.85,10.56,20.78,10.29,42.24A1,1,0,0,1,831.74,462.2Z"/><path class="cls-5" d="M844.42,395.88c-.84,3.6-3,6.16-4.87,5.73s-2.66-3.69-1.82-7.29a9.36,9.36,0,0,1,3.93-5.14,1,1,0,0,1,1.51.35A9.44,9.44,0,0,1,844.42,395.88Z"/><path class="cls-5" d="M857.51,385.6a2.5,2.5,0,0,0-1.72-3.82h0a4.76,4.76,0,0,0-5,2.26l-6.13,11.38a3.75,3.75,0,0,1-4.14,1.87h0a3.75,3.75,0,0,1-2.89-3.51l-.46-12.92a4.75,4.75,0,0,0-3.48-4.23h0a3.32,3.32,0,0,0-3.21,3.44s.58,17.06.61,17.4l0,.16a7,7,0,0,0,5.33,5.86l5,1.16a6.94,6.94,0,0,0,7.36-2.9h0Z"/><path class="cls-5" d="M816.3,408.68h0l4-7.72a3,3,0,0,0-2.21-4.29h0a3,3,0,0,0-3.34,3.48Z"/><path class="cls-5" d="M812.9,411.21h0l-8.53,1.6a3,3,0,0,1-3.48-3.34h0a3,3,0,0,1,4.29-2.22Z"/><path class="cls-5" d="M815.33,414.47h0l-4,7.72a3,3,0,0,0,2.21,4.29h0a3,3,0,0,0,3.34-3.48Z"/><path class="cls-5" d="M818.73,411.93h0l8.52-1.59a3,3,0,0,1,3.49,3.34h0a3,3,0,0,1-4.29,2.21Z"/><path class="cls-5" d="M814.11,409.18h0l-2.66-8.25a3,3,0,0,0-4.59-1.47h0a3,3,0,0,0,.09,4.82Z"/><path class="cls-5" d="M813.5,413.38h0l-4.9,7.16a3,3,0,0,1-4.83.09h0a3,3,0,0,1,1.47-4.59Z"/><path class="cls-5" d="M817.52,414h0l2.65,8.25a3,3,0,0,0,4.6,1.47h0a3,3,0,0,0-.1-4.82Z"/><path class="cls-5" d="M818.13,409.77h0l4.9-7.16a3,3,0,0,1,4.83-.1h0a3,3,0,0,1-1.47,4.6Z"/><path class="cls-5" d="M252.36,411.76c8.86,5,14,12.68,11.42,17.23s-11.8,4.22-20.66-.75c-6.13-3.43-9.25-10.36-10.59-14.31a2.87,2.87,0,0,1,2.1-3.73C238.69,409.28,246.23,408.32,252.36,411.76Z"/><path class="cls-5" d="M296.41,414.52c-5,5.07-11.17,7.1-13.78,4.53s-.66-8.77,4.34-13.84c3.46-3.51,8.73-4.33,11.64-4.5a2,2,0,0,1,2.14,2.11C300.62,405.74,299.87,411,296.41,414.52Z"/><path class="cls-4" d="M267.37,462.51a1.39,1.39,0,0,1-1.39-1.39,225.54,225.54,0,0,0-9.18-61.91,1.39,1.39,0,0,1,2.67-.76,228.25,228.25,0,0,1,9.28,62.67A1.38,1.38,0,0,1,267.37,462.51Z"/><path class="cls-4" d="M255.83,392.6a1.38,1.38,0,0,1-1.32-1c-7.43-23.29-15.87-38.55-16-38.7a1.4,1.4,0,0,1,.54-1.89,1.38,1.38,0,0,1,1.88.54c.09.15,8.66,15.63,16.18,39.21a1.38,1.38,0,0,1-.9,1.74A1.52,1.52,0,0,1,255.83,392.6Z"/><circle class="cls-3" cx="243.75" cy="363.62" r="17.19" transform="translate(-138.82 576.39) rotate(-85.24)"/><path class="cls-4" d="M279.26,462.51a1.39,1.39,0,0,1-1.38-1.36c0-.54-.91-53.82,12.56-92.16a1.39,1.39,0,0,1,2.62.92c-13.31,37.87-12.42,90.66-12.41,91.18a1.4,1.4,0,0,1-1.36,1.42Z"/><polygon class="cls-5" points="306.44 373.1 294.29 360.95 277.69 365.39 273.24 382 285.39 394.15 301.99 389.7 306.44 373.1"/><path class="cls-6" d="M243.76,366.32c-9.16,0-19-2.11-19-6.76a1.39,1.39,0,1,1,2.77,0c0,1.19,5.52,4,16.24,4s16.23-2.8,16.23-4a1.39,1.39,0,1,1,2.77,0C262.76,364.21,252.91,366.32,243.76,366.32Z"/><path class="cls-6" d="M243.76,366.32c-9.16,0-19-2.11-19-6.76a1.39,1.39,0,1,1,2.77,0c0,1.19,5.52,4,16.24,4s16.23-2.8,16.23-4a1.39,1.39,0,1,1,2.77,0C262.76,364.21,252.91,366.32,243.76,366.32Z"/><path class="cls-6" d="M258,370.9a16.61,16.61,0,0,1-3.64-.47,51.27,51.27,0,0,1-22.28-12.86c-3.63-3.88-3.5-6.22-2.76-7.51a1.38,1.38,0,0,1,2.4,1.38c-.23.41.21,1.91,2.38,4.24A48.7,48.7,0,0,0,255,367.73c3.1.72,4.63.34,4.86-.06a1.38,1.38,0,1,1,2.4,1.38C261.68,370,260.51,370.9,258,370.9Z"/><path class="cls-6" d="M258,370.9a16.61,16.61,0,0,1-3.64-.47,51.27,51.27,0,0,1-22.28-12.86c-3.63-3.88-3.5-6.22-2.76-7.51a1.38,1.38,0,0,1,2.4,1.38c-.23.41.21,1.91,2.38,4.24A48.7,48.7,0,0,0,255,367.73c3.1.72,4.63.34,4.86-.06a1.38,1.38,0,1,1,2.4,1.38C261.68,370,260.51,370.9,258,370.9Z"/><path class="cls-6" d="M273.24,383.38a1.38,1.38,0,0,1-.36-2.72l33.2-8.9a1.39,1.39,0,0,1,.72,2.68l-33.2,8.89A1.16,1.16,0,0,1,273.24,383.38Z"/><path class="cls-6" d="M289.84,378.93a1.37,1.37,0,0,1-1-.4l-12.15-12.16a1.38,1.38,0,1,1,2-1.95l12.16,12.15a1.38,1.38,0,0,1-1,2.36Z"/><polygon class="cls-6" points="402.76 147.37 405.95 153.41 411.8 156.71 405.95 160.01 402.76 166.04 399.56 160.01 393.72 156.71 399.56 153.41 402.76 147.37"/><polygon class="cls-6" points="417.6 159.9 422.39 168.96 431.16 173.91 422.39 178.86 417.6 187.92 412.8 178.86 404.03 173.91 412.8 168.96 417.6 159.9"/><polygon class="cls-6" points="675.09 224.33 669.05 227.53 665.75 233.38 662.45 227.53 656.41 224.33 662.45 221.14 665.75 215.29 669.05 221.14 675.09 224.33"/><polygon class="cls-6" points="662.56 239.17 653.5 243.97 648.55 252.74 643.6 243.97 634.54 239.17 643.6 234.37 648.55 225.6 653.5 234.37 662.56 239.17"/></g></g></svg>