<svg xmlns="http://www.w3.org/2000/svg" viewBox="0 0 871.85 559.63"><defs><style>.cls-1{fill:#dce5f7;}.cls-2{fill:#e2a6a6;}.cls-3{fill:#cf8282;}.cls-4{fill:#fff;}.cls-5{fill:#212121;}</style></defs><title>Asset 2</title><g id="Layer_2" data-name="Layer 2"><g id="Layer_2-2" data-name="Layer 2"><path class="cls-1" d="M222,69.68c-3.18,1.5-5.36,4.26-8.48,5.84-16.19,8.2-15.26-21.4-15.2-29.95.15-18-.63-41.14-23-45.16-14.28-2.55-28,7-31.44,21.1-4.36,17.64,2.64,67.61-30.23,60.79-8.75-1.82-15.27-9-20.6-16.19C86.3,57,79.7,46.89,67.75,44.73,49.65,41.46,31.36,51.92,19,64.3A85.37,85.37,0,0,0,.08,94a1.31,1.31,0,0,1-.08.21l35,0,46.38-.07c13.19,0,163.47-.22,163.47-.12C243.91,82.85,237.74,62.28,222,69.68Z"/><path class="cls-2" d="M629.81,323.9c0,9.81-3.24,19.24-5.72,29.15a88.48,88.48,0,0,0-1.64,13.27c-.13,1.66-.25,3.33-.38,5-1.86,25.13-3.86,52.21-3.86,52.21l7.59,77.27-106.33,7-11.72-66.19-6.86-27c-32.22-22.24-37.59-97-36.43-111.76l55-49.8,80.86-12.93c.43-.07,6.62,23.65,7,25.11C611,279.52,618.09,292.18,625,305a44,44,0,0,1,2.46,5.3,33.16,33.16,0,0,1,1.65,5.7A40.34,40.34,0,0,1,629.81,323.9Z"/><polygon class="cls-3" points="662.46 558.48 487.56 558.48 496.39 518.57 496.74 514.59 497.04 511.09 497.43 506.69 500.75 469.1 507.44 468.48 507.44 468.47 507.87 468.43 511.3 468.12 512.42 468.01 518.09 467.48 521.69 467.14 533.7 466.02 534.9 465.9 537.03 465.71 537.04 465.71 537.7 465.65 621.58 457.78 635.91 456.44 639.44 476.31 639.44 476.31 640.88 484.41 641.7 488.99 643.8 500.85 644.85 506.75 662.46 558.48"/><rect class="cls-4" x="487.2" y="434.76" width="158.82" height="76.1" rx="14.21" transform="translate(-38.82 50.85) rotate(-4.97)"/><path class="cls-5" d="M566,500.06a1.15,1.15,0,0,1-.21-2.29l71.09-13.2a13.06,13.06,0,0,0,10.45-15.21l-8.71-46.89A13.06,13.06,0,0,0,623.37,412l-19.19,3.57a1.16,1.16,0,1,1-.42-2.28L623,409.75a15.36,15.36,0,0,1,17.9,12.3l8.71,46.89a15.35,15.35,0,0,1-12.3,17.9L566.17,500A.75.75,0,0,1,566,500.06Z"/><path class="cls-5" d="M506.23,510.91a15.39,15.39,0,0,1-15.1-12.56l-8.7-46.89a15.37,15.37,0,0,1,12.3-17.9L583,417.16a1.15,1.15,0,1,1,.42,2.27l-88.31,16.4A13.06,13.06,0,0,0,484.7,451l8.71,46.89a13.06,13.06,0,0,0,15.21,10.45l37.76-7a1.15,1.15,0,0,1,.42,2.27l-37.76,7A14.92,14.92,0,0,1,506.23,510.91Z"/><path class="cls-2" d="M594.2,314.72a19.81,19.81,0,0,1-19.57-16.92L552.26,146.32a19.81,19.81,0,1,1,39.19-5.78L613.82,292a19.81,19.81,0,0,1-16.7,22.49A19.33,19.33,0,0,1,594.2,314.72Z"/><path class="cls-2" d="M553.64,303.33a19.82,19.82,0,0,1-19.23-15.12L496.86,134.42A19.81,19.81,0,1,1,535.35,125L572.9,278.81a19.82,19.82,0,0,1-14.55,23.95A20.15,20.15,0,0,1,553.64,303.33Z"/><path class="cls-2" d="M517.76,322.28a19.82,19.82,0,0,1-18.8-13.6l-43.73-132.3A19.81,19.81,0,0,1,492.85,164l43.73,132.3a19.84,19.84,0,0,1-18.82,26Z"/><path class="cls-2" d="M492.9,362.31A19.82,19.82,0,0,1,475,351L415.43,226.2a19.81,19.81,0,0,1,35.76-17.07L510.77,334a19.83,19.83,0,0,1-17.87,28.35Z"/><circle class="cls-5" cx="528.76" cy="475.8" r="13.53" transform="matrix(0.99, -0.17, 0.17, 0.99, -73.54, 97.38)"/><path class="cls-3" d="M521.12,485.77a14.74,14.74,0,1,1,3.37-.39A14.9,14.9,0,0,1,521.12,485.77Zm0-27.07a11.91,11.91,0,0,0-2.84.33,12.3,12.3,0,0,0-7.7,5.52h0a12.38,12.38,0,0,0,21,13.06,12.37,12.37,0,0,0-10.49-18.91Zm-11.52,5.24Z"/><rect class="cls-3" x="237.84" y="116.83" width="386.86" height="230.58" transform="translate(-17.82 36.7) rotate(-4.77)"/><path class="cls-4" d="M266.15,247.19a64.77,64.77,0,0,0,17.26,39c1.41,1.51,2.9,2.95,4.45,4.32a64.84,64.84,0,0,0,42,16.36c1.31,0,2.63,0,4-.05.87,0,1.75-.09,2.63-.17a64,64,0,0,0,6.42-.86c1.58-.28,3.14-.63,4.68-1a66,66,0,0,0,10.1-3.55,64.81,64.81,0,0,0,6.26-3.23c1.08-.63,2.13-1.29,3.16-2a65.08,65.08,0,1,0-100.89-48.79Z"/><path class="cls-3" d="M325.92,284.17l6.71,19.35,1.14,3.28c.87,0,1.75-.09,2.63-.17a64.55,64.55,0,0,0,6.43-.85c1.58-.29,3.14-.64,4.67-1a64.55,64.55,0,0,0,10.1-3.55,63.9,63.9,0,0,0,6.27-3.23l-8.35-24Z"/><path class="cls-2" d="M287.84,290.49a65.06,65.06,0,0,0,22.26,12.94,64.33,64.33,0,0,0,19.72,3.42c1.31,0,2.63,0,3.95-.05.87,0,1.75-.09,2.63-.17a64.55,64.55,0,0,0,6.43-.85c1.58-.29,3.14-.64,4.67-1a64.55,64.55,0,0,0,10.1-3.55,63.9,63.9,0,0,0,6.27-3.23c1.07-.63,2.12-1.29,3.16-2a39.81,39.81,0,0,0-18.27-30.5c-.57-.35-1.13-.69-1.72-1s-1.05-.57-1.58-.84a40.2,40.2,0,0,0-19.82-4.27c-.58,0-1.16.06-1.74.1l-1.39.14a40.55,40.55,0,0,0-34.67,30.9Z"/><path class="cls-3" d="M345.67,265.17l-2.52-18.83-1.86-12.07-.88-5.74a9.63,9.63,0,0,0-11-8.06,9.78,9.78,0,0,0-1.22.26,9.64,9.64,0,0,0-6.85,10.72l3.11,20.26,1.21,7.9C326.49,264.87,346.48,270.44,345.67,265.17Z"/><polygon class="cls-4" points="322.27 252.56 349.21 264.82 346.03 269.44 322.79 268.02 322.27 252.56"/><path class="cls-3" d="M347.35,243.77h0A11.9,11.9,0,0,0,352,227.59L347.17,219a15.68,15.68,0,0,0-21.31-6.08h0a15.66,15.66,0,0,0-6.08,21.31l1.12,2A19.45,19.45,0,0,0,347.35,243.77Z"/><path class="cls-3" d="M346.35,221.41,356.5,228a1.66,1.66,0,0,1-.35,2.95l-6.43,2.3Z"/><path class="cls-5" d="M331.73,221.3a16.92,16.92,0,0,1,.32,4.36,5.39,5.39,0,0,1-3.26,4.06,24.63,24.63,0,0,1-7.29,1.42c-5.35.54-12.54-2.35-10.46-9.06a6.13,6.13,0,0,1,5.21-4.27,5.16,5.16,0,0,1-4.49-1,4,4,0,0,1-1.22-4.33,4.85,4.85,0,0,1,4.36-2.78,14.07,14.07,0,0,1,5.32,1.1,8.1,8.1,0,0,1,3.5-5.87,6.55,6.55,0,0,1,6.71-.28,3.12,3.12,0,0,1,1.48,1.64,1.63,1.63,0,0,1-.7,2A4.89,4.89,0,0,1,340,204.3a4,4,0,0,1,.66,1.69,8,8,0,0,0-.42,1.76c2.49.2,7.17-3.08,4.06-5.71,2.83-.65,6.28,1.13,7.72,3.48a6.41,6.41,0,0,1,.07,6.32c-2.26,4.43-7.45,5.66-11.86,6.8-2.53.66-7.49,2.29-7.49,2.29l-.94.35Z"/><path class="cls-5" d="M353.73,231.93a6.82,6.82,0,0,0-3.44-.87,8.63,8.63,0,0,0-5.38,1.86c-1.7,1.32-3.08,3-5.45,2.55a14.57,14.57,0,0,1-2.59-.86,31.5,31.5,0,0,1-5.83-3.14h0l-8.93,5.25c-.85.68,3.65,4.89,4.1,5.34a21.13,21.13,0,0,0,17.15,6.16,18.28,18.28,0,0,0,9.92-4.4C356.87,240.48,357.6,234.22,353.73,231.93Z"/><circle class="cls-3" cx="325.61" cy="231.91" r="7.39" transform="translate(-69.04 168.22) rotate(-26.29)"/><path class="cls-5" d="M283.39,286.17c1.42,1.51,2.9,3,4.45,4.32a65.06,65.06,0,0,0,22.26,12.94L320.66,292a15.67,15.67,0,0,0-23-21.25Z"/><path class="cls-5" d="M416.18,198.06a2,2,0,0,1-.16-4l163.52-13.65a2,2,0,1,1,.34,4L416.35,198.06Z"/><path class="cls-5" d="M418.57,226.65a2,2,0,0,1-.16-4L581.93,209a2,2,0,0,1,.33,4L418.74,226.64Z"/><path class="cls-5" d="M421,255.24a2,2,0,0,1-.16-4L584.32,237.6a2,2,0,0,1,.33,4L421.13,255.23Z"/><path class="cls-5" d="M423.35,283.82a2,2,0,0,1-.17-4l79.11-6.6a2,2,0,1,1,.33,4l-79.11,6.61Z"/><path class="cls-5" d="M263.26,379a1.15,1.15,0,0,1-1.14-1L223.23,150.75a1.15,1.15,0,0,1,.2-.86,1.22,1.22,0,0,1,.75-.48L511.4,100.28a1.14,1.14,0,0,1,1.33.94,1.16,1.16,0,0,1-.94,1.34L225.71,151.5l38.49,225,379-64.84-38.49-225-57.49,9.83a1.16,1.16,0,0,1-.39-2.28l58.63-10a1.15,1.15,0,0,1,1.33.94L645.71,312.4a1.14,1.14,0,0,1-.94,1.33L263.45,379Z"/><path class="cls-2" d="M605,400.18A21.89,21.89,0,0,1,585.8,367.9l33.62-62.25,7.07-54.06a21.88,21.88,0,0,1,43.39,5.68l-7.6,58.06a21.71,21.71,0,0,1-2.44,7.56l-35.54,65.8A21.88,21.88,0,0,1,605,400.18Z"/><path class="cls-3" d="M699.19,535c7.71,7.82,17.22,10.94,21.24,7s1-13.52-6.69-21.33c-5.34-5.41-13.46-6.68-18-6.94a3.1,3.1,0,0,0-3.29,3.24C692.7,521.44,693.85,529.57,699.19,535Z"/><path class="cls-5" d="M730.33,559.27a1,1,0,0,1-1-.93,484.24,484.24,0,0,1-.21-48.5c1.11-25.53,4.69-62.43,15.52-93.24a1,1,0,0,1,1.89.66C726,475.82,731.27,557.39,731.33,558.2a1,1,0,0,1-.93,1.07Z"/><path class="cls-5" d="M722.56,559.27h0a1,1,0,0,1-1-1c.47-38-10.14-60.75-18.15-74.6a1,1,0,0,1,1.74-1c8.13,14.06,18.89,37.19,18.42,75.63A1,1,0,0,1,722.56,559.27Z"/><path class="cls-3" d="M745.37,440.71c-1.51,6.47-5.43,11.08-8.76,10.31s-4.79-6.65-3.28-13.12c1-4.48,4.83-7.7,7.07-9.26a1.88,1.88,0,0,1,2.72.64C744.44,431.67,746.41,436.23,745.37,440.71Z"/><path class="cls-2" d="M768.93,422.21a4.51,4.51,0,0,0-3.1-6.87h0a8.59,8.59,0,0,0-9,4.05l-11,20.48a6.73,6.73,0,0,1-7.46,3.36h0a6.73,6.73,0,0,1-5.19-6.31l-.82-23.24a8.59,8.59,0,0,0-6.26-7.62h0a6,6,0,0,0-5.78,6.2s1,30.69,1.1,31.31l0,.28A12.54,12.54,0,0,0,731,454.39l9,2.09a12.53,12.53,0,0,0,13.26-5.21l0,0Z"/><path class="cls-3" d="M694.78,463.73h0l7.12-13.88a5.33,5.33,0,0,0-4-7.72h0a5.33,5.33,0,0,0-6,6.26Z"/><path class="cls-3" d="M688.66,468.29h0l-15.34,2.87a5.34,5.34,0,0,1-6.27-6h0a5.34,5.34,0,0,1,7.72-4Z"/><path class="cls-3" d="M693,474.15h0L685.9,488a5.34,5.34,0,0,0,4,7.72h0a5.35,5.35,0,0,0,6-6.27Z"/><path class="cls-3" d="M699.15,469.59h0l15.34-2.87a5.33,5.33,0,0,1,6.26,6h0a5.33,5.33,0,0,1-7.72,4Z"/><path class="cls-3" d="M690.83,464.64h0l-4.77-14.86a5.34,5.34,0,0,0-8.28-2.64h0a5.34,5.34,0,0,0,.18,8.68Z"/><path class="cls-3" d="M689.73,472.19h0l-8.81,12.88a5.33,5.33,0,0,1-8.68.17h0a5.33,5.33,0,0,1,2.64-8.27Z"/><path class="cls-3" d="M697,473.25h0l4.78,14.85a5.34,5.34,0,0,0,8.27,2.65h0a5.34,5.34,0,0,0-.18-8.69Z"/><path class="cls-3" d="M698.07,465.69h0l8.81-12.88a5.34,5.34,0,0,1,8.69-.17h0a5.33,5.33,0,0,1-2.65,8.27Z"/><path class="cls-3" d="M274.27,506.12c11.21,6.28,17.67,16,14.45,21.8s-14.93,5.34-26.14-.94c-7.76-4.35-11.7-13.12-13.39-18.11a3.64,3.64,0,0,1,2.65-4.72C257,503,266.52,501.77,274.27,506.12Z"/><path class="cls-3" d="M319.56,509.62c-6.32,6.41-14.13,9-17.42,5.72s-.84-11.09,5.49-17.5c4.38-4.44,11-5.47,14.73-5.69a2.54,2.54,0,0,1,2.7,2.66C324.89,498.5,323.94,505.18,319.56,509.62Z"/><path class="cls-5" d="M293,559.48a1,1,0,0,1-1-1,271.25,271.25,0,0,0-3.49-33.42c-.25-1.52-.46-2.75-.67-3.9A319.32,319.32,0,0,0,280.61,490a1,1,0,0,1,1.93-.55,320.27,320.27,0,0,1,7.31,31.35c.21,1.16.43,2.41.68,3.93A273.34,273.34,0,0,1,294,558.44a1,1,0,0,1-1,1Z"/><path class="cls-5" d="M278.66,481.15a1,1,0,0,1-1-.7c-9.42-29.54-20.14-48.9-20.24-49.09a1,1,0,1,1,1.75-1c.11.2,10.91,19.71,20.41,49.46a1,1,0,0,1-.65,1.26A1.18,1.18,0,0,1,278.66,481.15Z"/><circle class="cls-2" cx="263.38" cy="445.23" r="21.74" transform="translate(-205.63 663.46) rotate(-84.35)"/><path class="cls-3" d="M297.92,559.48h0a1,1,0,0,1-1-1c.19-10.54.85-27,3-45.52.23-2,.49-4.17.77-6.36,1.06-8.1,2.33-15.89,3.77-23.15s3.12-14.24,4.95-20.61l.27-.91c1-3.33,2-6.57,3.09-9.63a1,1,0,1,1,1.89.66c-1.06,3-2.09,6.24-3.05,9.54l-.27.9c-1.81,6.31-3.47,13.19-4.91,20.44s-2.7,15-3.75,23c-.28,2.18-.54,4.31-.77,6.33-2.11,18.45-2.77,34.83-2.95,45.32A1,1,0,0,1,297.92,559.48Z"/><polygon class="cls-3" points="332.26 457.23 316.88 441.85 295.88 447.48 290.26 468.48 305.63 483.85 326.63 478.22 332.26 457.23"/><path class="cls-4" d="M263.38,447.75c-11.21,0-23.13-2.69-23.13-7.66a.85.85,0,0,1,1.69,0c0,2.82,8.81,6,21.44,6s21.45-3.15,21.45-6a.85.85,0,0,1,1.69,0C286.52,445.06,274.6,447.75,263.38,447.75Z"/><path class="cls-4" d="M263.38,447.75c-11.21,0-23.13-2.69-23.13-7.66a.85.85,0,0,1,1.69,0c0,2.82,8.81,6,21.44,6s21.45-3.15,21.45-6a.85.85,0,0,1,1.69,0C286.52,445.06,274.6,447.75,263.38,447.75Z"/><path class="cls-4" d="M281.4,453.55c-4.9,0-12.57-2.94-19.31-6.83-9.72-5.6-18.7-13.88-16.22-18.18a.85.85,0,0,1,1.47.84c-1.41,2.44,4.65,9.56,15.59,15.88s20.15,8,21.56,5.55a.84.84,0,0,1,1.15-.31.83.83,0,0,1,.31,1.15C285.19,453,283.57,453.55,281.4,453.55Z"/><path class="cls-4" d="M281.4,453.55c-4.9,0-12.57-2.94-19.31-6.83-9.72-5.6-18.7-13.88-16.22-18.18a.85.85,0,0,1,1.47.84c-1.41,2.44,4.65,9.56,15.59,15.88s20.15,8,21.56,5.55a.84.84,0,0,1,1.15-.31.83.83,0,0,1,.31,1.15C285.19,453,283.57,453.55,281.4,453.55Z"/><path class="cls-4" d="M290.26,469.32a.83.83,0,0,1-.82-.62.85.85,0,0,1,.6-1l42-11.25a.84.84,0,0,1,.44,1.63l-42,11.26Z"/><path class="cls-4" d="M311.26,463.7a.87.87,0,0,1-.6-.25l-15.37-15.37a.85.85,0,0,1,0-1.2.84.84,0,0,1,1.19,0l15.38,15.37a.85.85,0,0,1,0,1.2A.89.89,0,0,1,311.26,463.7Z"/><polygon class="cls-3" points="453.91 21.49 457 27.32 462.65 30.52 457 33.71 453.91 39.54 450.82 33.71 445.17 30.52 450.82 27.32 453.91 21.49"/><polygon class="cls-3" points="535.52 396.87 538.61 402.7 544.26 405.89 538.61 409.08 535.52 414.92 532.43 409.08 526.78 405.89 532.43 402.7 535.52 396.87"/><polygon class="cls-3" points="831.5 223.09 834.59 228.93 840.24 232.12 834.59 235.31 831.5 241.15 828.41 235.31 822.76 232.12 828.41 228.93 831.5 223.09"/><polygon class="cls-3" points="157.64 100.44 160.73 106.28 166.38 109.47 160.73 112.66 157.64 118.5 154.55 112.66 148.9 109.47 154.55 106.28 157.64 100.44"/><path class="cls-3" d="M819.65,374.71a1.12,1.12,0,0,1-1-1.52l7.85-20.36-20.79,7.45a1.13,1.13,0,0,1-1.45-1.41l7.7-23.66a1.12,1.12,0,1,1,2.13.69l-7,21.5,21-7.5a1.12,1.12,0,0,1,1.42,1.46l-7.83,20.32,20.54-7.63a1.12,1.12,0,0,1,.78,2.1L820,374.64A1.07,1.07,0,0,1,819.65,374.71Z"/><path class="cls-5" d="M165.62,272.72c-5.92,0-11.67-2.64-13.72-8.33a14.16,14.16,0,0,1-.77-3.43,17.62,17.62,0,0,1-6.84-5,15.85,15.85,0,0,1-3.92-8.52,1.39,1.39,0,1,1,2.76-.25,13.21,13.21,0,0,0,3.27,7,16.19,16.19,0,0,0,4.7,3.78,21,21,0,0,1,.32-2.31c.53-2.66,1.55-4.45,3.13-5.5a5.5,5.5,0,0,1,8.43,5.67,6.68,6.68,0,0,1-2.14,3.58,8.45,8.45,0,0,1-6.44,2.35l-.37,0a11.36,11.36,0,0,0,.48,1.78c2.42,6.71,11,7.37,16.32,5.69l.54-.18a13.55,13.55,0,0,0,4-2.18A1.39,1.39,0,0,1,177.1,269a16.79,16.79,0,0,1-4.79,2.63c-.22.07-.43.15-.65.21A20.16,20.16,0,0,1,165.62,272.72Zm-11.79-13.87a6.2,6.2,0,0,0,.74.08,5.78,5.78,0,0,0,4.39-1.62,4.07,4.07,0,0,0,1.3-2.09,2.73,2.73,0,0,0-4.18-2.81c-.93.62-1.56,1.84-1.93,3.73A16.12,16.12,0,0,0,153.83,258.85Z"/><path class="cls-3" d="M238.17,175.52h0a12,12,0,0,1-11.95,11.95h0a12,12,0,0,1-12-11.95h0a12,12,0,0,1,12-12h0A12,12,0,0,1,238.17,175.52Z"/><path class="cls-3" d="M266,205.86h0a6.35,6.35,0,0,1-6.35,6.35h0a6.34,6.34,0,0,1-6.34-6.35h0a6.35,6.35,0,0,1,6.34-6.35h0A6.35,6.35,0,0,1,266,205.86Z"/><path class="cls-2" d="M248.89,198.42H227.14a1.16,1.16,0,0,1-1.16-1.16V175.52a1.16,1.16,0,0,1,1.16-1.16h21.75a1.15,1.15,0,0,1,1.15,1.16v21.74A1.15,1.15,0,0,1,248.89,198.42Zm-20.59-2.31h19.43V176.68H228.3Z"/><path class="cls-1" d="M666.39,165.93H808.84c-1-11.93-8.76-32.27-10.22-34.62-.59-.95-1.1-1.83-1.53-2.51-6.65-10.55-25-17.59-33.28-4.93-5.79,8.84-1,26.08-13,30.48-13.82,5.05-17.3-13.11-18.53-22.43-1.51-11.45-1.25-23.18-4.63-34.32-1.43-3.34-3.81-7.15-7.62-7.63-3.82,0-7.15,2.86-8.59,6.2-4.23,10.27-5.39,21.34-6.93,32.24-1.26,8.85-3,28.35-14.73,29.45-6.25.58-11.9-10.57-17.68-5.63C668.41,155.36,668.6,161.91,666.39,165.93Z"/><path class="cls-5" d="M766.82,48.21c-5.83,0-11.49-2.58-13.5-8.17a14.32,14.32,0,0,1-.77-3.52,17.28,17.28,0,0,1-6.88-5,15.62,15.62,0,0,1-3.87-8.38,1.15,1.15,0,1,1,2.3-.21A13.54,13.54,0,0,0,747.43,30a16,16,0,0,0,5.09,4,18.76,18.76,0,0,1,.34-2.63c.51-2.59,1.5-4.34,3-5.35A5.27,5.27,0,0,1,764,31.46a6.58,6.58,0,0,1-2.07,3.45,8.24,8.24,0,0,1-6.27,2.29l-.66-.07a11.15,11.15,0,0,0,.53,2.12c2.48,6.86,11.21,7.55,16.62,5.84l.54-.18a14,14,0,0,0,4.06-2.22,1.16,1.16,0,1,1,1.45,1.8,16.38,16.38,0,0,1-4.73,2.6l-.63.21A20.17,20.17,0,0,1,766.82,48.21Zm-12-13.44a7.87,7.87,0,0,0,1,.12,6,6,0,0,0,4.56-1.68A4.31,4.31,0,0,0,761.69,31,3,3,0,0,0,757.16,28c-1,.65-1.65,1.92-2,3.87A16.94,16.94,0,0,0,754.8,34.77Z"/><path class="cls-5" d="M870.69,559.63H562.57a1.16,1.16,0,1,1,0-2.31H870.69a1.16,1.16,0,1,1,0,2.31Z"/><path class="cls-5" d="M584.22,559.63H14.09a1.16,1.16,0,0,1,0-2.31H584.22a1.16,1.16,0,1,1,0,2.31Z"/><path class="cls-5" d="M667,297.39c-2.36-5.61-5-11.5-5-17.7a17.24,17.24,0,0,1,.54-4.69c.23-.87.7-3,1.59-3.52l-.12-.21a3.1,3.1,0,0,1,1.15,1.07,7.86,7.86,0,0,1,.82,1.64,34.77,34.77,0,0,1,1.38,4.49c.78,3,1.34,6.12,2.42,9.07.7,1.94,1.71,5.16,4.1,5.52,4.22.62,8.33-3.54,10.43-6.7a27.3,27.3,0,0,0,4.51-13.92c0-1.74-.49-3.61-2.51-3.73-1.75-.11-4.38.71-5.23,2.39-1.69,3.34.5,9.19,2.84,11.7,2.78,3,7,2.49,10.48,1,7.86-3.49,13-16,5.25-22.19-.6-.48-3.91.29-3.91,1.2,0,3.67-.51,7.32-.43,11s.38,7.61.57,11.42c0,.58,4.07-.05,4-1.08-.19-3.8-.48-7.61-.57-11.42s.43-7.32.43-11l-3.91,1.21c6.1,4.83,3.7,14.56-1.61,19.07-1.53,1.3-3,1.9-4.87.85a8.53,8.53,0,0,1-3.32-4,15.51,15.51,0,0,1-1.26-4.53,10.79,10.79,0,0,1-.09-2.54c.11-.47.22-.94.34-1.41-.77.07-1,.3-.7.69-.07.29.4,1.23.44,1.62.4,3.88-1.26,8.51-3,11.92a19.64,19.64,0,0,1-3.67,5.27c-.36.36-1.55,1.75-2.07,1.69.9.1-.34-1.07-.5-1.3a14,14,0,0,1-1.2-2.34c-2-4.56-2.42-9.6-4.1-14.27-.56-1.56-1.28-3.35-3-3.9a7.11,7.11,0,0,0-4.8.69c-4.19,2-4.74,7.8-4.4,11.88.46,5.66,2.78,11,5,16.16.37.88,4.29-.45,4-1.07Z"/></g></g></svg>