<svg xmlns="http://www.w3.org/2000/svg" viewBox="0 0 870.05 533.57"><defs><style>.cls-1{fill:#fefefe;}.cls-2{fill:#ead5d5;}.cls-3{fill:#6a6a6a;}.cls-4{fill:#2d2d2d;}.cls-5{fill:#cf8282;}.cls-6{fill:#e0c1c1;}.cls-7{fill:#eaeaea;}.cls-8{fill:#d3d3d3;}.cls-9{fill:#f2d197;}.cls-10{fill:#e3c7c7;}.cls-11{fill:#353535;}</style></defs><title>نماذج الأعمال </title><g id="Layer_2" data-name="Layer 2"><g id="Layer_2-2" data-name="Layer 2"><path class="cls-1" d="M242.32,60.31h80.11A18.45,18.45,0,0,0,304,41.85a19.24,19.24,0,0,0-3.06.25,25.22,25.22,0,0,0-46.86,4.57A13.8,13.8,0,0,0,242.32,60.31Z"/><path class="cls-1" d="M843.65,371.71H702.49a22.31,22.31,0,0,1,20.17-12.77c.29,0,.57,0,.85,0A26.17,26.17,0,0,1,745,347.8a25.16,25.16,0,0,1,3.49.23,37.21,37.21,0,0,1,68.61-.22h.46A26.21,26.21,0,0,1,843.65,371.71Z"/><path class="cls-2" d="M250.44,493.54a5.82,5.82,0,0,1-5.53-4l-88-263.1a4.09,4.09,0,0,1,3.88-5.39H482a5.83,5.83,0,0,1,5.54,4l87.18,260.79a5.85,5.85,0,0,1-5.54,7.7Z"/><path class="cls-3" d="M481.66,227.42,568.5,487.18H250.82L164,227.42ZM482,214.7H160.83a10.45,10.45,0,0,0-9.91,13.76l88,263.1a12.19,12.19,0,0,0,11.56,8.34H569.21a12.2,12.2,0,0,0,11.57-16.07L493.6,223A12.2,12.2,0,0,0,482,214.7Z"/><path class="cls-3" d="M747.92,515.6A16.39,16.39,0,0,1,731.51,532H258.73a16.41,16.41,0,1,1,0-32.82H731.51A16.41,16.41,0,0,1,747.92,515.6Z"/><path class="cls-4" d="M546.62,523.86a1.54,1.54,0,0,1-1.41-2.21,14,14,0,0,0,.79-10.59,14.61,14.61,0,0,0-13.93-10.32H250.44a1.56,1.56,0,0,1,0-3.11H532.07a17.72,17.72,0,0,1,16.9,12.5A17.26,17.26,0,0,1,548,523,1.56,1.56,0,0,1,546.62,523.86Z"/><path class="cls-4" d="M868.49,533.57h-27a1.56,1.56,0,1,1,0-3.11h27a1.56,1.56,0,1,1,0,3.11Z"/><path class="cls-4" d="M827,533.57H135.07a1.56,1.56,0,1,1,0-3.11H827a1.56,1.56,0,1,1,0,3.11Z"/><path class="cls-4" d="M112.3,533.57H1.56a1.56,1.56,0,1,1,0-3.11H112.3a1.56,1.56,0,0,1,0,3.11Z"/><path class="cls-5" d="M540.73,108v51.29H268.22V108a5.68,5.68,0,0,1,5.68-5.68H535.05A5.68,5.68,0,0,1,540.73,108Z"/><rect class="cls-1" x="269.81" y="159.27" width="269.32" height="327.45"/><path class="cls-6" d="M510.35,200.66v95.43a4.49,4.49,0,0,1-4.49,4.49H311.61a4.49,4.49,0,0,1-4.49-4.49V200.66A4.45,4.45,0,0,1,309,197a4.19,4.19,0,0,1,.5-.31,4.49,4.49,0,0,1,2.07-.5H505.86A4.48,4.48,0,0,1,510.35,200.66Z"/><circle class="cls-1" cx="398.79" cy="241.31" r="30.11" transform="translate(-52.82 125.92) rotate(-16.84)"/><path class="cls-4" d="M479.39,285.14H347.85a3.48,3.48,0,0,1-2.73-5.63l36-45.39a4.11,4.11,0,0,1,6.43,0l17.4,22a1.33,1.33,0,0,0,2.17-.1l26.41-40.41h0a4.07,4.07,0,0,1,3.43-1.86h0a4.07,4.07,0,0,1,3.43,1.86l41.95,64.2a3.47,3.47,0,0,1-2.91,5.37ZM384.3,235.68a1,1,0,0,0-.78.37l-36,45.39a.35.35,0,0,0,0,.39.33.33,0,0,0,.33.2H479.39a.34.34,0,0,0,.32-.19.35.35,0,0,0,0-.37l-41.95-64.2a1,1,0,0,0-.83-.45h0a1,1,0,0,0-.83.45l-26.4,40.41a4.45,4.45,0,0,1-7.22.33l-17.4-22A1,1,0,0,0,384.3,235.68Z"/><path class="cls-5" d="M474,408.44H334.94a4.45,4.45,0,1,1,0-8.89H474a4.45,4.45,0,0,1,0,8.89Z"/><path class="cls-5" d="M474,431.55H334.94a4.45,4.45,0,1,1,0-8.89H474a4.45,4.45,0,0,1,0,8.89Z"/><path class="cls-5" d="M439.44,454.67H334.94a4.45,4.45,0,1,1,0-8.89h104.5a4.45,4.45,0,0,1,0,8.89Z"/><path class="cls-5" d="M760.85,364.18,760,366l-28.55,21.76L719.59,385l-33.05-7.54-6.69-1.52-.2-.05-11.27-2.57-3.22-.73-9.33-2.12-30.32-66.21.81-1.77a10.2,10.2,0,0,1,7.69-5.83L651.16,294l55.32-8.67.18,0a15,15,0,0,1,14.91,6.94l38.67,62.32A10.17,10.17,0,0,1,760.85,364.18Z"/><path class="cls-2" d="M749,313.5l-20.45,82.82a15.24,15.24,0,0,1-5.21,8.42,4.33,4.33,0,0,1-.37.27,8,8,0,0,1-6.59,1.48L629.26,385a8,8,0,0,1-5.14-4.38q-.11-.19-.21-.42a15.18,15.18,0,0,1-.68-9.88l20.45-82.81Z"/><path class="cls-5" d="M672.33,379.69l-23.28,3.65L618,388.2l-28,4.39c-.07-.16-.15-.33-.21-.5A12.73,12.73,0,0,1,590,381.8l12-26.08,22.37-48.78,1.23-2.68,42,67.72.84,1.34Z"/><path class="cls-5" d="M760,366l-33.47,73-2.09,4.57a12.73,12.73,0,0,1-7.69,6.84l-.52.16L692,411.35h0l-19.65-31.66,8.19-1.28.78-.12,5.24-.83h0L718,372.54Z"/><path class="cls-5" d="M716.79,450.33l-.52.16a12.77,12.77,0,0,1-8.76-.7l-2.58-1.18L664.14,429.9l-33-15.13h0l-34.89-16a12.78,12.78,0,0,1-6.25-6.18c-.07-.16-.15-.33-.21-.5l26.71-6.91,30.58-7.91,18.08-4.68h0l2.37-.61.3-.08a11.64,11.64,0,0,1,11.69,3.64h0a3.89,3.89,0,0,1,.32.39h0a11.89,11.89,0,0,1,1.31,2.07l.13.28Z"/><path class="cls-1" d="M716.79,452.67a2.35,2.35,0,0,1-2.1-1.3l-35.62-72.32a9.33,9.33,0,0,0-10.65-4.89l-.3.08-77.75,20.12a2.34,2.34,0,1,1-1.17-4.53l78.06-20.19a14,14,0,0,1,16,7.34l.14.27,35.48,72.05a2.33,2.33,0,0,1-2.09,3.37Z"/><path class="cls-1" d="M681.3,380.63a2.34,2.34,0,0,1-.36-4.65l78.74-12.34a2.34,2.34,0,0,1,.72,4.62L681.66,380.6Z"/><path class="cls-1" d="M667.54,374.31a2.35,2.35,0,0,1-2-1.1l-42-67.72a2.34,2.34,0,0,1,4-2.47l42,67.72a2.34,2.34,0,0,1-.76,3.22A2.3,2.3,0,0,1,667.54,374.31Z"/><path class="cls-1" d="M728.23,332.53a2.22,2.22,0,0,1-.51-.06L661,316.69a2.22,2.22,0,0,1,1-4.33l66.68,15.78a2.23,2.23,0,0,1-.51,4.39Z"/><path class="cls-1" d="M725.74,344.29a1.79,1.79,0,0,1-.51-.07l-66.69-15.78a2.22,2.22,0,1,1,1-4.32l66.68,15.78a2.23,2.23,0,0,1-.51,4.39Z"/><path class="cls-1" d="M723.24,356a2.29,2.29,0,0,1-.51-.06l-56.45-13.36a2.22,2.22,0,1,1,1-4.32l56.44,13.36a2.22,2.22,0,0,1-.51,4.38Z"/><path class="cls-1" d="M677.7,517.82h-42a2.22,2.22,0,1,1,0-4.44h42a2.22,2.22,0,0,1,0,4.44Z"/><path class="cls-1" d="M311.84,517.82h-42a2.22,2.22,0,0,1,0-4.44h42a2.22,2.22,0,1,1,0,4.44Z"/><path class="cls-1" d="M360.11,517.82H336a2.22,2.22,0,1,1,0-4.44h24.16a2.22,2.22,0,0,1,0,4.44Z"/><circle class="cls-2" cx="302.46" cy="130.79" r="7.9" transform="translate(105.68 395.1) rotate(-76.72)"/><circle class="cls-5" cx="325.24" cy="130.79" r="7.9" transform="translate(2.78 268.29) rotate(-45)"/><circle class="cls-6" cx="348.03" cy="130.79" r="7.9" transform="translate(9.46 284.4) rotate(-45)"/><path class="cls-7" d="M760,89.23V67.73h-11.6a31.56,31.56,0,0,0-1.27-3l8.18-8.21-15-14.89-8.19,8.22a29.46,29.46,0,0,0-2.9-1.2V37H708.22V48.58a33.27,33.27,0,0,0-3.57,1.52l-8.37-8L681.66,57.28l8.36,8c-.37.81-.7,1.64-1,2.48H677.43v21.1H689a32.17,32.17,0,0,0,1.62,3.77l-8.21,8.64,15.15,15,8.58-9q1,.42,2,.78v12.61h21.1V108a30.52,30.52,0,0,0,2.83-1.16l8.82,8.77,14.73-15.39-8.43-8.4c.4-.85.77-1.72,1.1-2.61Z"/><circle class="cls-8" cx="718.74" cy="78.8" r="22.51"/><path class="cls-7" d="M675.52,40.39V23.76h-9a24.48,24.48,0,0,0-1-2.36l6.33-6.34L660.33,3.54,654,9.9A23,23,0,0,0,651.76,9V0H635.44V9a24.67,24.67,0,0,0-2.75,1.17l-6.48-6.21-11.3,11.76,6.46,6.2c-.28.63-.54,1.27-.77,1.92h-9V40.11h9A22.9,22.9,0,0,0,621.87,43l-6.35,6.69,11.72,11.56,6.63-7q.76.33,1.53.6v9.75h16.32V54.92c.74-.27,1.48-.57,2.19-.9l6.82,6.78,11.39-11.9-6.53-6.49c.32-.66.6-1.33.86-2Z"/><circle class="cls-8" cx="643.58" cy="32.33" r="17.4"/><path class="cls-9" d="M633.05,198.91l4.31,16.85.73,2.86c.74,0,1.49,0,2.24,0,1.86,0,3.69-.09,5.5-.27,1.36-.13,2.7-.32,4-.55a54.67,54.67,0,0,0,14.33-4.58l-5.36-20.95Z"/><path class="cls-5" d="M600.37,201.57a55.28,55.28,0,0,0,17.93,12.52,54.53,54.53,0,0,0,16.44,4.29c1.11.11,2.23.19,3.35.24.74,0,1.49,0,2.24,0,1.86,0,3.69-.09,5.5-.27,1.36-.13,2.7-.32,4-.55a54.67,54.67,0,0,0,14.33-4.58c.95-.45,1.89-.94,2.81-1.45a33.78,33.78,0,0,0-13.31-27.1c-.45-.34-.9-.67-1.38-1s-.84-.56-1.27-.82a34.31,34.31,0,0,0-16.48-5c-.49,0-1,0-1.48,0l-1.18,0a34.46,34.46,0,0,0-31.53,23.7Z"/><path class="cls-10" d="M651.1,184.23l-.8-16.11-.72-10.36-.34-4.91a8.17,8.17,0,0,0-8.72-7.6,9.12,9.12,0,0,0-1,.13,8.2,8.2,0,0,0-6.43,6.51,8,8,0,0,0-.12,2.08l1.19,17.37.47,6.77C634.89,182.62,651.42,188.74,651.1,184.23Z"/><polygon class="cls-5" points="630.2 167.7 653.86 173.81 651.11 187.87 631.54 185.02 630.2 167.7"/><path class="cls-10" d="M654,166.23h0a10.1,10.1,0,0,0,5-13.36l-3.44-7.63A13.32,13.32,0,0,0,638,138.59h0a13.32,13.32,0,0,0-6.65,17.61l.81,1.78A16.51,16.51,0,0,0,654,166.23Z"/><path class="cls-11" d="M622.38,148.75a4.19,4.19,0,0,1,.31-.86,3.91,3.91,0,0,1,2.48-2c.19,0,.41-.11.47-.29a.48.48,0,0,0,0-.29,11.28,11.28,0,0,0-.84-2.15c-1.72-3.83-1.36-10,3-12a5.94,5.94,0,0,1,2.63-.51.9.9,0,0,1,.53.16.84.84,0,0,1,.24.62,5.88,5.88,0,0,1-.15,1.87,7.43,7.43,0,0,1,4.4-5.49,2.89,2.89,0,0,1,2.28-.15,2.13,2.13,0,0,1,1,1.53c.13.62.11,1.25.24,1.87a1.18,1.18,0,0,1,.34-.78c2.28-2.91,6-3.5,9.49-2.69,4.54,1.06,9.31,4.47,11.12,8.88,2.69,6.51-3.64,9.27-9.22,9.17-2.33,0-4.67-.46-7-.11-4.5.68-5.23,4.14-6.88,7.71a7.44,7.44,0,0,1-7.53,4.56,7.65,7.65,0,0,1-6-4A7.81,7.81,0,0,1,622.38,148.75Z"/><circle class="cls-10" cx="634.82" cy="154.66" r="6.28" transform="translate(-11.75 248.82) rotate(-21.98)"/><path class="cls-4" d="M640.33,220.75a57,57,0,1,1,56.21-66.33,1.47,1.47,0,0,1-2.91.48,54,54,0,1,0,.28,15.88,1.47,1.47,0,1,1,2.92.38A57.08,57.08,0,0,1,640.33,220.75Z"/><path class="cls-4" d="M161.76,462.77h-12a1.21,1.21,0,0,1,0-2.42h12a14.57,14.57,0,0,0,0-29.14H42.86a14.57,14.57,0,1,0,0,29.14h94.73a1.21,1.21,0,1,1,0,2.42H42.86a17,17,0,1,1,0-34h118.9a17,17,0,1,1,0,34Z"/><path class="cls-5" d="M77,445.78A17.24,17.24,0,0,1,59.76,463H41.08a17.25,17.25,0,0,1,0-34.5H59.76A17.25,17.25,0,0,1,77,445.78Z"/><path class="cls-4" d="M109.54,453.62H91.84a1.22,1.22,0,1,1,0-2.43h17.7a1.22,1.22,0,0,1,0,2.43Z"/><path class="cls-1" d="M52.8,455.25a9.47,9.47,0,1,1,9.47-9.47A9.49,9.49,0,0,1,52.8,455.25Zm0-16.51a7,7,0,1,0,7,7A7,7,0,0,0,52.8,438.74Z"/><rect class="cls-5" x="61.19" y="132.78" width="59.44" height="46.53" rx="15.33" transform="translate(-30.59 22.43) rotate(-12.06)"/><path class="cls-5" d="M142,165.48,116.25,155a3.18,3.18,0,0,1-1.9-2.27l-.67-3.16a3.16,3.16,0,0,1,.8-2.84l19.21-20.12a3.16,3.16,0,0,1,5.38,1.52l7.22,33.8A3.17,3.17,0,0,1,142,165.48Z"/><path class="cls-4" d="M468.76,160.75H269.81a1.48,1.48,0,1,1,0-2.95h199a1.48,1.48,0,0,1,0,2.95Z"/><path class="cls-4" d="M539.13,160.75h-45a1.48,1.48,0,0,1,0-2.95h45a1.48,1.48,0,0,1,0,2.95Z"/><rect class="cls-2" x="321.52" y="329.6" width="48.33" height="48.33" rx="8.21"/><rect class="cls-2" x="380.3" y="329.6" width="48.33" height="48.33" rx="8.21"/><rect class="cls-2" x="439.08" y="329.6" width="48.33" height="48.33" rx="8.21"/><path class="cls-1" d="M358.9,366.33a2,2,0,0,1-1.21-.42l-26.42-21.29a1.92,1.92,0,0,1,2.41-3l26.42,21.28a1.92,1.92,0,0,1-1.2,3.42Z"/><path class="cls-1" d="M332.64,366.52a1.9,1.9,0,0,1-1.48-.69,1.92,1.92,0,0,1,.25-2.71l26.1-21.67a1.92,1.92,0,1,1,2.46,3l-26.11,21.67A1.89,1.89,0,0,1,332.64,366.52Z"/><path class="cls-1" d="M417.68,366.33a2,2,0,0,1-1.21-.42l-26.42-21.29a1.92,1.92,0,1,1,2.41-3l26.42,21.28a1.92,1.92,0,0,1,.29,2.71A1.89,1.89,0,0,1,417.68,366.33Z"/><path class="cls-1" d="M391.41,366.52a1.91,1.91,0,0,1-1.48-.69,1.93,1.93,0,0,1,.26-2.71l26.1-21.67a1.92,1.92,0,0,1,2.46,3l-26.11,21.67A1.9,1.9,0,0,1,391.41,366.52Z"/><path class="cls-1" d="M476.46,366.33a2,2,0,0,1-1.21-.42l-26.42-21.29a1.92,1.92,0,0,1,2.41-3l26.42,21.28a1.92,1.92,0,0,1,.29,2.71A1.89,1.89,0,0,1,476.46,366.33Z"/><path class="cls-1" d="M450.19,366.52a1.91,1.91,0,0,1-1.48-.69,1.93,1.93,0,0,1,.26-2.71l26.1-21.67a1.92,1.92,0,0,1,2.46,3l-26.11,21.67A1.9,1.9,0,0,1,450.19,366.52Z"/></g></g></svg>