<svg xmlns="http://www.w3.org/2000/svg" xmlns:xlink="http://www.w3.org/1999/xlink" viewBox="0 0 2428.53 2483.5"><defs><style>.cls-1{fill:none;}.cls-2{isolation:isolate;}.cls-3{opacity:0.1;}.cls-4{clip-path:url(#clip-path);}.cls-5{clip-path:url(#clip-path-2);}.cls-6{fill:#eeeff9;}.cls-7{clip-path:url(#clip-path-3);}.cls-8{clip-path:url(#clip-path-4);}.cls-9{clip-path:url(#clip-path-5);}.cls-10{clip-path:url(#clip-path-6);}.cls-11{clip-path:url(#clip-path-7);}.cls-12{clip-path:url(#clip-path-8);}.cls-13{clip-path:url(#clip-path-9);}.cls-14{opacity:0.13;}.cls-15{clip-path:url(#clip-path-10);}.cls-16{fill:url(#linear-gradient);}.cls-17{fill:url(#linear-gradient-2);}.cls-18{fill:url(#linear-gradient-3);}.cls-19{clip-path:url(#clip-path-11);}.cls-20{fill:url(#linear-gradient-4);}.cls-21{clip-path:url(#clip-path-12);}.cls-22{fill:url(#linear-gradient-5);}.cls-23{mix-blend-mode:color-burn;}.cls-24{clip-path:url(#clip-path-14);}.cls-25{clip-path:url(#clip-path-15);}.cls-26{fill:url(#radial-gradient);}.cls-27{clip-path:url(#clip-path-16);}.cls-28{fill:url(#linear-gradient-6);}.cls-29{opacity:0.2;}.cls-30{clip-path:url(#clip-path-18);}.cls-31{clip-path:url(#clip-path-19);}.cls-32{fill:url(#linear-gradient-7);}</style><clipPath id="clip-path" transform="translate(0 -5157.63)"><rect class="cls-1" y="6090.74" width="4795.28" height="1550.39"/></clipPath><clipPath id="clip-path-2" transform="translate(0 -5157.63)"><path class="cls-1" d="M1657,6893.37a31.17,31.17,0,0,0-11.92,2.85,30.38,30.38,0,0,0,.33,55.17,27.49,27.49,0,0,1-8.08-5.63,27.66,27.66,0,0,1-8.12-20.36,27.82,27.82,0,1,1,39.67,25.91,28.29,28.29,0,0,1-10.93,2.62,28,28,0,0,1-9.74-1.43,30.25,30.25,0,0,0,21-.52,30.37,30.37,0,0,0,19.23-27.49,30.16,30.16,0,0,0-2.16-11.95,30.44,30.44,0,0,0-17.07-17,31.1,31.1,0,0,0-11.32-2.15H1657"/></clipPath><clipPath id="clip-path-3" transform="translate(0 -5157.63)"><path class="cls-1" d="M1407.51,6957.65c.38.66.74,1.33,1.06,2a27.69,27.69,0,0,1-1.06,25.83v3.38a29.94,29.94,0,0,0,4.7-7.36,30.53,30.53,0,0,0,2.64-11.67,30.09,30.09,0,0,0-2.14-12,31.16,31.16,0,0,0-5.2-8.57Z"/></clipPath><clipPath id="clip-path-4" transform="translate(0 -5157.63)"><path class="cls-1" d="M1524,7003.08a30.42,30.42,0,0,0-14.79,15,27.77,27.77,0,0,1,15.09-14.34,27.74,27.74,0,0,1,36,15.72,27.79,27.79,0,0,1-51,22,27.84,27.84,0,0,1-1.17-20.78,30.39,30.39,0,0,0,39.95,38.14,30.48,30.48,0,0,0,16.32-41.18,31,31,0,0,0-7.23-9.75,30.64,30.64,0,0,0-10.32-6.05,30.47,30.47,0,0,0-22.88,1.21"/></clipPath><clipPath id="clip-path-5" transform="translate(0 -5157.63)"><path class="cls-1" d="M1682.72,7108.69a28.25,28.25,0,0,1-9.46-6.22,28.54,28.54,0,0,1-6.18-9.41,27.81,27.81,0,1,1,37.75,15,28.7,28.7,0,0,1-10.95,2.62H1693a28.26,28.26,0,0,1-10.27-2m10.23-58.6a30.85,30.85,0,0,0-11.94,2.84,30.42,30.42,0,1,0,41.18,16.31,30.52,30.52,0,0,0-28.31-19.17l-.93,0"/></clipPath><clipPath id="clip-path-6" transform="translate(0 -5157.63)"><path class="cls-1" d="M1428,7105.93a28.59,28.59,0,0,1,6.18,9.41,27.73,27.73,0,0,1-15.71,36,27.35,27.35,0,0,1-11,1.91v5h.83a30.29,30.29,0,0,0,21.69-10.08A30.38,30.38,0,0,0,1420,7100.3a28,28,0,0,1,8.08,5.63m-20.53-8.17a27.74,27.74,0,0,1,9.73,1.46,30.63,30.63,0,0,0-9.73-1.65Z"/></clipPath><clipPath id="clip-path-7" transform="translate(0 -5157.63)"><path class="cls-1" d="M1518,6963.41a54,54,0,0,0-9.58,3.24,58.66,58.66,0,0,0-8.87,4.85,67.47,67.47,0,0,0-14.91,13.5c-1.05,1.29-2.07,2.65-3,4-.49.71-.93,1.41-1.39,2.18l-1.26,2.16a97.07,97.07,0,0,0-4.51,8.87,72.68,72.68,0,0,0-5.63,19.24,63.68,63.68,0,0,0,7,39.13,75.31,75.31,0,0,0,11.62,16.32c1.16,1.23,2.36,2.4,3.61,3.57l1,.85.41.35.41.37c.54.51,1.07,1.05,1.59,1.6a28.65,28.65,0,0,1,5,7.38,15.75,15.75,0,0,1,1.49,8.21,15.42,15.42,0,0,1-3.21,7.69,15.59,15.59,0,0,1-6.58,5.15,19.33,19.33,0,0,1-8.51,1.12,22,22,0,0,1-8.41-2.2,15.58,15.58,0,0,1-3.48-2.39c-1.13-1.07-2.31-2.17-3.43-3.31-4.52-4.5-8.83-9.29-12.91-14.24-1-1.24-2-2.48-3-3.75l-.74-.94-.37-.47-.14-.17-.14-.24-1.26-2c-1.71-2.69-3.29-5.45-4.77-8.26a105.64,105.64,0,0,1-7.18-17.58L1436,7055l-2.64,1.22-5,2.36-2.5,1.19-2.63.95c-1.75.62-3.46,1.31-5.24,1.88l-5.37,1.51c-1.68.43-3.38.82-5.08,1.19v5c2.12-.43,4.22-.92,6.31-1.44l5.62-1.6c1.86-.61,3.67-1.32,5.51-2l2.73-1c.88-.39,1.77-.82,2.65-1.24l2.73-1.28a108.55,108.55,0,0,0,6.66,15.75c1.54,2.95,3.18,5.82,5,8.62l1.37,2.14.18.26.22.32.38.49.77,1c1,1.29,2,2.57,3.1,3.82a194.29,194.29,0,0,0,13.26,14.59c1.15,1.18,2.33,2.29,3.57,3.43a19.35,19.35,0,0,0,4.53,3.12,26.44,26.44,0,0,0,10.28,2.71,23.58,23.58,0,0,0,10.61-1.47,20,20,0,0,0,8.58-6.7,19.77,19.77,0,0,0,4.15-10,20.51,20.51,0,0,0-1.9-10.69,32.94,32.94,0,0,0-5.89-8.64c-.6-.63-1.19-1.26-1.84-1.84l-.51-.46-.5-.43-.84-.75c-1.14-1-2.26-2.14-3.33-3.29a69.07,69.07,0,0,1-10.9-15.27,58.64,58.64,0,0,1-6.48-36.25,68.34,68.34,0,0,1,5.24-18,88.63,88.63,0,0,1,4.33-8.45l1.16-2.06c.39-.64.81-1.28,1.25-1.92.88-1.27,1.83-2.52,2.81-3.75,7.91-9.68,18.74-17.13,30.85-20,11.89-2.95,24.59-1.44,36.26,2.72l.55.24a71.94,71.94,0,0,1,16.19,9.36A69.42,69.42,0,0,1,1585,6993.8a77,77,0,0,1,9,16.53,86.15,86.15,0,0,1,4.87,17.45c-.78,1.34-1.52,2.69-2.23,4.07-.42.81-.82,1.65-1.21,2.51s-.69,1.56-1,2.45a110.76,110.76,0,0,0-7,24.1,125.16,125.16,0,0,0-1.93,24.91c.1,2.08.06,4.17.28,6.25l.64,6.23c.26,2.07.68,4.11,1,6.18.2,1,.35,2.06.59,3.08l.74,3,.77,3a28.09,28.09,0,0,0,.84,3l2,5.93a85.75,85.75,0,0,0,5,11.53,94.66,94.66,0,0,0,14.29,20.63,98.08,98.08,0,0,0,9,8.73c.8.68,1.62,1.31,2.44,2l2.28,1.9,1.15,1,1.07,1c.7.7,1.43,1.36,2.12,2.07a63.11,63.11,0,0,1,7.33,9.28,60,60,0,0,1,5.34,10.55,59.19,59.19,0,0,1,3.15,11.39c.36,1.95.53,3.92.73,5.87s.22,4,.13,5.94a59.82,59.82,0,0,1-5.22,23,57,57,0,0,1-13.86,19,60.65,60.65,0,0,1-20.3,12l-1.31.43a17.44,17.44,0,0,0-1.72.59,11,11,0,0,0-1.63.86,9.82,9.82,0,0,0-1.46,1,18.75,18.75,0,0,0-4.43,5.22,25.08,25.08,0,0,0-3.46,12.81,18.38,18.38,0,0,0,4.84,12.59,19.14,19.14,0,0,0,5.57,4,26.25,26.25,0,0,0,6.36,2,45,45,0,0,0,12.84.21,57.12,57.12,0,0,0,12.37-2.86,71.89,71.89,0,0,0,21.84-12.43,88.41,88.41,0,0,0,15.31-15.91c7.38,12.35,18.2,21.83,30.22,29.14a119,119,0,0,0,42.36,14.55,104.88,104.88,0,0,0,11.17,1.27l5.54.46c.9.08,1.78.13,2.65.27s1.76.23,2.65.4a43.54,43.54,0,0,1,26.66,16.35,82.32,82.32,0,0,1,6.24,8.87,63.6,63.6,0,0,1,4.89,9.63,51.15,51.15,0,0,1,1.73,5.06c.23.86.45,1.71.61,2.59a23.56,23.56,0,0,1,.39,2.47v.16l0,.18a20.55,20.55,0,0,1,.36,2.94,29.46,29.46,0,0,1,0,3.12,41.5,41.5,0,0,1-.63,6.28,64.41,64.41,0,0,1-3.38,12.31c-.37,1-.76,2-1.2,3s-.83,2-1.3,2.94l-1.43,2.91c-.47.95-1,1.74-1.54,2.65a39.48,39.48,0,0,1-8.85,8.84,93.59,93.59,0,0,1-22.71,12c-2,.79-4,1.41-6.12,2.07a21.63,21.63,0,0,0-6.35,3.09,22.32,22.32,0,0,0-8.35,11.14,20.67,20.67,0,0,0,.44,14,16.17,16.17,0,0,0,4.14,5.9,18.72,18.72,0,0,0,6.14,3.62,35.27,35.27,0,0,0,13.54,1.84,45,45,0,0,0,13.28-2.7A76.37,76.37,0,0,0,1806,7450.4a121.13,121.13,0,0,0,16.67-17.51,56.43,56.43,0,0,0,5.21,7.78c.81,1.09,1.72,2,2.62,3.11.38.45.77.9,1.18,1.32l2,2.09a25.29,25.29,0,0,0,2.12,2,94.87,94.87,0,0,0,18.92,13.38c3.47,1.7,6.89,3.54,10.5,4.88l2.7,1.09a23.1,23.1,0,0,0,2.71,1l5.49,1.81c1.82.66,3.71,1,5.57,1.54l5.61,1.41a75.69,75.69,0,0,0,11.54,1.56l2.91.14,2.92,0c1.93,0,3.86-.21,5.81-.32a81.46,81.46,0,0,0,11.47-2,93.06,93.06,0,0,0,21.57-8.38,119.87,119.87,0,0,0,19.21-12.82,123.91,123.91,0,0,0,15.45-14.77,64.7,64.7,0,0,0,7,9.36,63.22,63.22,0,0,0,9.94,9.06,66,66,0,0,0,11.5,6.94,58.31,58.31,0,0,0,12.65,4.48,45.07,45.07,0,0,0,8.72,2.25,34.27,34.27,0,0,0,9.17.24,19.29,19.29,0,0,0,8.81-3.18,16.87,16.87,0,0,0,5.83-7.33,20.48,20.48,0,0,0,1.86-9.13,21.75,21.75,0,0,0-2.27-9,22.66,22.66,0,0,0-13.93-11.61,65.71,65.71,0,0,1-15.93-7.15,62.89,62.89,0,0,1-13.49-11.07,56,56,0,0,1-14.36-31.28,51.25,51.25,0,0,1,19.24-46.44,67.24,67.24,0,0,1,15.14-8.85,82.67,82.67,0,0,1,16.78-5.23,58.65,58.65,0,0,1,17.48-1,45.88,45.88,0,0,1,16.68,5,51,51,0,0,1,13.79,10.73,58.38,58.38,0,0,1,15,31.29,70.14,70.14,0,0,1,.76,8.78c0,2.93.05,5.95.19,8.92a104.29,104.29,0,0,0,2.42,17.68,96.05,96.05,0,0,0,14,32.69,102.76,102.76,0,0,0,24.68,25.58,88,88,0,0,0,7.44,4.94c1.28.76,2.58,1.51,3.91,2.18s2.72,1.19,4.09,1.78l4.12,1.71,4.22,1.46c2.77,1.05,5.68,1.74,8.52,2.61a112.51,112.51,0,0,0,17.55,3.07,98.79,98.79,0,0,0,17.79-.06,91.72,91.72,0,0,0,61-33.14,91.64,91.64,0,0,1-61.06,32.78,100,100,0,0,1-17.73,0,108.68,108.68,0,0,1-17.44-3.16c-11.36-3.23-22.65-7.38-32-14.71a104.11,104.11,0,0,1-13.29-11.7,97.87,97.87,0,0,1-11.07-13.8A95,95,0,0,1,2112.2,7401a105.64,105.64,0,0,1-2.32-17.52c-.12-3-.13-5.89-.16-8.89a67,67,0,0,0-.75-8.94,59.64,59.64,0,0,0-15.14-32,52.16,52.16,0,0,0-14.1-11.05,47.18,47.18,0,0,0-17.17-5.23,60.36,60.36,0,0,0-17.9.91,84.87,84.87,0,0,0-17.15,5.28,69.84,69.84,0,0,0-15.52,9,53.09,53.09,0,0,0-20,47.92,58,58,0,0,0,14.7,32.4,65.84,65.84,0,0,0,13.89,11.48,68.25,68.25,0,0,0,16.41,7.45,20.45,20.45,0,0,1,12.59,10.55,18.85,18.85,0,0,1,.33,16.25,15.94,15.94,0,0,1-2.14,3.58,13,13,0,0,1-3,2.81,17,17,0,0,1-7.78,2.75,38.57,38.57,0,0,1-16.9-2.44l-.1,0h-.1a58.9,58.9,0,0,1-12.13-4.37,62.56,62.56,0,0,1-11.06-6.75,60.33,60.33,0,0,1-9.52-8.75,65.23,65.23,0,0,1-7.62-10.46l-1-1.53-1.17,1.37a122.77,122.77,0,0,1-16.25,15.65,121.11,121.11,0,0,1-18.83,12.5,91.5,91.5,0,0,1-21,8.11,77.27,77.27,0,0,1-11.08,1.89c-1.87.09-3.73.35-5.59.31l-2.81,0-2.82-.14a75.64,75.64,0,0,1-11.09-1.53l-5.49-1.41c-1.82-.49-3.68-.88-5.44-1.51l-5.39-1.79a24,24,0,0,1-2.64-1l-2.61-1.07a108,108,0,0,1-10.23-4.78,92.5,92.5,0,0,1-18.31-13,26.17,26.17,0,0,1-2-1.93l-1-1c-.68-.7-1.76-1.88-2.4-2.62s-1.52-1.71-2.2-2.63a46.23,46.23,0,0,1-5.89-9.29l-1.11-2.34-1.52,2a115.23,115.23,0,0,1-17.69,18.79,72,72,0,0,1-21.88,13.24,40.7,40.7,0,0,1-12.34,2.5,32,32,0,0,1-12.28-1.67,13.92,13.92,0,0,1-8.44-7.75,17.64,17.64,0,0,1-.31-11.74,18.88,18.88,0,0,1,7.16-9.47,18.66,18.66,0,0,1,5.4-2.63c2.08-.63,4.27-1.32,6.32-2.1a98,98,0,0,0,23.59-12.4,42.56,42.56,0,0,0,9.63-9.64c.6-1,1.28-2,1.77-3l1.49-3c.49-1,.9-2,1.35-3s.86-2.05,1.25-3.1a67,67,0,0,0,3.61-12.95,49.14,49.14,0,0,0,.69-6.77c0-1.13,0-2.28,0-3.42a22.14,22.14,0,0,0-.42-3.37,23.52,23.52,0,0,0-.42-2.87c-.19-1-.43-1.89-.68-2.82a51,51,0,0,0-1.84-5.43,69,69,0,0,0-5.12-10.16,86.63,86.63,0,0,0-6.47-9.26,48.34,48.34,0,0,0-8-8.21,47.39,47.39,0,0,0-20.79-9.51c-.94-.19-1.87-.35-2.83-.45s-1.91-.2-2.87-.28l-5.51-.47a104.73,104.73,0,0,1-10.88-1.26,115.45,115.45,0,0,1-41-14.16,98.78,98.78,0,0,1-17.22-13.19c-1.23-1.33-2.54-2.59-3.74-3.94s-2.39-2.69-3.45-4.15l-1.62-2.17c-.53-.72-1-1.47-1.51-2.22a42.15,42.15,0,0,1-2.65-4.53l-1.51-3-1.91,2.76a79.83,79.83,0,0,1-7.55,9.24,89.23,89.23,0,0,1-8.8,8.16,68.67,68.67,0,0,1-20.67,11.73,55,55,0,0,1-11.51,2.62,41.17,41.17,0,0,1-11.64-.19,22.26,22.26,0,0,1-5.33-1.7,14.76,14.76,0,0,1-4.35-3.11,14.19,14.19,0,0,1-3.68-9.82,20.8,20.8,0,0,1,2.89-10.62,14.82,14.82,0,0,1,3.45-4.1,6.11,6.11,0,0,1,1.05-.72,5.1,5.1,0,0,1,1.08-.57,7.24,7.24,0,0,1,1.19-.41c.65-.2,1.06-.34,1.59-.53a65,65,0,0,0,21.75-12.8,61.42,61.42,0,0,0,15-20.36,64.66,64.66,0,0,0,5.64-24.64c.09-2.11,0-4.22-.11-6.34s-.38-4.23-.79-6.31a61.61,61.61,0,0,0-3.36-12.25,64.46,64.46,0,0,0-5.72-11.34,68.17,68.17,0,0,0-7.87-9.95c-.74-.78-1.52-1.49-2.27-2.22l-1.16-1.11-1.22-1-2.42-2c-.76-.65-1.56-1.25-2.32-1.92a92.49,92.49,0,0,1-8.61-8.3,90.15,90.15,0,0,1-18.35-30.69l-1.9-5.71a26.94,26.94,0,0,1-.8-2.89l-.74-2.93-.72-2.93c-.23-1-.35-2-.54-2.95-.33-2-.7-4-1-5.94l-.59-6c-.21-2-.17-4-.28-6a122.24,122.24,0,0,1,1.89-24c.36-2,.74-3.95,1.22-5.89s1-3.91,1.51-5.84a91.6,91.6,0,0,1,4-11.25l.06-.11v-.08c.28-.7.64-1.54,1-2.3s.61-1.31.92-2c.64-1.31,1.32-2.58,2-3.83l1.09-1.84-.12-.8a91.26,91.26,0,0,0-5.29-19.16,81.63,81.63,0,0,0-9.46-17.51,68.08,68.08,0,0,0-29-23.61l.09-.22-2.21-.81a77.52,77.52,0,0,0-19.51-4.49c-2-.17-4-.27-6-.27a57.56,57.56,0,0,0-14,1.67"/></clipPath><clipPath id="clip-path-8" transform="translate(0 -5157.63)"><path class="cls-1" d="M1528.87,6922.88c-1.84,0-3.66.31-5.49.47l-2.73.28c-.9.13-1.81.31-2.72.45-1.8.33-3.62.61-5.42,1l-5.34,1.34c-.89.25-1.79.42-2.66.73l-2.61.86c-1.74.61-3.47,1.17-5.2,1.78l-5,2.17-2.54,1.08c-.86.36-1.63.84-2.44,1.26a94.54,94.54,0,0,0-9.55,5.45c-1.54,1-3.12,2-4.61,3l-4.35,3.37c-.73.57-1.48,1.11-2.17,1.69l-2,1.86c-1.35,1.24-2.73,2.46-4,3.74-2.51,2.69-5.1,5.28-7.35,8.21a104.89,104.89,0,0,0-12.12,18.31c-.84,1.64-1.61,3.3-2.43,4.94s-1.5,3.37-2.17,5.07a82.19,82.19,0,0,0-3.37,10.37c-.2.52-.36,1-.53,1.45l-.5,1.57c-.26.82-.46,1.62-.69,2.43a97.41,97.41,0,0,1-15,12.11,88.1,88.1,0,0,1-8.19,4.76v5.5a93.61,93.61,0,0,0,10.89-6.13,102.37,102.37,0,0,0,16.26-13.2l.48-.46.16-.65c.26-1,.52-1.95.82-2.92l.45-1.45c.15-.44.33-.95.49-1.33l.06-.16.06-.23a75.83,75.83,0,0,1,3.21-9.85c.65-1.62,1.36-3.24,2.06-4.84s1.5-3.15,2.31-4.71a101.46,101.46,0,0,1,11.55-17.52c2.15-2.78,4.63-5.25,7-7.82,1.25-1.22,2.58-2.36,3.87-3.57l1.92-1.76c.67-.57,1.38-1.07,2.06-1.64l4.15-3.22c1.44-1,2.94-1.91,4.38-2.87a87.7,87.7,0,0,1,9.12-5.23c.78-.39,1.54-.85,2.34-1.18l2.44-1.06,4.82-2.07c1.65-.59,3.33-1.13,5-1.69l2.49-.84c.83-.3,1.71-.46,2.54-.69l5.1-1.29c1.72-.36,3.46-.62,5.19-.93.84-.15,1.72-.32,2.58-.44l2.6-.26c1.75-.14,3.49-.43,5.24-.48a100,100,0,0,1,21,1,101.74,101.74,0,0,1,10.28,2.1,74.31,74.31,0,0,1,9.81,3.31l.1,0c3.21,1.55,6.5,3.34,9.64,5.26s6.31,4,9.35,6.14a144.12,144.12,0,0,1,17.19,14.25,115.1,115.1,0,0,1,14.45,16.91l3.08,4.6c.94,1.6,1.8,3.24,2.72,4.83l1.35,2.44,1.13,2.53,2.24,5,1.16,2.59,2.28-1.43a106.53,106.53,0,0,1,17-8.6q4.43-1.8,9-3.17c.77-.25,1.5-.47,2.23-.67a10.54,10.54,0,0,1,1-.28l1.18-.23c1.57-.3,3.15-.58,4.73-.83,6.36-1,12.73-1.79,19.13-2.22,1.59-.11,3.19-.17,4.77-.24a21.49,21.49,0,0,1,4.39.33,20.17,20.17,0,0,1,8,3.29,17.45,17.45,0,0,1,5.57,6.4,15.71,15.71,0,0,1,1.45,8.26,21.68,21.68,0,0,1-2.49,8.33,14.84,14.84,0,0,1-5.9,5.83,18.65,18.65,0,0,1-8.31,2c-.35,0-.7,0-1,0l-1.32-.06c-.87,0-1.71,0-2.57,0-1.68,0-3.35.11-5,.26a71.87,71.87,0,0,0-19.54,4.53,64.79,64.79,0,0,0-17.44,10,66.88,66.88,0,0,0-13.47,14.93,79.52,79.52,0,0,0-8.7,18l-1.5,4.76c-.49,1.59-.83,3.21-1.25,4.81-.19.83-.42,1.57-.58,2.5s-.26,1.71-.37,2.57c-.18,1.68-.29,3.36-.33,5a62.64,62.64,0,0,0,11.47,38,67.61,67.61,0,0,0,14.09,14.32,85.57,85.57,0,0,0,17,9.95,36.44,36.44,0,0,1,3.79,3c.64.53,1.25,1.1,1.85,1.7s1.26,1.15,1.82,1.77c1.16,1.24,2.34,2.46,3.39,3.8l1.63,1.94,1.48,2.07a79.22,79.22,0,0,1,9.71,17.86l1.68,4.84c.55,1.58.88,3.26,1.34,4.91l.64,2.47c.2.83.28,1.69.46,2.53l.85,5c.21,1.7.29,3.4.45,5.11a43.4,43.4,0,0,1,.29,5.11c0,3.45.07,6.77-.09,10.39a79.73,79.73,0,0,0,2.14,21.37,69,69,0,0,0,8.76,19.74,47.79,47.79,0,0,0,7.21,8.28,67.46,67.46,0,0,0,8.51,6.66,55.2,55.2,0,0,0,19.88,8.62l2.77.38c.92.13,1.88.1,2.82.14s1.69,0,2.49,0,1.79,0,2.7,0c3.42.08,6.86.34,10.26.76a117.08,117.08,0,0,1,20.13,4.34c3.27,1,6.51,2.14,9.71,3.43s6.24,2.82,9.32,4.3a92.24,92.24,0,0,1,16.7,11.76,94.71,94.71,0,0,1,13.41,15.43,97.08,97.08,0,0,1,9.36,18.22,94.06,94.06,0,0,1,4.84,19.87,96.7,96.7,0,0,1,.08,20.48,38.11,38.11,0,0,0,3.07,20.31,29.82,29.82,0,0,0,2.63,4.58,32.43,32.43,0,0,0,3.56,3.89,62,62,0,0,0,8,6.26,84,84,0,0,0,18,9,70.29,70.29,0,0,0,19.78,4.11,53.18,53.18,0,0,0,20.13-2.7l9.26-3.55a32.34,32.34,0,0,0,9-5.17,41.42,41.42,0,0,0,7.12-7.44,52.1,52.1,0,0,0,5.14-8.83,72.1,72.1,0,0,0,5.52-19.4l0-.18v-.23a135,135,0,0,1,1.74-31.76c1.89-10.41,5.15-20.7,11-29.43a50.43,50.43,0,0,1,4.91-6.14c.92-.95,1.76-2,2.7-2.89l2.86-2.76a102.28,102.28,0,0,1,12.52-9.79,115.57,115.57,0,0,1,13.88-7.79,97.82,97.82,0,0,1,14.8-5.67l.13,0,.14-.06a66.38,66.38,0,0,1,13.81-4,91.21,91.21,0,0,1,14.47-1.45,97,97,0,0,1,28.78,3.89,111,111,0,0,1,13.68,5.05,112.18,112.18,0,0,1,12.93,6.81,143.72,143.72,0,0,1,23.31,17.7l1,1,1-1.06a123.77,123.77,0,0,1,16.25-14.39,85.85,85.85,0,0,1,18.74-10.75c6.65-2.6,13.85-4.15,20.84-3.14a31.87,31.87,0,0,1,10,3.21,37.75,37.75,0,0,1,8.31,6.22,22.25,22.25,0,0,1,1.63,4.65,17.54,17.54,0,0,1,.49,5.08,14.76,14.76,0,0,1-1,4.88,22.29,22.29,0,0,1-1.2,2.19l-.74,1a5.34,5.34,0,0,1-.82.95,20.55,20.55,0,0,1-1.9,1.7c-.7.48-1.39,1-2.11,1.45-1.54.81-3.07,1.61-4.79,2.34-3.37,1.54-6.65,3.21-9.86,5.06a84.14,84.14,0,0,0-17.62,13.42,59,59,0,0,0-12.49,18.38,54.92,54.92,0,0,0-3.26,10.68c-.18.91-.29,1.83-.42,2.75l-.22,1.37-.11,1.4-.21,2.79,0,2.78c0,.95,0,1.86.08,2.79l.15,2.77c.27,1.85.39,3.7.75,5.53s.63,3.63,1.12,5.43l.67,2.7c.23.87.53,1.76.81,2.63l.82,2.65,1,2.62.95,2.6c.44.94.89,1.7,1.37,2.52a56.08,56.08,0,0,0,6.68,8.92,52.17,52.17,0,0,0,28.6,16.32,58,58,0,0,0,11.07,1,67.92,67.92,0,0,0,11-1,84.33,84.33,0,0,0,10.75-2.65,59.77,59.77,0,0,0,10.23-4.35,51.16,51.16,0,0,0,9.12-6.35,53.66,53.66,0,0,0,13.3-17.61,74,74,0,0,0,6.26-21.17,93.85,93.85,0,0,0,1-11,80,80,0,0,1,.82-10.84,70.26,70.26,0,0,1,6.26-20.66,48.63,48.63,0,0,1,5.62-9.19,22.25,22.25,0,0,1,7.88-6.58l40.77,16.94a50.49,50.49,0,0,0-13.11,12.92,53.53,53.53,0,0,0-8.13,17.65,61.94,61.94,0,0,0-1.68,19.37,84.65,84.65,0,0,0,3.58,19,36.74,36.74,0,0,0,4.83,11.18,40.08,40.08,0,0,0,7.87,9.26,24,24,0,0,0,2.36,1.91,21.85,21.85,0,0,0,2.48,1.77l2.58,1.6c.9.47,1.83.89,2.74,1.34l1.38.66a14.08,14.08,0,0,0,1.4.56l2.87,1.05c1.84.61,3.74,1,5.61,1.52l-.53,40.07a39.1,39.1,0,0,1-9.27-.91,66.85,66.85,0,0,1-9.17-2.59,86,86,0,0,1-17-8.65l-4-2.66L2299,7464l-1.91-1.45-1.78-1.59-3.6-3.14c-2.33-2.17-4.52-4.48-6.81-6.7l-6.34-7.15,6.3,7.18c2.27,2.24,4.47,4.57,6.78,6.74l3.58,3.18,1.78,1.58,1.9,1.47,3.77,2.93,4,2.69a85.29,85.29,0,0,0,17,8.74,63.83,63.83,0,0,0,9.18,2.67,40.12,40.12,0,0,0,9.53,1h.19V7482l.76-40.49v-.23l-.24-.07c-1.92-.53-3.88-1-5.79-1.6l-2.82-1a13.67,13.67,0,0,1-1.38-.55l-1.36-.67c-.89-.45-1.79-.85-2.67-1.34l-2.54-1.59a18.89,18.89,0,0,1-2.44-1.73,26.68,26.68,0,0,1-2.33-1.89,40.08,40.08,0,0,1-7.68-9.14,37.52,37.52,0,0,1-4.68-10.94v0a84.87,84.87,0,0,1-3.46-18.91,61.38,61.38,0,0,1,1.71-19.05,53.3,53.3,0,0,1,8-17.3,49.34,49.34,0,0,1,13.71-13.16l1-.59-1-.43-41.94-17.62-.26-.1-.25.11a23.39,23.39,0,0,0-8.65,7,51.46,51.46,0,0,0-5.83,9.43,72.61,72.61,0,0,0-6.47,21.07,86.3,86.3,0,0,0-.89,11,87.12,87.12,0,0,1-.94,10.81,72.53,72.53,0,0,1-6.2,20.66,52.4,52.4,0,0,1-13,17,50.61,50.61,0,0,1-8.84,6.11,61.23,61.23,0,0,1-9.92,4.17,88.2,88.2,0,0,1-10.5,2.54,63.78,63.78,0,0,1-10.76.9,53.94,53.94,0,0,1-10.69-1,50.31,50.31,0,0,1-10.21-3.24,51.48,51.48,0,0,1-17.24-12.55,54.18,54.18,0,0,1-6.39-8.6c-.44-.75-.9-1.59-1.22-2.29l-.92-2.52-.94-2.55-.78-2.58a71.71,71.71,0,0,1-3.4-21.22l0-2.7.23-2.66.11-1.35.2-1.31c.14-.89.24-1.78.43-2.66a53.8,53.8,0,0,1,3.14-10.21,57,57,0,0,1,12.06-17.58,82.5,82.5,0,0,1,17.18-12.95q4.68-2.69,9.64-4.91c1.63-.67,3.35-1.56,5.07-2.44.8-.51,1.58-1.08,2.39-1.64a24.84,24.84,0,0,0,2.16-1.95,6.84,6.84,0,0,0,1-1.12l.89-1.18a24.65,24.65,0,0,0,1.43-2.63,17.17,17.17,0,0,0,1.24-5.76,19.62,19.62,0,0,0-.55-5.78,24.83,24.83,0,0,0-1.94-5.47l-.09-.17-.13-.12a41.19,41.19,0,0,0-9.08-6.87,33.81,33.81,0,0,0-10.86-3.51,35.76,35.76,0,0,0-11.36.2,54,54,0,0,0-10.87,3,89.66,89.66,0,0,0-19.38,11,125.6,125.6,0,0,0-15.71,13.74,147.35,147.35,0,0,0-22.69-17.2,122.89,122.89,0,0,0-13.23-7,121.19,121.19,0,0,0-14.07-5.23,100.49,100.49,0,0,0-29.68-4.07,97.54,97.54,0,0,0-15,1.45,70.6,70.6,0,0,0-14.41,4.14,99.11,99.11,0,0,0-15.27,5.81,121.16,121.16,0,0,0-14.3,8c-9.1,6.08-17.43,13.34-23.92,22.42-6.2,9.26-9.58,20-11.55,30.67a135.16,135.16,0,0,0-1.88,16.26,127.68,127.68,0,0,0,0,16.13,69.06,69.06,0,0,1-5.27,18.32,47.48,47.48,0,0,1-4.8,8.19,37.65,37.65,0,0,1-6.49,6.79,30.07,30.07,0,0,1-8,4.6l-9.2,3.51a49.9,49.9,0,0,1-18.78,2.45c-12.77-.75-25.23-5.53-36-12.58a58.48,58.48,0,0,1-7.51-5.88,28.44,28.44,0,0,1-3.08-3.39,26.83,26.83,0,0,1-2.27-4,34.22,34.22,0,0,1-2.7-18.28,90.88,90.88,0,0,0-14.77-61.19A88.53,88.53,0,0,0,1804,7292.2c-3.21-1.55-6.39-3.23-9.7-4.51s-6.66-2.5-10-3.56a121.26,121.26,0,0,0-20.81-4.54c-3.54-.43-7.11-.71-10.66-.8-1-.05-2-.05-3,0-.78,0-1.55,0-2.27,0s-1.61,0-2.42-.13l-2.42-.33a51.59,51.59,0,0,1-18.31-8,64.1,64.1,0,0,1-8-6.26,43.86,43.86,0,0,1-6.53-7.5,64.3,64.3,0,0,1-8.13-18.47,75.38,75.38,0,0,1-2-20.21c.16-3.39.08-7.05.12-10.58a52.8,52.8,0,0,0-.29-5.35c-.17-1.79-.28-3.57-.48-5.34l-.89-5.28c-.16-.9-.27-1.78-.48-2.65l-.67-2.6c-.48-1.75-.83-3.5-1.41-5.19l-1.76-5.08a84.47,84.47,0,0,0-10.23-18.9l-1.59-2.19-1.73-2.07c-1.11-1.41-2.38-2.7-3.59-4a59.08,59.08,0,0,0-8.3-7.18l-.12-.09-.18-.08c-11.59-5.12-22.18-12.72-29.49-22.92a58.19,58.19,0,0,1-10.6-35.31c0-1.56.15-3.11.31-4.64.1-.78.2-1.55.33-2.28s.35-1.48.52-2.25c.42-1.53.74-3.09,1.2-4.6l1.42-4.53a74.91,74.91,0,0,1,8.24-17,62.31,62.31,0,0,1,12.52-13.89,59.75,59.75,0,0,1,16.22-9.3,66.84,66.84,0,0,1,18.31-4.24c1.56-.14,3.12-.22,4.68-.25.77,0,1.56,0,2.33,0l1.09.06a14,14,0,0,0,1.43,0,23.49,23.49,0,0,0,10.44-2.56,19.16,19.16,0,0,0,7.75-7.65,25.62,25.62,0,0,0,3.07-10.2,20.23,20.23,0,0,0-1.88-10.69,22,22,0,0,0-7.07-8.15,24.56,24.56,0,0,0-9.86-4.07,25.05,25.05,0,0,0-5.33-.4c-1.67.06-3.29.13-4.94.25-6.58.42-13.09,1.2-19.58,2.24-1.61.27-3.23.55-4.85.86l-1.23.23c-.52.09-.88.23-1.32.33-.81.24-1.64.47-2.41.72q-4.74,1.46-9.37,3.3a112.45,112.45,0,0,0-15.42,7.58l-1.25-2.81-1.19-2.65-1.4-2.55c-1-1.68-1.87-3.41-2.86-5.07l-3.22-4.85a119.56,119.56,0,0,0-15-17.59,152.61,152.61,0,0,0-17.76-14.76c-3.14-2.19-6.34-4.34-9.63-6.31s-6.64-3.84-10.21-5.58l-2.28-1.09-.08.2a93.26,93.26,0,0,0-19-4.91,111.22,111.22,0,0,0-16.09-1.24q-2.94,0-5.87.18m-121.36-27.65a16.91,16.91,0,0,0,.75-1.62,14.89,14.89,0,0,0,.83-2.63l.35-1.35.2-1.31a21.6,21.6,0,0,0-1.28-10.81,16.6,16.6,0,0,0-.85-1.81Z"/></clipPath><clipPath id="clip-path-9" transform="translate(0 -5157.63)"><rect class="cls-1" x="1403.05" width="2336.96" height="8061.74"/></clipPath><clipPath id="clip-path-10" transform="translate(0 -5157.63)"><rect class="cls-1" x="1400.61" y="5157.03" width="508.26" height="1545.34"/></clipPath><linearGradient id="linear-gradient" x1="1397.44" y1="9138.67" x2="1398.65" y2="9138.67" gradientTransform="matrix(-430.36, 6.26, 6.26, 430.36, 546085.51, -3936485.3)" gradientUnits="userSpaceOnUse"><stop offset="0" stop-color="#5f5f5f"/><stop offset="0.65" stop-color="#968e8d"/><stop offset="1" stop-color="#aea2a1"/></linearGradient><linearGradient id="linear-gradient-2" x1="1397.44" y1="9138.98" x2="1398.65" y2="9138.98" gradientTransform="matrix(-430.36, 6.26, 6.26, 430.36, 546094.64, -3935857.69)" xlink:href="#linear-gradient"/><linearGradient id="linear-gradient-3" x1="1397.44" y1="9139.31" x2="1398.65" y2="9139.31" gradientTransform="matrix(-430.36, 6.26, 6.26, 430.36, 546103.88, -3935222.75)" xlink:href="#linear-gradient"/><clipPath id="clip-path-11" transform="translate(0 -5157.63)"><path class="cls-1" d="M1403.05,6562l36,108.6,116.14-38.46c-28.19-85.18-21.6-189.79-9.88-301,7.86-74.63,18-152.24,21.52-229,5.51-120.24-5.33-238.29-67-339.31-33-54-65.4-94.75-96.71-125.09Z"/></clipPath><linearGradient id="linear-gradient-4" x1="1397.47" y1="9147.49" x2="1398.69" y2="9147.49" gradientTransform="translate(390324.54 2544558.56) rotate(180) scale(278.06)" gradientUnits="userSpaceOnUse"><stop offset="0" stop-color="#c66665"/><stop offset="1" stop-color="#d4b6b5"/></linearGradient><clipPath id="clip-path-12" transform="translate(0 -5157.63)"><path class="cls-1" d="M1403.05,6715c212.64,57.17,379.72-115.95,341.14-330.88C1702,6149,1508.27,6117.34,1403.05,5898Z"/></clipPath><linearGradient id="linear-gradient-5" x1="1396.35" y1="9140.35" x2="1397.57" y2="9140.35" gradientTransform="matrix(0, 607.08, -607.08, 0, 5550542.56, -841732.52)" xlink:href="#linear-gradient"/><clipPath id="clip-path-14" transform="translate(0 -5157.63)"><rect class="cls-1" x="1653.88" y="5951.01" width="161.48" height="161.48"/></clipPath><clipPath id="clip-path-15" transform="translate(0 -5157.63)"><path class="cls-1" d="M1658.44,6058.44a80.72,80.72,0,1,0,49.5-102.87,80.72,80.72,0,0,0-49.5,102.87"/></clipPath><radialGradient id="radial-gradient" cx="1389.6" cy="9162.59" r="1.22" gradientTransform="translate(93889.25 613671.74) rotate(-180) scale(66.32)" gradientUnits="userSpaceOnUse"><stop offset="0" stop-color="#aea2a1"/><stop offset="0.2" stop-color="#aea2a1"/><stop offset="0.26" stop-color="#b5abaa"/><stop offset="0.76" stop-color="#eae7e7"/><stop offset="1" stop-color="#fff"/></radialGradient><clipPath id="clip-path-16" transform="translate(0 -5157.63)"><path class="cls-1" d="M1708.33,5957.81a58.93,58.93,0,1,0,19.5-3.33,59,59,0,0,0-19.5,3.33"/></clipPath><linearGradient id="linear-gradient-6" x1="1402.22" y1="9153.11" x2="1403.44" y2="9153.11" gradientTransform="translate(-1131036.68 179616.83) rotate(-90) scale(123.76)" xlink:href="#linear-gradient-4"/><clipPath id="clip-path-18" transform="translate(0 -5157.63)"><rect class="cls-1" x="1403.05" y="6174.87" width="267.87" height="550.27"/></clipPath><clipPath id="clip-path-19" transform="translate(0 -5157.63)"><path class="cls-1" d="M1403.05,6174.87v540.4c8.19,1.69,17.15,3.31,26.71,4.74l1.25.18a471.22,471.22,0,0,0,49.68,4.63l1.56.05c5.42.19,10.9.28,16.48.27a.5.5,0,0,1,.17,0c66-1.19,126.69-28.69,172-73.77-.07-98.75-49.35-217.23-125.66-320.27A781,781,0,0,0,1457,6230.85c-19.93-19-37.84-37.69-54-56"/></clipPath><linearGradient id="linear-gradient-7" x1="1398.95" y1="9141.57" x2="1400.17" y2="9141.57" gradientTransform="matrix(854.79, 0, 0, 854.79, -1194899.84, -7807685.64)" xlink:href="#linear-gradient"/></defs><title>عن الشركة الجزء السفلي</title><g class="cls-2"><g id="Layer_2" data-name="Layer 2"><g id="Layer_5" data-name="Layer 5"><g class="cls-3"><g class="cls-4"><g class="cls-5"><polygon class="cls-6" points="1640.94 1726.68 1618.57 1783.11 1618.45 1783.07 1640.82 1726.63 1640.94 1726.68"/><rect class="cls-6" x="1627.67" y="6893.32" width="60.7" height="60.81" transform="translate(-5389.47 756.21) rotate(-68.38)"/><polygon class="cls-6" points="1675.11 1805.52 1697.47 1749.09 1697.59 1749.13 1675.22 1805.57 1675.11 1805.52"/></g><g class="cls-7"><rect class="cls-6" x="1354.1" y="6938.69" width="60.7" height="60.81" transform="translate(-5604.42 530.54) rotate(-68.38)"/><polygon class="cls-6" points="1401.54 1850.89 1423.9 1794.46 1424.02 1794.51 1401.66 1850.94 1401.54 1850.89"/></g><g class="cls-8"><path class="cls-6" d="M1519.92,6991l-22.51,56.79Z" transform="translate(0 -5157.63)"/><rect class="cls-6" x="1506.34" y="7000.22" width="61.09" height="60.72" transform="translate(-5565.33 711.23) rotate(-68.38)"/><path class="cls-6" d="M1553.86,7070.17l22.51-56.79Z" transform="translate(0 -5157.63)"/></g><g class="cls-9"><polygon class="cls-6" points="1676.85 1883.39 1654.46 1939.87 1654.33 1939.82 1676.72 1883.34 1676.85 1883.39"/><rect class="cls-6" x="1663.54" y="7050.06" width="60.76" height="60.81" transform="translate(-5512.52 888.67) rotate(-68.38)"/><polygon class="cls-6" points="1710.99 1962.28 1733.38 1905.79 1733.51 1905.84 1711.12 1962.33 1710.99 1962.28"/><rect class="cls-6" x="1665.18" y="7054.94" width="55.54" height="55.87" transform="translate(-5515.38 889.31) rotate(-68.38)"/></g><g class="cls-10"><rect class="cls-6" x="1377.02" y="7097.56" width="60.7" height="60.8" transform="translate(-5737.63 652.17) rotate(-68.38)"/><polygon class="cls-6" points="1424.45 2009.75 1446.81 1953.32 1446.95 1953.37 1424.58 2009.8 1424.45 2009.75"/></g><g class="cls-11"><rect class="cls-6" x="995.86" y="5867.98" width="390.38" height="2326.25" transform="translate(-5784.21 390) rotate(-68.38)"/><path class="cls-6" d="M2200.42,7641.13l143.84-362.91Z" transform="translate(0 -5157.63)"/></g><g class="cls-12"><rect class="cls-6" x="1038.85" y="5735.9" width="350.82" height="2473.28" transform="translate(-5715.11 374.6) rotate(-68.38)"/><path class="cls-6" d="M2299.26,7591.27l129.27-326.14Z" transform="translate(0 -5157.63)"/></g></g></g><g class="cls-13"><g class="cls-14"><g class="cls-15"><path class="cls-16" d="M1422.8,5159.81c2.41-.36,4.84-.68,7.31-1a1.83,1.83,0,0,1,.4,3.63q-3.63.41-7.17.93a1.83,1.83,0,0,1-.54-3.61Z" transform="translate(0 -5157.63)"/><path class="cls-17" d="M1451.9,6677.13q-6.08,3.78-12.51,7.36a1.83,1.83,0,0,1-1.78-3.19q6.36-3.54,12.36-7.27a1.83,1.83,0,1,1,1.93,3.1Zm36.82-27.33q-5.38,4.76-11.14,9.3a1.82,1.82,0,1,1-2.26-2.86q5.67-4.48,11-9.18a1.83,1.83,0,1,1,2.42,2.74Zm31.6-33.25q-4.5,5.65-9.35,11.1a1.83,1.83,0,1,1-2.73-2.43q4.79-5.37,9.22-10.94a1.83,1.83,0,0,1,2.86,2.27Zm25.53-38.09q-3.55,6.31-7.39,12.45a1.83,1.83,0,0,1-3.1-1.94q3.81-6.06,7.31-12.3a1.82,1.82,0,0,1,3.18,1.79Zm19.74-41.48q-2.71,6.75-5.65,13.36a1.83,1.83,0,1,1-3.34-1.49q2.93-6.54,5.6-13.23a1.83,1.83,0,0,1,3.39,1.36Zm14.91-43.39q-2.05,7-4.27,13.85a1.82,1.82,0,0,1-3.47-1.13q2.19-6.81,4.24-13.75a1.82,1.82,0,1,1,3.5,1Zm11.42-44.43q-1.61,7.1-3.31,14.1a1.83,1.83,0,1,1-3.55-.86c1.14-4.65,2.23-9.33,3.3-14a1.82,1.82,0,0,1,3.56.8Zm9.19-44.9c-.9,4.76-1.8,9.49-2.73,14.21a1.83,1.83,0,0,1-3.59-.71q1.39-7,2.73-14.17a1.83,1.83,0,0,1,3.59.67Zm8.06-45.09q-1.23,7.14-2.48,14.24a1.83,1.83,0,1,1-3.6-.63q1.25-7.09,2.49-14.23a1.82,1.82,0,1,1,3.59.62Zm7.92-45.08q-1.29,7.13-2.54,14.22a1.83,1.83,0,1,1-3.6-.63q1.26-7.11,2.54-14.24a1.83,1.83,0,0,1,3.6.65Zm8.64-44.95q-1.47,7.09-2.86,14.19a1.83,1.83,0,0,1-3.59-.7c.94-4.74,1.89-9.49,2.88-14.24a1.82,1.82,0,0,1,3.57.75Zm10.2-44.62q-1.79,7-3.44,14a1.83,1.83,0,1,1-3.55-.85q1.66-7.05,3.45-14.09a1.83,1.83,0,0,1,3.54.89Zm12.51-44q-2.19,6.89-4.25,13.8a1.83,1.83,0,1,1-3.5-1q2.07-6.94,4.28-13.87a1.82,1.82,0,0,1,3.47,1.11Zm15.57-42.94q-2.73,6.69-5.29,13.44a1.82,1.82,0,1,1-3.41-1.3q2.57-6.78,5.32-13.52a1.83,1.83,0,1,1,3.38,1.38Zm19.17-41.3q-3.35,6.39-6.47,12.84a1.83,1.83,0,1,1-3.29-1.59q3.16-6.51,6.53-12.95a1.83,1.83,0,1,1,3.23,1.7Zm23.18-39.15q-4,6-7.77,12.1a1.82,1.82,0,0,1-3.1-1.92q3.79-6.13,7.83-12.2a1.82,1.82,0,1,1,3,2Zm27.27-36.37q-4.65,5.53-9.05,11.16a1.83,1.83,0,0,1-2.88-2.25q4.44-5.67,9.13-11.26a1.83,1.83,0,0,1,2.8,2.35Zm29.37-35.13q-4.49,5.61-9.12,11.23a1.83,1.83,0,0,1-2.82-2.32q4.62-5.61,9.09-11.19a1.82,1.82,0,1,1,2.85,2.28Zm27.73-36.51q-4.2,5.84-8.56,11.68a1.83,1.83,0,1,1-2.93-2.18q4.35-5.84,8.52-11.63a1.83,1.83,0,0,1,3,2.13Zm25.71-38q-3.84,6.06-7.88,12.15a1.83,1.83,0,0,1-3-2q4-6.06,7.85-12.09a1.83,1.83,0,0,1,3.08,2Zm23.39-39.45q-3.46,6.3-7.11,12.62a1.82,1.82,0,1,1-3.16-1.82q3.63-6.3,7.07-12.56a1.83,1.83,0,0,1,3.2,1.76Zm20.68-40.94q-3,6.53-6.21,13.09a1.83,1.83,0,1,1-3.28-1.61q3.18-6.53,6.17-13a1.83,1.83,0,0,1,3.32,1.53Zm17.54-42.4q-2.47,6.75-5.17,13.54a1.82,1.82,0,0,1-3.39-1.35q2.67-6.75,5.14-13.45a1.82,1.82,0,0,1,3.42,1.26Zm14-43.72q-1.89,6.93-4,13.94a1.83,1.83,0,0,1-3.5-1.06q2.1-6.94,4-13.84a1.83,1.83,0,0,1,3.53,1Zm9.89-44.83q-1.22,7.1-2.66,14.26a1.83,1.83,0,0,1-3.58-.73q1.44-7.11,2.64-14.14a1.83,1.83,0,1,1,3.6.61Zm5.41-45.6c-.32,4.8-.72,9.61-1.2,14.46a1.82,1.82,0,0,1-3.63-.36q.7-7.21,1.19-14.34a1.82,1.82,0,0,1,3.64.24Zm.59-45.92q.3,7.21.35,14.5a1.83,1.83,0,1,1-3.65,0q0-7.23-.35-14.38a1.83,1.83,0,0,1,3.65-.15Zm-4.41-45.69q1.1,7.14,1.94,14.38a1.83,1.83,0,0,1-3.63.42q-.84-7.17-1.92-14.25a1.83,1.83,0,0,1,3.61-.55Zm-9.42-44.92c1.25,4.65,2.42,9.35,3.51,14.07a1.83,1.83,0,0,1-3.56.83q-1.62-7-3.48-14a1.83,1.83,0,0,1,3.53-.94Zm-14.26-43.64q2.63,6.75,5,13.62a1.83,1.83,0,0,1-3.45,1.2q-2.37-6.81-5-13.5a1.82,1.82,0,0,1,3.4-1.32ZM1861,5432.21q3.29,6.45,6.39,13a1.83,1.83,0,1,1-3.3,1.56q-3.08-6.53-6.35-12.92a1.83,1.83,0,0,1,3.26-1.66Zm-22.88-39.75q3.9,6.07,7.62,12.28a1.83,1.83,0,1,1-3.13,1.88q-3.69-6.16-7.56-12.19a1.82,1.82,0,0,1,3.07-2Zm-26.54-37.36q4.45,5.68,8.74,11.52a1.82,1.82,0,1,1-2.94,2.16q-4.26-5.79-8.67-11.43a1.82,1.82,0,1,1,2.87-2.25Zm-29.79-34.81q4.93,5.27,9.73,10.69a1.83,1.83,0,0,1-2.74,2.42q-4.75-5.38-9.66-10.62a1.83,1.83,0,0,1,2.67-2.49Zm-32.73-32.2q5.37,4.86,10.63,9.87a1.82,1.82,0,1,1-2.52,2.64q-5.24-5-10.56-9.8a1.82,1.82,0,0,1-.13-2.58,1.84,1.84,0,0,1,2.58-.13Zm-35.29-29.37q5.75,4.39,11.4,9a1.83,1.83,0,0,1-2.29,2.85q-5.62-4.54-11.33-8.91a1.83,1.83,0,1,1,2.22-2.9Zm-37.57-26.4q6.08,3.92,12.1,8a1.83,1.83,0,0,1-2.06,3q-6-4.08-12-8a1.82,1.82,0,0,1,2-3.07Zm-39.61-23.22q6.36,3.38,12.71,7a1.82,1.82,0,0,1-1.79,3.18q-6.32-3.57-12.64-6.93a1.83,1.83,0,0,1,1.72-3.22Zm-41.48-19.74q6.64,2.79,13.29,5.83a1.83,1.83,0,1,1-1.52,3.32q-6.6-3-13.19-5.79a1.82,1.82,0,1,1,1.42-3.36ZM1552,5173.59q6.88,2.11,13.8,4.51a1.82,1.82,0,1,1-1.19,3.45q-6.87-2.37-13.68-4.47a1.83,1.83,0,1,1,1.07-3.49Zm-44.63-11q7.07,1.29,14.24,2.9a1.82,1.82,0,1,1-.8,3.56q-7.11-1.59-14.09-2.87a1.82,1.82,0,0,1,.65-3.59Zm-45.74-4.94q7.17.2,14.53.79a1.83,1.83,0,1,1-.3,3.64q-7.26-.59-14.33-.78a1.83,1.83,0,0,1,.1-3.65Z" transform="translate(0 -5157.63)"/><path class="cls-18" d="M1410.5,6698.75c-2.22,1-4.48,1.93-6.76,2.86a1.82,1.82,0,1,1-1.39-3.37q3.39-1.39,6.69-2.84a1.83,1.83,0,1,1,1.46,3.35Z" transform="translate(0 -5157.63)"/></g></g></g><g class="cls-19"><rect class="cls-20" x="1403.05" y="480.09" width="169.25" height="1032.84"/></g><g class="cls-21"><rect class="cls-22" x="1125.46" y="5930.21" width="934.89" height="809.8" transform="translate(-4522.47 -1118.85) rotate(-55.3)"/></g><g class="cls-13"><g class="cls-23"><g class="cls-24"><g class="cls-25"><rect class="cls-26" x="1618.76" y="5915.89" width="231.73" height="231.73" transform="translate(-1896.49 -4245.06) rotate(-19.3)"/></g></g></g></g><g class="cls-27"><rect class="cls-28" x="1642.5" y="5930.14" width="170.66" height="174.13" transform="translate(-4443.51 -192.47) rotate(-64.3)"/></g><g class="cls-13"><g class="cls-29"><g class="cls-30"><g class="cls-31"><rect class="cls-32" x="1232.89" y="6189.55" width="608.18" height="520.92" transform="translate(-4733.23 -863.87) rotate(-57.62)"/></g></g></g></g></g></g></g></svg>