<svg xmlns="http://www.w3.org/2000/svg" xmlns:xlink="http://www.w3.org/1999/xlink" viewBox="0 0 617.05 583.25"><defs><style>.cls-1,.cls-48{fill:none;}.cls-2{isolation:isolate;}.cls-3{clip-path:url(#clip-path);}.cls-4{fill:#feefdc;}.cls-5{fill:#f7d5d5;}.cls-6{fill:#cf7675;}.cls-7{fill:#db8989;}.cls-8{fill:#e29a9a;}.cls-9{fill:#edabab;}.cls-10{fill:#eae4e4;}.cls-11{fill:#a79f9f;}.cls-12{fill:#b5b0b0;}.cls-13{fill:#bfbebe;}.cls-14{fill:#d1cfcf;}.cls-15{fill:#e8dada;}.cls-16{fill:#867878;}.cls-17{fill:#998c8c;}.cls-18{fill:#ad9f9f;}.cls-19{fill:#c1b4b4;}.cls-20{fill:#21111d;}.cls-21{fill:#353131;}.cls-22{fill:#fff;}.cls-23{fill:#4c222e;}.cls-24{fill:#d5b7b6;}.cls-25{fill:#c9c0c0;}.cls-26{fill:#f2a0a0;}.cls-27{fill:#c4a1a1;}.cls-28{fill:#fcf1e3;}.cls-29{opacity:0.3;mix-blend-mode:multiply;}.cls-30{clip-path:url(#clip-path-2);}.cls-31{fill:#ef3a4c;}.cls-32{clip-path:url(#clip-path-3);}.cls-33{clip-path:url(#clip-path-4);}.cls-34{clip-path:url(#clip-path-5);}.cls-35{clip-path:url(#clip-path-6);}.cls-36{clip-path:url(#clip-path-7);}.cls-37{clip-path:url(#clip-path-8);}.cls-38{clip-path:url(#clip-path-9);}.cls-39{fill:url(#linear-gradient);}.cls-40{fill:#f0f4f7;}.cls-41{fill:#fffffd;}.cls-42{fill:#0c113e;}.cls-43{fill:#c6a7a7;}.cls-44{fill:#fce3e3;}.cls-45{clip-path:url(#clip-path-11);}.cls-46{fill:url(#linear-gradient-2);}.cls-47{fill:#edd6d6;}.cls-48{stroke:#0c113e;stroke-miterlimit:10;stroke-width:1.3px;}</style><clipPath id="clip-path" transform="translate(-381.14 -128.72)"><rect class="cls-1" width="1321.43" height="743.31"/></clipPath><clipPath id="clip-path-2" transform="translate(-381.14 -128.72)"><rect class="cls-1" x="500.48" y="656.78" width="17.08" height="3.54"/></clipPath><clipPath id="clip-path-3" transform="translate(-381.14 -128.72)"><rect class="cls-1" x="500.25" y="663.87" width="17.08" height="3.54"/></clipPath><clipPath id="clip-path-4" transform="translate(-381.14 -128.72)"><rect class="cls-1" x="500.01" y="670.97" width="17.08" height="3.54"/></clipPath><clipPath id="clip-path-5" transform="translate(-381.14 -128.72)"><rect class="cls-1" x="499.78" y="678.06" width="17.08" height="3.54"/></clipPath><clipPath id="clip-path-6" transform="translate(-381.14 -128.72)"><rect class="cls-1" x="499.54" y="685.15" width="17.08" height="3.54"/></clipPath><clipPath id="clip-path-7" transform="translate(-381.14 -128.72)"><rect class="cls-1" x="499.31" y="692.24" width="17.08" height="3.54"/></clipPath><clipPath id="clip-path-8" transform="translate(-381.14 -128.72)"><rect class="cls-1" x="499.08" y="699.33" width="17.08" height="3.54"/></clipPath><clipPath id="clip-path-9" transform="translate(-381.14 -128.72)"><path class="cls-1" d="M842.57,201.75c-14.54,6.69-18.36,29,1.56,35.67,4,1.35,7.58,2.52,10.77,3.48,3.62,1.1,6.75,1.92,9.41,2.45a35.44,35.44,0,0,1,12,6.6,7.91,7.91,0,0,1-.34,12c-14.92,12.27-9.36,32.86,2.17,47,23.73,29.11-16.9,65.28-20.4,76.5s2.65,17.71,10.25,13.65c0,0,73.58-19.73,69.76-76.95-2.15-32.16-21-58.86-39.34-64.9h0c-16.95-8.12-20.34-22.82-21-27.81,0-.58-.1-1.14-.16-1.71h0C875.19,209.6,862.37,200,850.73,200a19.39,19.39,0,0,0-8.16,1.74"/></clipPath><linearGradient id="linear-gradient" x1="-281.97" y1="1576.33" x2="-281.29" y2="1576.33" gradientTransform="matrix(156.16, 0, 0, -156.16, 44483.61, 246340.51)" gradientUnits="userSpaceOnUse"><stop offset="0" stop-color="#c66665"/><stop offset="1" stop-color="#d4b6b5"/></linearGradient><clipPath id="clip-path-11" transform="translate(-381.14 -128.72)"><path class="cls-1" d="M926.94,381a5.12,5.12,0,0,0-4.15,5,4.9,4.9,0,0,0,3,5c2.33,1,5.06.26,7.28-.71,0,0,.21,2.81,2.61,3.5a5.29,5.29,0,0,0,4-.33c.3,3.35,0,6.63-3.11,7.94-4.61,2-10.13.61-14.86-1a11.26,11.26,0,0,0-.57,1.66c-1,4.28-.08,12.86,5.88,14.11,6.93.87,11.26-2.21,13.74-7.7a10.61,10.61,0,0,0,.45-2.44c.12-.72.22-1.44.31-2.16l4.05,1.56,0-14.1h0s5.06-.28,3.65-1.39c-1-.78-2.4.23-3.14.89.72-.74,1.86-2.09,1-2.44-1.15-.48-1.31,1-1.31,1l-.2,1.69c0-.07,0-.15-.05-.23v0h0a3,3,0,0,0-.14-.49,3.71,3.71,0,0,0-1-1.24,5.93,5.93,0,0,0-2.11-1.28c.42,0,.32-1.2.31-1.41a4.55,4.55,0,0,0-.89-2.25,3.65,3.65,0,0,0-1.95-1.23,3.87,3.87,0,0,0-4.31,1.05,6.91,6.91,0,0,0-6-3.27,9.72,9.72,0,0,0-2.54.35"/></clipPath><linearGradient id="linear-gradient-2" x1="-291.09" y1="1563.54" x2="-290.4" y2="1563.54" gradientTransform="matrix(-51.86, 0, 0, 51.86, -14144.2, -80685.49)" xlink:href="#linear-gradient"/></defs><title>عن الشركة</title><g class="cls-2"><g id="Layer_2" data-name="Layer 2"><g id="Layer_5" data-name="Layer 5"><g class="cls-3"><path class="cls-4" d="M513.81,375.28c18.65-9.84,29.57-26.06,24.4-36.24s-24.48-10.46-43.13-.62-29.57,26.06-24.4,36.24,24.48,10.46,43.13.62" transform="translate(-381.14 -128.72)"/><path class="cls-4" d="M459.72,340.46c7.1-3.06,11.55-8.69,9.94-12.56s-8.67-4.53-15.77-1.47S442.34,335.12,444,339s8.67,4.53,15.76,1.47" transform="translate(-381.14 -128.72)"/><rect class="cls-5" x="555.58" y="133.46" width="97.76" height="339.44" transform="translate(-452.87 166.57) rotate(-25.97)"/><rect class="cls-6" x="505.95" y="156.31" width="81.06" height="55.69" transform="translate(-406.6 129.17) rotate(-25.97)"/><rect class="cls-7" x="534.57" y="215.06" width="81.06" height="55.69" transform="translate(-429.44 147.63) rotate(-25.97)"/><rect class="cls-8" x="563.18" y="273.8" width="81.06" height="55.69" transform="translate(-452.28 166.09) rotate(-25.97)"/><rect class="cls-9" x="591.79" y="332.55" width="81.06" height="55.69" transform="translate(-475.11 184.55) rotate(-25.97)"/><rect class="cls-10" x="517.11" y="163.64" width="97.76" height="339.44" transform="translate(-432.51 429.02) rotate(-50.47)"/><rect class="cls-11" x="423.35" y="221.25" width="81.06" height="55.69" transform="translate(-404.64 319.62) rotate(-50.47)"/><rect class="cls-12" x="473.75" y="262.85" width="81.06" height="55.69" transform="translate(-418.4 373.61) rotate(-50.47)"/><rect class="cls-13" x="524.15" y="304.44" width="81.06" height="55.69" transform="translate(-432.16 427.6) rotate(-50.47)"/><rect class="cls-14" x="574.55" y="346.03" width="81.06" height="55.69" transform="translate(-445.91 481.6) rotate(-50.47)"/><rect class="cls-15" x="508.94" y="208.3" width="97.76" height="339.44" transform="translate(-309.45 715.93) rotate(-77.95)"/><rect class="cls-16" x="387.81" y="322.55" width="81.06" height="55.69" transform="translate(-384.88 567.44) rotate(-77.95)"/><rect class="cls-17" x="451.71" y="336.18" width="81.06" height="55.69" transform="translate(-347.65 640.73) rotate(-77.95)"/><rect class="cls-18" x="515.62" y="349.82" width="81.06" height="55.69" transform="translate(-310.42 714.02) rotate(-77.95)"/><rect class="cls-19" x="579.52" y="363.46" width="81.06" height="55.69" transform="translate(-273.19 787.31) rotate(-77.95)"/><path class="cls-20" d="M598.51,179.12a.36.36,0,0,1-.32-.19l-24.27-49.27-87.57,42.66a.36.36,0,0,1-.31-.64l88.2-43,.16.32,24.42,49.58a.34.34,0,0,1-.16.47.4.4,0,0,1-.15,0" transform="translate(-381.14 -128.72)"/><path class="cls-20" d="M598.51,297.18a.37.37,0,0,1-.22-.08l-132-109-62,75.13a.35.35,0,0,1-.49,0,.34.34,0,0,1-.05-.49l62.44-75.67L598.74,296.56a.34.34,0,0,1,0,.49.35.35,0,0,1-.27.13" transform="translate(-381.14 -128.72)"/><path class="cls-20" d="M381.5,390.66h-.08a.35.35,0,0,1-.27-.42l20.48-96,.34.08,185.2,39.52a.35.35,0,0,1-.14.69L402.17,295.12l-20.33,95.26a.35.35,0,0,1-.34.28" transform="translate(-381.14 -128.72)"/><path class="cls-20" d="M569.85,188.78h-.09a.33.33,0,0,1-.25-.42l2.77-11a.36.36,0,0,1,.43-.26.36.36,0,0,1,.26.43l-2.78,11a.34.34,0,0,1-.34.26" transform="translate(-381.14 -128.72)"/><path class="cls-20" d="M572.32,191.27h-.08a.36.36,0,0,1-.26-.43l2.78-11a.33.33,0,0,1,.42-.25.34.34,0,0,1,.26.42l-2.78,11a.35.35,0,0,1-.34.27" transform="translate(-381.14 -128.72)"/><path class="cls-20" d="M432.07,265.15H432a.34.34,0,0,1-.26-.42l2.78-11a.34.34,0,0,1,.42-.26.36.36,0,0,1,.26.43l-2.78,11a.34.34,0,0,1-.34.26" transform="translate(-381.14 -128.72)"/><path class="cls-20" d="M434.55,267.64h-.09a.36.36,0,0,1-.26-.43l2.78-11a.35.35,0,0,1,.43-.25.33.33,0,0,1,.25.42l-2.77,11a.36.36,0,0,1-.34.27" transform="translate(-381.14 -128.72)"/><path class="cls-20" d="M519.3,356.27A.35.35,0,0,1,519,356l-3.41-10.87a.36.36,0,0,1,.23-.44.36.36,0,0,1,.44.23l3.41,10.86a.35.35,0,0,1-.23.45h-.1" transform="translate(-381.14 -128.72)"/><path class="cls-20" d="M522.7,357.1a.34.34,0,0,1-.33-.25L519,346a.34.34,0,0,1,.23-.44.34.34,0,0,1,.44.23L523,356.64a.36.36,0,0,1-.23.44l-.11,0" transform="translate(-381.14 -128.72)"/><rect class="cls-21" x="194.19" y="493.42" width="256.69" height="20.58"/><polygon class="cls-21" points="441.26 431.81 469.26 575.62 448.68 575.62 420.68 431.81 441.26 431.81"/><path class="cls-20" d="M829.83,704.69a.36.36,0,0,1-.35-.28L806.71,588a.35.35,0,0,1,.69-.14l22.77,116.46a.34.34,0,0,1-.27.41h-.07" transform="translate(-381.14 -128.72)"/><rect class="cls-22" x="199.08" y="103.57" width="245.89" height="330.33"/><rect class="cls-21" x="236.56" y="82.99" width="171.94" height="20.58"/><polygon class="cls-21" points="200.09 431.81 172.09 575.62 192.67 575.62 220.67 431.81 200.09 431.81"/><rect class="cls-21" x="169.35" y="423.61" width="306.36" height="20.58"/><path class="cls-21" d="M856.86,573.26H550.14V552H695.61a.35.35,0,1,1,0,.7H550.85v19.88h306a.35.35,0,0,1,0,.7" transform="translate(-381.14 -128.72)"/><path class="cls-20" d="M574.1,704.69H553.23a.35.35,0,0,1-.35-.35.35.35,0,0,1,.35-.35h20.29l25.54-131.15a.35.35,0,1,1,.69.14Z" transform="translate(-381.14 -128.72)"/><path class="cls-20" d="M589.75,622.85a.35.35,0,0,1,0-.7l140-.35h0a.35.35,0,0,1,.36.35.36.36,0,0,1-.36.35l-140,.35Z" transform="translate(-381.14 -128.72)"/><path class="cls-20" d="M788.3,643.08H585.81a.35.35,0,0,1-.35-.35.34.34,0,0,1,.35-.35H788.3a.35.35,0,0,1,.35.35.35.35,0,0,1-.35.35" transform="translate(-381.14 -128.72)"/><path class="cls-20" d="M558.58,696.23a.36.36,0,0,1-.25-.11.35.35,0,0,1,0-.5l6.67-6.46a.35.35,0,1,1,.49.5l-6.67,6.47a.39.39,0,0,1-.25.1" transform="translate(-381.14 -128.72)"/><path class="cls-6" d="M626.65,289.89s-32.23,62,6.56,123,110.56,69.43,110.56,69.43-20.95-7.51-32.36-24.74c0,0,44,22.29,80.89,14.08,0,0-136.43-74.6-148.69-176.93l-3.5-16Z" transform="translate(-381.14 -128.72)"/><path class="cls-20" d="M559.46,689.76a.35.35,0,0,1-.24-.6l6.67-6.46a.35.35,0,0,1,.5,0,.36.36,0,0,1,0,.5l-6.68,6.46a.31.31,0,0,1-.24.1" transform="translate(-381.14 -128.72)"/><path class="cls-20" d="M825.83,645.44a.36.36,0,0,1-.25-.11.35.35,0,0,1,0-.5l6.67-6.46a.35.35,0,0,1,.49.51l-6.68,6.46a.31.31,0,0,1-.24.1" transform="translate(-381.14 -128.72)"/><path class="cls-20" d="M826.71,639a.34.34,0,0,1-.25-.11.35.35,0,0,1,0-.5l6.67-6.46a.35.35,0,0,1,.5,0,.34.34,0,0,1,0,.49L827,638.88a.37.37,0,0,1-.24.1" transform="translate(-381.14 -128.72)"/><path class="cls-20" d="M826.1,469.48a.35.35,0,0,1-.35-.35V232.64l-132.39.29h0a.36.36,0,0,1,0-.71l133.1-.28,0,237.19a.35.35,0,0,1-.35.35" transform="translate(-381.14 -128.72)"/><path class="cls-6" d="M743.11,549.17h-39.8a5.74,5.74,0,0,1-5.75-5.75V507.28a3.23,3.23,0,0,1,3.23-3.23H745a3.86,3.86,0,0,1,3.86,3.86v35.51a5.75,5.75,0,0,1-5.75,5.75" transform="translate(-381.14 -128.72)"/><rect class="cls-23" x="323.19" y="420.45" width="37.75" height="3.11"/><rect class="cls-23" x="323.19" y="372.22" width="37.75" height="3.11"/><rect class="cls-11" x="318.53" y="363.23" width="47.07" height="9.84"/><rect class="cls-24" x="316.42" y="389.88" width="51.29" height="17.47"/><path class="cls-20" d="M742.75,549.52H703.67a6.46,6.46,0,0,1-6.46-6.46V507.4a3.71,3.71,0,0,1,3.71-3.7H745.5a.34.34,0,0,1,.35.35.35.35,0,0,1-.35.35H700.92a3,3,0,0,0-3,3v35.66a5.77,5.77,0,0,0,5.76,5.76h39.08a5.76,5.76,0,0,0,5.75-5.76.36.36,0,0,1,.71,0,6.46,6.46,0,0,1-6.46,6.46" transform="translate(-381.14 -128.72)"/><path class="cls-20" d="M719.54,519h-22a.35.35,0,0,1-.35-.35.35.35,0,0,1,.35-.35h22a.36.36,0,0,1,.36.35.35.35,0,0,1-.36.35" transform="translate(-381.14 -128.72)"/><path class="cls-20" d="M745,536.42H697.56a.35.35,0,1,1,0-.7H745a.35.35,0,1,1,0,.7" transform="translate(-381.14 -128.72)"/><rect class="cls-25" x="320.45" y="363.23" width="2.04" height="9.84"/><rect class="cls-25" x="326.34" y="363.23" width="2.04" height="9.84"/><rect class="cls-25" x="332.22" y="363.23" width="2.04" height="9.84"/><rect class="cls-25" x="338.1" y="363.23" width="2.04" height="9.84"/><rect class="cls-25" x="343.99" y="363.23" width="2.04" height="9.84"/><rect class="cls-25" x="349.87" y="363.23" width="2.04" height="9.84"/><rect class="cls-25" x="355.76" y="363.23" width="2.04" height="9.84"/><rect class="cls-25" x="361.64" y="363.23" width="2.04" height="9.84"/><path class="cls-20" d="M747.1,502.15H699.67a.35.35,0,0,1,0-.7h46.72V492a.36.36,0,1,1,.71,0Z" transform="translate(-381.14 -128.72)"/><path class="cls-11" d="M795,549.68H762.58a4.93,4.93,0,0,1-4.93-4.93V515.12a3.19,3.19,0,0,1,3.19-3.2h36.21a3.52,3.52,0,0,1,3.52,3.52v28.62a5.62,5.62,0,0,1-5.62,5.62" transform="translate(-381.14 -128.72)"/><rect class="cls-23" x="382.17" y="420.96" width="31.59" height="2.6"/><rect class="cls-23" x="382.17" y="380.59" width="31.59" height="2.6"/><rect class="cls-6" x="378.27" y="373.08" width="39.39" height="8.24"/><rect class="cls-24" x="376.5" y="395.37" width="42.92" height="14.62"/><path class="cls-20" d="M795.46,550h-32.7a5.47,5.47,0,0,1-5.47-5.46V514.73a3.16,3.16,0,0,1,3.16-3.16h37.31a.34.34,0,0,1,.35.35.35.35,0,0,1-.35.35H760.45a2.46,2.46,0,0,0-2.45,2.46v29.84a4.76,4.76,0,0,0,4.76,4.76h32.7a4.77,4.77,0,0,0,4.76-4.76.34.34,0,0,1,.35-.35.35.35,0,0,1,.35.35,5.47,5.47,0,0,1-5.46,5.46" transform="translate(-381.14 -128.72)"/><path class="cls-20" d="M776,524.45h-18.4a.35.35,0,0,1-.35-.35.35.35,0,0,1,.35-.35H776a.34.34,0,0,1,.35.35.35.35,0,0,1-.35.35" transform="translate(-381.14 -128.72)"/><path class="cls-20" d="M797.32,539.07H757.64a.36.36,0,0,1,0-.71h39.68a.36.36,0,0,1,0,.71" transform="translate(-381.14 -128.72)"/><rect class="cls-26" x="379.88" y="373.08" width="1.7" height="8.24"/><rect class="cls-26" x="384.8" y="373.08" width="1.7" height="8.24"/><rect class="cls-26" x="389.72" y="373.08" width="1.7" height="8.24"/><rect class="cls-26" x="394.65" y="373.08" width="1.7" height="8.24"/><rect class="cls-26" x="399.57" y="373.08" width="1.7" height="8.24"/><rect class="cls-26" x="404.5" y="373.08" width="1.7" height="8.24"/><rect class="cls-26" x="409.42" y="373.08" width="1.7" height="8.24"/><rect class="cls-26" x="414.35" y="373.08" width="1.7" height="8.24"/><path class="cls-20" d="M799.15,510.39H759.41a.35.35,0,0,1-.35-.35.35.35,0,0,1,.35-.35h39V501.8a.35.35,0,0,1,.35-.35.35.35,0,0,1,.35.35Z" transform="translate(-381.14 -128.72)"/><path class="cls-6" d="M653.89,677.4s7.62,0,11.16,2.86,4.2,10,8.91,11.83,26.77.1,29.49,6.68.71,6.59.71,6.59h-37.1a6.42,6.42,0,0,1-4-3.63c-1.43-3.05-5.14-8.72-11-9.76s1.84-14.57,1.84-14.57" transform="translate(-381.14 -128.72)"/><path class="cls-20" d="M535,665.14a35.14,35.14,0,0,1-.67,8.18l.51.11a36.2,36.2,0,0,0,.68-8.33Z" transform="translate(-381.14 -128.72)"/><polygon class="cls-24" points="262.47 535.35 267.94 546.79 267.35 564.68 261.13 575.75 252.01 553.09 262.47 535.35"/><polygon class="cls-24" points="261.13 575.75 262.47 535.35 119.52 525.51 117.85 576.14 261.13 575.75"/><rect class="cls-24" x="643.39" y="681.02" width="17.9" height="7.12" transform="translate(-434.51 1185.29) rotate(-88.11)"/><path class="cls-27" d="M652.71,693.78l.61-18.36a.68.68,0,0,1,.7-.66h.23a.68.68,0,0,1,.66.7l-.61,18.37a.68.68,0,0,1-.7.66h-.23a.69.69,0,0,1-.66-.71" transform="translate(-381.14 -128.72)"/><polygon class="cls-24" points="136.48 526.68 119.52 525.51 117.85 576.14 134.85 576.09 136.48 526.68"/><polygon class="cls-28" points="207.84 531.59 206.38 575.9 214.01 575.88 215.45 532.11 207.84 531.59"/><polygon class="cls-6" points="214.44 532.04 212.99 575.88 240.69 575.8 242.07 533.94 214.44 532.04"/><polygon class="cls-28" points="242.07 533.94 240.69 575.8 248.31 575.78 249.68 534.47 242.07 533.94"/><g class="cls-29"><g class="cls-30"><rect class="cls-31" x="507.53" y="650.06" width="2.99" height="16.99" transform="translate(-547.1 1016.88) rotate(-88.11)"/></g></g><g class="cls-29"><g class="cls-32"><rect class="cls-31" x="507.29" y="657.15" width="2.99" height="16.99" transform="translate(-554.41 1023.5) rotate(-88.11)"/></g></g><g class="cls-29"><g class="cls-33"><rect class="cls-31" x="507.06" y="664.24" width="2.99" height="16.99" transform="translate(-561.72 1030.13) rotate(-88.11)"/></g></g><g class="cls-29"><g class="cls-34"><rect class="cls-31" x="506.82" y="671.34" width="2.99" height="16.99" transform="translate(-569.03 1036.75) rotate(-88.11)"/></g></g><g class="cls-29"><g class="cls-35"><rect class="cls-31" x="506.59" y="678.43" width="2.99" height="16.99" transform="translate(-576.35 1043.38) rotate(-88.11)"/></g></g><g class="cls-29"><g class="cls-36"><rect class="cls-31" x="506.36" y="685.52" width="2.99" height="16.99" transform="translate(-583.66 1050) rotate(-88.11)"/></g></g><g class="cls-29"><g class="cls-37"><rect class="cls-31" x="506.12" y="692.61" width="2.99" height="16.99" transform="translate(-590.98 1056.63) rotate(-88.11)"/></g></g><path class="cls-20" d="M648.78,685h0a.35.35,0,0,1-.34-.36l.29-9.07-5.34-11.18L501,654.61l-.3,9.1a.35.35,0,1,1-.7,0l.32-9.82.37,0,143.15,9.84,5.59,11.71v.09l-.3,9.15a.35.35,0,0,1-.35.34" transform="translate(-381.14 -128.72)"/><path class="cls-20" d="M642.28,704.82h0a.34.34,0,0,1-.34-.36l1.33-40.4a.35.35,0,1,1,.7,0l-1.33,40.4a.35.35,0,0,1-.35.34" transform="translate(-381.14 -128.72)"/><path class="cls-20" d="M650.64,675.92h0l-1.26,0a.35.35,0,0,1-.34-.36.34.34,0,0,1,.36-.34l1.26,0a.34.34,0,0,1,.34.36.35.35,0,0,1-.35.34" transform="translate(-381.14 -128.72)"/><path class="cls-27" d="M650,693.7l.61-18.37a.69.69,0,0,1,.7-.66h.23a.68.68,0,0,1,.66.71l-.6,18.36a.69.69,0,0,1-.71.66h-.23a.69.69,0,0,1-.66-.7" transform="translate(-381.14 -128.72)"/><path class="cls-20" d="M579.19,701.36a.35.35,0,0,1-.27-.14.35.35,0,0,1,.06-.49l5.88-4.56a.34.34,0,0,1,.49.07.35.35,0,0,1-.06.49l-5.88,4.56a.34.34,0,0,1-.22.07" transform="translate(-381.14 -128.72)"/><path class="cls-20" d="M574.81,700.83a.35.35,0,0,1-.22-.63l5.88-4.56a.35.35,0,1,1,.43.55L575,700.75a.34.34,0,0,1-.21.08" transform="translate(-381.14 -128.72)"/><path class="cls-11" d="M677,312.61s19.72,71,83.2,61.94c60-8.6,35.83-74.66,35.83-74.66s-1.46,28-12.88,35.55c0,0,6.43-21.59-9.48-44.07,0,0,14.24,96.31-96.67,21.24" transform="translate(-381.14 -128.72)"/></g><g class="cls-38"><rect class="cls-39" x="443.06" y="71.29" width="117.36" height="203.2"/></g><g class="cls-3"><rect class="cls-20" x="32.69" y="575.14" width="579.69" height="3.49"/><path class="cls-20" d="M741.32,269.06a.55.55,0,0,1-.38-.15.57.57,0,0,1,0-.8l16.66-18.52a.57.57,0,0,1,.8,0,.56.56,0,0,1,0,.8l-16.67,18.52a.59.59,0,0,1-.42.19" transform="translate(-381.14 -128.72)"/><path class="cls-20" d="M782.17,414a.57.57,0,0,1-.42-.95l16.67-18.52a.57.57,0,0,1,.84.76l-16.67,18.52a.57.57,0,0,1-.42.19" transform="translate(-381.14 -128.72)"/><path class="cls-20" d="M601.15,284.37a.43.43,0,0,1-.22.18.4.4,0,0,1-.49-.27l-5-16.48a.4.4,0,0,1,.26-.49.4.4,0,0,1,.49.26l5,16.49a.41.41,0,0,1,0,.31" transform="translate(-381.14 -128.72)"/><path class="cls-20" d="M727.69,272.59a.57.57,0,0,1-.42-.95l16.67-18.52a.57.57,0,0,1,.84.76L728.11,272.4a.57.57,0,0,1-.42.19" transform="translate(-381.14 -128.72)"/><path class="cls-20" d="M665.14,534.42a.54.54,0,0,0,.38-.14.57.57,0,0,0,0-.8L648.89,515a.57.57,0,0,0-.84.76l16.67,18.52a.56.56,0,0,0,.42.18" transform="translate(-381.14 -128.72)"/><path class="cls-20" d="M680.11,538.14a.48.48,0,0,0,.36-.79l-13.94-15.48a.47.47,0,1,0-.7.63L679.76,538a.47.47,0,0,0,.35.16" transform="translate(-381.14 -128.72)"/><path d="M580.58,547.84h-.71v-316l10.46.1a.36.36,0,0,1,0,.71l-9.74-.09Z" transform="translate(-381.14 -128.72)"/><path d="M891.86,700.1,883,705.68a1,1,0,0,0,.54,1.87h38.63l-.25-7.45Z" transform="translate(-381.14 -128.72)"/><path d="M922.28,707.71H883.49a1.15,1.15,0,0,1-1.13-.85,1.16,1.16,0,0,1,.5-1.32l8.91-5.58.18.27L883,705.82a.85.85,0,0,0,.45,1.57H922l-.24-7.29H922Z" transform="translate(-381.14 -128.72)"/><path class="cls-40" d="M886,704l-.14-.29a25.23,25.23,0,0,1,11.65-1.51l0,.33A25,25,0,0,0,886,704" transform="translate(-381.14 -128.72)"/><path d="M934.34,702.59,927,710.08a1,1,0,0,0,.95,1.7l37.59-8.91-2-7.2Z" transform="translate(-381.14 -128.72)"/><path d="M965.7,703l-37.75,9a1.17,1.17,0,0,1-1.3-.57,1.15,1.15,0,0,1,.19-1.4l7.38-7.49.24.23-7.39,7.48a.84.84,0,0,0-.13,1,.83.83,0,0,0,.94.41l37.42-8.87-1.91-7,.31-.08Z" transform="translate(-381.14 -128.72)"/><path class="cls-40" d="M929.51,707.72l-.2-.26a25.44,25.44,0,0,1,11-4.15l0,.32a25.06,25.06,0,0,0-10.83,4.09" transform="translate(-381.14 -128.72)"/><path class="cls-41" d="M952.66,699.61a223.71,223.71,0,0,0,21.69-6.16s-6-62-6.44-85.69q-.75-38.29-1.49-76.59-.84-42.76-1.67-85.53c2.77,0,8.84,1.24,11.4,2,3.32,1-1.17-16.61-3.19-18.62-5.68-5.66-19.48-2.83-26.46-2.67-13.55.3-26.88-3.27-40.4-4.21-10.39-.71-14.21,5.82-17.55,15,0,0,9-.52,12.52,1.45.38.21-.57,6-.61,6.44L890.11,554.86l-7.2,76.35c-2.45,26-2.32,44.75-4.14,70.76,8.68-5.73,17.39,1.88,27.79,1.87,14,0,27.92-1.77,41.8-3.52,1.51-.19,2.94-.42,4.3-.71" transform="translate(-381.14 -128.72)"/><path class="cls-42" d="M926.39,413.38l-2.09,9.14s11.56,6.69,18.05-14.18l-2.41-3.09Z" transform="translate(-381.14 -128.72)"/><path class="cls-43" d="M945,431.4l.59-26-3.68.61c-.73,6.17-3.74,12.15-9.82,15.51a9.64,9.64,0,0,1-7.78,1l-2.89,10.34Z" transform="translate(-381.14 -128.72)"/><path class="cls-44" d="M936.58,401.37c4.51-1.92,3.12-8.08,2.49-12.47-4,0-8.23-.33-12.12-.21-.22,0-.54.42-.74.52s2.39,2.59,2.16,2.78a24,24,0,0,0-6.65,8.36c4.73,1.63,10.25,3,14.86,1" transform="translate(-381.14 -128.72)"/><path class="cls-22" d="M922.07,400.39l-.33-.14a24.18,24.18,0,0,1,6.63-8.37,12,12,0,0,0-1-1.22c-.93-1-1.15-1.29-1.12-1.49a.21.21,0,0,1,.11-.15l.17.31a.13.13,0,0,0,.07-.14,9.65,9.65,0,0,0,1,1.23c.92,1,1.18,1.32,1.17,1.52a.24.24,0,0,1-.08.15,23.65,23.65,0,0,0-6.6,8.3" transform="translate(-381.14 -128.72)"/></g><g class="cls-45"><rect class="cls-46" x="911.98" y="376.48" width="46.77" height="44.63" transform="translate(-258.82 880.73) rotate(-60)"/></g><path class="cls-47" d="M945.3,403.67a3.77,3.77,0,0,0-3.66-.78,53.48,53.48,0,0,1-.87,5.53l0-.06a3.42,3.42,0,0,0,4-.77c.93-1.12,1.47-2.9.46-3.92" transform="translate(-381.14 -128.72)"/><path class="cls-22" d="M928.91,404a23.75,23.75,0,0,0-4.68-.64h0a6.56,6.56,0,0,0,0,.76,17.67,17.67,0,0,1,4.09.82,5.51,5.51,0,0,0,.55-.94" transform="translate(-381.14 -128.72)"/><path class="cls-42" d="M924.27,404.14a2.9,2.9,0,0,0,.42,1.34,1.85,1.85,0,0,0,.36.38,2.16,2.16,0,0,0,2.34,0,3.47,3.47,0,0,0,.79-.69l.18-.23a17.67,17.67,0,0,0-4.09-.82" transform="translate(-381.14 -128.72)"/><path class="cls-22" d="M902.1,439.47c-3.64-2.4-8.34-3.44-12.88-4.21l.06-.35c4.58.78,9.32,1.83,13,4.26Z" transform="translate(-381.14 -128.72)"/><path class="cls-22" d="M947.84,400h0a.17.17,0,0,1-.17-.18.7.7,0,0,0-.29-.53,1.66,1.66,0,0,0-.92-.38l-25.65-3a.17.17,0,0,1-.15-.2.17.17,0,0,1,.19-.15l25.65,3a2,2,0,0,1,1.11.47,1,1,0,0,1,.41.8.17.17,0,0,1-.15.17" transform="translate(-381.14 -128.72)"/><path class="cls-22" d="M924.94,400.76a4.5,4.5,0,0,1-1.16,0,4,4,0,0,1-2.69-1.5,3.52,3.52,0,0,1-.7-2.71,3.77,3.77,0,0,1,.25-.88.17.17,0,0,1,.18-.1l7.31.84a.19.19,0,0,1,.16.16,3.37,3.37,0,0,1,0,.9,4,4,0,0,1-3.33,3.26m-4-4.8a2.91,2.91,0,0,0-.18.67,3.19,3.19,0,0,0,.64,2.45,3.5,3.5,0,0,0,2.44,1.35,3.67,3.67,0,0,0,4.1-3,3.72,3.72,0,0,0,0-.67Z" transform="translate(-381.14 -128.72)"/><path class="cls-22" d="M932.53,401.64a4.47,4.47,0,0,1-1.16,0,3.9,3.9,0,0,1-2.68-1.5,3.57,3.57,0,0,1-.71-2.71,3.64,3.64,0,0,1,.25-.88.17.17,0,0,1,.18-.11l7.32.85a.18.18,0,0,1,.15.16,3.37,3.37,0,0,1,0,.9,4,4,0,0,1-3.33,3.26m-4-4.8a2.91,2.91,0,0,0-.18.67A3.23,3.23,0,0,0,929,400a3.52,3.52,0,0,0,2.44,1.35,3.68,3.68,0,0,0,4.1-3,2.49,2.49,0,0,0,0-.67Z" transform="translate(-381.14 -128.72)"/><path class="cls-42" d="M926.85,399.62l-1.59,1.61a.2.2,0,0,0,.11.35,13.79,13.79,0,0,1,1.8.41.21.21,0,0,0,.26-.12.2.2,0,0,0-.12-.25,13.74,13.74,0,0,0-1.9-.43c0,.11.07.23.11.35l1.59-1.62a.2.2,0,1,0-.26-.3" transform="translate(-381.14 -128.72)"/><path class="cls-42" d="M930.63,398a2.65,2.65,0,0,0-.22.71c0,.24-.1.58.13.74a.33.33,0,0,0,.41,0,.5.5,0,0,0,.18-.34,6.46,6.46,0,0,0,.11-.75.64.64,0,0,0,0-.43.41.41,0,0,0-.16-.16.26.26,0,0,0-.26.06.2.2,0,0,0,.26.3c.05-.05,0-.05-.17,0s0,0,0,0h0s0,0,0,0h0v0a.28.28,0,0,1,0,.09c0,.12,0,.24,0,.36s0,.23,0,.34a1.29,1.29,0,0,0,0,.19s0,0,0,0h0a.1.1,0,0,1,0,0h0a.08.08,0,0,1,0,0h0a1.55,1.55,0,0,1,0-.31,2.36,2.36,0,0,1,.2-.62.2.2,0,0,0-.12-.26.19.19,0,0,0-.25.11" transform="translate(-381.14 -128.72)"/><path class="cls-42" d="M926,397.54a2,2,0,0,0-.3,1.31.2.2,0,0,0,.36.08,1.87,1.87,0,0,0,.35-1.37.2.2,0,0,0-.23-.17.2.2,0,0,0-.16.23c0,.05,0,.1,0,.15h0v.12a.77.77,0,0,1,0,.15.22.22,0,0,1,0,.08v0s0,0,0,0-.06.19-.1.28a.25.25,0,0,1,0,.07s0,0,0,0l0,0-.09.13.36.08s0-.1,0-.15,0,0,0,0v-.07a2.66,2.66,0,0,1,0-.28s0,0,0,0a0,0,0,0,1,0,0s0,0,0-.06a.88.88,0,0,0,.05-.15l.06-.12,0,0s0,0,0,0a.16.16,0,0,0,0-.07.19.19,0,0,0,0-.27.2.2,0,0,0-.28,0" transform="translate(-381.14 -128.72)"/><path class="cls-42" d="M926.67,395.14a2.09,2.09,0,0,1,1.67-.29.2.2,0,0,0,.22-.18.19.19,0,0,0-.17-.22,2.49,2.49,0,0,0-2,.39.2.2,0,0,0,.26.3" transform="translate(-381.14 -128.72)"/><path class="cls-42" d="M931.45,395a2.36,2.36,0,0,1,1.59.54.19.19,0,0,0,.27-.05.19.19,0,0,0,0-.27,2.73,2.73,0,0,0-1.88-.61.2.2,0,1,0,.06.39" transform="translate(-381.14 -128.72)"/><path class="cls-42" d="M942.33,406.05a8.38,8.38,0,0,0,1.53-1.78c.14-.21-.18-.45-.32-.23a8.21,8.21,0,0,1-1.47,1.7.2.2,0,0,0,.26.31" transform="translate(-381.14 -128.72)"/><path class="cls-42" d="M943.13,405.25l.06.05h0l0,0,0,0,0,.05,0,.06s0,0,0,0,0,0,0,0a.61.61,0,0,1,0,.12,0,0,0,0,1,0,0s0,0,0,0,0,.05,0,.07,0,.08,0,.13h0v0s0,0,0,.07a.09.09,0,0,1,0,.05s0,0,0,0,0,0,0,0a.22.22,0,0,0,.12.26.21.21,0,0,0,.26-.11,1.15,1.15,0,0,0-.44-1.24.2.2,0,0,0-.28.05.19.19,0,0,0,0,.27" transform="translate(-381.14 -128.72)"/><path class="cls-47" d="M892,507.3a52,52,0,0,0,1.39-6.88c0-6.3-18.24-15.16-18.44-14.92-7.05,8.05-6.56,32.89-5.66,37.21a2.72,2.72,0,0,1-.08,1.52c-.14.64-.29,1.28-.44,1.92l-.84,3.73a1.14,1.14,0,0,0,.5,1.23,1.16,1.16,0,0,0,.81.15l-.77,1.11a1.17,1.17,0,0,0,.16,1.56,1.26,1.26,0,0,0,1.69-.17l4.4-4.58a.19.19,0,0,1,.34.16l-1.38,7a1.12,1.12,0,0,0,.7,1.29,1.31,1.31,0,0,0,1.55-.62l2.81-4.94a.23.23,0,0,1,.42.18l-2.35,5.65a1.13,1.13,0,0,0,.47,1.44,1.29,1.29,0,0,0,1.63-.43l7.21-10a10,10,0,0,0,.4,1.17c2.33,4,3.93,1.91,3.93,1.91a35.71,35.71,0,0,1-1.43-6.21,8,8,0,0,0-.35-3.19c-.13-.43-.87-1.53-.73-2,1.37-4.44,2.71-8.9,4.06-13.36" transform="translate(-381.14 -128.72)"/><path class="cls-42" d="M877.62,482.31a8.39,8.39,0,0,1,4.4-2.06.18.18,0,0,1,.2.15.19.19,0,0,1-.16.2c-5.89.79-9.13,8.55-10.8,14.91A81.27,81.27,0,0,0,869,509.58a49.35,49.35,0,0,0,.48,13.1,3,3,0,0,1-.07,1.54l-.08.32c-.12.55-.25,1.1-.37,1.65-.29,1.24-.57,2.49-.85,3.73a1,1,0,0,0,.42,1,1,1,0,0,0,.69.13.18.18,0,0,1,.18.08.17.17,0,0,1,0,.19l-.78,1.11a1,1,0,0,0,.14,1.32,1.07,1.07,0,0,0,1.44-.16l4.4-4.58A.39.39,0,0,1,875,529a.38.38,0,0,1,.19.41l-1.39,7a1,1,0,0,0,.59,1.09,1.16,1.16,0,0,0,1.34-.55l3.34-5.87a.35.35,0,0,1,.46-.14.31.31,0,0,1,.15.42L877,538a1,1,0,0,0,.39,1.21,1.09,1.09,0,0,0,1.4-.38l7.21-10a.2.2,0,0,1,.18-.07.23.23,0,0,1,.14.13,9,9,0,0,0,.39,1.14c.87,1.5,1.75,2.31,2.55,2.36a1.35,1.35,0,0,0,1-.4,37.48,37.48,0,0,1-1.4-6.16v0a7.88,7.88,0,0,0-.33-3.12c0-.12-.16-.34-.27-.57-.34-.66-.58-1.16-.47-1.49,1.14-3.7,2.28-7.47,3.38-11.11l.68-2.25a.19.19,0,0,1,.22-.12.18.18,0,0,1,.11.23l-.67,2.24c-1.1,3.65-2.24,7.41-3.39,11.11a3.1,3.1,0,0,0,.45,1.23,4.51,4.51,0,0,1,.29.63,8.25,8.25,0,0,1,.36,3.23A35.43,35.43,0,0,0,890.6,532a.17.17,0,0,1,0,.18,1.72,1.72,0,0,1-1.38.62c-.94-.06-1.9-.92-2.84-2.55,0,0,0,0,0,0a8.81,8.81,0,0,1-.31-.85l-7,9.72a1.46,1.46,0,0,1-1.86.48,1.31,1.31,0,0,1-.55-1.66l2.69-6.44-3.25,5.71a1.47,1.47,0,0,1-1.76.7,1.3,1.3,0,0,1-.82-1.49l1.39-7s0,0,0,0,0,0,0,0l-4.39,4.58a1.42,1.42,0,0,1-1.93.18,1.34,1.34,0,0,1-.2-1.79l.58-.82a1.43,1.43,0,0,1-.57-.19,1.31,1.31,0,0,1-.57-1.42l.84-3.73c.13-.55.25-1.1.38-1.65l.07-.32a2.54,2.54,0,0,0,.07-1.39c-.91-4.32-.74-8.71-.48-13.19a80.86,80.86,0,0,1,2.28-14.13,35.47,35.47,0,0,1,4-9.93,14.71,14.71,0,0,1,2.68-3.19" transform="translate(-381.14 -128.72)"/><path class="cls-42" d="M883.29,528.18a4.22,4.22,0,0,1-.18.45l-.05.11v0l0,.06-.12.21a.2.2,0,1,0,.33.23,5.46,5.46,0,0,0,.44-1,.22.22,0,0,0-.13-.26.2.2,0,0,0-.25.13" transform="translate(-381.14 -128.72)"/><path class="cls-42" d="M878.37,527s0,.06,0,.09v0a1.76,1.76,0,0,1-.1.3s0,0,0,0a1.59,1.59,0,0,1-.13.22.18.18,0,0,0,.05.27.2.2,0,0,0,.28-.05,1.48,1.48,0,0,0,.28-.7.2.2,0,0,0-.18-.21.2.2,0,0,0-.22.18" transform="translate(-381.14 -128.72)"/><path class="cls-42" d="M873.77,526.08c-.1.19-.2.37-.29.56a.17.17,0,0,0,0,.14.22.22,0,0,0,.08.13.21.21,0,0,0,.15,0,.22.22,0,0,0,.13-.08l.29-.56a.22.22,0,0,0,0-.14A.18.18,0,0,0,874,526a.14.14,0,0,0-.14,0,.2.2,0,0,0-.13.08" transform="translate(-381.14 -128.72)"/><path class="cls-42" d="M870.66,524.63a1,1,0,0,0-.19.53.19.19,0,0,0,0,.14.17.17,0,0,0,.13.07.21.21,0,0,0,.22-.18s0-.07,0-.11v0a1.59,1.59,0,0,1,.07-.2l0,.05a.54.54,0,0,1,.07-.13.18.18,0,0,0,0-.14.2.2,0,0,0-.08-.13.2.2,0,0,0-.28,0" transform="translate(-381.14 -128.72)"/><path class="cls-42" d="M893,502.84a4.49,4.49,0,0,1-.2,1l-.3,1.08c-.19.73-.39,1.46-.59,2.19-.07.24.31.37.37.13.21-.76.42-1.51.62-2.26l.3-1.11a4,4,0,0,0,.2-1c0-.26-.39-.29-.4,0" transform="translate(-381.14 -128.72)"/><path class="cls-42" d="M869.46,531.4l1.24-1.74a8.76,8.76,0,0,0,1-1.66c.1-.24-.28-.37-.37-.13a9.11,9.11,0,0,1-1.06,1.63l-1.19,1.68c-.15.21.18.43.33.22" transform="translate(-381.14 -128.72)"/><path class="cls-41" d="M889.77,433.94S865,498.69,867,518.78h23.73l23.84-77.89" transform="translate(-381.14 -128.72)"/><path class="cls-47" d="M973.08,513.58a51.11,51.11,0,0,1-1.39-6.88c0-6.3,18.23-15.16,18.44-14.93,7,8.05,6.56,32.89,5.65,37.22a2.91,2.91,0,0,0,.08,1.52c.15.64.3,1.28.44,1.92.29,1.24.57,2.48.85,3.72a1.15,1.15,0,0,1-.5,1.23,1.19,1.19,0,0,1-.82.16l.78,1.11a1.16,1.16,0,0,1-.17,1.55,1.25,1.25,0,0,1-1.69-.17l-4.39-4.58a.2.2,0,0,0-.35.17l1.39,7a1.13,1.13,0,0,1-.71,1.29,1.32,1.32,0,0,1-1.55-.63l-2.81-4.93a.22.22,0,0,0-.41.18l2.35,5.64a1.14,1.14,0,0,1-.47,1.44,1.27,1.27,0,0,1-1.63-.43l-7.21-10a8.42,8.42,0,0,1-.41,1.17c-2.32,4-3.92,1.91-3.92,1.91a36.19,36.19,0,0,0,1.42-6.21,8.1,8.1,0,0,1,.35-3.18c.13-.43.87-1.53.74-2-1.38-4.45-2.72-8.91-4.06-13.36" transform="translate(-381.14 -128.72)"/><path class="cls-42" d="M987.44,488.59a8.37,8.37,0,0,0-4.39-2.07.18.18,0,0,0-.2.15.17.17,0,0,0,.15.2c5.89.79,9.13,8.55,10.81,14.92a80.82,80.82,0,0,1,2.27,14.06,48.9,48.9,0,0,1-.47,13.1,2.86,2.86,0,0,0,.07,1.54l.07.32c.13.56.25,1.11.38,1.66l.84,3.72a.94.94,0,0,1-.42,1,1,1,0,0,1-.69.13.18.18,0,0,0-.18.08.2.2,0,0,0,0,.2l.77,1.11a1,1,0,0,1-.13,1.32,1.09,1.09,0,0,1-1.45-.16l-4.39-4.58a.38.38,0,0,0-.46-.08.35.35,0,0,0-.19.4l1.38,7a.93.93,0,0,1-.59,1.09,1.13,1.13,0,0,1-1.33-.54L986,537.36a.34.34,0,0,0-.45-.14.33.33,0,0,0-.16.43l2.76,6.63a1,1,0,0,1-.39,1.22,1.1,1.1,0,0,1-1.4-.38l-7.21-10a.18.18,0,0,0-.17-.07.17.17,0,0,0-.14.13,8,8,0,0,1-.4,1.13c-.86,1.5-1.75,2.32-2.54,2.37a1.34,1.34,0,0,1-1-.41,37.65,37.65,0,0,0,1.4-6.15v-.05a7.82,7.82,0,0,1,.34-3.11,3.86,3.86,0,0,1,.27-.57c.34-.67.57-1.17.47-1.49-1.15-3.7-2.28-7.47-3.38-11.11l-.68-2.25a.18.18,0,0,0-.34.1l.68,2.25c1.1,3.64,2.23,7.41,3.38,11.11.07.22-.24.82-.45,1.22a5.89,5.89,0,0,0-.29.63,8.11,8.11,0,0,0-.35,3.24,36.33,36.33,0,0,1-1.41,6.14.17.17,0,0,0,0,.18,1.66,1.66,0,0,0,1.38.62c.94-.06,1.89-.91,2.84-2.55h0a8.49,8.49,0,0,0,.32-.85l7,9.72a1.47,1.47,0,0,0,1.87.48,1.32,1.32,0,0,0,.54-1.66l-2.68-6.44,3.24,5.7a1.48,1.48,0,0,0,1.76.7,1.29,1.29,0,0,0,.82-1.49l-1.39-7v0h0l4.4,4.59a1.42,1.42,0,0,0,1.93.18,1.34,1.34,0,0,0,.19-1.79l-.57-.83a1.25,1.25,0,0,0,.56-.19,1.32,1.32,0,0,0,.58-1.41c-.28-1.25-.56-2.49-.85-3.73-.12-.55-.25-1.1-.38-1.65l-.07-.33A2.63,2.63,0,0,1,996,529a49.19,49.19,0,0,0,.48-13.19,79.79,79.79,0,0,0-2.28-14.13,35.48,35.48,0,0,0-4-9.93,14.4,14.4,0,0,0-2.69-3.18" transform="translate(-381.14 -128.72)"/><path class="cls-42" d="M981.78,534.45a3.66,3.66,0,0,0,.18.46l0,.11s0,.05,0,0a.21.21,0,0,0,0,.06l.11.22a.2.2,0,0,1,0,.28.21.21,0,0,1-.28-.06,5.42,5.42,0,0,1-.43-.95.2.2,0,0,1,.12-.25.21.21,0,0,1,.26.12" transform="translate(-381.14 -128.72)"/><path class="cls-42" d="M986.69,533.32a.25.25,0,0,1,0,.08v0a1,1,0,0,0,.1.3l0,0a1.1,1.1,0,0,0,.14.21.21.21,0,0,1,0,.28.22.22,0,0,1-.28-.05,1.54,1.54,0,0,1-.29-.7.2.2,0,1,1,.4,0" transform="translate(-381.14 -128.72)"/><path class="cls-42" d="M991.3,532.36l.29.55a.25.25,0,0,1,0,.15.21.21,0,0,1-.24.16.18.18,0,0,1-.12-.09l-.29-.55a.2.2,0,0,1,0-.15.18.18,0,0,1,.08-.13.25.25,0,0,1,.15,0,.2.2,0,0,1,.13.09" transform="translate(-381.14 -128.72)"/><path class="cls-42" d="M994.4,530.91a1.07,1.07,0,0,1,.2.52.27.27,0,0,1-.05.15.22.22,0,0,1-.14.06.17.17,0,0,1-.14,0,.19.19,0,0,1-.07-.14.36.36,0,0,0,0-.1v0a.66.66,0,0,0-.06-.2l0,0-.08-.12a.2.2,0,1,1,.33-.22" transform="translate(-381.14 -128.72)"/><path class="cls-42" d="M972.08,509.11a4,4,0,0,0,.21,1c.09.36.19.71.29,1.07l.6,2.19c.07.25-.31.38-.38.13-.2-.75-.41-1.5-.62-2.26l-.3-1.11a4.37,4.37,0,0,1-.19-1c0-.25.39-.28.39,0" transform="translate(-381.14 -128.72)"/><path class="cls-42" d="M995.61,537.68l-1.24-1.75a8.5,8.5,0,0,1-1.06-1.66c-.1-.24.28-.36.38-.13a8.72,8.72,0,0,0,1,1.63l1.2,1.69c.14.2-.19.43-.33.22" transform="translate(-381.14 -128.72)"/><path class="cls-41" d="M975.29,440.22s24.79,64.75,22.79,84.83H974.35l-23.84-77.88" transform="translate(-381.14 -128.72)"/><polygon class="cls-41" points="542.4 293.56 564.93 292.89 565.27 309.71 533.41 305.56 542.4 293.56"/><line class="cls-48" x1="530.64" y1="321.22" x2="509.57" y2="390.05"/><line class="cls-48" x1="511.02" y1="404.91" x2="502.53" y2="494.41"/><line class="cls-48" x1="593.21" y1="396.33" x2="572.23" y2="327.79"/><path class="cls-6" d="M931,699.69l2.73-.86a5.44,5.44,0,0,0,3.54-6.83L869,476.5a2.43,2.43,0,0,0-3-1.58l-8.47,2.68a2.43,2.43,0,0,0-1.58,3l68.25,215.5a5.44,5.44,0,0,0,6.83,3.54" transform="translate(-381.14 -128.72)"/><polygon class="cls-24" points="496.87 376.28 483.77 380.43 461.59 329.82 485 322.4 496.87 376.28"/><path class="cls-20" d="M866.5,450.5,856,453.81a.49.49,0,0,0,.3.94l9.45-3,11.76,53.35,57.11,180.33a.49.49,0,0,0,.61.32.49.49,0,0,0,.32-.62l-57.1-180.28Z" transform="translate(-381.14 -128.72)"/><path class="cls-20" d="M878,504.52l-.13,0L870.18,507a.49.49,0,0,0,.3.94l7.68-2.44a.48.48,0,0,0,.32-.61.47.47,0,0,0-.48-.34" transform="translate(-381.14 -128.72)"/><path class="cls-20" d="M850.47,458.93a.49.49,0,0,0-.47.43l-.93,7.63a.49.49,0,0,0,.43.55.5.5,0,0,0,.55-.43l.92-7.63a.49.49,0,0,0-.43-.55h-.07" transform="translate(-381.14 -128.72)"/><path class="cls-20" d="M852.27,463.52a.49.49,0,0,0-.47.43l-.93,7.64a.49.49,0,0,0,1,.11l.92-7.63a.49.49,0,0,0-.43-.55h-.07" transform="translate(-381.14 -128.72)"/><path class="cls-21" d="M851.52,405.29c-1.78,6.48-3.54,12.78-3.54,12.78l-3-11.8a63.26,63.26,0,0,0-24.54,11c2.69,5.06,5.22,9.88,5.37,10.34s-3.93-4.22-7.64-8.6a51.42,51.42,0,0,0-7.26,6.92l31.74,32.51,23.53-7.25L870,406.35a63.49,63.49,0,0,0-18.5-1.06" transform="translate(-381.14 -128.72)"/></g></g></g></svg>