<svg xmlns="http://www.w3.org/2000/svg" xmlns:xlink="http://www.w3.org/1999/xlink" viewBox="0 0 1226.5 1226.46"><defs><style>.cls-1{fill:none;}.cls-2{isolation:isolate;}.cls-3{fill:#353131;}.cls-4{fill:#feefdc;}.cls-5{fill:#f7d5d5;}.cls-6{fill:#cf7675;}.cls-7{fill:#db8989;}.cls-8{fill:#e29a9a;}.cls-9{fill:#edabab;}.cls-10{fill:#eae4e4;}.cls-11{fill:#a79f9f;}.cls-12{fill:#b5b0b0;}.cls-13{fill:#bfbebe;}.cls-14{fill:#d1cfcf;}.cls-15{fill:#e8dada;}.cls-16{fill:#867878;}.cls-17{fill:#998c8c;}.cls-18{fill:#ad9f9f;}.cls-19{fill:#c1b4b4;}.cls-20{fill:#fff;}.cls-21{fill:url(#linear-gradient);}.cls-22{fill:#4c222e;}.cls-23{fill:#d5b7b6;}.cls-24{fill:#c9c0c0;}.cls-25{fill:#f2a0a0;}.cls-26{clip-path:url(#clip-path);}.cls-27{fill:url(#linear-gradient-2);}.cls-28{fill:#f0f4f7;}.cls-29{fill:#fffffd;}.cls-30{fill:#0c113e;}.cls-31{fill:#c6a7a7;}.cls-32{fill:#fce3e3;}.cls-33{clip-path:url(#clip-path-2);}.cls-34{fill:url(#linear-gradient-3);}.cls-35{fill:#edd6d6;}.cls-36{fill:url(#linear-gradient-4);}.cls-37{fill:#c4a1a1;}.cls-38{fill:#fcf1e3;}.cls-39{mix-blend-mode:multiply;opacity:0.3;}.cls-40{fill:#ef3a4c;}.cls-41{opacity:0.3;}.cls-42{fill:#8e8786;}</style><linearGradient id="linear-gradient" x1="415.8" y1="335.16" x2="775.42" y2="723.99" gradientUnits="userSpaceOnUse"><stop offset="0" stop-color="#c66665"/><stop offset="1" stop-color="#d4b6b5"/></linearGradient><clipPath id="clip-path"><path class="cls-1" d="M916.94,144.33c-28.94,13.31-36.53,57.61,3.09,71,8,2.69,15.08,5,21.43,6.93,7.21,2.17,13.42,3.81,18.72,4.85,11.14,3.87,18.72,8.6,23.87,13.14a15.72,15.72,0,0,1-.68,23.94c-29.68,24.42-18.61,65.39,4.33,93.52,47.21,57.91-33.63,129.86-40.59,152.19s5.27,35.23,20.4,27.16c0,0,146.35-39.27,138.76-153.09-4.27-64-41.74-117.08-78.25-129.11h0c-33.71-16.15-40.45-45.38-41.79-55.31-.08-1.15-.2-2.28-.32-3.39v0h0c-4.11-36.16-29.63-55.24-52.77-55.24a38.69,38.69,0,0,0-16.23,3.46"/></clipPath><linearGradient id="linear-gradient-2" x1="1712.41" y1="1218.93" x2="1713.78" y2="1218.93" gradientTransform="matrix(156.16, 0, 0, -156.16, -266525.27, 190696.62)" xlink:href="#linear-gradient"/><clipPath id="clip-path-2"><path class="cls-1" d="M1084.76,500.81c-5.08,1.34-8.19,5-8.25,10,0,4.34,1.58,8.11,6,9.95,4.62,1.91,10.06.53,14.47-1.41,0,0,.41,5.59,5.19,7a10.51,10.51,0,0,0,7.94-.65c.6,6.66-.06,13.19-6.18,15.8-9.18,3.92-20.16,1.2-29.57-2a21.17,21.17,0,0,0-1.12,3.31c-2.08,8.51-.17,25.58,11.7,28.06,13.77,1.73,22.4-4.38,27.31-15.31.64-1.4.67-3.36.92-4.86s.43-2.85.6-4.29l8.07,3.1,0-28h0s10.07-.56,7.25-2.77c-2-1.56-4.77.45-6.24,1.78,1.43-1.48,3.7-4.17,2.07-4.86-2.28-1-2.6,1.89-2.6,1.89l-.41,3.37q0-.22-.09-.48v0h0a7.92,7.92,0,0,0-.26-1,7.61,7.61,0,0,0-1.91-2.47c-.82-.75-3.11-2.44-4.21-2.54.85.07.65-2.4.61-2.8a9,9,0,0,0-1.76-4.49,7.27,7.27,0,0,0-3.88-2.44c-5.67-1.77-8.58,2.09-8.58,2.09a13.74,13.74,0,0,0-12-6.51,19.66,19.66,0,0,0-5,.69"/></clipPath><linearGradient id="linear-gradient-3" x1="1741.41" y1="1182.68" x2="1742.77" y2="1182.68" gradientTransform="matrix(-51.86, 0, 0, 51.86, 91442.27, -60796.73)" xlink:href="#linear-gradient"/><linearGradient id="linear-gradient-4" x1="943.2" y1="911.45" x2="1105.77" y2="911.45" xlink:href="#linear-gradient"/></defs><g class="cls-2"><g id="Layer_2" data-name="Layer 2"><g id="Layer_1-2" data-name="Layer 1"><path class="cls-3" d="M1006.52,1137.31l-16.12,10.1a1.83,1.83,0,0,0,1,3.39h69.9l-.44-13.49Z"/><path class="cls-3" d="M1083.39,1141.83,1070,1155.37a1.84,1.84,0,0,0,1.73,3.08l68-16.13-3.54-13Z"/><path class="cls-4" d="M262.94,489.54c37.09-19.57,58.82-51.85,48.54-72.1s-48.7-20.8-85.8-1.23-58.82,51.85-48.54,72.1,48.7,20.8,85.8,1.23"/><path class="cls-4" d="M155.35,420.27c14.12-6.09,23-17.28,19.76-25s-17.24-9-31.36-2.92-23,17.28-19.77,25,17.25,9,31.37,2.92"/><rect class="cls-5" x="346.03" y="8.49" width="194.47" height="675.24" transform="translate(-106.8 229.04) rotate(-25.97)"/><rect class="cls-6" x="247.31" y="53.94" width="161.26" height="110.78" transform="translate(-14.76 154.64) rotate(-25.97)"/><rect class="cls-7" x="304.23" y="170.81" width="161.26" height="110.78" transform="translate(-60.19 191.36) rotate(-25.97)"/><rect class="cls-8" x="361.15" y="287.67" width="161.26" height="110.78" transform="translate(-105.62 228.09) rotate(-25.97)"/><rect class="cls-9" x="418.07" y="404.53" width="161.26" height="110.78" transform="translate(-151.04 264.81) rotate(-25.97)"/><rect class="cls-10" x="269.51" y="68.53" width="194.47" height="675.24" transform="translate(-179.94 430.52) rotate(-50.47)"/><rect class="cls-11" x="82.99" y="183.14" width="161.26" height="110.78" transform="translate(-124.5 212.91) rotate(-50.47)"/><rect class="cls-12" x="183.25" y="265.87" width="161.26" height="110.78" transform="translate(-151.86 320.31) rotate(-50.47)"/><rect class="cls-13" x="283.51" y="348.61" width="161.26" height="110.78" transform="translate(-179.23 427.72) rotate(-50.47)"/><rect class="cls-14" x="383.77" y="431.34" width="161.26" height="110.78" transform="translate(-206.6 535.13) rotate(-50.47)"/><rect class="cls-15" x="253.24" y="157.37" width="194.47" height="675.24" transform="translate(-206.76 734.44) rotate(-77.95)"/><rect class="cls-16" x="12.29" y="384.63" width="161.26" height="110.78" transform="translate(-356.81 439.05) rotate(-77.95)"/><rect class="cls-17" x="139.41" y="411.76" width="161.26" height="110.78" transform="translate(-282.75 584.84) rotate(-77.95)"/><rect class="cls-18" x="266.54" y="438.89" width="161.26" height="110.78" transform="translate(-208.69 730.64) rotate(-77.95)"/><rect class="cls-19" x="393.66" y="466.02" width="161.26" height="110.78" transform="translate(-134.63 876.43) rotate(-77.95)"/><rect class="cls-3" x="385.32" y="980.62" width="510.63" height="40.94"/><polygon class="cls-3" points="876.82 858.06 932.52 1144.12 891.59 1144.12 835.88 858.06 876.82 858.06"/><rect class="cls-20" x="395.05" y="205.09" width="489.15" height="657.11"/><rect class="cls-3" x="469.62" y="164.15" width="342.03" height="40.94"/><polygon class="cls-3" points="397.07 858.06 341.36 1144.12 382.3 1144.12 438 858.06 397.07 858.06"/><rect class="cls-3" x="335.91" y="841.74" width="609.44" height="40.94"/><path class="cls-3" d="M945.35,883.38H335.21V841H624.6a.7.7,0,1,1,0,1.4h-288V882H945.35a.7.7,0,1,1,0,1.4"/><path class="cls-21" d="M487.42,319.67s-64.13,123.28,13,244.6S720.4,702.38,720.4,702.38,678.72,687.45,656,653.17c0,0,87.63,44.34,160.92,28,0,0-271.39-148.39-295.79-351.95l-6.95-31.84Z"/><path class="cls-6" d="M719.08,835.45H639.9A11.43,11.43,0,0,1,628.47,824v-71.9a6.43,6.43,0,0,1,6.43-6.43h87.93a7.68,7.68,0,0,1,7.68,7.68V824a11.43,11.43,0,0,1-11.43,11.43"/><rect class="cls-22" x="641.95" y="835.45" width="75.09" height="6.18"/><rect class="cls-22" x="641.95" y="739.51" width="75.09" height="6.18"/><rect class="cls-11" x="632.67" y="721.64" width="93.64" height="19.58"/><rect class="cls-23" x="628.47" y="774.64" width="102.04" height="34.75"/><rect class="cls-24" x="636.5" y="721.64" width="4.05" height="19.58"/><rect class="cls-24" x="648.2" y="721.64" width="4.05" height="19.58"/><rect class="cls-24" x="659.91" y="721.64" width="4.05" height="19.58"/><rect class="cls-24" x="671.61" y="721.64" width="4.05" height="19.58"/><rect class="cls-24" x="683.32" y="721.64" width="4.05" height="19.58"/><rect class="cls-24" x="695.03" y="721.64" width="4.05" height="19.58"/><rect class="cls-24" x="706.73" y="721.64" width="4.05" height="19.58"/><rect class="cls-24" x="718.44" y="721.64" width="4.05" height="19.58"/><path class="cls-11" d="M822.21,836.46H757.8a9.81,9.81,0,0,1-9.8-9.81V767.71a6.36,6.36,0,0,1,6.36-6.36h72a7,7,0,0,1,7,7v56.94a11.17,11.17,0,0,1-11.17,11.17"/><rect class="cls-22" x="759.27" y="836.46" width="62.84" height="5.17"/><rect class="cls-22" x="759.27" y="756.17" width="62.84" height="5.18"/><rect class="cls-6" x="751.51" y="741.22" width="78.36" height="16.39"/><rect class="cls-23" x="748" y="785.57" width="85.38" height="29.08"/><rect class="cls-25" x="754.71" y="741.22" width="3.39" height="16.39"/><rect class="cls-25" x="764.51" y="741.22" width="3.39" height="16.39"/><rect class="cls-25" x="774.3" y="741.22" width="3.39" height="16.39"/><rect class="cls-25" x="784.1" y="741.22" width="3.39" height="16.39"/><rect class="cls-25" x="793.89" y="741.22" width="3.39" height="16.39"/><rect class="cls-25" x="803.69" y="741.22" width="3.39" height="16.39"/><rect class="cls-25" x="813.48" y="741.22" width="3.39" height="16.39"/><rect class="cls-25" x="823.28" y="741.22" width="3.39" height="16.39"/><path class="cls-11" d="M587.58,364.88s39.23,141.3,165.52,123.2C872.53,471,824.38,339.57,824.38,339.57s-2.91,55.71-25.63,70.71c0,0,12.78-42.94-18.87-87.66,0,0,28.33,191.59-192.3,42.26"/><g class="cls-26"><rect class="cls-27" x="880.41" y="140.87" width="233.46" height="404.23"/></g><path class="cls-28" d="M1003.28,1143.4l-.26-.59a50.27,50.27,0,0,1,23.17-3l-.06.64a49.66,49.66,0,0,0-22.85,2.94"/><path class="cls-28" d="M1089.88,1150.85l-.39-.51a50.41,50.41,0,0,1,21.86-8.26l.08.64a49.94,49.94,0,0,0-21.55,8.13"/><path class="cls-29" d="M1135.94,1134.71c19.21-4.06,43.15-12.25,43.15-12.25S1167.18,999.12,1166.26,952q-1.48-76.18-3-152.36-1.66-85.07-3.32-170.14c5.52-.08,17.58,2.47,22.69,4,6.59,2-2.33-33-6.35-37-11.3-11.25-38.75-5.63-52.64-5.32-27,.61-53.47-6.5-80.37-8.36-20.66-1.43-28.26,11.57-34.9,29.91,0,0,17.89-1,24.89,2.88.77.43-1.12,11.88-1.21,12.82q-10.29,109.18-20.59,218.39L997.19,998.65c-4.88,51.75-4.62,89-8.24,140.77,17.27-11.4,34.6,3.73,55.29,3.71,27.83,0,55.52-3.52,83.14-7,3-.38,5.85-.84,8.56-1.42"/><path class="cls-30" d="M1083.67,565.34l-4.15,18.18s23,13.29,35.91-28.22l-4.81-6.15Z"/><path class="cls-31" d="M1120.67,601.17l1.19-51.76-7.34,1.21c-1.45,12.28-7.42,24.18-19.52,30.86-5.58,3.08-9.4,3.34-15.49,2l-5.74,20.56Z"/><path class="cls-32" d="M1104,541.44c9-3.82,6.2-16.09,5-24.81-7.94,0-16.37-.66-24.11-.42-.44,0-1.08.83-1.48,1s4.77,5.17,4.31,5.53c-4.08,3.18-10.35,9.87-13.24,16.63,9.41,3.24,20.39,6,29.57,2"/><path class="cls-20" d="M1075.08,539.48l-.65-.28c2.77-6.49,8.74-13.14,13.18-16.65a25.66,25.66,0,0,0-2.08-2.43c-1.85-2-2.3-2.56-2.23-3a.43.43,0,0,1,.22-.3l.33.62a.26.26,0,0,0,.14-.28,18.17,18.17,0,0,0,2.06,2.44c1.82,2,2.35,2.62,2.32,3a.4.4,0,0,1-.17.3c-4.39,3.42-10.37,10-13.12,16.5"/><g class="cls-33"><rect class="cls-34" x="1055.01" y="491.92" width="93.05" height="88.78" transform="matrix(0.5, -0.87, 0.87, 0.5, 86.31, 1222.11)"/></g><path class="cls-35" d="M1121.3,546c-1.91-1.94-4.94-2.2-7.29-1.55a108.12,108.12,0,0,1-1.74,11l.06-.12a6.8,6.8,0,0,0,8-1.54c1.87-2.21,2.93-5.76.93-7.79"/><path class="cls-20" d="M1088.7,546.71a48.06,48.06,0,0,0-9.33-1.28h0c0,.49,0,1,.06,1.5a35.42,35.42,0,0,1,8.14,1.64,12.61,12.61,0,0,0,1.11-1.87"/><path class="cls-30" d="M1079.45,546.94a5.69,5.69,0,0,0,.85,2.67,3.45,3.45,0,0,0,.72.76,4.26,4.26,0,0,0,4.64,0,6.1,6.1,0,0,0,1.58-1.37c.12-.14.24-.3.35-.45a35.42,35.42,0,0,0-8.14-1.64"/><path class="cls-20" d="M1035.36,617.23c-7.24-4.77-16.59-6.85-25.62-8.38l.12-.69c9.1,1.54,18.54,3.64,25.89,8.48Z"/><path class="cls-20" d="M1126.35,538.77h-.06a.35.35,0,0,1-.35-.36,1.37,1.37,0,0,0-.57-1,3.34,3.34,0,0,0-1.83-.76l-51-6a.34.34,0,0,1-.31-.39.35.35,0,0,1,.39-.31l51,5.95a4.06,4.06,0,0,1,2.22.93,2.06,2.06,0,0,1,.81,1.6.36.36,0,0,1-.3.34"/><path class="cls-20" d="M1080.79,540.22a8.91,8.91,0,0,1-2.31.06,7.79,7.79,0,0,1-5.34-3,7.1,7.1,0,0,1-1.4-5.4,7.3,7.3,0,0,1,.49-1.75.36.36,0,0,1,.37-.21l14.54,1.68a.36.36,0,0,1,.31.32,6.68,6.68,0,0,1,0,1.79,7.9,7.9,0,0,1-6.63,6.48m-8-9.54a7.48,7.48,0,0,0-.35,1.33,6.39,6.39,0,0,0,1.27,4.87,7,7,0,0,0,4.86,2.69,7.31,7.31,0,0,0,8.16-5.93,6,6,0,0,0,0-1.34Z"/><path class="cls-20" d="M1095.9,542a8.55,8.55,0,0,1-2.32,0,7.75,7.75,0,0,1-5.34-3,7.08,7.08,0,0,1-1.4-5.4,7.26,7.26,0,0,1,.5-1.74.34.34,0,0,1,.36-.21l14.55,1.68a.36.36,0,0,1,.31.31,7.19,7.19,0,0,1,0,1.8,7.92,7.92,0,0,1-6.62,6.48m-8-9.54a6,6,0,0,0-.35,1.33,6.39,6.39,0,0,0,1.26,4.86,7.06,7.06,0,0,0,4.86,2.7,7.32,7.32,0,0,0,8.17-5.94,6.5,6.5,0,0,0,.05-1.33Z"/><path class="cls-30" d="M1084.59,538l-3.16,3.21a.4.4,0,0,0,.21.7,29.51,29.51,0,0,1,3.59.8.4.4,0,0,0,.51-.22.41.41,0,0,0-.23-.52,30.38,30.38,0,0,0-3.78-.85c.06.23.14.47.21.7l3.16-3.21a.4.4,0,1,0-.51-.61"/><path class="cls-30" d="M1092.1,534.72a5.89,5.89,0,0,0-.43,1.41c-.08.48-.19,1.14.25,1.47a.71.71,0,0,0,.84,0,1,1,0,0,0,.34-.68,15.08,15.08,0,0,0,.23-1.5,1.37,1.37,0,0,0-.06-.85.76.76,0,0,0-.33-.31.48.48,0,0,0-.5.1.42.42,0,0,0-.06.56.4.4,0,0,0,.56,0c.1-.1,0-.1-.34,0,0,0,0,0,0,0s0,0,0,0h0c0-.07,0-.07,0,0v0c0,.07,0,.13,0,.2,0,.24,0,.48-.08.71s-.07.45-.11.67,0,.25-.08.38c0-.09,0,0,0,0s0,0,0,0a.14.14,0,0,1,.12-.07h0s0,0,0,0,0,0,0,0,0-.05,0-.08v0a4.2,4.2,0,0,1,.06-.61,5.16,5.16,0,0,1,.39-1.23.4.4,0,0,0-.23-.52.41.41,0,0,0-.51.23"/><path class="cls-30" d="M1083,533.82a3.92,3.92,0,0,0-.59,2.6.4.4,0,0,0,.71.17,3.82,3.82,0,0,0,.7-2.74.4.4,0,0,0-.46-.32.4.4,0,0,0-.33.45,1.53,1.53,0,0,1,0,.3s0,0,0,0v.24l0,.3,0,.14,0,.08c0,.06,0-.09,0,0a3.49,3.49,0,0,1-.2.57s0,.09-.07.13,0,0,0,0a.25.25,0,0,0,0,.07,2.11,2.11,0,0,1-.18.27l.72.16a1.53,1.53,0,0,1,0-.3v-.2a3.6,3.6,0,0,1,.08-.56c0-.05,0-.05,0,0s0-.05,0-.08l0-.11c0-.1.07-.19.11-.29a2.56,2.56,0,0,1,.11-.24l0-.07s0,0,0,0l.08-.14a.41.41,0,0,0-.09-.55.4.4,0,0,0-.55.09"/><path class="cls-30" d="M1084.22,529.05a4.2,4.2,0,0,1,3.34-.59.4.4,0,0,0,.44-.35.41.41,0,0,0-.35-.44,5,5,0,0,0-3.93.77.41.41,0,0,0,0,.56.38.38,0,0,0,.55,0"/><path class="cls-30" d="M1093.75,528.69a4.63,4.63,0,0,1,3.14,1.07.41.41,0,0,0,.56-.09.42.42,0,0,0-.09-.56,5.45,5.45,0,0,0-3.74-1.2.39.39,0,0,0-.33.45.41.41,0,0,0,.46.33"/><path class="cls-30" d="M1115.38,550.74a16.56,16.56,0,0,0,3-3.53c.28-.43-.36-.89-.64-.46a16.21,16.21,0,0,1-2.91,3.38c-.39.33.11.94.5.61"/><path class="cls-30" d="M1117,549.16l.11.08.05,0,0,0,0,0,0,0,.09.11a1,1,0,0,1,.08.11s0,0,0,0,0,0,0,0a1.89,1.89,0,0,1,.11.25s0,0,0,0,0,0,0,0a.61.61,0,0,1,0,.13,1.07,1.07,0,0,1,0,.25c0,.08,0,0,0,0v.2s0,.07,0,.12,0,.09,0,0v0a.4.4,0,0,0,.23.51.39.39,0,0,0,.51-.22,2.25,2.25,0,0,0-.88-2.46.4.4,0,0,0-.55.09.41.41,0,0,0,.09.55"/><path class="cls-35" d="M1015.24,752.17c.4,0,2.76-12.47,2.76-13.69,0-12.53-36.27-30.16-36.68-29.69-14,16-13.05,65.43-11.24,74a5.7,5.7,0,0,1-.17,3l-.87,3.81c-.57,2.47-1.12,4.94-1.68,7.42a2.26,2.26,0,0,0,1,2.44,2.33,2.33,0,0,0,1.62.31L968.43,802a2.3,2.3,0,0,0,.33,3.09,2.5,2.5,0,0,0,3.36-.34l8.74-9.11a.4.4,0,0,1,.7.33l-2.76,14a2.24,2.24,0,0,0,1.4,2.57,2.61,2.61,0,0,0,3.08-1.24l5.59-9.82a.45.45,0,0,1,.83.36L985,813.11A2.25,2.25,0,0,0,986,816a2.56,2.56,0,0,0,3.25-.85l14.34-19.92a17.82,17.82,0,0,0,.81,2.33c4.62,8,7.81,3.8,7.81,3.8-1.47-3.16-2.84-12.35-2.84-12.35a16.1,16.1,0,0,0-.69-6.34c-.27-.86-1.74-3-1.47-3.9,2.74-8.84,5.4-17.71,8.08-26.57"/><path class="cls-30" d="M986.66,702.45a16.69,16.69,0,0,1,8.74-4.11.36.36,0,0,1,.4.3.35.35,0,0,1-.3.4c-11.72,1.57-18.16,17-21.5,29.68a159.73,159.73,0,0,0-4.52,28c-.53,8.88-.85,17.56.94,26.06a5.78,5.78,0,0,1-.14,3.07l-.14.63c-.26,1.1-.51,2.19-.76,3.29q-.84,3.71-1.67,7.41a1.9,1.9,0,0,0,.83,2.07,2,2,0,0,0,1.38.26.36.36,0,0,1,.35.16.37.37,0,0,1,0,.39l-1.54,2.21a2,2,0,0,0,.27,2.62,2.14,2.14,0,0,0,2.87-.32l8.75-9.1a.77.77,0,0,1,.91-.17.73.73,0,0,1,.38.81l-2.76,14a1.89,1.89,0,0,0,1.18,2.17,2.27,2.27,0,0,0,2.65-1.09l6.66-11.68a.67.67,0,0,1,.9-.28.65.65,0,0,1,.31.85l-5.49,13.19a1.9,1.9,0,0,0,.78,2.43,2.19,2.19,0,0,0,2.78-.76L1003.25,795a.34.34,0,0,1,.35-.14.36.36,0,0,1,.28.25,19,19,0,0,0,.78,2.26c1.73,3,3.48,4.61,5.07,4.71a2.65,2.65,0,0,0,2-.81c-1.43-3.34-2.72-11.87-2.77-12.24a.14.14,0,0,1,0-.09,15.55,15.55,0,0,0-.68-6.2,10.85,10.85,0,0,0-.53-1.14c-.68-1.32-1.14-2.31-.94-3,2.28-7.36,4.54-14.85,6.73-22.1l1.35-4.47a.35.35,0,1,1,.67.2l-1.35,4.47c-2.18,7.25-4.44,14.75-6.73,22.1-.13.44.48,1.64.9,2.44a9.88,9.88,0,0,1,.57,1.25,16.19,16.19,0,0,1,.71,6.44c.11.69,1.43,9.25,2.81,12.22a.36.36,0,0,1,0,.36,3.37,3.37,0,0,1-2.75,1.23c-1.87-.12-3.77-1.82-5.65-5.07l0,0s-.32-.74-.62-1.69l-13.92,19.33a2.9,2.9,0,0,1-3.7,1A2.6,2.6,0,0,1,984.7,813L990,800.16l-6.45,11.35a2.94,2.94,0,0,1-3.5,1.4,2.58,2.58,0,0,1-1.63-3l2.76-14s0,0,0,0a.08.08,0,0,0-.09,0L972.37,805a2.82,2.82,0,0,1-3.84.37,2.68,2.68,0,0,1-.39-3.57l1.15-1.63a2.58,2.58,0,0,1-1.12-.38A2.62,2.62,0,0,1,967,797q.83-3.71,1.68-7.42l.75-3.28.15-.64a5.23,5.23,0,0,0,.13-2.77c-1.8-8.59-1.48-17.31-1-26.24a161.87,161.87,0,0,1,4.55-28.11c2.15-8.17,4.85-14.82,8-19.75a29.1,29.1,0,0,1,5.34-6.34"/><path class="cls-30" d="M997.93,793.69a8.83,8.83,0,0,1-.35.9l-.11.23v0l-.06.12-.24.44a.4.4,0,0,0,.66.44,10.07,10.07,0,0,0,.86-1.89.39.39,0,0,0-.24-.5.4.4,0,0,0-.51.24"/><path class="cls-30" d="M988.16,791.43l0,.17s0-.06,0-.09a2.57,2.57,0,0,1-.2.59.36.36,0,0,1,0-.09,2.39,2.39,0,0,1-.27.43.41.41,0,0,0,.11.55.4.4,0,0,0,.55-.11,2.94,2.94,0,0,0,.57-1.39.41.41,0,0,0-.37-.42.4.4,0,0,0-.42.36"/><path class="cls-30" d="M979,789.52l-.57,1.1a.44.44,0,0,0-.06.29.39.39,0,0,0,.17.26.33.33,0,0,0,.29.06.38.38,0,0,0,.26-.17l.57-1.1a.4.4,0,0,0-.4-.61.39.39,0,0,0-.26.17"/><path class="cls-30" d="M972.82,786.64a2.07,2.07,0,0,0-.39,1,.45.45,0,0,0,.1.29.41.41,0,0,0,.56,0,.35.35,0,0,0,.13-.27l0-.21a.3.3,0,0,1,0,.1,2.12,2.12,0,0,1,.14-.4l0,.1.15-.25a.39.39,0,0,0,.06-.3.38.38,0,0,0-.16-.25.4.4,0,0,0-.55.11"/><path class="cls-30" d="M1017.21,743.28a8.29,8.29,0,0,1-.4,2l-.58,2.14c-.4,1.45-.79,2.91-1.19,4.36-.14.49.61.75.75.25l1.23-4.49.6-2.21a8.76,8.76,0,0,0,.38-2c0-.5-.77-.57-.79-.06"/><path class="cls-30" d="M970.42,800.11l2.47-3.48a17.24,17.24,0,0,0,2.1-3.3c.19-.47-.56-.73-.75-.26a16.8,16.8,0,0,1-2.1,3.24l-2.38,3.36c-.29.41.37.85.66.44"/><path class="cls-29" d="M1010.83,606.23S961.53,735,965.5,775h47.2l47.43-154.93"/><path class="cls-35" d="M1176.55,764.65c-.41,0-2.77-12.47-2.77-13.69,0-12.53,36.27-30.16,36.68-29.69,14,16,13.06,65.43,11.25,74a5.79,5.79,0,0,0,.16,3c.29,1.27.59,2.54.88,3.82l1.68,7.41a2.26,2.26,0,0,1-1,2.44,2.29,2.29,0,0,1-1.61.31l1.54,2.21a2.31,2.31,0,0,1-.34,3.09,2.47,2.47,0,0,1-3.35-.34l-8.74-9.11a.4.4,0,0,0-.7.33l2.76,14a2.23,2.23,0,0,1-1.4,2.56,2.61,2.61,0,0,1-3.08-1.24l-5.6-9.82a.45.45,0,0,0-.82.36l4.67,11.23a2.25,2.25,0,0,1-.93,2.87,2.55,2.55,0,0,1-3.24-.86l-14.34-19.91a18.5,18.5,0,0,1-.81,2.33c-4.63,8-7.81,3.8-7.81,3.8,1.46-3.16,2.84-12.36,2.84-12.36a15.92,15.92,0,0,1,.69-6.34c.27-.86,1.74-3,1.47-3.9-2.74-8.84-5.4-17.71-8.08-26.57"/><path class="cls-30" d="M1205.12,714.93a16.64,16.64,0,0,0-8.74-4.1.34.34,0,0,0-.39.3.36.36,0,0,0,.3.4c11.72,1.57,18.16,17,21.5,29.67a159.87,159.87,0,0,1,4.52,28c.53,8.88.84,17.56-.94,26.06a5.78,5.78,0,0,0,.14,3.07l.14.64c.25,1.09.5,2.19.76,3.29q.84,3.69,1.67,7.4a1.9,1.9,0,0,1-.83,2.07,2,2,0,0,1-1.38.26.35.35,0,0,0-.34.55l1.54,2.21a2,2,0,0,1-.27,2.62,2.14,2.14,0,0,1-2.88-.31l-8.74-9.11a.75.75,0,0,0-.91-.16.71.71,0,0,0-.38.8l2.76,14a1.88,1.88,0,0,1-1.18,2.16,2.26,2.26,0,0,1-2.65-1.08L1202.16,812a.68.68,0,0,0-.9-.29.65.65,0,0,0-.31.85l5.49,13.2a1.89,1.89,0,0,1-.78,2.42,2.19,2.19,0,0,1-2.78-.76l-14.34-19.91a.37.37,0,0,0-.35-.14.36.36,0,0,0-.28.25,19.48,19.48,0,0,1-.78,2.27c-1.73,3-3.48,4.6-5.07,4.7a2.64,2.64,0,0,1-2-.81c1.44-3.33,2.72-11.87,2.78-12.24a.27.27,0,0,0,0-.09,15.5,15.5,0,0,1,.68-6.19,9.25,9.25,0,0,1,.53-1.14c.68-1.33,1.14-2.31.94-3-2.28-7.36-4.54-14.85-6.73-22.1l-1.35-4.47a.36.36,0,0,0-.44-.24.36.36,0,0,0-.23.44l1.34,4.48c2.19,7.24,4.45,14.74,6.73,22.1.14.43-.48,1.64-.89,2.43a9.58,9.58,0,0,0-.58,1.26,16.31,16.31,0,0,0-.7,6.43c-.11.69-1.44,9.25-2.81,12.22a.34.34,0,0,0,0,.36,3.37,3.37,0,0,0,2.75,1.23c1.87-.11,3.77-1.82,5.65-5.07,0,0,0,0,0,0a15.52,15.52,0,0,0,.62-1.68l13.92,19.33a2.92,2.92,0,0,0,3.71,1,2.59,2.59,0,0,0,1.08-3.3l-5.33-12.82,6.45,11.36a2.93,2.93,0,0,0,3.5,1.39,2.58,2.58,0,0,0,1.63-3l-2.76-14s0,0,0,0,.05,0,.08,0l8.75,9.11a2.82,2.82,0,0,0,3.83.36,2.65,2.65,0,0,0,.39-3.56l-1.14-1.64a2.6,2.6,0,0,0,2.27-3.2c-.56-2.47-1.11-4.94-1.68-7.41l-.75-3.29-.15-.64a5.2,5.2,0,0,1-.13-2.76c1.8-8.59,1.48-17.32,1-26.25a160.23,160.23,0,0,0-4.54-28.11c-2.15-8.17-4.85-14.82-8-19.75a28.78,28.78,0,0,0-5.34-6.34"/><path class="cls-30" d="M1193.86,806.17c.1.31.22.61.35.91l.11.22s0,.11,0,0a.6.6,0,0,0,.06.11,3.75,3.75,0,0,0,.24.44.4.4,0,0,1-.66.44,10.79,10.79,0,0,1-.87-1.89.41.41,0,0,1,.25-.5.42.42,0,0,1,.51.24"/><path class="cls-30" d="M1203.63,803.92l0,.17a.44.44,0,0,1,0-.1,2.64,2.64,0,0,0,.2.6l0-.09a1.88,1.88,0,0,0,.27.42.4.4,0,0,1-.66.45,3,3,0,0,1-.57-1.39.4.4,0,0,1,.37-.43.41.41,0,0,1,.42.37"/><path class="cls-30" d="M1212.8,802l.57,1.1a.46.46,0,0,1,.06.3.41.41,0,0,1-.17.26.4.4,0,0,1-.55-.11l-.57-1.1a.46.46,0,0,1-.06-.3.43.43,0,0,1,.16-.26.43.43,0,0,1,.56.11"/><path class="cls-30" d="M1219,799.12a2.06,2.06,0,0,1,.38,1,.38.38,0,0,1-.09.29.36.36,0,0,1-.27.14.41.41,0,0,1-.43-.37.64.64,0,0,0,0-.2.3.3,0,0,1,0,.1,1.44,1.44,0,0,0-.13-.4l0,.09a1.28,1.28,0,0,0-.15-.25.4.4,0,0,1,.11-.55.41.41,0,0,1,.55.11"/><path class="cls-30" d="M1174.58,755.77a8.28,8.28,0,0,0,.39,2l.59,2.15c.4,1.45.79,2.9,1.19,4.35.13.49-.62.75-.75.26l-1.23-4.5-.6-2.21a8.68,8.68,0,0,1-.38-2c0-.51.77-.57.79-.06"/><path class="cls-30" d="M1221.36,812.59l-2.46-3.48a17,17,0,0,1-2.1-3.29c-.19-.48.56-.73.75-.26a17.11,17.11,0,0,0,2.1,3.24l2.37,3.35c.3.41-.36.86-.66.44"/><path class="cls-29" d="M1177.2,597.7s53.06,149.82,49.09,189.77h-47.2l-47.43-154.93"/><polygon class="cls-29" points="1078.02 583.03 1122.84 581.71 1123.52 615.17 1060.13 606.91 1078.02 583.03"/><path class="cls-36" d="M1092.78,1134.88l5.43-1.72a10.83,10.83,0,0,0,7-13.59L969.48,690.9a4.82,4.82,0,0,0-6.06-3.15l-16.85,5.33a4.85,4.85,0,0,0-3.15,6.07l135.77,428.68a10.83,10.83,0,0,0,13.59,7.05"/><polygon class="cls-23" points="987.44 747.6 961.38 755.85 917.25 655.16 963.82 640.41 987.44 747.6"/><path class="cls-3" d="M934.74,549.24c-3.54,12.88-7,25.41-7,25.41l-6.05-23.47a125.77,125.77,0,0,0-48.81,22c5.35,10.07,10.38,19.65,10.68,20.56.36,1.09-7.81-8.4-15.19-17.1a102.5,102.5,0,0,0-14.45,13.75L917,655l46.81-14.42,7.72-89.26a126.28,126.28,0,0,0-36.8-2.1"/><path class="cls-6" d="M541.07,812s8.86,0,13,3.33,4.89,11.64,10.36,13.75,31.1.11,34.26,7.76.82,7.65.82,7.65H556.38a7.46,7.46,0,0,1-4.69-4.21c-1.67-3.55-6-10.14-12.76-11.35S541.07,812,541.07,812"/><polygon class="cls-23" points="529.13 796.52 535.48 809.82 534.8 830.61 527.58 843.46 516.98 817.14 529.13 796.52"/><polygon class="cls-23" points="527.58 843.46 529.13 796.52 363.04 785.1 361.1 843.91 527.58 843.46"/><rect class="cls-23" x="528.88" y="816.21" width="20.8" height="8.28" transform="translate(-298.4 1332.3) rotate(-88.11)"/><path class="cls-37" d="M539.7,831l.71-21.33a.79.79,0,0,1,.81-.77h.27a.79.79,0,0,1,.76.82l-.7,21.33a.79.79,0,0,1-.82.77h-.26a.79.79,0,0,1-.77-.82"/><polygon class="cls-23" points="382.74 786.45 363.04 785.1 361.1 843.91 380.85 843.86 382.74 786.45"/><polygon class="cls-38" points="465.66 792.15 463.96 843.63 472.82 843.61 474.5 792.76 465.66 792.15"/><polygon class="cls-6" points="473.32 792.68 471.64 843.61 503.82 843.53 505.43 794.89 473.32 792.68"/><polygon class="cls-38" points="505.43 794.89 503.82 843.53 512.68 843.5 514.26 795.5 505.43 794.89"/><g class="cls-39"><rect class="cls-40" x="371.01" y="780.24" width="3.47" height="19.74" transform="translate(-429.22 1136.62) rotate(-88.11)"/></g><g class="cls-39"><rect class="cls-40" x="370.74" y="788.48" width="3.47" height="19.74" transform="translate(-437.71 1144.33) rotate(-88.11)"/></g><g class="cls-39"><rect class="cls-40" x="370.47" y="796.72" width="3.47" height="19.74" transform="translate(-446.21 1152.02) rotate(-88.11)"/></g><g class="cls-39"><rect class="cls-40" x="370.2" y="804.96" width="3.47" height="19.74" transform="translate(-454.71 1159.72) rotate(-88.11)"/></g><g class="cls-39"><rect class="cls-40" x="369.93" y="813.2" width="3.47" height="19.74" transform="matrix(0.03, -1, 1, 0.03, -463.21, 1167.42)"/></g><g class="cls-39"><rect class="cls-40" x="369.65" y="821.44" width="3.47" height="19.74" transform="translate(-471.7 1175.11) rotate(-88.11)"/></g><g class="cls-39"><rect class="cls-40" x="369.38" y="829.68" width="3.47" height="19.74" transform="translate(-480.2 1182.81) rotate(-88.11)"/></g><path class="cls-37" d="M536.6,830.94l.7-21.34a.8.8,0,0,1,.82-.76h.27a.78.78,0,0,1,.76.82l-.7,21.33a.79.79,0,0,1-.82.77h-.26a.79.79,0,0,1-.77-.82"/><g class="cls-41"><path class="cls-42" d="M421.83,1205.84c72.45-11.68,146-13.27,219.1-12.38,73.15,1.72,146.54,6,218.51,20.39-72.45,11.75-146,13.33-219.11,12.38-73.14-1.79-146.52-6.07-218.5-20.39Z"/></g></g></g></g></svg>