<svg xmlns="http://www.w3.org/2000/svg" xmlns:xlink="http://www.w3.org/1999/xlink" viewBox="0 0 1823.34 997.89"><defs><style>.cls-1,.cls-10,.cls-15,.cls-5{fill:none;}.cls-2{opacity:0.36;}.cls-3{clip-path:url(#clip-path);}.cls-4{fill:#d5b7b6;}.cls-10,.cls-5{stroke:#1b1464;}.cls-15,.cls-5{stroke-miterlimit:10;}.cls-10,.cls-15,.cls-5{stroke-width:0.56px;}.cls-6{opacity:0.66;}.cls-7{clip-path:url(#clip-path-2);}.cls-8{fill:#b7ac9a;}.cls-9{fill:#fff;}.cls-10{stroke-linecap:round;stroke-linejoin:round;}.cls-11{opacity:0.4;}.cls-12{clip-path:url(#clip-path-3);}.cls-13{fill:#869e9a;}.cls-14{fill:url(#linear-gradient);}.cls-15{stroke:#000;}.cls-16{fill:url(#linear-gradient-2);}.cls-17{fill:#d18984;}.cls-18{fill:url(#linear-gradient-3);}.cls-19{fill:url(#linear-gradient-4);}.cls-20{fill:url(#linear-gradient-5);}.cls-21{fill:url(#linear-gradient-6);}.cls-22{fill:url(#linear-gradient-7);}.cls-23{fill:url(#linear-gradient-8);}.cls-24{fill:url(#linear-gradient-9);}.cls-25{fill:url(#linear-gradient-10);}.cls-26{fill:url(#linear-gradient-11);}.cls-27{fill:url(#linear-gradient-12);}.cls-28{fill:url(#linear-gradient-13);}.cls-29{clip-path:url(#clip-path-4);}.cls-30{clip-path:url(#clip-path-5);}.cls-31{clip-path:url(#clip-path-6);}.cls-32{opacity:0.96;}.cls-33{clip-path:url(#clip-path-7);}.cls-34{fill:#181a1e;}.cls-35{opacity:0.3;}.cls-36{fill:#8e8786;}</style><clipPath id="clip-path"><rect class="cls-1" x="680.77" y="15.2" width="463.43" height="577.21"/></clipPath><clipPath id="clip-path-2"><rect class="cls-1" x="712.57" y="24.2" width="406.87" height="535.63"/></clipPath><clipPath id="clip-path-3"><rect class="cls-1" x="1122.65" y="491.96" width="67.1" height="155.18"/></clipPath><linearGradient id="linear-gradient" x1="1108.21" y1="480.57" x2="825.94" y2="762.84" gradientUnits="userSpaceOnUse"><stop offset="0" stop-color="#fac5bc"/><stop offset="0.03" stop-color="#fac5bc"/><stop offset="0.72" stop-color="#f9c3ba"/><stop offset="1" stop-color="#de8983"/></linearGradient><linearGradient id="linear-gradient-2" x1="1058.58" y1="430.94" x2="776.31" y2="713.21" xlink:href="#linear-gradient"/><linearGradient id="linear-gradient-3" x1="1111.82" y1="484.18" x2="829.55" y2="766.45" xlink:href="#linear-gradient"/><linearGradient id="linear-gradient-4" x1="825.18" y1="731.13" x2="852.19" y2="731.13" xlink:href="#linear-gradient"/><linearGradient id="linear-gradient-5" x1="1075.93" y1="448.29" x2="793.66" y2="730.56" xlink:href="#linear-gradient"/><linearGradient id="linear-gradient-6" x1="802.48" y1="696.97" x2="832.85" y2="696.97" xlink:href="#linear-gradient"/><linearGradient id="linear-gradient-7" x1="1040.03" y1="412.39" x2="757.76" y2="694.66" xlink:href="#linear-gradient"/><linearGradient id="linear-gradient-8" x1="1077.02" y1="449.37" x2="794.75" y2="731.65" xlink:href="#linear-gradient"/><linearGradient id="linear-gradient-9" x1="1057.26" y1="429.61" x2="774.99" y2="711.89" xlink:href="#linear-gradient"/><linearGradient id="linear-gradient-10" x1="763.24" y1="671.08" x2="799.09" y2="671.08" xlink:href="#linear-gradient"/><linearGradient id="linear-gradient-11" x1="1005.8" y1="378.15" x2="723.53" y2="660.42" xlink:href="#linear-gradient"/><linearGradient id="linear-gradient-12" x1="710.65" y1="661.54" x2="729.98" y2="661.54" xlink:href="#linear-gradient"/><linearGradient id="linear-gradient-13" x1="809.92" y1="585.26" x2="845.1" y2="585.26" xlink:href="#linear-gradient"/><clipPath id="clip-path-4"><rect class="cls-1" x="1174.84" y="363.89" width="648.42" height="285.38"/></clipPath><clipPath id="clip-path-5"><rect class="cls-1" x="552.6" y="455.32" width="78.57" height="174.02"/></clipPath><clipPath id="clip-path-6"><rect class="cls-1" x="0.31" y="366.6" width="567.58" height="241.54"/></clipPath><clipPath id="clip-path-7"><rect class="cls-1" x="624.74" y="586.8" width="32.2" height="27.32"/></clipPath></defs><g id="Layer_2" data-name="Layer 2"><g id="Layer_1-2" data-name="Layer 1"><g class="cls-2"><g class="cls-3"><polygon points="1120.85 550.15 1144.19 547.56 1120.85 337.09 1120.85 24.25 1086.16 24.25 1085.15 15.2 1003.59 24.25 713.99 24.25 713.99 56.36 680.77 60.04 713.99 359.58 713.99 559.87 736.2 559.87 739.81 592.41 1033.2 559.87 1120.85 559.87 1120.85 550.15"/></g></g><rect class="cls-4" x="707.65" y="21.1" width="406.86" height="535.63" transform="translate(-26.29 102.18) rotate(-6.33)"/><rect class="cls-5" x="707.65" y="21.1" width="406.86" height="535.63" transform="translate(-26.29 102.18) rotate(-6.33)"/><g class="cls-6"><g class="cls-7"><polygon class="cls-8" points="867.91 24.2 712.57 41.42 712.57 344.65 736.43 559.82 897.52 559.82 1119.43 535.21 1119.43 322.15 1086.38 24.2 867.91 24.2"/></g></g><rect class="cls-9" x="714.29" y="9.36" width="406.86" height="535.63"/><rect class="cls-5" x="714.29" y="9.36" width="406.86" height="535.63"/><line class="cls-10" x1="996.99" y1="478.59" x2="1071.17" y2="478.59"/><line class="cls-10" x1="996.99" y1="456.25" x2="1071.17" y2="456.25"/><line class="cls-10" x1="763.45" y1="156.43" x2="1075.85" y2="156.43"/><line class="cls-10" x1="763.45" y1="134.1" x2="1075.85" y2="134.1"/><line class="cls-10" x1="763.45" y1="198.78" x2="1075.85" y2="198.78"/><line class="cls-10" x1="763.45" y1="176.45" x2="1075.85" y2="176.45"/><line class="cls-10" x1="763.67" y1="218.55" x2="1076.08" y2="218.55"/><line class="cls-10" x1="763.67" y1="260.9" x2="1076.08" y2="260.9"/><line class="cls-10" x1="763.67" y1="238.57" x2="1076.08" y2="238.57"/><line class="cls-10" x1="785.78" y1="111.76" x2="1053.52" y2="111.76"/><line class="cls-10" x1="763.3" y1="478.59" x2="837.48" y2="478.59"/><line class="cls-10" x1="763.3" y1="456.25" x2="837.48" y2="456.25"/><path d="M998.05,461.39a35.3,35.3,0,0,1-3.79-.89c-2.63-.93-4.75-2.48-5.53-5.35a4.73,4.73,0,0,1,1.22-4.46c.28-.33.95-.33,1.43-.48.09.13.17.27.26.41a9.43,9.43,0,0,0-1.18,1.36,4.2,4.2,0,0,0,.89,5,8,8,0,0,0,6.69,2.48,1.94,1.94,0,0,1,.72,0c1.81.52,3.35-.19,4.87-1,2.2-1.23,4.41-2.45,6.64-3.64q6.84-3.66,13.69-7.28c.8-.42,1.61-.82,2.42-1.21.59-.28.67-.64.14-1-1.5-1-1.78-2.13-1-4.07-1.6-.24-3.22-.35-4.78-.74-2.45-.62-4.86-1.42-7.29-2.14a11.88,11.88,0,0,1-5-3.44c-3.89-4-4-9.42-.33-13.4a28.72,28.72,0,0,1,8.83-6.39c2.58-1.22,5.1-2.59,7.74-3.64,3.28-1.32,6.63-2.5,10-3.53a88.43,88.43,0,0,1,9.71-2.45,59.34,59.34,0,0,1,20.55-.64,40.76,40.76,0,0,1,8.58,2.47,11,11,0,0,1,7,10.31,13,13,0,0,1-2.39,6.81c-1.66,2.48-3.51,4.84-5.4,7.15a26.65,26.65,0,0,1-3,2.72c-1.29,1.16-2.52,2.4-3.88,3.47-2.13,1.68-4.29,3.31-6.53,4.83-3.18,2.17-6.26,4.47-9.95,5.83a49.72,49.72,0,0,0-5.63,2.87c.19.69.18,1.66.66,2.15a4.54,4.54,0,0,0,2.41,1.1,32.88,32.88,0,0,0,3.72.11,4.5,4.5,0,0,1,1,.4c-.4.21-.57.38-.73.37-2-.05-3.93-.08-5.89-.22-1.31-.09-1.83-.64-2-2.08-.14-1-.48-1.34-1.49-1-1.7.66-3.41,1.31-5.16,1.84-2.69.81-5.41,1.56-8.13,2.26-2.22.57-4.45,1-6.69,1.52q-5.13,1.1-10.3,2.11c-1.85.35-3.72.61-5.59.88a21.93,21.93,0,0,0-3.18.39,17.32,17.32,0,0,0-3.27,1.59c-2.1,1.19-4.17,2.43-6.25,3.67-2.44,1.47-4.89,2.94-7.31,4.44s-4.95,3.06-7.35,4.69c-1.95,1.32-3.79,2.78-5.67,4.19a12.42,12.42,0,0,1-1.34,1.08,1.3,1.3,0,0,1-1.09,0,1.17,1.17,0,0,1-.35-1,2,2,0,0,1,.66-1.12c1.12-.89,2.27-1.75,3.47-2.53q3.32-2.17,6.71-4.24c2-1.25,4.15-2.42,6.21-3.66,3.72-2.24,7.43-4.5,11.27-6.84m35.31-16.51a1.57,1.57,0,0,0,.35.19,1,1,0,0,0,.3,0c1.63.06,1.82.29,1.54,1.93,0,.24-.16.46-.22.7a1.49,1.49,0,0,0,1.26,2.07c.92.16,1.86.18,2.79.26.3,0,.61.07.92.09a6.34,6.34,0,0,0,2.28.1,45.77,45.77,0,0,0,4.72-2.05c1.62-.76,3.25-1.49,4.79-2.4,2.24-1.31,4.41-2.75,6.59-4.16a76.52,76.52,0,0,0,9.91-7.77c1.14-1,1.79-2.42,3-3.45a28.78,28.78,0,0,0,5-5.58c2.31-3.28,3.52-6.83,2.08-11a7.6,7.6,0,0,0-2.56-3.54,21.75,21.75,0,0,0-9-4,51.4,51.4,0,0,0-11.73-1,39,39,0,0,0-6.13.36,117.7,117.7,0,0,0-11.62,2.49,137.51,137.51,0,0,0-13.3,4.47,57.47,57.47,0,0,0-11.67,6.18,11.77,11.77,0,0,0-2.65,1.9,22.06,22.06,0,0,0-2.79,4.6,7.13,7.13,0,0,0,.6,6.72,13,13,0,0,0,6.46,5.23,46,46,0,0,0,11.22,2.58c1,.15,2.14.35,3.06-.57a1.69,1.69,0,0,1,1.28-.16c.27,0,.5.4.75.62a3.3,3.3,0,0,1-.65.69c-1,.57-2,1.06-2.9,1.64a1,1,0,0,0,.07,1.65,14.48,14.48,0,0,0,1.88.86,1.44,1.44,0,0,0,1-.09,15.45,15.45,0,0,1,2.66-1.57c1.67-.47,2.78-1.89,4.5-2.3a11,11,0,0,0,2.66-1.6c4.2-2.47,8.41-4.89,12.58-7.4a7,7,0,0,0,1.4-1.67c.12-.15.22-.38.37-.43,1.3-.39,2.6-.78,3.91-1.11a.88.88,0,0,1,.76.27,1.14,1.14,0,0,1-.2.82c-.09.16-.35.22-.53.32-2.34,1.35-4.7,2.68-7,4.07-3.22,1.92-6.4,3.92-9.63,5.84-1,.6-2.13,1-3.16,1.58a22.32,22.32,0,0,1-3.34,1.9,2.24,2.24,0,0,0-1.66,1.59m1.27,1.72a5.55,5.55,0,0,0-1.1-.45,10.32,10.32,0,0,0-6.77,1.38c-3.62,1.91-7.26,3.76-10.85,5.7-2.67,1.43-5.28,3-7.91,4.47-.43.24-.84.5-1.26.76l.09.26c1.77-.2,3.55-.31,5.31-.62,3-.52,5.92-1.15,8.88-1.74a101.39,101.39,0,0,0,14.07-3.36c1.18-.42,2.33-.92,3.5-1.39l-.09-.31c-.76-.22-1.5-.49-2.28-.64-2.2-.43-3-2.17-1.59-4.06"/><path d="M1084.81,449.31c-1.16.47-2.25,1-3.4,1.36-2,.61-4,1-6,1.65-2.21.7-4.37,1.54-6.54,2.34-3,1.11-6,2.27-9,3.36-1.36.49-2.8.76-4.13,1.3-1.09.44-2,1.4-3.11,1.65-2.86.65-5.25,2.31-7.92,3.37s-5.23,2.27-7.8,3.49c-2.3,1.08-4.53,2.32-6.83,3.4-1.69.8-3.47,1.41-5.16,2.2s-3.48,1.81-5.25,2.67c-2.22,1.09-4.48,2.1-6.7,3.21-1.08.54-2.05,1.3-3.15,1.81-1.84.86-3.72,1.63-5.61,2.38a10.9,10.9,0,0,0-2.5,1.32,23.3,23.3,0,0,1-3.75,1.73c-1,.48-2,1.09-3,1.58a10.22,10.22,0,0,1-1.86.64,1,1,0,0,1-.66-.29c.06-.34.14-.85.38-1,1.27-.61,2.6-1.1,3.89-1.67s2.55-1.22,3.85-1.79,2.41-.9,3.56-1.45,2.48-1.41,3.76-2c2.4-1.15,4.86-2.2,7.27-3.36,1.83-.88,3.62-1.87,5.44-2.79s3.49-1.71,5.24-2.55c1.27-.61,2.57-1.17,3.85-1.76l3.48-1.65,8.24-3.89c1.86-.87,3.7-1.76,5.57-2.58a18.17,18.17,0,0,0,2.29-.8c1.71-1.05,3.72-1.34,5.44-2.27a117.68,117.68,0,0,1,11.77-5.09c4.27-1.75,8.72-3.06,13.09-4.57,1.15-.4,2.28-.87,3.43-1.25a3.33,3.33,0,0,1,1.33-.15.91.91,0,0,1,.65.49c.09.24-.07.56-.14,1"/><path d="M1055.83,500.74c-.11-.86-.41-1.57-.2-2.07a.82.82,0,0,1,1.44-.06,3.52,3.52,0,0,1,.15,1.87,5.79,5.79,0,0,1-1.39.26"/><path d="M806.32,508c2.58-1.45,5.36-2.63,7.71-4.39,6.2-4.62,6.33-12.82.79-18.34s-12.63-8.77-20-11c-10.9-3.29-22-5.75-33-8.78a88.5,88.5,0,0,1-12.78-4.61c-5.74-2.61-7.7-7.89-5.49-13.83,2.12-5.7,6.24-9.7,11.32-12.76a82.75,82.75,0,0,1,35.61-11.34,32.15,32.15,0,0,1,12.83,1.76c6.17,2.07,7.42,6.66,4.46,12.63a39,39,0,0,1-12.64,14.24,3.7,3.7,0,0,0-1.4,1.43l6-1.18c-.1.36-.22.75-.23.78l5.58-.25c-3.1,5.07-8.52,4.89-12.18,8.06l12.45-3.51,12.39-3.49.3,1-18.38,5.29c.05.2.11.4.16.59l48.39-11.82c-1.54-3.09-2.83-5.62-4.07-8.17a21,21,0,0,1-1-15.64,6.66,6.66,0,0,1,5.48-4.94c8-1.25,15.28.26,21.16,6.26,4.52,4.63,4.06,11-1.56,14.29-5,2.93-10.58,5-15.91,7.47-.72.33-1.5.53-2.61.92l8.22,9.43-.59.53c-2.38-2.65-4.85-5.23-7.1-8a2.89,2.89,0,0,0-3.44-1.07q-24.78,6.13-49.58,12.2c-2.31.57-4.61,1.2-7.27,1.9.08-.86.12-1.31.18-1.91l-4.09-.37,4.4-2.76-1.32-2.51-3.17.73-.36-.61a39.18,39.18,0,0,1,5-3.38A32.83,32.83,0,0,0,807.68,435c1.79-4.45,0-7.86-4.46-9.53-7.37-2.73-14.68-1.84-22.11-.16-10.36,2.33-20.25,5.67-28.91,12a22.42,22.42,0,0,0-8,10.49c-2,5.52.57,10.95,7.13,13.2a197.31,197.31,0,0,0,21.57,6.07c12,2.65,23.78,5.77,34.55,11.7a29.22,29.22,0,0,1,9.76,8.43c5.17,7.44,2.53,15.39-5.69,19.27-1.64.77-3.43,1.25-5.15,1.86Zm47.84-87.83c-7.69,0-10.39,2.44-11.09,9.1s2.3,12.11,5.55,17.48a2.1,2.1,0,0,0,2,.6c5.93-2.6,12.11-4.83,17.62-8.16,5.12-3.09,4.86-8.94.35-13.15a23.09,23.09,0,0,0-14.39-5.87"/><path class="cls-9" d="M1182.89,650.44l-.88.31a18.48,18.48,0,0,1-23.55-11.33L1115,515.1a18.48,18.48,0,0,1,11.33-23.55l.89-.31Z"/><g class="cls-11"><g class="cls-12"><path class="cls-13" d="M1189.74,645.78l-.88.31a18.48,18.48,0,0,1-23.55-11.34l-41.62-118.94A18.48,18.48,0,0,1,1135,492.26l.88-.3Z"/></g></g><path class="cls-14" d="M1130.7,504.8s-27.49,12.35-69.39,20.11a94.76,94.76,0,0,1-20.62,1.34c23.61,33.5.29,83.14-14,98.55-18.26,19.78-44,12.51-51,2.08s-24.19-27-32.34-35.13-36.32-28.84-36.32-28.84-3.27-.3-10.25,4a41.48,41.48,0,0,1-15.3,5.21,43.87,43.87,0,0,1-9.8,17.24c-7.28,7.59-23.91,27.51-43.38,24.11-13.29-2.32-18.48-9.3-18.41-18.55l-.62,1.17-93.19,38.67s-15.57,15.8-5.45,31.55,28.69,10.83,28.69,10.83-4.74,16.05,5.67,28.53,25.42,10.53,25.42,10.53.6,11.6,10.87,25.71S810,752.76,810,752.76a22.7,22.7,0,0,0,6.69,17.08c7.59,7.28,25.13,13.81,40.29,10.23s169.67-72,200.57-85.74S1189.64,637,1189.64,637Z"/><path class="cls-15" d="M1130.7,504.8s-27.49,12.35-69.39,20.11a94.76,94.76,0,0,1-20.62,1.34c23.61,33.5.29,83.14-14,98.55-18.26,19.78-44,12.51-51,2.08s-24.19-27-32.34-35.13-36.32-28.84-36.32-28.84-3.27-.3-10.25,4a41.48,41.48,0,0,1-15.3,5.21,43.87,43.87,0,0,1-9.8,17.24c-7.28,7.59-23.91,27.51-43.38,24.11-13.29-2.32-18.48-9.3-18.41-18.55l-.62,1.17-93.19,38.67s-15.57,15.8-5.45,31.55,28.69,10.83,28.69,10.83-4.74,16.05,5.67,28.53,25.42,10.53,25.42,10.53.6,11.6,10.87,25.71S810,752.76,810,752.76a22.7,22.7,0,0,0,6.69,17.08c7.59,7.28,25.13,13.81,40.29,10.23s169.67-72,200.57-85.74S1189.64,637,1189.64,637Z"/><path class="cls-16" d="M727.85,493.6c21.61,12.69,34.95,22.26,51.36,21.92s60.34-19.32,75-26.2,39.66,12.31,39.66,12.31-10.49,47.83,9.54,63.83,46.61,30.23,58.34,41.48,50.43,56.41,62.13,66,20.17,22.56,18.77,34.09-7.86,16.58-16,21.67-19.76-2.87-19.76-2.87a23,23,0,0,1-7.8,19.87c-9.67,8.41-31,7.21-31,7.21s-1.44,9.88-12.75,18.33-24.62.51-24.62.51.17,8.21-12.86,13.41S880,781,869.93,771.4,771.25,684.8,741.37,669,657,637.93,657,637.93Z"/><path class="cls-15" d="M727.85,493.6c21.61,12.69,34.95,22.26,51.36,21.92s60.34-19.32,75-26.2,39.66,12.31,39.66,12.31-10.49,47.83,9.54,63.83,46.61,30.23,58.34,41.48,50.43,56.41,62.13,66,20.17,22.56,18.77,34.09-7.86,16.58-16,21.67-19.76-2.87-19.76-2.87a23,23,0,0,1-7.8,19.87c-9.67,8.41-31,7.21-31,7.21s-1.44,9.88-12.75,18.33-24.62.51-24.62.51.17,8.21-12.86,13.41S880,781,869.93,771.4,771.25,684.8,741.37,669,657,637.93,657,637.93Z"/><path class="cls-17" d="M937.23,648.66a2.47,2.47,0,0,0-4.93,0c-.06,8.91,11.13,27.13,34.19,55.7,10.68,13.22,21.44,25.54,27.88,32.78a19.81,19.81,0,0,0,.35-3.94,31.56,31.56,0,0,0,6.32,4c-20.26-22.43-63.91-73.86-63.81-88.53"/><path class="cls-17" d="M922.27,715.37c-5.47-6.06-11.09-12.28-16.54-18.41a2.46,2.46,0,1,0-3.68,3.28c5.46,6.13,11.09,12.36,16.56,18.43,13.82,15.31,27,30,33.87,38.85a15.09,15.09,0,0,0,.64-1.74s1.8.31,4.61.55c-6.57-8.93-20.17-24-35.46-41"/><path class="cls-17" d="M862.84,720.49a2.46,2.46,0,1,0-1.4,4.72c14.37,4.25,40.48,32.59,50.45,46.59.34.49.68,1,1,1.41a8.5,8.5,0,0,0,1-2.84,26.42,26.42,0,0,0,5.24,2.89c-1-1.31-2.11-2.73-3.23-4.31-7.58-10.64-35.34-43.22-53.06-48.46"/><path class="cls-18" d="M854.44,762.54c3.56-3,5.49-6.1,8.75-23.94s-13.69-30.9-22.46-25.1-22,24.39-29.84,38.51c0,0-.39,1-.91,2.57a22.58,22.58,0,0,0,6.72,15.27c7,6.69,22.36,12.72,36.58,10.87,1.74-.5,3.3-1,4.59-1.39,11.89-3.87-7-13.82-3.43-16.79"/><path class="cls-15" d="M854.44,762.54c3.56-3,5.49-6.1,8.75-23.94s-13.69-30.9-22.46-25.1-22,24.39-29.84,38.51c0,0-.39,1-.91,2.57a22.58,22.58,0,0,0,6.72,15.27c7,6.69,22.36,12.72,36.58,10.87,1.74-.5,3.3-1,4.59-1.39C869.76,775.46,850.87,765.51,854.44,762.54Z"/><path class="cls-19" d="M838.66,718.26c.89,8.32,13.53,14.41,13.53,14.41s-13.07,17-23.92,9.37,10.39-23.78,10.39-23.78"/><path class="cls-15" d="M838.66,718.26c.89,8.32,13.53,14.41,13.53,14.41s-13.07,17-23.92,9.37S838.66,718.26,838.66,718.26Z"/><path class="cls-20" d="M838.78,680.36c-9.07-9.06-24.38-3.85-29.72.62s-22.45,15.79-38.9,35.27l.28,0s.6,11.6,10.86,25.71S810,752.76,810,752.76v.06q.46-.39.9-.81c10.84-10.55,22.57-30.92,29.84-38.51s7.12-24.08-2-33.14"/><path class="cls-15" d="M838.78,680.36c-9.07-9.06-24.38-3.85-29.72.62s-22.45,15.79-38.9,35.27l.28,0s.6,11.6,10.86,25.71S810,752.76,810,752.76v.06q.46-.39.9-.81c10.84-10.55,22.57-30.92,29.84-38.51S847.85,689.42,838.78,680.36Z"/><path class="cls-21" d="M816.34,682.46l-12.63,12s-3.86,6.25,2.09,13.38,16.35,1.47,16.35,1.47l10.7-8.92-8.93-10.7c-4.46-5.34-7.58-7.27-7.58-7.27"/><path class="cls-15" d="M816.34,682.46l-12.63,12s-3.86,6.25,2.09,13.38,16.35,1.47,16.35,1.47l10.7-8.92-8.93-10.7C819.46,684.39,816.34,682.46,816.34,682.46Z"/><path class="cls-22" d="M793.73,649.92c-15.6-7.93-31.47,5.1-54.54,27.28l.16,0s-4.74,16.05,5.67,28.53,25.42,10.53,25.42,10.53,0,.33.09.9c8.13-7.75,24.62-23.54,31.11-30.43,8.78-9.29,7.85-28.75-7.91-36.77"/><path class="cls-15" d="M793.73,649.92c-15.6-7.93-31.47,5.1-54.54,27.28l.16,0s-4.74,16.05,5.67,28.53,25.42,10.53,25.42,10.53,0,.33.09.9c8.13-7.75,24.62-23.54,31.11-30.43C810.42,677.4,809.49,657.94,793.73,649.92Z"/><path class="cls-23" d="M828.33,613.49c19.47,3.4,36.1-16.52,43.38-24.11a43.87,43.87,0,0,0,9.8-17.24,41.48,41.48,0,0,0,15.3-5.21c7-4.32,10.25-4,10.25-4s28.17,20.7,36.32,28.84,25.31,24.7,32.35,35.13,55.41,33.93,75.06,2.72c11.18-17.76,17.2-69.77-6.41-103.28-36.81-1.41-78.51-20.7-86.38-25.57-9.37-5.79-33.6-11.27-50.83-2.94s-53.49,26.49-65.67,33.63-11,12.2-11.87,22c-.87,9.6-10,23.21-19.71,41.49-.07,9.25,5.12,16.23,18.41,18.55"/><path class="cls-24" d="M1040.69,526.24c-36.8-1.4-74.82-20.62-82.69-25.49-9.37-5.79-33.6-11.27-50.83-2.94s-53.49,26.49-65.67,33.63-11,12.2-11.87,22c-.87,9.6-10,23.21-19.71,41.49-.07,9.25,5.12,16.23,18.41,18.55,19.47,3.4,36.1-16.52,43.38-24.11a43.87,43.87,0,0,0,9.8-17.24,41.48,41.48,0,0,0,15.3-5.21c7-4.32,10.25-4,10.25-4s28.17,20.7,36.32,28.84,25.31,24.7,32.34,35.13"/><path class="cls-15" d="M1040.69,526.24c-36.8-1.4-74.82-20.62-82.69-25.49-9.37-5.79-33.6-11.27-50.83-2.94s-53.49,26.49-65.67,33.63-11,12.2-11.87,22c-.87,9.6-10,23.21-19.71,41.49-.07,9.25,5.12,16.23,18.41,18.55,19.47,3.4,36.1-16.52,43.38-24.11a43.87,43.87,0,0,0,9.8-17.24,41.48,41.48,0,0,0,15.3-5.21c7-4.32,10.25-4,10.25-4s28.17,20.7,36.32,28.84,25.31,24.7,32.34,35.13"/><path class="cls-25" d="M777.68,654.24s-9.36,12.35-13.22,18.59,1.65,18.28,13.54,14.41,21.09-14.58,21.09-14.58-2.07-5.9-8.77-12.33c-7.59-7.28-12.64-6.09-12.64-6.09"/><path class="cls-15" d="M777.68,654.24s-9.36,12.35-13.22,18.59,1.65,18.28,13.54,14.41,21.09-14.58,21.09-14.58-2.07-5.9-8.77-12.33C782.73,653.05,777.68,654.24,777.68,654.24Z"/><path class="cls-26" d="M710.66,666.33c10.12,15.74,28.69,10.83,28.69,10.83s-.07.23-.17.66c3.06-3,6.26-6.25,9.45-9.5,13.41-13.72-20-36.09-31.51-34l-1,.42s-15.57,15.8-5.45,31.55"/><path class="cls-15" d="M710.66,666.33c10.12,15.74,28.69,10.83,28.69,10.83s-.07.23-.17.66c3.06-3,6.26-6.25,9.45-9.5,13.41-13.72-20-36.09-31.51-34l-1,.42S700.54,650.58,710.66,666.33Z"/><path class="cls-27" d="M713.77,650.13C716,661.87,730,671.37,730,671.37s-8.76,5.8-16.05-4.75-.16-16.49-.16-16.49"/><path class="cls-15" d="M713.77,650.13C716,661.87,730,671.37,730,671.37s-8.76,5.8-16.05-4.75S713.77,650.13,713.77,650.13Z"/><path class="cls-28" d="M822.86,571.37c-3.57,6.79-8.18,14.61-12.94,23.57,0,.35,0,.7,0,1,6.74,2.21,18,5.15,23.87,2.34,8.62-4.17,11.28-24.53,11.28-24.53s-9-3.91-22.24-2.43"/><path class="cls-15" d="M822.86,571.37c-3.57,6.79-8.18,14.61-12.94,23.57,0,.35,0,.7,0,1,6.74,2.21,18,5.15,23.87,2.34,8.62-4.17,11.28-24.53,11.28-24.53S836.09,569.89,822.86,571.37Z"/><path class="cls-17" d="M971.75,523c-29.29,24.45-49.59,36.79-60,41.1,6.43-6.13,15.7-20.12,8.4-42a1.65,1.65,0,0,0-2.08-1,1.63,1.63,0,0,0-1,2.07c7.3,21.88-3.48,35.3-8.84,39.76h.17s2.07,1.52,5.24,3.9c11.93-5,32.73-18.34,60.28-41.33a1.64,1.64,0,1,0-2.1-2.52"/><path class="cls-17" d="M882.13,568.37c-1.71-10.43-5.3-16.36-10.7-17.63a1.64,1.64,0,1,0-.75,3.19c6,1.42,8.26,12.41,8.94,21.07a34.43,34.43,0,0,0,1.26-3.65s.61-.07,1.63-.25c-.11-.89-.23-1.81-.38-2.73"/><rect class="cls-17" x="1150.62" y="500.6" width="11.4" height="144.94" transform="translate(-131.63 491.34) rotate(-22.73)"/><polyline class="cls-9" points="1808.83 233.16 1127.22 491.1 1182.79 650.37 1823.26 455.89"/><polyline class="cls-15" points="1808.83 233.16 1127.22 491.1 1182.79 650.37 1823.26 455.89"/><g class="cls-11"><g class="cls-29"><polyline class="cls-13" points="1811.09 363.89 1174.83 627.58 1182.4 649.27 1823.26 455.89"/></g></g><polyline class="cls-9" points="736.93 491.24 417.8 368.74 342.24 525.09 661.36 647.59"/><polyline class="cls-15" points="736.93 491.24 417.8 368.74 342.24 525.09 661.36 647.59"/><g class="cls-11"><g class="cls-30"><polygon class="cls-13" points="552.6 606.29 613.81 629.34 631.17 455.32 601.25 518.32 552.6 606.29"/></g></g><polygon class="cls-9" points="27.71 217.58 0.31 435.64 558.58 608.14 633.36 450.73 27.71 217.58"/><polygon class="cls-15" points="27.71 217.58 0.31 435.64 558.58 608.14 633.36 450.73 27.71 217.58"/><g class="cls-11"><g class="cls-31"><polygon class="cls-13" points="27.71 366.6 0.31 435.64 558.58 608.14 567.89 588.54 27.71 366.6"/></g></g><g class="cls-32"><g class="cls-33"><path class="cls-34" d="M656.81,602.92c-1.14,7.42-9.22,12.33-18,11s-15-8.47-13.9-15.89,9.22-12.34,18-11,15,8.48,13.9,15.9"/></g></g><g class="cls-35"><path class="cls-36" d="M617.2,977.26c91.2-11.71,183.23-13.26,275-12.38,91.75,1.73,183.7,6,274.51,20.39-91.19,11.78-183.23,13.33-275,12.38-91.74-1.79-183.69-6-274.51-20.39Z"/></g></g></g></svg>