<svg xmlns="http://www.w3.org/2000/svg" xmlns:xlink="http://www.w3.org/1999/xlink" viewBox="0 0 1215 979.45"><defs><style>.cls-1{fill:#eae4e4;}.cls-2{fill:url(#linear-gradient);}.cls-3{fill:url(#linear-gradient-2);}.cls-4{fill:url(#linear-gradient-3);}.cls-5{fill:url(#linear-gradient-4);}.cls-6{fill:#183658;}.cls-7{fill:#a79f9f;}.cls-8{fill:url(#linear-gradient-5);}.cls-9{fill:url(#linear-gradient-6);}.cls-10{fill:url(#linear-gradient-7);}.cls-11{fill:url(#linear-gradient-8);}.cls-12{fill:url(#linear-gradient-9);}.cls-13{fill:url(#linear-gradient-10);}.cls-14{fill:url(#linear-gradient-11);}.cls-15{fill:url(#linear-gradient-12);}.cls-16{fill:url(#linear-gradient-13);}.cls-17{fill:url(#linear-gradient-14);}.cls-18{fill:url(#linear-gradient-15);}.cls-19{fill:url(#linear-gradient-16);}.cls-20{fill:url(#linear-gradient-17);}.cls-21{fill:url(#linear-gradient-18);}.cls-22{fill:url(#linear-gradient-19);}.cls-23{fill:url(#linear-gradient-20);}.cls-24{fill:url(#linear-gradient-21);}.cls-25{fill:url(#linear-gradient-22);}.cls-26{fill:url(#linear-gradient-23);}.cls-27{fill:url(#linear-gradient-24);}.cls-28{fill:url(#linear-gradient-25);}.cls-29{fill:url(#linear-gradient-26);}.cls-30{fill:url(#linear-gradient-27);}.cls-31{fill:url(#linear-gradient-28);}.cls-32{fill:url(#linear-gradient-29);}.cls-33{fill:url(#linear-gradient-30);}.cls-34{fill:url(#linear-gradient-31);}.cls-35{fill:url(#linear-gradient-32);}.cls-36{fill:url(#linear-gradient-33);}.cls-37{fill:url(#linear-gradient-34);}.cls-38{fill:url(#linear-gradient-35);}.cls-39{fill:#867878;}.cls-40{fill:url(#linear-gradient-36);}.cls-41{fill:url(#linear-gradient-37);}.cls-42{opacity:0.3;}.cls-43{fill:#8e8786;}</style><linearGradient id="linear-gradient" x1="73.25" y1="335.03" x2="250.31" y2="335.03" gradientUnits="userSpaceOnUse"><stop offset="0" stop-color="#c66665"/><stop offset="1" stop-color="#ddcaca"/></linearGradient><linearGradient id="linear-gradient-2" x1="179.53" y1="188.17" x2="283.94" y2="188.17" gradientUnits="userSpaceOnUse"><stop offset="0" stop-color="#5f5f5f"/><stop offset="0.65" stop-color="#968e8d"/><stop offset="1" stop-color="#aea2a1"/></linearGradient><linearGradient id="linear-gradient-3" x1="567.27" y1="41.38" x2="567.27" y2="372.27" xlink:href="#linear-gradient"/><linearGradient id="linear-gradient-4" x1="1137.1" y1="466.34" x2="714.37" y2="466.34" xlink:href="#linear-gradient"/><linearGradient id="linear-gradient-5" x1="1019.48" y1="149.26" x2="1124.58" y2="149.26" xlink:href="#linear-gradient"/><linearGradient id="linear-gradient-6" x1="872.83" y1="263.14" x2="1138.43" y2="263.14" xlink:href="#linear-gradient-2"/><linearGradient id="linear-gradient-7" x1="105.37" y1="473.66" x2="105.37" y2="575.88" xlink:href="#linear-gradient-2"/><linearGradient id="linear-gradient-8" x1="128.18" y1="473.66" x2="128.18" y2="575.88" xlink:href="#linear-gradient-2"/><linearGradient id="linear-gradient-9" x1="150.98" y1="473.66" x2="150.98" y2="575.88" xlink:href="#linear-gradient-2"/><linearGradient id="linear-gradient-10" x1="173.78" y1="473.66" x2="173.78" y2="575.88" xlink:href="#linear-gradient-2"/><linearGradient id="linear-gradient-11" x1="196.58" y1="473.66" x2="196.58" y2="575.88" xlink:href="#linear-gradient-2"/><linearGradient id="linear-gradient-12" x1="402.65" y1="473.66" x2="402.65" y2="575.88" xlink:href="#linear-gradient-2"/><linearGradient id="linear-gradient-13" x1="425.45" y1="473.66" x2="425.45" y2="575.88" xlink:href="#linear-gradient-2"/><linearGradient id="linear-gradient-14" x1="446.67" y1="473.66" x2="446.67" y2="575.88" xlink:href="#linear-gradient-2"/><linearGradient id="linear-gradient-15" x1="467.21" y1="473.66" x2="467.21" y2="575.88" xlink:href="#linear-gradient-2"/><linearGradient id="linear-gradient-16" x1="488.19" y1="473.66" x2="488.19" y2="575.88" xlink:href="#linear-gradient-2"/><linearGradient id="linear-gradient-17" x1="509.82" y1="473.66" x2="509.82" y2="575.88" xlink:href="#linear-gradient-2"/><linearGradient id="linear-gradient-18" x1="532.23" y1="473.66" x2="532.23" y2="575.88" xlink:href="#linear-gradient-2"/><linearGradient id="linear-gradient-19" x1="553.1" y1="473.66" x2="553.1" y2="575.88" xlink:href="#linear-gradient-2"/><linearGradient id="linear-gradient-20" x1="573.6" y1="473.66" x2="573.6" y2="575.88" xlink:href="#linear-gradient-2"/><linearGradient id="linear-gradient-21" x1="595" y1="473.66" x2="595" y2="575.88" xlink:href="#linear-gradient-2"/><linearGradient id="linear-gradient-22" x1="615.68" y1="473.66" x2="615.68" y2="575.88" xlink:href="#linear-gradient-2"/><linearGradient id="linear-gradient-23" x1="83.58" y1="473.66" x2="83.58" y2="575.88" xlink:href="#linear-gradient-2"/><linearGradient id="linear-gradient-24" x1="309.29" y1="473.66" x2="309.29" y2="575.88" xlink:href="#linear-gradient-2"/><linearGradient id="linear-gradient-25" x1="332.09" y1="473.66" x2="332.09" y2="575.88" xlink:href="#linear-gradient-2"/><linearGradient id="linear-gradient-26" x1="219.38" y1="473.66" x2="219.38" y2="575.88" xlink:href="#linear-gradient-2"/><linearGradient id="linear-gradient-27" x1="242.18" y1="473.66" x2="242.18" y2="575.88" xlink:href="#linear-gradient-2"/><linearGradient id="linear-gradient-28" x1="356.75" y1="473.66" x2="356.75" y2="575.88" xlink:href="#linear-gradient-2"/><linearGradient id="linear-gradient-29" x1="379.55" y1="473.66" x2="379.55" y2="575.88" xlink:href="#linear-gradient-2"/><linearGradient id="linear-gradient-30" x1="264.98" y1="473.66" x2="264.98" y2="575.88" xlink:href="#linear-gradient-2"/><linearGradient id="linear-gradient-31" x1="287.79" y1="473.66" x2="287.79" y2="575.88" xlink:href="#linear-gradient-2"/><linearGradient id="linear-gradient-32" x1="0" y1="404.65" x2="1215" y2="404.65" xlink:href="#linear-gradient-2"/><linearGradient id="linear-gradient-33" x1="78.29" y1="665.3" x2="289.37" y2="665.3" xlink:href="#linear-gradient"/><linearGradient id="linear-gradient-34" x1="78.29" y1="705.16" x2="289.37" y2="705.16" xlink:href="#linear-gradient"/><linearGradient id="linear-gradient-35" x1="78.29" y1="745.02" x2="289.37" y2="745.02" xlink:href="#linear-gradient"/><linearGradient id="linear-gradient-36" x1="465.73" y1="656.62" x2="370.03" y2="752.32" xlink:href="#linear-gradient"/><linearGradient id="linear-gradient-37" x1="615.68" y1="664.18" x2="544.05" y2="735.81" xlink:href="#linear-gradient"/></defs><g id="Layer_2" data-name="Layer 2"><g id="Layer_1-2" data-name="Layer 1"><path class="cls-1" d="M1165.2,793.5H60.14A56.75,56.75,0,0,1,3.38,736.75V89.8A56.76,56.76,0,0,1,60.14,33H1140.31a56.75,56.75,0,0,1,56.75,56.76V761.64a31.85,31.85,0,0,1-31.86,31.86"/><path class="cls-2" d="M114.34,402.24c3.77-3.07,7.43-6.28,11.26-9.27a3.52,3.52,0,0,1,3-.46c5.22,2.13,10.31,4.55,15.55,6.63,1.52.61,2.23,1.21,2.36,2.89.48,5.9,1.1,11.8,1.68,17.69.09,1,.22,1.91.41,3.57l26.45-.22c.7-7.16,1.44-13.65,1.92-20.17.16-2.29.77-3.39,3.18-4.17,4.93-1.6,9.64-3.89,14.49-5.75a3.24,3.24,0,0,1,2.65.37c4.74,3.7,9.5,7.39,14,11.36,2.17,1.91,3.69,1.74,5.54-.15a15.79,15.79,0,0,1,2.53-1.79l9.78-9.75a8.19,8.19,0,0,1,.74-1.37c3.37-4.15,3-3.25-.09-7.13-3.82-4.73-7.73-9.39-11.09-13.46L227,350.62l22.4-2.19a84.67,84.67,0,0,0-.21-26.35c-7-.67-13.91-1.34-20.78-2a2.33,2.33,0,0,1-2.42-1.79c-2-5.46-4.12-10.87-6.47-16.18a2.75,2.75,0,0,1,.49-3.45c3.89-4.7,7.68-9.49,11.55-14.21,1-1.17,1.18-2.05.17-3.44a75.12,75.12,0,0,0-16.33-15.81c-1.21-.91-2-.43-3,.4-4.53,3.82-9.15,7.53-13.65,11.39a3,3,0,0,1-3.89.49c-5.86-2.81-11.88-5.28-18.33-8.08-.64-6.57-1.37-14-2.1-21.49a78.77,78.77,0,0,0-26.66-.05c-.7,7.68-1.38,15.16-2,21.93-5.79,2.59-11.23,4.86-16.5,7.48-2,1-3.24.89-4.9-.54-4.43-3.81-9-7.45-13.55-11.11-.9-.73-1.84-1.9-3.17-.56l-16.2,16.39c-1.14,1.16-.94,2.17.11,3.4,3.9,4.58,7.61,9.33,11.59,13.83,1.54,1.74,1.23,3,.37,4.9a140.24,140.24,0,0,0-5.73,14.19c-.68,2.09-1.46,2.69-3.54,2.83-6.69.47-13.37,1.2-19.91,1.81-1.57,5.21-1.41,20.73.22,26.8,6.8.59,13.66,1.26,20.54,1.74,1.72.12,2.27.8,2.87,2.33,1.92,4.91,4.2,9.69,6.17,14.59a3.48,3.48,0,0,1-.3,2.93c-3.34,4.24-6.82,8.36-10.3,12.48-2,2.3-2.75,3.23-2.37,4.45l17.3,17.34c1.68.53,2.82-.38,5.87-2.86m19.71-39.08a39.64,39.64,0,1,1,56.08.07h0A39.67,39.67,0,0,1,134.05,363.16Z"/><path class="cls-3" d="M203.76,227.79c2.22-1.81,4.38-3.7,6.64-5.46a2.1,2.1,0,0,1,1.74-.27c3.08,1.25,6.08,2.68,9.17,3.91.89.36,1.32.71,1.39,1.7.28,3.48.65,7,1,10.43.06.57.13,1.13.25,2.11l15.59-.13c.41-4.22.85-8.05,1.13-11.89a2.29,2.29,0,0,1,1.88-2.46c2.91-.95,5.68-2.3,8.54-3.39a1.89,1.89,0,0,1,1.56.21c2.8,2.18,5.61,4.36,8.26,6.7,1.28,1.13,2.18,1,3.26-.09a10.11,10.11,0,0,1,1.5-1.06l5.76-5.74a5.73,5.73,0,0,1,.44-.81c2-2.44,1.8-1.91-.05-4.2-2.26-2.79-4.56-5.54-6.54-7.94,1.69-4.16,3.27-8,4.91-12l13.21-1.29a50,50,0,0,0-.13-15.54c-4.15-.4-8.2-.8-12.25-1.16a1.39,1.39,0,0,1-1.43-1.06c-1.17-3.22-2.43-6.41-3.82-9.54a1.64,1.64,0,0,1,.29-2c2.3-2.77,4.53-5.59,6.81-8.37a1.4,1.4,0,0,0,.11-2,44.61,44.61,0,0,0-9.63-9.33c-.72-.53-1.18-.25-1.76.24-2.67,2.25-5.4,4.44-8,6.72a1.76,1.76,0,0,1-2.29.28c-3.46-1.65-7-3.11-10.81-4.76l-1.24-12.67a46.36,46.36,0,0,0-15.72,0c-.41,4.53-.81,8.94-1.18,12.93-3.41,1.53-6.62,2.87-9.73,4.41a2.22,2.22,0,0,1-2.89-.32c-2.6-2.25-5.3-4.39-8-6.55-.53-.43-1.09-1.12-1.87-.33-3.19,3.23-6.37,6.44-9.55,9.67-.68.68-.56,1.28.06,2,2.3,2.7,4.49,5.5,6.83,8.16.91,1,.73,1.78.22,2.88A82.64,82.64,0,0,0,194,178a2,2,0,0,1-2.1,1.67c-3.94.28-7.88.71-11.74,1.07-.92,3.07-.83,12.22.14,15.8,4,.35,8.05.74,12.11,1,1,.07,1.34.47,1.69,1.37,1.13,2.9,2.47,5.72,3.64,8.61a2,2,0,0,1-.18,1.72c-2,2.5-4,4.93-6.08,7.36-1.15,1.36-1.61,1.91-1.39,2.63l10.2,10.22c1,.32,1.66-.22,3.46-1.69m11.62-23a23.38,23.38,0,1,1,33.07,0,23.35,23.35,0,0,1-33.07,0"/><polygon class="cls-4" points="332.08 380.97 802.47 380.97 693.99 175.35 629.82 280.34 583.1 214.58 538.86 293.58 485.92 136.12 424.87 309.38 393.26 267.98 332.08 380.97"/><rect class="cls-5" x="699.15" y="452.71" width="436.84" height="27.26"/><rect class="cls-6" x="699.15" y="501.46" width="436.84" height="6.67"/><rect class="cls-7" x="699.15" y="527.04" width="436.84" height="6.67"/><rect class="cls-6" x="699.15" y="552.62" width="436.84" height="6.67"/><rect class="cls-7" x="699.15" y="578.21" width="436.84" height="6.67"/><rect class="cls-6" x="699.15" y="603.79" width="436.84" height="6.67"/><rect class="cls-6" x="699.15" y="629.37" width="436.84" height="6.67"/><rect class="cls-7" x="699.15" y="654.96" width="436.84" height="6.67"/><rect class="cls-6" x="699.15" y="680.54" width="436.84" height="6.67"/><rect class="cls-7" x="699.15" y="706.12" width="436.84" height="6.67"/><rect class="cls-6" x="699.15" y="731.71" width="436.84" height="6.67"/><rect class="cls-8" x="1019.48" y="144.24" width="105.1" height="10.03"/><rect class="cls-6" x="1019.48" y="162.17" width="105.1" height="2.45"/><rect class="cls-7" x="1019.48" y="171.58" width="105.1" height="2.45"/><rect class="cls-6" x="1019.48" y="180.99" width="105.1" height="2.45"/><rect class="cls-7" x="1019.48" y="190.4" width="105.1" height="2.45"/><rect class="cls-6" x="1019.48" y="199.8" width="105.1" height="2.45"/><rect class="cls-6" x="1019.48" y="209.21" width="105.1" height="2.45"/><rect class="cls-7" x="1019.48" y="218.62" width="105.1" height="2.45"/><rect class="cls-6" x="1019.48" y="228.03" width="105.1" height="2.45"/><rect class="cls-7" x="1019.48" y="237.44" width="105.1" height="2.45"/><rect class="cls-6" x="1019.48" y="246.85" width="105.1" height="2.45"/><path class="cls-9" d="M1005.63,130.4a132.75,132.75,0,1,0,132.8,132.74h-132.8Z"/><rect class="cls-10" x="99.04" y="506.43" width="12.66" height="65.04"/><rect class="cls-11" x="121.85" y="514.56" width="12.66" height="48.78"/><rect class="cls-12" x="144.65" y="506.43" width="12.66" height="65.04"/><rect class="cls-13" x="167.45" y="476.48" width="12.66" height="122.95"/><rect class="cls-14" x="190.25" y="494.02" width="12.66" height="89.86"/><rect class="cls-15" x="396.32" y="476.48" width="12.66" height="122.95"/><rect class="cls-16" x="419.12" y="500.44" width="12.66" height="77.02"/><rect class="cls-17" x="440.34" y="520.98" width="12.66" height="35.94"/><rect class="cls-18" x="460.88" y="510.28" width="12.66" height="57.34"/><rect class="cls-19" x="481.86" y="480.06" width="12.66" height="117.79"/><rect class="cls-20" x="503.5" y="514.56" width="12.66" height="48.78"/><rect class="cls-21" x="525.9" y="500.44" width="12.66" height="77.02"/><rect class="cls-22" x="546.77" y="476.48" width="12.66" height="124.95"/><rect class="cls-23" x="567.27" y="500.44" width="12.66" height="73.17"/><rect class="cls-24" x="588.67" y="518.32" width="12.66" height="37.41"/><rect class="cls-25" x="609.35" y="525.97" width="12.66" height="22.11"/><rect class="cls-26" x="77.25" y="520.98" width="12.66" height="32.09"/><rect class="cls-27" x="302.96" y="476.48" width="12.66" height="122.95"/><rect class="cls-28" x="325.76" y="494.02" width="12.66" height="89.86"/><rect class="cls-29" x="213.05" y="514.56" width="12.66" height="48.78"/><rect class="cls-30" x="235.86" y="520.98" width="12.66" height="35.94"/><rect class="cls-31" x="350.42" y="514.56" width="12.66" height="48.78"/><rect class="cls-32" x="373.22" y="500.44" width="12.66" height="77.02"/><rect class="cls-33" x="258.66" y="510.28" width="12.66" height="57.34"/><rect class="cls-34" x="281.46" y="500.44" width="12.66" height="77.02"/><path class="cls-35" d="M1162,27.52H1113.4A27.52,27.52,0,0,0,1085.87,0H798.49A27.52,27.52,0,0,0,771,27.52H429.48A27.52,27.52,0,0,0,402,0H114.57A27.52,27.52,0,0,0,87.05,27.52H53a53,53,0,0,0-53,53V756.33a53,53,0,0,0,53,53H1162a53,53,0,0,0,53-53V80.48a53,53,0,0,0-53-53m31.66,728.81A31.69,31.69,0,0,1,1162,788H53a31.68,31.68,0,0,1-31.66-31.64V80.48A31.69,31.69,0,0,1,53,48.83H1162a31.7,31.7,0,0,1,31.66,31.65Z"/><rect class="cls-36" x="78.29" y="651.88" width="211.08" height="26.85"/><rect class="cls-37" x="78.29" y="691.74" width="211.08" height="26.85"/><rect class="cls-38" x="78.29" y="731.6" width="211.08" height="26.85"/><rect class="cls-39" x="78.29" y="651.88" width="39.9" height="26.85"/><rect class="cls-39" x="78.29" y="691.74" width="97.87" height="26.85"/><rect class="cls-39" x="78.29" y="731.6" width="46.98" height="26.85"/><path class="cls-40" d="M478.83,699.63a56.12,56.12,0,1,1-56.12-56.09,56.11,56.11,0,0,1,56.12,56.09"/><path class="cls-39" d="M562,643.73a56.07,56.07,0,0,0,0,111.81Z"/><path class="cls-41" d="M570.7,643.73V755.54a56.07,56.07,0,0,0,0-111.81"/><g class="cls-42"><path class="cls-43" d="M60.84,951.58a8803.65,8803.65,0,0,1,1093.32,19,8801.78,8801.78,0,0,1-1093.32-19Z"/></g></g></g></svg>