<svg xmlns="http://www.w3.org/2000/svg" xmlns:xlink="http://www.w3.org/1999/xlink" viewBox="0 0 489.23 475.84"><defs><style>.cls-1{fill:#8e8786;}.cls-2{fill:#e6abaa;}.cls-3{fill:#383333;}.cls-4{fill:#fff;}.cls-5{fill:url(#linear-gradient);}.cls-6{fill:url(#linear-gradient-2);}.cls-7{fill:url(#linear-gradient-3);}.cls-8{fill:url(#linear-gradient-4);}.cls-9{fill:#ececec;}.cls-10{fill:url(#linear-gradient-5);}.cls-11{fill:url(#linear-gradient-6);}.cls-12{fill:url(#linear-gradient-7);}.cls-13{opacity:0.3;}.cls-14{fill:url(#linear-gradient-8);}</style><linearGradient id="linear-gradient" x1="80.17" y1="123.44" x2="37.84" y2="114.75" gradientTransform="translate(-3.49 -4.81) rotate(0.96)" gradientUnits="userSpaceOnUse"><stop offset="0" stop-color="#c66665"/><stop offset="1" stop-color="#d4b6b5"/></linearGradient><linearGradient id="linear-gradient-2" x1="-18.2" y1="375.63" x2="419.78" y2="22.77" xlink:href="#linear-gradient"/><linearGradient id="linear-gradient-3" x1="176.65" y1="148.26" x2="34.37" y2="109.53" gradientUnits="userSpaceOnUse"><stop offset="0" stop-color="#5f5f5f"/><stop offset="0.65" stop-color="#968e8d"/><stop offset="1" stop-color="#aea2a1"/></linearGradient><linearGradient id="linear-gradient-4" x1="189.93" y1="153.03" x2="31.97" y2="110.03" xlink:href="#linear-gradient-3"/><linearGradient id="linear-gradient-5" x1="284.99" y1="-19.95" x2="265.58" y2="3.04" xlink:href="#linear-gradient"/><linearGradient id="linear-gradient-6" x1="169.54" y1="166.77" x2="150.13" y2="189.76" xlink:href="#linear-gradient"/><linearGradient id="linear-gradient-7" x1="147.02" y1="-100.2" x2="127.61" y2="-77.21" xlink:href="#linear-gradient"/><linearGradient id="linear-gradient-8" x1="126.55" y1="231.52" x2="113.22" y2="75.08" xlink:href="#linear-gradient-3"/></defs><g id="Layer_2" data-name="Layer 2"><g id="Layer_1-2" data-name="Layer 1"><path class="cls-1" d="M271.63,413.86c4.55-.92,9.1-1.62,13.64-2.26s9.09-1.18,13.64-1.68c9.08-1,18.16-1.66,27.24-2.19q27.24-1.51,54.43-1T435,409.54c9.06.83,18.11,1.83,27.16,3.11,4.52.65,9,1.34,13.56,2.14s9.05,1.66,13.56,2.74c-4.55.93-9.1,1.64-13.64,2.28S466.5,421,462,421.49c-9.09,1-18.17,1.67-27.25,2.2q-27.22,1.51-54.43,1t-54.37-2.86c-9.05-.84-18.1-1.83-27.15-3.11-4.53-.65-9.05-1.33-13.57-2.13S276.15,414.94,271.63,413.86Z"/><path class="cls-2" d="M171.87,205.64c-1.47,3.33,2,4.8,2,4.8a6.79,6.79,0,0,0-3.31,3.24c-1.11,2.58,2.46,5.43,2.46,5.43a8.37,8.37,0,0,0-3,4c-.81,2.58,2.38,6,2.38,6a7.36,7.36,0,0,0-.4,5.13c1.49,4.49,8.49,6.25,12.95,7.33,6.63,1.61,18.13.18,20.76.26l7.51-28.49s-18.55-10.43-23.92-11.35S173.32,202.36,171.87,205.64Z"/><path class="cls-3" d="M174.19,210c5-.64,9.87.23,14.81.82a.09.09,0,0,1,0,.17c-4.9-.65-9.87-.31-14.79-.76A.12.12,0,0,1,174.19,210Z"/><path class="cls-3" d="M173.21,218.76a13,13,0,0,1,3.4.35c1.2.2,2.39.43,3.58.67,2.38.49,4.75,1,7.1,1.64.11,0,.09.19,0,.17-2.37-.48-4.75-.93-7.14-1.31q-1.8-.28-3.6-.54a15.36,15.36,0,0,1-3.36-.65A.17.17,0,0,1,173.21,218.76Z"/><path class="cls-3" d="M172.55,229.07a9.38,9.38,0,0,1,3,.47q1.62.38,3.24.72c2.17.46,4.33.93,6.51,1.32.11,0,.09.19,0,.17-2.22-.39-4.44-.74-6.65-1.14l-3.26-.62a8.53,8.53,0,0,1-2.9-.81A.06.06,0,0,1,172.55,229.07Z"/><path class="cls-4" d="M209.39,210.87l-4.55,31.48s71.43,49.94,93.06,44.16,50.88-59.94,75.59-97.37,3.7-44.77-25.65-26.75-55.61,60-58.79,60.18-79.66-11.7-79.66-11.7"/><path class="cls-3" d="M365.25,154.33a66.5,66.5,0,0,0-10.42,4.81,85.34,85.34,0,0,0-9.58,6.22,150.74,150.74,0,0,0-16.93,15.23c-10.61,10.92-20,22.9-29.58,34.94-1.2,1.5-2.41,3-3.66,4.51-.63.76-1.27,1.51-2,2.26-.34.38-.71.76-1.12,1.16-.22.2-.44.4-.73.62a3.55,3.55,0,0,1-.52.36,3.48,3.48,0,0,1-1,.43,3,3,0,0,1-.78.07h-.19l-.38,0-.76-.05-1.52-.11-2.91-.32c-1.94-.22-3.84-.51-5.76-.76-7.65-1-15.23-2.37-22.81-3.69-15.14-2.71-30.23-5.66-45.23-9.1,15.3,1.64,30.54,3.62,45.77,5.55q11.43,1.47,22.83,2.82c1.89.2,3.8.43,5.68.59l2.82.24,1.36.06.68,0,.34,0H289a3.18,3.18,0,0,0-.43.05,1.17,1.17,0,0,0-.36.13l.07-.06c.09-.07.22-.19.36-.32s.58-.59.87-.92c.6-.67,1.2-1.39,1.79-2.11,1.19-1.46,2.37-3,3.54-4.48,4.68-6.08,9.55-12.09,14.59-18,2.51-2.93,5.15-5.77,7.82-8.58s5.42-5.55,8.29-8.17A118.47,118.47,0,0,1,344,163.55C350.7,159.58,357.72,156.08,365.25,154.33Z"/><path class="cls-3" d="M204.84,242.35c16.69,9.4,33.35,18.74,50.36,27,4.27,2.05,8.53,4.07,12.85,5.89s8.65,3.53,13,4.91a64.52,64.52,0,0,0,6.5,1.73,31.59,31.59,0,0,0,6.2.72,11.44,11.44,0,0,0,2.61-.27,12.49,12.49,0,0,0,2.54-.89,29.17,29.17,0,0,0,5.24-3.22,75.13,75.13,0,0,0,9.79-9.19c3.09-3.41,6.05-7,8.95-10.7,5.76-7.4,11.26-15.12,16.74-22.9s10.9-15.63,16.47-23.41,11.23-15.53,17.39-22.92c-8.81,17.06-17.76,33.91-27.69,50.37-5,8.21-10.18,16.32-16,24.14-2.9,3.91-5.94,7.75-9.26,11.43a74.63,74.63,0,0,1-11.09,10.35,34.85,34.85,0,0,1-7,4.13,22.29,22.29,0,0,1-4.25,1.36,20.41,20.41,0,0,1-4.51.38,36.65,36.65,0,0,1-8-1.13,72.21,72.21,0,0,1-7.27-2.2,170.31,170.31,0,0,1-26.35-12.7c-8.37-4.82-16.45-10-24.32-15.55S212.2,248.5,204.84,242.35Z"/><path class="cls-3" d="M221,237.18A211.15,211.15,0,0,1,226,213.61c.73,4.69-.21,7.55-.88,13.19-2,9.24-2.67,16.14-6.21,25.15C219.12,246.16,220,243.13,221,237.18Z"/><path class="cls-1" d="M55.49,81.68c.1.41-3.13,1.25-7.71,3.78a40,40,0,0,0-7.4,5.31,43.1,43.1,0,0,0-3.69,3.89,40.08,40.08,0,0,0-3.3,4.7,37.65,37.65,0,0,0-4.26,10.22,39,39,0,0,0-1.2,9,54.31,54.31,0,0,0,.29,6.21c.13,1.48.19,2.32,0,2.37s-.57-.71-1-2.17a28.39,28.39,0,0,1-1.13-6.36,34.21,34.21,0,0,1,.7-9.62,35.9,35.9,0,0,1,4.36-11,36.31,36.31,0,0,1,7.65-9A34.75,34.75,0,0,1,47,83.81C52,81.59,55.44,81.4,55.49,81.68Z"/><path class="cls-5" d="M34.42,124.69A30.56,30.56,0,1,0,57.11,87.9,30.57,30.57,0,0,0,34.42,124.69Z"/><path class="cls-1" d="M159.81,254.21c.37.12-.35,2.85-1.29,7.19a25.72,25.72,0,0,0-.66,7.46c0,.33.13.63.19.95s.21.59.32.88a4.08,4.08,0,0,0,1.13,1.39,9.43,9.43,0,0,0,4.06,1.55c3.23.59,6.56.82,9.53,1.29a56,56,0,0,1,7.85,1.71c4.41,1.31,6.87,2.8,6.74,3.09s-2.8-.49-7.17-1.3c-2.19-.42-4.8-.81-7.73-1.12s-6.18-.47-9.72-1.12a11.48,11.48,0,0,1-5.18-2.12,6.49,6.49,0,0,1-1.77-2.34,11.77,11.77,0,0,1-.43-1.31c-.07-.43-.17-.87-.2-1.28a22.89,22.89,0,0,1,1.26-8.19C158.17,256.58,159.5,254.1,159.81,254.21Z"/><path class="cls-1" d="M227.49,181.52c0-.09.32-.18.92-.28s1.47-.16,2.58-.4a30.7,30.7,0,0,0,9-2.91,32,32,0,0,0,5.47-3.47,33.28,33.28,0,0,0,5.16-5.29,29.43,29.43,0,0,0,5.85-15.62,36.84,36.84,0,0,0-.31-8.81,41.89,41.89,0,0,0-.81-4.13c-.13-.68-.39-1.32-.57-2s-.35-1.3-.61-1.9a35.89,35.89,0,0,0-7.07-11.94,27.66,27.66,0,0,0-7.44-5.75,11.4,11.4,0,0,0-1.35-.64c-.39-.17-.73-.33-1-.47-.54-.27-.82-.45-.8-.54s.35-.07.95,0l1.12.24a8.44,8.44,0,0,1,1.49.45,24.16,24.16,0,0,1,8.34,5.38,35,35,0,0,1,8,12.38c.29.64.47,1.33.7,2s.49,1.36.64,2.08a40.24,40.24,0,0,1,.93,4.37,37.62,37.62,0,0,1,.39,9.41,30.76,30.76,0,0,1-6.56,16.88,33.06,33.06,0,0,1-5.74,5.53,30.67,30.67,0,0,1-6,3.43,26,26,0,0,1-9.65,2.24,14.18,14.18,0,0,1-2.69-.08C227.8,181.69,227.49,181.61,227.49,181.52Z"/><path class="cls-6" d="M187.32,173.17l14.19-59.92,33.25,10.44c12.53,3.19,19.19,20.77,16.15,33.33A23.59,23.59,0,0,1,222,174.3l-2.25-.3-16.85,92.18a9.88,9.88,0,0,1-12.21,7.8c-11.28-2.93-28.61-6.45-28.61-6.45C161,268.51,185.91,178.27,187.32,173.17Z"/><path class="cls-7" d="M90,46.7,88.25,54,79.66,89.18,55.91,186.53l-1.46,6a8.32,8.32,0,1,1-16.16-3.94L65,79.08l8.86-36.32A8.32,8.32,0,1,1,90,46.7Z"/><path class="cls-1" d="M74.46,188c-.2-.68,8.54-3.83,19.66-6.49s20.35-3.76,20.48-3.06-8.82,2.94-19.87,5.6S74.67,188.73,74.46,188Z"/><path class="cls-1" d="M204,105.9c-.08.35-4.67-.34-11.9-2.19a243.6,243.6,0,0,1-27.73-9,214,214,0,0,1-26.45-12.33c-1.62-.92-3.11-1.73-4.37-2.52s-2.33-1.48-3.2-2.06c-1.74-1.16-2.65-1.88-2.56-2s1.18.26,3.06,1.15c.95.44,2.09,1,3.4,1.67s2.85,1.35,4.52,2.16c6.67,3.22,16,7.43,26.54,11.53s20.25,7.37,27.3,9.67S204.09,105.55,204,105.9Z"/><path class="cls-8" d="M201.51,113.25l-4.4,18.56-8.65,36.52c-43.84-8-107,10-132.55,18.2-7.15,2.3-11.34,3.85-11.34,3.85L72.63,84.64l10-37.72q2.61,3.63,5.61,7C125.39,96.5,201.51,113.25,201.51,113.25Z"/><path class="cls-4" d="M271.63,413.86l217.6,3.67c0-4.35-34.33-215.28-71.36-255.38-15.78-17.09-49.82-10.58-54.42-7.74C318.86,181.94,268.93,411,271.63,413.86Z"/><path class="cls-2" d="M368.07,183.87c11.2,5.41,35.51-8.16,46.78-21,.76-.89,1.57-11.81,3.18-25,1-8,2.32-16.94,4.11-25,.37-1.65-53.18,1.06-53.18,1.06s1.22,18-2,32a18.54,18.54,0,0,1-1.07,3.23,5,5,0,0,0-.2.53C363.3,155.66,357.24,178.62,368.07,183.87Z"/><path class="cls-3" d="M419,112.35c-5.36,13.08-21.11,44.06-48.17,38.7a31.26,31.26,0,0,1-5.1-1.42,2.59,2.59,0,0,1,.19-.54,20.84,20.84,0,0,0,1.09-3.21c3.2-14,2-32,2-32S407.59,111.92,419,112.35Z"/><path class="cls-2" d="M439.26,50c2.8,18.95-14.67,69.85-29.32,79.58-21.24,14.1-52.07,11.1-63.06-13.53-10.65-23.87,13.29-89.81,29.29-98.24C399.73,5.38,435.13,22,439.26,50Z"/><path class="cls-3" d="M383.19,74.23c.07-.12.2.26.14.4-1.39,3.34-2.43,7.41.21,9.7.08.07,0,.24-.1.18C379.9,82.56,381.33,77.17,383.19,74.23Z"/><path class="cls-3" d="M387.56,71.84c5.6,1.66,1.87,12.75-3.32,11.21S382.86,70.45,387.56,71.84Z"/><path class="cls-3" d="M363.92,67.86c0-.14-.32.07-.37.22-1,3.47-2.83,7.27-6.32,7.36-.11,0-.15.18,0,.2C361.17,76.39,363.49,71.32,363.92,67.86Z"/><path class="cls-3" d="M362.06,63.24C356.68,61,352.52,71.9,357.5,74S366.57,65.15,362.06,63.24Z"/><path class="cls-3" d="M393.47,69.63a45.12,45.12,0,0,1-4.24-2.24c-1.62-.88-3-1.42-3.9-3.12a2.47,2.47,0,0,1,.83-2.9c2-1.28,4.22-.7,6.22.28a9.05,9.05,0,0,1,4.56,4.62C397.91,68.39,395.48,70.46,393.47,69.63Z"/><path class="cls-3" d="M359.65,55.94a45.17,45.17,0,0,0,4.79.34c1.85.11,3.3.39,5-.59a2.48,2.48,0,0,0,.83-2.9c-1-2.13-3.22-2.82-5.43-3a8.94,8.94,0,0,0-6.31,1.51C356.54,52.54,357.51,55.59,359.65,55.94Z"/><path class="cls-3" d="M378.18,108.08c-1.09.53-2.28,1.36-3.56,1a9.67,9.67,0,0,1-3.41-2.1.12.12,0,0,0-.2.12,4.87,4.87,0,0,0,3.73,3.34c1.65.25,2.87-.84,3.72-2.13C378.58,108.17,378.34,108,378.18,108.08Z"/><path class="cls-3" d="M378,96.58a12.38,12.38,0,0,1-9.56,2.58,15.77,15.77,0,0,1-4.27-1.22,4.57,4.57,0,0,1-.77-.37,6.93,6.93,0,0,1-.71-.37.89.89,0,0,1-.44-1v0a1.75,1.75,0,0,1,.15-.34v0l.11-.3c.82-2.67,2.43-6.6,2.43-6.6-1.13.16-6.81.71-6.26-.64,4.53-11.21,9.57-23.68,16.44-33.88a.34.34,0,0,1,.6.3c-3.93,11-9.75,21.13-13.88,32.06,1.78-.07,4.72-.31,6.09.18.34.24-3.25,7.56-3.52,8.79a.38.38,0,0,0,0,.13c4.26,2.06,8.06,1.85,13.38.31C378.14,96.05,378.33,96.38,378,96.58Z"/><path class="cls-3" d="M366.21,97.12a14.68,14.68,0,0,0,4.11,6.18,6.66,6.66,0,0,0,3.71,1.51c3,.2,3.91-2.3,4.13-4.62a16.26,16.26,0,0,0-.12-3.71A19,19,0,0,1,366.21,97.12Z"/><path class="cls-4" d="M370.32,103.3a6.66,6.66,0,0,0,3.71,1.51c3,.2,3.91-2.3,4.13-4.62C375.11,99.5,371.53,100.52,370.32,103.3Z"/><path class="cls-3" d="M418.57,77.51c9.56-54.11-7.66-35.56-43.4-31.88a24.88,24.88,0,0,1-17.54-4.72c-26.7-20.16,29.68-63.15,72.46-22.62-7.9-22.21,13.41,1.9,12,7.81,1.6-1.59,16.26,2.63,15.89,5.78.15,1-5.64.88-9.65.5,14.16,11.69-11.59,60.2-19,66C425.2,98.3,419.41,82,418.57,77.51Z"/><path class="cls-3" d="M446.89,31.13c16.48,18.81-1.4,43.19-13,60.35C446,78.1,465.74,48.27,446.89,31.13Z"/><path class="cls-3" d="M421.77,40c-19.71-6.21-37.28,12.38-57.32,6.86C382.77,53,404.85,36.9,421.77,40Z"/><path class="cls-3" d="M421.11,12.46C398.48-7.6,342.85-5.76,353.69,35.2,346.66-5.87,395.63-5.46,421.11,12.46Z"/><path class="cls-2" d="M421.64,91s14.69-14.85,21.62-9.33-6.13,28.46-15.69,30.26-11.41-7-11.41-7Z"/><path class="cls-3" d="M439.35,88.11c.15,0,.14.22,0,.25-6.74,1.47-11.06,6.75-14.42,12.41,2.27-2,5-2.85,7.78-.09.15.15-.05.38-.23.31-2.48-1-4.42-.87-6.52.9a27,27,0,0,0-3.82,4.5c-.39.51-1.36,0-1-.58,0,0,.05-.09.07-.14C422.41,97.61,430.59,87.44,439.35,88.11Z"/><path class="cls-9" d="M365.32,150.43,369.4,183l47.14-27.5,7.31,14.69s-52.24,49.62-51.75,46.89l-5.48-28.57-22.52,13,13.36-43.89Z"/><path class="cls-3" d="M349.46,179.41c2.45-7.18,4.72-14.47,7.51-21.53.1-.25.54-.25.52.07-.41,7.44-9.94,34.83-11.72,41.53l.1-.06c.95-.57,20.66-11.21,20.75-10.93,1.58,4.72,5.65,25.54,5.81,27.38,8.27-7.89,42.62-38.53,51.81-45.63a.26.26,0,0,1,.37.37c-7.74,8.59-52.39,49.2-52.8,49-.37.15-5.47-25.52-5.66-30.17-3.52,2.52-23.89,15-23.65,13.92A234.21,234.21,0,0,1,349.46,179.41Z"/><path class="cls-2" d="M198.19,231.5c-2.11,3,1,5.11,1,5.11a6.8,6.8,0,0,0-3.89,2.5c-1.6,2.31,1.31,5.82,1.31,5.82a8.4,8.4,0,0,0-3.69,3.3c-1.31,2.36,1.13,6.32,1.13,6.32a7.39,7.39,0,0,0-1.42,4.94c.55,4.7,7,7.83,11.2,9.8,6.17,2.91,17.72,3.83,20.28,4.44l13.11-26.39s-16.07-14-21.15-15.94S200.27,228.58,198.19,231.5Z"/><path class="cls-3" d="M199.57,236.28c5,.38,9.63,2.22,14.34,3.79a.09.09,0,0,1,0,.17c-4.68-1.63-9.61-2.3-14.34-3.73A.12.12,0,0,1,199.57,236.28Z"/><path class="cls-3" d="M196.85,244.63a13.06,13.06,0,0,1,3.27,1q1.69.66,3.36,1.38,3.36,1.44,6.63,3c.09.05,0,.21-.06.16q-3.35-1.42-6.73-2.72c-1.14-.43-2.27-.85-3.41-1.26a15.13,15.13,0,0,1-3.17-1.31A.17.17,0,0,1,196.85,244.63Z"/><path class="cls-3" d="M194.12,254.59a9.34,9.34,0,0,1,2.9,1.08q1.5.69,3,1.35c2,.9,4,1.79,6.1,2.61.11,0,0,.2-.05.16-2.09-.82-4.2-1.62-6.28-2.46-1-.41-2-.83-3.07-1.26a8.53,8.53,0,0,1-2.68-1.38A.06.06,0,0,1,194.12,254.59Z"/><path class="cls-4" d="M231.89,242.94l-12.74,29.75s180.6,105.48,236.65,98.1c38.84-5.11,28.74-47.48,26.44-64.21-1.64-12-21.64-84.31-37.39-113.77s-29.78-30-32.16,10,.65,88.64-1,87.91S231.89,242.94,231.89,242.94Z"/><path class="cls-3" d="M411.93,289.36c5.12,5.3,8.82,11.1,12.57,16.81a194.28,194.28,0,0,1,9.77,17.72c.07.13-.28.2-.36.07-3.45-5.83-7.59-11.49-11.4-17.22s-8.23-11.27-11.66-17.07C410.62,289.29,411.61,289,411.93,289.36Z"/><path class="cls-3" d="M475.42,278.67c6.22,30.48,24.64,95.8-30,90.6-48-6.9-169.55-62.4-226.26-96.54l.06.41-.45-.36-.19.23c55.5,37.5,177.81,92.84,226.64,99.95C504.94,376.54,484.63,311.93,475.42,278.67Z"/><path class="cls-3" d="M411.85,226.28c-.8,20.44-.65,44.2-1.12,63.44a1.32,1.32,0,0,1,1.37-.54c-.25-.09-.93-.54-1.21-.64-18.76-6.41-155.65-42.18-179.07-45.56v.18l.34,0-.2.15c24,5.78,160.06,43,177.58,47.6,1.21.32,2.94,1.7,3.65.07C414.58,270,413,247.35,411.85,226.28Z"/><path class="cls-3" d="M249,273.23a222.74,222.74,0,0,1,9.38-24.08c0,5-1.51,7.9-3.2,13.72-3.79,9.43-5.66,16.58-11.07,25.56C245.33,282.4,246.77,279.32,249,273.23Z"/><path class="cls-3" d="M407.84,238.15a85.55,85.55,0,0,0,4.07,17.36,76.29,76.29,0,0,0-1.58-8.79A78.33,78.33,0,0,0,407.84,238.15Z"/><path class="cls-10" d="M252.22,32.06l2.46.33a1,1,0,0,1,0,1.92l-2.47.3a18,18,0,0,0-15.7,15.48l-.33,2.46a1,1,0,0,1-1.92,0l-.3-2.47a18,18,0,0,0-15.48-15.7L216,34a1,1,0,0,1,0-1.92l2.47-.29a18,18,0,0,0,15.7-15.49l.33-2.46a1,1,0,0,1,1.92,0l.3,2.46A18,18,0,0,0,252.22,32.06Z"/><path class="cls-11" d="M114.54,230.94l-.19,1.41a.55.55,0,0,1-1.1,0l-.17-1.41a10.32,10.32,0,0,0-8.88-9l-1.41-.19a.56.56,0,0,1,0-1.11l1.41-.17a10.34,10.34,0,0,0,9-8.87l.19-1.42a.56.56,0,0,1,1.1,0l.17,1.42a10.33,10.33,0,0,0,8.88,9l1.41.19a.55.55,0,0,1,0,1.1l-1.42.17A10.34,10.34,0,0,0,114.54,230.94Z"/><path class="cls-12" d="M12.23,60.1,12,61.51a.55.55,0,0,1-1.1,0l-.17-1.42a10.33,10.33,0,0,0-8.88-9L.48,50.9a.55.55,0,0,1,0-1.1l1.41-.17a10.35,10.35,0,0,0,9-8.88l.19-1.41a.55.55,0,0,1,1.1,0l.17,1.42a10.33,10.33,0,0,0,8.88,9l1.41.19a.55.55,0,0,1,0,1.1l-1.41.17A10.35,10.35,0,0,0,12.23,60.1Z"/><g class="cls-13"><path class="cls-1" d="M279.32,466.37c8.38-1.47,16.74-2.4,25.1-3.21s16.71-1.33,25.07-1.75c16.7-.8,33.39-1,50.08-.71s33.36,1.12,50,2.52c8.34.72,16.67,1.58,25,2.67s16.65,2.35,25,4.14c-8.37,1.49-16.73,2.42-25.09,3.23s-16.72,1.34-25.07,1.75q-25.06,1.2-50.09.69c-16.68-.32-33.36-1.13-50-2.54-8.33-.72-16.66-1.58-25-2.67S287.64,468.15,279.32,466.37Z"/></g><path class="cls-14" d="M201.51,113.25l-13,55.08c-43.84-8-107,10-132.55,18.2l-1.46,6a8.32,8.32,0,1,1-16.16-3.94L65,79.08q3.68,2.86,7.63,5.56c2.28,1.56,4.63,3.08,7,4.54C118.62,113.15,168,126.21,201.51,113.25Z"/></g></g></svg>