<svg xmlns="http://www.w3.org/2000/svg" xmlns:xlink="http://www.w3.org/1999/xlink" viewBox="0 0 593.01 1186.95"><defs><style>.cls-1,.cls-3{fill:none;}.cls-2{fill:#867878;}.cls-3{stroke:#d18984;stroke-miterlimit:10;stroke-width:1.03px;}.cls-4{clip-path:url(#clip-path);}.cls-5{fill:url(#linear-gradient);}.cls-6{clip-path:url(#clip-path-2);}.cls-7{fill:url(#linear-gradient-2);}.cls-8{fill:url(#linear-gradient-3);}.cls-9{clip-path:url(#clip-path-3);}.cls-10{fill:url(#linear-gradient-4);}.cls-11{clip-path:url(#clip-path-4);}.cls-12{fill:url(#linear-gradient-5);}.cls-13{fill:#d5b7b6;}.cls-14{font-size:13.4px;font-family:MyriadPro-Regular, Myriad Pro;}.cls-15{fill:#a79f9f;}.cls-16{fill-rule:evenodd;fill:url(#linear-gradient-6);}.cls-17{clip-path:url(#clip-path-5);}.cls-18{fill:url(#linear-gradient-7);}.cls-19{opacity:0.31;}.cls-20{clip-path:url(#clip-path-6);}.cls-21{fill:#e2938c;}.cls-22{clip-path:url(#clip-path-7);}.cls-23{fill:url(#linear-gradient-8);}.cls-24{fill:#d18984;}.cls-25{clip-path:url(#clip-path-8);}.cls-26{fill:url(#linear-gradient-9);}.cls-27{fill:#fac5bc;}.cls-28{fill:#fff;}.cls-29{clip-path:url(#clip-path-9);}.cls-30{fill:#f1f2f2;}.cls-31{clip-path:url(#clip-path-10);}.cls-32{opacity:0.3;}.cls-33{fill:#8e8786;}</style><clipPath id="clip-path" transform="translate(1.1)"><path class="cls-1" d="M30.05,370.28s4,79.72,0,102.23S-1.1,606.37,0,631.34c2.41,52.95,15.7,110.8,16,113.81,2.83,28.29,32.43,62.74,30.93,74.92-.51,4.26.24,40.52,1.46,85.85q7.18,3.39,14.42,7,4.68,2.35,9.32,4.66c65,32.3,125.61,58.1,182.12,78.16l.59.21-2.19-150.57-.2-13.18-.59-41-.11-6.49,0-3.39,10.33-90.48.12-1.09,33-.81s10.58.81,15.08-5.89c1.24-1.83,3.52-5.59,6.22-10.13,7.15-12.05,17.2-29.64,18.3-31.85,1.5-3.05,6-20.09-7.5-32.26s-16.52-12.17-16.52-12.17l-26.52,30.43L64.57,361.75s-9.14-9.11-9.58-8.81a15.66,15.66,0,0,1-1.88-.39,18.7,18.7,0,0,0-3.87-.41c-5.65,0-14.13,2.72-19.19,18.14"/></clipPath><linearGradient id="linear-gradient" x1="-2734.75" y1="1121.09" x2="-2733.62" y2="1121.09" gradientTransform="matrix(298.54, 0, 0, -298.54, 816421.6, 335358.74)" gradientUnits="userSpaceOnUse"><stop offset="0" stop-color="#fac5bc"/><stop offset="0.03" stop-color="#fac5bc"/><stop offset="0.72" stop-color="#f9c3ba"/><stop offset="1" stop-color="#de8983"/></linearGradient><clipPath id="clip-path-2" transform="translate(1.1)"><path class="cls-1" d="M395.63,347.22,386.55,361l-6.93,4.84-4.51,106s48-81.72,51.54-95.25,3.5-19.16-6-29.31a14.15,14.15,0,0,0-10.72-4.51c-7.41,0-14.3,4.51-14.3,4.51"/></clipPath><linearGradient id="linear-gradient-2" x1="-2699.11" y1="1123.02" x2="-2697.99" y2="1123.02" gradientTransform="matrix(47.6, 0, 0, -47.6, 128848.16, 53860.47)" gradientUnits="userSpaceOnUse"><stop offset="0" stop-color="#f6bcb5"/><stop offset="1" stop-color="#e08d87"/></linearGradient><linearGradient id="linear-gradient-3" x1="-2699.6" y1="1123" x2="-2698.47" y2="1123" gradientTransform="matrix(48.15, 0, 0, -48.15, 130371.68, 54484.34)" xlink:href="#linear-gradient-2"/><clipPath id="clip-path-3" transform="translate(1.1)"><path class="cls-1" d="M372.67,589.92c7.94-5.81,39.6-43.22,46.6-61.25s-3.5-29.88-6.5-32.7-40.1-20.89-40.1-20.89c-51.1,21.95-7.94,120.66,0,114.84"/></clipPath><linearGradient id="linear-gradient-4" x1="-2740.53" y1="1101.24" x2="-2739.4" y2="1101.24" gradientTransform="matrix(0, -102.04, -102.04, 0, 112748.95, -279061.15)" gradientUnits="userSpaceOnUse"><stop offset="0" stop-color="#f9c3ba"/><stop offset="0.23" stop-color="#f9c3ba"/><stop offset="0.41" stop-color="#fac5bc"/><stop offset="1" stop-color="#e08c86"/><stop offset="1" stop-color="#de8983"/></linearGradient><clipPath id="clip-path-4" transform="translate(1.1)"><path class="cls-1" d="M343.39,604.25l15.51,93s26-24.8,36.53-38.89,10.51-13,11.51-28.18-27.51-33.39-27.51-33.39Z"/></clipPath><linearGradient id="linear-gradient-5" x1="-2705.75" y1="1122.2" x2="-2704.62" y2="1122.2" gradientTransform="matrix(56.37, 0, 0, -56.37, 152854.11, 63899.79)" xlink:href="#linear-gradient-4"/><linearGradient id="linear-gradient-6" x1="210.39" y1="658.61" x2="210.39" y2="143.77" gradientUnits="userSpaceOnUse"><stop offset="0" stop-color="#d5b7b6"/><stop offset="1" stop-color="#cf7675"/></linearGradient><clipPath id="clip-path-5" transform="translate(1.1)"><path class="cls-1" d="M364.15,730l0,0c-1.15,1.49-42.39,54.7-39.06,64.53,1,2.91,4.18,12.42,8.23,24.75,9.81,30,24.59,76.56,24.59,85.48,0,12.6-18.83-2.65-18.83-2.65-5.78-14.67-49.22-87.63-53.56-92.88s-16.41-21.52-31.36-24.14c-.8-.14-1.58-.26-2.34-.35-1.14-.14-2.23-.23-3.28-.28-11.34-.48-17.22,4.79-15.13,14.8,2.38,11.39,9,17.16,15.65,36l.27.78c.9,2.6,2,5.79,3.39,9.42,8.63,23.55,24.83,65.47,29.42,81.39,5.31,18.38,96,84.51,106.17,98.16,1.08,1.45,2.9,5.25,5.26,10.87,48.59,10.41,93.31,15.92,134.33,17.23q17.45.56,34,.11l3.33-.09a1.43,1.43,0,0,0,.29,0q13.34-.42,26.07-1.48c-20.27-47.77-36-85-36.3-86.47-1-4.2-22.21-162.19-24.61-171.12s-9.17-39.37-40.06-43c-19.29-2.3-21.82-1.52-24.06-.74-1.35.47-2.59.94-7.3.74-10.33-.43-46.47-6.56-58.94-8.7l-.34-.07-3.94-.67-8.68-5.26s-11.78-7.47-19.17-7.47a6.13,6.13,0,0,0-4,1.18"/></clipPath><linearGradient id="linear-gradient-7" x1="-2735.07" y1="1120.99" x2="-2733.94" y2="1120.99" gradientTransform="matrix(317.95, 0, 0, -317.95, 869845.5, 357309.95)" xlink:href="#linear-gradient"/><clipPath id="clip-path-6" transform="translate(1.1)"><rect class="cls-1" x="555.24" y="965.13" width="36.66" height="88.05"/></clipPath><clipPath id="clip-path-7" transform="translate(1.1)"><path class="cls-1" d="M364.15,730l22.68,44.62s6.27,3.67,11.58-4.2,21.71-14.17,30.88-12.6L399.93,742.2l-3.94-.69-8.68-5.25s-11.78-7.47-19.17-7.47a6.18,6.18,0,0,0-4,1.17"/></clipPath><linearGradient id="linear-gradient-8" x1="-2706.57" y1="1121.93" x2="-2705.44" y2="1121.93" gradientTransform="matrix(57.76, 0, 0, -57.76, 156701.22, 65558.41)" gradientUnits="userSpaceOnUse"><stop offset="0" stop-color="#fac5bc"/><stop offset="0.03" stop-color="#fac5bc"/><stop offset="0.25" stop-color="#f9c3ba"/><stop offset="1" stop-color="#de8983"/></linearGradient><clipPath id="clip-path-8" transform="translate(1.1)"><path class="cls-1" d="M430.26,758.31c4.82,2.62,9.65,2.1,15.92-2.63a23.82,23.82,0,0,1,13-4.72c-10.33-.43-46.47-6.55-58.94-8.7,3.32,1.76,25.52,13.62,30,16"/></clipPath><linearGradient id="linear-gradient-9" x1="-2702.83" y1="1122.07" x2="-2701.7" y2="1122.07" gradientTransform="matrix(52.26, 0, 0, -52.26, 141649.54, 59390.26)" xlink:href="#linear-gradient-8"/><clipPath id="clip-path-9" transform="translate(1.1)"><rect class="cls-1" x="84.4" y="284.23" width="54.96" height="38.54" transform="translate(-173.64 151.5) rotate(-41.74)"/></clipPath><clipPath id="clip-path-10" transform="translate(1.1)"><path class="cls-2" d="M302.71,252.05c-2.69.93-4.22,2.53-6,5.62l-1.52,3-9,17.53c-1.88,4.6-2.26,8.79,1.76,12.35a61.29,61.29,0,0,0,7,4.1l12.36,6.31a59.77,59.77,0,0,0,7.45,3.28c3.73.83,7.77-.47,10.51-4.94.39-.62,11.16-21.72,11.45-22.41,2.14-5.15.55-9.57-3.18-12.2-.85-.61-1-.74-5.74-3.17l-1.28-.65L312,253.42c-2.78-1.28-4.71-1.88-6.49-1.88a8.4,8.4,0,0,0-2.84.51"/></clipPath></defs><g id="Layer_2" data-name="Layer 2"><g id="Layer_1-2" data-name="Layer 1"><path class="cls-3" d="M31.29,402.5s13.77,4.29,15.27-10.93.17-35.79.17-35.79" transform="translate(1.1)"/><g class="cls-4"><rect class="cls-5" y="352.14" width="341.86" height="643.84"/></g><g class="cls-6"><rect class="cls-7" x="376.22" y="342.71" width="55.04" height="129.07"/></g><path class="cls-8" d="M386.55,361h0l9.08-13.76s6.89-4.51,14.3-4.51a14.15,14.15,0,0,1,10.72,4.51c5.91,6.31,8.15,10.88,8.15,16.69,0,3.53-.83,7.51-2.15,12.62-3.5,13.53-51.54,95.25-51.54,95.25l4.51-106,6.93-4.84h0l-6.93,4.84-4.51,106s48-81.72,51.54-95.25c1.32-5.11,2.15-9.09,2.15-12.62,0-5.81-2.24-10.38-8.15-16.69a14.15,14.15,0,0,0-10.72-4.51c-7.41,0-14.3,4.51-14.3,4.51L386.55,361Z" transform="translate(1.1)"/><g class="cls-9"><rect class="cls-10" x="322.67" y="475.08" width="104.71" height="120.65"/></g><g class="cls-11"><rect class="cls-12" x="344.5" y="596.79" width="64.54" height="100.46"/></g><path class="cls-2" d="M360.16,848.38H69.66a27.31,27.31,0,0,1-27.31-27.31V172.78a27.31,27.31,0,0,1,27.31-27.31h290.5a27.31,27.31,0,0,1,27.31,27.31V821.07a27.31,27.31,0,0,1-27.31,27.31" transform="translate(1.1)"/><path class="cls-13" d="M349.36,836.94H79.23a21.36,21.36,0,0,1-21.36-21.36v-632a21.36,21.36,0,0,1,21.36-21.36H349.36a21.36,21.36,0,0,1,21.37,21.36v632a21.36,21.36,0,0,1-21.37,21.36" transform="translate(1.1)"/><path class="cls-2" d="M285,186.72H142A14.7,14.7,0,0,1,127.3,172V159H299.66V172A14.7,14.7,0,0,1,285,186.72" transform="translate(1.1)"/><rect x="316.28" y="175.29" width="1.63" height="8.58"/><rect x="312.61" y="177.33" width="1.63" height="6.53"/><rect x="308.52" y="179.78" width="1.63" height="4.08"/><rect x="304.44" y="180.6" width="1.63" height="3.27"/><path d="M342.34,182.23H329.68a1,1,0,0,1-1-1v-3.68a1,1,0,0,1,1-1h12.66a1,1,0,0,1,1,1v3.68a1,1,0,0,1-1,1" transform="translate(1.1)"/><text class="cls-14" transform="translate(89.67 185.82)">9:41</text><rect class="cls-2" x="387.35" y="242.27" width="4.9" height="99.66"/><rect class="cls-2" x="385.72" y="376.23" width="5.72" height="39.21"/><path class="cls-2" d="M360.16,848.38H69.66a27.31,27.31,0,0,1-27.31-27.31V172.78a27.31,27.31,0,0,1,27.31-27.31h290.5a27.31,27.31,0,0,1,27.31,27.31V821.07a27.31,27.31,0,0,1-27.31,27.31" transform="translate(1.1)"/><path class="cls-13" d="M349.36,836.94H79.23a21.36,21.36,0,0,1-21.36-21.36v-632a21.36,21.36,0,0,1,21.36-21.36H349.36a21.36,21.36,0,0,1,21.37,21.36v632a21.36,21.36,0,0,1-21.37,21.36" transform="translate(1.1)"/><path class="cls-2" d="M285,186.72H142A14.7,14.7,0,0,1,127.3,172V159H299.66V172A14.7,14.7,0,0,1,285,186.72" transform="translate(1.1)"/><rect x="316.28" y="175.29" width="1.63" height="8.58"/><rect x="312.61" y="177.33" width="1.63" height="6.53"/><rect x="308.52" y="179.78" width="1.63" height="4.08"/><rect x="304.44" y="180.6" width="1.63" height="3.27"/><path d="M342.34,182.23H329.68a1,1,0,0,1-1-1v-3.68a1,1,0,0,1,1-1h12.66a1,1,0,0,1,1,1v3.68a1,1,0,0,1-1,1" transform="translate(1.1)"/><text class="cls-14" transform="translate(89.67 185.82)">9:41</text><rect class="cls-2" x="387.35" y="242.27" width="4.9" height="99.66"/><rect class="cls-2" x="385.72" y="376.23" width="5.72" height="39.21"/><path class="cls-2" d="M360.16,848.38H69.66a27.31,27.31,0,0,1-27.31-27.31V172.78a27.31,27.31,0,0,1,27.31-27.31h290.5a27.31,27.31,0,0,1,27.31,27.31V821.07a27.31,27.31,0,0,1-27.31,27.31" transform="translate(1.1)"/><path class="cls-15" d="M360.16,848.38H69.66a27.31,27.31,0,0,1-27.31-27.31V172.78a27.31,27.31,0,0,1,27.31-27.31h290.5a27.31,27.31,0,0,1,27.31,27.31V821.07a27.31,27.31,0,0,1-27.31,27.31" transform="translate(1.1)"/><path class="cls-13" d="M349.36,836.94H79.23a21.36,21.36,0,0,1-21.36-21.36v-632a21.36,21.36,0,0,1,21.36-21.36H349.36a21.36,21.36,0,0,1,21.37,21.36v632a21.36,21.36,0,0,1-21.37,21.36" transform="translate(1.1)"/><path class="cls-2" d="M285,186.72H142A14.7,14.7,0,0,1,127.3,172V159H299.66V172A14.7,14.7,0,0,1,285,186.72" transform="translate(1.1)"/><rect x="316.28" y="175.29" width="1.63" height="8.58"/><rect x="312.61" y="177.33" width="1.63" height="6.53"/><rect x="308.52" y="179.78" width="1.63" height="4.08"/><rect x="304.44" y="180.6" width="1.63" height="3.27"/><path d="M342.34,182.23H329.68a1,1,0,0,1-1-1v-3.68a1,1,0,0,1,1-1h12.66a1,1,0,0,1,1,1v3.68a1,1,0,0,1-1,1" transform="translate(1.1)"/><text class="cls-14" transform="translate(89.67 185.82)">9:41</text><rect class="cls-2" x="387.35" y="242.27" width="4.9" height="99.66"/><rect class="cls-2" x="385.72" y="376.23" width="5.72" height="39.21"/><path class="cls-16" d="M133.74,654.22H332.15c-67.3,0-73.07-91.83-73.07-197.63V180.92h54.53L222.1,5.21c-1.71-3.3-4.28-5.21-7-5.21s-5.27,1.91-7,5.21L116.6,180.92h54.53V456.59c0,105.8-15.21,197.63-82.51,197.63Z" transform="translate(1.1)"/><path class="cls-2" d="M252.32,639.18A38.18,38.18,0,1,1,214.15,601a38.18,38.18,0,0,1,38.17,38.18" transform="translate(1.1)"/><path class="cls-13" d="M214.14,688.63a49.46,49.46,0,1,1,49.46-49.45A49.51,49.51,0,0,1,214.14,688.63Zm0-76.35a26.9,26.9,0,1,0,26.9,26.9A26.92,26.92,0,0,0,214.14,612.28Z" transform="translate(1.1)"/><g class="cls-17"><rect class="cls-18" x="232.39" y="728.79" width="360.25" height="324.69"/></g><g class="cls-19"><g class="cls-20"><path class="cls-21" d="M591.9,1051.57l-36.66-86.44s3.57,50,6.61,88c1.12,0,2.22-.05,3.33-.09a1.43,1.43,0,0,0,.29,0q13.34-.42,26.07-1.48Z" transform="translate(1.1)"/></g></g><g class="cls-22"><rect class="cls-23" x="365.25" y="728.79" width="65.15" height="49.47"/></g><path class="cls-24" d="M429.29,757.78a30,30,0,0,0-11.84,1.36,46.47,46.47,0,0,0-10.93,4.77,31.86,31.86,0,0,0-4.77,3.51,10.22,10.22,0,0,0-1.06,1,14.39,14.39,0,0,0-1,1.09l-.89,1.16-.92,1.24a10.64,10.64,0,0,1-5.06,3.67,8.33,8.33,0,0,1-6.3-.52l-.14-.07-.08-.17-5.63-11.17c-1.87-3.74-3.77-7.45-5.6-11.19l-5.53-11.23c-1.8-3.76-3.64-7.51-5.41-11.29,2,3.66,4,7.35,5.92,11l5.82,11.08c1.95,3.68,3.82,7.41,5.74,11.12l5.71,11.13-.22-.24a7.21,7.21,0,0,0,5.4.47,9.58,9.58,0,0,0,4.57-3.28l.88-1.16.95-1.23a12.66,12.66,0,0,1,1.05-1.14,10.18,10.18,0,0,1,1.12-1.06,30.77,30.77,0,0,1,5-3.53,46.9,46.9,0,0,1,11.23-4.54,29.13,29.13,0,0,1,12-.83" transform="translate(1.1)"/><g class="cls-25"><rect class="cls-26" x="401.37" y="742.26" width="58.94" height="18.68"/></g><path class="cls-3" d="M248.51,784.45s14.3,26.35,10.92,36.32A29,29,0,0,1,249,835.22" transform="translate(1.1)"/><path class="cls-27" d="M387.07,774.84S357,715.08,352.73,709.27s-35.36-35.68-45.15-44.63-50-47.42-55.47-51.28-19.86-7.63-22.31,10.53,5.81,33,15.67,46.55,42.18,49.41,46.77,55.91,19.68,25.54,23.48,39.64,13,46.91,17.3,52.94,81.55,68.77,54.05-44.09" transform="translate(1.1)"/><path class="cls-3" d="M231.35,617.91s20.36,19.15,29,16.52,9.56-4.78,9.56-4.78" transform="translate(1.1)"/><path class="cls-2" d="M299,372.84l-11.64,26.57a11.18,11.18,0,0,0,5.75,14.72l26.57,11.64A11.18,11.18,0,0,0,334.41,420L346,393.45a11.17,11.17,0,0,0-5.75-14.72l-26.56-11.64A11.17,11.17,0,0,0,299,372.84" transform="translate(1.1)"/><path class="cls-28" d="M309.64,412.09l-.25-.12-.17-.07a7.84,7.84,0,0,1-3.64-3.66,6.91,6.91,0,0,0-2-2.42,8.88,8.88,0,0,0-3.23-1.3,3.83,3.83,0,0,1-.74-.2.48.48,0,0,1-.33-.55c0-.3.1-.58.15-.85.14-.69.21-1.12,0-1.28-2.87-1.83-3.47-2.86-3.47-3.41a.78.78,0,0,1,0-.22.38.38,0,0,1,.45-.23c5.09,1.29,9.34-2.62,9.52-2.79h0a2,2,0,0,0,.84-1.45c0-.91-.91-1.71-1.51-2.24-.15-.13-.29-.25-.4-.36-1.16-1.17-1-1.79-.84-2.06a1.46,1.46,0,0,1,1.66-.27,1.14,1.14,0,0,1,.35.24,4.42,4.42,0,0,0,1.49,1.19,1.51,1.51,0,0,0,1.15.12l.38-1c.84-2.3,1.89-5.17,3.29-6.45A9.39,9.39,0,0,1,322.59,381l.59.25.08,0A9.38,9.38,0,0,1,329,390c0,1.9-1.39,4.61-2.51,6.79l-.05.1c-.16.3-.31.59-.45.88a1.49,1.49,0,0,0,.78.72h0a4.73,4.73,0,0,0,1.79.26,1.12,1.12,0,0,1,.53.12,1.53,1.53,0,0,1,.53.35h0a1.16,1.16,0,0,1,.42,1.2c-.14.33-.61.72-2.05.67l-.53-.05c-.8-.09-2-.21-2.67.41a2,2,0,0,0-.5,1.59v0c0,.25,0,6,4.41,8.89a.39.39,0,0,1,.13.49.75.75,0,0,1-.14.17c-.4.38-1.56.64-4.86-.24-.27-.07-.51.22-1,.84-.17.23-.33.45-.52.68a.45.45,0,0,1-.59.13h0a5.47,5.47,0,0,1-.66-.39,9,9,0,0,0-1.76-1,10.34,10.34,0,0,0-1.39-.48,7,7,0,0,0-3.12.19,7.88,7.88,0,0,1-5.16-.19" transform="translate(1.1)"/><g class="cls-29"><path class="cls-2" d="M122.73,276.07a6.91,6.91,0,0,0-6.84-.39c-4,2-16.83,13.44-16.83,13.44s-12.84,11.45-15.3,15.16a7.05,7.05,0,0,0-.36,6.88c2,4,8,10.61,8,10.61s6,6.69,9.65,9.12a6.91,6.91,0,0,0,6.84.39c4-2,16.83-13.44,16.83-13.44s12.84-11.45,15.29-15.16a6.86,6.86,0,0,0,.39-6.84c-2-4-8-10.62-8-10.62s-5.94-6.72-9.68-9.15" transform="translate(1.1)"/></g><polygon class="cls-28" points="114.37 313.28 119.56 297.6 103.4 300.98 114.37 313.28"/><path class="cls-2" d="M126.15,466.23A26,26,0,1,1,92,452.75a26,26,0,0,1,34.15,13.48" transform="translate(1.1)"/><path class="cls-30" d="M114,463.53a12.33,12.33,0,0,1-2.88,2.32,6.24,6.24,0,0,0,1.14-4.24,12.46,12.46,0,0,1-3,2.95,6.21,6.21,0,0,0-8.16,8.17,7,7,0,0,0,.71,1.23,17.57,17.57,0,0,1-14.31-.86,6.21,6.21,0,0,0,5.06,6.84,6.17,6.17,0,0,1-2.89.41l0,.07a6.21,6.21,0,0,0,7,3.6,6.11,6.11,0,0,1-2.53,1.21,6.23,6.23,0,0,0,7,1.65,12.44,12.44,0,0,1-6,5.5,12.24,12.24,0,0,1-1.39.51,17.56,17.56,0,0,0,9.84-1.23c10.47-4.54,12.43-15.7,9.17-23.22-.11-.25-.22-.49-.34-.73a12.81,12.81,0,0,0,1.56-4.18" transform="translate(1.1)"/><path class="cls-2" d="M302.71,252.05c-2.69.93-4.22,2.53-6,5.62l-1.52,3-9,17.53c-1.88,4.6-2.26,8.79,1.76,12.35a61.29,61.29,0,0,0,7,4.1l12.36,6.31a59.77,59.77,0,0,0,7.45,3.28c3.73.83,7.77-.47,10.51-4.94.39-.62,11.16-21.72,11.45-22.41,2.14-5.15.55-9.57-3.18-12.2-.85-.61-1-.74-5.74-3.17l-1.28-.65L312,253.42c-2.78-1.28-4.71-1.88-6.49-1.88a8.4,8.4,0,0,0-2.84.51" transform="translate(1.1)"/><path class="cls-28" d="M318.75,263.37c-6-3.05-11.4-6.49-16.42-2-2.07,1.85-3.47,4.9-5.66,9.19-1.92,3.75-3.84,7.22-4.12,10-.68,6.68,5.33,9.08,11.27,12.11,5.73,2.93,11.34,6.55,16.42,2,2.09-1.87,3.46-4.88,5.65-9.18,2.92-5.71,5.12-9.23,3.76-13.41s-5.34-5.83-10.91-8.67Zm-2.65,2c12.5,6.36,14.8,5.78,4.07,24.63-3.8,6.66-8.61,3.26-15,0-11.64-6-11.81-6.46-5.86-18.1,6-11.79,7-11.5,16.79-6.53Zm7.87,7.08a2,2,0,1,0,.86,2.65,2,2,0,0,0-.86-2.65m-8.85-1.93a8.42,8.42,0,1,0,3.67,11.33,8.42,8.42,0,0,0-3.67-11.33m-1.34,2.63c6.44,3.29,1.47,13-5,9.74s-1.47-13,5-9.74" transform="translate(1.1)"/><path class="cls-2" d="M325.51,539.08a23.89,23.89,0,1,1-32.65,8.7,24,24,0,0,1,32.65-8.7" transform="translate(1.1)"/><polygon class="cls-28" points="327.13 562.33 325.78 564.65 328.1 566 326.76 568.33 324.43 566.98 323.08 569.31 320.76 567.96 322.1 565.63 319.78 564.28 321.13 561.96 323.45 563.31 324.8 560.98 327.13 562.33"/><path class="cls-28" d="M299.7,559.51A9.6,9.6,0,0,1,306.56,548a9.21,9.21,0,0,1,9.64,3.34l.78,1.32.77,1.65-3.26.87-.48-1a5.69,5.69,0,0,0-6.52-2.74,6.27,6.27,0,0,0-4.34,7.5,5.77,5.77,0,0,0,7.23,4.19,4.75,4.75,0,0,0,2.36-1.4l.15-.25-4.65-2.7,1.5-2.58,7.36,4.26-.24.72L315.81,563a8.3,8.3,0,0,1-4.56,3.4,9.89,9.89,0,0,1-11.55-6.86" transform="translate(1.1)"/><g class="cls-32"><path class="cls-33" d="M93.11,1166.33c72.46-11.68,146-13.27,219.11-12.38,73.14,1.72,146.53,6,218.5,20.39-72.44,11.75-146,13.33-219.1,12.38-73.14-1.79-146.53-6.07-218.51-20.39Z" transform="translate(1.1)"/></g></g></g></svg>